<?xml version="1.0" encoding="UTF-8"?>
<svg width="22px" height="22px" viewBox="0 0 22 22" version="1.1" xmlns="http://www.w3.org/2000/svg" xmlns:xlink="http://www.w3.org/1999/xlink">
    <!-- Generator: Sketch 55.2 (78181) - https://sketchapp.com -->
    <title>icon_sdk_search_normal</title>
    <desc>Created with Sketch.</desc>
    <g id="icon_sdk_search_normal" stroke="none" stroke-width="1" fill="none" fill-rule="evenodd" opacity="0.600000024">
        <g id="全局/顶部tab//search" fill="#FFFFFF" fill-rule="nonzero">
            <path d="M15.2104791,16.5926262 C14.0387642,17.4761609 12.5805567,18 11,18 C7.13400675,18 4,14.8659932 4,11 C4,7.13400675 7.13400675,4 11,4 C14.8659932,4 18,7.13400675 18,11 C18,12.6137754 17.4539104,14.1000047 16.5364432,15.2839759 L17.4168592,16.224389 C17.7738835,16.6057432 17.7693563,17.200008 17.4065634,17.5758786 C17.0666195,17.9280764 16.5055278,17.9380102 16.15333,17.5980663 C16.1425646,17.5876755 16.1320641,17.5770138 16.1218385,17.5660914 L15.2104791,16.5926262 Z M11,16 C13.7614237,16 16,13.7614237 16,11 C16,8.23857625 13.7614237,6 11,6 C8.23857625,6 6,8.23857625 6,11 C6,13.7614237 8.23857625,16 11,16 Z" id="形状结合"></path>
        </g>
    </g>
</svg>