<?xml version="1.0" encoding="UTF-8"?>
<svg width="16px" height="16px" viewBox="0 0 16 16" version="1.1" xmlns="http://www.w3.org/2000/svg" xmlns:xlink="http://www.w3.org/1999/xlink">
    <!-- Generator: Sketch 55.2 (78181) - https://sketchapp.com -->
    <title>icon_sdk_arrow_down</title>
    <desc>Created with Sketch.</desc>
    <g id="icon_sdk_arrow_down" stroke="none" stroke-width="1" fill="none" fill-rule="evenodd">
        <g id="icon/arrow/down" fill="#FFFFFF">
            <g id="arrow/down" transform="translate(3.000000, 5.000000)">
                <path d="M9.31266846,0.138107417 L5,4.9258312 L0.687331536,0.138107417 C0.606469003,0.0460358056 0.51212938,0 0.404312668,0 C0.296495957,0 0.202156334,0.0460358056 0.121293801,0.138107417 C0.0404312668,0.230179028 0,0.337595908 0,0.460358056 C0,0.583120205 0.0359389039,0.685421995 0.107816712,0.767263427 L4.70350404,5.86189258 C4.78436658,5.95396419 4.88319856,6 5,6 C5.11680144,6 5.21563342,5.95396419 5.29649596,5.86189258 L9.89218329,0.782608696 C9.9640611,0.690537084 10,0.58056266 10,0.452685422 C10,0.324808184 9.95956873,0.217391304 9.8787062,0.130434783 C9.79784367,0.0434782609 9.70350404,0 9.59568733,0 C9.48787062,0 9.393531,0.0460358056 9.31266846,0.138107417 Z" id="路径" fill-rule="nonzero"></path>
            </g>
        </g>
    </g>
</svg>