<?xml version="1.0" encoding="UTF-8"?>
<svg width="375px" height="168px" viewBox="0 0 375 168" version="1.1" xmlns="http://www.w3.org/2000/svg" xmlns:xlink="http://www.w3.org/1999/xlink">
    <title>img_match_1st_into</title>
    <defs>
        <linearGradient x1="50%" y1="0%" x2="50%" y2="100%" id="linearGradient-1">
            <stop stop-color="#5078FF" offset="0%"></stop>
            <stop stop-color="#5078FF" stop-opacity="0" offset="100%"></stop>
        </linearGradient>
    </defs>
    <g id="img_match_1st_into" stroke="none" stroke-width="1" fill="none" fill-rule="evenodd">
        <path d="M105.009807,138.874866 L105.009807,129.142246 L114.098065,129.142246 L114.098065,137.234225 C114.098065,137.637433 113.887689,137.845989 113.494986,137.845989 L111.447323,137.804278 L111.727825,138.819251 L113.831588,138.819251 C114.673094,138.819251 115.107872,138.360428 115.107872,137.456684 L115.107872,128.182888 L108.922807,128.182888 C109.231359,127.585027 109.469785,126.945455 109.638086,126.250267 L108.586205,126.11123 C108.431929,126.834225 108.193502,127.515508 107.8569,128.182888 L104,128.182888 L104,138.874866 L105.009807,138.874866 Z M112.106502,135.968984 L112.106502,131.102674 L106.931244,131.102674 L106.931244,135.968984 L112.106502,135.968984 Z M111.124746,135.023529 L107.913,135.023529 L107.913,132.048128 L111.124746,132.048128 L111.124746,135.023529 Z M123.931991,138.930481 L123.931991,131.033155 C125.194249,131.700535 126.765059,132.645989 128.630396,133.869519 L129.233475,132.979679 C127.438263,131.839572 125.671102,130.838503 123.931991,129.976471 L123.931991,127.877005 L130.01888,127.877005 L130.01888,126.88984 L117.550575,126.88984 L117.550575,127.877005 L122.908159,127.877005 L122.908159,138.930481 L123.931991,138.930481 Z M134.663522,129.253476 L135.350752,128.572193 C134.663522,127.863102 133.822017,127.154011 132.81221,126.431016 L132.124981,127.070588 C133.204913,127.849198 134.046418,128.572193 134.663522,129.253476 Z M144.088383,132.715508 L144.088383,130.393583 L143.092602,130.393583 L143.092602,126.653476 L136.542884,126.653476 L136.542884,130.393583 L135.434902,130.393583 L135.434902,132.701604 L136.402634,132.701604 L136.402634,131.255615 L143.134677,131.255615 L143.134677,132.715508 L144.088383,132.715508 Z M142.138895,130.393583 L140.385759,130.393583 L140.385759,128.572193 L137.496591,128.572193 L137.496591,127.529412 L142.138895,127.529412 L142.138895,130.393583 Z M139.530229,130.393583 L137.496591,130.393583 L137.496591,129.336898 L139.530229,129.336898 L139.530229,130.393583 Z M134.284845,132.562567 L134.958049,131.881283 C134.340945,131.186096 133.58359,130.504813 132.671959,129.823529 L131.98473,130.463102 C132.966486,131.213904 133.723841,131.909091 134.284845,132.562567 Z M137.692942,138.902674 L137.692942,136.678075 L141.928519,136.678075 L141.928519,137.609626 C141.928519,137.873797 141.774243,138.012834 141.465691,138.012834 L140.091232,137.985027 L140.343684,138.874866 L141.760218,138.874866 C142.489523,138.874866 142.8682,138.513369 142.8682,137.804278 L142.8682,132.159358 L136.725211,132.159358 L136.725211,138.902674 L137.692942,138.902674 Z M141.928519,134.036364 L137.692942,134.036364 L137.692942,133.007487 L141.928519,133.007487 L141.928519,134.036364 Z M132.938436,138.860963 C133.667741,137.387166 134.32692,135.802139 134.915974,134.119786 L134.032393,133.786096 C133.47139,135.371123 132.81221,136.928342 132.04083,138.457754 L132.938436,138.860963 Z M141.928519,135.885561 L137.692942,135.885561 L137.692942,134.828877 L141.928519,134.828877 L141.928519,135.885561 Z M152.421624,138.930481 C154.329036,137.081283 155.310793,134.147594 155.352868,130.143316 L155.352868,129.976471 L157.428581,129.976471 C157.400531,133.716578 157.344431,135.95508 157.26028,136.691979 C157.14808,137.484492 156.741352,137.887701 156.054122,137.887701 C155.675445,137.887701 155.226642,137.859893 154.721739,137.832086 L154.94614,138.721925 C155.535194,138.749733 155.941922,138.763636 156.180348,138.763636 C157.386506,138.763636 158.073735,138.193583 158.213986,137.06738 C158.340212,136.038503 158.410338,133.35508 158.410338,129.003209 L155.352868,129.003209 L155.352868,126.194652 L154.343061,126.194652 L154.343061,129.003209 L152.449674,129.003209 L152.449674,129.976471 L154.343061,129.976471 L154.343061,130.143316 C154.315011,133.883422 153.417406,136.594652 151.664269,138.277005 L152.421624,138.930481 Z M151.706344,128.085561 L151.706344,127.126203 L146.629262,127.126203 L146.629262,128.085561 L151.706344,128.085561 Z M146.362785,137.526203 C148.101896,137.220321 149.728807,136.803209 151.215466,136.274866 C151.355717,136.594652 151.495968,136.928342 151.636219,137.28984 L152.505775,136.84492 C151.916721,135.440642 151.285592,134.147594 150.612387,132.951872 L149.756857,133.368984 C150.121509,134.008556 150.472137,134.68984 150.836789,135.440642 C149.742832,135.84385 148.63485,136.163636 147.526868,136.386096 C147.94762,135.468449 148.438498,133.966845 148.999502,131.853476 L152.239298,131.853476 L152.239298,130.880214 L146.082283,130.880214 L146.082283,131.853476 L148.031771,131.853476 C147.330516,134.383957 146.769513,135.927273 146.34876,136.497326 C146.29266,136.525134 146.222534,136.552941 146.124359,136.580749 L146.362785,137.526203 Z M160.79694,131.64492 C163.251331,130.768984 165.032518,129.656684 166.126475,128.321925 L166.210625,128.321925 L166.210625,130.921925 L167.192382,130.921925 L167.192382,128.321925 L167.276532,128.321925 C168.314389,129.684492 170.095575,130.782888 172.620092,131.631016 L173.054869,130.727273 C170.838905,130.143316 169.211995,129.336898 168.160113,128.321925 L172.465816,128.321925 L172.465816,127.404278 L167.192382,127.404278 L167.192382,126.125134 L166.210625,126.125134 L166.210625,127.404278 L160.937191,127.404278 L160.937191,128.321925 L165.270944,128.321925 C164.176987,129.295187 162.508001,130.115508 160.263987,130.75508 L160.79694,131.64492 Z M170.895005,136.483422 L170.895005,131.366845 L162.508001,131.366845 L162.508001,136.483422 L170.895005,136.483422 Z M169.913249,133.521925 L163.489758,133.521925 L163.489758,132.256684 L169.913249,132.256684 L169.913249,133.521925 Z M169.913249,135.593583 L163.489758,135.593583 L163.489758,134.370053 L169.913249,134.370053 L169.913249,135.593583 Z M172.704242,138.499465 L172.704242,137.567914 L160.65669,137.567914 L160.65669,138.499465 L172.704242,138.499465 Z M178.428816,138.916578 L178.428816,138.318717 L184.768157,138.318717 L184.768157,138.916578 L185.735888,138.916578 L185.735888,132.367914 L178.779444,132.367914 C179.04592,132.062032 179.298372,131.742246 179.550824,131.408556 L187.138398,131.408556 L187.138398,130.518717 L180.167928,130.518717 C180.350254,130.212834 180.53258,129.906952 180.700881,129.573262 L186.324942,129.573262 L186.324942,128.71123 L181.107609,128.71123 C181.24786,128.363636 181.38811,128.002139 181.514336,127.626738 C183.281498,127.487701 184.824258,127.279144 186.156641,126.987166 L185.693813,126.194652 C183.071121,126.722995 179.775225,126.987166 175.792099,126.987166 L176.086626,127.82139 C177.685487,127.82139 179.172146,127.779679 180.546605,127.696257 C180.406354,128.029947 180.266103,128.37754 180.111827,128.71123 L175.665874,128.71123 L175.665874,129.573262 L179.648999,129.573262 C179.466673,129.879144 179.256297,130.19893 179.031895,130.518717 L174.908519,130.518717 L174.908519,131.408556 L178.330641,131.408556 C177.334859,132.576471 176.072601,133.660963 174.543866,134.68984 L175.090845,135.551872 C175.960401,134.967914 176.745806,134.342246 177.461085,133.702674 L177.461085,138.916578 L178.428816,138.916578 Z M184.768157,134.119786 L178.428816,134.119786 L178.428816,133.188235 L184.768157,133.188235 L184.768157,134.119786 Z M184.768157,135.774332 L178.428816,135.774332 L178.428816,134.898396 L184.768157,134.898396 L184.768157,135.774332 Z M184.768157,137.498396 L178.428816,137.498396 L178.428816,136.552941 L184.768157,136.552941 L184.768157,137.498396 Z M199.440739,138.457754 C200.029793,138.429947 200.492621,138.277005 200.801173,137.985027 C201.137775,137.623529 201.376202,136.594652 201.516453,134.870588 L200.534696,134.564706 C200.450546,136.094118 200.268219,136.983957 199.987718,137.234225 C199.777341,137.40107 199.49684,137.484492 199.160237,137.484492 L192.119642,137.484492 C191.474488,137.484492 191.151911,137.164706 191.151911,136.552941 L191.151911,132.451337 L199.959668,132.451337 L199.959668,126.88984 L189.581101,126.88984 L189.581101,127.863102 L198.935836,127.863102 L198.935836,131.491979 L191.151911,131.491979 L191.151911,129.434225 L190.142104,129.434225 L190.142104,136.73369 C190.142104,137.873797 190.703108,138.457754 191.83914,138.457754 L199.440739,138.457754 Z M203.77683,135.412834 C205.179339,135.232086 206.637948,134.884492 208.152658,134.370053 L208.152658,133.480214 C207.114801,133.827807 206.062919,134.105882 204.997012,134.314439 C205.852543,133.313369 206.91845,131.64492 208.194733,129.295187 L207.311152,128.975401 C207.03065,129.503743 206.750149,130.018182 206.483672,130.518717 C205.810468,130.629947 205.151288,130.727273 204.492109,130.810695 C205.221414,129.726203 205.950719,128.280214 206.665998,126.472727 L205.726317,126.11123 C205.165313,127.765775 204.492109,129.225668 203.706704,130.504813 C203.580478,130.685561 203.440227,130.810695 203.285951,130.880214 L203.538403,131.797861 C204.351858,131.686631 205.151288,131.575401 205.950719,131.450267 C205.165313,132.757219 204.506134,133.674866 203.973181,134.217112 C203.846955,134.328342 203.692679,134.425668 203.510353,134.509091 L203.77683,135.412834 Z M215.45973,131.881283 L215.45973,130.908021 L212.528486,130.908021 L212.528486,128.850267 L215.866457,128.850267 L215.866457,127.877005 L212.528486,127.877005 L212.528486,126.194652 L211.504654,126.194652 L211.504654,127.877005 L208.152658,127.877005 L208.152658,128.850267 L211.504654,128.850267 L211.504654,130.908021 L208.615486,130.908021 L208.615486,131.881283 L215.45973,131.881283 Z M210.06007,138.860963 L210.06007,138.193583 L214.071246,138.193583 L214.071246,138.860963 L215.053002,138.860963 L215.053002,133.271658 L209.064289,133.271658 L209.064289,138.860963 L210.06007,138.860963 Z M214.071246,137.248128 L210.06007,137.248128 L210.06007,134.217112 L214.071246,134.217112 L214.071246,137.248128 Z M203.454252,138.33262 C205.277514,137.99893 206.8904,137.581818 208.320959,137.06738 L208.320959,136.121925 C206.8904,136.636364 205.235439,137.053476 203.328027,137.359358 L203.454252,138.33262 Z M224.368,138.88877 L224.368,133.841711 L224.410075,133.841711 C225.419881,135.565775 227.158993,137.109091 229.641433,138.485561 L230.328663,137.623529 C227.944398,136.51123 226.233337,135.259893 225.22353,133.841711 L228.785903,133.841711 L228.785903,129.906952 L224.368,129.906952 L224.368,128.544385 L229.82376,128.544385 L229.82376,127.585027 L224.368,127.585027 L224.368,126.194652 L223.330143,126.194652 L223.330143,127.585027 L217.846333,127.585027 L217.846333,128.544385 L223.330143,128.544385 L223.330143,129.906952 L218.94029,129.906952 L218.94029,133.841711 L222.460587,133.841711 C221.408706,135.371123 219.71167,136.62246 217.383505,137.595722 L217.972558,138.513369 C220.454999,137.28984 222.222161,135.73262 223.288068,133.841711 L223.330143,133.841711 L223.330143,138.88877 L224.368,138.88877 Z M227.776096,132.924064 L224.368,132.924064 L224.368,130.852406 L227.776096,130.852406 L227.776096,132.924064 Z M223.330143,132.924064 L219.950096,132.924064 L219.950096,130.852406 L223.330143,130.852406 L223.330143,132.924064 Z M241.87365,138.735829 C243.051757,138.735829 243.696911,138.193583 243.837162,137.136898 C243.977413,136.052406 244.047539,133.188235 244.047539,128.572193 L239.573535,128.572193 C239.825987,127.849198 240.022338,127.070588 240.190639,126.250267 L239.194857,126.125134 C238.830205,128.099465 238.171026,129.767914 237.18927,131.130481 L237.792348,131.922995 C238.339327,131.213904 238.802155,130.42139 239.194857,129.545455 L243.051757,129.545455 C243.023707,133.549733 242.967607,135.95508 242.883456,136.73369 C242.771255,137.442781 242.392578,137.804278 241.733399,137.804278 C241.298621,137.804278 240.793718,137.790374 240.204664,137.762567 L240.44309,138.680214 C241.116295,138.708021 241.593148,138.735829 241.87365,138.735829 Z M233.262244,138.44385 L233.262244,137.248128 L235.814811,137.248128 L235.814811,138.040642 L236.796567,138.040642 L236.796567,128.558289 L234.538527,128.558289 C234.819029,127.863102 235.029406,127.098396 235.197707,126.278075 L234.1879,126.139037 C234.061674,126.973262 233.865323,127.779679 233.584821,128.558289 L232.280488,128.558289 L232.280488,138.44385 L233.262244,138.44385 Z M235.814811,132.367914 L233.262244,132.367914 L233.262244,129.503743 L235.814811,129.503743 L235.814811,132.367914 Z M240.737617,135.371123 L241.537048,134.814973 C241.004094,133.952941 240.246739,132.937968 239.236933,131.783957 L238.423477,132.284492 C239.391209,133.424599 240.162589,134.453476 240.737617,135.371123 Z M235.814811,136.316578 L233.262244,136.316578 L233.262244,133.271658 L235.814811,133.271658 L235.814811,136.316578 Z M256.826733,138.513369 C257.331637,138.499465 257.724339,138.346524 258.004841,138.068449 C258.299368,137.734759 258.509744,136.747594 258.63597,135.134759 L257.668239,134.828877 C257.612138,136.247059 257.457862,137.06738 257.233461,137.303743 C257.06516,137.470588 256.840759,137.554011 256.574282,137.554011 L254.470518,137.554011 C254.049766,137.554011 253.853414,137.345455 253.853414,136.942246 L253.853414,131.672727 C255.312024,131.283422 256.854784,130.699465 258.467669,129.906952 L257.86459,129.086631 C256.560257,129.795722 255.227873,130.337968 253.853414,130.727273 L253.853414,126.319786 L252.829583,126.319786 L252.829583,137.122995 C252.829583,138.040642 253.278386,138.513369 254.175991,138.513369 L256.826733,138.513369 Z M247.135396,138.694118 C248.902557,138.304813 250.571543,137.873797 252.114303,137.387166 L251.847826,136.441711 C250.627644,136.84492 249.407461,137.192513 248.173253,137.470588 L248.173253,131.241711 L251.777701,131.241711 L251.777701,130.268449 L248.173253,130.268449 L248.173253,126.389305 L247.163446,126.389305 L247.163446,137.164706 C247.163446,137.428877 247.051245,137.623529 246.826844,137.762567 L247.135396,138.694118 Z M263.995892,136.73369 L263.995892,134.286631 L269.605928,134.286631 L269.605928,136.73369 L270.587684,136.73369 L270.587684,134.064171 C271.162713,134.342246 271.835918,134.606417 272.593272,134.842781 L273,133.994652 C271.48529,133.633155 270.335233,133.160428 269.563853,132.548663 L272.691448,132.548663 L272.691448,131.742246 L268.834548,131.742246 L268.834548,130.908021 L270.65781,130.908021 L270.65781,130.171123 L268.834548,130.171123 L268.834548,129.336898 L270.924287,129.336898 L270.924287,128.572193 L268.834548,128.572193 L268.834548,127.793583 L271.443215,127.793583 L271.443215,129.197861 L272.424971,129.197861 L272.424971,126.945455 L267.319838,126.945455 C267.151537,126.583957 266.969211,126.278075 266.80091,126 L265.735003,126.180749 C265.917329,126.403209 266.099656,126.66738 266.267957,126.945455 L261.036598,126.945455 L261.036598,129.197861 L262.018354,129.197861 L262.018354,127.793583 L264.612996,127.793583 L264.612996,128.572193 L262.537283,128.572193 L262.537283,129.336898 L264.612996,129.336898 L264.612996,130.171123 L262.817784,130.171123 L262.817784,130.908021 L264.612996,130.908021 L264.612996,131.742246 L260.798171,131.742246 L260.798171,132.548663 L263.841616,132.548663 C263.084261,133.13262 261.934204,133.633155 260.419494,134.036364 L260.938422,134.870588 C261.709802,134.592513 262.397032,134.300535 263.014136,133.980749 L263.014136,136.73369 L263.995892,136.73369 Z M267.852792,128.572193 L265.608777,128.572193 L265.608777,127.793583 L267.852792,127.793583 L267.852792,128.572193 Z M267.852792,130.171123 L265.608777,130.171123 L265.608777,129.336898 L267.852792,129.336898 L267.852792,130.171123 Z M267.852792,131.742246 L265.608777,131.742246 L265.608777,130.908021 L267.852792,130.908021 L267.852792,131.742246 Z M269.591903,133.480214 L263.827591,133.480214 C264.234319,133.188235 264.584946,132.882353 264.893498,132.548663 L268.525996,132.548663 C268.806498,132.868449 269.157125,133.174332 269.591903,133.480214 Z M261.822003,138.972193 C264.009917,138.805348 265.412426,138.402139 266.02953,137.776471 C266.590534,137.275936 266.955186,136.28877 267.123487,134.814973 L266.183806,134.731551 C266.099656,135.899465 265.777079,136.719786 265.216075,137.206417 C264.598971,137.720856 263.350738,138.026738 261.443326,138.124064 L261.822003,138.972193 Z M271.37309,139 L271.877993,138.207487 C270.60171,137.567914 269.185175,137.011765 267.642416,136.552941 L267.137512,137.275936 C268.582097,137.693048 269.998631,138.277005 271.37309,139 Z" id="向下滑动查看已结束的比赛" fill="#FFFFFF" fill-rule="nonzero"></path>
        <path d="M251.544814,54 C252.061816,54 252.582149,54.0930739 253.090194,54.2763168 C255.500364,55.1476793 256.60976,57.7355643 255.663434,60.3152574 L248.21364,79.3484099 C248.605009,79.787577 249.168177,80.536061 249.801797,81.7312069 C251.994808,85.8703821 250.445466,93.4066392 244.715836,97.6031577 C240.618978,100.602729 236.842518,102 232.830066,102 C230.47921,102 228.030971,101.529111 225.34984,100.560491 C217.725205,97.8063865 216.567634,93.0893048 216.035415,88.4939977 C215.522145,84.0724054 220.754066,69.7419842 220.977714,69.1340407 C221.510449,67.6828544 223.037627,66.707844 224.778978,66.707844 C225.277032,66.707844 225.758722,66.790344 226.20929,66.9531943 C226.453896,67.0416203 227.047725,67.3514019 227.615715,67.7807505 C228.338451,66.1977966 229.944695,65.1565539 231.713607,65.1565539 C232.237869,65.1565574 232.758219,65.2478657 233.251867,65.4264799 C234.225237,65.7784991 235.029565,66.4366979 235.559314,67.3051555 C236.677036,65.8903389 238.531446,65.2994183 240.258787,65.9224674 C241.386902,66.330029 242.2653,67.1475341 242.733439,68.2240426 L247.215121,57.2419007 C247.937339,55.2724751 249.637521,54 251.544814,54 Z M248.954067,57.9986134 L242.227527,74.4903335 C242.044196,74.9431264 241.544166,75.1851793 241.069804,75.0475414 C240.59727,74.9110032 240.30641,74.4414252 240.395189,73.9606764 L240.92323,71.1101013 C240.941404,71.0601557 240.955663,71.008874 240.965876,70.9567201 C241.207173,70.2997855 241.197169,69.6095701 240.939694,69.0138723 C240.68622,68.4258724 240.204312,67.9784045 239.581089,67.7537734 C238.334587,67.3027748 237.09746,68.0012091 236.592799,69.376778 L235.935677,71.1667655 C235.754633,71.6608266 235.203782,71.9157867 234.706668,71.7361281 C234.209553,71.5564695 233.952078,71.0098537 234.133751,70.5156189 L234.134895,70.5109886 C234.366702,69.8750643 234.335775,69.1865853 234.04846,68.572829 C233.759886,67.9579151 233.246479,67.491752 232.605707,67.2596544 C232.30712,67.2593843 232.010855,67.2072489 231.730154,67.1055787 C230.658351,67.1055787 229.692819,67.7782565 229.325471,68.7776652 C229.325471,68.7776652 228.032778,71.9695569 227.749464,72.6573414 C227.465693,73.3452416 227.015854,73.4543448 226.53629,73.2757859 C226.056782,73.097285 225.885685,72.6066387 226.101714,72.0033587 C226.316601,71.4007153 226.935822,69.7257926 226.935822,69.7257926 C226.639703,69.420535 226.018309,68.9335353 225.592995,68.7800383 C225.355871,68.6943764 225.098739,68.6511402 224.826,68.6511402 C223.910717,68.6511402 223.095817,69.1300368 222.84423,69.8144643 C221.375238,73.8229806 217.64625,84.9445066 218.027146,88.2320735 C218.527119,92.5423168 219.475158,96.303571 226.050379,98.6796483 C228.507655,99.5682753 230.728493,100 232.841688,100 C236.455487,100 239.753387,98.7636896 243.535426,95.99131 C246.941827,93.4955374 250.39036,87.037205 248.039984,82.5991634 C247.786396,82.1202089 247.551616,81.7316046 247.344275,81.4206749 L244.920956,87.6129344 C244.729907,88.1036384 244.173797,88.3462701 243.679084,88.1561932 C243.185513,87.9658848 242.940729,87.4140019 243.131834,86.9233557 L253.778182,59.706759 C254.357615,58.125833 253.773494,56.6637918 252.357038,56.1514986 C250.959275,55.6474243 249.527612,56.4361509 248.954067,57.9986134 Z" id="形状结合" fill="#FFFFFF" fill-rule="nonzero" transform="translate(236.000000, 78.000000) scale(1, -1) rotate(-158.000000) translate(-236.000000, -78.000000) "></path>
        <g id="编组备份" transform="translate(185.000000, 57.000000) scale(1, -1) translate(-185.000000, -57.000000) translate(170.000000, 28.000000)" fill-rule="nonzero">
            <path d="M13.4090097,13.6876623 C14.2876894,12.7707792 15.7123106,12.7707792 16.5909903,13.6876623 L16.5909903,13.6876623 L29.3409903,26.9920102 C30.2196699,27.9088933 30.2196699,29.3954545 29.3409903,30.3123377 C28.4623106,31.2292208 27.0376894,31.2292208 26.1590097,30.3123377 L26.1590097,30.3123377 L17.419,21.192 L17.4193548,55.6226415 C17.4193548,56.8809129 16.4245574,57.9108701 15.1656439,57.9945154 L15,58 C13.6638272,58 12.5806452,56.9356203 12.5806452,55.6226415 L12.5806452,55.6226415 L12.58,21.193 L3.84099026,30.3123377 C3.00225059,31.1875443 1.66607244,31.2273264 0.782111087,30.431684 L0.659009742,30.3123377 C-0.219669914,29.3954545 -0.219669914,27.9088933 0.659009742,26.9920102 L0.659009742,26.9920102 Z" id="形状结合" fill="url(#linearGradient-1)"></path>
            <path d="M26.1590097,17.3123377 C27.0376894,18.2292208 28.4623106,18.2292208 29.3409903,17.3123377 C30.2196699,16.3954545 30.2196699,14.9088933 29.3409903,13.9920102 L16.5909903,0.68766234 C15.7123106,-0.22922078 14.2876894,-0.22922078 13.4090097,0.68766234 L0.659009742,13.9920102 C-0.219669914,14.9088933 -0.219669914,16.3954545 0.659009742,17.3123377 C1.5376894,18.2292208 2.9623106,18.2292208 3.84099026,17.3123377 L15,5.66815358 L26.1590097,17.3123377 Z" id="路径-9备份" fill="#5078FF" opacity="0.300000012"></path>
        </g>
    </g>
</svg>