<?xml version="1.0" encoding="UTF-8"?>
<svg width="375px" height="361px" viewBox="0 0 375 361" version="1.1" xmlns="http://www.w3.org/2000/svg" xmlns:xlink="http://www.w3.org/1999/xlink">
    <title>img_detail_2nd_into</title>
    <defs>
        <path d="M324,21 L375,21 L375,21 L375,63 L324,63 C312.40202,63 303,53.5979797 303,42 C303,30.4020203 312.40202,21 324,21 Z" id="path-1"></path>
        <filter x="-16.7%" y="-28.6%" width="133.3%" height="157.1%" filterUnits="objectBoundingBox" id="filter-2">
            <feOffset dx="0" dy="0" in="SourceAlpha" result="shadowOffsetOuter1"></feOffset>
            <feGaussianBlur stdDeviation="4" in="shadowOffsetOuter1" result="shadowBlurOuter1"></feGaussianBlur>
            <feColorMatrix values="0 0 0 0 0   0 0 0 0 0   0 0 0 0 0  0 0 0 0.3 0" type="matrix" in="shadowBlurOuter1"></feColorMatrix>
        </filter>
        <path d="M324,17 L375,17 L375,17 L375,67 L324,67 C310.192881,67 299,55.8071187 299,42 C299,28.1928813 310.192881,17 324,17 Z" id="path-3"></path>
        <mask id="mask-4" maskContentUnits="userSpaceOnUse" maskUnits="objectBoundingBox" x="0" y="0" width="76" height="50" fill="white">
            <use xlink:href="#path-3"></use>
        </mask>
        <linearGradient x1="50%" y1="0%" x2="50%" y2="100%" id="linearGradient-5">
            <stop stop-color="#5078FF" offset="0%"></stop>
            <stop stop-color="#5078FF" stop-opacity="0" offset="100%"></stop>
        </linearGradient>
    </defs>
    <g id="img_detail_2nd_into" stroke="none" stroke-width="1" fill="none" fill-rule="evenodd">
        <path d="M28.3186216,183.485616 C29.3967206,182.889036 30.3071153,182.149277 31.0617846,181.290203 C31.7685383,181.958372 32.4034188,182.650404 32.9664261,183.3663 L33.5414122,182.686199 C32.9424683,181.994167 32.2836301,181.314066 31.5648974,180.645897 C32.1997779,179.774891 32.6909119,178.784568 33.0382994,177.662999 L33.0382994,177.054488 L28.0071708,177.054488 L27.9951919,175.682355 C29.8878546,175.634628 31.6128129,175.407928 33.1580881,175.002254 L32.7388274,174.262495 C31.2294888,174.656238 29.3847417,174.882938 27.204586,174.930664 L27.204586,177.555614 C27.1686494,179.762959 26.7613675,181.481108 25.9947194,182.698131 L26.7733464,183.079942 C27.5280157,181.886782 27.9352975,180.132838 27.9951919,177.794246 L32.1758202,177.794246 C31.8763482,178.629458 31.4690664,179.39308 30.9539747,180.097044 C30.2831575,179.512396 29.552446,178.951611 28.7857978,178.414689 L28.282685,179.0232 C29.061312,179.572054 29.7800447,180.132838 30.4508618,180.729418 C29.7321292,181.540766 28.8576711,182.232799 27.8035299,182.805515 L28.3186216,183.485616 Z M25.2160923,176.803924 L25.838994,176.195413 C25.2879656,175.563039 24.6051696,174.930664 23.8025848,174.29829 L23.2156198,174.859075 C24.0661201,175.551107 24.7369372,176.207345 25.2160923,176.803924 Z M23.6468594,185.096381 C24.3176765,183.998674 24.7968316,183.449821 25.0843247,183.449821 C25.2280712,183.449821 25.3837966,183.545274 25.539522,183.748111 C25.9108672,184.177648 26.3301279,184.475938 26.7853253,184.619117 C27.2644804,184.750365 27.887382,184.821954 28.6420513,184.833886 C29.3967206,184.845817 30.0914955,184.857749 30.7383549,184.857749 L33.5414122,184.857749 L33.7330742,184.034469 C33.4216234,184.046401 32.9664261,184.058332 32.3794611,184.082195 C31.7805172,184.082195 31.2055311,184.094127 30.630545,184.094127 C29.7081714,184.094127 28.9295444,184.082195 28.3066427,184.070264 C27.6118678,184.046401 27.0728184,183.950948 26.713452,183.783906 C26.3900223,183.616863 26.0785715,183.3663 25.7910785,183.020284 C25.6952474,182.912899 25.6113953,182.817447 25.5155643,182.745857 L25.5155643,178.27151 L23,178.27151 L23,179.058995 L24.7129795,179.058995 L24.7129795,182.686199 C24.2098666,182.900968 23.6468594,183.509479 23,184.511733 L23.6468594,185.096381 Z M36.5021914,184.881612 L36.5021914,184.368554 L44.4322083,184.368554 L44.4322083,184.881612 L45.2707297,184.881612 L45.2707297,174.847143 L35.66367,174.847143 L35.66367,184.881612 L36.5021914,184.881612 Z M44.4322083,183.604932 L36.5021914,183.604932 L36.5021914,175.610765 L44.4322083,175.610765 L44.4322083,183.604932 Z M42.7911021,181.707809 L42.7911021,177.460162 L38.1672554,177.460162 L38.1672554,181.707809 L42.7911021,181.707809 Z M41.9765384,180.979981 L38.9698402,180.979981 L38.9698402,178.19992 L41.9765384,178.19992 L41.9765384,180.979981 Z M55.5745608,184.953202 C56.3172513,184.953202 56.6885965,184.571391 56.6885965,183.8197 L56.6885965,177.14994 L58.1619984,177.14994 L58.1619984,176.32666 L56.6885965,176.32666 L56.6885965,174.2267 L55.8141384,174.2267 L55.8141384,176.32666 L51.6694468,176.32666 L51.6694468,177.14994 L55.8141384,177.14994 L55.8141384,183.604932 C55.8141384,183.974811 55.6344552,184.165717 55.2870678,184.165717 C54.6521873,184.165717 53.993349,184.141853 53.2985741,184.11799 L53.4782573,184.953202 L55.5745608,184.953202 Z M48.5070231,184.106059 L48.5070231,183.020284 L50.279897,183.020284 L50.279897,183.8197 L51.1184184,183.8197 L51.1184184,175.026117 L47.6685017,175.026117 L47.6685017,184.106059 L48.5070231,184.106059 Z M50.279897,178.545937 L48.5070231,178.545937 L48.5070231,175.813602 L50.279897,175.813602 L50.279897,178.545937 Z M53.8376236,182.01803 L54.5563563,181.516903 C54.1610533,180.681692 53.5860672,179.703301 52.8433768,178.581731 L52.136623,179.0232 C52.8553557,180.120907 53.4183629,181.123161 53.8376236,182.01803 Z M50.279897,182.220867 L48.5070231,182.220867 L48.5070231,179.345353 L50.279897,179.345353 L50.279897,182.220867 Z M67.5075193,184.988996 C68.2741675,184.988996 68.6574915,184.583322 68.6574915,183.795837 L68.6574915,175.682355 L70.2387034,175.682355 L70.2387034,174.847143 L59.5535446,174.847143 L59.5535446,175.682355 L67.7950124,175.682355 L67.7950124,183.581069 C67.7950124,183.986743 67.5913714,184.201511 67.2080474,184.201511 C66.6091035,184.201511 65.974223,184.177648 65.3153847,184.153785 L65.5070468,184.988996 L67.5075193,184.988996 Z M61.7816158,182.936763 L61.7816158,181.886782 L65.6028778,181.886782 L65.6028778,177.507888 L60.9430944,177.507888 L60.9430944,182.936763 L61.7816158,182.936763 Z M64.7763352,181.099297 L61.7816158,181.099297 L61.7816158,178.283442 L64.7763352,178.283442 L64.7763352,181.099297 Z M75.9306666,184.953202 C77.6795828,183.950948 78.9493438,182.721994 79.7399497,181.278271 C80.6503444,182.531088 81.3810559,183.712316 81.9440631,184.833886 L82.6029014,184.177648 C81.9320843,182.936763 81.1055417,181.695877 80.1232738,180.454991 C80.195147,180.276017 80.2550414,180.097044 80.3149358,179.91807 C80.8180487,178.3431 81.0696051,176.434045 81.0696051,174.167042 L80.1711893,174.167042 C80.1592104,176.46984 79.907654,178.366963 79.4045411,179.858412 C78.7457029,181.624287 77.3920897,183.079942 75.3556805,184.249238 L75.9306666,184.953202 Z M72.6484542,183.712316 C74.0499829,183.199258 75.3676594,182.590746 76.5895049,181.886782 L76.3499274,181.051571 C75.4275538,181.600424 74.5051802,182.065756 73.5708278,182.447567 L73.5708278,174.477264 L72.6843908,174.477264 L72.6843908,182.24473 C72.6843908,182.519157 72.5765809,182.733925 72.3609611,182.900968 L72.6484542,183.712316 Z M77.3920897,179.214106 L78.1228012,178.712979 C77.5478151,177.782315 76.7092937,176.684608 75.6192158,175.431791 L74.9004832,175.87326 C75.9546244,177.102214 76.7811669,178.211852 77.3920897,179.214106 Z M85.2881664,185.024791 C85.9350258,185.024791 86.2704344,184.690707 86.2704344,184.022537 L86.2704344,180.359539 C86.6298007,180.192496 86.9771882,180.013522 87.3245756,179.822617 L87.3245756,178.963542 C86.9771882,179.166379 86.6298007,179.357285 86.2704344,179.524327 L86.2704344,177.14994 L87.3365545,177.14994 L87.3365545,176.32666 L86.2704344,176.32666 L86.2704344,174.167042 L85.4079552,174.167042 L85.4079552,176.32666 L84.0064265,176.32666 L84.0064265,177.14994 L85.4079552,177.14994 L85.4079552,179.894207 C84.9048423,180.097044 84.3897506,180.264086 83.86268,180.407265 L84.0663209,181.218613 C84.5215183,181.075434 84.9647367,180.908392 85.4079552,180.74135 L85.4079552,183.807769 C85.4079552,184.094127 85.2642087,184.237306 84.9886945,184.237306 C84.7012014,184.237306 84.3897506,184.213443 84.0663209,184.177648 L84.2460041,185.024791 L85.2881664,185.024791 Z M93.2301622,184.774228 C93.8530638,184.762296 94.2723246,184.48787 94.4639866,183.939016 C94.5957542,183.581069 94.7035641,182.996421 94.7754374,182.185072 L93.9728526,181.922577 C93.8890005,182.781652 93.8051483,183.330505 93.7093173,183.557205 C93.5655708,183.8197 93.3259932,183.950948 92.9786058,183.962879 L89.3010904,183.962879 C88.9177663,183.962879 88.7380831,183.807769 88.7380831,183.509479 L88.7380831,179.774891 L94.0686836,179.774891 L94.0686836,174.763622 L87.875604,174.763622 L87.875604,183.807769 C87.875604,184.452075 88.2349703,184.774228 88.9776607,184.774228 L93.2301622,184.774228 Z M90.5708514,178.975474 L88.7380831,178.975474 L88.7380831,175.586902 L90.5708514,175.586902 L90.5708514,178.975474 Z M93.2421411,178.975474 L91.3734362,178.975474 L91.3734362,175.586902 L93.2421411,175.586902 L93.2421411,178.975474 Z M101.952781,185.072518 L101.952781,182.626541 L104.516261,182.626541 L104.516261,181.803261 L101.952781,181.803261 L101.952781,177.14994 L102.048613,177.14994 C102.863176,179.309559 104.324599,181.254408 106.432882,182.972557 L107.019847,182.232799 C104.95948,180.74135 103.522014,179.047064 102.71943,177.14994 L106.624544,177.14994 L106.624544,176.32666 L101.952781,176.32666 L101.952781,174.167042 L101.066345,174.167042 L101.066345,176.32666 L96.3826034,176.32666 L96.3826034,177.14994 L100.299696,177.14994 C99.4132595,179.261832 97.9757942,180.991913 95.9633427,182.328251 L96.4544767,183.127668 C98.5867169,181.564629 100.096055,179.572054 100.982492,177.14994 L101.066345,177.14994 L101.066345,181.803261 L98.5986958,181.803261 L98.5986958,182.626541 L101.066345,182.626541 L101.066345,185.072518 L101.952781,185.072518 Z M108.423372,183.915153 C109.765006,183.616863 111.022788,183.246984 112.184739,182.805515 L112.184739,181.910646 C111.693605,182.101551 111.190492,182.268593 110.663422,182.423704 L110.663422,178.259578 L112.160782,178.259578 L112.160782,177.436299 L110.663422,177.436299 L110.663422,174.393743 L109.776985,174.393743 L109.776985,177.436299 L108.33952,177.436299 L108.33952,178.259578 L109.776985,178.259578 L109.776985,182.674268 C109.261893,182.793583 108.734823,182.912899 108.195773,183.008352 L108.423372,183.915153 Z M116.772649,184.917407 C117.659086,184.893544 118.198136,184.48787 118.401777,183.676521 C118.593439,182.877105 118.725206,181.087366 118.79708,178.307305 L114.197191,178.307305 C115.562783,177.44823 116.832544,176.541429 117.982516,175.563039 L117.982516,174.811348 L112.867535,174.811348 L112.867535,175.598833 L116.724734,175.598833 C115.502888,176.541429 114.173233,177.436299 112.723789,178.27151 L112.723789,179.070927 L114.484684,179.070927 C114.10136,180.240223 113.430543,181.182819 112.472232,181.922577 L113.011282,182.578815 C114.089381,181.743603 114.856029,180.574307 115.299247,179.070927 L116.245579,179.070927 C115.994022,180.335675 115.598719,181.361792 115.05967,182.125414 C114.472705,182.889036 113.610226,183.593 112.472232,184.225375 L112.999303,184.893544 C114.245106,184.177648 115.179459,183.378231 115.80236,182.483362 C116.353389,181.648151 116.784628,180.514649 117.072121,179.070927 L117.934601,179.070927 C117.862727,181.600424 117.754917,183.06801 117.599192,183.449821 C117.431488,183.879358 117.108058,184.094127 116.640882,184.106059 C116.2336,184.106059 115.814339,184.082195 115.3831,184.058332 L115.622677,184.893544 C115.994022,184.905475 116.377346,184.917407 116.772649,184.917407 Z M129.675897,184.738433 C130.107137,184.726501 130.442545,184.595254 130.682123,184.356622 C130.933679,184.070264 131.113362,183.223121 131.221172,181.839056 L130.39463,181.576561 C130.346714,182.793583 130.214946,183.497547 130.023284,183.700384 C129.879538,183.843564 129.687876,183.915153 129.460277,183.915153 L127.663446,183.915153 C127.304079,183.915153 127.136375,183.736179 127.136375,183.390163 L127.136375,178.86809 C128.382178,178.534005 129.699855,178.032878 131.077426,177.352777 L130.562334,176.648813 C129.448298,177.257325 128.310305,177.722657 127.136375,178.056741 L127.136375,174.274427 L126.261917,174.274427 L126.261917,183.545274 C126.261917,184.332759 126.645241,184.738433 127.411889,184.738433 L129.675897,184.738433 Z M121.398493,184.893544 C122.907831,184.559459 124.333318,184.18958 125.650994,183.771974 L125.423395,182.960626 C124.381233,183.306642 123.339071,183.604932 122.28493,183.843564 L122.28493,178.49821 L125.363501,178.49821 L125.363501,177.662999 L122.28493,177.662999 L122.28493,174.334085 L121.42245,174.334085 L121.42245,183.581069 C121.42245,183.807769 121.326619,183.974811 121.134957,184.094127 L121.398493,184.893544 Z M135.7991,183.211189 L135.7991,181.111229 L140.590651,181.111229 L140.590651,183.211189 L141.429172,183.211189 L141.429172,180.920323 C141.920306,181.158955 142.495292,181.385656 143.142152,181.588493 L143.489539,180.860666 C142.19582,180.550444 141.213552,180.14477 140.554714,179.61978 L143.226004,179.61978 L143.226004,178.927748 L139.931813,178.927748 L139.931813,178.211852 L141.489067,178.211852 L141.489067,177.579478 L139.931813,177.579478 L139.931813,176.863582 L141.716665,176.863582 L141.716665,176.207345 L139.931813,176.207345 L139.931813,175.539175 L142.159884,175.539175 L142.159884,176.744266 L142.998405,176.744266 L142.998405,174.811348 L138.638094,174.811348 C138.494347,174.501127 138.338622,174.238632 138.194875,174 L137.284481,174.155111 C137.440206,174.346016 137.595931,174.572716 137.739678,174.811348 L133.271557,174.811348 L133.271557,176.744266 L134.110078,176.744266 L134.110078,175.539175 L136.32617,175.539175 L136.32617,176.207345 L134.553297,176.207345 L134.553297,176.863582 L136.32617,176.863582 L136.32617,177.579478 L134.792874,177.579478 L134.792874,178.211852 L136.32617,178.211852 L136.32617,178.927748 L133.067916,178.927748 L133.067916,179.61978 L135.667332,179.61978 C135.020473,180.120907 134.038205,180.550444 132.744486,180.89646 L133.187705,181.612356 C133.846543,181.373724 134.433508,181.123161 134.960578,180.848734 L134.960578,183.211189 L135.7991,183.211189 Z M139.093291,176.207345 L137.176671,176.207345 L137.176671,175.539175 L139.093291,175.539175 L139.093291,176.207345 Z M139.093291,177.579478 L137.176671,177.579478 L137.176671,176.863582 L139.093291,176.863582 L139.093291,177.579478 Z M139.093291,178.927748 L137.176671,178.927748 L137.176671,178.211852 L139.093291,178.211852 L139.093291,178.927748 Z M140.578672,180.419197 L135.655353,180.419197 C136.002741,180.168633 136.302213,179.906138 136.565748,179.61978 L139.668277,179.61978 C139.907855,179.894207 140.207327,180.156702 140.578672,180.419197 Z M133.942374,185.132176 C135.811079,184.988996 137.008966,184.64298 137.536037,184.106059 C138.015192,183.676521 138.326643,182.829378 138.470389,181.564629 L137.667805,181.49304 C137.595931,182.495294 137.320417,183.199258 136.841262,183.616863 C136.314192,184.058332 135.248071,184.320827 133.618944,184.404348 L133.942374,185.132176 Z M142.099989,185.156039 L142.531229,184.475938 C141.441151,183.927085 140.231284,183.449821 138.913608,183.056078 L138.482368,183.676521 C139.716193,184.034469 140.926059,184.535596 142.099989,185.156039 Z M148.905988,178.534005 C149.445038,177.889699 149.936172,177.14994 150.367411,176.314729 L155.50635,176.314729 L155.50635,175.491449 L150.750735,175.491449 C150.91844,175.097706 151.086144,174.692032 151.22989,174.262495 L150.439285,174.095453 C149.900235,175.64656 149.20546,176.911308 148.342981,177.877767 L148.905988,178.534005 Z M146.258656,184.965133 C146.953431,184.965133 147.312798,184.595254 147.312798,183.879358 L147.312798,180.538513 C147.744037,180.359539 148.175277,180.168633 148.594537,179.953865 L148.594537,179.082858 C148.175277,179.297627 147.744037,179.500464 147.312798,179.691369 L147.312798,177.245393 L148.474749,177.245393 L148.474749,176.422113 L147.312798,176.422113 L147.312798,174.167042 L146.474276,174.167042 L146.474276,176.422113 L145.012853,176.422113 L145.012853,177.245393 L146.474276,177.245393 L146.474276,180.013522 C145.935227,180.204428 145.384198,180.359539 144.821191,180.490786 L145.036811,181.349861 C145.515966,181.206682 145.995121,181.039639 146.474276,180.872597 L146.474276,183.66459 C146.474276,184.022537 146.306572,184.213443 145.971163,184.213443 C145.68367,184.213443 145.384198,184.18958 145.072747,184.153785 L145.252431,184.965133 L146.258656,184.965133 Z M153.853265,184.86968 C154.512103,184.86968 154.9673,184.750365 155.218857,184.511733 C155.458434,184.273101 155.626139,183.593 155.72197,182.47143 L154.9673,182.220867 C154.907406,183.151531 154.787617,183.700384 154.619913,183.867427 C154.428251,184.010606 154.128779,184.094127 153.721497,184.094127 L151.122081,184.094127 C150.786672,184.094127 150.618968,183.879358 150.618968,183.473684 L150.618968,179.953865 L151.948623,179.512396 L151.948623,182.948694 L152.715271,182.948694 L152.715271,179.261832 L154.284504,178.736842 C154.272525,180.07318 154.248568,180.836802 154.200652,181.051571 C154.152737,181.26634 154.00899,181.385656 153.769413,181.385656 C153.57775,181.385656 153.350152,181.373724 153.086616,181.373724 L153.314215,182.125414 L153.625666,182.125414 C154.380335,182.125414 154.811575,181.898714 154.907406,181.469177 C155.003237,181.027708 155.063131,179.762959 155.063131,177.67493 L152.715271,178.474347 L152.715271,176.92324 L151.948623,176.92324 L151.948623,178.736842 L150.618968,179.190243 L150.618968,177.758452 L149.840341,177.758452 L149.840341,179.452738 L148.917967,179.762959 L148.917967,180.526581 L149.840341,180.21636 L149.840341,183.581069 C149.840341,184.440143 150.199707,184.86968 150.930419,184.86968 L153.853265,184.86968 Z M157.544755,184.905475 C160.06032,183.282779 161.713405,180.944187 162.504011,177.901631 C162.563905,178.04481 162.623799,178.211852 162.695673,178.402758 C163.929497,181.552698 165.510709,183.724248 167.451287,184.893544 L167.990337,184.201511 C166.097674,183.020284 164.600314,181.003845 163.4743,178.152194 C162.731609,176.219276 161.833194,174.871006 160.767073,174.131248 L160.048341,174.584648 C160.814989,175.133501 161.473827,175.897123 162.024856,176.899377 C161.258207,180.07318 159.593143,182.507225 157.029664,184.177648 L157.544755,184.905475 Z M172.891694,175.515312 C175.718709,175.515312 177.994696,175.27668 179.707675,174.82328 L179.312372,174.143179 C177.551477,174.572716 175.323406,174.799417 172.640137,174.799417 L172.891694,175.515312 Z M171.633912,176.69654 L172.220877,176.111892 C171.645891,175.515312 170.951116,174.930664 170.124573,174.334085 L169.525629,174.894869 C170.412066,175.539175 171.11882,176.135755 171.633912,176.69654 Z M178.545724,177.925494 C178.976964,177.281188 179.33633,176.541429 179.623823,175.706218 L178.845196,175.491449 C178.545724,176.362455 178.198337,177.090282 177.791055,177.662999 L178.545724,177.925494 Z M176.13797,177.81811 L176.844724,177.555614 C176.677019,177.030624 176.449421,176.445976 176.13797,175.80167 L175.395279,176.004507 C175.682772,176.601087 175.92235,177.197667 176.13797,177.81811 Z M173.670321,177.925494 L174.413011,177.74652 C174.185413,177.066419 173.933856,176.46984 173.658342,175.94485 L172.939609,176.17155 C173.227102,176.732335 173.478659,177.316983 173.670321,177.925494 Z M171.286524,179.560122 L171.885468,178.975474 C171.370376,178.355031 170.735496,177.74652 169.968848,177.126077 L169.381883,177.698794 C170.196446,178.355031 170.831327,178.975474 171.286524,179.560122 Z M175.994223,184.94127 C176.700977,184.94127 177.060343,184.583322 177.060343,183.867427 L177.060343,181.886782 L180.222767,181.886782 L180.222767,181.051571 L177.060343,181.051571 L177.060343,180.478855 C177.874907,179.930001 178.605618,179.416943 179.252478,178.915816 L179.252478,178.283442 L173.298976,178.283442 L173.298976,179.082858 L177.94678,179.082858 C177.275963,179.512396 176.688998,179.870343 176.209843,180.156702 L176.209843,181.051571 L172.604201,181.051571 L172.604201,181.886782 L176.209843,181.886782 L176.209843,183.628795 C176.209843,183.986743 176.018181,184.177648 175.658815,184.177648 C175.299448,184.177648 174.796335,184.153785 174.161455,184.129922 L174.401032,184.94127 L175.994223,184.94127 Z M170.304256,184.953202 C170.927158,183.628795 171.490165,182.220867 171.993278,180.717486 L171.238609,180.419197 C170.759454,181.850988 170.184468,183.246984 169.51365,184.607185 L170.304256,184.953202 Z M182.752307,176.899377 L182.752307,175.80167 L191.185436,175.80167 L191.185436,176.732335 L192,176.732335 L192,175.073843 L187.436048,175.073843 C187.292301,174.703964 187.160533,174.369879 187.016787,174.07159 L186.118371,174.214769 C186.286075,174.477264 186.429822,174.763622 186.573568,175.073843 L181.937743,175.073843 L181.937743,176.899377 L182.752307,176.899377 Z M191.161479,178.068673 L191.592718,177.424367 C190.538577,176.935172 189.376626,176.517566 188.106865,176.183481 L187.711562,176.756198 C188.885492,177.066419 190.035464,177.507888 191.161479,178.068673 Z M182.680433,178.092536 C184.117899,177.722657 185.303807,177.269256 186.262118,176.732335 L185.782963,176.183481 C184.872568,176.684608 183.734575,177.078351 182.345025,177.388572 L182.680433,178.092536 Z M183.435103,185.096381 L183.435103,184.559459 L190.526598,184.559459 L190.526598,185.096381 L191.365119,185.096381 L191.365119,178.438552 L186.765231,178.438552 C186.932935,178.128331 187.076681,177.806178 187.172512,177.460162 L186.34597,177.340846 C186.250139,177.710725 186.106392,178.080605 185.91473,178.438552 L182.596581,178.438552 L182.596581,185.096381 L183.435103,185.096381 Z M190.526598,183.8197 L183.435103,183.8197 L183.435103,179.142516 L190.526598,179.142516 L190.526598,183.8197 Z M184.704864,183.700384 C185.890772,183.414026 186.861062,183.044147 187.62771,182.590746 C188.178738,182.889036 188.705809,183.223121 189.232879,183.593 L189.747971,182.996421 C189.280795,182.698131 188.789661,182.411773 188.26259,182.149277 C188.80164,181.707809 189.184964,181.19475 189.400584,180.610102 L189.400584,180.025454 L186.777209,180.025454 C186.896998,179.84648 186.992829,179.667506 187.076681,179.476601 L186.310033,179.333422 C185.926709,180.120907 185.184019,180.801008 184.10592,181.349861 L184.561117,181.958372 C185.267871,181.576561 185.842857,181.135092 186.286075,180.657828 L188.621957,180.657828 C188.406337,181.075434 188.058949,181.457245 187.579794,181.803261 C187.148555,181.588493 186.693357,181.397587 186.23816,181.206682 L185.735047,181.648151 C186.118371,181.815193 186.513674,182.006098 186.896998,182.208935 C186.214202,182.54302 185.363702,182.817447 184.333518,183.032215 L184.704864,183.700384 Z M72.5406443,204 C73.5947855,203.152857 74.4093492,202.222193 74.9963142,201.196076 C75.4275538,200.408591 75.7270257,199.537585 75.8827511,198.571126 L80.0753583,198.571126 C80.0514005,200.217685 80.0154639,201.30346 79.9435906,201.804587 C79.7998441,202.639798 79.4284989,203.069336 78.8175761,203.093199 C78.3983154,203.093199 77.8832237,203.081267 77.260322,203.057404 L77.5238573,203.832958 C78.050928,203.856821 78.5181042,203.880684 78.9014283,203.880684 C79.8477596,203.844889 80.4347246,203.319899 80.6743021,202.305714 C80.8300275,201.637545 80.9258586,200.122233 80.9498163,197.759777 L75.9785821,197.759777 L75.9785821,197.735914 L76.086392,195.612091 L82.3992605,195.612091 L82.3992605,194.788811 L77.9191603,194.788811 C77.6316672,194.084847 77.3202164,193.476336 76.9848079,192.975209 L76.1702442,193.273499 C76.5176316,193.750762 76.8051247,194.263821 77.0447022,194.788811 L71.881806,194.788811 L71.881806,195.612091 L75.2239129,195.612091 C75.211934,196.017765 75.1879762,196.590481 75.1520396,197.342172 C75.0921452,198.475673 74.8645465,199.50179 74.4572647,200.420522 C74.038004,201.339255 73.1875037,202.329577 71.9177427,203.40342 L72.5406443,204 Z M86.0308568,203.952274 L86.0308568,195.862654 C86.4141809,195.075169 86.7256317,194.251889 86.989167,193.380883 L86.21054,193.022935 C85.7074271,194.872332 84.8808846,196.518892 83.7548701,197.950683 L84.0423632,198.857484 C84.449645,198.38022 84.8329691,197.867162 85.1803565,197.342172 L85.1803565,203.952274 L86.0308568,203.952274 Z M94.619712,203.976137 L94.8353318,203.188652 C93.1702678,203.117062 91.7208236,202.747183 90.4750204,202.090945 C90.8703233,201.518229 91.1099009,200.814265 91.193753,199.967122 L94.0447259,199.967122 L94.0447259,195.38539 L91.2177108,195.38539 L91.2177108,194.323479 L94.6077331,194.323479 L94.6077331,193.535994 L87.4204066,193.535994 L87.4204066,194.323479 L90.3791894,194.323479 L90.3791894,195.38539 L87.5521743,195.38539 L87.5521743,199.967122 L90.3432527,199.967122 C90.2713795,200.611428 90.0677385,201.184144 89.7443089,201.661408 C89.1932805,201.279597 88.6901676,200.838128 88.2349703,200.337001 L87.5881109,200.790402 C88.067266,201.339255 88.6063155,201.816519 89.1932805,202.222193 C88.6422521,202.639798 87.8157096,202.997746 86.701674,203.284104 L87.1448924,203.976137 C88.3667379,203.653984 89.2891115,203.224447 89.9359709,202.687525 C91.2656263,203.451147 92.8228804,203.880684 94.619712,203.976137 Z M90.3791894,197.306377 L88.3667379,197.306377 L88.3667379,196.089354 L90.3791894,196.089354 L90.3791894,197.306377 Z M93.2301622,197.306377 L91.2177108,197.306377 L91.2177108,196.089354 L93.2301622,196.089354 L93.2301622,197.306377 Z M93.2301622,199.263158 L91.2177108,199.263158 L91.2177108,198.010341 L93.2301622,198.010341 L93.2301622,199.263158 Z M90.3791894,199.263158 L88.3667379,199.263158 L88.3667379,198.010341 L90.3791894,198.010341 L90.3791894,199.263158 Z M103.545972,202.269919 L103.545972,200.25348 L105.678212,200.25348 L105.678212,201.160281 C105.678212,201.410844 105.570402,201.542092 105.366762,201.542092 C105.103226,201.542092 104.839691,201.518229 104.552198,201.494366 L104.74386,202.234124 L105.618318,202.234124 C106.169346,202.210261 106.456839,201.935835 106.456839,201.410844 L106.456839,196.149012 L103.653782,196.149012 C103.797529,195.779133 103.941275,195.38539 104.061064,194.955853 L106.924016,194.955853 L106.924016,194.168368 L104.276684,194.168368 C104.348557,193.834283 104.42043,193.500199 104.492304,193.142251 L103.653782,193.034867 C103.593888,193.416678 103.522014,193.786557 103.450141,194.168368 L101.785077,194.168368 L101.785077,194.955853 L103.2465,194.955853 C102.863176,196.28026 102.276211,197.366035 101.485605,198.213178 L101.928824,198.785894 C102.240275,198.499536 102.527768,198.15352 102.803282,197.759777 L102.803282,202.269919 L103.545972,202.269919 Z M97.3169559,203.880684 L97.3169559,194.263821 L98.7304634,194.263821 C98.5507803,195.206417 98.287245,196.256397 97.9518364,197.413761 C98.4908859,198.344425 98.7664001,199.191568 98.7664001,199.931327 C98.7664001,200.193822 98.7184846,200.372796 98.6466113,200.48018 C98.5507803,200.575633 98.4190126,200.635291 98.2393295,200.659154 C98.0716252,200.659154 97.8560054,200.647223 97.604449,200.623359 L97.8560054,201.422776 C98.5268225,201.410844 98.9939987,201.267665 99.2695129,200.993239 C99.461175,200.790402 99.557006,200.432454 99.557006,199.931327 C99.5210694,199.191568 99.2455552,198.308631 98.7304634,197.294445 C99.0419143,196.196739 99.3054496,195.146759 99.5210694,194.144505 L99.5210694,193.500199 L96.5143711,193.500199 L96.5143711,203.880684 L97.3169559,203.880684 Z M100.862704,196.041628 L101.497584,195.588227 C101.246028,195.063237 100.886661,194.430863 100.407506,193.714968 L99.7726258,194.10871 C100.227823,194.800742 100.587189,195.445048 100.862704,196.041628 Z M105.678212,197.891025 L103.545972,197.891025 L103.545972,196.829113 L105.678212,196.829113 L105.678212,197.891025 Z M99.5090905,203.940342 C100.179908,202.985815 100.635105,202.520483 100.874683,202.520483 C100.982492,202.520483 101.11426,202.604004 101.258007,202.782978 C101.521542,203.117062 101.844972,203.367626 102.228296,203.522736 C102.61162,203.653984 103.066817,203.725573 103.581909,203.737505 C103.917317,203.749437 104.264705,203.761368 104.600113,203.761368 L106.76829,203.761368 L106.98391,202.95002 C106.253199,202.961951 105.474571,202.973883 104.660008,202.973883 C104.240747,202.973883 103.821486,202.961951 103.402226,202.95002 C102.959007,202.926157 102.575683,202.842636 102.264232,202.711388 C101.904866,202.532414 101.617373,202.293782 101.401753,201.995493 C101.377795,201.971629 101.341859,201.935835 101.317901,201.90004 L101.317901,197.03195 L99.4971116,197.03195 L99.4971116,197.795572 L100.515316,197.795572 L100.515316,201.780724 C100.096055,201.971629 99.5929426,202.484688 98.9939987,203.296036 L99.5090905,203.940342 Z M105.678212,199.561448 L103.545972,199.561448 L103.545972,198.583057 L105.678212,198.583057 L105.678212,199.561448 Z M116.616924,203.844889 C117.359614,203.844889 117.73096,203.463078 117.73096,202.711388 L117.73096,196.041628 L119.204362,196.041628 L119.204362,195.218348 L117.73096,195.218348 L117.73096,193.118388 L116.856502,193.118388 L116.856502,195.218348 L112.71181,195.218348 L112.71181,196.041628 L116.856502,196.041628 L116.856502,202.496619 C116.856502,202.866499 116.676818,203.057404 116.329431,203.057404 C115.69455,203.057404 115.035712,203.033541 114.340937,203.009678 L114.52062,203.844889 L116.616924,203.844889 Z M109.549386,202.997746 L109.549386,201.911971 L111.32226,201.911971 L111.32226,202.711388 L112.160782,202.711388 L112.160782,193.917805 L108.710865,193.917805 L108.710865,202.997746 L109.549386,202.997746 Z M111.32226,197.437624 L109.549386,197.437624 L109.549386,194.70529 L111.32226,194.70529 L111.32226,197.437624 Z M114.879987,200.909718 L115.598719,200.408591 C115.203416,199.573379 114.62843,198.594989 113.88574,197.473419 L113.178986,197.914888 C113.897719,199.012594 114.460726,200.014848 114.879987,200.909718 Z M111.32226,201.112555 L109.549386,201.112555 L109.549386,198.237041 L111.32226,198.237041 L111.32226,201.112555 Z M120.907359,197.735914 C123.003662,196.984224 124.52498,196.029696 125.459332,194.884264 L125.531205,194.884264 L125.531205,197.115471 L126.369727,197.115471 L126.369727,194.884264 L126.4416,194.884264 C127.328037,196.05356 128.849354,196.996155 131.005552,197.723983 L131.376898,196.948429 C129.484235,196.447302 128.094685,195.75527 127.196269,194.884264 L130.873785,194.884264 L130.873785,194.096778 L126.369727,194.096778 L126.369727,192.999072 L125.531205,192.999072 L125.531205,194.096778 L121.027147,194.096778 L121.027147,194.884264 L124.728621,194.884264 C123.794268,195.719475 122.368782,196.423439 120.452161,196.972292 L120.907359,197.735914 Z M129.53215,201.888108 L129.53215,197.497282 L122.368782,197.497282 L122.368782,201.888108 L129.53215,201.888108 Z M128.693629,199.346679 L123.207303,199.346679 L123.207303,198.260904 L128.693629,198.260904 L128.693629,199.346679 Z M128.693629,201.124486 L123.207303,201.124486 L123.207303,200.074506 L128.693629,200.074506 L128.693629,201.124486 Z M131.077426,203.618189 L131.077426,202.818772 L120.78757,202.818772 L120.78757,203.618189 L131.077426,203.618189 Z M135.966804,203.976137 L135.966804,203.463078 L141.381257,203.463078 L141.381257,203.976137 L142.207799,203.976137 L142.207799,198.356357 L136.266276,198.356357 C136.493875,198.093862 136.709494,197.819435 136.925114,197.533077 L143.405687,197.533077 L143.405687,196.769455 L137.452185,196.769455 C137.60791,196.50696 137.763636,196.244465 137.907382,195.958107 L142.710912,195.958107 L142.710912,195.218348 L138.25477,195.218348 C138.374558,194.920058 138.494347,194.609837 138.602157,194.287684 C140.111496,194.168368 141.429172,193.989394 142.567166,193.738831 L142.171863,193.05873 C139.931813,193.51213 137.116776,193.738831 133.714775,193.738831 L133.966332,194.454726 C135.331924,194.454726 136.601685,194.418931 137.775615,194.347342 C137.655826,194.6337 137.536037,194.93199 137.404269,195.218348 L133.606965,195.218348 L133.606965,195.958107 L137.008966,195.958107 C136.853241,196.220602 136.673558,196.495029 136.481896,196.769455 L132.960106,196.769455 L132.960106,197.533077 L135.882952,197.533077 C135.032452,198.535331 133.954353,199.465995 132.648655,200.348933 L133.115831,201.088692 C133.858522,200.587565 134.529339,200.050643 135.140262,199.50179 L135.140262,203.976137 L135.966804,203.976137 Z M141.381257,199.859738 L135.966804,199.859738 L135.966804,199.060321 L141.381257,199.060321 L141.381257,199.859738 Z M141.381257,201.279597 L135.966804,201.279597 L135.966804,200.527907 L141.381257,200.527907 L141.381257,201.279597 Z M141.381257,202.759114 L135.966804,202.759114 L135.966804,201.947766 L141.381257,201.947766 L141.381257,202.759114 Z" id="返回时可以把本场比赛拖入浮窗方便随时查看" fill="#FFFFFF" fill-rule="nonzero"></path>
        <g id="矩形">
            <use fill="black" fill-opacity="1" filter="url(#filter-2)" xlink:href="#path-1"></use>
            <use fill="#FFFFFF" fill-rule="evenodd" xlink:href="#path-1"></use>
        </g>
        <use id="矩形" stroke="#FFFFFF" mask="url(#mask-4)" stroke-width="2" stroke-dasharray="4,5" xlink:href="#path-3"></use>
        <g id="编组" transform="translate(317.000000, 30.000000)" fill-rule="nonzero">
            <g id="足球场" transform="translate(0.000000, 3.600000)">
                <polygon id="路径" fill="#1CC86D" points="0.79081632 0.931122455 23.0612245 0.931122455 23.0612245 16.3137755 0.79081632 16.3137755"></polygon>
                <path d="M19.9795918,5.03571429 L23.1887755,5.03571429 L23.1887755,12.252551 L19.9795918,12.252551 L19.9795918,5.03571429 Z M0.785714292,5.03571429 L3.99489796,5.03571429 L3.99489796,12.252551 L0.785714292,12.252551 L0.785714292,5.03571429 L0.785714292,5.03571429 Z" id="形状" fill="#FFFFFF"></path>
                <path d="M21.0282997,-0.147448796 C21.8722107,-0.146107119 22.6369547,0.197449249 23.1905859,0.752051749 C23.6977151,1.26007064 24.0276926,1.9451473 24.0791672,2.70639159 L24.0862245,2.91581633 L24.0862243,14.3089119 C24.0848831,15.1525236 23.7422195,15.9163411 23.1889742,16.4695864 C22.6818326,16.976728 21.997752,17.3069224 21.2372809,17.3594662 L21.0280612,17.3668367 L2.90792479,17.3668366 C2.06431313,17.3654954 1.30049563,17.0228318 0.747250305,16.4695864 C0.240108758,15.9624449 -0.0900856457,15.2783642 -0.142629435,14.5178931 L-0.15,14.3086735 L-0.14999981,2.91047581 C-0.148658619,2.06686415 0.194004981,1.30304664 0.747250305,0.749801319 C1.25439185,0.242659772 1.93847252,-0.0875346316 2.69894362,-0.140078421 L2.90816327,-0.147448986 L21.0282997,-0.147448796 Z M11.3117347,1.12448979 L2.89030613,1.12448979 L2.72659861,1.13221406 C2.29522797,1.17208253 1.90757819,1.36386506 1.61786449,1.65357876 C1.29193657,1.97950668 1.0899528,2.42938494 1.0887751,2.92637585 L1.0887751,2.92637585 L1.08877547,4.17142858 L3.00510205,4.17142858 L3.18451608,4.17947939 C3.65727934,4.2221096 4.08216019,4.43157122 4.39942231,4.74883334 C4.75589635,5.10530737 4.97653062,5.59787785 4.97653062,6.14285715 L4.97653062,6.14285715 L4.97653062,11.0943878 L4.96847981,11.2738018 C4.9258496,11.7465651 4.71638798,12.1714459 4.39912586,12.488708 C4.04265182,12.8451821 3.55008135,13.0658163 3.00510205,13.0658163 L3.00510205,13.0658163 L1.08850402,13.0658163 L1.08622424,14.3242513 L1.09359799,14.4887508 C1.13264258,14.9221676 1.32448205,15.3113296 1.61499458,15.6018421 C1.94182118,15.9286687 2.39350105,16.1306122 2.89285714,16.1306122 L2.89285714,16.1306122 L11.3085658,16.1306122 L11.2918427,12.0621011 L11.0578435,12.0078417 C10.364959,11.8217321 9.75671981,11.4282494 9.30406932,10.8979082 C8.78242204,10.286728 8.46734694,9.49390079 8.46734694,8.62755101 C8.46734694,7.75970815 8.78348975,6.96564342 9.30931006,6.35399414 C9.81455607,5.76627749 10.5135022,5.34702267 11.3117347,5.19280807 L11.3117347,5.19280807 L11.3117347,1.12448979 Z M21.0302568,1.10663223 L12.5715362,1.10663265 L12.5882593,5.17513902 L12.822349,5.22938927 C13.5154963,5.4154457 14.1239195,5.80866102 14.5766077,6.33904645 C15.0978931,6.94980268 15.4127551,7.74235198 15.4127551,8.60969388 C15.4127551,9.47867833 15.0967095,10.2732432 14.5710704,10.8851531 C14.0657981,11.4733535 13.3667435,11.8927449 12.5683674,12.0469878 L12.5683674,12.0469878 L12.5683674,16.1153061 L21.0280612,16.1153061 L21.2076658,16.1023789 C21.6212266,16.0516428 21.9937038,15.8592612 22.273292,15.5748332 C22.5922636,15.2503401 22.7903508,14.8060097 22.7938814,14.3152474 L22.7938814,14.3152474 L22.793878,13.0683673 L21.0306122,13.0683673 L20.8511982,13.0603165 C20.378435,13.0176863 19.9535541,12.8082247 19.636292,12.4909626 C19.2798179,12.1344885 19.0591837,11.6419181 19.0591837,11.0969388 L19.0591837,11.0969388 L19.0591837,6.12755103 L19.0672345,5.94813699 C19.1098647,5.47537374 19.3193263,5.05049288 19.6365884,4.73323077 C19.9930625,4.37675673 20.4856329,4.15612246 21.0306122,4.15612246 L21.0306122,4.15612246 L22.8321429,4.15612246 L22.8321429,2.90816327 L22.8244186,2.74445575 C22.7845501,2.3130851 22.5927676,1.92543533 22.3030539,1.63572162 C21.977126,1.30979371 21.5272477,1.10780993 21.0302568,1.10663223 L21.0302568,1.10663223 Z M3.00510205,5.41275511 L1.08877552,5.41275511 L1.08877552,11.8117347 L3.00510205,11.8117347 L3.12092765,11.8023616 C3.27174852,11.7776969 3.40680249,11.7056828 3.51032429,11.602161 C3.63972655,11.4727588 3.71989797,11.2940875 3.71989797,11.0969388 L3.71989797,11.0969388 L3.71989797,6.12755103 L3.71052492,6.01172542 C3.68586017,5.86090456 3.6138461,5.72585059 3.51032429,5.62232878 C3.38092204,5.49292652 3.20225077,5.41275511 3.00510205,5.41275511 L3.00510205,5.41275511 Z M22.7921832,5.42806123 L21.0280612,5.42806123 L20.9122356,5.43743428 C20.7614148,5.46209903 20.6263608,5.5341131 20.522839,5.6376349 C20.3934367,5.76703716 20.3132653,5.94570843 20.3132653,6.14285715 L20.3132653,6.14285715 L20.3132653,11.0943878 L20.3226384,11.2102134 C20.3473031,11.3610342 20.4193172,11.4960882 20.522839,11.59961 C20.6522412,11.7290123 20.8309125,11.8091837 21.0280612,11.8091837 L21.0280612,11.8091837 L22.8287303,11.8091837 L22.7921832,5.42806123 Z M11.297056,6.46274661 C10.8585635,6.59323121 10.4766907,6.85388706 10.1959405,7.19983157 C9.88310351,7.58531397 9.69591836,8.07678241 9.69591836,8.61224489 C9.69591836,9.148056 9.88399216,9.63979779 10.1992969,10.0256368 C10.4822279,10.3718598 10.8674919,10.6328561 11.3111052,10.7641363 L11.3111052,10.7641363 Z M12.5689969,6.46035354 L12.5830461,10.7617432 L12.7673751,10.6979824 C13.1285813,10.5550449 13.4435185,10.3211821 13.6841615,10.0246582 C13.9969985,9.63917581 14.1841837,9.14770737 14.1841837,8.61224489 C14.1841837,8.07643379 13.9961099,7.584692 13.6808051,7.19885304 C13.3978742,6.85262995 13.0126101,6.59163373 12.5689969,6.46035354 L12.5689969,6.46035354 Z" id="形状" stroke="#000000" stroke-width="0.3" fill="#000000"></path>
            </g>
        </g>
        <text id="1" font-family="DINAlternate-Bold, DIN Alternate" font-size="16" font-weight="bold" line-spacing="18" letter-spacing="0.306666629" fill="#000000">
            <tspan x="353" y="48">1</tspan>
        </text>
        <path d="M117.544814,110 C118.061816,110 118.582149,110.093074 119.090194,110.276317 C121.500364,111.147679 122.60976,113.735564 121.663434,116.315257 L114.21364,135.34841 C114.605009,135.787577 115.168177,136.536061 115.801797,137.731207 C117.994808,141.870382 116.445466,149.406639 110.715836,153.603158 C106.618978,156.602729 102.842518,158 98.830066,158 C96.4792099,158 94.030971,157.529111 91.3498398,156.560491 C83.7252045,153.806386 82.5676338,149.089305 82.0354155,144.493998 C81.5221455,140.072405 86.7540662,125.741984 86.9777139,125.134041 C87.510449,123.682854 89.0376269,122.707844 90.7789784,122.707844 C91.2770324,122.707844 91.7587219,122.790344 92.2092901,122.953194 C92.4538958,123.04162 93.047725,123.351402 93.6157155,123.78075 C94.3384507,122.197797 95.9446948,121.156554 97.7136075,121.156554 C98.2378691,121.156557 98.7582186,121.247866 99.2518673,121.42648 C100.225237,121.778499 101.029565,122.436698 101.559314,123.305156 C102.677036,121.890339 104.531446,121.299418 106.258787,121.922467 C107.386902,122.330029 108.2653,123.147534 108.733439,124.224043 L113.215121,113.241901 C113.937339,111.272475 115.637521,110 117.544814,110 Z M114.954067,113.998613 L108.227527,130.490334 C108.044196,130.943126 107.544166,131.185179 107.069804,131.047541 C106.59727,130.911003 106.30641,130.441425 106.395189,129.960676 L106.92323,127.110101 C106.941404,127.060156 106.955663,127.008874 106.965876,126.95672 C107.207173,126.299786 107.197169,125.60957 106.939694,125.013872 C106.68622,124.425872 106.204312,123.978405 105.581089,123.753773 C104.334587,123.302775 103.09746,124.001209 102.592799,125.376778 L101.935677,127.166766 C101.754633,127.660827 101.203782,127.915787 100.706668,127.736128 C100.209553,127.55647 99.952078,127.009854 100.133751,126.515619 L100.134895,126.510989 C100.366702,125.875064 100.335775,125.186585 100.04846,124.572829 C99.7598863,123.957915 99.2464794,123.491752 98.6057069,123.259654 C98.30712,123.259384 98.0108549,123.207249 97.730154,123.105579 C96.6583507,123.105579 95.6928188,123.778257 95.3254707,124.777665 C95.3254707,124.777665 94.0327784,127.969557 93.7494642,128.657341 C93.4656927,129.345242 93.0158542,129.454345 92.5362896,129.275786 C92.056782,129.097285 91.8856845,128.606639 92.1017145,128.003359 C92.3166011,127.400715 92.935822,125.725793 92.935822,125.725793 C92.6397027,125.420535 92.0183094,124.933535 91.5929951,124.780038 C91.355871,124.694376 91.0987388,124.65114 90.8260003,124.65114 C89.9107172,124.65114 89.0958173,125.130037 88.8442303,125.814464 C87.3752383,129.822981 83.6462499,140.944507 84.0271462,144.232074 C84.5271191,148.542317 85.4751583,152.303571 92.0503794,154.679648 C94.5076554,155.568275 96.7284933,156 98.8416877,156 C102.455487,156 105.753387,154.76369 109.535426,151.99131 C112.941827,149.495537 116.39036,143.037205 114.039984,138.599163 C113.786396,138.120209 113.551616,137.731605 113.344275,137.420675 L110.920956,143.612934 C110.729907,144.103638 110.173797,144.34627 109.679084,144.156193 C109.185513,143.965885 108.940729,143.414002 109.131834,142.923356 L119.778182,115.706759 C120.357615,114.125833 119.773494,112.663792 118.357038,112.151499 C116.959275,111.647424 115.527612,112.436151 114.954067,113.998613 Z" id="形状结合" fill="#FFFFFF" fill-rule="nonzero" transform="translate(102.000000, 134.000000) scale(1, -1) rotate(-158.000000) translate(-102.000000, -134.000000) "></path>
        <g id="编组备份-2" transform="translate(41.000000, 119.000000) scale(-1, -1) rotate(-90.000000) translate(-41.000000, -119.000000) translate(26.000000, 90.000000)" fill-rule="nonzero">
            <path d="M13.4090097,13.6876623 C14.2876894,12.7707792 15.7123106,12.7707792 16.5909903,13.6876623 L16.5909903,13.6876623 L29.3409903,26.9920102 C30.2196699,27.9088933 30.2196699,29.3954545 29.3409903,30.3123377 C28.4623106,31.2292208 27.0376894,31.2292208 26.1590097,30.3123377 L26.1590097,30.3123377 L17.419,21.192 L17.4193548,55.6226415 C17.4193548,56.8809129 16.4245574,57.9108701 15.1656439,57.9945154 L15,58 C13.6638272,58 12.5806452,56.9356203 12.5806452,55.6226415 L12.5806452,55.6226415 L12.58,21.193 L3.84099026,30.3123377 C3.00225059,31.1875443 1.66607244,31.2273264 0.782111087,30.431684 L0.659009742,30.3123377 C-0.219669914,29.3954545 -0.219669914,27.9088933 0.659009742,26.9920102 L0.659009742,26.9920102 Z" id="形状结合" fill="url(#linearGradient-5)"></path>
            <path d="M26.1590097,17.3123377 C27.0376894,18.2292208 28.4623106,18.2292208 29.3409903,17.3123377 C30.2196699,16.3954545 30.2196699,14.9088933 29.3409903,13.9920102 L16.5909903,0.68766234 C15.7123106,-0.22922078 14.2876894,-0.22922078 13.4090097,0.68766234 L0.659009742,13.9920102 C-0.219669914,14.9088933 -0.219669914,16.3954545 0.659009742,17.3123377 C1.5376894,18.2292208 2.9623106,18.2292208 3.84099026,17.3123377 L15,5.66815358 L26.1590097,17.3123377 Z" id="路径-9备份" fill="#5078FF" opacity="0.300000012"></path>
        </g>
        <path d="M375,218.004 L375,361 L227.000065,360.998211 C229.896223,281.532394 295.273819,217.999176 375.500338,217.999176 L375,218.004 Z" id="形状结合" fill="#000000" opacity="0.699999988"></path>
        <path d="M375,218.004 L375,361 L227.000065,360.998211 C229.896223,281.532394 295.273819,217.999176 375.500338,217.999176 L375,218.004 Z" id="形状结合" stroke="#FFFFFF" opacity="0.699999988" stroke-dasharray="5,5"></path>
        <path d="M296.632153,322 C298.158863,320.384449 298.946073,317.830454 298.993783,314.326134 L300.580129,314.326134 C300.556275,317.509719 300.508565,319.422246 300.437,320.039957 C300.341581,320.717063 299.983758,321.061555 299.37546,321.061555 C299.089202,321.061555 298.755234,321.037797 298.373557,321.014039 L298.58825,321.798056 C299.017637,321.821814 299.315823,321.845572 299.494734,321.845572 C300.544347,321.845572 301.128791,321.346652 301.248065,320.37257 C301.367339,319.493521 301.426976,317.200864 301.426976,313.4946 L298.993783,313.4946 L298.993783,311.095032 L298.135008,311.095032 L298.135008,313.4946 L296.226621,313.4946 L296.226621,314.326134 L298.135008,314.326134 C298.099226,317.580994 297.383581,319.956803 296,321.441685 L296.632153,322 Z M303.347291,321.774298 L303.347291,320.978402 L305.589646,320.978402 L305.589646,321.774298 L306.424565,321.774298 L306.424565,312.829374 L302.524299,312.829374 L302.524299,321.774298 L303.347291,321.774298 Z M305.589646,320.158747 L303.347291,320.158747 L303.347291,313.649028 L305.589646,313.649028 L305.589646,320.158747 Z M308.692763,321.786177 C311.197521,320.170626 312.843505,317.842333 313.630715,314.813175 C313.690352,314.955724 313.749989,315.12203 313.821554,315.312095 C315.050078,318.448164 316.624498,320.610151 318.55674,321.774298 L319.093474,321.085313 C317.208941,319.909287 315.718014,317.901728 314.596836,315.062635 C313.857336,313.138229 312.96278,311.795896 311.901239,311.059395 L311.185594,311.510799 C311.948949,312.057235 312.604957,312.817495 313.153618,313.815335 C312.390264,316.975162 310.732352,319.398488 308.179884,321.061555 L308.692763,321.786177 Z M323.973777,312.437365 C326.788648,312.437365 329.054858,312.199784 330.760479,311.74838 L330.366874,311.071274 C328.613543,311.49892 326.395043,311.724622 323.723301,311.724622 L323.973777,312.437365 Z M322.721397,313.613391 L323.305841,313.031317 C322.733325,312.437365 322.041534,311.855292 321.218542,311.261339 L320.622171,311.819654 C321.504801,312.461123 322.208518,313.055076 322.721397,313.613391 Z M329.603519,314.836933 C330.032906,314.195464 330.390729,313.458963 330.676987,312.62743 L329.901705,312.413607 C329.603519,313.280778 329.257624,314.0054 328.852092,314.575594 L329.603519,314.836933 Z M327.206108,314.730022 L327.909825,314.468683 C327.742841,313.946004 327.51622,313.363931 327.206108,312.722462 L326.466607,312.924406 C326.752866,313.518359 326.991414,314.112311 327.206108,314.730022 Z M324.749059,314.836933 L325.488559,314.658747 C325.261938,313.981641 325.011462,313.387689 324.737131,312.865011 L324.021486,313.090713 C324.307744,313.649028 324.55822,314.231102 324.749059,314.836933 Z M322.375502,316.464363 L322.971873,315.882289 C322.458994,315.264579 321.826841,314.658747 321.063486,314.041037 L320.479042,314.611231 C321.290107,315.264579 321.92226,315.882289 322.375502,316.464363 Z M327.062978,321.821814 C327.766696,321.821814 328.124519,321.465443 328.124519,320.7527 L328.124519,318.780778 L331.273358,318.780778 L331.273358,317.949244 L328.124519,317.949244 L328.124519,317.37905 C328.935583,316.832613 329.663156,316.321814 330.307237,315.822894 L330.307237,315.193305 L324.379309,315.193305 L324.379309,315.989201 L329.007148,315.989201 C328.339212,316.416847 327.754769,316.773218 327.277672,317.058315 L327.277672,317.949244 L323.687518,317.949244 L323.687518,318.780778 L327.277672,318.780778 L327.277672,320.515119 C327.277672,320.87149 327.086833,321.061555 326.729011,321.061555 C326.371188,321.061555 325.870236,321.037797 325.238083,321.014039 L325.476632,321.821814 L327.062978,321.821814 Z M321.397454,321.833693 C322.01768,320.515119 322.578268,319.113391 323.07922,317.616631 L322.327793,317.319654 C321.850696,318.74514 321.27818,320.134989 320.610244,321.489201 L321.397454,321.833693 Z M333.792031,313.815335 L333.792031,312.722462 L342.188935,312.722462 L342.188935,313.649028 L343,313.649028 L343,311.99784 L338.455653,311.99784 C338.312524,311.62959 338.181322,311.296976 338.038193,311 L337.143637,311.142549 C337.31062,311.403888 337.45375,311.688985 337.596879,311.99784 L332.980967,311.99784 L332.980967,313.815335 L333.792031,313.815335 Z M342.165081,314.979482 L342.594468,314.338013 C341.544855,313.850972 340.387895,313.435205 339.123588,313.102592 L338.729983,313.672786 C339.898871,313.981641 341.043903,314.421166 342.165081,314.979482 Z M333.720467,315.00324 C335.151757,314.634989 336.332572,314.183585 337.286766,313.649028 L336.809669,313.102592 C335.903185,313.601512 334.77008,313.993521 333.386499,314.302376 L333.720467,315.00324 Z M334.471894,321.976242 L334.471894,321.441685 L341.532927,321.441685 L341.532927,321.976242 L342.367847,321.976242 L342.367847,315.347732 L337.787717,315.347732 C337.954701,315.038877 338.09783,314.718143 338.19325,314.37365 L337.370258,314.25486 C337.274838,314.62311 337.131709,314.991361 336.94087,315.347732 L333.636975,315.347732 L333.636975,321.976242 L334.471894,321.976242 Z M341.532927,320.705184 L334.471894,320.705184 L334.471894,316.048596 L341.532927,316.048596 L341.532927,320.705184 Z M335.736201,320.586393 C336.917016,320.301296 337.883137,319.933045 338.646492,319.481641 C339.195153,319.778618 339.719959,320.111231 340.244766,320.479482 L340.757645,319.885529 C340.292476,319.588553 339.803451,319.303456 339.278645,319.042117 C339.815379,318.602592 340.197056,318.091793 340.41175,317.509719 L340.41175,316.927646 L337.799645,316.927646 C337.918919,316.74946 338.014338,316.571274 338.09783,316.38121 L337.334475,316.238661 C336.952798,317.022678 336.213298,317.699784 335.13983,318.24622 L335.593072,318.852052 C336.29679,318.471922 336.869306,318.032397 337.31062,317.557235 L339.636467,317.557235 C339.421774,317.973002 339.075879,318.353132 338.598782,318.697624 C338.169395,318.483801 337.716153,318.293737 337.262911,318.103672 L336.761959,318.543197 C337.143637,318.709503 337.537241,318.899568 337.918919,319.101512 C337.239056,319.434125 336.392209,319.707343 335.366451,319.921166 L335.736201,320.586393 Z" id="加入浮窗" fill="#FFFFFF" fill-rule="nonzero"></path>
        <g id="编组" transform="translate(303.000000, 268.000000)" fill="#FFFFFF" fill-rule="nonzero">
            <g id="icon/浮窗">
                <path d="M17,0 C26.3888407,0 34,7.61115925 34,17 C34,26.3888407 26.3888407,34 17,34 C7.61115925,34 0,26.3888407 0,17 C0,7.61115925 7.61115925,0 17,0 Z M17,1.78947368 C8.59945828,1.78947368 1.78947368,8.59945828 1.78947368,17 C1.78947368,25.4005417 8.59945828,32.2105263 17,32.2105263 C25.4005417,32.2105263 32.2105263,25.4005417 32.2105263,17 C32.2105263,8.59945828 25.4005417,1.78947368 17,1.78947368 Z M17,8.05263158 C21.9414951,8.05263158 25.9473684,12.0585049 25.9473684,17 C25.9473684,21.9414951 21.9414951,25.9473684 17,25.9473684 C12.0585049,25.9473684 8.05263158,21.9414951 8.05263158,17 C8.05263158,12.0585049 12.0585049,8.05263158 17,8.05263158 Z M17,9.84210526 C13.0468039,9.84210526 9.84210526,13.0468039 9.84210526,17 C9.84210526,20.9531961 13.0468039,24.1578947 17,24.1578947 C20.9531961,24.1578947 24.1578947,20.9531961 24.1578947,17 C24.1578947,13.0468039 20.9531961,9.84210526 17,9.84210526 Z" id="形状结合"></path>
            </g>
        </g>
        <path id="路径-17" d="M231.659058,267.417679 L236.408208,276.288732 L226.461876,274.76542 L228.771,271.499 L227.188675,270.380033 L227.76614,269.563617 L229.349,270.683 L231.659058,267.417679 Z M220.418399,264.366435 L223.684062,266.676293 L223.106597,267.492709 L219.840934,265.18285 L220.418399,264.366435 Z M213.070658,259.169252 L216.336321,261.479111 L215.758856,262.295527 L212.493194,259.985668 L213.070658,259.169252 Z M205.722918,253.97207 L208.98858,256.281928 L208.411115,257.098344 L205.145453,254.788485 L205.722918,253.97207 Z M198.375177,248.774887 L201.640839,251.084746 L201.063375,251.901162 L197.797712,249.591303 L198.375177,248.774887 Z M191.027436,243.577705 L194.293099,245.887563 L193.715634,246.703979 L190.449971,244.39412 L191.027436,243.577705 Z M183.679695,238.380522 L186.945358,240.690381 L186.367893,241.506797 L183.102231,239.196938 L183.679695,238.380522 Z M176.331955,233.18334 L179.597617,235.493199 L179.020152,236.309614 L175.75449,233.999755 L176.331955,233.18334 Z M168.984214,227.986157 L172.249876,230.296016 L171.672412,231.112432 L168.406749,228.802573 L168.984214,227.986157 Z M161.636473,222.788975 L164.902136,225.098834 L164.324671,225.915249 L161.059008,223.60539 L161.636473,222.788975 Z M154.288732,217.591792 L157.554395,219.901651 L156.97693,220.718067 L153.711268,218.408208 L154.288732,217.591792 Z" fill="#FFFFFF" fill-rule="nonzero"></path>
        <path id="路径-17" d="M326,204 L326,208 L325,208 L325,204 L326,204 Z M326,195 L326,199 L325,199 L325,195 L326,195 Z M326,186 L326,190 L325,190 L325,186 L326,186 Z M326,177 L326,181 L325,181 L325,177 L326,177 Z M326,168 L326,172 L325,172 L325,168 L326,168 Z M326,159 L326,163 L325,163 L325,159 L326,159 Z M326,150 L326,154 L325,154 L325,150 L326,150 Z M326,141 L326,145 L325,145 L325,141 L326,141 Z M326,132 L326,136 L325,136 L325,132 L326,132 Z M326,123 L326,127 L325,127 L325,123 L326,123 Z M326,114 L326,118 L325,118 L325,114 L326,114 Z M326,105 L326,109 L325,109 L325,105 L326,105 Z M326,96 L326,100 L325,100 L325,96 L326,96 Z M325.5,81 L330,90 L326,90 L326,91 L325,91 L325,90 L321,90 L325.5,81 Z" fill="#FFFFFF" fill-rule="nonzero"></path>
    </g>
</svg>