<?xml version="1.0" encoding="UTF-8"?>
<svg width="375px" height="102px" viewBox="0 0 375 102" version="1.1" xmlns="http://www.w3.org/2000/svg" xmlns:xlink="http://www.w3.org/1999/xlink">
    <title>img_home_into_cocobot</title>
    <g id="img_home_into_cocobot" stroke="none" stroke-width="1" fill="none" fill-rule="evenodd">
        <g id="形状-2-拷贝-12" transform="translate(208.000000, 17.000000)" fill="#FFFFFF" fill-rule="nonzero">
            <path d="M68.4997828,-6.53699317e-13 C81.3893215,-6.53699317e-13 95.1943103,0.78395979 108.998517,2.09048546 C113.829377,2.54771145 118.315327,3.03761299 122.341612,3.5275671 C123.751225,3.69910145 125.002846,3.85841241 126.082123,4.00142276 C126.460137,4.05151182 126.789681,4.09599639 127.068961,4.13436685 C127.199692,4.15232803 127.297792,4.16596693 127.362416,4.1750432 C130.778758,4.20189285 133.539981,6.99523405 133.539981,10.43712 L133.525425,10.5790897 C132.253077,16.7181455 131.56289,22.9647651 131.464165,29.214446 C131.574357,37.3383941 132.265226,45.4438631 133.53143,53.4681672 L133.539981,53.577216 C133.539981,53.8234837 133.525845,54.0664311 133.498344,54.3052826 L133.628226,54.2064678 L133.538738,55.7063136 C133.476039,56.7571874 133.538696,57.6586272 133.750241,59.4780334 C134.113608,62.6032018 134.119572,63.8159428 133.506214,65.3062102 C132.693638,67.2805182 130.802579,68.6579871 127.493119,69.5567367 C123.468719,70.649642 103.239123,71.4250908 74.9925463,71.8009755 C51.3893215,72.1150699 27.5791118,72.0485208 24.1406154,71.6639605 C22.2387283,71.451254 19.8135953,71.1249885 16.9860624,70.7086459 C16.328011,70.6117505 15.6524899,70.5105975 14.9618128,70.4056326 C12.7590013,70.0708629 10.4982581,69.7122423 8.30354709,69.3536261 C7.53540453,69.2281115 6.8303442,69.1115563 6.20387791,69.0069443 C5.98455207,68.9703197 5.79069576,68.9378004 5.62424837,68.9097596 C5.45573076,68.8813236 5.45573076,68.8813236 5.42014744,68.8752822 L5.42014744,68.8752822 L4.90875549,68.7884566 L3.46600048,56.4614021 C3.03270303,55.6231219 2.78239271,54.6738697 2.7682974,53.6671728 C1.03113929,46.8159986 0.101980954,39.7828603 0,32.702976 C0,32.1397738 0.00741867439,31.5680079 0.0220531089,30.9880947 C0.131091936,26.6672545 0.629824437,22.0487791 1.39307656,17.4000512 C1.69749671,15.5459241 2.0236819,13.814219 2.34999506,12.2518918 C2.46432973,11.7044785 2.57057223,11.2171044 2.66601969,10.7956498 C2.70993844,10.6017235 2.74440823,10.4531062 2.76822599,10.3524175 C2.81308684,6.94932891 5.55726856,4.20136215 8.94580576,4.17503872 C9.01116541,4.16596559 9.11078181,4.1522776 9.24378417,4.13421916 C9.52636142,4.09585212 9.85979906,4.05137093 10.2422813,4.00128523 C11.3343323,3.85828215 12.6007612,3.69897828 14.0270433,3.52745085 C18.1009648,3.03751322 22.6398902,2.54762695 27.5276624,2.09041485 C41.4851043,0.784807509 55.4427986,0.00102104867 68.4748338,-6.53699317e-13 L68.4997828,-6.53699317e-13 Z M45.1153562,62.7976175 L46.3095044,70.608203 C50.3866977,70.6078365 54.8200778,70.5929462 59.4331809,70.5629283 L58.312551,63.2303612 C57.1961773,63.2083135 56.0799143,63.1825757 54.9637799,63.1531491 L56.037231,70.1708054 L54.6694887,70.3824107 L53.5575752,63.1141212 C52.4037609,63.0804949 51.2500924,63.0429262 50.0965894,63.0014164 L51.193812,70.1708054 L49.8260697,70.3824107 L48.6883423,62.9487782 C47.4971543,62.9025942 46.3061516,62.8522069 45.1153562,62.7976175 Z M40.2344695,62.5502683 L41.4648499,70.6013055 C42.5772836,70.6047123 43.7273817,70.6068654 44.9105515,70.6077492 L43.7051795,62.7310022 C42.5480654,62.6747254 41.3911554,62.6144804 40.2344695,62.5502683 Z M5.09362551,58.4585112 L6.16183008,67.589173 C6.24656209,67.603373 6.33619222,67.6183676 6.43056444,67.6341265 L6.81482708,67.698149 C7.33941421,67.7853588 7.91228633,67.8798271 8.52549058,67.9800248 C10.7154878,68.3378708 12.9713208,68.6957124 15.1685954,69.0296407 C15.8572296,69.1342951 16.5306586,69.2351348 17.1865491,69.331712 C19.9996304,69.7459267 22.4103184,70.0702489 24.2935745,70.2808716 C25.8461903,70.4545157 31.7921126,70.5620072 40.0646534,70.596273 L38.8224491,62.4699046 C37.6991529,62.4044003 36.576076,62.3351541 35.4532367,62.2621669 L36.6635551,70.1708054 L35.2958127,70.3824107 L34.0384536,62.1682145 C32.8779902,62.0895198 31.7177891,62.0068284 30.5578708,61.9201416 L31.8201361,70.1708054 L30.4523937,70.3824107 L29.1418621,61.81232 C27.7810737,61.7067849 26.4206861,61.5957493 25.0607323,61.4792151 L26.2848001,69.4749974 L24.9170577,69.6866027 L23.6427314,61.3557004 C22.4779327,61.252592 21.3134608,61.1454488 20.1493364,61.0342718 L21.4413811,69.4749974 L20.0736388,69.6866027 L18.7283252,60.8965411 C17.5982079,60.7853978 16.4684263,60.6704517 15.3389993,60.551704 L16.5979621,68.7791894 L15.2302198,68.9907947 L13.9150523,60.3999559 C12.8193666,60.2816241 11.7240224,60.1597129 10.629037,60.0342236 L11.7545431,67.3875734 L10.3868008,67.5991787 L9.20322348,59.8687738 C9.11991307,59.8589869 9.03660478,59.8491794 8.95329862,59.8393511 C7.49250437,59.8297357 6.1511128,59.3143135 5.09362551,58.4585112 Z M59.7156081,63.256127 L60.8325454,70.5533958 C61.9698467,70.5453028 63.116846,70.5363002 64.2709574,70.5263793 L63.166,63.301 L62.5910554,63.2967851 C61.6325046,63.2859524 60.6740184,63.2723994 59.7156081,63.256127 Z M75.0359773,63.2034997 L76.1028239,70.1708054 L74.7350816,70.3824107 L73.6397418,63.2324783 C72.4878418,63.2547553 71.3424233,63.2728379 70.2041053,63.2865959 L71.259405,70.1708054 L69.8916626,70.3824107 L68.808,63.3 L67.5746707,63.3106633 C66.7229168,63.3158872 65.8769885,63.3185136 65.0357427,63.3185136 L64.568,63.314 L65.6703805,70.5139294 C68.5127996,70.4877881 71.3916967,70.4561057 74.2689694,70.4187517 L74.9742358,70.4094813 C76.5314916,70.3887585 78.0650017,70.3667778 79.5732508,70.3435635 L78.4653461,63.1160154 C77.3165938,63.1490964 76.1732749,63.1782991 75.0359773,63.2034997 Z M79.8596706,63.0740487 L80.9462429,70.1708054 L79.8560631,70.3391916 C81.3992356,70.3152316 82.9157526,70.2899763 84.4039811,70.2634518 L83.2850846,62.955937 C82.1386038,62.9989509 80.9966113,63.038361 79.8596706,63.0740487 Z M84.6764871,62.9020591 L85.7896619,70.1708054 L85.2960197,70.247339 C86.394548,70.2272308 87.4772426,70.2064232 88.5434313,70.184927 L87.4104261,62.7866315 C86.4966381,62.8272888 85.5852324,62.8657842 84.6764871,62.9020591 Z M88.8001285,62.7232243 L89.9394458,70.1561888 C91.3435954,70.1266792 92.7177874,70.09595 94.0604213,70.0640268 L92.9045879,62.5180061 C91.5320807,62.5910071 90.163622,62.6594774 88.8001285,62.7232243 Z M107.643832,61.5771347 L106.048,61.692 L107.239089,69.4749974 L105.871346,69.6866027 L104.663103,61.7916786 C103.067953,61.9033282 101.474715,62.0097167 99.8847797,62.1105518 L101.011836,69.4749974 L99.6440935,69.6866027 L98.4982979,62.1971223 C97.093704,62.2834376 95.6920109,62.3653411 94.2941815,62.4426302 L95.4552771,70.0301503 C101.790827,69.8729904 107.386956,69.688547 112.066866,69.4796416 L110.820661,61.3354975 C109.777564,61.4170627 108.718229,61.4976907 107.643832,61.5771347 Z M112.205196,61.2259327 L113.458551,69.4155074 C115.197116,69.3327636 116.795804,69.2463994 118.244369,69.1565784 L116.972037,60.8284172 C115.428483,60.9623497 113.837967,61.0951839 112.205196,61.2259327 Z M121.928465,60.3800503 C120.77012,60.4892559 119.577704,60.5984593 118.353702,60.7071399 L119.632843,69.0662721 C121.589439,68.9326114 123.222652,68.7917827 124.50116,68.6442857 L123.219326,60.2569476 C122.803757,60.2970465 122.373333,60.3381094 121.928465,60.3800503 Z M127.351124,59.8393715 C127.282037,59.8468618 127.171382,59.8587302 127.020333,59.8747308 C126.718838,59.906668 126.36328,59.9437007 125.955686,59.9854043 C125.527391,60.0292258 125.074209,60.0748868 124.596947,60.1222179 L125.87277,68.462627 C126.398251,68.3813071 126.81968,68.2981554 127.132337,68.2132474 C127.994793,67.9790304 128.736634,67.7167083 129.370134,67.4242814 L128.199651,59.7764556 C127.92228,59.8162296 127.639018,59.8376235 127.351124,59.8393715 Z M132.166741,57.4986401 L132.085603,57.5997298 C131.412281,58.4068126 130.540273,59.0406161 129.545288,59.4250069 L130.658223,66.6858219 C131.423041,66.1344147 131.928785,65.4999773 132.227572,64.7740171 C132.715204,63.5892234 132.709914,62.5134757 132.37577,59.6396475 C132.273873,58.7632717 132.204793,58.0868631 132.166741,57.4986401 Z M68.4997828,1.391616 L68.4749415,1.391616 C55.4907154,1.3926333 41.5739181,2.17412321 27.6558318,3.47604915 C22.7806335,3.93208506 18.253684,4.42067878 14.1913644,4.90922115 C12.769962,5.08016173 11.5083168,5.23886386 10.4209712,5.38125078 C10.0406646,5.43105157 9.709383,5.47524514 9.42894404,5.51332185 C9.26105683,5.5361168 9.14764567,5.55177589 9.09052807,5.55978949 L8.99492097,5.566464 C6.31997453,5.566464 4.15150199,7.74713097 4.15150199,10.43712 L4.15150199,10.5204871 L4.13191785,10.6014946 C4.1110753,10.6877073 4.07130291,10.8574029 4.01530382,11.1046706 C3.92155522,11.5186238 3.81697927,11.9983528 3.70427867,12.5379425 C3.38191964,14.081338 3.05943265,15.7934096 2.75842543,17.6267496 C2.00479046,22.2169024 1.51267517,26.7740997 1.40544171,31.0233991 C1.39110009,31.5917091 1.38376131,32.1517155 1.38376131,32.6928909 C1.48449902,39.6815028 2.40626831,46.6336494 4.12988768,53.4046602 L4.15150199,53.4895691 L4.15150199,53.577216 C4.15150199,54.3694352 4.33958241,55.1174788 4.67328959,55.7786544 L4.78669636,55.8064386 C5.22188305,55.9137841 5.83353599,56.0561123 6.65062626,56.2376751 C8.99328157,56.7582285 12.5090187,57.4877767 17.4313984,58.4609409 C24.9932236,59.9559288 39.2856439,60.8620324 54.5476981,61.1422083 L54.653397,61.1253014 L54.6566887,61.1441982 C58.278919,61.209967 61.9549624,61.2404946 65.6078716,61.2352862 L67.113109,61.2311099 C67.8156852,61.2282101 68.5561594,61.220893 69.3330437,61.209296 L69.875571,61.1253014 L69.8854383,61.2004356 C73.9140096,61.1314409 78.8712022,60.9530657 84.562583,60.6832797 C87.5811489,60.5401919 90.7493799,60.3739719 94.018268,60.1891968 C98.0580116,59.9608487 102.044002,59.7161809 105.801643,59.4715153 C107.116772,59.3858853 108.309382,59.3063746 109.357656,59.2350233 C109.724491,59.2100545 110.047063,59.1878904 110.322644,59.1687861 C110.600834,59.1494352 110.600834,59.1494352 110.633008,59.1476398 L110.633008,59.1476398 L129.817477,57.0806019 L131.686635,55.671854 C131.980539,55.0523282 132.14812,54.3605557 132.155866,53.630237 C130.884885,45.5583535 130.1913,37.4051149 130.080482,29.2129178 C130.180226,22.8794465 130.875054,16.5696901 132.155866,10.3678314 C132.118811,7.70978427 129.964669,5.566464 127.312728,5.566464 L127.216004,5.55963196 C127.159582,5.55162166 127.047528,5.53596586 126.881639,5.51317416 C126.604522,5.47510087 126.277158,5.43091069 125.901345,5.38111325 C124.826827,5.2387336 123.580046,5.08003856 122.175369,4.90910491 C118.160821,4.42057901 113.686986,3.93200056 108.868847,3.47597855 C95.1044865,2.17322421 81.3409074,1.391616 68.4997828,1.391616 Z M10.3881245,58.4584812 L10.41,58.606 L11.4994772,58.7328417 C11.6597755,58.7509816 11.8200813,58.7690447 11.9803948,58.7870309 C11.4224147,58.6721625 10.8919101,58.5629772 10.3881245,58.4584812 Z M6.2152542,57.5660558 L6.26606582,57.6017934 C7.04314915,58.1356655 7.98277908,58.447872 8.99492097,58.447872 L9.07559556,58.4526178 L9.408,58.49 L10.0608946,58.3904843 C8.71686216,58.1106881 7.57097314,57.8656979 6.60879934,57.6533659 L6.35205094,57.5965138 C6.30581253,57.5862393 6.26021534,57.5760869 6.2152542,57.5660558 Z" id="形状结合"></path>
        </g>
        <path d="M252.711284,60.4141239 C253.062428,59.8149574 253.158194,59.0896507 253.190117,58.3958791 C253.222039,57.6705723 253.190117,56.9452656 253.285883,56.2199589 L253.190117,48.3992603 C253.190117,48.0523745 253.222039,47.3270678 253.253961,46.9171118 C253.605105,47.011717 253.956248,47.1063223 254.27547,47.2324626 C254.658536,47.3586029 255.041602,47.4847432 255.392745,47.6739536 C255.807733,47.8000939 256.222721,47.9893044 256.637709,48.1469797 C257.052697,48.3046551 257.499607,48.4307954 257.97844,48.5254006 C258.648805,48.6200059 259.31917,48.6200059 259.957613,48.241585 C260.117224,48.1785148 260.212991,47.9577693 260.021458,47.8000939 C258.776494,47.7054887 257.659218,47.3586029 256.541943,46.9486469 C255.45659,46.5386909 254.403158,46.0656648 253.285883,45.750314 C253.190117,44.5204461 253.317805,43.2590431 253.413572,42.0291752 C253.509338,41.7768946 253.764715,41.524614 254.052015,41.4930789 C254.211626,41.4615439 254.371236,41.4615439 254.530847,41.4615439 C254.690458,41.4615439 254.850069,41.4615439 255.105446,41.3669386 C255.041602,41.083123 254.913913,40.9885177 254.754302,40.8939125 L254.371236,40.7993073 L254.307392,40.7677722 L255.775811,40.4208864 L256.573865,40.3262812 C256.861164,40.3262812 257.084619,40.3262812 257.276152,40.4208864 C257.339997,40.5154916 257.24423,40.6100968 257.148464,40.673167 C256.988853,40.8308424 256.861164,40.9885177 257.116542,41.1777282 C257.371919,41.1777282 257.563452,41.1461931 257.723062,41.0515879 C257.882673,40.9885177 258.010362,40.8939125 258.169973,40.7993073 L258.42535,40.673167 C258.680727,40.4839565 258.968027,40.2947461 258.904182,39.9163252 C258.297661,39.2540886 257.371919,39.2225535 256.510021,39.2540886 C253.700871,39.6955797 251.01941,40.6100968 248.337949,41.4300088 C248.018728,41.4615439 247.60374,41.4300088 247.124907,41.4615439 C246.741841,41.4930789 245.911865,41.7768946 246.007632,42.4706663 C246.199165,42.7544819 246.486464,42.8175521 246.805686,42.8490872 C247.891039,42.8175521 248.880626,42.5337364 249.806368,42.1868506 C250.700189,41.8714998 251.562087,41.4930789 252.487829,41.3038685 C252.168608,42.0922454 252.072841,42.9752275 252.072841,43.8582096 C252.040919,44.7727267 252.040919,45.718779 252.040919,46.6332961 C252.040919,47.4847432 252.136686,51.8365835 252.136686,53.5710126 C252.136686,54.9585559 252.168608,58.1435985 252.168608,59.4050015 C252.168608,59.5311418 252.136686,59.6888171 252.104763,59.8780276 L252.072841,60.1618433 L252.072841,60.1618433 C252.072841,60.2564485 252.040919,60.3195186 252.040919,60.3825888 C252.008997,60.5717992 252.136686,60.6664045 252.296296,60.6664045 C252.455907,60.6979395 252.615518,60.6033343 252.711284,60.4141239 Z M268.262694,50.6697857 C270.114179,50.354435 272.667951,50.0390842 274.008681,49.8183387 C276.019777,49.4714529 280.36119,48.683076 282.372286,48.3046551 C282.531896,48.241585 282.723429,48.1785148 282.88304,48.0523745 C283.010729,47.9262342 283.074573,47.7685588 282.946884,47.5162782 C282.851118,47.2639976 282.563819,47.0747872 282.372286,46.980182 C282.053064,46.8855767 281.733843,46.9486469 281.414621,47.0432521 C281.0954,47.1063223 280.8081,47.2324626 280.520801,47.2955327 C277.168975,48.0839096 273.785226,48.8722865 270.209945,49.1245671 C269.316125,49.2822424 268.35846,48.9038215 267.496562,49.3137775 C267.273107,49.4083827 266.858119,49.5975932 266.985807,49.9760141 C267.145418,50.5436454 267.783861,50.6382506 268.262694,50.6697857 Z M297.412941,44.7096566 C298.083306,43.7005342 298.913282,42.8490872 299.839024,42.0291752 C300.732845,41.2092633 301.690509,40.4839565 302.616252,39.7271147 C302.775862,39.5379043 302.839707,39.2225535 302.552407,39.0648782 C302.169342,38.8441326 301.658587,38.7179923 301.211677,38.7179923 C301.052066,38.8756677 301.052066,39.001808 301.11591,39.0964132 C301.179755,39.1594834 301.147833,39.1279483 301.307443,39.3171588 C301.40321,39.4748341 301.307443,39.6325095 301.179755,39.7271147 C299.966713,40.6416319 298.753671,41.7138245 297.604473,42.786017 C297.540629,42.8490872 297.476785,42.8490872 297.476785,42.7229469 C297.412941,41.7768946 297.444863,40.8939125 297.476785,40.0109304 C297.508707,38.7495274 297.70024,37.4881244 297.572551,36.2582565 C297.476785,36.0690461 297.317174,35.9744408 297.093719,36.0059759 C296.678731,36.1951864 296.551042,36.6051423 296.51912,37.0150983 C296.391432,39.5379043 296.295665,41.93457 296.391432,44.5835163 C296.614887,44.9304021 297.093719,44.9934722 297.412941,44.7096566 Z M290.964665,62.9369299 C293.486516,62.0539478 295.912599,60.5402642 298.115228,58.6481597 C300.285934,56.7875903 302.105497,54.6432052 303.573916,52.2150044 C304.020826,51.4896977 304.340048,50.6697857 303.893138,49.8498738 C303.158928,48.8722865 302.169342,48.7146111 301.179755,48.8092163 C300.669,48.8722865 300.126324,48.9984268 299.615569,49.1245671 L298.242917,49.4714529 C298.179072,48.9984268 298.210994,48.5254006 298.179072,48.0523745 C298.179072,47.5793484 298.083306,47.1378573 297.827929,46.7279014 C300.381701,45.9079894 302.999318,45.1826827 305.808467,44.8673319 C305.968078,44.7096566 306,44.6150513 306,44.4258409 C305.840389,44.2681655 305.585012,44.1104902 305.329635,44.1104902 C303.47815,44.2997006 301.658587,44.6465864 299.902869,45.1196125 C297.317174,45.7818491 294.859168,46.6963663 292.433085,47.5793484 C292.592695,47.2955327 292.752306,46.980182 292.784228,46.6332961 C292.943839,44.9934722 292.943839,43.195973 292.848073,41.5876842 C292.848073,41.3038685 292.848073,40.9885177 292.879995,40.7047021 C292.943839,40.4208864 293.007683,40.1686058 293.167294,39.9478603 C293.326905,39.82172 293.263061,39.8847901 293.486516,39.7586498 C293.614204,39.6640446 293.709971,39.5379043 293.582282,39.2856237 C293.326905,39.0964132 293.071528,39.0964132 292.784228,39.0964132 C292.050019,39.2856237 291.858486,40.0424655 291.762719,40.6100968 C291.762719,42.4706663 291.826564,44.5204461 291.730797,46.3810155 L291.643011,46.8067391 C291.611089,46.9486469 291.571186,47.0905547 291.507342,47.2324626 C291.379653,47.4847432 291.188121,47.7370238 290.836977,47.9577693 C290.2943,48.27312 289.623935,48.4623305 289.049336,48.7776812 C288.921648,48.9038215 288.857803,49.1876372 288.921648,49.4083827 C289.017414,49.6921984 289.368558,49.8183387 289.623935,49.8498738 C292.018097,48.8407514 294.348414,47.8000939 296.80642,47.011717 C296.997953,47.421673 297.093719,47.8946991 297.125641,48.3992603 L297.221408,49.8498738 C295.242234,50.6382506 293.454593,51.7735133 291.762719,53.0033813 C291.379653,53.2871969 290.932743,53.5079425 290.645444,53.9178984 C290.677366,54.3909246 290.932743,54.6432052 291.251965,54.7693455 C292.145785,55.1477664 294.89109,55.5892574 296.040288,55.5892574 C296.487198,55.5892574 296.902186,55.5261873 297.349096,55.400047 C297.732162,55.1793014 297.955617,54.7693455 298.115228,54.4224596 C298.242917,53.7602231 298.274839,53.0664514 298.274839,52.3726798 C298.274839,51.7104432 298.274839,51.0482066 298.338683,50.3859701 C299.104815,50.1021544 299.966713,49.9760141 300.828611,49.7868036 C301.498976,49.6606633 302.29703,49.6606633 302.775862,50.1652245 C303.063162,50.5436454 302.967395,51.1428118 302.712018,51.5843029 C301.307443,53.8863634 299.455958,56.0622835 297.317174,57.954388 C295.114545,59.9095627 292.624617,61.4863164 290.038923,62.3692985 C289.84739,62.4323687 289.592013,62.6531142 289.719701,62.8738597 C290.134689,63.0630701 290.549677,63 290.964665,62.9369299 Z M295.369923,54.7693455 C294.284569,54.7062753 293.326905,54.4855298 292.177707,54.1071089 C292.145785,54.1071089 292.113863,54.0125037 292.177707,53.9809686 C293.709971,52.6564954 295.401845,51.647373 297.189485,50.8274611 C297.25333,51.9627238 297.189485,53.1295216 296.997953,54.170179 C296.646809,54.7062753 295.944521,54.7062753 295.369923,54.7693455 Z" id="下一步" fill="#FFFFFF" fill-rule="nonzero"></path>
    </g>
</svg>