<?xml version="1.0" encoding="UTF-8"?>
<svg width="375px" height="315px" viewBox="0 0 375 315" version="1.1" xmlns="http://www.w3.org/2000/svg" xmlns:xlink="http://www.w3.org/1999/xlink">
    <title>img_home_2nd_into</title>
    <defs>
        <radialGradient cx="50%" cy="50%" fx="50%" fy="50%" r="50%" id="radialGradient-1">
            <stop stop-color="#5078FF" offset="0%"></stop>
            <stop stop-color="#5078FF" stop-opacity="0.202223558" offset="100%"></stop>
        </radialGradient>
        <linearGradient x1="50%" y1="0%" x2="50%" y2="100%" id="linearGradient-2">
            <stop stop-color="#5078FF" offset="0%"></stop>
            <stop stop-color="#5078FF" stop-opacity="0" offset="100%"></stop>
        </linearGradient>
        <rect id="path-3" x="9" y="147" width="357" height="139" rx="8"></rect>
        <mask id="mask-4" maskContentUnits="userSpaceOnUse" maskUnits="objectBoundingBox" x="0" y="0" width="357" height="139" fill="white">
            <use xlink:href="#path-3"></use>
        </mask>
    </defs>
    <g id="img_home_2nd_into" stroke="none" stroke-width="1" fill="none" fill-rule="evenodd">
        <circle id="椭圆形" fill="url(#radialGradient-1)" opacity="0.5" cx="85" cy="197" r="26"></circle>
        <circle id="椭圆形" fill="#5078FF" cx="85" cy="197" r="10"></circle>
        <path d="M314.544814,186 C315.061816,186 315.582149,186.093074 316.090194,186.276317 C318.500364,187.147679 319.60976,189.735564 318.663434,192.315257 L311.21364,211.34841 C311.605009,211.787577 312.168177,212.536061 312.801797,213.731207 C314.994808,217.870382 313.445466,225.406639 307.715836,229.603158 C303.618978,232.602729 299.842518,234 295.830066,234 C293.47921,234 291.030971,233.529111 288.34984,232.560491 C280.725205,229.806386 279.567634,225.089305 279.035415,220.493998 C278.522145,216.072405 283.754066,201.741984 283.977714,201.134041 C284.510449,199.682854 286.037627,198.707844 287.778978,198.707844 C288.277032,198.707844 288.758722,198.790344 289.20929,198.953194 C289.453896,199.04162 290.047725,199.351402 290.615715,199.78075 C291.338451,198.197797 292.944695,197.156554 294.713607,197.156554 C295.237869,197.156557 295.758219,197.247866 296.251867,197.42648 C297.225237,197.778499 298.029565,198.436698 298.559314,199.305156 C299.677036,197.890339 301.531446,197.299418 303.258787,197.922467 C304.386902,198.330029 305.2653,199.147534 305.733439,200.224043 L310.215121,189.241901 C310.937339,187.272475 312.637521,186 314.544814,186 Z M311.954067,189.998613 L305.227527,206.490334 C305.044196,206.943126 304.544166,207.185179 304.069804,207.047541 C303.59727,206.911003 303.30641,206.441425 303.395189,205.960676 L303.92323,203.110101 C303.941404,203.060156 303.955663,203.008874 303.965876,202.95672 C304.207173,202.299786 304.197169,201.60957 303.939694,201.013872 C303.68622,200.425872 303.204312,199.978405 302.581089,199.753773 C301.334587,199.302775 300.09746,200.001209 299.592799,201.376778 L298.935677,203.166766 C298.754633,203.660827 298.203782,203.915787 297.706668,203.736128 C297.209553,203.55647 296.952078,203.009854 297.133751,202.515619 L297.134895,202.510989 C297.366702,201.875064 297.335775,201.186585 297.04846,200.572829 C296.759886,199.957915 296.246479,199.491752 295.605707,199.259654 C295.30712,199.259384 295.010855,199.207249 294.730154,199.105579 C293.658351,199.105579 292.692819,199.778257 292.325471,200.777665 C292.325471,200.777665 291.032778,203.969557 290.749464,204.657341 C290.465693,205.345242 290.015854,205.454345 289.53629,205.275786 C289.056782,205.097285 288.885685,204.606639 289.101714,204.003359 C289.316601,203.400715 289.935822,201.725793 289.935822,201.725793 C289.639703,201.420535 289.018309,200.933535 288.592995,200.780038 C288.355871,200.694376 288.098739,200.65114 287.826,200.65114 C286.910717,200.65114 286.095817,201.130037 285.84423,201.814464 C284.375238,205.822981 280.64625,216.944507 281.027146,220.232074 C281.527119,224.542317 282.475158,228.303571 289.050379,230.679648 C291.507655,231.568275 293.728493,232 295.841688,232 C299.455487,232 302.753387,230.76369 306.535426,227.99131 C309.941827,225.495537 313.39036,219.037205 311.039984,214.599163 C310.786396,214.120209 310.551616,213.731605 310.344275,213.420675 L307.920956,219.612934 C307.729907,220.103638 307.173797,220.34627 306.679084,220.156193 C306.185513,219.965885 305.940729,219.414002 306.131834,218.923356 L316.778182,191.706759 C317.357615,190.125833 316.773494,188.663792 315.357038,188.151499 C313.959275,187.647424 312.527612,188.436151 311.954067,189.998613 Z" id="形状结合" fill="#FFFFFF" fill-rule="nonzero" transform="translate(299.000000, 210.000000) scale(1, -1) rotate(-158.000000) translate(-299.000000, -210.000000) "></path>
        <path d="M129.544814,186 C130.061816,186 130.582149,186.093074 131.090194,186.276317 C133.500364,187.147679 134.60976,189.735564 133.663434,192.315257 L126.21364,211.34841 C126.605009,211.787577 127.168177,212.536061 127.801797,213.731207 C129.994808,217.870382 128.445466,225.406639 122.715836,229.603158 C118.618978,232.602729 114.842518,234 110.830066,234 C108.47921,234 106.030971,233.529111 103.34984,232.560491 C95.7252045,229.806386 94.5676338,225.089305 94.0354155,220.493998 C93.5221455,216.072405 98.7540662,201.741984 98.9777139,201.134041 C99.510449,199.682854 101.037627,198.707844 102.778978,198.707844 C103.277032,198.707844 103.758722,198.790344 104.20929,198.953194 C104.453896,199.04162 105.047725,199.351402 105.615715,199.78075 C106.338451,198.197797 107.944695,197.156554 109.713607,197.156554 C110.237869,197.156557 110.758219,197.247866 111.251867,197.42648 C112.225237,197.778499 113.029565,198.436698 113.559314,199.305156 C114.677036,197.890339 116.531446,197.299418 118.258787,197.922467 C119.386902,198.330029 120.2653,199.147534 120.733439,200.224043 L125.215121,189.241901 C125.937339,187.272475 127.637521,186 129.544814,186 Z M126.954067,189.998613 L120.227527,206.490334 C120.044196,206.943126 119.544166,207.185179 119.069804,207.047541 C118.59727,206.911003 118.30641,206.441425 118.395189,205.960676 L118.92323,203.110101 C118.941404,203.060156 118.955663,203.008874 118.965876,202.95672 C119.207173,202.299786 119.197169,201.60957 118.939694,201.013872 C118.68622,200.425872 118.204312,199.978405 117.581089,199.753773 C116.334587,199.302775 115.09746,200.001209 114.592799,201.376778 L113.935677,203.166766 C113.754633,203.660827 113.203782,203.915787 112.706668,203.736128 C112.209553,203.55647 111.952078,203.009854 112.133751,202.515619 L112.134895,202.510989 C112.366702,201.875064 112.335775,201.186585 112.04846,200.572829 C111.759886,199.957915 111.246479,199.491752 110.605707,199.259654 C110.30712,199.259384 110.010855,199.207249 109.730154,199.105579 C108.658351,199.105579 107.692819,199.778257 107.325471,200.777665 C107.325471,200.777665 106.032778,203.969557 105.749464,204.657341 C105.465693,205.345242 105.015854,205.454345 104.53629,205.275786 C104.056782,205.097285 103.885685,204.606639 104.101714,204.003359 C104.316601,203.400715 104.935822,201.725793 104.935822,201.725793 C104.639703,201.420535 104.018309,200.933535 103.592995,200.780038 C103.355871,200.694376 103.098739,200.65114 102.826,200.65114 C101.910717,200.65114 101.095817,201.130037 100.84423,201.814464 C99.3752383,205.822981 95.6462499,216.944507 96.0271462,220.232074 C96.5271191,224.542317 97.4751583,228.303571 104.050379,230.679648 C106.507655,231.568275 108.728493,232 110.841688,232 C114.455487,232 117.753387,230.76369 121.535426,227.99131 C124.941827,225.495537 128.39036,219.037205 126.039984,214.599163 C125.786396,214.120209 125.551616,213.731605 125.344275,213.420675 L122.920956,219.612934 C122.729907,220.103638 122.173797,220.34627 121.679084,220.156193 C121.185513,219.965885 120.940729,219.414002 121.131834,218.923356 L131.778182,191.706759 C132.357615,190.125833 131.773494,188.663792 130.357038,188.151499 C128.959275,187.647424 127.527612,188.436151 126.954067,189.998613 Z" id="形状结合备份" fill="#FFFFFF" fill-rule="nonzero" transform="translate(114.000000, 210.000000) scale(1, -1) rotate(-158.000000) translate(-114.000000, -210.000000) "></path>
        <g id="编组备份" transform="translate(243.000000, 194.000000) scale(1, -1) rotate(-90.000000) translate(-243.000000, -194.000000) translate(228.000000, 165.000000)" fill-rule="nonzero">
            <path d="M13.4090097,13.6876623 C14.2876894,12.7707792 15.7123106,12.7707792 16.5909903,13.6876623 L16.5909903,13.6876623 L29.3409903,26.9920102 C30.2196699,27.9088933 30.2196699,29.3954545 29.3409903,30.3123377 C28.4623106,31.2292208 27.0376894,31.2292208 26.1590097,30.3123377 L26.1590097,30.3123377 L17.419,21.192 L17.4193548,55.6226415 C17.4193548,56.8809129 16.4245574,57.9108701 15.1656439,57.9945154 L15,58 C13.6638272,58 12.5806452,56.9356203 12.5806452,55.6226415 L12.5806452,55.6226415 L12.58,21.193 L3.84099026,30.3123377 C3.00225059,31.1875443 1.66607244,31.2273264 0.782111087,30.431684 L0.659009742,30.3123377 C-0.219669914,29.3954545 -0.219669914,27.9088933 0.659009742,26.9920102 L0.659009742,26.9920102 Z" id="形状结合" fill="url(#linearGradient-2)"></path>
            <path d="M26.1590097,17.3123377 C27.0376894,18.2292208 28.4623106,18.2292208 29.3409903,17.3123377 C30.2196699,16.3954545 30.2196699,14.9088933 29.3409903,13.9920102 L16.5909903,0.68766234 C15.7123106,-0.22922078 14.2876894,-0.22922078 13.4090097,0.68766234 L0.659009742,13.9920102 C-0.219669914,14.9088933 -0.219669914,16.3954545 0.659009742,17.3123377 C1.5376894,18.2292208 2.9623106,18.2292208 3.84099026,17.3123377 L15,5.66815358 L26.1590097,17.3123377 Z" id="路径-9备份" fill="#5078FF" opacity="0.300000012"></path>
        </g>
        <use id="矩形" stroke="#FFFFFF" mask="url(#mask-4)" stroke-width="2" stroke-dasharray="4,5" xlink:href="#path-3"></use>
        <path d="M216.613244,261.580194 L216.613244,260.600646 L212.058461,260.600646 L212.058461,256.332616 L215.478052,256.332616 L215.478052,255.367061 L208.302518,255.367061 C208.722959,254.387513 209.101356,253.324004 209.40968,252.16254 L216.599229,252.16254 L216.599229,251.182992 L209.64793,251.182992 C209.788077,250.567277 209.900195,249.90958 210.012313,249.223897 L209.003253,249.097955 C208.891136,249.811625 208.765003,250.511302 208.610841,251.182992 L204.364383,251.182992 L204.364383,252.16254 L208.372591,252.16254 C207.503679,255.339074 206.046148,257.801938 204,259.537137 L204.518544,260.46071 C205.835928,259.411195 206.94309,258.039828 207.840032,256.332616 L211.035387,256.332616 L211.035387,260.600646 L206.396516,260.600646 L206.396516,261.580194 L216.613244,261.580194 Z M221.226421,252.274489 L221.913142,251.588805 C221.226421,250.875135 220.385538,250.161464 219.376479,249.4338 L218.689758,250.077503 C219.768891,250.861141 220.609774,251.588805 221.226421,252.274489 Z M230.64431,255.758881 L230.64431,253.421959 L229.649265,253.421959 L229.649265,249.657696 L223.104393,249.657696 L223.104393,253.421959 L221.99723,253.421959 L221.99723,255.744887 L222.964246,255.744887 L222.964246,254.289559 L229.691309,254.289559 L229.691309,255.758881 L230.64431,255.758881 Z M228.696264,253.421959 L226.944425,253.421959 L226.944425,251.588805 L224.057394,251.588805 L224.057394,250.53929 L228.696264,250.53929 L228.696264,253.421959 Z M226.089527,253.421959 L224.057394,253.421959 L224.057394,252.35845 L226.089527,252.35845 L226.089527,253.421959 Z M220.848024,255.604952 L221.52073,254.919268 C220.904083,254.219591 220.147288,253.533907 219.236331,252.848224 L218.54961,253.491927 C219.530641,254.247578 220.287435,254.947255 220.848024,255.604952 Z M224.2536,261.986006 L224.2536,259.74704 L228.486044,259.74704 L228.486044,260.684607 C228.486044,260.950484 228.331882,261.09042 228.023558,261.09042 L226.650116,261.062433 L226.902381,261.958019 L228.317867,261.958019 C229.046632,261.958019 229.42503,261.594187 229.42503,260.880517 L229.42503,255.199139 L223.286584,255.199139 L223.286584,261.986006 L224.2536,261.986006 Z M228.486044,257.088267 L224.2536,257.088267 L224.2536,256.052745 L228.486044,256.052745 L228.486044,257.088267 Z M219.502611,261.944026 C220.231376,260.46071 220.890068,258.865447 221.478686,257.172228 L220.595759,256.836383 C220.03517,258.431647 219.376479,259.998924 218.605669,261.538213 L219.502611,261.944026 Z M228.486044,258.949408 L224.2536,258.949408 L224.2536,257.885899 L228.486044,257.885899 L228.486044,258.949408 Z M241.998565,261.888052 C242.895507,261.888052 243.343978,261.412271 243.343978,260.488698 L243.343978,250.973089 L245.19392,250.973089 L245.19392,249.993541 L232.692794,249.993541 L232.692794,250.973089 L242.334918,250.973089 L242.334918,260.236814 C242.334918,260.712594 242.096668,260.964478 241.648197,260.964478 C240.947462,260.964478 240.204682,260.936491 239.433872,260.908504 L239.658108,261.888052 L241.998565,261.888052 Z M235.299531,259.481163 L235.299531,258.249731 L239.770225,258.249731 L239.770225,253.114101 L234.318501,253.114101 L234.318501,259.481163 L235.299531,259.481163 Z M238.80321,257.326157 L235.299531,257.326157 L235.299531,254.023681 L238.80321,254.023681 L238.80321,257.326157 Z M251.853246,261.846071 C253.899394,260.670614 255.384954,259.229279 256.309925,257.53606 C257.375044,259.005382 258.229941,260.390743 258.888633,261.706136 L259.659442,260.936491 C258.874618,259.481163 257.907603,258.025834 256.758396,256.570506 C256.842485,256.360603 256.912558,256.1507 256.982632,255.940797 C257.57125,254.093649 257.865559,251.854682 257.865559,249.19591 L256.814455,249.19591 C256.80044,251.896663 256.506131,254.121636 255.917513,255.870829 C255.146704,257.941873 253.563041,259.649085 251.18054,261.020452 L251.853246,261.846071 Z M248.013214,260.390743 C249.652936,259.78902 251.194554,259.07535 252.624055,258.249731 L252.343761,257.270183 C251.264628,257.913886 250.185495,258.459634 249.092347,258.907427 L249.092347,249.559742 L248.055258,249.559742 L248.055258,258.669537 C248.055258,258.991389 247.929126,259.243272 247.676861,259.439182 L248.013214,260.390743 Z M253.563041,255.115178 L254.417939,254.527449 C253.745233,253.435953 252.764202,252.148547 251.488863,250.679225 L250.64798,251.196986 C251.881275,252.638321 252.848291,253.93972 253.563041,255.115178 Z M261.623838,254.681378 C264.076414,253.799785 265.856282,252.680301 266.94943,251.336921 L267.033519,251.336921 L267.033519,253.953714 L268.014549,253.953714 L268.014549,251.336921 L268.098637,251.336921 C269.135726,252.708288 270.915595,253.813778 273.438244,254.667384 L273.8727,253.757804 C271.658375,253.170075 270.032668,252.35845 268.981564,251.336921 L273.284082,251.336921 L273.284082,250.413348 L268.014549,250.413348 L268.014549,249.125942 L267.033519,249.125942 L267.033519,250.413348 L261.763986,250.413348 L261.763986,251.336921 L266.094533,251.336921 C265.001385,252.316469 263.333634,253.142088 261.091279,253.785791 L261.623838,254.681378 Z M271.714434,259.55113 L271.714434,254.401507 L263.333634,254.401507 L263.333634,259.55113 L271.714434,259.55113 Z M270.733403,256.570506 L264.314664,256.570506 L264.314664,255.297094 L270.733403,255.297094 L270.733403,256.570506 Z M270.733403,258.655544 L264.314664,258.655544 L264.314664,257.424112 L270.733403,257.424112 L270.733403,258.655544 Z M273.522332,261.580194 L273.522332,260.642626 L261.483691,260.642626 L261.483691,261.580194 L273.522332,261.580194 Z M279.242671,262 L279.242671,261.398278 L285.577323,261.398278 L285.577323,262 L286.544338,262 L286.544338,255.409042 L279.593039,255.409042 C279.859319,255.101184 280.111584,254.779333 280.363849,254.443488 L287.94581,254.443488 L287.94581,253.547901 L280.980496,253.547901 C281.162687,253.240043 281.344879,252.932185 281.513055,252.59634 L287.132956,252.59634 L287.132956,251.728741 L281.919482,251.728741 C282.059629,251.378902 282.199776,251.01507 282.325909,250.637244 C284.091763,250.497309 285.633382,250.287406 286.96478,249.993541 L286.502294,249.19591 C283.881542,249.727664 280.588084,249.993541 276.607905,249.993541 L276.902214,250.833154 C278.499892,250.833154 279.985451,250.791173 281.358894,250.707212 C281.218746,251.043057 281.078599,251.392896 280.924437,251.728741 L276.481773,251.728741 L276.481773,252.59634 L280.461952,252.59634 C280.27976,252.904198 280.06954,253.22605 279.845304,253.547901 L275.724978,253.547901 L275.724978,254.443488 L279.144568,254.443488 C278.149524,255.618945 276.888199,256.710441 275.360595,257.745963 L275.907169,258.613563 C276.776082,258.025834 277.560906,257.396125 278.275656,256.752422 L278.275656,262 L279.242671,262 Z M285.577323,257.172228 L279.242671,257.172228 L279.242671,256.234661 L285.577323,256.234661 L285.577323,257.172228 Z M285.577323,258.83746 L279.242671,258.83746 L279.242671,257.955867 L285.577323,257.955867 L285.577323,258.83746 Z M285.577323,260.572659 L279.242671,260.572659 L279.242671,259.621098 L285.577323,259.621098 L285.577323,260.572659 Z M290.120426,261.986006 C292.348766,261.734123 293.960458,261.202368 294.941489,260.362756 C297.029681,261.314316 299.482256,261.860065 302.299214,261.972013 L302.551479,261.006459 C299.860654,260.922497 297.534211,260.46071 295.572151,259.635091 C295.964563,259.07535 296.230842,258.333692 296.399019,257.410118 L300.911757,257.410118 L300.911757,251.868676 L296.567196,251.868676 L296.567196,250.651238 L302.074979,250.651238 L302.074979,249.713671 L290.064368,249.713671 L290.064368,250.651238 L295.558136,250.651238 L295.558136,251.868676 L291.269633,251.868676 L291.269633,257.410118 L295.375945,257.410118 C295.235798,258.137783 294.983533,258.739505 294.64718,259.215285 C293.862355,258.809473 293.13359,258.333692 292.474899,257.787944 L291.704089,258.319699 C292.39081,258.907427 293.147605,259.425188 293.960458,259.872982 C293.063517,260.516685 291.634016,260.908504 289.68597,261.062433 L290.120426,261.986006 Z M295.558136,254.205597 L292.264678,254.205597 L292.264678,252.736276 L295.558136,252.736276 L295.558136,254.205597 Z M299.916713,254.205597 L296.567196,254.205597 L296.567196,252.736276 L299.916713,252.736276 L299.916713,254.205597 Z M299.916713,256.528525 L296.525151,256.528525 L296.567196,255.534984 L296.567196,255.04521 L299.916713,255.04521 L299.916713,256.528525 Z M295.516092,256.528525 L292.264678,256.528525 L292.264678,255.04521 L295.558136,255.04521 L295.558136,255.534984 C295.558136,255.870829 295.544121,256.206674 295.516092,256.528525 Z M305.98742,255.702906 C310.079717,255.381055 312.896675,253.869752 314.410264,251.182992 L314.410264,250.385361 L310.388041,250.385361 C310.668335,250.133477 310.934615,249.8676 311.18688,249.587729 L310.289938,249.111948 C309.056643,250.455328 307.192686,251.350915 304.698066,251.826695 L305.286684,252.750269 C306.786259,252.414424 308.075613,251.92465 309.168761,251.280947 L313.261057,251.280947 C312.476233,252.428418 311.341041,253.310011 309.883511,253.89774 C309.43504,253.337998 308.95854,252.83423 308.45401,252.35845 L307.571083,252.778256 C308.047583,253.212056 308.510069,253.70183 308.944525,254.233584 C307.935466,254.527449 306.814288,254.709365 305.552964,254.793326 L305.98742,255.702906 Z M305.090478,261.76211 C310.528188,261.636168 314.228073,259.928956 316.218162,256.62648 L316.218162,255.828848 L312.37813,255.828848 C312.770542,255.534984 313.12091,255.213132 313.457263,254.877287 L312.588351,254.401507 C311.130821,255.940797 308.874451,256.878364 305.819244,257.186222 L306.421876,258.081808 C308.117657,257.787944 309.575187,257.340151 310.808482,256.752422 L314.956838,256.752422 C314.059896,257.983854 312.840616,258.949408 311.284983,259.621098 C310.808482,258.991389 310.289938,258.40366 309.757379,257.857912 L308.860437,258.277718 C309.378981,258.781485 309.869496,259.355221 310.345997,259.98493 C308.762334,260.516685 306.870347,260.782562 304.684052,260.796555 L305.090478,261.76211 Z M320.046515,257.158235 C321.013531,256.374596 321.602149,255.367061 321.798355,254.149623 L327.782638,254.149623 L327.782638,255.506997 C327.782638,255.884822 327.600447,256.080732 327.264094,256.080732 C326.95577,256.080732 326.605402,256.066738 326.24102,256.038751 L326.47927,256.948332 L327.558403,256.948332 C328.357242,256.948332 328.763669,256.584499 328.763669,255.856835 L328.763669,254.149623 L330.599596,254.149623 L330.599596,253.212056 L328.763669,253.212056 L328.763669,250.035522 L324.615313,250.035522 C324.797504,249.755651 324.951666,249.461787 325.063784,249.139935 L324.054724,249 C323.942606,249.349839 323.788445,249.699677 323.578224,250.035522 L320.901413,250.035522 L320.901413,253.212056 L318.757162,253.212056 L318.757162,254.149623 L320.817325,254.149623 C320.621119,255.04521 320.116589,255.828848 319.275706,256.472551 L320.046515,257.158235 Z M327.782638,253.212056 L321.868429,253.212056 L321.868429,250.945102 L327.782638,250.945102 L327.782638,253.212056 Z M325.400137,253.184069 L325.97474,252.512379 C325.400137,252.008611 324.72743,251.560818 323.942606,251.155005 L323.424062,251.756728 C324.222901,252.204521 324.881592,252.680301 325.400137,253.184069 Z M325.189916,256.724435 L325.792549,256.010764 C325.147872,255.423036 324.391077,254.905274 323.494135,254.429494 L322.961576,255.073197 C323.858518,255.576964 324.601298,256.136706 325.189916,256.724435 Z M330.963979,261.608181 L330.963979,260.698601 L329.42236,260.698601 L329.42236,257.53606 L319.836295,257.53606 L319.836295,260.698601 L318.36475,260.698601 L318.36475,261.608181 L330.963979,261.608181 Z M322.681282,260.698601 L320.80331,260.698601 L320.80331,258.44564 L322.681282,258.44564 L322.681282,260.698601 Z M325.568313,260.698601 L323.648297,260.698601 L323.648297,258.44564 L325.568313,258.44564 L325.568313,260.698601 Z M328.455345,260.698601 L326.535329,260.698601 L326.535329,258.44564 L328.455345,258.44564 L328.455345,260.698601 Z M334.848391,261.76211 L334.848391,260.866523 L342.976926,260.866523 L342.976926,261.76211 L344,261.76211 L344,250.81916 L333.839331,250.81916 L333.839331,261.76211 L334.848391,261.76211 Z M342.976926,259.886975 L334.848391,259.886975 L334.848391,251.798708 L342.976926,251.798708 L342.976926,259.886975 Z" id="左滑可以查看更多盘口" fill="#FFFFFF" fill-rule="nonzero"></path>
        <path d="M32.8456529,261.832078 C34.4156683,261.468245 35.8875578,261.062433 37.2613213,260.586652 L36.9949794,259.621098 C35.9576478,260.012917 34.9062982,260.334769 33.8549486,260.586652 L33.8549486,255.52099 L36.7706915,255.52099 C37.3874832,258.151776 39.0976786,260.208827 41.9293135,261.706136 L42.5180693,260.768568 C39.9247403,259.50915 38.3266889,257.759957 37.7379331,255.52099 L42.3498534,255.52099 L42.3498534,254.541442 L33.8549486,254.541442 L33.8549486,249.181916 L32.8456529,249.181916 L32.8456529,254.541442 L30,254.541442 L30,255.52099 L32.8456529,255.52099 L32.8456529,260.41873 C32.8456529,260.642626 32.733509,260.796555 32.5232391,260.908504 L32.8456529,261.832078 Z M35.8455038,253.379978 C38.088383,252.372443 39.7845603,251.238967 40.9059999,249.979548 L40.2191182,249.293864 C39.1257146,250.511302 37.4715912,251.602799 35.24273,252.582347 L35.8455038,253.379978 Z M49.8377989,253.519914 L49.8377989,251.616792 L55.4309788,251.616792 L55.4309788,253.46394 L56.3982204,253.46394 L56.3982204,250.707212 L53.1180097,250.707212 C52.9217577,250.063509 52.7255058,249.503767 52.5152359,249 L51.4919223,249.167922 C51.7162102,249.643703 51.9264801,250.14747 52.108714,250.707212 L48.8845752,250.707212 L48.8845752,253.519914 L49.8377989,253.519914 Z M45.6604364,261.818084 C46.4594621,261.818084 46.865984,261.412271 46.865984,260.600646 L46.865984,256.556512 C47.3005418,256.360603 47.7350997,256.164693 48.1696575,255.95479 L48.1696575,254.933262 C47.7350997,255.157158 47.3005418,255.367061 46.865984,255.562971 L46.865984,252.764263 L48.1836755,252.764263 L48.1836755,251.798708 L46.865984,251.798708 L46.865984,249.153929 L45.8286524,249.153929 L45.8286524,251.798708 L44.188547,251.798708 L44.188547,252.764263 L45.8286524,252.764263 L45.8286524,255.968784 C45.2118606,256.19268 44.5670329,256.38859 43.9081871,256.542519 L44.160511,257.550054 C44.7072128,257.382131 45.2679326,257.186222 45.8286524,256.976319 L45.8286524,260.348762 C45.8286524,260.712594 45.6464185,260.89451 45.3099866,260.89451 C44.9735547,260.89451 44.6231048,260.866523 44.258637,260.838536 L44.4689069,261.818084 L45.6604364,261.818084 Z M48.3098375,262 C50.4966446,261.482239 52.0666601,260.796555 53.0479197,259.928956 C54.3095392,260.670614 55.3608888,261.342304 56.2019685,261.958019 L56.8888503,261.160388 C56.0758066,260.600646 55.0244569,259.942949 53.7067654,259.215285 C54.4497192,258.291712 54.940349,257.116254 55.1646369,255.7169 L56.8467963,255.7169 L56.8467963,254.751346 L51.8704081,254.751346 C52.0666601,254.107643 52.27693,253.379978 52.4731819,252.582347 L51.4919223,252.498385 C51.2956703,253.282024 51.0854004,254.023681 50.8470945,254.751346 L48.5481434,254.751346 L48.5481434,255.7169 L50.5106626,255.7169 C50.2022667,256.500538 49.8658349,257.242196 49.487349,257.941873 C50.4125367,258.431647 51.2816523,258.907427 52.094696,259.369214 C51.1414724,260.068891 49.7536909,260.628633 47.9033156,261.048439 L48.3098375,262 Z M52.8096138,258.725511 C52.150768,258.375673 51.4358503,258.011841 50.6788786,257.620022 C50.9732565,257.088267 51.2536164,256.444564 51.5339763,255.7169 L54.1973953,255.7169 C53.9590893,256.948332 53.4964955,257.941873 52.8096138,258.725511 Z M67.7971865,261.846071 C68.6943381,261.846071 69.142914,261.370291 69.142914,260.446717 L69.142914,250.931109 L70.9932893,250.931109 L70.9932893,249.951561 L58.489238,249.951561 L58.489238,250.931109 L68.1336183,250.931109 L68.1336183,260.194833 C68.1336183,260.670614 67.8953124,260.922497 67.4467366,260.922497 C66.7458369,260.922497 66.0028831,260.89451 65.2318934,260.866523 L65.4561813,261.846071 L67.7971865,261.846071 Z M61.096585,259.439182 L61.096585,258.20775 L65.5683253,258.20775 L65.5683253,253.072121 L60.1153253,253.072121 L60.1153253,259.439182 L61.096585,259.439182 Z M64.6010837,257.284177 L61.096585,257.284177 L61.096585,253.981701 L64.6010837,253.981701 L64.6010837,257.284177 Z M77.6541731,261.80409 C79.7008003,260.628633 81.1867078,259.187298 82.1118954,257.49408 C83.177263,258.963402 84.0323607,260.348762 84.6912065,261.664155 L85.4621962,260.89451 C84.6771885,259.439182 83.7099468,257.983854 82.5604713,256.528525 C82.6445792,256.318622 82.7146692,256.108719 82.7847592,255.898816 C83.373515,254.051668 83.6678928,251.812702 83.6678928,249.153929 L82.6165432,249.153929 C82.6025252,251.854682 82.3081473,254.079656 81.7193916,255.828848 C80.9484019,257.899892 79.3643684,259.607104 76.9813093,260.978471 L77.6541731,261.80409 Z M73.8132425,260.348762 C75.4533479,259.74704 76.9953273,259.033369 78.4251628,258.20775 L78.1448029,257.228202 C77.0654173,257.871905 75.9860317,258.417653 74.8926281,258.865447 L74.8926281,249.517761 L73.8552965,249.517761 L73.8552965,258.627557 C73.8552965,258.949408 73.7291346,259.201292 73.4768107,259.397201 L73.8132425,260.348762 Z M79.3643684,255.073197 L80.2194661,254.485468 C79.5466024,253.393972 78.5653427,252.106566 77.2897052,250.637244 L76.4486255,251.155005 C77.6822091,252.59634 78.6494507,253.89774 79.3643684,255.073197 Z M97.2536661,260.012917 L97.2536661,255.996771 L99.4825272,255.996771 L99.4825272,255.04521 L97.2536661,255.04521 L97.2536661,252.260495 L99.0339514,252.260495 L99.0339514,251.322928 L97.2536661,251.322928 L97.2536661,249.111948 L96.2724064,249.111948 L96.2724064,251.322928 L94.0575633,251.322928 L94.0575633,249.097955 L93.0903216,249.097955 L93.0903216,251.322928 L91.4361982,251.322928 L91.4361982,252.260495 L93.0903216,252.260495 L93.0903216,253.365985 C93.0903216,253.953714 93.0482676,254.513455 92.9781777,255.04521 L90.9455684,255.04521 L90.9455684,255.996771 L92.7959437,255.996771 C92.4875478,257.312164 91.8847741,258.291712 91.0016404,258.921421 L91.6044142,259.733046 C92.6837998,258.921421 93.4127355,257.675996 93.7772034,255.996771 L96.2724064,255.996771 L96.2724064,260.012917 L97.2536661,260.012917 Z M89.7400209,252.218515 L90.4689566,251.504844 C89.8241288,250.77718 89.0251031,250.063509 88.0858975,249.335845 L87.3990157,249.993541 C88.3942934,250.791173 89.1793011,251.532831 89.7400209,252.218515 Z M96.2724064,255.04521 L93.9454193,255.04521 C94.0155093,254.457481 94.0575633,253.813778 94.0575633,253.142088 L94.0575633,252.260495 L96.2724064,252.260495 L96.2724064,255.04521 Z M87.9316995,261.972013 C88.7026893,260.684607 89.2493911,260.040904 89.5858229,260.040904 C89.7540389,260.040904 89.9362728,260.152853 90.1185067,260.390743 C90.5530646,260.89451 91.0436944,261.244349 91.5903962,261.412271 C92.151116,261.5662 92.8660337,261.650161 93.7631854,261.664155 C94.646319,261.678149 95.4733807,261.692142 96.2303524,261.692142 L99.4404732,261.692142 L99.6787792,260.684607 C99.3143113,260.712594 98.7816275,260.726588 98.1087637,260.740581 C97.421882,260.754575 96.7490183,260.768568 96.0901725,260.768568 C95.0107869,260.768568 94.0996172,260.754575 93.3706815,260.740581 C92.5576378,260.712594 91.9268281,260.600646 91.5062882,260.404736 C91.1137844,260.22282 90.7633345,259.928956 90.4269026,259.523143 C90.3147587,259.397201 90.2026147,259.285253 90.0904707,259.201292 L90.0904707,253.967707 L87.1466918,253.967707 L87.1466918,254.891281 L89.1512651,254.891281 L89.1512651,259.145318 C88.5765273,259.397201 87.9176816,260.110872 87.1747278,261.286329 L87.9316995,261.972013 Z M101.447383,253.771798 C103.185614,252.582347 104.447234,251.21098 105.232241,249.657696 L104.321072,249.23789 C103.662226,250.553283 102.610876,251.728741 101.153005,252.764263 L101.447383,253.771798 Z M113.250534,251.001076 L113.250534,250.007535 L106.535915,250.007535 L106.535915,251.001076 L113.250534,251.001076 Z M104.363126,261.944026 L104.363126,255.087191 C104.979917,254.387513 105.484565,253.631862 105.891087,252.848224 L104.979917,252.428418 C104.19491,253.981701 102.947308,255.353068 101.237113,256.556512 L101.531491,257.564047 C102.204355,257.10226 102.807128,256.612487 103.367848,256.108719 L103.367848,261.944026 L104.363126,261.944026 Z M110.236666,261.888052 C111.133817,261.888052 111.596411,261.482239 111.596411,260.670614 L111.596411,254.555436 L113.867326,254.555436 L113.867326,253.561895 L106.157429,253.561895 L106.157429,254.555436 L110.573097,254.555436 L110.573097,260.41873 C110.573097,260.782562 110.334791,260.964478 109.886216,260.964478 C109.269424,260.964478 108.638614,260.936491 107.96575,260.89451 L108.17602,261.888052 L110.236666,261.888052 Z M115.930308,261.944026 C118.159169,261.692142 119.771238,261.160388 120.752498,260.320775 C122.841179,261.272336 125.294328,261.818084 128.111945,261.930032 L128.364269,260.964478 C125.672814,260.880517 123.345827,260.41873 121.383308,259.593111 C121.775811,259.033369 122.042153,258.291712 122.210369,257.368138 L126.724164,257.368138 L126.724164,251.826695 L122.378585,251.826695 L122.378585,250.609257 L127.887657,250.609257 L127.887657,249.67169 L115.874236,249.67169 L115.874236,250.609257 L121.36929,250.609257 L121.36929,251.826695 L117.079783,251.826695 L117.079783,257.368138 L121.187056,257.368138 C121.046876,258.095802 120.794552,258.697524 120.45812,259.173305 C119.673112,258.767492 118.944177,258.291712 118.285331,257.745963 L117.514341,258.277718 C118.201223,258.865447 118.958195,259.383208 119.771238,259.831001 C118.874087,260.474704 117.444251,260.866523 115.49575,261.020452 L115.930308,261.944026 Z M121.36929,254.163617 L118.075061,254.163617 L118.075061,252.694295 L121.36929,252.694295 L121.36929,254.163617 Z M125.728886,254.163617 L122.378585,254.163617 L122.378585,252.694295 L125.728886,252.694295 L125.728886,254.163617 Z M125.728886,256.486545 L122.336531,256.486545 L122.378585,255.493003 L122.378585,255.003229 L125.728886,255.003229 L125.728886,256.486545 Z M121.327236,256.486545 L118.075061,256.486545 L118.075061,255.003229 L121.36929,255.003229 L121.36929,255.493003 C121.36929,255.828848 121.355272,256.164693 121.327236,256.486545 Z M131.801014,255.660926 C135.894269,255.339074 138.711885,253.827772 140.225829,251.141012 L140.225829,250.34338 L136.202664,250.34338 C136.483024,250.091496 136.749366,249.825619 137.00169,249.545748 L136.104538,249.069968 C134.870955,250.413348 133.006562,251.308934 130.511359,251.784715 L131.100114,252.708288 C132.60004,252.372443 133.889695,251.88267 134.983099,251.238967 L139.076353,251.238967 C138.291346,252.386437 137.155888,253.26803 135.698017,253.855759 C135.249441,253.296017 134.772829,252.79225 134.268181,252.316469 L133.385047,252.736276 C133.861659,253.170075 134.324253,253.659849 134.758811,254.191604 C133.749515,254.485468 132.628076,254.667384 131.366456,254.751346 L131.801014,255.660926 Z M130.903862,261.720129 C136.342844,261.594187 140.043595,259.886975 142.03415,256.584499 L142.03415,255.786868 L138.19322,255.786868 C138.585724,255.493003 138.936173,255.171152 139.272605,254.835307 L138.40349,254.359526 C136.945618,255.898816 134.688721,256.836383 131.632798,257.144241 L132.235572,258.039828 C133.931749,257.745963 135.389621,257.29817 136.623204,256.710441 L140.772531,256.710441 C139.875379,257.941873 138.655813,258.907427 137.099816,259.579117 C136.623204,258.949408 136.104538,258.361679 135.571855,257.815931 L134.674703,258.235737 C135.193369,258.739505 135.683999,259.31324 136.16061,259.942949 C134.576577,260.474704 132.684148,260.740581 130.497341,260.754575 L130.903862,261.720129 Z M145.625093,261.818084 C146.396083,261.818084 146.788587,261.426265 146.788587,260.670614 L146.788587,256.556512 C147.237163,256.360603 147.685738,256.136706 148.134314,255.898816 L148.134314,254.905274 C147.685738,255.143165 147.237163,255.367061 146.788587,255.576964 L146.788587,252.764263 L148.260476,252.764263 L148.260476,251.798708 L146.788587,251.798708 L146.788587,249.167922 L145.779291,249.167922 L145.779291,251.798708 L144.209276,251.798708 L144.209276,252.764263 L145.779291,252.764263 L145.779291,255.982777 C145.232589,256.178687 144.67187,256.346609 144.083114,256.486545 L144.32142,257.49408 C144.812049,257.340151 145.302679,257.172228 145.779291,256.976319 L145.779291,260.41873 C145.779291,260.754575 145.611075,260.922497 145.274643,260.922497 C144.966247,260.922497 144.629816,260.89451 144.293384,260.85253 L144.503654,261.818084 L145.625093,261.818084 Z M155.059204,252.470398 L155.059204,249.615716 L149.690312,249.615716 L149.690312,252.470398 L155.059204,252.470398 Z M154.134016,251.672766 L150.601481,251.672766 L150.601481,250.413348 L154.134016,250.413348 L154.134016,251.672766 Z M151.961227,256.080732 L151.961227,253.310011 L148.540836,253.310011 L148.540836,256.080732 L151.961227,256.080732 Z M156.236715,256.080732 L156.236715,253.310011 L152.788289,253.310011 L152.788289,256.080732 L156.236715,256.080732 Z M151.134165,255.353068 L149.381916,255.353068 L149.381916,254.037675 L151.134165,254.037675 L151.134165,255.353068 Z M155.409654,255.353068 L153.61535,255.353068 L153.61535,254.037675 L155.409654,254.037675 L155.409654,255.353068 Z M152.858378,261.902045 L152.858378,258.151776 L153.110702,258.151776 C153.727494,259.355221 154.792862,260.446717 156.278769,261.426265 L156.937615,260.614639 C155.563851,259.886975 154.568574,259.07535 153.951782,258.151776 L156.531093,258.151776 L156.531093,257.242196 L152.858378,257.242196 L152.858378,256.402583 L151.891137,256.402583 L151.891137,257.242196 L148.218422,257.242196 L148.218422,258.151776 L150.741661,258.151776 C150.110852,259.131324 149.129592,259.956943 147.797882,260.600646 L148.316548,261.468245 C149.830492,260.586652 150.923895,259.481163 151.610777,258.151776 L151.891137,258.151776 L151.891137,261.902045 L152.858378,261.902045 Z M166.289954,261.958019 L166.289954,258.697524 L170.467316,258.697524 L170.467316,257.73197 L166.289954,257.73197 L166.289954,255.367061 L170.383208,255.367061 L170.383208,254.387513 L166.289954,254.387513 L166.289954,252.078579 L171,252.078579 L171,251.085038 L164.944226,251.085038 C165.168514,250.511302 165.392802,249.895587 165.61709,249.251884 L164.607794,249.027987 C163.822787,251.392896 162.799473,253.310011 161.56589,254.765339 L162.280807,255.618945 C163.121887,254.61141 163.864841,253.435953 164.509668,252.078579 L165.26664,252.078579 L165.26664,261.958019 L166.289954,261.958019 Z M161.061242,261.958019 L161.061242,252.582347 C161.621962,251.630786 162.098573,250.609257 162.477059,249.517761 L161.523836,249.069968 C160.836954,251.196986 159.729532,253.072121 158.215589,254.709365 L158.552021,255.772874 C159.084704,255.241119 159.575334,254.681378 160.02391,254.093649 L160.02391,261.958019 L161.061242,261.958019 Z" id="长按可以进行更多操作" fill="#FFFFFF" fill-rule="nonzero"></path>
        <path d="M272.29341,55.6175769 C272.77304,55.6175769 272.741065,55.1391616 272.836991,55.0434785 C273.060818,54.4055915 272.964892,53.640127 272.70909,53.0660286 C272.325385,52.2367754 272.005632,51.4075222 271.653903,50.6101633 C271.270199,49.7809101 270.85452,48.9835512 270.342914,48.2180867 C270.119087,47.9310375 269.895259,47.5801996 269.47958,47.5483053 C269.0639,47.6439884 268.776122,48.0267206 268.552295,48.2818754 L268.424393,48.4413472 C268.264517,48.6646077 268.16859,48.8559738 268.360443,49.1111287 C268.520319,49.0792343 268.616245,49.0473399 268.712171,48.9835512 C268.808097,48.9516569 268.904023,48.9197625 268.999949,48.8559738 C269.159826,48.7921851 269.319703,48.7602908 269.47958,48.8559738 C270.055136,49.9084875 270.662667,50.9610012 271.206248,52.0773036 C271.717854,53.1617116 272.133533,54.3099084 272.29341,55.6175769 Z M275.011315,73 C275.267117,73 275.299093,72.7129508 275.235142,72.5215847 C274.116005,69.9700363 273.028843,67.3865936 271.589953,64.9307284 C272.29341,64.2290526 272.77304,63.3997994 273.220695,62.5705462 C273.700325,61.7412929 274.116005,60.9120397 274.659586,60.1146809 C274.755512,59.9233147 274.851438,59.6043712 274.595635,59.4448994 C274.467734,59.2854277 274.307857,59.317322 274.179956,59.3811107 C273.66835,59.8276317 272.836991,61.0715115 272.389336,61.8688704 C271.973657,62.6024405 271.621928,63.367905 271.046372,64.0057921 C269.351678,61.2628776 268.10464,58.328597 266.761675,55.4262108 C267.017478,55.266739 267.337232,55.171056 267.62501,55.0115842 C267.944763,54.8521124 268.264517,54.6926406 268.520319,54.4055915 C268.616245,54.2461197 268.616245,53.9909649 268.392418,53.7995987 C267.752911,53.7039157 267.273281,54.0547536 266.761675,54.3099084 C266.633774,54.4055915 266.473897,54.4693802 266.345996,54.5331689 C266.090193,54.1185423 265.930316,53.5763382 265.610563,53.2255004 C265.35476,52.9703455 265.066982,52.7789794 264.619327,52.7789794 C264.427475,52.8427681 264.235623,52.9384512 264.363524,53.1617116 L265.322785,54.9796898 C264.299574,55.5218939 262.60488,56.3511471 261.613645,56.8295624 C261.677595,56.1278866 261.837472,55.0434785 261.901423,54.4693802 C261.901423,54.3099084 261.64562,54.0547536 261.389817,54.1504366 C261.006113,54.6288519 260.814261,55.171056 260.68636,55.71326 C260.558458,56.2873584 260.526483,56.8614567 260.430557,57.4036608 C258.735863,58.328597 257.009195,59.1897446 255.1866,59.763843 C255.122649,59.7319486 255.090674,59.7000543 255.122649,59.6362656 C256.049934,58.328597 257.169072,57.1166116 258.352159,55.9365205 C259.631173,54.6607463 261.038088,53.4806552 262.253152,52.109198 C262.572905,51.7583601 262.796732,51.3437334 262.54093,50.8653181 C262.381053,50.5144802 261.997349,50.3231141 261.613645,50.2593254 C260.590434,50.1955367 259.631173,50.3869028 258.735863,50.5782689 C258.256233,50.7058464 257.808578,50.8015294 257.328948,50.8972125 C256.881293,50.9610012 256.401663,51.0247899 255.890058,51.0247899 C255.826107,51.0566843 255.730181,51.0566843 255.66623,51.0566843 L255.378452,50.9610012 C255.1866,50.8653181 254.994748,50.8334238 254.802896,51.1523673 L254.802896,51.3437334 C254.770921,51.5669939 254.802896,51.7902544 255.058699,51.9178318 C255.314501,52.0773036 255.66623,52.109198 255.954008,52.109198 C256.913269,52.0454092 257.808578,51.8859375 258.671913,51.6945713 C259.535247,51.4713109 260.398581,51.2799447 261.325866,51.216156 C261.421793,51.2480504 261.517719,51.3756278 261.485743,51.5350996 C260.366606,52.8427681 259.087592,54.0228592 257.840554,55.2029503 C256.593515,56.4149358 255.346477,57.6588156 254.323266,59.0940615 L254.195364,59.3492164 C254.163389,59.4448994 254.099438,59.5405825 254.035488,59.6362656 C253.939562,60.0189978 254.035488,60.4017301 254.355241,60.6568849 C254.515118,60.7844623 254.738945,60.9439341 255.058699,60.8801454 C256.945244,60.4017301 258.639937,59.4130051 260.366606,58.5837519 C260.366606,59.5405825 260.334631,60.4974131 260.334631,61.4861381 C258.448085,63.0170671 256.337713,64.803151 254.770921,66.6211291 C254.387216,67.2590162 254.451167,68.0244807 254.834871,68.6304735 C255.890058,69.7786702 257.233022,70.5441347 258.83179,70.4484517 C259.631173,70.3846629 260.526483,69.7786702 260.846236,68.949417 C261.261916,67.8331146 261.389817,66.6530235 261.421793,65.4091437 C261.453768,64.1971582 261.389817,62.9532784 261.389817,61.7412929 C261.837472,61.2628776 262.317102,60.7844623 262.764757,60.2422583 C263.212412,59.7319486 263.596116,59.1578502 263.851919,58.5199632 C263.819943,58.328597 263.692042,58.1053366 263.404264,58.1372309 C263.02056,58.5837519 262.732782,59.0621672 262.381053,59.4767938 C262.093275,59.859526 261.773521,60.2103639 261.421793,60.4974131 C261.389817,59.6681599 261.517719,58.8389067 261.549694,58.0096535 L265.77044,55.8727318 C267.177355,58.8389067 268.552295,61.9964478 270.278963,64.8350453 C269.287728,65.7599816 267.305256,66.9081783 266.122168,67.2271219 C266.122168,67.5141711 266.282045,67.5141711 266.409946,67.6417485 C268.10464,67.6098541 269.54353,66.7806009 270.790569,65.7599816 C272.037607,67.6736428 272.932917,69.7467759 274.052054,71.7242258 C274.14798,71.9474863 274.275882,72.1707468 274.403783,72.3940073 C274.56366,72.6172677 274.723536,72.8405282 275.011315,73 Z M258.544011,69.395938 C257.552776,69.4278323 256.785367,68.8856283 256.017959,68.3753186 C255.730181,68.0563751 255.506354,67.7374315 255.634255,67.3228049 C256.305737,66.33408 257.392899,65.2496719 258.320184,64.4204187 C258.575987,64.1971582 259.727099,63.1765389 260.302655,62.6343349 C260.366606,64.3885243 260.398581,66.4616574 259.950927,68.1201638 C259.695124,68.7261565 259.215494,69.3640436 258.544011,69.395938 Z M284.801099,55.9365205 C285.952212,55.8408374 287.071349,54.9796898 288.318388,54.9159011 C288.670116,54.724535 289.213697,54.9477955 289.533451,54.5650632 C289.693327,54.3099084 289.4695,54.1185423 289.341599,53.8952818 C289.021845,53.6720213 288.542215,53.7039157 288.190486,53.73581 C287.039374,54.0866479 285.952212,54.6607463 284.769124,54.8840068 C284.129617,54.8840068 283.809864,54.5969576 283.649987,54.1504366 C283.266283,53.193606 283.42616,51.7902544 283.042455,50.9610012 C282.882579,50.5782689 282.307023,50.4825859 282.083195,50.8653181 C282.05122,52.3324584 282.402949,53.73581 282.882579,55.0115842 C283.42616,55.8408374 284.097642,56.0003092 284.801099,55.9365205 Z M281.443688,69.7148815 C281.667516,69.6510928 281.891343,69.5235154 282.019244,69.2683606 C282.690727,68.1201638 283.138381,66.9400727 283.522086,65.6961929 C283.713938,65.1220945 283.809864,64.5479961 284.001716,64.0057921 C284.769124,64.9626227 285.632458,66.6211291 286.527768,67.7055372 C286.879497,68.1520582 287.263201,68.5666848 287.710856,68.8537339 C288.222461,69.1726775 288.798018,69.3640436 289.4695,69.2364662 C290.588637,68.9813114 291.292095,67.7693259 291.515922,66.7806009 C291.547897,66.5892348 291.579873,66.2065025 291.196169,66.3021856 C290.716538,66.7806009 290.652588,67.4822767 290.077032,67.9287977 C289.661352,68.2477412 288.957894,68.3753186 288.446289,68.1520582 C286.975423,66.9081783 285.952212,65.345355 285.184804,63.7825316 C284.960976,63.4635881 284.481346,63.2084332 284.129617,63.2084332 C284.193568,62.9851728 284.289494,62.6024405 284.321469,62.37918 C285.888261,61.6456099 287.455053,60.8801454 288.925919,59.7957373 C289.277648,59.5405825 289.757278,59.317322 289.94913,58.8708011 C290.013081,58.5837519 289.853204,58.2648083 289.533451,58.3604914 C287.998634,59.3811107 286.431842,60.4017301 284.705173,61.1034059 C285.120853,59.7957373 285.728385,58.5199632 286.911472,57.6907099 C287.295176,57.3079777 286.879497,56.8295624 286.399867,56.9571398 C285.504557,57.4993438 284.897026,58.2648083 284.449371,59.0940615 C284.033691,59.9233147 283.745913,60.7844623 283.49011,61.6775042 C282.147146,62.2197083 280.804181,62.8894897 279.333315,63.0170671 C279.237389,63.1765389 279.173439,63.367905 279.269365,63.4954824 C279.525167,63.8463203 279.940847,63.9738977 280.388502,63.910109 C281.347762,63.6549542 282.275047,63.2084332 283.170357,62.9213841 C282.722702,65.1858832 282.019244,67.3228049 281.091959,69.395938 C281.091959,69.6191984 281.315787,69.7148815 281.443688,69.7148815 Z M295.161112,66.3659743 C297.047657,65.2496719 298.966178,64.1652639 301.0126,63.3997994 C301.204452,63.3041163 301.524205,63.1446445 301.460255,62.825701 C301.332353,62.5386518 301.140501,62.6662292 300.916674,62.5705462 C300.181241,62.7619123 299.413833,63.1127502 298.710375,63.3997994 C299.381857,62.5386518 300.053339,61.5499268 299.989389,60.4017301 C299.829512,59.8276317 299.317906,59.5086881 298.902227,59.2535333 C298.230745,58.9983785 297.431361,58.8070123 296.727903,58.8708011 C296.120372,58.9345898 295.576791,59.1259559 295.097161,59.5405825 C294.585555,60.1465752 294.649506,61.0715115 294.777407,61.7731873 C294.905309,61.9645534 295.03321,62.1240252 295.289013,62.0283421 C295.51284,61.5818212 295.44889,61.0077228 295.640742,60.5293075 C295.800618,60.1146809 296.056421,60.0189978 296.472101,59.9233147 C297.271484,59.763843 298.230745,59.8914204 298.806301,60.4017301 C298.934202,60.4974131 298.998153,60.6887793 298.934202,60.9120397 C298.486547,62.4110744 297.047657,64.1333695 295.51284,64.9626227 C294.905309,64.0695808 294.265802,63.2403276 293.818147,62.2197083 C293.402468,61.294772 293.17864,60.3379414 293.338517,59.2854277 C293.562344,58.9983785 293.65827,58.2967027 293.146665,58.328597 C292.762961,58.2967027 292.411232,58.775118 292.315306,59.0302728 C292.155429,60.0827865 292.28333,61.0396171 292.603084,61.9326591 C293.050739,63.1765389 293.882098,64.2928413 294.713457,65.345355 C294.489629,65.5048267 294.233826,65.6961929 294.041974,65.887559 C293.946048,66.0151364 294.009999,66.1746082 294.105925,66.3659743 C294.425679,66.5892348 294.905309,66.5573404 295.161112,66.3659743 Z M320.938569,68.0563751 C321.290298,67.6098541 321.386224,67.0676501 321.450175,66.5254461 C321.514126,66.0151364 321.514126,65.441038 321.610052,64.9307284 L321.618046,63.1605917 C321.618046,62.5705462 321.610052,61.9805006 321.578076,61.390455 C321.514126,60.2103639 321.386224,59.0940615 320.906594,58.0734422 C320.52289,57.2760833 319.691531,56.701985 318.828197,56.5425132 C319.083999,55.6494713 319.467704,54.7883237 320.075235,54.0228592 L320.331038,53.7039157 C320.618816,53.3211834 321.066471,53.0660286 321.098446,52.5557189 C320.970545,52.3005641 320.746717,52.2686697 320.52289,52.2686697 C320.331038,52.2686697 320.10721,52.3324584 319.915358,52.3324584 C318.508443,53.0022399 317.037577,53.8314931 315.758563,54.5650632 C317.261405,52.9065568 319.083999,50.5782689 319.755482,49.1111287 C319.979309,48.600819 320.04326,47.9948263 319.531654,47.4207279 C318.956098,46.7828408 317.900912,46.9423126 317.29338,47.4207279 C316.749799,47.9948263 316.39807,48.6646077 316.046341,49.3662835 C315.726588,50.0360649 315.43881,50.673952 315.183007,51.216156 C315.119056,51.3437334 315.055106,51.2799447 315.02313,51.2480504 C314.671402,50.9610012 314.415599,50.6101633 314.223747,50.2593254 C313.999919,49.9084875 313.808067,49.5257553 313.552265,49.1749174 C313.10461,48.5689246 312.593004,47.7396714 311.761645,47.7396714 C311.537818,47.8353545 311.282015,48.0905093 311.441892,48.3456641 C312.081399,48.9516569 312.561029,49.6533327 313.040659,50.3550085 C313.264486,50.7058464 313.520289,51.0566843 313.776092,51.4075222 C314.031895,51.7583601 314.287697,52.109198 314.607451,52.4281415 C314.95918,52.6195076 315.342884,52.4281415 315.566711,52.2367754 C315.790539,51.9178318 315.982391,51.5988883 316.110292,51.2799447 C316.557947,50.2912198 316.749799,49.2387061 317.549183,48.4413472 C317.900912,48.0905093 318.156714,47.8672488 318.604369,47.9948263 C318.892147,48.0905093 319.020049,48.4413472 318.892147,48.7602908 C317.421281,51.662677 315.087081,54.3418028 312.369177,56.6381963 C312.2093,56.9252454 312.049423,57.3079777 312.465103,57.5312382 C312.752881,57.6588156 313.008684,57.4993438 313.232511,57.3398721 C314.255722,56.6381963 315.278933,55.9046261 316.302144,55.2348447 C317.261405,54.6288519 318.220665,54.0547536 319.211901,53.6082326 C317.932887,55.808943 317.101528,58.232914 316.717824,60.7844623 C316.653873,60.848251 316.525972,60.9120397 316.430046,60.9758284 C316.302144,61.0396171 316.174243,61.1353002 316.174243,61.3266663 C316.238194,61.5180325 316.366095,61.5499268 316.493996,61.5499268 L316.621898,61.5499268 C316.430046,63.3041163 316.302144,65.0902001 316.493996,66.876284 C316.589922,67.1314388 316.781774,67.3228049 317.101528,67.3228049 L317.261405,67.1314388 C317.29338,67.0676501 317.29338,67.0357558 317.357331,66.971967 C317.453257,65.0264114 317.421281,63.1127502 317.709059,61.294772 C317.964862,61.2309833 318.412517,61.0396171 318.892147,60.8801454 C319.307827,60.752568 319.691531,60.6887793 319.883383,60.6887793 C319.659556,61.1034059 319.307827,61.4542438 318.988073,61.836976 L318.412517,62.4748631 C318.220665,62.6662292 318.060788,62.8894897 317.932887,63.1127502 C317.645109,63.5592711 317.804986,63.8782147 318.092764,64.1652639 L318.572394,64.6436792 C318.732271,64.7712566 318.860172,64.9307284 318.892147,65.0902001 C318.764246,65.441038 318.540418,65.7599816 318.316591,66.0789251 C318.092764,66.3978687 317.868936,66.7168122 317.709059,67.0676501 C317.453257,67.5141711 317.836961,67.7693259 318.220665,67.960692 C318.700295,68.0244807 319.115975,67.8969033 319.467704,67.6736428 C319.819432,67.4822767 320.139186,67.1952275 320.458939,66.9400727 L320.458939,67.0357558 C320.426964,67.2909106 320.363013,67.5460654 320.426964,67.8331146 C320.490915,68.0244807 320.714742,68.2796356 320.938569,68.0563751 Z M310.35473,57.4036608 C310.450656,57.3398721 310.578557,57.1485059 310.642508,56.9571398 C310.674483,56.7657737 310.674483,56.5744076 310.642508,56.3192527 C310.546582,56.0003092 310.386705,55.6175769 310.034976,55.2986334 L307.988554,53.5763382 C307.764727,53.4487608 307.60485,53.2573947 307.444973,53.0979229 C307.253121,52.9065568 307.029294,52.6832963 306.709541,52.4919302 C306.389787,52.4600358 305.910157,52.747085 306.197935,53.1617116 C306.581639,53.7039157 307.093245,54.182331 307.60485,54.5969576 L309.043741,55.71326 C309.203617,55.8408374 309.747198,56.3830414 309.779174,56.5744076 C309.811149,56.701985 309.779174,56.8295624 309.779174,56.9571398 C309.747198,57.0528229 309.747198,57.1804003 309.747198,57.2760833 C309.843124,57.5631325 310.162878,57.5950269 310.35473,57.4036608 Z M317.900912,60.2422583 C318.092764,59.2854277 318.220665,58.328597 318.572394,57.4036608 C319.179925,57.4993438 319.755482,57.8820761 320.075235,58.4242801 C320.299062,58.9026954 320.426964,59.3811107 320.458939,59.8914204 C319.979309,59.763843 319.531654,59.7957373 319.083999,59.8914204 C318.66832,59.9552091 318.284616,60.1146809 317.900912,60.2422583 Z M324.23203,71.1501275 C325.319192,70.5441347 326.246477,69.7467759 327.04586,68.7580509 C327.237713,68.3753186 327.525491,68.0244807 327.717343,67.6736428 C327.94117,67.2909106 328.069072,66.876284 327.973145,66.3978687 L327.909195,66.33408 L327.813269,66.2065025 C327.749318,66.1427138 327.653392,66.0789251 327.525491,66.2065025 C326.949934,67.6098541 325.990674,68.9813114 324.64771,69.8743533 C323.656474,70.5441347 322.697213,70.8949726 321.769928,71.0544444 C320.363013,71.3095992 319.052024,71.0544444 317.709059,70.5441347 C316.81375,70.2251912 315.950415,69.7786702 315.055106,69.3002549 C314.191771,68.8537339 313.328437,68.3753186 312.433127,67.8969033 C311.090163,67.1952275 309.619297,66.4935517 307.956579,66.2702912 C308.660037,65.7599816 309.555346,64.6755735 310.003001,63.7187429 C310.35473,62.9213841 310.35473,62.37918 310.098927,61.6137155 C309.971026,61.3266663 309.747198,61.0715115 309.427445,60.8163567 C309.235593,60.6568849 309.011765,60.4974131 308.787938,60.3698357 L308.148431,59.9871035 C307.732752,59.7319486 307.412998,59.5405825 307.317072,59.4130051 C307.12522,59.1897446 306.805467,59.1259559 306.581639,59.1897446 C306.293861,59.2854277 306.102009,59.5405825 306.389787,59.859526 C306.581639,60.0827865 306.933368,60.2741526 307.285097,60.5293075 L308.404234,61.294772 C308.851889,61.5818212 309.139667,61.9645534 309.235593,62.283497 C309.39547,62.7619123 309.299544,63.367905 308.947815,63.8463203 C308.244357,64.8350453 307.157195,65.9513477 305.814231,66.6530235 L305.718305,66.7487066 C305.590403,66.876284 305.430527,66.971967 305.398551,67.1633332 C305.334601,67.3865936 305.558428,67.5141711 305.686329,67.5779598 L305.878182,67.6736428 C306.613614,67.2590162 307.221146,67.1314388 308.052505,67.1952275 C309.011765,67.2590162 310.003001,67.5779598 310.770409,67.9925864 C312.145349,68.7261565 313.488314,69.6191984 314.895229,70.3846629 C316.238194,71.1182331 317.645109,71.7561202 319.211901,72.011275 C321.066471,72.3302186 322.761164,71.9474863 324.23203,71.1501275 Z M318.66832,67.0676501 C318.636345,67.0357558 318.66832,67.0038614 318.66832,66.971967 C318.66832,66.9400727 318.700295,66.9400727 318.700295,66.9081783 L318.732271,66.876284 L318.796221,66.7487066 C319.211901,66.1108195 319.819432,65.5048267 319.755482,64.6436792 C319.595605,64.1652639 319.115975,63.7506373 318.732271,63.4316937 C318.828197,63.1765389 318.988073,62.9532784 319.211901,62.7300179 C319.435728,62.5067574 319.691531,62.283497 319.915358,62.0283421 C320.011284,61.9326591 320.139186,61.7731873 320.299062,61.6456099 L320.554865,61.3585607 C320.682767,62.9851728 320.586841,64.35663 320.490915,66.0470308 C319.915358,66.4616574 319.339802,66.876284 318.66832,67.0676501 Z M338.498363,70.1295081 C339.777377,70.1614025 340.864539,69.1407831 341.40812,68.0882694 C342.207504,66.5254461 342.655158,64.6436792 342.655158,62.7938066 C342.655158,61.7093986 342.463306,60.5930962 342.143553,59.6043712 C342.015651,59.2535333 341.855775,58.8708011 341.695898,58.5518575 C341.567997,58.2010196 341.440095,57.8820761 341.40812,57.5312382 C341.567997,56.8933511 341.855775,56.255464 342.111577,55.6494713 C342.399356,55.0115842 342.655158,54.3736971 342.84701,53.7039157 C342.974912,53.2255004 343.038863,52.7789794 342.974912,52.3962471 C342.910961,51.9497262 342.655158,51.6307826 342.079602,51.3756278 C341.440095,51.0566843 340.640712,51.0247899 339.905279,51.120473 C337.922807,51.4075222 336.132188,51.9816205 334.341568,52.8427681 C334.341568,53.3849721 334.821199,53.5125495 335.172927,53.5125495 C336.515892,53.0979229 337.76293,52.5876133 339.105895,52.3643528 C339.777377,52.2367754 340.51281,52.0773036 341.152317,52.2367754 C341.376145,52.2686697 341.599972,52.3643528 341.759849,52.5557189 C341.88775,52.7789794 341.855775,52.9065568 341.791824,53.1617116 C341.663923,53.7995987 341.440095,54.3736971 341.152317,54.9477955 C340.896514,55.5218939 340.608736,56.1278866 340.384909,56.701985 C340.320958,56.9571398 340.257007,57.1804003 340.225032,57.4355551 C340.161081,57.6588156 340.193057,57.9458648 340.320958,58.2010196 C340.99244,59.3492164 341.376145,60.752568 341.472071,62.1559195 C341.567997,63.5273768 341.504046,64.898834 341.024416,66.1427138 L340.608736,67.1952275 C340.416884,67.5460654 340.225032,67.8969033 340.001205,68.1839525 C339.617501,68.6623678 339.169846,68.949417 338.530339,69.0132057 C337.826881,69.1088888 337.21935,68.5985791 336.899596,67.9925864 C336.32404,66.876284 336.036262,65.6324042 335.940336,64.3247356 C335.84441,63.1127502 335.876385,61.8688704 335.972311,60.6249905 C335.876385,60.306047 335.460706,60.0827865 335.268853,60.4655188 C335.045026,61.7412929 334.885149,63.1765389 334.9491,64.5798905 C335.013051,66.0151364 335.268853,67.4503824 335.972311,68.6304735 C336.483917,69.5235154 337.443177,70.1295081 338.498363,70.1295081 Z" id="我知道了" fill="#FFFFFF" fill-rule="nonzero"></path>
        <g id="形状-2-拷贝-12备份" transform="translate(229.000000, 31.000000)" fill="#FFFFFF" fill-rule="nonzero">
            <path d="M68.4997828,-6.53699317e-13 C81.3893215,-6.53699317e-13 95.1943103,0.78395979 108.998517,2.09048546 C113.829377,2.54771145 118.315327,3.03761299 122.341612,3.5275671 C123.751225,3.69910145 125.002846,3.85841241 126.082123,4.00142276 C126.460137,4.05151182 126.789681,4.09599639 127.068961,4.13436685 C127.199692,4.15232803 127.297792,4.16596693 127.362416,4.1750432 C130.778758,4.20189285 133.539981,6.99523405 133.539981,10.43712 L133.525425,10.5790897 C132.253077,16.7181455 131.56289,22.9647651 131.464165,29.214446 C131.574357,37.3383941 132.265226,45.4438631 133.53143,53.4681672 L133.539981,53.577216 C133.539981,53.8234837 133.525845,54.0664311 133.498344,54.3052826 L133.628226,54.2064678 L133.538738,55.7063136 C133.476039,56.7571874 133.538696,57.6586272 133.750241,59.4780334 C134.113608,62.6032018 134.119572,63.8159428 133.506214,65.3062102 C132.693638,67.2805182 130.802579,68.6579871 127.493119,69.5567367 C123.468719,70.649642 103.239123,71.4250908 74.9925463,71.8009755 C51.3893215,72.1150699 27.5791118,72.0485208 24.1406154,71.6639605 C22.2387283,71.451254 19.8135953,71.1249885 16.9860624,70.7086459 C16.328011,70.6117505 15.6524899,70.5105975 14.9618128,70.4056326 C12.7590013,70.0708629 10.4982581,69.7122423 8.30354709,69.3536261 C7.53540453,69.2281115 6.8303442,69.1115563 6.20387791,69.0069443 C5.98455207,68.9703197 5.79069576,68.9378004 5.62424837,68.9097596 C5.45573076,68.8813236 5.45573076,68.8813236 5.42014744,68.8752822 L5.42014744,68.8752822 L4.90875549,68.7884566 L3.46600048,56.4614021 C3.03270303,55.6231219 2.78239271,54.6738697 2.7682974,53.6671728 C1.03113929,46.8159986 0.101980954,39.7828603 0,32.702976 C0,32.1397738 0.00741867439,31.5680079 0.0220531089,30.9880947 C0.131091936,26.6672545 0.629824437,22.0487791 1.39307656,17.4000512 C1.69749671,15.5459241 2.0236819,13.814219 2.34999506,12.2518918 C2.46432973,11.7044785 2.57057223,11.2171044 2.66601969,10.7956498 C2.70993844,10.6017235 2.74440823,10.4531062 2.76822599,10.3524175 C2.81308684,6.94932891 5.55726856,4.20136215 8.94580576,4.17503872 C9.01116541,4.16596559 9.11078181,4.1522776 9.24378417,4.13421916 C9.52636142,4.09585212 9.85979906,4.05137093 10.2422813,4.00128523 C11.3343323,3.85828215 12.6007612,3.69897828 14.0270433,3.52745085 C18.1009648,3.03751322 22.6398902,2.54762695 27.5276624,2.09041485 C41.4851043,0.784807509 55.4427986,0.00102104867 68.4748338,-6.53699317e-13 L68.4997828,-6.53699317e-13 Z M45.1153562,62.7976175 L46.3095044,70.608203 C50.3866977,70.6078365 54.8200778,70.5929462 59.4331809,70.5629283 L58.312551,63.2303612 C57.1961773,63.2083135 56.0799143,63.1825757 54.9637799,63.1531491 L56.037231,70.1708054 L54.6694887,70.3824107 L53.5575752,63.1141212 C52.4037609,63.0804949 51.2500924,63.0429262 50.0965894,63.0014164 L51.193812,70.1708054 L49.8260697,70.3824107 L48.6883423,62.9487782 C47.4971543,62.9025942 46.3061516,62.8522069 45.1153562,62.7976175 Z M40.2344695,62.5502683 L41.4648499,70.6013055 C42.5772836,70.6047123 43.7273817,70.6068654 44.9105515,70.6077492 L43.7051795,62.7310022 C42.5480654,62.6747254 41.3911554,62.6144804 40.2344695,62.5502683 Z M5.09362551,58.4585112 L6.16183008,67.589173 C6.24656209,67.603373 6.33619222,67.6183676 6.43056444,67.6341265 L6.81482708,67.698149 C7.33941421,67.7853588 7.91228633,67.8798271 8.52549058,67.9800248 C10.7154878,68.3378708 12.9713208,68.6957124 15.1685954,69.0296407 C15.8572296,69.1342951 16.5306586,69.2351348 17.1865491,69.331712 C19.9996304,69.7459267 22.4103184,70.0702489 24.2935745,70.2808716 C25.8461903,70.4545157 31.7921126,70.5620072 40.0646534,70.596273 L38.8224491,62.4699046 C37.6991529,62.4044003 36.576076,62.3351541 35.4532367,62.2621669 L36.6635551,70.1708054 L35.2958127,70.3824107 L34.0384536,62.1682145 C32.8779902,62.0895198 31.7177891,62.0068284 30.5578708,61.9201416 L31.8201361,70.1708054 L30.4523937,70.3824107 L29.1418621,61.81232 C27.7810737,61.7067849 26.4206861,61.5957493 25.0607323,61.4792151 L26.2848001,69.4749974 L24.9170577,69.6866027 L23.6427314,61.3557004 C22.4779327,61.252592 21.3134608,61.1454488 20.1493364,61.0342718 L21.4413811,69.4749974 L20.0736388,69.6866027 L18.7283252,60.8965411 C17.5982079,60.7853978 16.4684263,60.6704517 15.3389993,60.551704 L16.5979621,68.7791894 L15.2302198,68.9907947 L13.9150523,60.3999559 C12.8193666,60.2816241 11.7240224,60.1597129 10.629037,60.0342236 L11.7545431,67.3875734 L10.3868008,67.5991787 L9.20322348,59.8687738 C9.11991307,59.8589869 9.03660478,59.8491794 8.95329862,59.8393511 C7.49250437,59.8297357 6.1511128,59.3143135 5.09362551,58.4585112 Z M59.7156081,63.256127 L60.8325454,70.5533958 C61.9698467,70.5453028 63.116846,70.5363002 64.2709574,70.5263793 L63.166,63.301 L62.5910554,63.2967851 C61.6325046,63.2859524 60.6740184,63.2723994 59.7156081,63.256127 Z M75.0359773,63.2034997 L76.1028239,70.1708054 L74.7350816,70.3824107 L73.6397418,63.2324783 C72.4878418,63.2547553 71.3424233,63.2728379 70.2041053,63.2865959 L71.259405,70.1708054 L69.8916626,70.3824107 L68.808,63.3 L67.5746707,63.3106633 C66.7229168,63.3158872 65.8769885,63.3185136 65.0357427,63.3185136 L64.568,63.314 L65.6703805,70.5139294 C68.5127996,70.4877881 71.3916967,70.4561057 74.2689694,70.4187517 L74.9742358,70.4094813 C76.5314916,70.3887585 78.0650017,70.3667778 79.5732508,70.3435635 L78.4653461,63.1160154 C77.3165938,63.1490964 76.1732749,63.1782991 75.0359773,63.2034997 Z M79.8596706,63.0740487 L80.9462429,70.1708054 L79.8560631,70.3391916 C81.3992356,70.3152316 82.9157526,70.2899763 84.4039811,70.2634518 L83.2850846,62.955937 C82.1386038,62.9989509 80.9966113,63.038361 79.8596706,63.0740487 Z M84.6764871,62.9020591 L85.7896619,70.1708054 L85.2960197,70.247339 C86.394548,70.2272308 87.4772426,70.2064232 88.5434313,70.184927 L87.4104261,62.7866315 C86.4966381,62.8272888 85.5852324,62.8657842 84.6764871,62.9020591 Z M88.8001285,62.7232243 L89.9394458,70.1561888 C91.3435954,70.1266792 92.7177874,70.09595 94.0604213,70.0640268 L92.9045879,62.5180061 C91.5320807,62.5910071 90.163622,62.6594774 88.8001285,62.7232243 Z M107.643832,61.5771347 L106.048,61.692 L107.239089,69.4749974 L105.871346,69.6866027 L104.663103,61.7916786 C103.067953,61.9033282 101.474715,62.0097167 99.8847797,62.1105518 L101.011836,69.4749974 L99.6440935,69.6866027 L98.4982979,62.1971223 C97.093704,62.2834376 95.6920109,62.3653411 94.2941815,62.4426302 L95.4552771,70.0301503 C101.790827,69.8729904 107.386956,69.688547 112.066866,69.4796416 L110.820661,61.3354975 C109.777564,61.4170627 108.718229,61.4976907 107.643832,61.5771347 Z M112.205196,61.2259327 L113.458551,69.4155074 C115.197116,69.3327636 116.795804,69.2463994 118.244369,69.1565784 L116.972037,60.8284172 C115.428483,60.9623497 113.837967,61.0951839 112.205196,61.2259327 Z M121.928465,60.3800503 C120.77012,60.4892559 119.577704,60.5984593 118.353702,60.7071399 L119.632843,69.0662721 C121.589439,68.9326114 123.222652,68.7917827 124.50116,68.6442857 L123.219326,60.2569476 C122.803757,60.2970465 122.373333,60.3381094 121.928465,60.3800503 Z M127.351124,59.8393715 C127.282037,59.8468618 127.171382,59.8587302 127.020333,59.8747308 C126.718838,59.906668 126.36328,59.9437007 125.955686,59.9854043 C125.527391,60.0292258 125.074209,60.0748868 124.596947,60.1222179 L125.87277,68.462627 C126.398251,68.3813071 126.81968,68.2981554 127.132337,68.2132474 C127.994793,67.9790304 128.736634,67.7167083 129.370134,67.4242814 L128.199651,59.7764556 C127.92228,59.8162296 127.639018,59.8376235 127.351124,59.8393715 Z M132.166741,57.4986401 L132.085603,57.5997298 C131.412281,58.4068126 130.540273,59.0406161 129.545288,59.4250069 L130.658223,66.6858219 C131.423041,66.1344147 131.928785,65.4999773 132.227572,64.7740171 C132.715204,63.5892234 132.709914,62.5134757 132.37577,59.6396475 C132.273873,58.7632717 132.204793,58.0868631 132.166741,57.4986401 Z M68.4997828,1.391616 L68.4749415,1.391616 C55.4907154,1.3926333 41.5739181,2.17412321 27.6558318,3.47604915 C22.7806335,3.93208506 18.253684,4.42067878 14.1913644,4.90922115 C12.769962,5.08016173 11.5083168,5.23886386 10.4209712,5.38125078 C10.0406646,5.43105157 9.709383,5.47524514 9.42894404,5.51332185 C9.26105683,5.5361168 9.14764567,5.55177589 9.09052807,5.55978949 L8.99492097,5.566464 C6.31997453,5.566464 4.15150199,7.74713097 4.15150199,10.43712 L4.15150199,10.5204871 L4.13191785,10.6014946 C4.1110753,10.6877073 4.07130291,10.8574029 4.01530382,11.1046706 C3.92155522,11.5186238 3.81697927,11.9983528 3.70427867,12.5379425 C3.38191964,14.081338 3.05943265,15.7934096 2.75842543,17.6267496 C2.00479046,22.2169024 1.51267517,26.7740997 1.40544171,31.0233991 C1.39110009,31.5917091 1.38376131,32.1517155 1.38376131,32.6928909 C1.48449902,39.6815028 2.40626831,46.6336494 4.12988768,53.4046602 L4.15150199,53.4895691 L4.15150199,53.577216 C4.15150199,54.3694352 4.33958241,55.1174788 4.67328959,55.7786544 L4.78669636,55.8064386 C5.22188305,55.9137841 5.83353599,56.0561123 6.65062626,56.2376751 C8.99328157,56.7582285 12.5090187,57.4877767 17.4313984,58.4609409 C24.9932236,59.9559288 39.2856439,60.8620324 54.5476981,61.1422083 L54.653397,61.1253014 L54.6566887,61.1441982 C58.278919,61.209967 61.9549624,61.2404946 65.6078716,61.2352862 L67.113109,61.2311099 C67.8156852,61.2282101 68.5561594,61.220893 69.3330437,61.209296 L69.875571,61.1253014 L69.8854383,61.2004356 C73.9140096,61.1314409 78.8712022,60.9530657 84.562583,60.6832797 C87.5811489,60.5401919 90.7493799,60.3739719 94.018268,60.1891968 C98.0580116,59.9608487 102.044002,59.7161809 105.801643,59.4715153 C107.116772,59.3858853 108.309382,59.3063746 109.357656,59.2350233 C109.724491,59.2100545 110.047063,59.1878904 110.322644,59.1687861 C110.600834,59.1494352 110.600834,59.1494352 110.633008,59.1476398 L110.633008,59.1476398 L129.817477,57.0806019 L131.686635,55.671854 C131.980539,55.0523282 132.14812,54.3605557 132.155866,53.630237 C130.884885,45.5583535 130.1913,37.4051149 130.080482,29.2129178 C130.180226,22.8794465 130.875054,16.5696901 132.155866,10.3678314 C132.118811,7.70978427 129.964669,5.566464 127.312728,5.566464 L127.216004,5.55963196 C127.159582,5.55162166 127.047528,5.53596586 126.881639,5.51317416 C126.604522,5.47510087 126.277158,5.43091069 125.901345,5.38111325 C124.826827,5.2387336 123.580046,5.08003856 122.175369,4.90910491 C118.160821,4.42057901 113.686986,3.93200056 108.868847,3.47597855 C95.1044865,2.17322421 81.3409074,1.391616 68.4997828,1.391616 Z M10.3881245,58.4584812 L10.41,58.606 L11.4994772,58.7328417 C11.6597755,58.7509816 11.8200813,58.7690447 11.9803948,58.7870309 C11.4224147,58.6721625 10.8919101,58.5629772 10.3881245,58.4584812 Z M6.2152542,57.5660558 L6.26606582,57.6017934 C7.04314915,58.1356655 7.98277908,58.447872 8.99492097,58.447872 L9.07559556,58.4526178 L9.408,58.49 L10.0608946,58.3904843 C8.71686216,58.1106881 7.57097314,57.8656979 6.60879934,57.6533659 L6.35205094,57.5965138 C6.30581253,57.5862393 6.26021534,57.5760869 6.2152542,57.5660558 Z" id="形状结合"></path>
        </g>
    </g>
</svg>