<?xml version="1.0" encoding="UTF-8"?>
<svg width="154px" height="135px" viewBox="0 0 154 135" version="1.1" xmlns="http://www.w3.org/2000/svg" xmlns:xlink="http://www.w3.org/1999/xlink">
    <!-- Generator: Sketch 55.2 (78181) - https://sketchapp.com -->
    <title>img_guide_novice_normal</title>
    <desc>Created with Sketch.</desc>
    <defs>
        <path d="M11.3956479,16.2212665 C11.3956479,7.26250837 18.6581562,-2.13162821e-14 27.6169143,-2.13162821e-14 C36.5756724,-2.13162821e-14 43.8381808,7.26250837 43.8381808,16.2212665 L150.897628,16.2212665 C152.554483,16.2212665 153.897628,17.5644122 153.897628,19.2212665 L153.897628,104.221266 C153.897628,105.878121 152.554483,107.221266 150.897628,107.221266 L3,107.221266 C1.34314575,107.221266 -1.40079486e-14,105.878121 -1.42108547e-14,104.221266 L-1.42108547e-14,19.2212665 C-1.44137608e-14,17.5644122 1.34314575,16.2212665 3,16.2212665 L11.3956479,16.2212665 Z" id="path-1"></path>
        <filter x="-9.4%" y="-11.7%" width="118.8%" height="127.0%" filterUnits="objectBoundingBox" id="filter-2">
            <feOffset dx="0" dy="2" in="SourceAlpha" result="shadowOffsetOuter1"></feOffset>
            <feGaussianBlur stdDeviation="4.5" in="shadowOffsetOuter1" result="shadowBlurOuter1"></feGaussianBlur>
            <feColorMatrix values="0 0 0 0 0.35891215   0 0 0 0 0.835286458   0 0 0 0 0.519323907  0 0 0 0.500327797 0" type="matrix" in="shadowBlurOuter1"></feColorMatrix>
        </filter>
    </defs>
    <g id="img_guide_novice_normal" stroke="none" stroke-width="1" fill="none" fill-rule="evenodd" opacity="0.699999988">
        <g>
            <g id="形状结合备份">
                <use fill="black" fill-opacity="1" filter="url(#filter-2)" xlink:href="#path-1"></use>
                <use fill="#FFFFFF" fill-rule="evenodd" xlink:href="#path-1"></use>
            </g>
            <g id="ico/个人主页/小白版" transform="translate(17.244169, 5.900000)">
                <g id="资源-4" transform="translate(0.000000, 2.000000)">
                    <path d="M19.4085106,8.16170213 C19.4085106,12.5489362 14.8042553,14.412766 9.50638298,14.412766 C4.20851064,14.412766 0.212765957,12.5489362 0.212765957,8.16170213 C0.212765957,3.77446809 4.5106383,0.212765957 9.81276596,0.212765957 C15.1148936,0.212765957 19.4085106,3.77021277 19.4085106,8.16170213 Z" id="路径" fill="#FFFFFF" fill-rule="nonzero"></path>
                    <path d="M9.50638298,14.6255319 C3.46382979,14.6255319 0,12.2680851 0,8.16170213 C0,3.65957447 4.4,0 9.81276596,0 C15.2255319,0 19.6212766,3.65957447 19.6212766,8.16170213 C19.6212766,12.9276596 14.3957447,14.6255319 9.50638298,14.6255319 Z M9.81276596,0.425531915 C4.63829787,0.425531915 0.425531915,3.89361702 0.425531915,8.16170213 C0.425531915,13.6170213 6.77446809,14.2 9.50638298,14.2 C15.5744681,14.2 19.1957447,11.9404255 19.1957447,8.16170213 C19.1957447,3.89361702 14.987234,0.425531915 9.81276596,0.425531915 Z" id="形状" fill="#000000" fill-rule="nonzero"></path>
                    <path d="M13.8425532,6.25106383 C13.2580662,6.25031891 12.7409309,6.62955146 12.5659574,7.18723404 L7.03404255,7.18723404 C6.82544262,6.56413447 6.1959197,6.18411299 5.54738312,6.28978852 C4.89884655,6.39546404 4.42252961,6.95567616 4.42252961,7.61276596 C4.42252961,8.26985576 4.89884655,8.83006787 5.54738312,8.9357434 C6.1959197,9.04141893 6.82544262,8.66139744 7.03404255,8.03829787 L12.5659574,8.03829787 C12.8002654,8.67338507 13.4713185,9.03410248 14.1302848,8.87918523 C14.7892512,8.72426797 15.2292933,8.10234169 15.1560903,7.42938012 C15.0828874,6.75641856 14.5194163,6.24365181 13.8425532,6.23404255 L13.8425532,6.25106383 Z" id="路径" fill="#000000" fill-rule="nonzero"></path>
                </g>
            </g>
            <circle id="椭圆形备份-7" fill="#E4F3EA" cx="92.5928728" cy="55.5" r="8"></circle>
            <circle id="椭圆形备份-8" fill="#E4F3EA" cx="61.5928728" cy="55.5" r="8"></circle>
            <rect id="矩形备份-12" fill="#E4F3EA" x="58.5928728" y="28.5" width="36" height="9" rx="4.5"></rect>
            <rect id="矩形备份-7" fill="#E4F3EA" x="107.592873" y="47.5" width="36" height="16" rx="8"></rect>
            <rect id="矩形备份-9" fill="#A4DFB8" x="10.5928728" y="76.5" width="40" height="21" rx="2"></rect>
            <rect id="矩形备份-10" fill="#A4DFB8" x="56.5928728" y="76.5" width="40" height="21" rx="2"></rect>
            <rect id="矩形备份-11" fill="#A4DFB8" x="102.592873" y="76.5" width="40" height="21" rx="2"></rect>
            <rect id="矩形备份-8" fill="#E4F3EA" x="10.5928728" y="47.5" width="36" height="16" rx="8"></rect>
        </g>
    </g>
</svg>