<?xml version="1.0" encoding="UTF-8"?>
<svg width="375px" height="252px" viewBox="0 0 375 252" version="1.1" xmlns="http://www.w3.org/2000/svg" xmlns:xlink="http://www.w3.org/1999/xlink">
    <title>img_detail_1st_into</title>
    <defs>
        <linearGradient x1="50%" y1="0%" x2="50%" y2="100%" id="linearGradient-1">
            <stop stop-color="#5078FF" offset="0%"></stop>
            <stop stop-color="#5078FF" stop-opacity="0" offset="100%"></stop>
        </linearGradient>
    </defs>
    <g id="img_detail_1st_into" stroke="none" stroke-width="1" fill="none" fill-rule="evenodd">
        <g id="编组-2" transform="translate(119.000000, 25.000000)" fill-rule="nonzero">
            <path d="M30.9320001,166.72 L30.9320001,165.88 L25.4600001,165.88 L25.4600001,160.744 L29.9120001,160.744 L29.9120001,159.904 L25.4600001,159.904 L25.4600001,156.196 L24.5720001,156.196 L24.5720001,165.88 L20.2520001,165.88 L20.2520001,166.72 L30.9320001,166.72 Z M37.9300001,167.224 L37.9300001,160.408 C39.0100001,160.984 40.3540001,161.8 41.9500001,162.856 L42.4660001,162.088 C40.9300001,161.104 39.4180001,160.24 37.9300001,159.496 L37.9300001,157.684 L43.1380001,157.684 L43.1380001,156.832 L32.4700001,156.832 L32.4700001,157.684 L37.0540001,157.684 L37.0540001,167.224 L37.9300001,167.224 Z M47.1120001,158.872 L47.7000001,158.284 C47.1120001,157.672 46.3920001,157.06 45.5280001,156.436 L44.9400001,156.988 C45.8640001,157.66 46.5840001,158.284 47.1120001,158.872 Z M55.1760001,161.86 L55.1760001,159.856 L54.3240001,159.856 L54.3240001,156.628 L48.7200001,156.628 L48.7200001,159.856 L47.7720001,159.856 L47.7720001,161.848 L48.6000001,161.848 L48.6000001,160.6 L54.3600001,160.6 L54.3600001,161.86 L55.1760001,161.86 Z M53.5080001,159.856 L52.0080001,159.856 L52.0080001,158.284 L49.5360001,158.284 L49.5360001,157.384 L53.5080001,157.384 L53.5080001,159.856 Z M51.2760001,159.856 L49.5360001,159.856 L49.5360001,158.944 L51.2760001,158.944 L51.2760001,159.856 Z M46.7880001,161.728 L47.3640001,161.14 C46.8360001,160.54 46.1880001,159.952 45.4080001,159.364 L44.8200001,159.916 C45.6600001,160.564 46.3080001,161.164 46.7880001,161.728 Z M49.7040001,167.2 L49.7040001,165.28 L53.3280001,165.28 L53.3280001,166.084 C53.3280001,166.312 53.1960001,166.432 52.9320001,166.432 L51.7560001,166.408 L51.9720001,167.176 L53.1840001,167.176 C53.8080001,167.176 54.1320001,166.864 54.1320001,166.252 L54.1320001,161.38 L48.8760001,161.38 L48.8760001,167.2 L49.7040001,167.2 Z M53.3280001,163 L49.7040001,163 L49.7040001,162.112 L53.3280001,162.112 L53.3280001,163 Z M45.6360001,167.164 C46.2600001,165.892 46.8240001,164.524 47.3280001,163.072 L46.5720001,162.784 C46.0920001,164.152 45.5280001,165.496 44.8680001,166.816 L45.6360001,167.164 Z M53.3280001,164.596 L49.7040001,164.596 L49.7040001,163.684 L53.3280001,163.684 L53.3280001,164.596 Z M57.698,167.932 C58.202,167.8 58.622,167.536 58.934,167.152 C59.246,166.744 59.402,166.276 59.402,165.748 C59.402,165.4 59.318,165.124 59.162,164.908 C58.994,164.68 58.766,164.572 58.502,164.572 C58.262,164.572 58.082,164.632 57.938,164.776 C57.794,164.908 57.722,165.088 57.722,165.316 C57.722,165.52 57.794,165.7 57.938,165.844 C58.082,165.988 58.25,166.06 58.454,166.06 C58.574,166.06 58.67,166.036 58.718,166.012 C58.718,166.3 58.634,166.564 58.454,166.816 C58.262,167.056 58.01,167.236 57.698,167.344 L57.698,167.932 Z M70.288,165.364 C71.656,164.896 72.784,164.368 73.696,163.792 L73.48,163.012 C72.784,163.42 72.088,163.768 71.392,164.056 L71.392,160.264 L74.044,159.736 L73.9,158.896 L71.392,159.4 L71.392,156.364 L70.504,156.364 L70.504,159.58 L68.92,159.892 L69.052,160.732 L70.504,160.444 L70.504,163.912 C70.504,164.2 70.348,164.404 70.036,164.524 L70.288,165.364 Z M72.772,167.284 C75.244,165.544 76.504,162.796 76.552,159.04 L76.552,157.816 L78.76,157.816 C78.736,161.44 78.688,163.6 78.616,164.32 C78.496,165.52 78.052,166.132 77.296,166.132 C76.912,166.132 76.444,166.108 75.916,166.084 L76.132,166.876 C76.732,166.9 77.164,166.924 77.428,166.924 C78.628,166.924 79.312,166.168 79.456,164.656 C79.564,163.684 79.624,161.128 79.624,156.988 L73.36,156.988 L73.36,157.816 L75.7,157.816 L75.7,159.04 C75.664,162.532 74.452,165.064 72.064,166.648 L72.772,167.284 Z M91.914,167.248 L92.31,166.432 C90.894,165.736 89.862,164.788 89.226,163.564 L92.25,163.564 L92.25,162.772 L91.494,162.772 L91.494,159.508 L89.37,159.508 C89.73,159.016 90.09,158.416 90.438,157.72 L90.438,157.096 L87.894,157.096 C88.038,156.82 88.158,156.532 88.266,156.232 L87.426,156.124 C86.994,157.264 86.178,158.236 84.978,159.028 L85.482,159.7 C86.274,159.16 86.934,158.536 87.438,157.84 L89.526,157.84 C89.19,158.476 88.842,159.028 88.494,159.508 L85.758,159.508 L85.758,162.772 L84.906,162.772 L84.906,163.564 L87.702,163.564 C87.222,164.764 86.166,165.748 84.534,166.516 L85.098,167.236 C86.874,166.3 88.014,165.136 88.518,163.744 C89.19,165.184 90.33,166.36 91.914,167.248 Z M82.614,167.068 C83.31,167.068 83.658,166.708 83.658,166 L83.658,162.532 C84.09,162.34 84.51,162.124 84.93,161.908 L84.93,161.032 C84.51,161.272 84.09,161.488 83.658,161.68 L83.658,159.232 L84.882,159.232 L84.882,158.404 L83.658,158.404 L83.658,156.208 L82.794,156.208 L82.794,158.404 L81.366,158.404 L81.366,159.232 L82.794,159.232 L82.794,162.028 C82.254,162.232 81.702,162.4 81.138,162.544 L81.354,163.408 C81.834,163.252 82.314,163.084 82.794,162.892 L82.794,165.784 C82.794,166.12 82.626,166.3 82.314,166.3 C82.026,166.3 81.726,166.276 81.414,166.24 L81.594,167.068 L82.614,167.068 Z M87.942,162.772 L86.526,162.772 L86.526,160.264 L88.194,160.264 C88.17,161.236 88.086,162.076 87.942,162.772 Z M90.726,162.772 L88.77,162.772 C88.89,162.1 88.962,161.26 88.986,160.264 L90.726,160.264 L90.726,162.772 Z M102.716,166.864 C103.148,166.852 103.484,166.72 103.724,166.48 C103.976,166.192 104.156,165.34 104.264,163.948 L103.436,163.684 C103.388,164.908 103.256,165.616 103.064,165.82 C102.92,165.964 102.728,166.036 102.5,166.036 L100.7,166.036 C100.34,166.036 100.172,165.856 100.172,165.508 L100.172,160.96 C101.42,160.624 102.74,160.12 104.12,159.436 L103.604,158.728 C102.488,159.34 101.348,159.808 100.172,160.144 L100.172,156.34 L99.2959999,156.34 L99.2959999,165.664 C99.2959999,166.456 99.6799999,166.864 100.448,166.864 L102.716,166.864 Z M94.4239999,167.02 C95.9359999,166.684 97.3639999,166.312 98.6839999,165.892 L98.4559999,165.076 C97.4119999,165.424 96.3679999,165.724 95.3119999,165.964 L95.3119999,160.588 L98.3959999,160.588 L98.3959999,159.748 L95.3119999,159.748 L95.3119999,156.4 L94.4479999,156.4 L94.4479999,165.7 C94.4479999,165.928 94.3519999,166.096 94.1599999,166.216 L94.4239999,167.02 Z M108.85,165.328 L108.85,163.216 L113.65,163.216 L113.65,165.328 L114.49,165.328 L114.49,163.024 C114.982,163.264 115.558,163.492 116.206,163.696 L116.554,162.964 C115.258,162.652 114.274,162.244 113.614,161.716 L116.29,161.716 L116.29,161.02 L112.99,161.02 L112.99,160.3 L114.55,160.3 L114.55,159.664 L112.99,159.664 L112.99,158.944 L114.778,158.944 L114.778,158.284 L112.99,158.284 L112.99,157.612 L115.222,157.612 L115.222,158.824 L116.062,158.824 L116.062,156.88 L111.694,156.88 C111.55,156.568 111.394,156.304 111.25,156.064 L110.338,156.22 C110.494,156.412 110.65,156.64 110.794,156.88 L106.318,156.88 L106.318,158.824 L107.158,158.824 L107.158,157.612 L109.378,157.612 L109.378,158.284 L107.602,158.284 L107.602,158.944 L109.378,158.944 L109.378,159.664 L107.842,159.664 L107.842,160.3 L109.378,160.3 L109.378,161.02 L106.114,161.02 L106.114,161.716 L108.718,161.716 C108.07,162.22 107.086,162.652 105.79,163 L106.234,163.72 C106.894,163.48 107.482,163.228 108.01,162.952 L108.01,165.328 L108.85,165.328 Z M112.15,158.284 L110.23,158.284 L110.23,157.612 L112.15,157.612 L112.15,158.284 Z M112.15,159.664 L110.23,159.664 L110.23,158.944 L112.15,158.944 L112.15,159.664 Z M112.15,161.02 L110.23,161.02 L110.23,160.3 L112.15,160.3 L112.15,161.02 Z M113.638,162.52 L108.706,162.52 C109.054,162.268 109.354,162.004 109.618,161.716 L112.726,161.716 C112.966,161.992 113.266,162.256 113.638,162.52 Z M106.99,167.26 C108.862,167.116 110.062,166.768 110.59,166.228 C111.07,165.796 111.382,164.944 111.526,163.672 L110.722,163.6 C110.65,164.608 110.374,165.316 109.894,165.736 C109.366,166.18 108.298,166.444 106.666,166.528 L106.99,167.26 Z M115.162,167.284 L115.594,166.6 C114.502,166.048 113.29,165.568 111.97,165.172 L111.538,165.796 C112.774,166.156 113.986,166.66 115.162,167.284 Z M37.0470001,185.852 L37.0470001,185.012 L33.1470001,185.012 L33.1470001,181.352 L36.0750001,181.352 L36.0750001,180.524 L29.9310001,180.524 C30.2910001,179.684 30.6150001,178.772 30.8790001,177.776 L37.0350001,177.776 L37.0350001,176.936 L31.0830001,176.936 C31.2030001,176.408 31.2990001,175.844 31.3950001,175.256 L30.5310001,175.148 C30.4350001,175.76 30.3270001,176.36 30.1950001,176.936 L26.5590001,176.936 L26.5590001,177.776 L29.9910001,177.776 C29.2470001,180.5 27.9990001,182.612 26.2470001,184.1 L26.6910001,184.892 C27.8190001,183.992 28.7670001,182.816 29.5350001,181.352 L32.2710001,181.352 L32.2710001,185.012 L28.2990001,185.012 L28.2990001,185.852 L37.0470001,185.852 Z M40.9970001,177.872 L41.5850001,177.284 C40.9970001,176.672 40.2770001,176.06 39.4130001,175.436 L38.8250001,175.988 C39.7490001,176.66 40.4690001,177.284 40.9970001,177.872 Z M49.0610001,180.86 L49.0610001,178.856 L48.2090001,178.856 L48.2090001,175.628 L42.6050001,175.628 L42.6050001,178.856 L41.6570001,178.856 L41.6570001,180.848 L42.4850001,180.848 L42.4850001,179.6 L48.2450001,179.6 L48.2450001,180.86 L49.0610001,180.86 Z M47.3930001,178.856 L45.8930001,178.856 L45.8930001,177.284 L43.4210001,177.284 L43.4210001,176.384 L47.3930001,176.384 L47.3930001,178.856 Z M45.1610001,178.856 L43.4210001,178.856 L43.4210001,177.944 L45.1610001,177.944 L45.1610001,178.856 Z M40.6730001,180.728 L41.2490001,180.14 C40.7210001,179.54 40.0730001,178.952 39.2930001,178.364 L38.7050001,178.916 C39.5450001,179.564 40.1930001,180.164 40.6730001,180.728 Z M43.5890001,186.2 L43.5890001,184.28 L47.2130001,184.28 L47.2130001,185.084 C47.2130001,185.312 47.0810001,185.432 46.8170001,185.432 L45.6410001,185.408 L45.8570001,186.176 L47.0690001,186.176 C47.6930001,186.176 48.0170001,185.864 48.0170001,185.252 L48.0170001,180.38 L42.7610001,180.38 L42.7610001,186.2 L43.5890001,186.2 Z M47.2130001,182 L43.5890001,182 L43.5890001,181.112 L47.2130001,181.112 L47.2130001,182 Z M39.5210001,186.164 C40.1450001,184.892 40.7090001,183.524 41.2130001,182.072 L40.4570001,181.784 C39.9770001,183.152 39.4130001,184.496 38.7530001,185.816 L39.5210001,186.164 Z M47.2130001,183.596 L43.5890001,183.596 L43.5890001,182.684 L47.2130001,182.684 L47.2130001,183.596 Z M59.539,184.544 L59.539,181.1 L61.447,181.1 L61.447,180.284 L59.539,180.284 L59.539,177.896 L61.063,177.896 L61.063,177.092 L59.539,177.092 L59.539,175.196 L58.699,175.196 L58.699,177.092 L56.803,177.092 L56.803,175.184 L55.975,175.184 L55.975,177.092 L54.559,177.092 L54.559,177.896 L55.975,177.896 L55.975,178.844 C55.975,179.348 55.939,179.828 55.879,180.284 L54.139,180.284 L54.139,181.1 L55.723,181.1 C55.459,182.228 54.943,183.068 54.187,183.608 L54.703,184.304 C55.627,183.608 56.251,182.54 56.563,181.1 L58.699,181.1 L58.699,184.544 L59.539,184.544 Z M53.107,177.86 L53.731,177.248 C53.179,176.624 52.495,176.012 51.691,175.388 L51.103,175.952 C51.955,176.636 52.627,177.272 53.107,177.86 Z M58.699,180.284 L56.707,180.284 C56.767,179.78 56.803,179.228 56.803,178.652 L56.803,177.896 L58.699,177.896 L58.699,180.284 Z M51.559,186.224 C52.219,185.12 52.687,184.568 52.975,184.568 C53.119,184.568 53.275,184.664 53.431,184.868 C53.803,185.3 54.223,185.6 54.691,185.744 C55.171,185.876 55.783,185.948 56.551,185.96 C57.307,185.972 58.015,185.984 58.663,185.984 L61.411,185.984 L61.615,185.12 C61.303,185.144 60.847,185.156 60.271,185.168 C59.683,185.18 59.107,185.192 58.543,185.192 C57.619,185.192 56.839,185.18 56.215,185.168 C55.519,185.144 54.979,185.048 54.619,184.88 C54.283,184.724 53.983,184.472 53.695,184.124 C53.599,184.016 53.503,183.92 53.407,183.848 L53.407,179.36 L50.887,179.36 L50.887,180.152 L52.603,180.152 L52.603,183.8 C52.111,184.016 51.547,184.628 50.911,185.636 L51.559,186.224 Z M63.369,186.032 C65.889,184.4 67.545,182.048 68.337,178.988 C68.397,179.132 68.457,179.3 68.529,179.492 C69.765,182.66 71.349,184.844 73.293,186.02 L73.833,185.324 C71.937,184.136 70.437,182.108 69.309,179.24 C68.565,177.296 67.665,175.94 66.597,175.196 L65.877,175.652 C66.645,176.204 67.305,176.972 67.857,177.98 C67.089,181.172 65.421,183.62 62.853,185.3 L63.369,186.032 Z M79.739,186.224 C80.651,185.804 81.299,185.228 81.695,184.484 C82.103,183.668 82.319,182.6 82.343,181.256 L82.343,177.332 L81.599,177.332 L81.599,181.256 C81.599,181.364 81.587,181.484 81.587,181.604 C81.263,181.784 80.927,181.964 80.591,182.132 L80.591,176.888 C81.455,176.588 82.139,176.252 82.643,175.892 L82.187,175.232 C81.623,175.64 80.843,176.012 79.835,176.336 L79.835,182 C79.835,182.288 79.739,182.492 79.559,182.6 L79.787,183.344 C80.411,183.044 80.987,182.744 81.515,182.456 C81.431,183.032 81.299,183.536 81.107,183.968 C80.759,184.628 80.171,185.156 79.331,185.564 L79.739,186.224 Z M78.827,186.152 L78.827,183.824 L79.307,183.656 L79.307,182.816 C79.151,182.876 78.995,182.936 78.827,182.996 L78.827,176.492 L79.403,176.492 L79.403,175.7 L75.203,175.7 L75.203,176.492 L75.803,176.492 L75.803,183.86 L75.071,184.004 L75.275,184.796 C76.235,184.58 77.159,184.34 78.047,184.076 L78.047,186.152 L78.827,186.152 Z M83.867,186.164 L83.867,176.756 L84.971,176.756 L84.971,183.02 C84.971,183.308 84.851,183.464 84.623,183.464 L84.047,183.428 L84.263,184.196 L84.887,184.196 C85.439,184.196 85.715,183.848 85.715,183.176 L85.715,176 L83.111,176 L83.111,186.164 L83.867,186.164 Z M78.047,178.268 L76.607,178.268 L76.607,176.492 L78.047,176.492 L78.047,178.268 Z M78.047,180.752 L76.607,180.752 L76.607,179.048 L78.047,179.048 L78.047,180.752 Z M76.607,183.668 L76.607,181.544 L78.047,181.544 L78.047,183.26 C77.567,183.404 77.087,183.548 76.607,183.668 Z M97.765,186.236 L98.305,185.54 C95.953,184.316 94.357,182.552 93.517,180.272 L97.933,180.272 L97.933,179.444 L93.013,179.444 C93.157,178.628 93.253,177.716 93.325,176.684 L97.585,176.684 L97.585,175.844 L88.105,175.844 L88.105,176.684 L92.449,176.684 C92.389,177.704 92.293,178.628 92.149,179.444 L87.793,179.444 L87.793,180.272 L91.969,180.272 C91.765,181.064 91.513,181.724 91.201,182.252 C90.445,183.524 89.173,184.616 87.385,185.528 L87.925,186.236 C89.845,185.216 91.201,183.992 92.017,182.576 C92.329,182.024 92.581,181.328 92.785,180.512 C93.637,182.984 95.293,184.892 97.765,186.236 Z M100.935,178.652 L100.935,177.14 L109.215,177.14 L109.215,178.652 L110.091,178.652 L110.091,176.324 L105.603,176.324 C105.411,175.868 105.219,175.448 105.027,175.088 L104.067,175.256 C104.283,175.58 104.487,175.94 104.667,176.324 L100.059,176.324 L100.059,178.652 L100.935,178.652 Z M110.283,185.912 L110.283,185.096 L105.519,185.096 L105.519,183.596 L109.347,183.596 L109.347,182.792 L105.519,182.792 L105.519,181.448 C106.407,181.4 107.283,181.34 108.135,181.28 C108.399,181.568 108.651,181.868 108.867,182.168 L109.491,181.532 C108.819,180.728 107.991,179.912 107.007,179.096 L106.455,179.624 C106.815,179.948 107.163,180.272 107.499,180.608 C105.807,180.728 104.115,180.812 102.423,180.884 C102.891,180.5 103.431,179.9 104.055,179.06 L109.047,179.06 L109.047,178.268 L101.103,178.268 L101.103,179.06 L103.071,179.06 C102.291,180.02 101.655,180.608 101.163,180.824 C101.115,180.848 101.055,180.884 100.983,180.908 L101.175,181.652 C102.351,181.604 103.503,181.556 104.631,181.496 L104.631,182.792 L100.827,182.792 L100.827,183.596 L104.631,183.596 L104.631,185.096 L99.8669999,185.096 L99.8669999,185.912 L110.283,185.912 Z" id="上下滑，切换比赛左滑进入聊天室" fill="#FFFFFF"></path>
            <path d="M119.544814,58 C120.061816,58 120.582149,58.0930739 121.090194,58.2763168 C123.500364,59.1476793 124.60976,61.7355643 123.663434,64.3152574 L116.21364,83.3484099 C116.605009,83.787577 117.168177,84.536061 117.801797,85.7312069 C119.994808,89.8703821 118.445466,97.4066392 112.715836,101.603158 C108.618978,104.602729 104.842518,106 100.830066,106 C98.4792099,106 96.030971,105.529111 93.3498398,104.560491 C85.7252045,101.806386 84.5676338,97.0893048 84.0354155,92.4939977 C83.5221455,88.0724054 88.7540662,73.7419842 88.9777139,73.1340407 C89.510449,71.6828544 91.0376269,70.707844 92.7789784,70.707844 C93.2770324,70.707844 93.7587219,70.790344 94.2092901,70.9531943 C94.4538958,71.0416203 95.047725,71.3514019 95.6157155,71.7807505 C96.3384507,70.1977966 97.9446948,69.1565539 99.7136075,69.1565539 C100.237869,69.1565574 100.758219,69.2478657 101.251867,69.4264799 C102.225237,69.7784991 103.029565,70.4366979 103.559314,71.3051555 C104.677036,69.8903389 106.531446,69.2994183 108.258787,69.9224674 C109.386902,70.330029 110.2653,71.1475341 110.733439,72.2240426 L115.215121,61.2419007 C115.937339,59.2724751 117.637521,58 119.544814,58 Z M116.954067,61.9986134 L110.227527,78.4903335 C110.044196,78.9431264 109.544166,79.1851793 109.069804,79.0475414 C108.59727,78.9110032 108.30641,78.4414252 108.395189,77.9606764 L108.92323,75.1101013 C108.941404,75.0601557 108.955663,75.008874 108.965876,74.9567201 C109.207173,74.2997855 109.197169,73.6095701 108.939694,73.0138723 C108.68622,72.4258724 108.204312,71.9784045 107.581089,71.7537734 C106.334587,71.3027748 105.09746,72.0012091 104.592799,73.376778 L103.935677,75.1667655 C103.754633,75.6608266 103.203782,75.9157867 102.706668,75.7361281 C102.209553,75.5564695 101.952078,75.0098537 102.133751,74.5156189 L102.134895,74.5109886 C102.366702,73.8750643 102.335775,73.1865853 102.04846,72.572829 C101.759886,71.9579151 101.246479,71.491752 100.605707,71.2596544 C100.30712,71.2593843 100.010855,71.2072489 99.730154,71.1055787 C98.6583507,71.1055787 97.6928188,71.7782565 97.3254707,72.7776652 C97.3254707,72.7776652 96.0327784,75.9695569 95.7494642,76.6573414 C95.4656927,77.3452416 95.0158542,77.4543448 94.5362896,77.2757859 C94.056782,77.097285 93.8856845,76.6066387 94.1017145,76.0033587 C94.3166011,75.4007153 94.935822,73.7257926 94.935822,73.7257926 C94.6397027,73.420535 94.0183094,72.9335353 93.5929951,72.7800383 C93.355871,72.6943764 93.0987388,72.6511402 92.8260003,72.6511402 C91.9107172,72.6511402 91.0958173,73.1300368 90.8442303,73.8144643 C89.3752383,77.8229806 85.6462499,88.9445066 86.0271462,92.2320735 C86.5271191,96.5423168 87.4751583,100.303571 94.0503794,102.679648 C96.5076554,103.568275 98.7284933,104 100.841688,104 C104.455487,104 107.753387,102.76369 111.535426,99.99131 C114.941827,97.4955374 118.39036,91.037205 116.039984,86.5991634 C115.786396,86.1202089 115.551616,85.7316046 115.344275,85.4206749 L112.920956,91.6129344 C112.729907,92.1036384 112.173797,92.3462701 111.679084,92.1561932 C111.185513,91.9658848 110.940729,91.4140019 111.131834,90.9233557 L121.778182,63.706759 C122.357615,62.125833 121.773494,60.6637918 120.357038,60.1514986 C118.959275,59.6474243 117.527612,60.4361509 116.954067,61.9986134 Z" id="形状结合" fill="#FFFFFF" transform="translate(104.000000, 82.000000) scale(1, -1) rotate(-158.000000) translate(-104.000000, -82.000000) "></path>
            <g id="编组" transform="translate(51.000000, 0.000000)">
                <path d="M13.4090097,13.6876623 C14.2876894,12.7707792 15.7123106,12.7707792 16.5909903,13.6876623 L16.5909903,13.6876623 L29.3409903,26.9920102 C30.2196699,27.9088933 30.2196699,29.3954545 29.3409903,30.3123377 C28.4623106,31.2292208 27.0376894,31.2292208 26.1590097,30.3123377 L26.1590097,30.3123377 L17.419,21.192 L17.4193548,55.6226415 C17.4193548,56.8809129 16.4245574,57.9108701 15.1656439,57.9945154 L15,58 C13.6638272,58 12.5806452,56.9356203 12.5806452,55.6226415 L12.5806452,55.6226415 L12.58,21.193 L3.84099026,30.3123377 C3.00225059,31.1875443 1.66607244,31.2273264 0.782111087,30.431684 L0.659009742,30.3123377 C-0.219669914,29.3954545 -0.219669914,27.9088933 0.659009742,26.9920102 L0.659009742,26.9920102 Z" id="形状结合" fill="url(#linearGradient-1)"></path>
                <path d="M26.1590097,17.3123377 C27.0376894,18.2292208 28.4623106,18.2292208 29.3409903,17.3123377 C30.2196699,16.3954545 30.2196699,14.9088933 29.3409903,13.9920102 L16.5909903,0.68766234 C15.7123106,-0.22922078 14.2876894,-0.22922078 13.4090097,0.68766234 L0.659009742,13.9920102 C-0.219669914,14.9088933 -0.219669914,16.3954545 0.659009742,17.3123377 C1.5376894,18.2292208 2.9623106,18.2292208 3.84099026,17.3123377 L15,5.66815358 L26.1590097,17.3123377 Z" id="路径-9备份" fill="#5078FF" opacity="0.300000012"></path>
            </g>
            <g id="编组备份" transform="translate(66.000000, 102.000000) scale(1, -1) translate(-66.000000, -102.000000) translate(51.000000, 73.000000)">
                <path d="M13.4090097,13.6876623 C14.2876894,12.7707792 15.7123106,12.7707792 16.5909903,13.6876623 L16.5909903,13.6876623 L29.3409903,26.9920102 C30.2196699,27.9088933 30.2196699,29.3954545 29.3409903,30.3123377 C28.4623106,31.2292208 27.0376894,31.2292208 26.1590097,30.3123377 L26.1590097,30.3123377 L17.419,21.192 L17.4193548,55.6226415 C17.4193548,56.8809129 16.4245574,57.9108701 15.1656439,57.9945154 L15,58 C13.6638272,58 12.5806452,56.9356203 12.5806452,55.6226415 L12.5806452,55.6226415 L12.58,21.193 L3.84099026,30.3123377 C3.00225059,31.1875443 1.66607244,31.2273264 0.782111087,30.431684 L0.659009742,30.3123377 C-0.219669914,29.3954545 -0.219669914,27.9088933 0.659009742,26.9920102 L0.659009742,26.9920102 Z" id="形状结合" fill="url(#linearGradient-1)"></path>
                <path d="M26.1590097,17.3123377 C27.0376894,18.2292208 28.4623106,18.2292208 29.3409903,17.3123377 C30.2196699,16.3954545 30.2196699,14.9088933 29.3409903,13.9920102 L16.5909903,0.68766234 C15.7123106,-0.22922078 14.2876894,-0.22922078 13.4090097,0.68766234 L0.659009742,13.9920102 C-0.219669914,14.9088933 -0.219669914,16.3954545 0.659009742,17.3123377 C1.5376894,18.2292208 2.9623106,18.2292208 3.84099026,17.3123377 L15,5.66815358 L26.1590097,17.3123377 Z" id="路径-9备份" fill="#5078FF" opacity="0.300000012"></path>
            </g>
            <g id="编组备份-2" transform="translate(29.000000, 67.000000) scale(1, -1) rotate(-90.000000) translate(-29.000000, -67.000000) translate(14.000000, 38.000000)">
                <path d="M13.4090097,13.6876623 C14.2876894,12.7707792 15.7123106,12.7707792 16.5909903,13.6876623 L16.5909903,13.6876623 L29.3409903,26.9920102 C30.2196699,27.9088933 30.2196699,29.3954545 29.3409903,30.3123377 C28.4623106,31.2292208 27.0376894,31.2292208 26.1590097,30.3123377 L26.1590097,30.3123377 L17.419,21.192 L17.4193548,55.6226415 C17.4193548,56.8809129 16.4245574,57.9108701 15.1656439,57.9945154 L15,58 C13.6638272,58 12.5806452,56.9356203 12.5806452,55.6226415 L12.5806452,55.6226415 L12.58,21.193 L3.84099026,30.3123377 C3.00225059,31.1875443 1.66607244,31.2273264 0.782111087,30.431684 L0.659009742,30.3123377 C-0.219669914,29.3954545 -0.219669914,27.9088933 0.659009742,26.9920102 L0.659009742,26.9920102 Z" id="形状结合" fill="url(#linearGradient-1)"></path>
                <path d="M26.1590097,17.3123377 C27.0376894,18.2292208 28.4623106,18.2292208 29.3409903,17.3123377 C30.2196699,16.3954545 30.2196699,14.9088933 29.3409903,13.9920102 L16.5909903,0.68766234 C15.7123106,-0.22922078 14.2876894,-0.22922078 13.4090097,0.68766234 L0.659009742,13.9920102 C-0.219669914,14.9088933 -0.219669914,16.3954545 0.659009742,17.3123377 C1.5376894,18.2292208 2.9623106,18.2292208 3.84099026,17.3123377 L15,5.66815358 L26.1590097,17.3123377 Z" id="路径-9备份" fill="#5078FF" opacity="0.300000012"></path>
            </g>
        </g>
    </g>
</svg>