<?xml version="1.0" encoding="UTF-8"?>
<svg width="375px" height="111px" viewBox="0 0 375 111" version="1.1" xmlns="http://www.w3.org/2000/svg" xmlns:xlink="http://www.w3.org/1999/xlink">
    <title>img_home_into_jizhitop</title>
    <g id="img_home_into_jizhitop" stroke="none" stroke-width="1" fill="none" fill-rule="evenodd">
        <text id="小白版" font-family="PingFangSC-Regular, PingFang SC" font-size="10" font-weight="normal" line-spacing="12" letter-spacing="0.191666643" fill="#FFFFFF">
            <tspan x="94" y="51">小白版</tspan>
        </text>
        <path d="M54.8769887,70.2425363 L54.8769887,67.6033551 L58.6550528,67.6033551 L58.6550528,69.3827125 L59.4826288,69.3827125 L59.4826288,66.9226614 L54.8769887,66.9226614 L54.8769887,66.1703156 L59.05085,66.1703156 L59.05085,65.4657378 L49.8755514,65.4657378 L49.8755514,66.1703156 L54.0374189,66.1703156 L54.0374189,66.9226614 L49.4317788,66.9226614 L49.4317788,69.3827125 L50.2593547,69.3827125 L50.2593547,67.6033551 L54.0374189,67.6033551 L54.0374189,70.2425363 L54.8769887,70.2425363 Z M53.4017446,68.8453227 L53.4017446,68.2721069 L50.9070229,68.2721069 L50.9070229,68.8453227 L53.4017446,68.8453227 Z M57.983397,68.8453227 L57.983397,68.2721069 L55.5006691,68.2721069 L55.5006691,68.8453227 L57.983397,68.8453227 Z M53.4017446,70.0395223 L53.4017446,69.4663065 L50.9070229,69.4663065 L50.9070229,70.0395223 L53.4017446,70.0395223 Z M58.0193785,70.0395223 L58.0193785,69.4663065 L55.5126629,69.4663065 L55.5126629,70.0395223 L58.0193785,70.0395223 Z M50.9669921,76.0463463 L50.9669921,73.0727893 L52.7660703,73.0727893 L52.7660703,75.9030424 L53.5936462,75.9030424 L53.5936462,73.0727893 L55.3687367,73.0727893 L55.3687367,75.9030424 L56.1963126,75.9030424 L56.1963126,73.0727893 L58.1273232,73.0727893 L58.1273232,74.7685527 C58.1273232,75.1148706 57.9714031,75.2940006 57.6595629,75.2940006 L56.8559746,75.2581746 L57.0478763,75.9985783 L57.89944,75.9985783 C58.6070774,75.9985783 58.966893,75.6403185 58.966893,74.9476827 L58.966893,72.3323856 L54.3012837,72.3323856 L54.7090747,71.4725618 L59.7704813,71.4725618 L59.7704813,70.7321581 L49.1439263,70.7321581 L49.1439263,71.4725618 L53.8335233,71.4725618 L53.4257323,72.3323856 L50.15141,72.3323856 L50.15141,76.0463463 L50.9669921,76.0463463 Z M71.4305067,76.0821723 L71.9702302,75.3775945 C70.6988816,74.8760307 69.4515207,74.4461189 68.2281476,74.075917 C68.8638219,73.5624111 69.3075945,72.9533693 69.5474716,72.2368496 L72.1261503,72.2368496 L72.1261503,71.4486779 L65.637475,71.4486779 C65.8293767,71.114302 66.0332722,70.7679841 66.2491616,70.3858402 L71.238605,70.3858402 L71.238605,67.3764572 L68.444037,67.3764572 L68.444037,66.3136196 L71.982224,66.3136196 L71.982224,65.5373898 L61.3796567,65.5373898 L61.3796567,66.3136196 L64.9178438,66.3136196 L64.9178438,67.3764572 L62.1232757,67.3764572 L62.1232757,70.3858402 L65.2776594,70.3858402 C65.0857577,70.7202161 64.8818622,71.078476 64.6659728,71.4486779 L61.2237366,71.4486779 L61.2237366,72.2368496 L64.1862186,72.2368496 C63.9223538,72.6428775 63.658489,73.0608473 63.3706365,73.4788172 C64.3661265,73.7057151 65.3616164,73.968439 66.3571063,74.2669889 C65.2776594,74.6849588 63.658489,75.0193347 61.523583,75.2701166 L61.847417,76.0344043 C64.4380896,75.6880864 66.3091309,75.2104066 67.448547,74.6013648 C68.7798649,75.0312767 70.1111827,75.5208985 71.4305067,76.0821723 Z M67.616461,67.3764572 L65.7454197,67.3764572 L65.7454197,66.3136196 L67.616461,66.3136196 L67.616461,67.3764572 Z M70.4110291,69.6454365 L68.444037,69.6454365 L68.444037,68.128803 L70.4110291,68.128803 L70.4110291,69.6454365 Z M67.616461,69.6454365 L65.7454197,69.6454365 L65.7454197,68.128803 L67.616461,68.128803 L67.616461,69.6454365 Z M64.9178438,69.6454365 L62.9508516,69.6454365 L62.9508516,68.128803 L64.9178438,68.128803 L64.9178438,69.6454365 Z M67.3046208,73.8012511 C66.381094,73.5385272 65.4815549,73.3116292 64.5940097,73.1205573 C64.7739175,72.8578334 64.9658192,72.5592835 65.1697147,72.2368496 L68.6719202,72.2368496 C68.4320431,72.8578334 67.9762766,73.3832812 67.3046208,73.8012511 Z M74.2750491,71.8547057 C75.2825329,71.5203298 76.014158,71.04265 76.4699245,70.4455502 C76.6138508,70.2305943 76.7457832,69.9917543 76.8537278,69.7290304 L79.2405049,69.7290304 L79.2405049,68.9766847 L77.0696172,68.9766847 C77.1295865,68.7139608 77.1655681,68.4392949 77.1895558,68.128803 L78.9526524,68.128803 L78.9526524,67.4242252 L77.2015496,67.4242252 L77.2015496,66.5644015 L79.2405049,66.5644015 L79.2405049,65.8120557 L77.2015496,65.8120557 L77.2015496,65.083594 L76.349986,65.083594 L76.349986,65.8120557 L73.9032397,65.8120557 L73.9032397,66.5644015 L76.349986,66.5644015 L76.349986,67.4242252 L74.203086,67.4242252 L74.203086,68.128803 L76.3259982,68.128803 C76.3020105,68.4154109 76.2540351,68.7020188 76.1940659,68.9766847 L73.6513687,68.9766847 L73.6513687,69.7290304 L75.9182072,69.7290304 C75.8702318,69.8006824 75.8342502,69.8603924 75.7982687,69.9320444 C75.4264592,70.4455502 74.7667972,70.851578 73.8312765,71.1620699 L74.2750491,71.8547057 Z M80.8356875,71.2098379 L80.8356875,66.3375036 L82.8986305,66.3375036 C82.610778,66.9107194 82.2509623,67.4481092 81.8311774,67.949673 C82.6467595,68.6542508 83.0665444,69.1677566 83.0665444,69.4901905 C83.0665444,69.8484504 82.7307165,70.0275803 82.0590607,70.0395223 C81.867159,70.0395223 81.6512696,70.0156383 81.3874048,69.9917543 L81.699245,70.8038101 C82.2269746,70.8038101 82.6467595,70.7560421 82.9585997,70.6724481 C83.6062679,70.5291442 83.9420958,70.1350583 83.9540897,69.4901905 C83.9540897,69.0363947 83.5702863,68.5228888 82.8146735,67.949673 C83.2224645,67.3764572 83.5822802,66.7674154 83.8821265,66.1344896 L83.8821265,65.5373898 L79.97213,65.5373898 L79.97213,71.2098379 L80.8356875,71.2098379 Z M79.4444004,76.1179983 L79.4444004,72.7861814 L82.2869439,72.7861814 L82.2869439,74.1833949 C82.2869439,74.4102929 82.1430176,74.5297128 81.867159,74.5297128 L80.9076506,74.5058288 L81.12354,75.3059426 L82.1430176,75.3059426 C82.8026796,75.3059426 83.1385076,74.9954507 83.1385076,74.3744669 L83.1385076,71.9860677 L79.4444004,71.9860677 L79.4444004,70.899346 L78.5808429,70.899346 L78.5808429,71.9860677 L74.9227173,71.9860677 L74.9227173,75.3895365 L75.7862748,75.3895365 L75.7862748,72.7861814 L78.5808429,72.7861814 L78.5808429,76.1179983 L79.4444004,76.1179983 Z M90.9724934,76.0582883 C92.6396392,74.4700028 93.4912029,71.9502417 93.5271844,68.5109468 L93.5271844,68.3437589 L95.3262626,68.3437589 C95.3022749,71.5442138 95.2542995,73.4668752 95.1823363,74.087859 C95.0863855,74.7804947 94.714576,75.1387546 94.0789017,75.1387546 C93.7670615,75.1387546 93.4072459,75.1148706 92.987461,75.0909866 L93.1913565,75.8552744 C93.6711107,75.8791584 94.0069386,75.8911004 94.1988403,75.8911004 C95.2782872,75.8911004 95.8779799,75.3895365 95.9979184,74.4102929 C96.117857,73.5265852 96.1778263,71.2337219 96.1778263,67.5078192 L93.5271844,67.5078192 L93.5271844,65.11942 L92.6636269,65.11942 L92.6636269,67.5078192 L91.176389,67.5078192 L91.176389,68.3437589 L92.6636269,68.3437589 L92.6636269,68.5109468 C92.6396392,71.7233438 91.8600387,74.052033 90.3248253,75.4970145 L90.9724934,76.0582883 Z M85.8511176,75.0073927 C87.9140606,74.5774808 89.7251326,74.111743 91.2843337,73.6101791 L91.2843337,72.7981234 C91.0204689,72.8817174 90.7566041,72.9653113 90.4807454,73.0489053 L90.4807454,65.7762297 L86.474798,65.7762297 L86.474798,74.004265 C86.1869455,74.052033 85.899093,74.111743 85.6112405,74.1714529 L85.8511176,75.0073927 Z M89.6411756,68.2601649 L87.3263617,68.2601649 L87.3263617,66.5644015 L89.6411756,66.5644015 L89.6411756,68.2601649 Z M89.6411756,70.851578 L87.3263617,70.851578 L87.3263617,69.0483367 L89.6411756,69.0483367 L89.6411756,70.851578 Z M87.3263617,73.8251351 L87.3263617,71.6278078 L89.6411756,71.6278078 L89.6411756,73.2758032 C88.9095505,73.4668752 88.1419438,73.6460051 87.3263617,73.8251351 Z M108.857329,75.6522604 L108.857329,74.8282627 L105.714939,74.8282627 L105.714939,73.2758032 L108.413557,73.2758032 L108.413557,72.4637475 L105.714939,72.4637475 L105.714939,71.054592 L108.209661,71.054592 L108.209661,65.5373898 L102.344666,65.5373898 L102.344666,71.054592 L104.851382,71.054592 L104.851382,72.4637475 L102.140771,72.4637475 L102.140771,73.2758032 L104.851382,73.2758032 L104.851382,74.8282627 L101.637029,74.8282627 L101.637029,75.6522604 L108.857329,75.6522604 Z M98.0628603,74.4938868 C99.3342089,74.1833949 100.5216,73.8012511 101.625035,73.3474552 L101.625035,72.5115155 C101.193256,72.7025874 100.761478,72.8697754 100.305711,73.0250213 L100.305711,70.3141882 L101.625035,70.3141882 L101.625035,69.4901905 L100.305711,69.4901905 L100.305711,66.6599374 L101.768961,66.6599374 L101.768961,65.8478817 L97.9429218,65.8478817 L97.9429218,66.6599374 L99.4181659,66.6599374 L99.4181659,69.4901905 L98.1108358,69.4901905 L98.1108358,70.3141882 L99.4181659,70.3141882 L99.4181659,73.3116292 C98.9024302,73.4549332 98.3747006,73.5743531 97.846971,73.6698891 L98.0628603,74.4938868 Z M104.851382,67.925789 L103.172242,67.925789 L103.172242,66.3016776 L104.851382,66.3016776 L104.851382,67.925789 Z M107.382085,67.925789 L105.714939,67.925789 L105.714939,66.3016776 L107.382085,66.3016776 L107.382085,67.925789 Z M107.382085,70.2903042 L105.714939,70.2903042 L105.714939,68.6781348 L107.382085,68.6781348 L107.382085,70.2903042 Z M104.851382,70.2903042 L103.172242,70.2903042 L103.172242,68.6781348 L104.851382,68.6781348 L104.851382,70.2903042 Z M110.6704,76.1060563 C111.102179,75.3178846 111.378038,74.3266989 111.485982,73.1444413 L112.625399,73.1444413 L112.625399,75.8433324 L113.321042,75.8433324 L113.321042,73.1444413 L114.436471,73.1444413 L114.436471,74.8043787 C114.436471,75.0909866 114.304538,75.2462326 114.040673,75.2462326 C113.848772,75.2462326 113.632882,75.2223486 113.404999,75.1984646 L113.608895,75.9149844 L114.292544,75.9149844 C114.868249,75.9149844 115.168096,75.6283765 115.168096,75.0671026 L115.168096,67.901905 L113.728833,67.901905 C113.992698,67.5317032 114.268557,67.0779073 114.532421,66.5524595 L114.532421,65.9553597 L112.397515,65.9553597 C112.493466,65.7165198 112.601411,65.4537958 112.697362,65.1910719 L111.917761,65.011942 C111.450001,66.2539096 110.862302,67.2570372 110.142671,68.021325 L110.6704,68.6542508 C110.706382,68.6064828 110.742363,68.5706568 110.790339,68.5228888 L110.790339,72.1890816 C110.778345,73.5504691 110.538468,74.6849588 110.082701,75.5686665 L110.6704,76.1060563 Z M116.091622,69.3707705 C116.703309,68.9647427 117.171069,68.4990048 117.48291,67.997441 C117.710793,67.5794711 117.890701,67.0898493 118.010639,66.5405175 L119.773736,66.5405175 C119.749748,67.4003412 119.701773,67.937731 119.62981,68.140745 C119.545853,68.3437589 119.341957,68.4512368 119.006129,68.4631788 C118.73027,68.4512368 118.382449,68.4273529 117.974658,68.4034689 L118.178553,69.1199886 C118.562356,69.1438726 118.898184,69.1677566 119.186037,69.1677566 C119.701773,69.1677566 120.061588,69.0005687 120.277478,68.6900768 C120.493367,68.3676429 120.601312,67.4003412 120.601312,65.7762297 L115.599874,65.7762297 L115.599874,66.5405175 L117.195057,66.5405175 C117.1111,66.9346034 116.979168,67.2809212 116.79926,67.5914131 C116.535395,68.021325 116.127604,68.4034689 115.587881,68.7139608 L116.091622,69.3707705 Z M112.853282,67.901905 L111.294081,67.901905 C111.557946,67.5197612 111.82181,67.1137333 112.061687,66.6599374 L113.620888,66.6599374 C113.357024,67.1256753 113.105153,67.5436452 112.853282,67.901905 Z M114.436471,70.1350583 L113.321042,70.1350583 L113.321042,68.6423088 L114.436471,68.6423088 L114.436471,70.1350583 Z M112.625399,70.1350583 L111.533958,70.1350583 L111.533958,68.6423088 L112.625399,68.6423088 L112.625399,70.1350583 Z M118.958154,76.0463463 L118.958154,73.7057151 L120.997109,73.7057151 L120.997109,72.9294854 L118.958154,72.9294854 L118.958154,71.4725618 L120.745238,71.4725618 L120.745238,70.6963321 L118.958154,70.6963321 L118.958154,69.5857265 L118.118584,69.5857265 L118.118584,70.6963321 L117.015149,70.6963321 C117.087112,70.4216662 117.159076,70.1231163 117.231039,69.8006824 L116.511407,69.6693204 C116.3315,70.6246801 115.983678,71.3770259 115.455948,71.9502417 L115.95969,72.5592835 C116.247543,72.2487916 116.48742,71.8905317 116.703309,71.4725618 L118.118584,71.4725618 L118.118584,72.9294854 L115.503924,72.9294854 L115.503924,73.7057151 L118.118584,73.7057151 L118.118584,76.0463463 L118.958154,76.0463463 Z M112.625399,72.4159795 L111.521964,72.4159795 C111.521964,72.3204436 111.533958,72.2368496 111.533958,72.1413136 L111.533958,70.851578 L112.625399,70.851578 L112.625399,72.4159795 Z M114.436471,72.4159795 L113.321042,72.4159795 L113.321042,70.851578 L114.436471,70.851578 L114.436471,72.4159795 Z M125.029043,75.9985783 L125.029043,69.7648564 C125.364871,70.2067103 125.760668,70.7799261 126.216435,71.4725618 L126.684195,70.7799261 C126.132478,70.0753483 125.58076,69.4304805 125.029043,68.8572647 L125.029043,68.2243389 L126.57625,68.2243389 L126.57625,67.4003412 L125.029043,67.4003412 L125.029043,65.071652 L124.177479,65.071652 L124.177479,67.4003412 L122.486346,67.4003412 L122.486346,68.2243389 L124.153492,68.2243389 C123.769688,69.7170884 123.146008,71.04265 122.270456,72.2010236 L122.606284,73.0489053 C123.253953,72.1174296 123.769688,71.090418 124.177479,69.9439864 L124.177479,75.9985783 L125.029043,75.9985783 Z M127.967537,76.0224623 L127.967537,75.2701166 L131.901522,75.2701166 L131.901522,76.0105203 L132.741091,76.0105203 L132.741091,65.7642877 L127.139961,65.7642877 L127.139961,76.0224623 L127.967537,76.0224623 Z M131.901522,68.6303668 L127.967537,68.6303668 L127.967537,66.5763435 L131.901522,66.5763435 L131.901522,68.6303668 Z M131.901522,71.5442138 L127.967537,71.5442138 L127.967537,69.4304805 L131.901522,69.4304805 L131.901522,71.5442138 Z M131.901522,74.4580608 L127.967537,74.4580608 L127.967537,72.3443276 L131.901522,72.3443276 L131.901522,74.4580608 Z M144.952834,75.9985783 L145.456576,75.1984646 C142.937867,74.3028149 141.390659,73.0489053 140.80296,71.4367359 L145.168723,71.4367359 L145.168723,70.6007961 L140.299219,70.6007961 C140.395169,70.0992323 140.443145,69.5379585 140.467133,68.9408587 L140.467133,68.3795849 L144.47308,68.3795849 L144.47308,67.5436452 L142.002346,67.5436452 C142.434125,66.8629514 142.79394,66.0867216 143.081793,65.2268979 L142.254217,65 C141.894401,66.0031277 141.498604,66.8510094 141.042838,67.5436452 L135.561646,67.5436452 L135.561646,68.3795849 L139.579587,68.3795849 L139.579587,68.9408587 C139.567593,69.5260165 139.507624,70.0753483 139.399679,70.6007961 L134.877996,70.6007961 L134.877996,71.4367359 L139.18379,71.4367359 C139.015876,71.9621837 138.787993,72.4279215 138.50014,72.8578334 C137.780509,73.8131931 136.497167,74.5894228 134.662107,75.1745806 L135.129867,75.9269264 C136.976921,75.3417686 138.308239,74.5177708 139.123821,73.4668752 C139.507624,72.9533693 139.807471,72.3562695 140.035354,71.6755758 C140.683022,73.4907592 142.314186,74.9357407 144.952834,75.9985783 Z M138.332226,67.5317032 L139.111827,67.1376173 C138.680048,66.3972135 138.224282,65.7284618 137.744528,65.107478 L136.952933,65.4896218 C137.444681,66.0867216 137.900448,66.7674154 138.332226,67.5317032 Z M152.678875,75.9866363 L152.678875,68.7139608 L152.726851,68.7139608 C153.542433,70.935172 155.005683,72.9533693 157.116601,74.7446688 L157.692306,74.016207 C155.71332,72.4637475 154.334027,70.6963321 153.542433,68.7139608 L157.344485,68.7139608 L157.344485,67.889963 L152.678875,67.889963 L152.678875,65.035826 L151.815318,65.035826 L151.815318,67.889963 L147.161702,67.889963 L147.161702,68.7139608 L150.95176,68.7139608 C150.100197,70.887404 148.696916,72.6667614 146.753911,74.052033 L147.221672,74.8163207 C149.356578,73.2399773 150.879797,71.1978959 151.767342,68.7139608 L151.815318,68.7139608 L151.815318,75.9866363 L152.678875,75.9866363 Z M155.581388,67.4839352 L156.265038,66.9943133 C155.881234,66.4449815 155.329517,65.8001137 154.609886,65.05971 L153.93823,65.4776798 C154.633874,66.2061416 155.173597,66.8748934 155.581388,67.4839352 Z M161.820191,67.5555871 L162.419884,66.9704293 C161.892154,66.3852715 161.232492,65.8001137 160.464886,65.2268979 L159.865193,65.8120557 C160.692769,66.4330395 161.340437,67.0062553 161.820191,67.5555871 Z M170,70.8157521 L170,70.0156383 L168.872578,70.0156383 L168.872578,67.6630651 L165.994053,67.6630651 L166.281905,66.3375036 L169.628191,66.3375036 L169.628191,65.5493318 L163.067552,65.5493318 L163.067552,66.3375036 L165.418348,66.3375036 L165.130495,67.6630651 L163.355405,67.6630651 L163.355405,68.4392949 L164.962581,68.4392949 L164.626753,70.0156383 L162.755712,70.0156383 L162.755712,70.8157521 L170,70.8157521 Z M168.00902,70.0156383 L165.490311,70.0156383 L165.826139,68.4392949 L168.00902,68.4392949 L168.00902,70.0156383 Z M160.812708,75.5806085 C161.604302,75.0432187 162.335927,74.4341769 163.031571,73.7415411 L162.803687,72.8339494 C162.359915,73.2758032 161.952124,73.6698891 161.56832,74.004265 L161.56832,68.7139608 L158.977648,68.7139608 L158.977648,69.5379585 L160.740744,69.5379585 L160.740744,74.3028149 C160.740744,74.4938868 160.644794,74.6610748 160.47688,74.8163207 L160.812708,75.5806085 Z M164.518809,76.0344043 L164.518809,75.4611885 L168.356842,75.4611885 L168.356842,76.0344043 L169.208406,76.0344043 L169.208406,71.9024737 L163.667245,71.9024737 L163.667245,76.0344043 L164.518809,76.0344043 Z M168.356842,74.6491328 L164.518809,74.6491328 L164.518809,72.6906454 L168.356842,72.6906454 L168.356842,74.6491328 Z M52.2503345,92.8447541 L52.2503345,87.4589138 C52.6941072,87.9604777 53.2218368,88.6411715 53.8455172,89.4890532 L54.3492591,88.7486494 C53.6416217,87.9604777 52.9459781,87.2678419 52.2503345,86.6588001 L52.2503345,86.0617003 L54.3012837,86.0617003 L54.3012837,85.2615866 L52.2503345,85.2615866 L52.2503345,83.3747512 C52.9219904,83.2314473 53.5576647,83.0403753 54.1813451,82.8134774 L53.7735541,82.0969576 C52.5741686,82.5507535 51.0869307,82.8493034 49.2998464,82.9926073 L49.575705,83.7568951 C50.1993854,83.7091271 50.811072,83.6374751 51.4107647,83.5419392 L51.4107647,85.2615866 L49.3118402,85.2615866 L49.3118402,86.0617003 L51.4107647,86.0617003 L51.4107647,86.1452943 C50.9190167,87.4589138 50.1154285,88.6411715 49,89.6920671 L49.3598156,90.6235428 C50.2113793,89.7040091 50.895029,88.6769974 51.4107647,87.5425078 L51.4107647,92.8447541 L52.2503345,92.8447541 Z M55.6206076,92.5700881 L55.6206076,91.5072505 L58.5351143,91.5072505 L58.5351143,92.4506682 L59.3746841,92.4506682 L59.3746841,82.7895934 L54.7930317,82.7895934 L54.7930317,92.5700881 L55.6206076,92.5700881 Z M58.5351143,90.6951948 L55.6206076,90.6951948 L55.6206076,83.5897071 L58.5351143,83.5897071 L58.5351143,90.6951948 Z M61.847417,92.964174 C62.8309131,92.0207563 63.4905751,90.7071368 63.8383969,89.0233153 C64.3061572,89.5368212 64.8818622,90.2413989 65.553518,91.1489906 L66.0332722,90.4085869 C65.3376287,89.5965311 64.6419851,88.8680694 63.9703293,88.2351436 C64.0063108,87.9485357 64.0422924,87.6499858 64.0662801,87.3394939 L65.8773521,87.3394939 L65.8773521,86.5035542 L64.1142555,86.5035542 L64.1142555,84.5331248 L65.7094381,84.5331248 L65.7094381,83.7091271 L64.1142555,83.7091271 L64.1142555,82.0730736 L63.250698,82.0730736 L63.250698,83.7091271 L61.5355768,83.7091271 L61.5355768,84.5331248 L63.250698,84.5331248 L63.250698,86.5035542 L61.3676628,86.5035542 L61.3676628,87.3394939 L63.2027226,87.3394939 C63.0348086,89.5965311 62.3751466,91.2803526 61.2117427,92.4029002 L61.847417,92.964174 Z M67.2446515,89.0352573 L67.2446515,83.2792152 L70.4470106,83.2792152 L70.4470106,89.0352573 L71.2745866,89.0352573 L71.2745866,82.4791015 L66.4170756,82.4791015 L66.4170756,89.0352573 L67.2446515,89.0352573 Z M65.3496225,92.964174 C66.6929342,92.4029002 67.6764303,91.6266705 68.276123,90.6474268 C68.8878096,89.5845891 69.2116436,88.1634916 69.2356313,86.3841342 L69.2356313,84.2704009 L68.4560308,84.2704009 L68.4560308,86.3841342 C68.4200492,87.8888257 68.1561844,89.1188513 67.6644364,90.062269 C67.1367068,90.9698607 66.21318,91.6983224 64.893856,92.2357123 L65.3496225,92.964174 Z M70.9507525,92.7731021 C71.3345559,92.7731021 71.6104145,92.6775661 71.8023162,92.4984362 C71.9942179,92.2834802 72.1381441,91.6863804 72.2101072,90.7071368 L71.4664883,90.4682968 C71.4185128,91.2087006 71.3465497,91.6624964 71.238605,91.8177424 C71.1546481,91.9371624 71.0107218,91.9968723 70.8068263,91.9968723 L70.1951397,91.9968723 C69.9312749,91.9968723 69.8113364,91.8655104 69.8113364,91.6027865 L69.8113364,89.0949673 L69.0317358,89.0949673 L69.0317358,91.7819164 C69.0317358,92.4387262 69.3315822,92.7731021 69.9552626,92.7731021 L70.9507525,92.7731021 Z M82.7187227,92.8089281 C83.4863293,92.8089281 83.8821265,92.4148422 83.8821265,91.6386125 L83.8821265,82.0133637 L83.018569,82.0133637 L83.018569,91.4236565 C83.018569,91.8177424 82.8146735,92.0207563 82.4188763,92.0207563 C81.9391221,92.0207563 81.4353802,91.9968723 80.9076506,91.9729883 L81.0995523,92.8089281 L82.7187227,92.8089281 Z M74.9347111,89.930907 L74.9347111,83.3030992 L78.3649535,83.3030992 L78.3649535,89.8234291 L79.2045233,89.8234291 L79.2045233,82.4671595 L74.0951413,82.4671595 L74.0951413,89.930907 L74.9347111,89.930907 Z M81.4113925,90.4682968 L81.4113925,83.0164913 L80.5718227,83.0164913 L80.5718227,90.4682968 L81.4113925,90.4682968 Z M73.8192827,93 C74.946705,92.5700881 75.7502932,91.9610463 76.2540351,91.1848166 C76.757777,90.3488769 77.0336357,89.2382713 77.0696172,87.8410577 L77.0696172,84.079329 L76.2300474,84.079329 L76.2300474,87.8410577 C76.2060597,88.9755473 75.9901703,89.895081 75.5943731,90.5996588 C75.1625944,91.2803526 74.4069815,91.8296844 73.3275346,92.2357123 L73.8192827,93 Z M79.0605971,92.868638 L79.7082652,92.2357123 C79.1325602,91.5430765 78.4369166,90.8384987 77.5973468,90.145863 L76.9976541,90.7310208 C77.8612116,91.4953085 78.5568552,92.1998863 79.0605971,92.868638 Z M94.3187788,92.7850441 C95.3262626,92.7850441 95.8779799,92.3193062 95.9979184,91.4117145 C96.117857,90.4802388 96.1778263,88.0201877 96.1778263,84.055445 L92.3517867,84.055445 C92.5676761,83.4344612 92.73559,82.7657094 92.8795163,82.0611316 L92.0279526,81.9536537 C91.7161124,83.6494171 91.1524013,85.0824566 90.3128314,86.2527722 L90.8285672,86.933466 C91.2963275,86.3244242 91.6921247,85.6437305 92.0279526,84.8913847 L95.3262626,84.8913847 C95.3022749,88.3306796 95.2542995,90.3966449 95.1823363,91.0653966 C95.0863855,91.6744384 94.7625514,91.9849303 94.1988403,91.9849303 C93.8270308,91.9849303 93.395252,91.9729883 92.8915101,91.9491044 L93.0954057,92.7372761 C93.6711107,92.7611601 94.0789017,92.7850441 94.3187788,92.7850441 Z M86.9545522,92.5342622 L86.9545522,91.5072505 L89.1374337,91.5072505 L89.1374337,92.1879443 L89.9770035,92.1879443 L89.9770035,84.043503 L88.045993,84.043503 C88.28587,83.4464032 88.4657779,82.7895934 88.6097041,82.0850156 L87.7461466,81.9655957 C87.6382019,82.6821154 87.4702879,83.3747512 87.2304109,84.043503 L86.1149824,84.043503 L86.1149824,92.5342622 L86.9545522,92.5342622 Z M89.1374337,87.3156099 L86.9545522,87.3156099 L86.9545522,84.8555587 L89.1374337,84.8555587 L89.1374337,87.3156099 Z M93.3472766,89.895081 L94.0309263,89.4174012 C93.5751598,88.6769974 92.9274917,87.8052317 92.0639342,86.8140461 L91.3682906,87.2439579 C92.1958666,88.2232016 92.8555286,89.1069093 93.3472766,89.895081 Z M89.1374337,90.7071368 L86.9545522,90.7071368 L86.9545522,88.0918396 L89.1374337,88.0918396 L89.1374337,90.7071368 Z M98.5186268,92.8208701 C99.2862335,91.8177424 99.7300061,90.5518908 99.8619385,89.0233153 L102.956353,89.0233153 L102.956353,92.5223202 L103.843898,92.5223202 L103.843898,89.0233153 L107.106227,89.0233153 L107.106227,91.1012226 C107.106227,91.6027865 106.878343,91.8535684 106.446565,91.8535684 C106.038774,91.8535684 105.595001,91.8296844 105.115247,91.8058004 L105.34313,92.6536821 L106.722423,92.6536821 C107.561993,92.6536821 107.981778,92.2357123 107.981778,91.3997725 L107.981778,82.4552175 L99.0463564,82.4552175 L99.0463564,88.1873756 C99.0223687,89.8234291 98.6265715,91.1728746 97.8589648,92.2357123 L98.5186268,92.8208701 Z M107.106227,85.3451806 L103.843898,85.3451806 L103.843898,83.2911572 L107.106227,83.2911572 L107.106227,85.3451806 Z M102.956353,85.3451806 L99.9099139,85.3451806 L99.9099139,83.2911572 L102.956353,83.2911572 L102.956353,85.3451806 Z M102.956353,88.2351436 L99.9099139,88.2351436 L99.9099139,86.1452943 L102.956353,86.1452943 L102.956353,88.2351436 Z M107.106227,88.2351436 L103.843898,88.2351436 L103.843898,86.1452943 L107.106227,86.1452943 L107.106227,88.2351436 Z M110.610431,92.976116 C111.689878,91.4355985 112.253589,89.5965311 112.313558,87.4589138 L120.037601,87.4589138 L120.037601,83.4464032 L116.247543,83.4464032 C116.031653,82.8731874 115.815764,82.3596815 115.599874,81.9058857 L114.676348,82.0491897 C114.928219,82.4791015 115.156102,82.9448394 115.371991,83.4464032 L111.461995,83.4464032 L111.461995,87.1842479 C111.438007,89.3218652 110.946259,91.0653966 109.974757,92.4029002 L110.610431,92.976116 Z M119.162049,86.6229741 L112.313558,86.6229741 L112.313558,84.2942849 L119.162049,84.2942849 L119.162049,86.6229741 Z" id="需要帮助理解相关术语和规则的用户" fill="#FFFFFF" fill-rule="nonzero"></path>
        <path d="M215.826557,68.0361446 L215.826557,67.3455705 L211.778208,67.3455705 L211.778208,66.5716513 L216.222983,66.5716513 L216.222983,65.8691708 L211.778208,65.8691708 L211.778208,65.107158 L210.937305,65.107158 L210.937305,65.8691708 L206.504542,65.8691708 L206.504542,66.5716513 L210.937305,66.5716513 L210.937305,67.3455705 L206.888955,67.3455705 L206.888955,68.0361446 L215.826557,68.0361446 Z M216.715513,72.393905 L216.715513,71.6795181 L213.616183,71.6795181 L214.108712,70.8103473 L215.117796,70.8103473 L215.117796,68.6671864 L207.597717,68.6671864 L207.597717,70.8103473 L208.738943,70.8103473 L209.123356,71.6795181 L206,71.6795181 L206,72.393905 L216.715513,72.393905 Z M214.288905,70.1793055 L208.426607,70.1793055 L208.426607,69.2982282 L214.288905,69.2982282 L214.288905,70.1793055 Z M212.715215,71.6795181 L210.024324,71.6795181 L209.639911,70.8103473 L213.195731,70.8103473 L212.715215,71.6795181 Z M208.258426,76.0372785 L208.258426,75.5491141 L214.469099,75.5491141 L214.469099,76.0372785 L215.29799,76.0372785 L215.29799,73.0844791 L207.417523,73.0844791 L207.417523,76.0372785 L208.258426,76.0372785 Z M214.469099,74.8466336 L208.258426,74.8466336 L208.258426,73.7869596 L214.469099,73.7869596 L214.469099,74.8466336 Z M227.925556,70.5722183 C228.237892,69.5720765 228.490163,68.5481219 228.68237,67.5241673 L228.68237,66.9645641 L224.814214,66.9645641 C224.946356,66.404961 225.054472,65.7977321 225.150575,65.1309709 L224.297659,65 C224.069413,66.9288448 223.564871,68.4409639 222.77202,69.5244507 L223.468768,70.0126152 C223.925259,69.4291991 224.297659,68.6909993 224.585968,67.7861091 L227.781402,67.7861091 C227.601208,68.7386251 227.372963,69.583983 227.084653,70.3340893 L227.925556,70.5722183 Z M218.507438,75.5491141 C219.516522,74.7632884 220.357425,73.6678951 221.030148,72.2748405 C221.438587,72.8463501 221.859039,73.4654855 222.27949,74.1084337 L222.904162,73.4773919 C222.375594,72.7153792 221.883064,72.0128987 221.414561,71.3818568 C221.883064,70.1912119 222.243452,68.8219702 222.507736,67.2741318 L222.507736,66.4883062 L218.26718,66.4883062 L218.26718,67.3217576 L221.666832,67.3217576 C221.474626,68.5600283 221.210342,69.6673281 220.87398,70.6674699 C220.153206,69.7506733 219.504509,68.9886605 218.903864,68.3933381 L218.327244,68.9410347 C219.048019,69.7268604 219.780806,70.6079376 220.513593,71.57236 C219.900935,72.9535082 219.084057,74.0131821 218.074973,74.7751949 L218.507438,75.5491141 Z M222.784032,76.0253721 C224.321684,75.1204819 225.306743,73.9655563 225.739207,72.5605953 L225.835311,72.2272147 C226.447969,73.7274274 227.348937,74.989511 228.526202,76.0134656 L229.102821,75.3467045 C227.685298,74.2274982 226.688227,72.7272856 226.099595,70.8460666 C226.195698,70.1793055 226.243749,69.4411056 226.243749,68.631467 L225.390833,68.631467 C225.37882,70.167399 225.21064,71.4294826 224.886291,72.4177179 C224.453826,73.5964564 223.564871,74.5727853 222.231439,75.3467045 L222.784032,76.0253721 Z M232.10805,70.6912828 C235.615819,70.4174344 238.030413,69.1315379 239.327807,66.8454996 L239.327807,66.166832 L235.880103,66.166832 C236.120361,65.9525159 236.348606,65.7262934 236.564838,65.4881644 L235.796012,65.0833451 C234.738876,66.2263643 233.14116,66.988377 231.002863,67.3931963 L231.507405,68.179022 C232.792786,67.8932672 233.897973,67.4765415 234.83498,66.9288448 L238.342748,66.9288448 C237.670026,67.9051736 236.69698,68.6552799 235.447638,69.1553508 C235.063225,68.6790928 234.654786,68.2504607 234.222322,67.8456414 L233.465508,68.2028349 C233.873947,68.5719348 234.270373,68.9886605 234.642773,69.4411056 C233.777844,69.691141 232.816811,69.8459249 231.73565,69.9173636 L232.10805,70.6912828 Z M231.339224,75.8467753 C236.000232,75.7396173 239.171639,74.2870305 240.877472,71.4771084 L240.877472,70.7984408 L237.585935,70.7984408 C237.922297,70.5484054 238.222619,70.2745571 238.510929,69.9888023 L237.766129,69.583983 C236.516787,70.8936924 234.582709,71.6914245 231.963895,71.9533664 L232.48045,72.7153792 C233.934012,72.4653437 235.183354,72.0843373 236.24049,71.5842665 L239.79631,71.5842665 C239.027484,72.632034 237.982361,73.453579 236.648929,74.0250886 C236.24049,73.4892984 235.796012,72.9892275 235.339522,72.524876 L234.570696,72.8820695 C235.015173,73.3107016 235.435625,73.7988661 235.844064,74.3346563 C234.486605,74.7871013 232.864863,75.0133239 230.99085,75.0252303 L231.339224,75.8467753 Z M250.778109,76.0372785 L250.778109,72.048618 L252.327774,72.048618 L252.327774,72.6558469 L253.168677,72.6558469 L253.168677,67.2622254 L250.778109,67.2622254 L250.778109,65.1666903 L249.901167,65.1666903 L249.901167,67.2622254 L247.570663,67.2622254 L247.570663,72.6558469 L248.399553,72.6558469 L248.399553,72.048618 L249.901167,72.048618 L249.901167,76.0372785 L250.778109,76.0372785 Z M245.396327,76.0849043 L245.396327,70.5484054 C245.768727,71.0246634 246.213204,71.6437987 246.729759,72.4058115 L247.210276,71.6914245 C246.597617,70.988944 245.996972,70.3579022 245.396327,69.7982991 L245.396327,69.2029766 L246.945992,69.2029766 L246.945992,68.3814316 L245.396327,68.3814316 L245.396327,66.4168675 C245.94892,66.297803 246.465475,66.1549256 246.958004,66.0001417 L246.657682,65.2024096 C245.516456,65.6072289 244.207049,65.8691708 242.741474,66.0120482 L242.909655,66.8097803 C243.486275,66.7383416 244.026855,66.6669029 244.555423,66.5835578 L244.555423,68.3814316 L242.705436,68.3814316 L242.705436,69.2029766 L244.471333,69.2029766 C244.074907,70.5603118 243.414197,71.7747697 242.47719,72.8463501 L242.837578,73.7393338 C243.558352,72.7987243 244.122959,71.7509568 244.555423,70.6079376 L244.555423,76.0849043 L245.396327,76.0849043 Z M249.901167,71.2508859 L248.399553,71.2508859 L248.399553,68.0718639 L249.901167,68.0718639 L249.901167,71.2508859 Z M252.327774,71.2508859 L250.778109,71.2508859 L250.778109,68.0718639 L252.327774,68.0718639 L252.327774,71.2508859 Z M265.07547,66.64309 L265.07547,65.821545 L259.453429,65.821545 L259.453429,66.64309 L265.07547,66.64309 Z M255.11677,74.6085046 C256.558319,74.1798724 257.807661,73.7036145 258.888823,73.2035436 L258.888823,72.3343728 C258.408306,72.5486889 257.891751,72.763005 257.351171,72.9654146 L257.351171,70.2626506 L258.612526,70.2626506 L258.612526,69.4887314 L257.351171,69.4887314 L257.351171,66.8097803 L258.864797,66.8097803 L258.864797,66.0120482 L254.960602,66.0120482 L254.960602,66.8097803 L256.474229,66.8097803 L256.474229,69.4887314 L255.128783,69.4887314 L255.128783,70.2626506 L256.474229,70.2626506 L256.474229,73.2630758 C255.957674,73.4297661 255.429106,73.58455 254.876512,73.7393338 L255.11677,74.6085046 Z M258.312203,75.9777463 C260.354397,74.8942594 261.39952,73.1797307 261.435559,70.8460666 L261.435559,70.0126152 L262.865095,70.0126152 L262.865095,74.751382 C262.865095,75.0609497 262.949185,75.334798 263.129379,75.5491141 C263.297559,75.7515237 263.54983,75.8586818 263.886192,75.8586818 L264.679044,75.8586818 C265.063457,75.8586818 265.339753,75.7515237 265.507934,75.5491141 C265.664102,75.334798 265.784231,74.644224 265.868321,73.4892984 L265.063457,73.21545 C265.027418,74.2394047 264.943328,74.8109142 264.823198,74.9299787 C264.751121,75.0252303 264.643005,75.0728561 264.49885,75.0728561 L264.162489,75.0728561 C263.874179,75.0728561 263.742037,74.8942594 263.742037,74.5608788 L263.742037,70.0126152 L265.459883,70.0126152 L265.459883,69.1672573 L259.032978,69.1672573 L259.032978,70.0126152 L260.606668,70.0126152 L260.606668,70.8460666 C260.57063,72.9416017 259.585571,74.4656272 257.663506,75.4181432 L258.312203,75.9777463 Z M277.186481,76.0729979 L278.003359,75.7158044 C277.462778,74.3584692 276.826094,73.0725726 276.10532,71.8819277 L275.276429,72.155776 C275.636816,72.7510985 275.997204,73.4059532 276.345578,74.1203402 C274.855977,74.406095 273.37839,74.6323175 271.900803,74.7871013 C272.477422,74.036995 273.150145,72.7510985 273.918971,70.9294118 L277.859204,70.9294118 L277.859204,70.0959603 L274.447539,70.0959603 L274.447539,67.8694543 L277.534856,67.8694543 L277.534856,67.0360028 L274.447539,67.0360028 L274.447539,65.1190645 L273.558584,65.1190645 L273.558584,67.0360028 L270.711525,67.0360028 L270.711525,67.8694543 L273.558584,67.8694543 L273.558584,70.0959603 L270.134905,70.0959603 L270.134905,70.9294118 L272.981964,70.9294118 C272.068983,73.0606662 271.324183,74.3703756 270.759576,74.85854 C270.711525,74.8823529 270.65146,74.9180723 270.579383,74.9418852 L270.783602,75.6919915 C272.909887,75.4895819 274.880003,75.2157335 276.693952,74.8823529 C276.862133,75.2633593 277.018301,75.6562721 277.186481,76.0729979 Z M269.462183,67.6908575 L270.074841,67.0717222 C269.546273,66.4763997 268.885563,65.8929837 268.104724,65.3095677 L267.492066,65.8929837 C268.332969,66.5240255 268.981666,67.119348 269.462183,67.6908575 Z M269.005692,70.4769667 L269.630363,69.8697378 C269.137834,69.2744153 268.537189,68.6790928 267.816414,68.0956768 L267.203756,68.6790928 C267.972582,69.3220411 268.573227,69.9173636 269.005692,70.4769667 Z M268.248879,75.9420269 C268.885563,74.6204111 269.462183,73.2035436 269.978737,71.703331 L269.197899,71.3937633 C268.693356,72.8225372 268.080698,74.2155918 267.38395,75.572927 L268.248879,75.9420269 Z M280.239762,76.7635719 C280.744304,76.632601 281.164756,76.3706591 281.477091,75.9896527 C281.789427,75.5848335 281.945594,75.1204819 281.945594,74.5965982 C281.945594,74.2513111 281.861504,73.9774628 281.705336,73.7631467 C281.537156,73.5369242 281.30891,73.4297661 281.044626,73.4297661 C280.804368,73.4297661 280.624175,73.4892984 280.48002,73.6321758 C280.335865,73.7631467 280.263788,73.9417434 280.263788,74.167966 C280.263788,74.3703756 280.335865,74.5489724 280.48002,74.6918498 C280.624175,74.8347271 280.792355,74.9061658 280.996575,74.9061658 C281.116704,74.9061658 281.212807,74.8823529 281.260859,74.85854 C281.260859,75.1442948 281.176768,75.4062367 280.996575,75.6562721 C280.804368,75.8944011 280.552097,76.0729979 280.239762,76.1801559 L280.239762,76.7635719 Z M299.894879,76.0015592 C300.711756,76.0015592 301.132208,75.5967399 301.132208,74.7990078 L301.132208,68.2504607 L302.465641,68.2504607 L302.465641,67.4289157 L301.132208,67.4289157 L301.132208,65.0952516 L300.267279,65.0952516 L300.267279,67.4289157 L296.783536,67.4289157 L296.783536,68.2504607 L300.267279,68.2504607 L300.267279,74.5846917 C300.267279,75.0014174 300.039034,75.2157335 299.594556,75.2157335 C299.041962,75.2157335 298.45333,75.1919206 297.828659,75.1562013 L298.008852,76.0015592 L299.894879,76.0015592 Z M292.062464,75.2633593 C293.167651,74.3584692 294.056606,73.3345145 294.717316,72.1914954 C295.149781,72.7987243 295.546207,73.3940468 295.906594,73.9893692 L296.531265,73.3702339 C296.110813,72.7034727 295.64231,72.0248051 295.137768,71.3580439 C295.762439,70.0364281 296.0988,68.5600283 296.158865,66.9407512 L296.158865,66.3097094 L292.08649,66.3097094 L292.08649,67.1431609 L295.378026,67.1431609 C295.293936,68.4052445 295.029652,69.5720765 294.585174,70.643657 C293.936477,69.8340184 293.239729,69.0124734 292.482916,68.2028349 L291.906296,68.7386251 C292.747199,69.6673281 293.516025,70.5841247 294.188748,71.4771084 C293.564077,72.6439405 292.687135,73.6559887 291.557922,74.513253 L292.062464,75.2633593 Z M298.609498,72.7391921 L299.294233,72.2629341 C298.861769,71.5009213 298.237098,70.6317505 297.432233,69.6554217 L296.771523,70.1316797 C297.516323,71.0484763 298.128982,71.9176471 298.609498,72.7391921 Z M314.444511,68.9767541 L314.444511,68.2266478 L311.46531,68.2266478 L312.029916,66.7978738 L313.819839,66.7978738 L313.819839,66.059674 L309.819542,66.059674 C309.6874,65.6786676 309.543245,65.3214741 309.39909,65.0119064 L308.462083,65.1547838 C308.630264,65.4286322 308.798445,65.7262934 308.942599,66.059674 L304.714056,66.059674 L304.714056,66.7978738 L306.576057,66.7978738 L307.140664,68.2266478 L304.161463,68.2266478 L304.161463,68.9767541 L314.444511,68.9767541 Z M310.552329,68.2266478 L308.041631,68.2266478 L307.477025,66.7978738 L311.128948,66.7978738 L310.552329,68.2266478 Z M304.197501,76.0968108 C305.855283,75.8348689 306.96047,75.4300496 307.525077,74.8942594 C307.957541,74.5013466 308.341954,73.8822112 308.666303,73.0368533 L310.071813,73.0368533 L310.071813,74.7394755 C310.071813,75.4300496 310.420187,75.7872431 311.140961,75.7872431 L313.363349,75.7872431 C313.771788,75.7872431 314.072111,75.6919915 314.264317,75.5133948 C314.480549,75.2990787 314.624704,74.6918498 314.708795,73.7155209 L313.891917,73.453579 C313.855878,74.2036853 313.783801,74.6561304 313.663672,74.8228207 C313.567568,74.9418852 313.423414,75.0133239 313.207181,75.0133239 L311.393232,75.0133239 C311.080897,75.0133239 310.936742,74.85854 310.936742,74.5608788 L310.936742,73.0368533 L313.014975,73.0368533 L313.014975,69.9054571 L305.603011,69.9054571 L305.603011,73.0368533 L307.765335,73.0368533 C307.501051,73.6559887 307.188715,74.1084337 306.828328,74.3941885 C306.287747,74.8228207 305.302689,75.1323884 303.86114,75.2990787 L304.197501,76.0968108 Z M312.174071,72.286747 L306.443915,72.286747 L306.443915,70.6555634 L312.174071,70.6555634 L312.174071,72.286747 Z M327,69.583983 L327,68.869596 L323.81658,68.869596 L323.81658,68.0599575 L326.291239,68.0599575 L326.291239,67.3693834 L323.81658,67.3693834 L323.81658,66.5835578 L326.687664,66.5835578 L326.687664,65.8691708 L323.81658,65.8691708 L323.81658,65.1190645 L322.987689,65.1190645 L322.987689,65.8691708 L320.284785,65.8691708 L320.284785,66.5835578 L322.987689,66.5835578 L322.987689,67.3693834 L320.585108,67.3693834 L320.585108,68.0599575 L322.987689,68.0599575 L322.987689,68.869596 L319.876346,68.869596 L319.876346,69.583983 L327,69.583983 Z M317.653959,75.9063076 C318.170514,75.9063076 318.56694,75.7991495 318.843237,75.5967399 C319.323753,75.1919206 319.564011,74.0250886 319.564011,72.0962438 C319.539985,70.3579022 319.347779,69.0243799 318.999404,68.0956768 C318.915314,67.8813607 318.819211,67.6789511 318.711095,67.4765415 C319.119533,66.9764706 319.539985,66.3573352 319.97245,65.6191354 L319.251675,65.1785967 C318.93934,65.7381999 318.614991,66.2501772 318.254604,66.7264352 C317.942269,66.2858965 317.569868,65.8453579 317.137404,65.4167257 L316.452668,65.9406095 C316.933184,66.3692417 317.353636,66.8335932 317.689997,67.357477 C317.209481,67.8337349 316.692926,68.2385542 316.116307,68.5600283 L316.572797,69.2982282 C317.149417,68.8934089 317.653959,68.5004961 318.098436,68.0956768 L318.254604,68.4528703 L318.254604,68.4528703 C318.374733,68.7862509 318.482849,69.1910702 318.554927,69.6673281 C317.978307,70.6674699 317.16143,71.5247342 316.104294,72.2391212 L316.596823,72.9654146 C317.389675,72.3819986 318.086423,71.6557052 318.687069,70.7865344 C318.711095,71.1675408 318.73512,71.5961729 318.73512,72.048618 C318.73512,73.6559887 318.578953,74.6204111 318.27863,74.9299787 C318.146488,75.0728561 317.870191,75.1442948 317.461752,75.1442948 C317.185455,75.1442948 316.897146,75.1204819 316.608836,75.096669 L316.849094,75.8944011 C317.053313,75.8944011 317.317597,75.9063076 317.653959,75.9063076 Z M321.534128,76.0372785 L321.534128,74.1084337 L325.330206,74.1084337 L325.330206,74.7990078 C325.330206,75.0847626 325.198064,75.2395464 324.93378,75.2395464 L323.948722,75.2038271 L324.164954,75.9658398 L325.174038,75.9658398 C325.822735,75.9658398 326.159097,75.6324592 326.159097,74.9776045 L326.159097,70.3340893 L320.71725,70.3340893 L320.71725,76.0372785 L321.534128,76.0372785 Z M325.330206,71.94146 L321.534128,71.94146 L321.534128,71.0484763 L325.330206,71.0484763 L325.330206,71.94146 Z M325.330206,73.453579 L321.534128,73.453579 L321.534128,72.6082211 L325.330206,72.6082211 L325.330206,73.453579 Z M215.814545,87.3920624 L216.523306,86.8919915 C216.090841,86.1537916 215.478183,85.3084337 214.661306,84.3321049 L213.952544,84.7488306 C214.240854,85.1060241 214.505138,85.4513111 214.769422,85.7965982 C213.39995,85.9632884 212.030479,86.0823529 210.648995,86.1537916 C211.081459,85.6894401 211.573989,84.9631467 212.138595,83.9749114 L216.523306,83.9749114 L216.523306,83.2009922 L213.363912,83.2009922 C213.195731,82.7009213 213.02755,82.2484763 212.835344,81.843657 L211.958402,81.9865344 C212.150608,82.3556343 212.330802,82.7604536 212.498982,83.2009922 L209.147381,83.2009922 L209.147381,83.9749114 L211.24964,83.9749114 C210.528866,85.1536499 209.952246,85.8799433 209.495756,86.1656981 C209.447704,86.189511 209.38764,86.2133239 209.315562,86.2371368 L209.507769,86.9634302 C211.573989,86.8443657 213.496054,86.6895819 215.261951,86.4871722 C215.454157,86.7967399 215.646364,87.0944011 215.814545,87.3920624 Z M208.162323,84.2963855 L208.774981,83.6891566 C208.270439,83.1771793 207.657781,82.665202 206.924994,82.1532247 L206.300323,82.7485471 C207.093174,83.2962438 207.705833,83.8082211 208.162323,84.2963855 Z M207.922065,87.3444366 L208.534723,86.7253012 C208.030181,86.1537916 207.393497,85.5703756 206.636684,84.9988661 L206.024026,85.5941885 C206.828891,86.2133239 207.465575,86.7967399 207.922065,87.3444366 Z M208.931149,92.892842 C209.603872,92.3451453 210.096401,91.6902906 210.384711,90.9282778 C210.648995,90.2019844 210.805163,89.0589653 210.853214,87.4992204 L210.012311,87.4992204 C209.964259,88.9041814 209.832117,89.9281361 209.603872,90.5591779 C209.363614,91.2021262 208.955175,91.7498228 208.378555,92.2141743 L208.931149,92.892842 Z M212.835344,92.6666194 L212.835344,87.5111269 L211.958402,87.5111269 L211.958402,92.6666194 L212.835344,92.6666194 Z M215.730454,92.7856839 C216.21097,92.761871 216.511293,92.6309001 216.655448,92.416584 C216.799603,92.178455 216.87168,91.5355067 216.87168,90.4877392 L216.114867,90.2019844 C216.114867,90.8330262 216.090841,91.2973777 216.04279,91.5831325 C216.018764,91.8450744 215.898635,91.9760454 215.682403,91.9998583 L215.153835,91.9998583 C214.997667,91.9760454 214.925589,91.8807938 214.925589,91.702197 L214.925589,87.5111269 L214.096699,87.5111269 L214.096699,91.8569809 C214.096699,92.4761162 214.43306,92.7856839 215.129809,92.7856839 L215.730454,92.7856839 Z M207.057136,92.7499646 C207.633755,91.4164422 208.15031,89.9876683 208.630827,88.4636428 L207.862001,88.1659816 C207.40551,89.6185684 206.876942,91.0235294 206.252271,92.4046775 L207.057136,92.7499646 Z M220.87398,92.8571226 L220.87398,87.487314 C221.210342,87.9278526 221.630793,88.5231751 222.11131,89.2613749 L222.591826,88.546988 C222.015206,87.8683203 221.438587,87.249185 220.87398,86.7014883 L220.87398,86.0704465 L222.423645,86.0704465 L222.423645,85.2489015 L220.87398,85.2489015 L220.87398,83.3795889 C221.474626,83.2605245 222.051245,83.1295535 222.591826,82.9747697 L222.291503,82.1651311 C221.138264,82.5223246 219.804832,82.77236 218.303218,82.9152374 L218.471399,83.724876 C219.01198,83.6653437 219.540548,83.593905 220.04509,83.5224663 L220.04509,85.2489015 L218.291205,85.2489015 L218.291205,86.0704465 L219.960999,86.0704465 C219.576586,87.4277817 218.927889,88.6303331 218.014909,89.6900071 L218.387309,90.642523 C219.072044,89.7019135 219.624638,88.654146 220.04509,87.487314 L220.04509,92.8571226 L220.87398,92.8571226 Z M228.237892,85.8680369 L228.237892,82.427073 L223.252536,82.427073 L223.252536,85.8680369 L228.237892,85.8680369 Z M227.396989,85.0941176 L224.105452,85.0941176 L224.105452,83.1890858 L227.396989,83.1890858 L227.396989,85.0941176 Z M229.042757,92.4761162 L229.042757,91.6664777 L226.135633,91.6664777 L226.135633,90.059107 L228.382047,90.059107 L228.382047,89.2851878 L226.135633,89.2851878 L226.135633,87.7611623 L228.754447,87.7611623 L228.754447,86.9753366 L222.784032,86.9753366 L222.784032,87.7611623 L225.246678,87.7611623 L225.246678,89.2851878 L223.060329,89.2851878 L223.060329,90.059107 L225.246678,90.059107 L225.246678,91.6664777 L222.303516,91.6664777 L222.303516,92.4761162 L229.042757,92.4761162 Z M239.604104,92.5713678 C240.036568,92.5594614 240.37293,92.4284904 240.613188,92.1903614 C240.865459,91.9046067 241.045652,91.0592488 241.153769,89.6781006 L240.324878,89.4161588 C240.276826,90.6306166 240.144684,91.3330971 239.952478,91.5355067 C239.808323,91.6783841 239.616117,91.7498228 239.387871,91.7498228 L237.585935,91.7498228 C237.225548,91.7498228 237.057367,91.5712261 237.057367,91.2259391 L237.057367,86.7133948 C238.30671,86.3800142 239.628129,85.8799433 241.009614,85.2012757 L240.493059,84.4987952 C239.375858,85.1060241 238.234632,85.5703756 237.057367,85.9037562 L237.057367,82.1294118 L236.180425,82.1294118 L236.180425,91.3807229 C236.180425,92.1665485 236.564838,92.5713678 237.333664,92.5713678 L239.604104,92.5713678 Z M231.303185,92.7261517 C232.816811,92.3927711 234.246347,92.0236712 235.567767,91.6069454 L235.339522,90.7973069 C234.294399,91.1425939 233.249276,91.4402551 232.19214,91.6783841 L232.19214,86.3442948 L235.279457,86.3442948 L235.279457,85.5108434 L232.19214,85.5108434 L232.19214,82.188944 L231.327211,82.188944 L231.327211,91.4164422 C231.327211,91.6426648 231.231108,91.8093551 231.038901,91.9284196 L231.303185,92.7261517 Z M245.732688,92.892842 L245.732688,90.2734231 C246.23723,90.1543586 246.729759,90.0352941 247.198263,89.9043232 L247.198263,89.0946846 C246.729759,89.2137491 246.23723,89.3447201 245.732688,89.4637845 L245.732688,87.8445074 L246.849888,87.8445074 L246.849888,87.0705882 L245.732688,87.0705882 L245.732688,85.2608079 L244.903797,85.2608079 L244.903797,87.0705882 L243.666468,87.0705882 C243.978804,86.296669 244.267113,85.4036853 244.531397,84.3797307 L246.849888,84.3797307 L246.849888,83.5462792 L244.735617,83.5462792 C244.843733,83.0938342 244.951849,82.6056697 245.047952,82.0936924 L244.243088,81.9627215 C244.134971,82.5104181 244.026855,83.0462084 243.918739,83.5462792 L242.609332,83.5462792 L242.609332,84.3797307 L243.71452,84.3797307 C243.42621,85.475124 243.113874,86.3800142 242.789526,87.0944011 L242.96972,87.8445074 L244.903797,87.8445074 L244.903797,89.6304748 C244.17101,89.7614458 243.390171,89.8805103 242.573294,89.9876683 L242.68141,90.8211198 C243.450236,90.7139617 244.195036,90.5948972 244.903797,90.4520198 L244.903797,92.892842 L245.732688,92.892842 Z M253.420948,84.3559178 L253.420948,83.5224663 L250.754083,83.5224663 C250.561876,82.9390503 250.357657,82.427073 250.141425,81.9746279 L249.276495,82.1175053 C249.504741,82.5461375 249.70896,83.010489 249.901167,83.5224663 L247.306379,83.5224663 L247.306379,84.3559178 L253.420948,84.3559178 Z M252.880367,88.1421687 L253.577116,87.6540043 C253.120625,86.8324592 252.459916,85.8680369 251.619012,84.7488306 L250.958302,85.1655563 C251.763167,86.2609497 252.399851,87.249185 252.880367,88.1421687 Z M247.714818,88.2255138 C248.399553,87.356343 249.000199,86.3323884 249.516754,85.1417434 L248.783966,84.7964564 C248.291437,85.9394755 247.702805,86.9158044 247.030082,87.7373494 L247.714818,88.2255138 Z M247.18625,92.9404678 C248.507669,92.5713678 249.564805,91.9284196 250.381683,91.011623 C251.102457,91.7498228 252.06349,92.3808646 253.240755,92.8809355 L253.685232,92.1189227 C252.544006,91.6307583 251.619012,91.0354359 250.910251,90.3210489 C251.474857,89.475691 251.871283,88.4398299 252.087516,87.2134656 L251.270638,87.0467753 C251.090444,88.0350106 250.778109,88.9041814 250.321618,89.6542877 C249.757012,88.892275 249.408637,88.0231042 249.264483,87.0467753 L248.507669,87.2729979 C248.687863,88.4279235 249.120328,89.4518781 249.805063,90.3567682 C249.04825,91.2259391 248.01514,91.833168 246.705733,92.1903614 L247.18625,92.9404678 Z M259.825829,92.8094968 C260.57063,92.8094968 260.955043,92.4403969 260.955043,91.702197 L260.955043,86.3800142 C262.360553,85.475124 263.621908,84.5226081 264.739108,83.5224663 L264.739108,82.6890149 L255.657351,82.6890149 L255.657351,83.5224663 L263.561843,83.5224663 C262.456656,84.4511694 261.303417,85.2608079 260.0781,85.951382 L260.0781,91.5474132 C260.0781,91.8450744 259.90992,91.9998583 259.585571,91.9998583 C258.912849,91.9998583 258.276164,91.9760454 257.687532,91.9284196 L257.92779,92.761871 C258.468371,92.7856839 259.105055,92.8094968 259.825829,92.8094968 Z M267.660247,93 C268.092711,92.2141743 268.369008,91.2259391 268.477124,90.0472006 L269.61835,90.0472006 L269.61835,92.7380581 L270.315099,92.7380581 L270.315099,90.0472006 L271.432299,90.0472006 L271.432299,91.702197 C271.432299,91.9879518 271.300157,92.1427356 271.035873,92.1427356 C270.843667,92.1427356 270.627434,92.1189227 270.399189,92.0951099 L270.603409,92.8094968 L271.288144,92.8094968 C271.864764,92.8094968 272.165086,92.523742 272.165086,91.9641389 L272.165086,84.8202693 L270.723538,84.8202693 C270.987822,84.4511694 271.264118,83.9987243 271.528402,83.4748405 L271.528402,82.8795181 L269.390105,82.8795181 C269.486208,82.6413891 269.594324,82.3794472 269.690428,82.1175053 L268.909589,81.9389086 C268.441085,83.1771793 267.852453,84.177321 267.131679,84.9393338 L267.660247,85.5703756 C267.696285,85.5227498 267.732324,85.4870305 267.780376,85.4394047 L267.780376,89.0946846 C267.768363,90.4520198 267.528105,91.5831325 267.071614,92.4642098 L267.660247,93 Z M273.09008,86.2847626 C273.702738,85.8799433 274.171242,85.4155918 274.483577,84.9155209 C274.711823,84.4987952 274.892016,84.0106308 275.012145,83.4629341 L276.778043,83.4629341 C276.754017,84.3201984 276.705965,84.8559887 276.633888,85.0583983 C276.549797,85.2608079 276.345578,85.367966 276.009217,85.3798724 C275.73292,85.367966 275.384545,85.3441531 274.976107,85.3203402 L275.180326,86.0347271 C275.564739,86.05854 275.9011,86.0823529 276.18941,86.0823529 C276.705965,86.0823529 277.066352,85.9156627 277.282585,85.606095 C277.498817,85.2846208 277.606933,84.3201984 277.606933,82.7009213 L272.597551,82.7009213 L272.597551,83.4629341 L274.195268,83.4629341 C274.111177,83.8558469 273.979035,84.2011339 273.798842,84.5107016 C273.534558,84.9393338 273.126119,85.3203402 272.585538,85.6299079 L273.09008,86.2847626 Z M269.846596,84.8202693 L268.284918,84.8202693 C268.549202,84.4392629 268.813486,84.0344437 269.053744,83.5819986 L270.615422,83.5819986 C270.351138,84.0463501 270.098867,84.4630758 269.846596,84.8202693 Z M271.432299,87.0467753 L270.315099,87.0467753 L270.315099,85.5584692 L271.432299,85.5584692 L271.432299,87.0467753 Z M269.61835,87.0467753 L268.525176,87.0467753 L268.525176,85.5584692 L269.61835,85.5584692 L269.61835,87.0467753 Z M275.961165,92.9404678 L275.961165,90.6068037 L278.003359,90.6068037 L278.003359,89.8328845 L275.961165,89.8328845 L275.961165,88.3802977 L277.751088,88.3802977 L277.751088,87.6063785 L275.961165,87.6063785 L275.961165,86.4990787 L275.120261,86.4990787 L275.120261,87.6063785 L274.015074,87.6063785 C274.087151,87.3325301 274.159229,87.0348689 274.231306,86.7133948 L273.510532,86.5824238 C273.330338,87.5349398 272.981964,88.2850461 272.453396,88.8565556 L272.957938,89.4637845 C273.246248,89.1542169 273.486506,88.7970234 273.702738,88.3802977 L275.120261,88.3802977 L275.120261,89.8328845 L272.501448,89.8328845 L272.501448,90.6068037 L275.120261,90.6068037 L275.120261,92.9404678 L275.961165,92.9404678 Z M269.61835,89.3209072 L268.513163,89.3209072 L268.525176,89.0470588 L268.525176,89.0470588 L268.525176,87.7611623 L269.61835,87.7611623 L269.61835,89.3209072 Z M271.432299,89.3209072 L270.315099,89.3209072 L270.315099,87.7611623 L271.432299,87.7611623 L271.432299,89.3209072 Z M288.012112,92.761871 C289.021196,92.761871 289.57379,92.2975195 289.693919,91.3926293 C289.814048,90.4639263 289.874113,88.0111977 289.874113,84.0582566 L286.041996,84.0582566 C286.258228,83.4391212 286.426409,82.77236 286.570563,82.0698795 L285.717647,81.9627215 C285.405311,83.6534373 284.840705,85.0822112 283.999801,86.2490432 L284.516356,86.9277108 C284.98486,86.3204819 285.381286,85.6418143 285.717647,84.891708 L289.021196,84.891708 C288.997171,88.3207654 288.949119,90.3805811 288.877041,91.0473423 C288.780938,91.6545712 288.45659,91.9641389 287.891983,91.9641389 C287.519583,91.9641389 287.087118,91.9522325 286.582576,91.9284196 L286.786796,92.7142452 C287.363415,92.7380581 287.771854,92.761871 288.012112,92.761871 Z M280.636188,92.5118356 L280.636188,91.4878809 L282.822537,91.4878809 L282.822537,92.1665485 L283.66344,92.1665485 L283.66344,84.0463501 L281.729362,84.0463501 C281.96962,83.4510276 282.149814,82.7961729 282.293969,82.0936924 L281.429039,81.9746279 C281.320923,82.6890149 281.152743,83.3795889 280.912484,84.0463501 L279.795284,84.0463501 L279.795284,92.5118356 L280.636188,92.5118356 Z M282.822537,87.3087172 L280.636188,87.3087172 L280.636188,84.8559887 L282.822537,84.8559887 L282.822537,87.3087172 Z M287.039067,89.8805103 L287.723802,89.4042523 C287.267312,88.6660524 286.618615,87.7968816 285.753686,86.8086464 L285.056937,87.2372785 C285.885828,88.2136074 286.546538,89.0946846 287.039067,89.8805103 Z M282.822537,90.6901488 L280.636188,90.6901488 L280.636188,88.0826364 L282.822537,88.0826364 L282.822537,90.6901488 Z M292.218632,92.7975904 C292.987458,91.7974486 293.431935,90.535365 293.564077,89.0113395 L296.663407,89.0113395 L296.663407,92.4999291 L297.552362,92.4999291 L297.552362,89.0113395 L300.819873,89.0113395 L300.819873,91.0830617 C300.819873,91.5831325 300.591627,91.833168 300.159163,91.833168 C299.750724,91.833168 299.306246,91.8093551 298.82573,91.7855422 L299.053975,92.6309001 L300.43546,92.6309001 C301.276363,92.6309001 301.696815,92.2141743 301.696815,91.3807229 L301.696815,82.4627923 L292.747199,82.4627923 L292.747199,88.177888 C292.723174,89.8090716 292.326748,91.1545004 291.557922,92.2141743 L292.218632,92.7975904 Z M300.819873,85.3441531 L297.552362,85.3441531 L297.552362,83.2962438 L300.819873,83.2962438 L300.819873,85.3441531 Z M296.663407,85.3441531 L293.612129,85.3441531 L293.612129,83.2962438 L296.663407,83.2962438 L296.663407,85.3441531 Z M296.663407,88.2255138 L293.612129,88.2255138 L293.612129,86.1418852 L296.663407,86.1418852 L296.663407,88.2255138 Z M300.819873,88.2255138 L297.552362,88.2255138 L297.552362,86.1418852 L300.819873,86.1418852 L300.819873,88.2255138 Z M304.329643,92.9523742 C305.410805,91.4164422 305.975412,89.582849 306.035476,87.4515946 L313.771788,87.4515946 L313.771788,83.4510276 L309.975709,83.4510276 C309.759477,82.8795181 309.543245,82.3675408 309.327012,81.9150957 L308.402019,82.0579731 C308.65429,82.4866052 308.882535,82.9509568 309.098767,83.4510276 L305.18256,83.4510276 L305.18256,87.1777463 C305.158534,89.3090007 304.666005,91.0473423 303.692959,92.3808646 L304.329643,92.9523742 Z M312.894846,86.6181432 L306.035476,86.6181432 L306.035476,84.2963855 L312.894846,84.2963855 L312.894846,86.6181432 Z" id="喜欢多种玩法，对竞猜流程比较了解的用户" fill="#FFFFFF" fill-rule="nonzero"></path>
        <text id="老鸟版" font-family="PingFangSC-Regular, PingFang SC" font-size="10" font-weight="normal" line-spacing="12" letter-spacing="0.191666643" fill="#FFFFFF">
            <tspan x="251" y="48">老鸟版</tspan>
        </text>
        <g id="编组" transform="translate(257.000000, 15.000000)" fill-rule="nonzero">
            <g id="资源-3" transform="translate(0.000000, 2.000000)">
                <g id="编组" opacity="0.7">
                    <path d="M2.49361702,0.455319149 C1.74042553,1.57446809 -0.565957447,5.56170213 1.43404255,10.093617 C2.02152055,11.4048295 3.32489783,12.2481912 4.76170213,12.2468102 L4.95319149,12.2468102 C4.95319149,12.2468102 4.70638298,2.49787234 3.40425532,0.463829787 C3.30500027,0.309503635 3.1347138,0.215523112 2.95123305,0.213784471 C2.7677523,0.212093565 2.59573908,0.302875026 2.49361702,0.455319149 Z" id="路径" fill="#BF6350"></path>
                    <path d="M5.17021277,12.4596105 L4.74468085,12.4596105 C3.22261242,12.4661532 1.84111557,11.5707695 1.22553191,10.1787234 C-0.804255319,5.55319149 1.54468085,1.47659574 2.31489362,0.336170213 L2.31489362,0.336170213 C2.46934027,0.124005729 2.71629928,-0.00105684569 2.9787234,-6.64492744e-06 C3.22685821,0.00826167572 3.45477156,0.138953246 3.58723404,0.34893617 C4.90212766,2.40851064 5.15744681,11.8382979 5.16595745,12.2382979 L5.17021277,12.4596105 Z M2.94893617,0.425507067 C2.83627699,0.424980212 2.73083139,0.480898332 2.66808511,0.574468085 L2.66808511,0.574468085 C1.93191489,1.66808511 -0.310638298,5.58297872 1.62978723,10.0042553 C2.17307969,11.2353284 3.39054863,12.0308526 4.73617021,12.0340426 C4.68085106,10.5829787 4.37446809,2.37446809 3.22978723,0.578723404 C3.17113952,0.482367371 3.06598363,0.424127182 2.95319149,0.425507067 L2.94893617,0.425507067 Z" id="形状" fill="#000000"></path>
                </g>
                <g id="编组" opacity="0.7" transform="translate(14.893617, 0.000000)">
                    <path d="M2.87659574,0.455319149 C3.62978723,1.57446809 5.93191489,5.56170213 3.93191489,10.093617 C3.3453,11.4055693 2.04138086,12.2492817 0.604255319,12.2468139 L0.425531915,12.2468139 C0.425531915,12.2468139 0.659574468,2.49787234 1.95744681,0.463829787 C2.05737311,0.307694361 2.22935192,0.212538796 2.41471802,0.210798832 C2.60008412,0.20910609 2.77379542,0.301060821 2.87659574,0.455319149 Z" id="路径" fill="#BF6350"></path>
                    <path d="M0.604255319,12.4595809 L0.178723404,12.4595809 L0.178723404,12.2382979 C0.178723404,11.8382979 0.442553191,2.40851064 1.75744681,0.34893617 C1.89861864,0.126884005 2.14543743,-0.00539796322 2.40851064,0 C2.66516686,-0.00133732743 2.90581484,0.124564597 3.05106383,0.336170213 C3.82978723,1.47659574 6.17021277,5.55319149 4.12765957,10.1787234 C3.50709173,11.5684588 2.12624784,12.4623384 0.604255319,12.4595809 Z M2.41702128,0.425480491 L2.41702128,0.425480491 C2.30444375,0.424972809 2.1996762,0.482997911 2.14042553,0.578723404 C0.995744681,2.37446809 0.685106383,10.5829787 0.638297872,12.0340426 C1.98237447,12.0291739 3.19775986,11.2339218 3.74042553,10.0042553 C5.69787234,5.58297872 3.44255319,1.66808511 2.70212766,0.574468085 L2.70212766,0.574468085 C2.63855179,0.47962656 2.5311827,0.423538228 2.41702128,0.425480491 Z" id="形状" fill="#000000"></path>
                </g>
                <path d="M3.70638298,4.43829787 L3.18297872,9.54468085 C3.12582325,10.0344488 3.280666,10.5253003 3.60851064,10.893617 L6.6893617,14.2978723 C6.91572364,14.5477137 7.23733302,14.689964 7.57446809,14.6894583 L13.0042553,14.6894583 C13.3628756,14.6939075 13.7047304,14.5378094 13.9361702,14.2638298 L16.7489362,10.787234 C17.0286651,10.4394414 17.1655876,9.9982467 17.1319149,9.55319149 L16.7361702,4.41276596 C16.7285343,4.19212772 16.6354593,3.98309052 16.4765957,3.82978723 C15.3446809,2.7787234 10.3191489,-1.27659574 4.01702128,3.85531915 C3.83920681,3.99989528 3.72721397,4.21007361 3.70638298,4.43829787 Z" id="路径" fill="#FF4000"></path>
                <path d="M13.0042553,14.893617 L7.59574468,14.893617 C7.20427235,14.9023824 6.82672091,14.7482798 6.55319149,14.4680851 L3.47234043,11.0638298 C3.09906972,10.6490873 2.91961955,10.095267 2.9787234,9.54042553 L3.50212766,4.43404255 C3.53135779,4.15026708 3.67031696,3.88914601 3.8893617,3.70638298 C6.6212766,1.47659574 9.4212766,0.676595745 12.2425532,1.32765957 C13.8844959,1.73422329 15.3949164,2.55462626 16.6297872,3.7106383 C16.8221474,3.89255681 16.9391009,4.14013372 16.9574468,4.40425532 L17.3531915,9.54468085 C17.3931933,10.0431035 17.2409365,10.537938 16.9276596,10.9276596 L14.1148936,14.4042553 C13.837177,14.7261869 13.4292434,14.9059277 13.0042553,14.893617 Z M10.3744681,1.50638298 C8.56170213,1.50638298 6.45106383,2.14468085 4.14893617,4.0212766 C4.02155935,4.12918161 3.93951412,4.28111721 3.91914894,4.44680851 L3.40425532,9.58297872 C3.36162887,10.0162082 3.5037852,10.4473127 3.79574468,10.7702128 L6.87659574,14.1744681 C7.06330193,14.3792129 7.32716739,14.4964864 7.60425532,14.4978843 L13.0042553,14.4978843 C13.3020835,14.4993481 13.5842341,14.3645428 13.7702128,14.1319149 L16.5957447,10.6382979 C16.8416791,10.3341435 16.9619543,9.94743561 16.9319149,9.55744681 L16.5361702,4.41702128 C16.5280574,4.25528651 16.457956,4.10289201 16.3404255,3.99148936 C15.506383,3.22553191 13.3489362,1.50638298 10.3744681,1.50638298 Z" id="形状" fill="#000000"></path>
                <path d="M6.1106383,5.5020937 C5.04780541,5.49620651 4.13899614,6.26522996 3.96896014,7.31438989 C3.79892414,8.36354982 4.41832378,9.38024812 5.4286225,9.71031675 C6.43892122,10.0403854 7.53909964,9.5854801 8.0212766,8.63829787 L12.3106383,8.63829787 C12.7941008,9.58050757 13.8909289,10.0312798 14.8972222,9.7013269 C15.9035155,9.37137404 16.5204841,8.35866618 16.3521822,7.31311868 C16.1838803,6.26757117 15.2802803,5.49962941 14.2212766,5.5020937 L6.1106383,5.5020937 Z" id="路径" fill="#FFFFFF"></path>
                <circle id="椭圆形" fill="#000000" cx="7.09787234" cy="7.50212766" r="1.08510638"></circle>
                <circle id="椭圆形" fill="#000000" cx="13.212766" cy="7.50212766" r="1.08510638"></circle>
                <rect id="矩形" fill="#000000" x="7.55744681" y="7.00425532" width="5.20425532" height="1"></rect>
            </g>
        </g>
        <g id="编组" transform="translate(100.000000, 18.000000)" fill-rule="nonzero">
            <g id="资源-4" transform="translate(0.000000, 2.000000)">
                <path d="M19.4085106,8.16170213 C19.4085106,12.5489362 14.8042553,14.412766 9.50638298,14.412766 C4.20851064,14.412766 0.212765957,12.5489362 0.212765957,8.16170213 C0.212765957,3.77446809 4.5106383,0.212765957 9.81276596,0.212765957 C15.1148936,0.212765957 19.4085106,3.77021277 19.4085106,8.16170213 Z" id="路径" fill="#FFFFFF"></path>
                <path d="M9.50638298,14.6255319 C3.46382979,14.6255319 0,12.2680851 0,8.16170213 C0,3.65957447 4.4,0 9.81276596,0 C15.2255319,0 19.6212766,3.65957447 19.6212766,8.16170213 C19.6212766,12.9276596 14.3957447,14.6255319 9.50638298,14.6255319 Z M9.81276596,0.425531915 C4.63829787,0.425531915 0.425531915,3.89361702 0.425531915,8.16170213 C0.425531915,13.6170213 6.77446809,14.2 9.50638298,14.2 C15.5744681,14.2 19.1957447,11.9404255 19.1957447,8.16170213 C19.1957447,3.89361702 14.987234,0.425531915 9.81276596,0.425531915 Z" id="形状" fill="#000000"></path>
                <path d="M13.8425532,6.25106383 C13.2580662,6.25031891 12.7409309,6.62955146 12.5659574,7.18723404 L7.03404255,7.18723404 C6.82544262,6.56413447 6.1959197,6.18411299 5.54738312,6.28978852 C4.89884655,6.39546404 4.42252961,6.95567616 4.42252961,7.61276596 C4.42252961,8.26985576 4.89884655,8.83006787 5.54738312,8.9357434 C6.1959197,9.04141893 6.82544262,8.66139744 7.03404255,8.03829787 L12.5659574,8.03829787 C12.8002654,8.67338507 13.4713185,9.03410248 14.1302848,8.87918523 C14.7892512,8.72426797 15.2292933,8.10234169 15.1560903,7.42938012 C15.0828874,6.75641856 14.5194163,6.24365181 13.8425532,6.23404255 L13.8425532,6.25106383 Z" id="路径" fill="#000000"></path>
            </g>
        </g>
    </g>
</svg>