<?xml version="1.0" encoding="UTF-8"?>
<svg width="16px" height="16px" viewBox="0 0 16 16" version="1.1" xmlns="http://www.w3.org/2000/svg" xmlns:xlink="http://www.w3.org/1999/xlink">
    <!-- Generator: Sketch 55.2 (78181) - https://sketchapp.com -->
    <title>radio_guide_green_selected</title>
    <desc>Created with Sketch.</desc>
    <g id="radio_guide_green_selected" stroke="none" stroke-width="1" fill="none" fill-rule="evenodd">
        <g id="form/radio/selected" fill="#68CA89">
            <path d="M8,16 C3.581722,16 0,12.418278 0,8 C0,3.581722 3.581722,0 8,0 C12.418278,0 16,3.581722 16,8 C16,12.418278 12.418278,16 8,16 Z M4.77465886,8.22874863 C4.44989679,8 4.10280288,8.09731146 3.99464784,8.22874863 C3.88649281,8.3601858 3.93732393,8.75481013 4.1880282,9.02733138 L6.7346884,11.7956091 C6.98515692,12.0678741 7.39116329,12.0681675 7.64196471,11.7962649 L12.9195921,5.86781895 C13.1706296,5.5956604 13.2305147,5.41867878 13.084758,5.25814306 C12.9390012,5.09760734 12.6450947,5.17612753 12.3940572,5.44828608 L7.27490162,9.64113056 L4.77465886,8.22874863 Z" id="形状结合"></path>
        </g>
    </g>
</svg>