<?xml version="1.0" encoding="UTF-8"?>
<svg width="150px" height="99px" viewBox="0 0 150 99" version="1.1" xmlns="http://www.w3.org/2000/svg" xmlns:xlink="http://www.w3.org/1999/xlink">
    <title>img_all_empty_wifi_black</title>
    <defs>
        <linearGradient x1="57.8707456%" y1="12.6204006%" x2="42.2448094%" y2="85.7950228%" id="linearGradient-1">
            <stop stop-color="#F5E1C4" offset="0%"></stop>
            <stop stop-color="#E0A66C" offset="100%"></stop>
        </linearGradient>
    </defs>
    <g id="C-直播页" stroke="none" stroke-width="1" fill="none" fill-rule="evenodd">
        <g id="4.1D发现-爆料-排行榜-团战命中榜备份-3" transform="translate(-113.000000, -280.000000)" fill="#FFFFFF" fill-rule="nonzero">
            <g id="img_all_empty_wifi_black" transform="translate(113.082095, 280.266858)">
                <path d="M42.3025202,70.3869884 C42.571751,70.579296 42.8409818,70.7331422 43.1486741,70.8869884 C43.2255972,70.9254499 43.3409818,70.9639114 43.4179049,71.002373 L43.571751,40.3100653 L43.9179049,44.002373 C43.9179049,44.1946807 44.071751,44.3485268 44.2640587,44.502373 C44.3409818,44.579296 44.4563664,44.6177576 44.571751,44.6562191 C44.6871356,44.6946807 44.8025202,44.7331422 44.9179049,44.7716037 C44.9179049,44.7716037 44.9179049,44.7716037 44.9179049,44.7716037 C45.0332895,44.8100653 45.1871356,44.8100653 45.3025202,44.8485268 C45.3025202,44.8485268 45.3025202,44.8485268 45.3409818,44.8485268 C45.4948279,44.8485268 45.6102126,44.8869884 45.7640587,44.8869884 C46.5332895,44.8869884 47.3025202,44.8869884 48.071751,44.9254499 C48.1486741,44.9254499 48.2255972,44.9254499 48.3025202,44.9254499 C48.3409818,44.9254499 48.4179049,44.9254499 48.4563664,44.9254499 C49.071751,44.9254499 49.6486741,44.9639114 50.2640587,45.002373 C50.3794433,45.002373 50.4948279,45.002373 50.6102126,45.002373 C51.1102126,45.0408345 51.6102126,45.0408345 52.1102126,45.079296 C52.1871356,45.079296 52.3025202,45.079296 52.3794433,45.079296 C52.4563664,45.079296 52.5332895,45.079296 52.6102126,45.079296 C53.1486741,45.1177576 53.6486741,45.1562191 54.1486741,45.1946807 C54.2255972,45.1946807 54.3025202,45.1946807 54.3794433,45.1946807 C54.9563664,45.2331422 55.5332895,45.3100653 56.1102126,45.3485268 C56.1486741,45.3485268 56.2255972,45.3485268 56.2640587,45.3485268 C56.3794433,45.3485268 56.4563664,45.3869884 56.571751,45.3869884 C57.0332895,45.4254499 57.4948279,45.502373 57.9179049,45.5408345 C58.071751,45.579296 58.2255972,45.579296 58.3794433,45.6177576 C58.9563664,45.6946807 59.5332895,45.7716037 60.071751,45.8485268 C60.071751,45.8485268 60.1102126,45.8485268 60.1102126,45.8485268 C60.1871356,45.8485268 60.2255972,45.8869884 60.3025202,45.8869884 C60.8025202,45.9639114 61.3409818,46.0408345 61.8409818,46.1177576 C61.9948279,46.1562191 62.1486741,46.1562191 62.3025202,46.1946807 C62.8409818,46.3100653 63.3794433,46.3869884 63.9179049,46.502373 C63.9563664,46.502373 63.9563664,46.502373 63.9948279,46.502373 C63.9948279,46.502373 63.9948279,46.502373 63.9948279,46.502373 C64.6102126,46.6177576 65.1871356,46.7331422 65.8025202,46.8869884 C65.9563664,46.9254499 66.071751,46.9639114 66.2255972,46.9639114 C66.8025202,47.079296 67.4179049,47.2331422 67.9948279,47.3869884 C67.9948279,47.3869884 67.9948279,47.3869884 68.0332895,47.3869884 C68.071751,47.3869884 68.071751,47.3869884 68.1102126,47.3869884 C68.7640587,47.5408345 69.4179049,47.7331422 70.0332895,47.8869884 C70.1102126,47.9254499 70.2255972,47.9254499 70.3025202,47.9639114 C70.9179049,48.1562191 71.5332895,48.3100653 72.1486741,48.502373 C72.2255972,48.502373 72.2640587,48.5408345 72.3409818,48.5408345 C72.3794433,48.5408345 72.4179049,48.579296 72.4948279,48.579296 C73.2640587,48.8100653 73.9948279,49.079296 74.7255972,49.3485268 C74.8025202,49.3869884 74.8794433,49.4254499 74.9948279,49.4254499 C75.7255972,49.6946807 76.4563664,49.9639114 77.1871356,50.2716037 C77.2255972,50.2716037 77.2640587,50.3100653 77.3025202,50.3100653 C77.3409818,50.3100653 77.3794433,50.3485268 77.4179049,50.3485268 C77.6102126,50.4254499 77.8025202,50.502373 77.9948279,50.6177576 C78.1486741,50.6946807 78.3409818,50.7716037 78.4948279,50.8485268 C78.6871356,50.9254499 78.8794433,51.0408345 79.071751,51.1177576 C79.2255972,51.1946807 79.4179049,51.2716037 79.571751,51.3485268 C79.7640587,51.4254499 79.9563664,51.5408345 80.1486741,51.6177576 C80.3025202,51.6946807 80.4563664,51.7716037 80.6102126,51.8485268 C80.8025202,51.9254499 80.9948279,52.0408345 81.1871356,52.1562191 C81.3409818,52.2331422 81.4948279,52.3100653 81.6486741,52.3869884 C81.8409818,52.502373 82.0332895,52.579296 82.2255972,52.6946807 C82.3794433,52.7716037 82.4948279,52.8485268 82.6486741,52.9254499 C82.8409818,53.0408345 83.0332895,53.1562191 83.2255972,53.2716037 C83.3409818,53.3485268 83.4948279,53.4254499 83.6102126,53.502373 C83.8025202,53.6177576 83.9948279,53.7331422 84.2255972,53.8869884 C84.3409818,53.9639114 84.4563664,54.0408345 84.571751,54.079296 C84.8794433,54.2716037 85.1871356,54.4639114 85.4563664,54.6562191 C91.7255972,58.8869884 94.9563664,63.9254499 94.9563664,69.002373 L94.9179049,77.6946807 L100.764059,78.7716037 C100.879443,78.8100653 100.994828,78.8100653 101.110213,78.8100653 C101.110213,78.8100653 101.110213,78.8100653 101.110213,78.8100653 C101.225597,78.8100653 101.340982,78.8100653 101.456366,78.8100653 C101.456366,78.8100653 101.456366,78.8100653 101.494828,78.8100653 C101.610213,78.8100653 101.725597,78.8100653 101.840982,78.7716037 C101.840982,78.7716037 101.840982,78.7716037 101.840982,78.7716037 C101.840982,78.7716037 101.840982,78.7716037 101.840982,78.7716037 C101.956366,78.7716037 102.071751,78.7331422 102.148674,78.6946807 C102.30252,78.6562191 102.417905,78.6177576 102.571751,78.579296 C102.610213,78.579296 102.648674,78.5408345 102.687136,78.5408345 C102.725597,78.5408345 102.764059,78.502373 102.80252,78.502373 C102.879443,78.4639114 102.917905,78.4254499 102.994828,78.3869884 C102.994828,78.3869884 102.994828,78.3869884 102.994828,78.3869884 C103.071751,78.3485268 103.110213,78.2716037 103.148674,78.2331422 C103.379443,77.8869884 103.571751,77.579296 103.764059,77.2331422 C103.80252,77.1562191 103.840982,77.079296 103.917905,77.002373 C104.033289,76.8100653 104.148674,76.6177576 104.225597,76.3869884 C104.340982,76.1946807 104.456366,75.9639114 104.533289,75.7716037 C104.610213,75.579296 104.687136,75.4254499 104.764059,75.2331422 C104.840982,75.0408345 104.956366,74.8100653 105.033289,74.6177576 C105.110213,74.4254499 105.187136,74.2716037 105.225597,74.079296 C105.30252,73.8869884 105.379443,73.6562191 105.417905,73.4639114 C105.456366,73.2716037 105.533289,73.1177576 105.571751,72.9254499 C105.610213,72.7331422 105.687136,72.502373 105.725597,72.3100653 C105.764059,72.1177576 105.80252,71.9639114 105.840982,71.7716037 C105.879443,71.5408345 105.917905,71.3100653 105.956366,71.079296 C105.994828,70.8869884 105.994828,70.7331422 106.033289,70.5408345 C106.071751,70.3100653 106.071751,70.079296 106.071751,69.8485268 C106.071751,69.579296 106.110213,69.3485268 106.110213,69.079296 L106.071751,79.502373 C113.494828,71.2331422 117.995671,60.2716037 117.995671,48.2716037 C118.148674,22.6177576 97.2255972,1.65621912 71.4563664,1.65621912 C45.6871356,1.65621912 24.7255972,22.6177576 24.7255972,48.4639114 C24.7255972,62.1946807 30.6102126,74.5408345 40.0332895,83.1177576 L40.1102126,67.079296 C40.1102126,68.2331422 40.8409818,69.3869884 42.3025202,70.3869884 Z" id="路径" opacity="0.100000001"></path>
                <path d="M92.9563664,77.3869884 C93.071751,77.4639114 93.1871356,77.502373 93.3025202,77.579296 C93.3025202,77.579296 93.3409818,77.579296 93.3409818,77.579296 C93.4948279,77.6177576 93.6486741,77.6562191 93.8025202,77.6946807 L94.9948279,77.9254499 L95.0336289,69.2331422 C95.071751,64.1562191 91.8409818,59.1177576 85.5332895,54.8869884 C85.2255972,54.6946807 84.9563664,54.502373 84.6486741,54.3100653 C84.5332895,54.2331422 84.4179049,54.1562191 84.3025202,54.1177576 C84.1102126,54.002373 83.9179049,53.8869884 83.6871356,53.7331422 C83.571751,53.6562191 83.4179049,53.579296 83.3025202,53.502373 C83.1102126,53.3869884 82.9179049,53.2716037 82.7255972,53.1562191 C82.571751,53.079296 82.4563664,53.002373 82.3025202,52.9254499 C82.1102126,52.8100653 81.9179049,52.7331422 81.7255972,52.6177576 C81.571751,52.5408345 81.4179049,52.4639114 81.2640587,52.3869884 C81.071751,52.2716037 80.8794433,52.1946807 80.6871356,52.079296 C80.5332895,52.002373 80.3794433,51.9254499 80.2255972,51.8485268 C80.0332895,51.7716037 79.8409818,51.6562191 79.6486741,51.579296 C79.4948279,51.502373 79.3025202,51.4254499 79.1486741,51.3485268 C78.9563664,51.2716037 78.7640587,51.1562191 78.571751,51.079296 C78.4179049,51.002373 78.2255972,50.9254499 78.071751,50.8485268 C77.8794433,50.7716037 77.6871356,50.6946807 77.4948279,50.579296 C77.4563664,50.579296 77.4179049,50.5408345 77.3794433,50.5408345 C77.3409818,50.5408345 77.3025202,50.502373 77.2640587,50.502373 C76.5332895,50.1946807 75.8025202,49.9254499 75.071751,49.6562191 C74.9948279,49.6177576 74.9179049,49.579296 74.8025202,49.579296 C74.071751,49.3100653 73.3025202,49.079296 72.571751,48.8100653 C72.5332895,48.8100653 72.4948279,48.7716037 72.4179049,48.7716037 C72.3409818,48.7716037 72.3025202,48.7331422 72.2255972,48.7331422 C71.6102126,48.5408345 70.9948279,48.3485268 70.3794433,48.1946807 C70.3025202,48.1562191 70.1871356,48.1562191 70.1102126,48.1177576 C69.4563664,47.9254499 68.8409818,47.7716037 68.1871356,47.6177576 C68.1486741,47.6177576 68.1486741,47.6177576 68.1102126,47.6177576 C68.1102126,47.6177576 68.1102126,47.6177576 68.071751,47.6177576 C67.4948279,47.4639114 66.9179049,47.3485268 66.3025202,47.1946807 C66.1486741,47.1562191 66.0332895,47.1177576 65.8794433,47.1177576 C65.3025202,47.002373 64.6871356,46.8485268 64.071751,46.7331422 C64.071751,46.7331422 64.071751,46.7331422 64.071751,46.7331422 C64.0332895,46.7331422 64.0332895,46.7331422 63.9948279,46.7331422 C63.4563664,46.6177576 62.9179049,46.5408345 62.3794433,46.4254499 C62.2255972,46.3869884 62.071751,46.3869884 61.9179049,46.3485268 C61.4179049,46.2716037 60.9179049,46.1946807 60.3794433,46.1177576 C60.3025202,46.1177576 60.2640587,46.079296 60.1871356,46.079296 C60.1871356,46.079296 60.1486741,46.079296 60.1486741,46.079296 C59.571751,46.002373 58.9948279,45.9254499 58.4563664,45.8485268 C58.3025202,45.8100653 58.1486741,45.8100653 57.9948279,45.7716037 C57.5332895,45.7331422 57.1102126,45.6562191 56.6486741,45.6177576 C56.5332895,45.6177576 56.4563664,45.579296 56.3409818,45.579296 C56.3025202,45.579296 56.2255972,45.579296 56.1871356,45.579296 C55.6102126,45.502373 55.0332895,45.4639114 54.4563664,45.4254499 C54.3794433,45.4254499 54.3025202,45.4254499 54.2255972,45.4254499 C53.7255972,45.3869884 53.1871356,45.3485268 52.6871356,45.3100653 C52.6102126,45.3100653 52.5332895,45.3100653 52.4563664,45.3100653 C52.3794433,45.3100653 52.2640587,45.3100653 52.1871356,45.3100653 C51.6871356,45.2716037 51.1871356,45.2331422 50.6871356,45.2331422 C50.571751,45.2331422 50.4563664,45.2331422 50.3409818,45.2331422 C49.7255972,45.1946807 49.1486741,45.1946807 48.5332895,45.1562191 C48.4948279,45.1562191 48.4179049,45.1562191 48.3794433,45.1562191 C48.3025202,45.1562191 48.2255972,45.1562191 48.1486741,45.1562191 C47.3794433,45.1562191 46.6102126,45.1177576 45.8409818,45.1177576 C45.6871356,45.1177576 45.5332895,45.1177576 45.4179049,45.079296 C45.4179049,45.079296 45.4179049,45.079296 45.3794433,45.079296 C45.2255972,45.079296 45.1102126,45.0408345 44.9948279,45.002373 C44.9948279,45.002373 44.9948279,45.002373 44.9948279,45.002373 C44.8794433,44.9639114 44.7640587,44.9254499 44.6486741,44.8869884 C44.5332895,44.8485268 44.4179049,44.7716037 44.3409818,44.7331422 C44.1486741,44.579296 43.9948279,44.4254499 43.9948279,44.2331422 L43.6486741,40.5408345 L43.4948279,71.2331422 C43.4948279,71.2331422 43.4948279,71.2331422 43.5332895,71.2331422 C43.7255972,71.3485268 43.9563664,71.4254499 44.1871356,71.5408345 C44.3025202,71.579296 44.4179049,71.6177576 44.5332895,71.6946807 C44.6871356,71.7331422 44.8025202,71.8100653 44.9563664,71.8485268 L45.0332895,54.7716037 C45.0332895,54.9639114 45.1871356,55.1177576 45.3794433,55.2716037 C45.4563664,55.3485268 45.571751,55.3869884 45.6871356,55.4254499 C45.8025202,55.4639114 45.8794433,55.502373 45.9948279,55.5408345 C45.9948279,55.5408345 45.9948279,55.5408345 46.0332895,55.5408345 C46.1486741,55.579296 46.2640587,55.579296 46.4179049,55.6177576 C46.4179049,55.6177576 46.4179049,55.6177576 46.4563664,55.6177576 C46.6102126,55.6177576 46.7255972,55.6562191 46.8794433,55.6562191 C47.1102126,55.6562191 47.3409818,55.6562191 47.5332895,55.6562191 C47.6486741,55.6562191 47.7255972,55.6562191 47.8409818,55.6562191 C48.4179049,55.6562191 48.9948279,55.6946807 49.571751,55.7331422 C49.6486741,55.7331422 49.7255972,55.7331422 49.8409818,55.7331422 C49.8794433,55.7331422 49.8794433,55.7331422 49.9179049,55.7331422 C50.571751,55.7716037 51.2255972,55.8485268 51.8794433,55.8869884 C51.9179049,55.8869884 51.9948279,55.8869884 52.071751,55.8869884 C52.1871356,55.8869884 52.2640587,55.9254499 52.3794433,55.9254499 C52.9179049,56.002373 53.4179049,56.0408345 53.9563664,56.1177576 C54.071751,56.1177576 54.1486741,56.1562191 54.2640587,56.1562191 C54.3025202,56.1562191 54.3794433,56.1562191 54.4179049,56.1946807 C55.071751,56.3100653 55.7255972,56.3869884 56.3409818,56.5408345 C56.3794433,56.5408345 56.4179049,56.5408345 56.4563664,56.579296 C56.5332895,56.579296 56.6102126,56.6177576 56.6871356,56.6177576 C57.3025202,56.7331422 57.8794433,56.8869884 58.4948279,57.002373 C58.571751,57.002373 58.6486741,57.0408345 58.7255972,57.0408345 C58.7640587,57.0408345 58.8409818,57.079296 58.8794433,57.079296 C59.0332895,57.1177576 59.2255972,57.1562191 59.3794433,57.1946807 C59.6486741,57.2716037 59.9179049,57.3485268 60.1871356,57.4254499 C60.3794433,57.4639114 60.5332895,57.5408345 60.7255972,57.579296 C60.8794433,57.6177576 61.0332895,57.6562191 61.1486741,57.6946807 C61.2255972,57.7331422 61.3025202,57.7716037 61.4179049,57.7716037 C61.6871356,57.8485268 61.9563664,57.9639114 62.2255972,58.0408345 C62.4179049,58.1177576 62.6102126,58.1562191 62.8025202,58.2331422 C63.071751,58.3485268 63.3409818,58.4254499 63.571751,58.5408345 C63.6871356,58.579296 63.8409818,58.6562191 63.9563664,58.6946807 C63.9948279,58.6946807 64.0332895,58.7331422 64.071751,58.7331422 C64.3025202,58.8485268 64.5332895,58.9254499 64.7640587,59.0408345 C64.9179049,59.1177576 65.1102126,59.1946807 65.2640587,59.2716037 C65.4948279,59.3869884 65.7255972,59.502373 65.9563664,59.6177576 C66.1102126,59.6946807 66.2640587,59.7716037 66.4179049,59.8485268 C66.6486741,59.9639114 66.9179049,60.1177576 67.1486741,60.2716037 C67.2640587,60.3485268 67.3794433,60.3869884 67.4948279,60.4639114 C67.8409818,60.6562191 68.1871356,60.8869884 68.5332895,61.1177576 C72.071751,63.502373 73.8794433,66.3485268 73.8794433,69.1946807 L73.8409818,74.079296 C73.8794433,74.079296 73.8794433,74.079296 73.8794433,74.079296 L80.9179049,75.3869884 C81.0332895,75.4254499 81.1486741,75.4254499 81.3025202,75.4254499 C81.3025202,75.4254499 81.3025202,75.4254499 81.3409818,75.4254499 C81.4563664,75.4254499 81.571751,75.4254499 81.6871356,75.4254499 C81.6871356,75.4254499 81.6871356,75.4254499 81.7255972,75.4254499 C81.8409818,75.4254499 81.9563664,75.4254499 82.071751,75.3869884 C82.071751,75.3869884 82.071751,75.3869884 82.071751,75.3869884 C82.1871356,75.3869884 82.2640587,75.3485268 82.3794433,75.3485268 C82.5332895,75.3100653 82.6486741,75.2716037 82.8025202,75.2331422 C82.8409818,75.2331422 82.8794433,75.1946807 82.9179049,75.1562191 C82.9563664,75.1562191 82.9948279,75.1177576 83.0332895,75.1177576 C83.1102126,75.079296 83.1486741,75.0408345 83.2255972,75.002373 C83.2255972,75.002373 83.2255972,75.002373 83.2255972,75.002373 C83.2640587,74.9639114 83.3409818,74.8869884 83.3794433,74.8485268 C83.4948279,74.6177576 83.6486741,74.4254499 83.7640587,74.1946807 C83.8794433,73.9639114 83.9948279,73.7716037 84.1102126,73.5408345 C84.1102126,73.502373 84.1486741,73.502373 84.1486741,73.4639114 C84.2640587,73.2331422 84.3794433,72.9639114 84.4563664,72.7331422 C84.4948279,72.6562191 84.4948279,72.579296 84.5332895,72.502373 C84.6102126,72.3485268 84.6486741,72.1562191 84.6871356,72.002373 C84.7255972,71.9254499 84.7255972,71.8100653 84.7640587,71.7331422 C84.8025202,71.579296 84.8409818,71.4254499 84.8794433,71.2716037 C84.9179049,71.1562191 84.9179049,71.079296 84.9179049,70.9639114 C84.9563664,70.8100653 84.9563664,70.6562191 84.9948279,70.502373 C84.9948279,70.3869884 85.0332895,70.3100653 85.0332895,70.1946807 C85.0332895,70.0408345 85.071751,69.8869884 85.071751,69.7331422 C85.071751,69.579296 85.071751,69.4254499 85.1102126,69.2716037 L84.9948279,93.4254499 C87.6486741,92.6177576 90.2255972,91.579296 92.6486741,90.3485268 L92.7255972,76.9254499 C92.6102126,77.0408345 92.7255972,77.2331422 92.9563664,77.3869884 Z" id="路径" opacity="0.200000003"></path>
                <path d="M45.4948279,39.3485268 C64.8025202,39.3485268 83.071751,43.8485268 94.6102126,51.6177576 C106.148674,59.3869884 109.340982,69.3485268 103.30252,78.3869884 C102.994828,78.8869884 101.879443,79.1562191 100.879443,78.9639114 L93.8409818,77.6562191 C93.4948279,77.579296 93.1871356,77.4639114 92.9948279,77.3485268 C92.6486741,77.1177576 92.5332895,76.8100653 92.7255972,76.5408345 C97.5332895,69.1946807 94.9179049,61.1562191 85.6102126,54.8485268 C76.3025202,48.5408345 61.5332895,44.8869884 45.8409818,44.8869884 C45.2255972,44.8869884 44.6871356,44.7331422 44.3409818,44.502373 C44.1486741,44.3485268 43.9948279,44.1946807 43.9948279,44.002373 L43.6486741,40.3100653 C43.6102126,39.8100653 44.4563664,39.3485268 45.4948279,39.3485268 Z M46.4563664,49.8869884 C58.6871356,49.9639114 70.1486741,52.8869884 77.4563664,57.7716037 C84.7640587,62.6946807 86.8794433,68.9639114 83.2640587,74.7331422 C82.9563664,75.2331422 81.8409818,75.502373 80.8409818,75.3100653 L73.8025202,74.002373 C73.4563664,73.9254499 73.1486741,73.8100653 72.9563664,73.6946807 C72.6102126,73.4639114 72.4948279,73.1562191 72.6871356,72.8869884 C75.1102126,68.8485268 73.571751,64.4639114 68.4563664,61.0408345 C63.3409818,57.6177576 55.3409818,55.5408345 46.8025202,55.4254499 C46.1871356,55.4254499 45.6486741,55.2716037 45.3025202,55.0408345 C45.1102126,54.8869884 44.9563664,54.7331422 44.9563664,54.5408345 L44.6102126,50.8485268 C44.571751,50.3100653 45.4179049,49.8869884 46.4563664,49.8869884 Z M60.4948279,63.8869884 C64.1871356,66.3869884 63.1102126,69.8485268 58.1102126,71.6562191 C53.1102126,73.4639114 46.0332895,72.8869884 42.3409818,70.4254499 C38.6486741,67.9254499 39.7255972,64.4639114 44.7255972,62.6562191 C49.7255972,60.8100653 56.8025202,61.3869884 60.4948279,63.8869884 Z" id="形状结合" opacity="0.300000012"></path>
                <path d="M84.9532895,69.6577576 L84.8409818,93.2716037 C81.2640587,94.3485268 77.4948279,95.002373 73.6102126,95.1946807 L73.6102126,95.1946807 L73.7255972,73.9639114 L73.7255972,73.9639114 L73.7640587,73.9639114 L80.8025202,75.2716037 C80.9563664,75.2716037 81.071751,75.3100653 81.1871356,75.3100653 L81.1871356,75.3100653 L81.6102126,75.3100653 C81.7255972,75.3100653 81.8409818,75.2716037 81.9563664,75.2716037 L81.9563664,75.2716037 L82.0617795,75.2701792 C82.1273066,75.2673302 82.1871356,75.2587832 82.2640587,75.2331422 C82.4179049,75.2331422 82.571751,75.1562191 82.6871356,75.1177576 C82.7255972,75.079296 82.7640587,75.079296 82.8025202,75.0408345 C82.8409818,75.0408345 82.8794433,75.002373 82.9179049,75.002373 C82.9948279,74.9639114 83.071751,74.9254499 83.1102126,74.8869884 L83.1102126,74.8869884 L83.1612943,74.8575412 C83.2063664,74.8268922 83.2352126,74.7908345 83.2640587,74.7331422 C83.4179049,74.502373 83.5332895,74.3100653 83.6486741,74.079296 C83.8025202,73.8485268 83.8794433,73.6562191 83.9948279,73.4254499 C83.9948279,73.3869884 84.0332895,73.3869884 84.0332895,73.3485268 C84.1486741,73.1177576 84.2640587,72.8485268 84.3409818,72.6177576 C84.3794433,72.5408345 84.3794433,72.4639114 84.4179049,72.3869884 C84.4563664,72.2331422 84.5332895,72.0408345 84.571751,71.8869884 C84.6102126,71.8100653 84.6102126,71.6946807 84.6486741,71.6177576 C84.6871356,71.4639114 84.7255972,71.3100653 84.7640587,71.1562191 C84.7640587,71.0408345 84.8025202,70.9639114 84.8025202,70.8485268 C84.8409818,70.6946807 84.8409818,70.5408345 84.8794433,70.3869884 C84.8794433,70.2716037 84.9179049,70.1946807 84.9179049,70.079296 C84.9179049,69.9254499 84.9563664,69.7716037 84.9563664,69.6177576 L84.9532895,69.6577576 Z M40.1102126,67.1177576 C40.1102126,68.2716037 40.8025202,69.4254499 42.3025202,70.4254499 C42.571751,70.6177576 42.8409818,70.7716037 43.1486741,70.9254499 C43.2255972,70.9639114 43.3409818,71.002373 43.4179049,71.0408345 L43.3792895,71.0237576 L43.3794433,71.002373 L43.3794433,71.002373 L43.4179049,71.002373 C43.6486741,71.1177576 43.8409818,71.2331422 44.071751,71.3100653 C44.1871356,71.3869884 44.3025202,71.4254499 44.4179049,71.4639114 C44.571751,71.502373 44.6871356,71.579296 44.8409818,71.6177576 L44.8409818,71.6177576 L44.8417123,71.7466953 C44.9365063,71.7806391 45.0083811,71.814583 45.1102126,71.8485268 C45.2255972,71.8869884 45.3409818,71.9254499 45.4563664,71.9639114 C45.6486741,72.002373 45.8025202,72.079296 45.9948279,72.1177576 L45.9948279,72.1177576 L46.4563664,72.2331422 C46.6102126,72.2331422 46.7255972,72.2716037 46.8794433,72.3100653 C47.071751,72.3485268 47.2640587,72.3869884 47.4563664,72.4254499 C47.571751,72.4639114 47.7255972,72.4639114 47.8409818,72.502373 C48.071751,72.502373 48.2640587,72.5408345 48.4563664,72.579296 C48.571751,72.579296 48.7255972,72.6177576 48.8409818,72.6177576 C49.0332895,72.6562191 49.2640587,72.6946807 49.4563664,72.6946807 C49.571751,72.6946807 49.7255972,72.7331422 49.8409818,72.7331422 C50.0332895,72.7331422 50.2640587,72.7716037 50.4948279,72.7716037 L50.4948279,72.7716037 L51.8794433,72.7716037 C52.071751,72.7331422 52.2255972,72.7331422 52.4179049,72.7331422 C52.571751,72.6946807 52.7640587,72.6946807 52.9563664,72.6946807 C53.071751,72.6562191 53.1486741,72.6562191 53.2255972,72.6562191 C53.5332895,72.6562191 53.8409818,72.6177576 54.1486741,72.579296 C54.3794433,72.579296 54.571751,72.5408345 54.7640587,72.502373 C54.8794433,72.4639114 55.0332895,72.4639114 55.1486741,72.4254499 C55.3794433,72.3485268 55.6102126,72.3100653 55.8409818,72.2716037 C55.9179049,72.2331422 56.0332895,72.2331422 56.1102126,72.1946807 C56.3409818,72.1562191 56.5332895,72.1177576 56.7640587,72.0408345 C56.8794433,72.002373 56.9948279,72.002373 57.1102126,71.9639114 C57.4563664,71.8869884 57.7640587,71.7716037 58.071751,71.6562191 C58.3794433,71.5408345 58.6486741,71.4254499 58.9179049,71.3100653 C58.9948279,71.2716037 59.0332895,71.2716037 59.071751,71.2331422 C59.2640587,71.1177576 59.4948279,71.0408345 59.6871356,70.9254499 C59.7255972,70.8869884 59.7640587,70.8869884 59.8025202,70.8485268 C59.9948279,70.7716037 60.1486741,70.6946807 60.3025202,70.579296 C60.3794433,70.579296 60.4179049,70.5408345 60.4563664,70.502373 C60.5332895,70.4639114 60.571751,70.4254499 60.6486741,70.3869884 C60.7255972,70.3485268 60.7640587,70.3100653 60.8409818,70.2716037 C60.9179049,70.1946807 60.9563664,70.1562191 61.0332895,70.1177576 C61.071751,70.079296 61.1486741,70.0408345 61.1871356,70.002373 C61.3794433,69.8485268 61.4948279,69.7331422 61.6486741,69.579296 C61.6871356,69.579296 61.6871356,69.5408345 61.7255972,69.502373 C61.8409818,69.3485268 61.9563664,69.2331422 62.0332895,69.1177576 C62.0332895,69.1177576 62.037563,69.1134841 62.043261,69.1077861 L62.071751,69.079296 C62.1871356,68.9639114 62.2640587,68.8100653 62.3409818,68.6946807 C62.3409818,68.6562191 62.3794433,68.6177576 62.3794433,68.579296 C62.4563664,68.4639114 62.4948279,68.3485268 62.5332895,68.2331422 C62.5332895,68.1946807 62.571751,68.1946807 62.571751,68.1562191 C62.6102126,68.0408345 62.6486741,67.8869884 62.6871356,67.7716037 L62.6871356,67.7716037 L62.6871356,67.6946807 C62.6871356,67.579296 62.7255972,67.4639114 62.7255972,67.3485268 L62.7242895,67.3587576 L62.571751,94.4254499 C56.266806,93.2015488 50.4267844,90.7259307 45.2930888,87.3779424 L44.7255972,87.002373 L44.7282895,86.5017576 L44.7255972,86.8485268 C44.3922638,86.6177576 44.0760245,86.3869884 43.7654832,86.1562191 L43.3402895,85.8387576 L43.3409818,85.8869884 C42.3794433,85.1818601 41.4446143,84.4233131 40.5587524,83.6336052 L40.0332895,83.1562191 Z M92.6102126,76.8485268 C92.6102126,77.0408345 92.7255972,77.2331422 92.9563664,77.3869884 C93.0332895,77.4639114 93.1486741,77.5408345 93.3025202,77.579296 L93.3025202,77.579296 L93.3409818,77.579296 C93.4948279,77.6177576 93.6486741,77.6562191 93.8025202,77.6946807 L93.8025202,77.6946807 L94.9948279,77.9639114 L94.9563664,88.9639114 C94.1486741,89.4254499 93.3409818,89.8485268 92.5332895,90.2716037 L92.5332895,90.2716037 Z M106.340982,69.2716037 L106.30252,79.6946807 C103.071751,83.3100653 99.2640587,86.4254499 95.0332895,88.8869884 L95.0332895,88.8869884 L95.071751,77.8869884 L100.917905,78.9639114 C101.033289,78.9639114 101.148674,79.002373 101.264059,79.002373 L101.264059,79.002373 L101.648674,79.002373 C101.764059,79.002373 101.879443,78.9639114 101.994828,78.9639114 L101.994828,78.9639114 L102.100241,78.9354214 C102.165768,78.9211764 102.225597,78.9126294 102.30252,78.8869884 C102.456366,78.8869884 102.610213,78.8100653 102.725597,78.7716037 C102.764059,78.7716037 102.80252,78.7716037 102.840982,78.7331422 C102.879443,78.7331422 102.917905,78.6946807 102.956366,78.6946807 C103.033289,78.6562191 103.110213,78.6177576 103.148674,78.579296 L103.148674,78.579296 L103.199756,78.5498489 C103.244828,78.5191999 103.273674,78.4831422 103.30252,78.4254499 C103.533289,78.079296 103.725597,77.7716037 103.917905,77.4254499 C103.994828,77.3485268 104.033289,77.2716037 104.071751,77.1946807 C104.187136,76.9639114 104.264059,76.7716037 104.379443,76.579296 C104.494828,76.3869884 104.571751,76.1562191 104.687136,75.9639114 C104.764059,75.7716037 104.840982,75.6177576 104.917905,75.4254499 C105.033289,75.2331422 105.110213,75.002373 105.187136,74.8100653 C105.264059,74.6177576 105.30252,74.4639114 105.379443,74.2716037 C105.417905,74.079296 105.494828,73.8485268 105.571751,73.6562191 C105.610213,73.4639114 105.687136,73.3100653 105.725597,73.1177576 C105.764059,72.9254499 105.840982,72.6946807 105.879443,72.502373 C105.917905,72.3100653 105.956366,72.1562191 105.994828,71.9639114 C106.033289,71.7331422 106.071751,71.502373 106.110213,71.2716037 C106.148674,71.079296 106.187136,70.9254499 106.187136,70.7331422 C106.187136,70.502373 106.225597,70.2716037 106.225597,70.0408345 C106.264059,69.7716037 106.264059,69.502373 106.340982,69.2716037 L106.340982,69.2716037 Z" id="形状结合" opacity="0.200000003"></path>
                <path d="M68.4179049,61.0408345 C68.071751,60.8100653 67.7640587,60.6177576 67.3794433,60.3869884 C67.2640587,60.3100653 67.1486741,60.2331422 67.0332895,60.1946807 C66.8025202,60.0408345 66.571751,59.9254499 66.3025202,59.7716037 C66.1486741,59.6946807 65.9948279,59.6177576 65.8409818,59.5408345 C65.6102126,59.4254499 65.3794433,59.3100653 65.1486741,59.1946807 C64.9948279,59.1177576 64.8025202,59.0408345 64.6486741,58.9639114 C64.4179049,58.8485268 64.1871356,58.7716037 63.9563664,58.6562191 C63.9179049,58.6562191 63.8794433,58.6177576 63.8409818,58.6177576 C63.7255972,58.579296 63.571751,58.502373 63.4563664,58.4639114 C63.1871356,58.3485268 62.9179049,58.2716037 62.6871356,58.1562191 C62.4948279,58.079296 62.3025202,58.002373 62.1102126,57.9639114 C61.8409818,57.8869884 61.571751,57.7716037 61.3025202,57.6946807 C61.2255972,57.6562191 61.1486741,57.6177576 61.0332895,57.6177576 C60.8794433,57.579296 60.7255972,57.5408345 60.6102126,57.502373 C60.4179049,57.4639114 60.2640587,57.3869884 60.071751,57.3485268 C59.8025202,57.2716037 59.5332895,57.1946807 59.2640587,57.1177576 C59.1102126,57.079296 58.9179049,57.0408345 58.7640587,57.002373 C58.7255972,57.002373 58.6486741,56.9639114 58.6102126,56.9639114 C58.5332895,56.9639114 58.4563664,56.9254499 58.3794433,56.9254499 C57.8025202,56.7716037 57.1871356,56.6562191 56.571751,56.5408345 C56.4948279,56.5408345 56.4179049,56.502373 56.3409818,56.502373 C56.3025202,56.502373 56.2640587,56.502373 56.2255972,56.4639114 C55.6102126,56.3485268 54.9563664,56.2331422 54.3025202,56.1177576 C54.2640587,56.1177576 54.1871356,56.1177576 54.1486741,56.079296 C54.0332895,56.079296 53.9563664,56.0408345 53.8409818,56.0408345 C53.3409818,55.9639114 52.8025202,55.8869884 52.2640587,55.8485268 C52.1486741,55.8485268 52.071751,55.8100653 51.9563664,55.8100653 C51.9179049,55.8100653 51.8409818,55.8100653 51.7640587,55.8100653 C51.1102126,55.7331422 50.4563664,55.6946807 49.8025202,55.6562191 C49.7640587,55.6562191 49.7640587,55.6562191 49.7255972,55.6562191 C49.6486741,55.6562191 49.571751,55.6562191 49.4563664,55.6562191 C48.8794433,55.6177576 48.3025202,55.579296 47.7255972,55.579296 C47.6102126,55.579296 47.5332895,55.579296 47.4179049,55.579296 C47.1871356,55.579296 46.9563664,55.579296 46.7640587,55.579296 C46.6102126,55.579296 46.4563664,55.579296 46.3409818,55.5408345 C46.3409818,55.5408345 46.3409818,55.5408345 46.3025202,55.5408345 C46.1871356,55.5408345 46.0332895,55.502373 45.9179049,55.4639114 C45.9179049,55.4639114 45.9179049,55.4639114 45.8794433,55.4639114 C45.7640587,55.4254499 45.6486741,55.3869884 45.571751,55.3485268 C45.4563664,55.3100653 45.3409818,55.2331422 45.2640587,55.1946807 C45.071751,55.0408345 44.9179049,54.8869884 44.9179049,54.6946807 L44.8409818,71.7716037 C44.9563664,71.8100653 45.0332895,71.8485268 45.1486741,71.8869884 C45.2640587,71.9254499 45.3794433,71.9639114 45.4948279,72.002373 C45.6871356,72.0408345 45.8409818,72.1177576 46.0332895,72.1562191 C46.1871356,72.1946807 46.3409818,72.2331422 46.4948279,72.2716037 C46.6486741,72.3100653 46.7640587,72.3485268 46.9179049,72.3485268 C47.1102126,72.3869884 47.3025202,72.4254499 47.4948279,72.4639114 C47.6102126,72.502373 47.7640587,72.502373 47.8794433,72.5408345 C48.071751,72.579296 48.2640587,72.6177576 48.4948279,72.6177576 C48.6102126,72.6177576 48.7640587,72.6562191 48.8794433,72.6562191 C49.071751,72.6946807 49.3025202,72.6946807 49.4948279,72.7331422 C49.6102126,72.7331422 49.7640587,72.7716037 49.8794433,72.7716037 C50.1102126,72.7716037 50.3409818,72.8100653 50.5332895,72.8100653 C50.6486741,72.8100653 50.7640587,72.8100653 50.8794433,72.8100653 C51.1102126,72.8100653 51.3409818,72.8100653 51.571751,72.8100653 C51.6871356,72.8100653 51.8025202,72.8100653 51.9179049,72.8100653 C52.1102126,72.8100653 52.2640587,72.8100653 52.4563664,72.7716037 C52.6486741,72.7716037 52.8409818,72.7716037 52.9948279,72.7331422 C53.071751,72.7331422 53.1871356,72.7331422 53.2640587,72.6946807 C53.571751,72.6562191 53.8794433,72.6562191 54.1871356,72.6177576 C54.3794433,72.579296 54.571751,72.579296 54.8025202,72.5408345 C54.9179049,72.502373 55.071751,72.502373 55.1871356,72.4639114 C55.4179049,72.4254499 55.6486741,72.3869884 55.8794433,72.3100653 C55.9563664,72.2716037 56.071751,72.2716037 56.1486741,72.2331422 C56.3794433,72.1946807 56.571751,72.1177576 56.8025202,72.079296 C56.9179049,72.0408345 57.0332895,72.0408345 57.1486741,72.002373 C57.4563664,71.9254499 57.8025202,71.8100653 58.1102126,71.6946807 C58.4179049,71.579296 58.6871356,71.4639114 58.9563664,71.3485268 C58.9948279,71.3100653 59.0332895,71.3100653 59.1102126,71.2716037 C59.3409818,71.1562191 59.5332895,71.079296 59.7255972,70.9639114 C59.7640587,70.9254499 59.8025202,70.9254499 59.8409818,70.8869884 C59.9948279,70.8100653 60.1871356,70.6946807 60.3409818,70.6177576 C60.3794433,70.579296 60.4179049,70.579296 60.4948279,70.5408345 C60.571751,70.502373 60.6102126,70.4639114 60.6871356,70.4254499 C60.7640587,70.3869884 60.8025202,70.3485268 60.8794433,70.3100653 C60.9563664,70.2716037 60.9948279,70.2331422 61.071751,70.1562191 C61.1102126,70.1177576 61.1871356,70.079296 61.2255972,70.0408345 C61.3794433,69.9254499 61.5332895,69.7716037 61.6871356,69.6177576 C61.7255972,69.579296 61.7255972,69.5408345 61.7640587,69.5408345 C61.8794433,69.4254499 61.9948279,69.3100653 62.071751,69.1562191 C62.071751,69.1562191 62.1102126,69.1177576 62.1102126,69.1177576 C62.1871356,69.002373 62.3025202,68.8485268 62.3794433,68.7331422 C62.4179049,68.6946807 62.4179049,68.6562191 62.4179049,68.6177576 C62.4563664,68.502373 62.5332895,68.3869884 62.571751,68.2716037 C62.571751,68.2331422 62.6102126,68.2331422 62.6102126,68.1946807 C62.6486741,68.079296 62.6871356,67.9254499 62.7255972,67.8100653 C62.7255972,67.7716037 62.7255972,67.7331422 62.7255972,67.7331422 C62.7640587,67.6177576 62.7640587,67.502373 62.7640587,67.3869884 C62.7640587,67.3485268 62.7640587,67.3100653 62.7640587,67.2331422 L62.6102126,94.4639114 C65.4948279,95.002373 68.4563664,95.3100653 71.4948279,95.3100653 C71.8409818,95.3100653 72.1871356,95.3100653 72.5332895,95.3100653 C72.9179049,95.3100653 73.3025202,95.2716037 73.6871356,95.2716037 L73.8025202,74.0408345 L73.8409818,69.1562191 C73.7640587,66.2331422 71.9563664,63.4254499 68.4179049,61.0408345 Z" id="路径" opacity="0.200000003"></path>
                <ellipse id="椭圆形" opacity="0.200000003" cx="95.1102126" cy="57.3869884" rx="3.07692308" ry="1.23076923"></ellipse>
                <ellipse id="椭圆形" opacity="0.200000003" cx="53.5332895" cy="43.079296" rx="1.38461538" ry="1"></ellipse>
                <path d="M91.2640587,42.1562191 C94.4179049,42.6177576 95.2640587,43.4254499 95.4179049,44.002373 C95.571751,43.6562191 95.9563664,43.4254499 96.3794433,43.2331422 C97.2902126,42.839296 98.5160587,42.6660037 99.3108796,42.5922757 L99.5872759,42.5690585 C99.8827664,42.5468653 100.077905,42.5408345 100.110213,42.5408345 C99.6102126,43.4639114 98.9179049,44.0408345 98.2255972,44.3485268 C97.6486741,44.6177576 97.071751,44.7331422 96.6102126,44.7716037 C99.2255972,45.1562191 99.3794433,47.1562191 99.3794433,47.2331422 C97.4810878,46.9553341 96.4188203,46.5521127 95.8403615,46.1492922 L95.8409818,57.0408345 C95.8409818,57.2331422 95.6871356,57.3869884 95.4948279,57.3869884 L95.071751,57.3869884 C94.8794433,57.3869884 94.7255972,57.2331422 94.7255972,57.0408345 L94.7260342,45.9117161 C94.5851706,46.0019117 94.4274841,46.0819349 94.2640587,46.1562191 C92.8409818,46.8100653 90.6486741,46.8485268 90.5332895,46.8485268 C91.0332895,45.9254499 91.7255972,45.3485268 92.4179049,45.0408345 C92.9948279,44.7716037 93.571751,44.6562191 94.0332895,44.6177576 C91.4179049,44.2331422 91.2640587,42.2331422 91.2640587,42.1562191 Z M51.1102126,33.9254499 C53.0332895,34.1946807 53.5332895,34.6946807 53.6102126,35.0408345 C53.7255972,34.8485268 53.9179049,34.6946807 54.1871356,34.579296 C55.0332895,34.1946807 56.3794433,34.1562191 56.4563664,34.1562191 C56.1486741,34.7331422 55.7255972,35.0408345 55.3025202,35.2716037 C54.9563664,35.4254499 54.6102126,35.502373 54.3025202,35.502373 C55.8794433,35.7331422 55.9563664,36.9254499 55.9948279,37.002373 C54.8256333,36.8386857 54.1824664,36.5896967 53.8405925,36.3418423 L53.8409818,42.9639114 C53.8794433,43.0408345 53.7640587,43.1562191 53.6486741,43.1562191 L53.4179049,43.1562191 C53.3025202,43.1562191 53.2255972,43.079296 53.2255972,42.9639114 L53.2265068,36.1754365 C53.1382972,36.2404621 53.0354299,36.2981589 52.9179049,36.3485268 C52.071751,36.7331422 50.7255972,36.7716037 50.6486741,36.7716037 C50.9563664,36.1946807 51.3794433,35.8869884 51.8025202,35.6562191 C52.1486741,35.502373 52.4948279,35.4254499 52.8025202,35.4254499 C51.2255972,35.1946807 51.1486741,34.002373 51.1102126,33.9254499 Z" id="形状结合" opacity="0.200000003"></path>
                <path d="M112.110213,4.69468066 C111.917905,4.7331422 111.764059,4.81006528 111.610213,4.92544989 C110.80252,5.61775758 110.610213,6.07929605 110.417905,6.88698835 C110.225597,7.69468066 110.494828,7.96391143 110.80252,8.00237297 C111.379443,8.04083451 111.533289,6.27160374 112.071751,5.96391143 C112.110213,5.92544989 112.225597,5.92544989 112.30252,5.88698835 C119.264059,12.7331422 124.379443,2.38698835 124.379443,2.38698835 C116.30252,-3.22839626 113.033289,2.54083451 112.110213,4.69468066 Z" id="路径" opacity="0.200000003"></path>
                <path d="M25.6102126,94.3100653 C25.4563664,94.4254499 25.3025202,94.5408345 25.2255972,94.7331422 C24.7255972,95.6562191 24.6871356,96.1562191 24.8025202,97.002373 C24.9179049,97.8485268 25.2640587,98.002373 25.571751,97.8869884 C26.1486741,97.6946807 25.6486741,96.002373 26.0332895,95.5408345 C26.071751,95.502373 26.1486741,95.4254499 26.2255972,95.3869884 C35.1486741,99.3100653 36.2640587,87.8100653 36.2640587,87.8100653 C26.6871356,85.3869884 25.6871356,91.9639114 25.6102126,94.3100653 Z" id="路径" opacity="0.200000003"></path>
                <path d="M141.956366,8.77160374 C141.840982,8.88698835 141.764059,9.00237297 141.687136,9.15621912 C141.379443,9.96391143 141.417905,10.3485268 141.571751,11.0408345 C141.764059,11.6946807 142.033289,11.7716037 142.264059,11.6946807 C142.687136,11.502373 142.148674,10.1946807 142.379443,9.7331422 C142.417905,9.69468066 142.456366,9.65621912 142.533289,9.57929605 C150.110213,11.8485268 149.840982,2.46391143 149.840982,2.46391143 C141.917905,1.50237297 141.764059,6.88698835 141.956366,8.77160374 Z" id="路径" opacity="0.200000003"></path>
                <path d="M3.53328948,94.2716037 C3.4563664,94.3485268 3.37944332,94.4254499 3.34098178,94.5408345 C3.11021255,95.079296 3.14867409,95.3485268 3.26405871,95.8100653 C3.37944332,96.2716037 3.57175102,96.3100653 3.72559717,96.2716037 C4.03328948,96.1177576 3.64867409,95.2331422 3.80252025,94.9254499 C3.80252025,94.8869884 3.84098178,94.8485268 3.87944332,94.8485268 C9.11021255,96.3869884 8.91790486,89.9639114 8.91790486,89.9639114 C3.53328948,89.2331422 3.41790486,92.9639114 3.53328948,94.2716037 Z" id="路径" opacity="0.200000003"></path>
                <path d="M129.225597,26.6177576 C129.187136,26.6946807 129.148674,26.7716037 129.110213,26.8485268 C129.033289,27.3100653 129.071751,27.502373 129.225597,27.8485268 C129.379443,28.1946807 129.571751,28.1946807 129.648674,28.1177576 C129.879443,27.9639114 129.417905,27.3100653 129.533289,27.079296 C129.533289,27.0408345 129.571751,27.002373 129.610213,27.002373 C133.917905,27.4639114 132.80252,22.4639114 132.80252,22.4639114 C128.494828,22.6946807 128.956366,25.6177576 129.225597,26.6177576 Z" id="路径" opacity="0.200000003"></path>
                <path d="M1.57175102,73.8485268 C1.49482794,73.8100653 1.4563664,73.7331422 1.34098178,73.7331422 C0.879443323,73.6177576 0.687135631,73.6562191 0.340981784,73.8100653 C-0.00517206176,73.9639114 -0.0436336002,74.1177576 0.0332894767,74.2331422 C0.187135631,74.4639114 0.840981784,74.0408345 1.11021255,74.1562191 C1.14867409,74.1562191 1.14867409,74.1946807 1.18713563,74.2331422 C0.533289477,78.502373 5.57175102,77.6562191 5.57175102,77.6562191 C5.49482794,73.3100653 2.57175102,73.6177576 1.57175102,73.8485268 Z" id="路径" opacity="0.200000003"></path>
            </g>
        </g>
    </g>
</svg>