<?xml version="1.0" encoding="UTF-8"?>
<svg width="150px" height="98px" viewBox="0 0 150 98" version="1.1" xmlns="http://www.w3.org/2000/svg" xmlns:xlink="http://www.w3.org/1999/xlink">
    <title>img_all_empty_nothing_black</title>
    <defs>
        <linearGradient x1="57.8707456%" y1="12.6204006%" x2="42.2448094%" y2="85.7950228%" id="linearGradient-1">
            <stop stop-color="#F5E1C4" offset="0%"></stop>
            <stop stop-color="#E0A66C" offset="100%"></stop>
        </linearGradient>
        <polygon id="path-2" points="0 0 14.0232458 0 14.0232458 8.2670572 0 8.2670572"></polygon>
        <polygon id="path-4" points="0 0 8.39517085 0 8.39517085 9.35209114 0 9.35209114"></polygon>
        <polygon id="path-6" points="0 0 5.57319176 0 5.57319176 4.05872635 0 4.05872635"></polygon>
        <path d="M5.40261335,0.190178475 L3.60361736,2.8415128 L3.60361736,1.72469548 C3.60361736,1.48523999 3.40804922,1.28890189 3.1689787,1.28890189 L3.1689787,1.28890189 C2.92990819,1.28890189 2.73434004,1.48523999 2.73434004,1.72469548 L2.73434004,1.72469548 L2.73434004,6.45682872 L0.794057624,3.59683703 C0.658930812,3.39857405 0.38752226,3.3466022 0.189644251,3.48134403 L0.189644251,3.48134403 C-0.00823375748,3.61647084 -0.0594356546,3.88903432 0.0749212033,4.08729731 L0.0749212033,4.08729731 L2.60152309,7.81117664 C2.63732592,7.86391845 2.68275317,7.90549593 2.73434004,7.93667904 L2.73434004,7.93667904 L2.73434004,13.6543525 C2.73434004,13.894578 2.92990819,14.0905311 3.1689787,14.0905311 L3.1689787,14.0905311 C3.40804922,14.0905311 3.60361736,13.894578 3.60361736,13.6543525 L3.60361736,13.6543525 L3.60361736,9.25676404 L5.83224731,5.97175811 C5.96698914,5.77349513 5.91501729,5.50093164 5.71752426,5.36580483 L5.71752426,5.36580483 C5.52003123,5.231063 5.2482377,5.28303485 5.11349587,5.48129783 L5.11349587,5.48129783 L3.60361736,7.70607801 L3.60361736,4.39181386 L6.12136479,0.680638753 C6.25610662,0.482375768 6.20451975,0.210197262 6.00664174,0.0750704507 L6.00664174,0.0750704507 C5.93234124,0.0242535302 5.8472614,0 5.76333649,0 L5.76333649,0 C5.62397493,0 5.48653826,0.066600964 5.40261335,0.190178475" id="path-8"></path>
        <path d="M9.9946883,0.0696807773 L5.32569124,2.86268652 C5.27987902,2.84382266 5.22790717,2.83381327 5.17054564,2.83573815 L5.17054564,2.83573815 L1.13368028,2.98202929 C0.918863295,2.98972882 0.71713552,3.15719367 0.684412503,3.35391675 L0.684412503,3.35391675 C0.652459439,3.55063983 0.802215364,3.70540045 1.01664737,3.69731594 L1.01664737,3.69731594 L4.11724947,3.58528773 L0.253623609,5.89630268 C0.0576704834,6.01333559 -0.0247145241,6.23893192 0.0692197835,6.39715733 L0.0692197835,6.39715733 C0.163539068,6.55538274 0.400684697,6.58887571 0.596637822,6.47184281 L0.596637822,6.47184281 L1.50826258,5.92671584 L0.0526657867,8.41212523 C-0.0558976344,8.59845393 0.00877844622,8.80326152 0.197032038,8.86870756 L0.197032038,8.86870756 C0.384900653,8.93376861 0.627435956,8.83444463 0.73676933,8.64888588 L0.73676933,8.64888588 L2.77406587,5.16946673 L5.48083684,3.55063983 L4.25892089,5.63682841 C4.15074244,5.82277214 4.21503355,6.02796471 4.40328714,6.09302576 L4.40328714,6.09302576 C4.59115575,6.15808682 4.83407603,6.05876284 4.94302443,5.87320408 L4.94302443,5.87320408 L6.74625516,2.79339072 L10.3377025,0.645605876 C10.5332707,0.528572968 10.6164256,0.30297664 10.5221063,0.144751228 L10.5221063,0.144751228 C10.4655148,0.0500469672 10.3581063,0 10.2387635,0 L10.2387635,0 C10.1586884,0 10.0732235,0.0227136236 9.9946883,0.0696807773" id="path-10"></path>
        <path d="M3.35150232,0.118187838 L2.23583993,1.76280817 L2.23583993,1.07023514 C2.23583993,0.921634149 2.1141873,0.799981521 1.9655863,0.799981521 L1.9655863,0.799981521 C1.81775526,0.799981521 1.69648761,0.921634149 1.69648761,1.07023514 L1.69648761,1.07023514 L1.69648761,4.00606723 L0.492280586,2.23170976 C0.408740649,2.10851722 0.240505844,2.07617918 0.117313309,2.15971912 L0.117313309,2.15971912 C-0.00472429516,2.24364404 -0.0370623355,2.41264879 0.046477602,2.53584133 L0.046477602,2.53584133 L1.6141026,4.84608633 C1.63604627,4.87880934 1.66414957,4.9042178 1.69648761,4.92385161 L1.69648761,4.92385161 L1.69648761,8.47141163 C1.69648761,8.62001263 1.81775526,8.74166526 1.9655863,8.74166526 L1.9655863,8.74166526 C2.1141873,8.74166526 2.23583993,8.62001263 2.23583993,8.47141163 L2.23583993,8.47141163 L2.23583993,5.74231202 L3.61790617,3.7046305 C3.70144611,3.58182294 3.66949305,3.41281818 3.54707047,3.32927825 L3.54707047,3.32927825 C3.42464788,3.24535333 3.25564313,3.27769137 3.17210319,3.40049893 L3.17210319,3.40049893 L2.23583993,4.78102527 L2.23583993,2.7244799 L3.79769028,0.422319407 C3.88123022,0.299126873 3.84927715,0.130507091 3.72646959,0.0465821771 L3.72646959,0.0465821771 C3.68027239,0.0150140901 3.62753059,0 3.57517376,0 L3.57517376,0 C3.48855401,0 3.40347417,0.0411925037 3.35150232,0.118187838" id="path-12"></path>
        <path d="M6.20054155,0.0435023638 L3.30436206,1.77589738 C3.27548881,1.7639631 3.24353575,1.75818845 3.20811789,1.75934338 L3.20811789,1.75934338 L0.703459674,1.85019788 C0.570257746,1.8548176 0.444755352,1.95837632 0.424736565,2.0807989 L0.424736565,2.0807989 C0.405102755,2.20283651 0.497882132,2.2986957 0.63108406,2.293691 L0.63108406,2.293691 L2.55442751,2.2243952 L0.157562756,3.65804832 C0.0359101279,3.73080891 -0.0152917693,3.87055544 0.0428397079,3.9687245 L0.0428397079,3.9687245 C0.101356162,4.06689355 0.248802227,4.08806726 0.370454854,4.01530667 L0.370454854,4.01530667 L0.935985583,3.6765272 L0.0324453378,5.21874374 C-0.0345406028,5.33423675 0.00549697092,5.46166402 0.122144902,5.50208657 L0.122144902,5.50208657 C0.23917781,5.54212415 0.389318711,5.48091286 0.457074605,5.36580483 L0.457074605,5.36580483 L1.72095301,3.20724064 L3.39983627,2.20283651 L2.64220219,3.49712807 C2.57521625,3.6122361 2.61525382,3.73966338 2.73151677,3.78008593 L2.73151677,3.78008593 C2.84893466,3.82050848 2.99907556,3.75929719 3.06683145,3.64380419 L3.06683145,3.64380419 L4.18557366,1.73277999 L6.41343365,0.400375737 C6.53508628,0.327615147 6.58628817,0.187868615 6.52777172,0.0900845409 L6.52777172,0.0900845409 C6.49273884,0.0311831103 6.42652286,0 6.35260734,0 L6.35260734,0 C6.30256037,0 6.24943359,0.0142441368 6.20054155,0.0435023638" id="path-14"></path>
    </defs>
    <g id="C-直播页" stroke="none" stroke-width="1" fill="none" fill-rule="evenodd">
        <g id="4.1D发现-爆料-排行榜-团战命中榜备份-3" transform="translate(-115.000000, -559.000000)">
            <g id="编组" transform="translate(115.000000, 559.000000)">
                <g>
                    <g transform="translate(110.476015, 0.000000)">
                        <mask id="mask-3" fill="white">
                            <use xlink:href="#path-2"></use>
                        </mask>
                        <g id="Clip-2"></g>
                        <path d="M1.7648187,4.70838017 C1.58272474,4.75342244 1.40833031,4.82310322 1.25934434,4.95014552 C0.461672674,5.63078427 0.261099829,6.09468116 0.0647617272,6.92661575 C-0.129266515,7.75008085 0.145991805,8.0164847 0.450508351,8.03573353 C1.03490294,8.07230632 1.19697811,6.31758265 1.71438676,5.98958253 C1.76905345,5.95493463 1.85259338,5.93260598 1.94229295,5.91643696 C8.89420166,12.7859607 14.0232458,2.41237931 14.0232458,2.41237931 C5.95413483,-3.2475477 2.66219932,2.53903663 1.7648187,4.70838017" id="Fill-1" fill="#FFFFFF" fill-rule="nonzero" opacity="0.200000003" mask="url(#mask-3)"></path>
                    </g>
                    <path d="M25.6447589,94.4039791 C25.4907683,94.5110026 25.3525616,94.6384299 25.2586273,94.8105145 C24.7566177,95.7309937 24.7350591,96.2360831 24.8490121,97.0830318 C24.9621953,97.9218959 25.314064,98.0724218 25.6054913,97.9811823 C26.1644774,97.8067879 25.6890312,96.1098107 26.0547591,95.6185805 C26.0936417,95.5669936 26.1640925,95.5161767 26.2418577,95.4692096 C35.1887156,99.4021312 36.2735798,87.8805494 36.2735798,87.8805494 C26.715379,85.4767551 25.7078951,92.0571613 25.6447589,94.4039791" id="Fill-3" fill="#FFFFFF" fill-rule="nonzero" opacity="0.200000003"></path>
                    <g transform="translate(141.604829, 2.342165)">
                        <mask id="mask-5" fill="white">
                            <use xlink:href="#path-4"></use>
                        </mask>
                        <g id="Clip-6"></g>
                        <path d="M0.503264603,6.43476403 C0.390466438,6.53639787 0.292297387,6.65266083 0.23416591,6.80087685 C-0.0768952397,7.59161893 -0.0434022693,8.00007917 0.133686999,8.66993858 C0.309236361,9.33286841 0.60759328,9.41833323 0.832804633,9.31592943 C1.26513343,9.11920636 0.711152005,7.80220117 0.955997167,7.37025734 C0.981790604,7.3248301 1.03337748,7.27709299 1.09112398,7.23089579 C8.68401885,9.4914788 8.39374644,0.115371988 8.39374644,0.115371988 C0.463612006,-0.853229315 0.317705847,4.54106379 0.503264603,6.43476403" id="Fill-5" fill="#FFFFFF" fill-rule="nonzero" opacity="0.200000003" mask="url(#mask-5)"></path>
                    </g>
                    <path d="M3.5676173,94.3347988 C3.48985201,94.4048646 3.42209612,94.4849397 3.38244352,94.5865736 C3.1683965,95.1309306 3.19111012,95.4119635 3.31314772,95.8727806 C3.4340304,96.3293629 3.63960794,96.3878794 3.79436856,96.3174287 C4.09118557,96.1819169 3.71044365,95.2760668 3.87906343,94.9784798 C3.89638738,94.9472967 3.93180523,94.9141887 3.97222778,94.8826206 C9.19674618,96.4383113 8.99732826,89.9864873 8.99732826,89.9864873 C3.54028396,89.3197077 3.43942007,93.0316528 3.5676173,94.3347988" id="Fill-7" fill="#FFFFFF" fill-rule="nonzero" opacity="0.200000003"></path>
                    <path d="M129.369293,26.641502 C129.318476,26.707333 129.277668,26.7797086 129.261114,26.8651735 C129.172955,27.3213708 129.231856,27.5377277 129.393931,27.879972 C129.554466,28.2187514 129.723856,28.2349205 129.834345,28.1575402 C130.047237,28.0085542 129.617988,27.3556337 129.706147,27.0988543 C129.715387,27.0722909 129.7381,27.0414928 129.764664,27.0106947 C134.072553,27.466892 132.979219,22.4552657 132.979219,22.4552657 C128.619358,22.7274442 129.07979,25.6421026 129.369293,26.641502" id="Fill-9" fill="#FFFFFF" fill-rule="nonzero" opacity="0.200000003"></path>
                    <g transform="translate(0.000000, 73.747324)">
                        <mask id="mask-7" fill="white">
                            <use xlink:href="#path-6"></use>
                        </mask>
                        <g id="Clip-12"></g>
                        <path d="M1.56981937,0.179591822 C1.50629822,0.125695088 1.43623246,0.0814227709 1.35192257,0.0606340307 C0.900344939,-0.0498542737 0.681293214,-0.00173218993 0.331734397,0.143404015 C-0.0147446065,0.28738529 -0.0393831134,0.455235118 0.0329925007,0.569958166 C0.171199125,0.789394868 0.844138345,0.392483921 1.09629806,0.493347808 C1.12286145,0.504127155 1.15250466,0.528380685 1.18137791,0.556483982 C0.514213339,4.8366546 5.57319176,3.99086086 5.57319176,3.99086086 C5.51583024,-0.377084444 2.58230801,-0.0602486438 1.56981937,0.179591822" id="Fill-11" fill="#FFFFFF" fill-rule="nonzero" opacity="0.200000003" mask="url(#mask-7)"></path>
                    </g>
                    <path d="M72.9295955,1.64396588 C47.1188346,1.64396588 26.1949676,22.6224996 26.1949676,48.5006314 C26.1949676,49.1704908 26.2176812,49.8349605 26.2450146,50.4978903 L72.1180646,24.0134203 L117.73164,50.3492893 L117.73164,51.9592618 L56.7871387,87.1453595 L33.5607262,73.7358521 C41.8669829,86.7345894 56.3894578,95.3572968 72.9295955,95.3572968 C98.7407413,95.3572968 119.664223,74.3787631 119.664223,48.5006314 C119.664223,22.6224996 98.7407413,1.64396588 72.9295955,1.64396588" id="Fill-13" fill="#FFFFFF" fill-rule="nonzero" opacity="0.100000001"></path>
                    <path d="M32.0874975,71.2747348 C32.0878825,71.2747348 32.0878825,71.2751197 32.0878825,71.2755047 L56.7872157,85.5354256 L32.0874975,71.2747348 Z" id="Fill-15" fill="#F6F6F6"></path>
                    <path d="M117.73164,50.3491738 L72.1180646,24.0133048 L26.2450146,50.4981598 C26.3139254,52.1350806 26.4640663,53.7504427 26.6958222,55.3396264 L71.7631162,29.3202082 L108.186144,50.3491738 L56.7871387,80.0243305 L28.7743113,63.8506906 C29.6678421,66.435424 30.7773449,68.9177536 32.0874205,71.2745808 L56.7871387,85.5352716 L117.73164,50.3491738 Z" id="Fill-17" fill="#FFFFFF" fill-rule="nonzero" opacity="0.300000012"></path>
                    <path d="M56.7872542,85.5354256 L32.087921,71.2755047 C32.5533578,72.112444 33.0468979,72.9312894 33.5608417,73.7358906 L56.7872542,87.145398 L56.7872542,85.5354256 Z" id="Fill-19" fill="#FFFFFF" fill-rule="nonzero" opacity="0.200000003"></path>
                    <polygon id="Fill-21" fill="#FFFFFF" fill-rule="nonzero" opacity="0.200000003" points="56.7872542 87.1454365 117.731756 51.9593388 117.731756 50.3489814 56.7872542 85.5354641"></polygon>
                    <path d="M72.5273333,46.5738231 C72.5273333,47.8673447 74.5996628,48.9599085 77.0519642,48.9599085 C78.0228753,48.9599085 78.9425846,48.787824 79.7160027,48.4833074 L73.6803385,45.0004235 C72.9381035,45.4423767 72.5273333,45.9967431 72.5273333,46.5738231" id="Fill-23" fill="#FFFFFF" fill-rule="nonzero" opacity="0.35"></path>
                    <path d="M55.8101449,62.3202929 C55.8101449,61.0271563 53.7378155,59.9345925 51.2847441,59.9345925 C50.1790911,59.9345925 49.1485086,60.156339 48.3215787,60.5440105 L54.5608956,64.1435424 L54.4819754,63.9957114 C55.3258443,63.5464436 55.8101449,62.9358706 55.8101449,62.3202929" id="Fill-25" fill="#FFFFFF" fill-rule="nonzero" opacity="0.35"></path>
                    <path d="M71.4114785,31.7482946 L103.843068,50.4720199 L57.2393323,77.5963212 L48.0075917,72.2659342 L47.9841082,72.2797933 L33.6868446,64.0293583 L33.7149479,64.0131893 L27.7712931,60.5815073 C28.0650303,61.6883152 28.4026548,62.7774142 28.7741573,63.8507291 L56.7873697,80.023984 L108.18599,50.3492123 L71.7629622,29.3202467 L26.6960532,55.3396649 C26.7949922,56.0203037 26.9131801,56.6943978 27.0413773,57.3650272 L71.4114785,31.7482946 Z" id="Fill-27" fill="#FFFFFF" fill-rule="nonzero" opacity="0.300000012"></path>
                    <path d="M64.2751274,49.7140008 C69.0857959,49.7140008 73.0002387,51.938396 73.0002387,54.6721154 C73.0002387,55.9721816 72.1082477,57.15329 70.6630453,58.0383514 L80.2451146,63.5712361 L102.748926,50.4739448 L93.6430727,45.2167034 L83.8893038,50.8916445 L80.305171,48.8231648 C79.3947012,49.2608833 78.2559402,49.5088083 77.0517332,49.5088083 C74.2071405,49.5088083 71.9785106,48.2195214 71.9785106,46.5737461 C71.9785106,45.8703938 72.3900507,45.2136236 73.143835,44.6908252 L69.5920402,42.6412094 L79.5279031,37.0679022 L71.41144,32.3819662 L48.8190841,45.4257457 L58.4546651,50.9894285 C60.0003465,50.1994564 62.037643,49.7140008 64.2751274,49.7140008" id="Fill-29" fill="#FFFFFF" fill-rule="nonzero" opacity="0.300000012"></path>
                    <path d="M47.7745269,60.2284837 L47.7583578,60.1992254 C48.7038605,59.6745022 49.9565746,59.3857697 51.2847441,59.3857697 C54.1301067,59.3857697 56.3591216,60.6746716 56.3591216,62.3204469 C56.3591216,63.1004096 55.8532623,63.8180061 54.9397127,64.3619782 L58.2801552,66.2891714 L48.5544896,71.9475585 L57.2384084,76.9614946 L79.6991022,63.8892268 L70.1058686,58.3501825 C68.5586473,59.1432344 66.517886,59.6306149 64.2750119,59.6306149 C59.4639585,59.6306149 55.5499007,57.4058347 55.5499007,54.6721154 C55.5499007,53.3697393 56.4453564,52.186321 57.8967185,51.3004897 L48.2703768,45.7421965 L27.1436271,57.9397973 C27.2737492,58.5780887 27.4246601,59.2086805 27.5801906,59.8369624 L34.2718551,63.7009732 L44.1699903,58.1492247 L47.7745269,60.2284837 Z" id="Fill-31" fill="#FFFFFF" fill-rule="nonzero" opacity="0.300000012"></path>
                    <path d="M56.0988774,54.6722694 C56.0988774,57.103782 59.7665501,59.0817921 64.2750119,59.0817921 C66.2880549,59.0817921 68.1301683,58.6856511 69.5561219,58.0327307 L58.4183618,51.6016954 C56.9858637,52.3962873 56.0988774,53.4788417 56.0988774,54.6722694" id="Fill-33" fill="#FFFFFF" fill-rule="nonzero" opacity="0.35"></path>
                    <path d="M72.4513774,54.6722694 C72.4513774,52.2407567 68.7837047,50.2627466 64.2752429,50.2627466 C62.2672046,50.2627466 60.428941,50.6565777 59.0041423,51.3068033 L70.1411324,57.7370686 C71.567856,56.9428618 72.4513774,55.8630022 72.4513774,54.6722694" id="Fill-35" fill="#FFFFFF" fill-rule="nonzero" opacity="0.35"></path>
                    <path d="M71.411363,31.7483331 L103.843338,50.4720584 L57.2396018,77.5963597 L48.0074762,72.2655877 L45.1845578,70.6355195 L36.0383206,65.354525 L33.7149864,64.0132663 L27.7710621,60.5811223 L27.6741442,60.2097642 L27.5801136,59.8369624 L34.2716626,63.7010502 L44.1697978,58.1491092 L47.7746039,60.2285991 L47.7584348,60.1993409 C48.6251456,59.7183447 49.7499994,59.4353226 50.9544849,59.3914926 L51.2848211,59.3855002 L51.5416707,59.3891415 C54.2631517,59.4640813 56.3591216,60.7247629 56.3591216,62.3202929 C56.3591216,63.0486174 55.9184619,63.7219433 55.1169576,64.2510655 L54.9398281,64.3620937 L58.2802707,66.2892869 L48.5546051,71.947674 L57.2384469,76.9615331 L79.6991407,63.8892653 L70.1057916,58.3500285 C68.5587628,59.1430034 66.5176165,59.6303839 64.2751274,59.6303839 C59.464074,59.6303839 55.5500162,57.4059887 55.5500162,54.6722694 C55.5500162,53.3695083 56.4454719,52.18609 57.896834,51.3006437 L48.2704538,45.742389 L48.5952618,45.5543331 L48.2704153,45.742235 L27.1436656,57.9398358 L27.0915975,57.6527395 L27.0412618,57.3650657 L71.411363,31.7483331 Z M44.166025,58.7803939 L34.8249511,64.0203114 L34.7966168,64.0359414 L36.5752475,65.0624817 L45.7075871,70.3320809 L47.9827992,71.6452363 L48.0066678,71.6313771 L48.3302022,71.8181678 L48.0069373,71.6313001 L57.1855511,66.2912887 L44.166025,58.7803939 Z M42.04592,62.087305 L51.007407,67.2575417 L45.7320716,70.3181062 L45.1838649,70.0016554 L49.9109934,67.2590816 L42.0378355,62.7163569 L37.1605661,65.3688461 L36.6035048,65.0473906 L42.04592,62.087305 Z M51.2847441,59.9345925 L50.9555059,59.9410735 C50.0840235,59.9761064 49.2688153,60.1494845 48.5757157,60.4326272 L48.3216557,60.543895 L54.5608956,64.1435424 L54.4819754,63.9957114 C55.3258443,63.5464436 55.8101449,62.9358706 55.8101449,62.3202929 C55.8101449,61.0688703 53.8693577,60.0052892 51.5208928,59.9379732 L51.2847441,59.9345925 Z M71.411363,32.3820047 L48.8190071,45.4257842 L58.4546651,50.989313 L58.4552618,50.9893331 L58.7501704,50.8448445 C60.2557905,50.1405938 62.1774858,49.7139238 64.2751274,49.7139238 C69.0857959,49.7139238 73.0002387,51.938319 73.0002387,54.6724234 C73.0002387,55.9037003 72.1996706,57.0285574 70.8865885,57.8960935 L70.6630453,58.0382744 L80.2453456,63.5713901 L80.3522618,63.6323331 L80.2454226,63.5712746 L102.748849,50.4739833 L93.6432652,45.2166649 L83.8894963,50.891606 L80.3049785,48.8231263 C79.3948937,49.2608833 78.2561327,49.5088083 77.0519257,49.5088083 C74.2069481,49.5088083 71.9783181,48.2195214 71.9783181,46.5737461 C71.9783181,45.8703938 72.3902432,45.2136236 73.1440275,44.6908252 L69.5916937,42.6412479 L79.5279416,37.0679407 L71.411363,32.3820047 Z M56.0989929,54.6721154 C56.0989929,57.103628 59.7666656,59.0816382 64.2751274,59.0816382 C66.1539676,59.0816382 67.883909,58.7365553 69.2655705,58.1596958 L69.5562374,58.0325767 L69.8332618,58.1923331 L69.8345755,58.193266 L69.8359424,58.1929255 L70.1265033,58.0451462 L70.1265033,58.0451462 L69.8348835,58.193266 L69.5561604,58.0327307 L69.5561604,58.0327307 L58.4184003,51.6016954 C56.9855942,52.3965183 56.0989929,53.4790727 56.0989929,54.6721154 Z M58.7215098,51.4420827 L59.0043348,51.3068033 L59.0043348,51.3068033 L70.1410939,57.7370686 C71.5678175,56.9428618 72.4513389,55.8630022 72.4513389,54.6722694 C72.4513389,52.2407567 68.7836662,50.2627466 64.2752044,50.2627466 C62.4010353,50.2627466 60.6750942,50.6058173 59.2945713,51.1802175 L59.0041039,51.3068033 L58.7215098,51.4420827 L58.7215098,51.4420827 Z M80.0714517,37.392322 L70.7018895,42.6480235 L83.8881104,50.2570874 L93.0905927,44.9032169 L90.9697562,43.679761 L90.9755309,43.6766812 L81.9992608,38.4945487 L81.9901754,38.49913 L80.0714517,37.392322 Z M73.680531,45.000385 C72.938065,45.4422997 72.5272948,45.9966661 72.5272948,46.5737461 C72.5272948,47.8672677 74.5996243,48.9598315 77.0519257,48.9598315 C77.9014729,48.9598315 78.7118187,48.828374 79.4192607,48.5912495 L79.7159642,48.4832304 L73.680531,45.000385 Z M81.9901754,38.4993224 L82.5476216,38.820778 L77.6507184,41.4840466 L85.675942,46.1164708 L90.4215495,43.3635027 L90.9697562,43.679761 L85.676712,46.7505274 L76.5281264,41.4698024 L81.9901754,38.4993224 Z" id="形状结合" fill="#FFFFFF" opacity="0.45"></path>
                    <polygon id="Fill-45" fill="#FFFFFF" fill-rule="nonzero" opacity="0.35" points="42.0378355 62.7163569 37.1605661 65.3688461 45.1838649 70.0016554 49.9109934 67.2590816"></polygon>
                    <polygon id="Fill-47" fill="#FFFFFF" fill-rule="nonzero" opacity="0.35" points="42.0457275 62.0871895 51.0072145 67.2578112 45.7318791 70.3179907 48.0067063 71.6315311 57.1853201 66.2911348 44.166179 58.7806249 34.8247201 64.0201574 36.6033123 65.0472751"></polygon>
                    <polygon id="Fill-53" fill="#FFFFFF" points="37.1365435 65.3820508 45.1617672 70.0144751 45.1837109 70.0017709 37.1604121 65.3689616"></polygon>
                    <polygon id="Fill-55" fill="#FFFFFF" points="36.5752475 65.0624817 36.6033508 65.0470826 34.8247586 64.0199649 34.7966553 64.0357489"></polygon>
                    <polygon id="Fill-57" fill="#FFFFFF" points="45.7075486 70.3322349 47.9827607 71.6453903 48.0070143 71.6315311 45.7318022 70.3179907"></polygon>
                    <polygon id="Fill-63" fill="#FFFFFF" points="45.1623832 70.6486087 36.0137976 65.3678837 36.0384361 65.3547945 33.7151019 64.0131508 33.6866136 64.0293198 47.9838772 72.2797548 48.0077457 72.2658957 45.1847118 70.6355195"></polygon>
                    <polygon id="Fill-77" fill="#FFFFFF" points="45.1838264 70.0015784 45.1614977 70.0142826 37.136659 65.3818584 37.1605276 65.3687692 36.6034663 65.0473136 36.575363 65.0623277 45.7073946 70.3322734 45.7320331 70.3180292"></polygon>
                    <polygon id="Fill-79" fill="#FFFFFF" points="36.0139516 65.3677682 45.1625372 70.6484932 45.1844808 70.635789 36.0382051 65.354679"></polygon>
                    <polygon id="Fill-85" fill="#FFFFFF" fill-rule="nonzero" opacity="0.35" points="76.5282419 41.4698794 81.9902909 38.4993994 80.0715672 37.3925915 70.702005 42.647908 83.8882259 50.2573569 93.0903232 44.9031014 90.9698717 43.6796455 85.6768275 46.7506044"></polygon>
                    <polygon id="Fill-87" fill="#FFFFFF" fill-rule="nonzero" opacity="0.35" points="85.675942 46.1164708 90.4215495 43.3635027 82.5476216 38.820778 77.6507184 41.4840466"></polygon>
                    <polygon id="Fill-97" fill="#FFFFFF" points="90.4253607 43.3611158 82.5522028 38.8183911 82.5475831 38.8210859 90.421511 43.3634257"></polygon>
                    <polygon id="Fill-105" fill="#FFFFFF" points="91.5212738 43.3598069 82.5601719 38.1891852 82.5555521 38.1918801 91.517424 43.3621168"></polygon>
                    <polygon id="Fill-111" fill="#FFFFFF" points="81.9900984 38.4992839 82.5475446 38.8207395 82.5521643 38.8184296 90.4253222 43.3611543 90.4214725 43.3634642 90.9696792 43.679915 90.9754539 43.6768352 81.9989529 38.4942792"></polygon>
                    <path d="M114.076595,50.3053635 C114.076595,50.6010256 113.359768,50.8404811 112.475862,50.8404811 C111.591571,50.8404811 110.874744,50.6010256 110.874744,50.3053635 C110.874744,50.0097014 111.591571,49.7702459 112.475862,49.7702459 C113.359768,49.7702459 114.076595,50.0097014 114.076595,50.3053635" id="Fill-151" fill="#FFFFFF" fill-rule="nonzero" opacity="0.200000003"></path>
                </g>
                <g transform="translate(109.377411, 36.410324)">
                    <mask id="mask-9" fill="white">
                        <use xlink:href="#path-8"></use>
                    </mask>
                    <g id="Clip-154"></g>
                    <path d="M5.40261335,0.190178475 L3.60361736,2.8415128 L3.60361736,1.72469548 C3.60361736,1.48523999 3.40804922,1.28890189 3.1689787,1.28890189 L3.1689787,1.28890189 C2.92990819,1.28890189 2.73434004,1.48523999 2.73434004,1.72469548 L2.73434004,1.72469548 L2.73434004,6.45682872 L0.794057624,3.59683703 C0.658930812,3.39857405 0.38752226,3.3466022 0.189644251,3.48134403 L0.189644251,3.48134403 C-0.00823375748,3.61647084 -0.0594356546,3.88903432 0.0749212033,4.08729731 L0.0749212033,4.08729731 L2.60152309,7.81117664 C2.63732592,7.86391845 2.68275317,7.90549593 2.73434004,7.93667904 L2.73434004,7.93667904 L2.73434004,13.6543525 C2.73434004,13.894578 2.92990819,14.0905311 3.1689787,14.0905311 L3.1689787,14.0905311 C3.40804922,14.0905311 3.60361736,13.894578 3.60361736,13.6543525 L3.60361736,13.6543525 L3.60361736,9.25676404 L5.83224731,5.97175811 C5.96698914,5.77349513 5.91501729,5.50093164 5.71752426,5.36580483 L5.71752426,5.36580483 C5.52003123,5.231063 5.2482377,5.28303485 5.11349587,5.48129783 L5.11349587,5.48129783 L3.60361736,7.70607801 L3.60361736,4.39181386 L6.12136479,0.680638753 C6.25610662,0.482375768 6.20451975,0.210197262 6.00664174,0.0750704507 L6.00664174,0.0750704507 C5.93234124,0.0242535302 5.8472614,0 5.76333649,0 L5.76333649,0 C5.62397493,0 5.48653826,0.066600964 5.40261335,0.190178475" id="Fill-153" fill="#FFFFFF" fill-rule="nonzero" opacity="0.200000003" mask="url(#mask-9)"></path>
                </g>
                <g transform="translate(101.914565, 50.227906)">
                    <mask id="mask-11" fill="white">
                        <use xlink:href="#path-10"></use>
                    </mask>
                    <g id="Clip-156"></g>
                    <path d="M9.9946883,0.0696807773 L5.32569124,2.86268652 C5.27987902,2.84382266 5.22790717,2.83381327 5.17054564,2.83573815 L5.17054564,2.83573815 L1.13368028,2.98202929 C0.918863295,2.98972882 0.71713552,3.15719367 0.684412503,3.35391675 L0.684412503,3.35391675 C0.652459439,3.55063983 0.802215364,3.70540045 1.01664737,3.69731594 L1.01664737,3.69731594 L4.11724947,3.58528773 L0.253623609,5.89630268 C0.0576704834,6.01333559 -0.0247145241,6.23893192 0.0692197835,6.39715733 L0.0692197835,6.39715733 C0.163539068,6.55538274 0.400684697,6.58887571 0.596637822,6.47184281 L0.596637822,6.47184281 L1.50826258,5.92671584 L0.0526657867,8.41212523 C-0.0558976344,8.59845393 0.00877844622,8.80326152 0.197032038,8.86870756 L0.197032038,8.86870756 C0.384900653,8.93376861 0.627435956,8.83444463 0.73676933,8.64888588 L0.73676933,8.64888588 L2.77406587,5.16946673 L5.48083684,3.55063983 L4.25892089,5.63682841 C4.15074244,5.82277214 4.21503355,6.02796471 4.40328714,6.09302576 L4.40328714,6.09302576 C4.59115575,6.15808682 4.83407603,6.05876284 4.94302443,5.87320408 L4.94302443,5.87320408 L6.74625516,2.79339072 L10.3377025,0.645605876 C10.5332707,0.528572968 10.6164256,0.30297664 10.5221063,0.144751228 L10.5221063,0.144751228 C10.4655148,0.0500469672 10.3581063,0 10.2387635,0 L10.2387635,0 C10.1586884,0 10.0732235,0.0227136236 9.9946883,0.0696807773" id="Fill-155" fill="#FFFFFF" fill-rule="nonzero" opacity="0.200000003" mask="url(#mask-11)"></path>
                </g>
                <path d="M72.5386132,26.8354918 C72.5386132,27.0187407 72.0943501,27.1673417 71.5457583,27.1673417 C70.9971666,27.1673417 70.5525185,27.0187407 70.5525185,26.8354918 C70.5525185,26.6522429 70.9971666,26.5036419 71.5457583,26.5036419 C72.0943501,26.5036419 72.5386132,26.6522429 72.5386132,26.8354918" id="Fill-157" fill="#FFFFFF" fill-rule="nonzero" opacity="0.200000003"></path>
                <g transform="translate(69.623520, 18.215171)">
                    <mask id="mask-13" fill="white">
                        <use xlink:href="#path-12"></use>
                    </mask>
                    <g id="Clip-160"></g>
                    <path d="M3.35150232,0.118187838 L2.23583993,1.76280817 L2.23583993,1.07023514 C2.23583993,0.921634149 2.1141873,0.799981521 1.9655863,0.799981521 L1.9655863,0.799981521 C1.81775526,0.799981521 1.69648761,0.921634149 1.69648761,1.07023514 L1.69648761,1.07023514 L1.69648761,4.00606723 L0.492280586,2.23170976 C0.408740649,2.10851722 0.240505844,2.07617918 0.117313309,2.15971912 L0.117313309,2.15971912 C-0.00472429516,2.24364404 -0.0370623355,2.41264879 0.046477602,2.53584133 L0.046477602,2.53584133 L1.6141026,4.84608633 C1.63604627,4.87880934 1.66414957,4.9042178 1.69648761,4.92385161 L1.69648761,4.92385161 L1.69648761,8.47141163 C1.69648761,8.62001263 1.81775526,8.74166526 1.9655863,8.74166526 L1.9655863,8.74166526 C2.1141873,8.74166526 2.23583993,8.62001263 2.23583993,8.47141163 L2.23583993,8.47141163 L2.23583993,5.74231202 L3.61790617,3.7046305 C3.70144611,3.58182294 3.66949305,3.41281818 3.54707047,3.32927825 L3.54707047,3.32927825 C3.42464788,3.24535333 3.25564313,3.27769137 3.17210319,3.40049893 L3.17210319,3.40049893 L2.23583993,4.78102527 L2.23583993,2.7244799 L3.79769028,0.422319407 C3.88123022,0.299126873 3.84927715,0.130507091 3.72646959,0.0465821771 L3.72646959,0.0465821771 C3.68027239,0.0150140901 3.62753059,0 3.57517376,0 L3.57517376,0 C3.48855401,0 3.40347417,0.0411925037 3.35150232,0.118187838" id="Fill-159" fill="#FFFFFF" fill-rule="nonzero" opacity="0.200000003" mask="url(#mask-13)"></path>
                </g>
                <g transform="translate(64.993579, 26.787447)">
                    <mask id="mask-15" fill="white">
                        <use xlink:href="#path-14"></use>
                    </mask>
                    <g id="Clip-162"></g>
                    <path d="M6.20054155,0.0435023638 L3.30436206,1.77589738 C3.27548881,1.7639631 3.24353575,1.75818845 3.20811789,1.75934338 L3.20811789,1.75934338 L0.703459674,1.85019788 C0.570257746,1.8548176 0.444755352,1.95837632 0.424736565,2.0807989 L0.424736565,2.0807989 C0.405102755,2.20283651 0.497882132,2.2986957 0.63108406,2.293691 L0.63108406,2.293691 L2.55442751,2.2243952 L0.157562756,3.65804832 C0.0359101279,3.73080891 -0.0152917693,3.87055544 0.0428397079,3.9687245 L0.0428397079,3.9687245 C0.101356162,4.06689355 0.248802227,4.08806726 0.370454854,4.01530667 L0.370454854,4.01530667 L0.935985583,3.6765272 L0.0324453378,5.21874374 C-0.0345406028,5.33423675 0.00549697092,5.46166402 0.122144902,5.50208657 L0.122144902,5.50208657 C0.23917781,5.54212415 0.389318711,5.48091286 0.457074605,5.36580483 L0.457074605,5.36580483 L1.72095301,3.20724064 L3.39983627,2.20283651 L2.64220219,3.49712807 C2.57521625,3.6122361 2.61525382,3.73966338 2.73151677,3.78008593 L2.73151677,3.78008593 C2.84893466,3.82050848 2.99907556,3.75929719 3.06683145,3.64380419 L3.06683145,3.64380419 L4.18557366,1.73277999 L6.41343365,0.400375737 C6.53508628,0.327615147 6.58628817,0.187868615 6.52777172,0.0900845409 L6.52777172,0.0900845409 C6.49273884,0.0311831103 6.42652286,0 6.35260734,0 L6.35260734,0 C6.30256037,0 6.24943359,0.0142441368 6.20054155,0.0435023638" id="Fill-161" fill="#FFFFFF" fill-rule="nonzero" opacity="0.200000003" mask="url(#mask-15)"></path>
                </g>
            </g>
        </g>
    </g>
</svg>