<?xml version="1.0" encoding="UTF-8"?>
<svg width="14px" height="13px" viewBox="0 0 14 13" version="1.1" xmlns="http://www.w3.org/2000/svg" xmlns:xlink="http://www.w3.org/1999/xlink">
    <!-- Generator: Sketch 55.2 (78181) - https://sketchapp.com -->
    <title>ico/聊天室/提示_slice</title>
    <desc>Created with Sketch.</desc>
    <g id="切图" stroke="none" stroke-width="1" fill="none" fill-rule="evenodd">
        <g id="画板" transform="translate(-12.000000, -313.000000)" fill="#F05050">
            <path d="M22.7431815,314.089026 C24.6906734,315.177542 26,317.191025 26,319.497641 C26,321.809513 24.6850647,323.826969 22.7298883,324.914166 C22.6414065,324.962669 22.5606821,325 22.4589618,325 C22.2056988,325 22,324.804064 22,324.562297 C22,324.383743 22.127196,324.239449 22.2748053,324.162514 C23.957398,323.225925 25.0892694,321.488226 25.0892694,319.497641 C25.0892694,317.505494 23.9563418,315.767223 22.2715093,314.830668 C22.118346,314.751409 22.0099972,314.611817 22.0099972,314.43746 C22.0099972,314.195953 22.214567,314 22.4683763,314 C22.5723183,314 22.6575041,314.040037 22.7431815,314.089026 Z M24,319.490241 C24,320.971902 23.1049267,322.261605 21.7817483,322.935532 C21.7817483,322.935532 21.6374146,323.000573 21.5159906,323 C21.231036,323 21,322.78858 21,322.527914 C21,322.357146 21.0984734,322.206749 21.2471524,322.124168 C22.2692394,321.615888 22.963041,320.627015 22.963041,319.490241 C22.963041,318.37272 22.2927816,317.398819 21.2991942,316.883723 C21.1443134,316.802036 21.0427187,316.646257 21.0427187,316.471282 C21.0427187,316.210894 21.2737547,316 21.5593417,316 C21.6553874,316 21.7922546,316.054558 21.8504777,316.082265 C23.1358947,316.76554 24,318.03517 24,319.490241 Z M19.672248,313.051759 C19.8594592,313.139188 19.978502,313.321798 19.978502,313.522499 C19.978502,313.522499 20,323.099031 20,323.145523 C20,323.19106 19.9930048,323.235064 19.9790496,323.276428 C19.9790496,323.858363 19.978502,325.477504 19.978502,325.477504 C19.978502,325.683402 19.8535238,325.869657 19.6588405,325.953969 C19.5874925,325.984514 19.5118696,326 19.4367944,326 C19.3069584,326 19.1782176,325.955025 19.0773871,325.868141 C19.0698796,325.862417 18.3639957,325.257705 17.5765889,324.639023 C16.2238037,323.574883 15.8043363,323.388184 15.7163657,323.357128 L12.44494,323.356668 C12.1987286,323.356668 12,323.165216 12,322.927785 L12,316.07382 C12,315.836899 12.1992762,315.644716 12.44494,315.644716 L13.4203529,315.644716 C13.4313404,315.644204 13.4417979,315.643165 13.4528031,315.643165 L15.3623639,315.643165 C15.4524895,315.61446 15.896617,315.433928 17.421033,314.350452 C18.2974879,313.728125 19.0913423,313.119528 19.0988675,313.113566 C19.2624255,312.988657 19.4850192,312.964858 19.672248,313.051759 Z M19.1015525,323.07053 C19.1015525,323.033306 19.0924022,322.996577 19.1015525,322.961414 C19.0999273,321.693488 19.0934797,314.281643 19.0934797,314.281643 C18.7963231,314.500983 18.4519838,314.751106 18.1001194,314.999407 C16.1240508,316.395324 15.6713383,316.511715 15.376319,316.511715 L13.1655917,316.511715 C12.9094703,316.511715 12.884245,316.640507 12.884245,316.845639 L12.884245,322.105744 C12.884245,322.407367 12.9569355,322.492752 13.2683123,322.492752 L15.7217358,322.492752 C15.7281658,322.492752 15.7335359,322.494268 15.7394359,322.494268 C15.7453359,322.494268 15.7507061,322.492752 15.757136,322.492752 C16.0596627,322.492752 16.5070228,322.611187 18.3125029,324.021313 C18.5871193,324.235524 18.8536982,324.450195 19.093462,324.645735 C19.093462,324.645735 19.1015525,323.095403 19.1015525,323.07053 Z" id="ico/聊天室/提示"></path>
        </g>
    </g>
</svg>