<?xml version="1.0" encoding="UTF-8"?>
<svg width="20px" height="20px" viewBox="0 0 20 20" version="1.1" xmlns="http://www.w3.org/2000/svg" xmlns:xlink="http://www.w3.org/1999/xlink">
    <!-- Generator: Sketch 55.2 (78181) - https://sketchapp.com -->
    <title>ico/聊天室/表情_slice</title>
    <desc>Created with Sketch.</desc>
    <g id="切图" stroke="none" stroke-width="1" fill="none" fill-rule="evenodd">
        <g id="画板" transform="translate(-111.000000, -57.000000)">
            <g id="ico/表情" transform="translate(111.000000, 57.000000)">
                <circle id="椭圆形" stroke="#979797" stroke-width="1" cx="10" cy="10" r="9.5"></circle>
                <path d="M18.9725356,7 C18.9906833,7.16416693 19,7.33099545 19,7.5 C19,9.98528137 16.9852814,12 14.5,12 C12.0147186,12 10,9.98528137 10,7.5 C10,7.33099545 10.0093167,7.16416693 10.0274644,7 L9.97253561,7 C9.99068334,7.16416693 10,7.33099545 10,7.5 C10,9.98528137 7.98528137,12 5.5,12 C3.01471863,12 1,9.98528137 1,7.5 C1,7.33099545 1.00931666,7.16416693 1.02746439,7 L0.5,7 C0.223857625,7 3.38176876e-17,6.77614237 0,6.5 C-3.38176876e-17,6.22385763 0.223857625,6 0.5,6 L19.5,6 C19.7761424,6 20,6.22385763 20,6.5 C20,6.77614237 19.7761424,7 19.5,7 L18.9725356,7 Z" id="形状结合" fill="#979797" fill-rule="evenodd"></path>
                <path d="M9.45573959,17.0325086 C12.1914346,17.2758002 14.0814172,16.1364083 15.0016188,13.6752407 C15.0983267,13.4165862 14.967043,13.1285079 14.7083884,13.0318 C14.4497338,12.9350921 14.1616556,13.0663759 14.0649477,13.3250304 C13.305192,15.3570701 11.8396731,16.2405706 9.54432228,16.0364398 C9.26926547,16.0119783 9.02645796,16.215126 9.00199653,16.4901828 C8.97753509,16.7652396 9.18068278,17.0080472 9.45573959,17.0325086 Z" id="路径-8" fill="#979797" fill-rule="nonzero" transform="translate(12.016709, 15.032328) rotate(6.000000) translate(-12.016709, -15.032328) "></path>
            </g>
        </g>
    </g>
</svg>