<?xml version="1.0" encoding="UTF-8"?>
<svg width="24px" height="24px" viewBox="0 0 24 24" version="1.1" xmlns="http://www.w3.org/2000/svg" xmlns:xlink="http://www.w3.org/1999/xlink">
    <!-- Generator: Sketch 55.2 (78181) - https://sketchapp.com -->
    <title>ico/聊天室/ai助手_slice</title>
    <desc>Created with Sketch.</desc>
    <g id="切图" stroke="none" stroke-width="1" fill="none" fill-rule="evenodd">
        <g id="画板" transform="translate(-146.000000, -55.000000)">
            <g id="ico/聊天室/AI助手" transform="translate(146.000000, 55.000000)">
                <circle id="椭圆形备份-5" cx="12" cy="12" r="12"></circle>
                <path d="M10.0564499,16.0549415 L10.0564499,15.2088182 C9.90265776,15.2003675 9.76029615,15.1887478 9.61897368,15.1866351 C8.86871762,15.1845225 8.11742243,15.1908605 7.36716637,15.1845225 C6.91098575,15.1802971 6.75719364,15.0281851 6.75719364,14.5781869 C6.75511538,12.401083 6.75511538,10.2239792 6.75719364,8.04370629 C6.75719364,7.57046876 6.90267266,7.43420171 7.39522304,7.43420171 C8.85520885,7.43208904 10.3151947,7.43420171 11.8364895,7.43420171 C11.8364895,6.79828879 11.8427243,6.69054274 11.8260981,6.0757565 C11.8240199,6.00920748 11.6941279,5.92998244 11.610997,5.88139109 C11.1475425,5.62153298 10.944911,5.20428115 11.0706464,4.74055063 C11.1788515,4.30294673 11.5672032,3.9971566 12.0110643,4.00001994 C12.4540827,4.00620475 12.8367712,4.31655306 12.9410909,4.75428297 C13.0553958,5.2275205 12.8475686,5.63632166 12.3851532,5.89089809 C12.2874745,5.94582745 12.1575825,6.06413683 12.1555042,6.15498153 C12.1336823,6.7327961 12.1451128,6.80357046 12.1451128,7.42997637 L16.5552052,7.42997637 C17.104908,7.42997637 17.2410349,7.55990543 17.2431132,8.12293132 C17.2472696,10.2334862 17.2472696,12.3429847 17.2431132,14.4535395 C17.2431132,15.0556498 17.1090646,15.1792408 16.4990919,15.1813535 C15.6948007,15.1834661 14.8915488,15.1855788 14.0872577,15.1898041 C14.0488096,15.1898041 14.0114008,15.2077618 13.9428178,15.2267758 L13.9428178,16.1172652 C14.2306584,16.1172652 14.518499,16.1151525 14.8063397,16.1172652 C15.1482153,16.1193779 15.3300641,16.2926166 15.3321424,16.6422631 C15.3342207,17.4123303 15.3321424,17.6753574 15.3342207,18.4475375 C15.3342207,18.8193669 15.1357457,18.996831 14.7865961,18.996831 C12.9223864,19.0010563 11.0612942,19.0010563 9.19708453,18.996831 C8.84273923,18.996831 8.65673391,18.8183105 8.66089046,18.4422557 C8.66920355,17.6838082 8.65881219,17.4355697 8.665047,16.6771221 C8.66920355,16.2640956 8.81052602,16.1299412 9.22929774,16.1183215 C9.48284689,16.1119835 9.73743516,16.1098709 9.99306257,16.1045892 C9.99825825,16.1056455 10.0086496,16.0908568 10.0564499,16.0549415 L10.0564499,16.0549415 Z M8.65673391,11.3257353 C8.65942498,11.5862842 8.76492799,11.8348214 8.94956129,12.0155589 C9.13419458,12.1962965 9.38249116,12.2940939 9.63871725,12.286999 C10.1725978,12.2721093 10.5975647,11.8274583 10.5968025,11.2845382 C10.5864091,10.7447517 10.1510112,10.3274999 9.60026923,10.3338379 C9.34360915,10.3312729 9.09719266,10.4360528 8.91876914,10.6236217 C8.74034562,10.8111905 8.64559903,11.0650604 8.65673391,11.3257353 L8.65673391,11.3257353 Z M14.395881,10.3380632 C14.1396373,10.3312595 13.8913975,10.4291201 13.7066631,10.6097655 C13.5219287,10.7904109 13.4161073,11.0387744 13.4128585,11.2993269 C13.408702,11.8274938 13.8565695,12.2848863 14.3823722,12.2891168 C14.9160431,12.2903364 15.3516753,11.8554947 15.360199,11.3130593 C15.3645013,11.0522366 15.2641138,10.8008833 15.0821719,10.6169268 C14.9002301,10.4329703 14.6524303,10.3322807 14.395881,10.3380632 L14.395881,10.3380632 Z M18.1398874,13.157418 L18.1398874,9.46341885 C19.1114794,9.37996848 19.9895491,10.2525002 19.9999404,11.2813692 C20.0082535,12.3355903 19.1457708,13.220798 18.1398874,13.157418 L18.1398874,13.157418 Z M5.83859758,13.170094 C4.83671372,13.1800883 4.01518695,12.3652648 4.00036633,11.3468619 C3.98062275,10.2884155 4.76101375,9.46764419 5.83859758,9.43912318 L5.83859758,13.170094 L5.83859758,13.170094 Z" id="形状" fill="#5078FF"></path>
            </g>
        </g>
    </g>
</svg>