<?xml version="1.0" encoding="UTF-8"?>
<svg width="30px" height="30px" viewBox="0 0 30 30" version="1.1" xmlns="http://www.w3.org/2000/svg" xmlns:xlink="http://www.w3.org/1999/xlink">
    <title>icon_details_show_share</title>
    <g id="icon_details_show_share" stroke="none" stroke-width="1" fill="none" fill-rule="evenodd">
        <circle id="椭圆形" fill="#5078FF" cx="15" cy="15" r="15"></circle>
        <g id="编组" transform="translate(6.000000, 6.000000)" fill="#222222" fill-rule="nonzero">
            <g id="icon/全局/分享">
                <path d="M9.56091274,2.70537025 C8.72836001,2.77295338 8.07377793,3.47003377 8.07377793,4.32 L8.07210366,5.20827452 L7.82806728,5.23535812 C6.74258012,5.37000798 5.83858627,5.65260117 5.05427219,6.12386663 C3.0609054,7.32160736 1.63207497,9.55494543 1.27706635,11.5144537 C1.05548292,12.7375074 1.23353114,13.6128677 1.98939023,13.9472863 C2.5475796,14.1942489 3.03528284,14.0573444 3.66499011,13.6838285 L4.015698,13.467905 C4.73769254,13.0245363 5.43711175,12.7032901 6.0545855,12.6087853 L6.3549735,12.5684396 C6.86239442,12.5094899 7.40498495,12.4915499 8.00222078,12.5077756 L8.07300366,12.5099745 L8.07377793,13.5757904 C8.07377793,13.9311137 8.19060766,14.2765934 8.40627081,14.5589995 C8.94928931,15.27007 9.96592934,15.4063031 10.6769999,14.8632847 L15.8004711,10.9506776 C15.9785952,10.8146508 16.1377767,10.6554693 16.2738035,10.4773452 C17.118499,9.37123542 16.9065808,7.78979536 15.8004711,6.94509992 L10.6769999,3.03249288 C10.3945938,2.81682973 10.0491141,2.7 9.69377793,2.7 L9.56091274,2.70537025 Z M9.69377793,4.14 C9.73325972,4.14 9.77164636,4.15298108 9.80302481,4.17694365 L14.926496,8.08955069 C15.400543,8.45156302 15.4913651,9.12932305 15.1293528,9.60337008 C15.0710556,9.67970898 15.0028349,9.74792962 14.926496,9.80622685 L9.80302481,13.7188339 C9.72401697,13.7791693 9.61105697,13.7640323 9.55072158,13.6850244 C9.52675901,13.653646 9.51377793,13.6152593 9.51377793,13.5757775 L9.51373468,11.1506735 L8.84111343,11.1063276 C7.71512965,11.0320915 6.74725518,11.0460037 5.83672928,11.1853604 C5.07530068,11.3018976 4.32380693,11.6211518 3.55241461,12.0675824 L3.14527312,12.3133079 L2.92099499,12.4509652 L2.76089702,12.5406786 L2.64330366,12.5981745 L2.64910148,12.6360279 C2.61295132,12.4582984 2.62267839,12.1648291 2.69399982,11.7711628 C2.97813776,10.2028329 4.17492778,8.33218632 5.79592935,7.35818614 C6.56405571,6.89664729 7.5320276,6.65777673 8.82687386,6.59572536 L9.51180668,6.56290215 L9.51377765,4.32063288 C9.51377793,4.22058875 9.59436667,4.14 9.69377793,4.14 Z" id="形状结合备份-6"></path>
            </g>
        </g>
    </g>
</svg>