<?xml version="1.0" encoding="UTF-8"?>
<svg width="42px" height="42px" viewBox="0 0 42 42" version="1.1" xmlns="http://www.w3.org/2000/svg" xmlns:xlink="http://www.w3.org/1999/xlink">
    <!-- Generator: Sketch 55.2 (78181) - https://sketchapp.com -->
    <title>icon_home_back_top</title>
    <desc>Created with Sketch.</desc>
    <g id="icon_home_back_top" stroke="none" stroke-width="1" fill="none" fill-rule="evenodd">
        <circle id="椭圆形" fill="#5078FF" cx="21" cy="21" r="19"></circle>
        <path d="M21.5346096,15.4499749 L21.5364257,15.4482995 C23.8397924,13.1459531 27.042964,12.327217 29.8904605,13.0223887 C30.5861644,15.8684183 29.7668264,19.0696432 27.46332,21.3718499 C27.4314685,21.4036834 27.3994773,21.4352377 27.3672067,21.4665128 L26.100411,22.7327335 L27.1477387,24.5820104 C27.4651609,25.1425172 27.4330107,25.835257 27.0650365,26.3639902 L24.3087639,30.3246124 C23.7802804,31.0841493 22.7354672,31.27166 21.9753618,30.7434746 C21.9477549,30.7242333 21.9207341,30.7041653 21.894336,30.6832981 L21.9014607,30.6743624 C21.4999051,30.4232722 21.3587691,29.9059643 21.577218,29.4859104 C21.5765665,29.4856303 21.5759145,29.485351 21.5752622,29.4850727 C22.1209288,28.5540815 22.1867273,27.3363092 21.8163837,26.0936844 C20.4633933,26.3952653 18.9899818,26.0196854 17.9372058,24.967643 C16.8847092,23.9157402 16.509057,22.4435789 16.8102493,21.091631 C15.5676215,20.7219152 14.3497206,20.7878162 13.4186229,21.3328957 C13.4183444,21.3322438 13.418065,21.3315922 13.4177847,21.330941 C12.9975287,21.5492922 12.4799386,21.4082993 12.2286619,21.0070208 L12.2208387,21.0131642 C11.7098177,20.3558296 11.7563376,19.4057103 12.3605383,18.8018505 C12.4308158,18.731592 12.5072064,18.6677199 12.5888074,18.610989 L16.5539006,15.8548751 C17.0817468,15.4879397 17.7730773,15.4550687 18.3333938,15.7702649 L20.1757518,16.8068095 L21.4933983,15.4899065 C21.5069491,15.4762236 21.5207794,15.4629596 21.5346096,15.4499749 L21.5346096,15.4499749 Z M15.8264849,23.7151051 C16.2166658,24.7185595 16.6403746,25.4486365 17.0974716,25.9054756 C17.5452088,26.3529602 18.2346262,26.7478077 19.1658636,27.0898786 C19.3100349,27.1428314 19.4136722,27.2703638 19.4359612,27.4222508 C19.4582502,27.5741379 19.3956192,27.7260421 19.2727338,27.8181405 L17.6823938,29.0100829 C17.541073,29.1159655 17.3485012,29.1219349 17.2008865,29.025009 C17.0532719,28.928083 16.9823011,28.7490676 17.0234308,28.5773982 L17.0928615,28.2878247 C17.131498,28.1267737 17.0715592,27.9580928 16.9399406,27.8574717 C16.8083221,27.7568505 16.6297413,27.7431855 16.4843302,27.8226083 L15.0816067,28.5888471 C14.9183929,28.677894 14.7159871,28.6488097 14.5844851,28.5174142 C14.452983,28.3860186 14.4238326,28.1837342 14.5128897,28.0205906 L15.3309705,26.5244145 C15.4070871,26.3852815 15.3980641,26.2151179 15.3076599,26.0848048 C15.2172558,25.9544918 15.0609722,25.8863743 14.9039088,25.9088265 L14.1982863,26.0097723 C14.0304548,26.0337896 13.8646773,25.9543793 13.7782815,25.8085826 C13.6918857,25.662786 13.7018928,25.4793272 13.803635,25.3437813 L15.1004661,23.6155555 C15.1917866,23.4938772 15.34193,23.4312391 15.4927069,23.4519172 C15.6434839,23.4725952 15.7711952,23.5733393 15.8263452,23.7151051 L15.8264849,23.7151051 Z M23.5683561,19.3409263 C24.2229883,19.9953288 25.2844257,19.9953288 25.9390579,19.3409263 C26.5938299,18.686803 26.5938299,17.6259645 25.9390579,16.971562 C25.2844257,16.3172991 24.2229883,16.3172991 23.5683561,16.971562 C22.9137239,17.6259645 22.9137239,18.686803 23.5683561,19.3409263 L23.5683561,19.3409263 Z" id="形状" fill="#FFFFFF" fill-rule="nonzero" transform="translate(21.000000, 21.913043) rotate(-45.000000) translate(-21.000000, -21.913043) "></path>
    </g>
</svg>