<?xml version="1.0" encoding="UTF-8"?>
<svg width="20px" height="20px" viewBox="0 0 20 20" version="1.1" xmlns="http://www.w3.org/2000/svg" xmlns:xlink="http://www.w3.org/1999/xlink">
    <title>icon_home_betlist_white</title>
    <g id="icon_home_betlist_white" stroke="none" stroke-width="1" fill="none" fill-rule="evenodd" opacity="0.400000006">
        <g id="icon/底部导航/投注默认" transform="translate(1.000000, 3.000000)" fill="#FFFFFF" fill-rule="nonzero">
            <path d="M16,0 C17.1045695,0 18,0.8954305 18,2 L18,12 C18,13.1045695 17.1045695,14 16,14 L2,14 C0.8954305,14 0,13.1045695 0,12 L0,2 C0,0.8954305 0.8954305,0 2,0 L16,0 Z M16,1.3 L2,1.3 C1.61340068,1.3 1.3,1.61340068 1.3,2 L1.3,12 C1.3,12.3865993 1.61340068,12.7 2,12.7 L16,12.7 C16.3865993,12.7 16.7,12.3865993 16.7,12 L16.7,2 C16.7,1.61340068 16.3865993,1.3 16,1.3 Z M9.5,6.35 C9.85898509,6.35 10.15,6.64101491 10.15,7 C10.15,7.35898509 9.85898509,7.65 9.5,7.65 L9.5,7.65 L3.88115904,7.65 C3.52217395,7.65 3.23115904,7.35898509 3.23115904,7 C3.23115904,6.64101491 3.52217395,6.35 3.88115904,6.35 L3.88115904,6.35 Z M9.5,3.358 C9.85898509,3.358 10.15,3.64901491 10.15,4.008 C10.15,4.36698509 9.85898509,4.658 9.5,4.658 L9.5,4.658 L3.88115904,4.658 C3.52217395,4.658 3.23115904,4.36698509 3.23115904,4.008 C3.23115904,3.64901491 3.52217395,3.358 3.88115904,3.358 L3.88115904,3.358 Z" id="形状结合"></path>
        </g>
    </g>
</svg>