<?xml version="1.0" encoding="utf-8"?>
<svg xmlns:xlink="http://www.w3.org/1999/xlink" xmlns="http://www.w3.org/2000/svg" version="1.1" viewBox="0 0 20 20" height="128px" width="128px" style="height: 100%; width: 100%; background: rgb(255, 255, 255); shape-rendering: auto;"><g class="ldl-scale" style="transform-origin: 50% 50%; transform: rotate(0deg) scale(0.8, 0.8);"><g class="ldl-ani" style="transform-origin: 10px 10px;">
    
    <title>icon_home_mine_selected</title>
    <desc>Created with Sketch.</desc>
    <g class="ldl-layer"><g class="ldl-ani"><g fill-rule="evenodd" fill="none" stroke-width="1" stroke="none" id="icon_home_mine_selected">
        <g class="ldl-layer"><g class="ldl-ani"><g id="icon/底部导航/我的">
            <g class="ldl-layer"><g class="ldl-ani"><g id="资源-2">
                <g class="ldl-layer"><g class="ldl-ani" style="transform-origin: 10px 10px; opacity: 1; animation: 1s linear 0.375s 1 normal forwards running blink-bff2477b-3ebc-47ad-890c-2b004932eb77;"><rect height="20" width="20" y="0" x="0" fill-rule="nonzero" fill="#FFFFFF" id="矩形" style="fill: rgb(255, 255, 255);"></rect></g></g>
                <g class="ldl-layer"><g class="ldl-ani" style="transform-origin: 10px 10px; opacity: 1; animation: 1s linear 0.25s 1 normal forwards running blink-bff2477b-3ebc-47ad-890c-2b004932eb77;"><path fill-rule="nonzero" fill="#FFCC00" id="路径" d="M16.768,9.867 C15.0434173,9.8673739 13.4506721,8.94424749 12.5937049,7.4476538 C11.7367377,5.95106011 11.7467708,4.11016385 12.62,2.623 C9.40598477,1.48095349 5.82245795,2.55147342 3.76152392,5.2693246 C1.70058989,7.98717577 1.63672723,11.7266408 3.60365548,14.5132799 C5.57058373,17.299919 9.11546677,18.492178 12.3666042,17.4605435 C15.6177416,16.428909 17.8266401,13.410889 17.827,10 C17.827,9.916 17.827,9.833 17.827,9.75 C17.4793921,9.82791754 17.1242336,9.86715601 16.768,9.867 L16.768,9.867 Z" style="fill: rgb(255, 204, 0);"></path></g></g>
                <g class="ldl-layer"><g class="ldl-ani" style="transform-origin: 10px 10px; opacity: 1; animation: 1s linear 0.125s 1 normal forwards running blink-bff2477b-3ebc-47ad-890c-2b004932eb77;"><path fill-rule="nonzero" fill="#333333" id="椭圆形" d="M10,18.54 C14.7165118,18.54 18.54,14.7165118 18.54,10 C18.54,5.28348824 14.7165118,1.46 10,1.46 C5.28348824,1.46 1.46,5.28348824 1.46,10 C1.46,14.7165118 5.28348824,18.54 10,18.54 Z M10,17.114 C6.07104629,17.114 2.886,13.9289537 2.886,10 C2.886,6.07104629 6.07104629,2.886 10,2.886 C13.9289537,2.886 17.114,6.07104629 17.114,10 C17.114,13.9289537 13.9289537,17.114 10,17.114 Z" style="fill: rgb(51, 51, 51);"></path></g></g>
                <g class="ldl-layer"><g class="ldl-ani" style="transform-origin: 10px 10px; opacity: 1; animation: 1s linear 0s 1 normal forwards running blink-bff2477b-3ebc-47ad-890c-2b004932eb77;"><path fill-rule="nonzero" fill="#333333" id="路径" d="M5.67714334,12.7543425 C6.51848117,14.3635963 8.184085,15.3722995 10,15.3722995 C11.815915,15.3722995 13.4815188,14.3635963 14.3228567,12.7543425 C14.5052998,12.4053777 14.3703073,11.9745865 14.0213425,11.7921433 C13.6723777,11.6097002 13.2415865,11.7446927 13.0591433,12.0936575 C12.4637563,13.2324735 11.2850633,13.9462995 10,13.9462995 C8.71493674,13.9462995 7.53624375,13.2324735 6.94085666,12.0936575 C6.75841355,11.7446927 6.32762231,11.6097002 5.97865751,11.7921433 C5.62969272,11.9745865 5.49470022,12.4053777 5.67714334,12.7543425 Z" style="fill: rgb(51, 51, 51);"></path></g></g>
            </g></g></g>
        </g></g></g>
    </g></g></g>
</g></g><style id="blink-bff2477b-3ebc-47ad-890c-2b004932eb77" data-anikit="">@keyframes blink-bff2477b-3ebc-47ad-890c-2b004932eb77 {
  0% { opacity: 1; }
  49.75% { opacity: 1; }
  50.25% { opacity: 0; }
  99.5% { opacity: 0; }
  100% { opacity: 1; }
}</style><!-- [ldio] generated by https://loading.io/ --></svg>