<?xml version="1.0" encoding="UTF-8"?>
<svg width="22px" height="22px" viewBox="0 0 22 22" version="1.1" xmlns="http://www.w3.org/2000/svg" xmlns:xlink="http://www.w3.org/1999/xlink">
    <title>icon/底部导航/我的</title>
    <g id="icon/底部导航/我的" stroke="none" stroke-width="1" fill="none" fill-rule="evenodd" opacity="0.699999988">
        <g id="编组" transform="translate(1.222222, 1.222222)" fill="#222222" fill-rule="nonzero">
            <path d="M9.77712943,0 C15.1688143,0 19.5542589,4.38544453 19.5555556,9.77712943 C19.5555556,15.1688143 15.1688143,19.5555556 9.77712943,19.5555556 C4.38674123,19.5555556 0,15.1688143 0,9.77712943 C0,4.38674123 4.38544453,0 9.77712943,0 Z M9.77712943,1.3968254 C5.15736607,1.3968254 1.3968254,5.15771038 1.3968254,9.77712943 C1.3968254,14.3971968 5.15801443,18.1587302 9.77712943,18.1587302 C14.397369,18.1587302 18.1587302,14.397369 18.1587302,9.77746536 C18.1576189,5.15684726 14.3972528,1.3968254 9.77712943,1.3968254 Z M9.7778606,12.5714286 C11.225744,12.5714286 12.6736274,13.1263879 13.7765893,14.2376278 C13.8995418,14.361593 13.9684993,14.5297431 13.9682546,14.7049926 C13.9680073,14.8802422 13.8985779,15.048195 13.7752778,15.1718093 C13.5191199,15.4295027 13.1042132,15.4295027 12.8480554,15.1718093 C11.1549236,13.4659701 8.3994861,13.4659701 6.70635434,15.1718093 C6.45019648,15.4295027 6.03528977,15.4295027 5.77913191,15.1718093 C5.52335815,14.9137289 5.52335815,14.4957082 5.77913191,14.2376278 C6.88209381,13.1263879 8.32997721,12.5714286 9.7778606,12.5714286 Z M9.77777778,4.19047619 C11.7063912,4.19047619 13.2698413,5.75392627 13.2698413,7.68253968 C13.2698413,9.61115309 11.7063912,11.1746032 9.77777778,11.1746032 C7.84916437,11.1746032 6.28571429,9.61115309 6.28571429,7.68253968 C6.28571429,5.75392627 7.84916437,4.19047619 9.77777778,4.19047619 Z M9.77777778,5.58730159 C8.62060973,5.58730159 7.68253968,6.52537164 7.68253968,7.68253968 C7.68253968,8.83970773 8.62060973,9.77777778 9.77777778,9.77777778 C10.9349458,9.77777778 11.8730159,8.83970773 11.8730159,7.68253968 C11.8730159,6.52537164 10.9349458,5.58730159 9.77777778,5.58730159 Z" id="形状结合"></path>
        </g>
    </g>
</svg>