<?xml version="1.0" encoding="UTF-8"?>
<svg width="20px" height="20px" viewBox="0 0 20 20" version="1.1" xmlns="http://www.w3.org/2000/svg" xmlns:xlink="http://www.w3.org/1999/xlink">
    <title>icon_home_sport_white</title>
    <g id="icon_home_sport_white" stroke="none" stroke-width="1" fill="none" fill-rule="evenodd" opacity="0.400000006">
        <g id="icon/底部导航/投注默认" transform="translate(0.000000, 2.000000)" fill="#FFFFFF" fill-rule="nonzero">
            <path d="M9.64888665,0.163671879 C9.84258089,0.0576653719 10.0768444,0.0572382573 10.2709239,0.162537767 L10.2709239,0.162537767 L19.309978,5.06675479 C19.6255127,5.23795091 19.7425223,5.63252424 19.5713262,5.948059 C19.4001301,6.26359376 19.0055568,6.38060335 18.690022,6.20940723 L18.690022,6.20940723 L17.5048779,5.56586399 L17.5057349,14.3177655 C17.5057349,15.1810737 16.8427195,15.8895264 15.9981033,15.961709 L15.8557349,15.9677655 L4.27257591,15.9677655 C3.36130608,15.9677655 2.62257591,15.2290353 2.62257591,14.3177655 L2.62257591,14.3177655 L2.62187787,5.49086399 L1.31205923,6.20827312 C1.02864166,6.36338412 0.68035203,6.28528349 0.487888372,6.03854403 L0.429807893,5.95014024 C0.257462341,5.63523183 0.373032368,5.24023446 0.687940773,5.06788891 L0.687940773,5.06788891 Z M9.9622955,1.47410369 L3.92187787,4.77986399 L3.92257591,14.3177655 C3.92257591,14.4869027 4.04254961,14.6280185 4.20203871,14.6606547 L4.27257591,14.6677655 L15.8557349,14.6677655 C16.0490346,14.6677655 16.2057349,14.5110651 16.2057349,14.3177655 L16.2057349,14.3177655 L16.2048779,4.86086399 L9.9622955,1.47410369 Z" id="形状结合"></path>
        </g>
    </g>
</svg>