<?xml version="1.0" encoding="utf-8"?>
<svg xmlns:xlink="http://www.w3.org/1999/xlink" xmlns="http://www.w3.org/2000/svg" version="1.1" viewBox="0 0 20 20" height="128px" width="128px" style="height: 100%; width: 100%; background: rgb(255, 255, 255); shape-rendering: auto;"><g class="ldl-scale" style="transform-origin: 50% 50%; transform: rotate(0deg) scale(0.8, 0.8);"><g class="ldl-ani" style="transform-origin: 10px 10px;">
    
    <title>icon_home_match_selected</title>
    <desc>Created with Sketch.</desc>
    <g class="ldl-layer"><g class="ldl-ani"><g fill-rule="evenodd" fill="none" stroke-width="1" stroke="none" id="icon_home_match_selected">
        <g class="ldl-layer"><g class="ldl-ani"><g fill-rule="nonzero" id="icon/底部导航/比赛">
            <g class="ldl-layer"><g class="ldl-ani" style="transform-origin: 10px 10px; opacity: 1; animation: 1s linear 0.333333s 1 reverse forwards running blink-f17e358e-4c6b-4bad-8b67-a470a0087ca5;"><rect height="20" width="20" y="0" x="0" fill="#FFFFFF" id="矩形" style="fill: rgb(255, 255, 255);"></rect></g></g>
            <g class="ldl-layer"><g class="ldl-ani" style="transform-origin: 10px 10px; opacity: 1; animation: 1s linear 0.166667s 1 reverse forwards running blink-f17e358e-4c6b-4bad-8b67-a470a0087ca5;"><path fill="#FFCC00" id="路径" d="M10.9234241,2.732 C10.9234241,2.732 10.116921,8.27614062 15.5,9.332 L14.4909723,13.091375 L11.719142,14.732 L8.28700967,14.5937187 L5.60146201,12.7105156 L4.29883359,10.3667656 L1.7475034,9.20660937 L0.5,7.18395312 L0.903850763,5.572625 L4.7206599,5.53864062 L4.86805944,2.99215625 L10.9234241,2.732 Z" style="fill: rgb(255, 204, 0);"></path></g></g>
            <g class="ldl-layer"><g class="ldl-ani" style="transform-origin: 10px 10px; opacity: 1; animation: 1s linear 0s 1 reverse forwards running blink-f17e358e-4c6b-4bad-8b67-a470a0087ca5;"><path fill="#333333" id="形状" d="M16.2251101,11.3051993 C15.5426117,13.26024 13.2964791,14.9306303 10.8045962,14.9306303 L10.8045962,16.647359 L14.8802977,16.647359 C15.2538192,16.647359 15.5566182,16.950158 15.5566182,17.3236795 C15.5566182,17.697201 15.2538192,18 14.8802977,18 L5.12324091,18 C4.7497194,18 4.4469204,17.697201 4.4469204,17.3236795 C4.4469204,16.950158 4.7497194,16.647359 5.12324091,16.647359 L9.20912898,16.647359 L9.20912898,14.9306303 C6.693053,14.9306303 4.46984012,13.26024 3.78734178,11.3051993 C1.63925464,10.3034064 -5.08393327e-12,8.68266446 -5.08393327e-12,6.76182596 C-5.08393327e-12,5.20728175 0.664671893,4.70638533 1.58018739,4.72514136 C2.47150985,4.7416908 3.65237009,4.72514136 3.65237009,4.72514136 L3.65237009,3 C3.65237009,2.44771525 4.10008534,2 4.65237009,2 L15.3473486,2 C15.8996333,2 16.3473486,2.44771525 16.3473486,3 L16.3473486,4.72514136 L18.4195313,4.72514136 C19.3172203,4.72514136 19.9997187,5.1929389 19.9997187,6.76403255 C20.0188184,8.785271 18.3808371,10.305613 16.2352966,11.3074059 L16.2251101,11.3051993 Z M3.51103181,7.41277065 C3.51103181,7.41277065 3.65237009,5.88090693 2.76946622,5.88090693 C1.71259534,5.88090693 1.35591154,6.2123845 1.35591154,6.76403255 C1.37501131,8.33402289 3.51103181,9.72346046 3.51103181,9.3870543 L3.51103181,7.41277065 Z M14.2599317,3.3372527 L5.72139947,3.3372527 C5.27957167,3.3372527 4.92139947,3.6954249 4.92139947,4.1372527 L4.92139947,8.94586954 C4.88192662,12.1200524 7.44940378,13.7076955 10.0049526,13.7076955 C12.5605014,13.7076955 15.0599317,12.1923728 15.0599317,8.94586954 L15.0599317,4.1372527 C15.0599317,3.6954249 14.7017595,3.3372527 14.2599317,3.3372527 Z M17.2720189,5.88090693 C16.3473486,5.88090693 16.4976001,8.21486691 16.4976001,8.21486691 L16.4976001,9.63808805 C16.4976001,9.96065404 18.9043332,8.40743065 18.9043332,6.76182596 C18.9043332,5.97627913 18.0689512,5.88090693 17.2720189,5.88090693 Z" style="fill: rgb(51, 51, 51);"></path></g></g>
        </g></g></g>
    </g></g></g>
</g></g><style id="blink-f17e358e-4c6b-4bad-8b67-a470a0087ca5" data-anikit="">@keyframes blink-f17e358e-4c6b-4bad-8b67-a470a0087ca5 {
  0% { opacity: 1; }
  49.75% { opacity: 1; }
  50.25% { opacity: 0; }
  99.5% { opacity: 0; }
  100% { opacity: 1; }
}</style><!-- [ldio] generated by https://loading.io/ --></svg>