<?xml version="1.0" encoding="UTF-8"?>
<svg width="20px" height="20px" viewBox="0 0 20 20" version="1.1" xmlns="http://www.w3.org/2000/svg" xmlns:xlink="http://www.w3.org/1999/xlink">
    <title>icon_home_mine_white</title>
    <g id="icon_home_mine_white" stroke="none" stroke-width="1" fill="none" fill-rule="evenodd" opacity="0.400000006">
        <g id="icon/底部导航/投注默认" transform="translate(1.000000, 2.000000)" fill="#FFFFFF" fill-rule="nonzero">
            <path d="M8.98621901,13.35 C11.7339002,13.35 14.4788368,13.9077947 17.2171695,15.0207001 C17.5497378,15.1558615 17.7097676,15.5350314 17.5746062,15.8675997 C17.4394447,16.200168 17.0602748,16.3601979 16.7277065,16.2250364 C14.1418932,15.1741175 11.5626838,14.65 8.98621901,14.65 C6.40975421,14.65 3.83054482,15.1741175 1.24473148,16.2250364 C0.91216318,16.3601979 0.532993293,16.200168 0.397831831,15.8675997 C0.262670368,15.5350314 0.422700226,15.1558615 0.755268523,15.0207001 C3.49360118,13.9077947 6.2385378,13.35 8.98621901,13.35 Z M9,0 C12.3137085,0 15,2.6862915 15,6 C15,9.3137085 12.3137085,12 9,12 C5.6862915,12 3,9.3137085 3,6 C3,2.6862915 5.6862915,0 9,0 Z M9,1.3 C6.40426168,1.3 4.3,3.40426168 4.3,6 C4.3,8.59573832 6.40426168,10.7 9,10.7 C11.5957383,10.7 13.7,8.59573832 13.7,6 C13.7,3.40426168 11.5957383,1.3 9,1.3 Z" id="形状结合"></path>
        </g>
    </g>
</svg>