<?xml version="1.0" encoding="utf-8"?>
<svg xmlns:xlink="http://www.w3.org/1999/xlink" xmlns="http://www.w3.org/2000/svg" version="1.1" viewBox="0 0 20 20" height="128px" width="128px" style="height: 100%; width: 100%; background: rgb(255, 255, 255); shape-rendering: auto;"><g class="ldl-scale" style="transform-origin: 50% 50%; transform: rotate(0deg) scale(0.8, 0.8);"><g class="ldl-ani" style="transform-origin: 10px 10px;">
    
    <title>icon_home_betlist_selected</title>
    <desc>Created with Sketch.</desc>
    <g class="ldl-layer"><g class="ldl-ani"><g fill-rule="evenodd" fill="none" stroke-width="1" stroke="none" id="icon_home_betlist_selected">
        <g class="ldl-layer"><g class="ldl-ani"><g id="icon/底部导航/投注记录">
            <g class="ldl-layer"><g class="ldl-ani" style="transform-origin: 10px 10px; opacity: 1; animation: 1s linear 0s 1 reverse forwards running blink-72ac1c70-8c95-4d67-9012-3d78eff160b4;"><rect height="20" width="20" y="0" x="0" fill-rule="nonzero" fill="#FFFFFF" id="矩形" style="fill: rgb(255, 255, 255);"></rect></g></g>
            <g class="ldl-layer"><g class="ldl-ani"><g transform="translate(1.000000, 2.500000)" fill-rule="evenodd" stroke-width="1" id="编组">
                <g class="ldl-layer"><g class="ldl-ani" style="transform-origin: 10px 10px; opacity: 1; animation: 1s linear 0.1s 1 reverse forwards running blink-72ac1c70-8c95-4d67-9012-3d78eff160b4;"><path fill-rule="nonzero" fill="#FFCC00" id="路径" d="M4.67164662,0.713 L10.9498421,0.713 C10.9498421,0.713 11.3163835,6.12 16.713,6.526 L16.713,11.552 L15.9611203,13.487 L15.0259699,14.13 L4.67164662,14.308 L2.74307519,14.308 C1.62189562,14.308 0.713,13.3409351 0.713,12.148 L0.713,2.873 C0.713,1.68006494 1.62189562,0.713 2.74307519,0.713 L4.67164662,0.713 Z" style="fill: rgb(255, 204, 0);"></path></g></g>
                <g class="ldl-layer"><g class="ldl-ani" style="transform-origin: 10px 10px; opacity: 1; animation: 1s linear 0.2s 1 reverse forwards running blink-72ac1c70-8c95-4d67-9012-3d78eff160b4;"><path fill-rule="nonzero" fill="#333333" id="矩形" d="M3.77127575,0 L14.2287243,0 C16.3115423,0 18,1.65030894 18,3.68606819 L18,11.3139318 C18,13.3496911 16.3115423,15 14.2287243,15 L3.77127575,15 C1.68845767,15 0,13.3496911 0,11.3139318 L0,3.68606819 C0,1.65030894 1.68845767,0 3.77127575,0 Z M3.77127575,1.42448055 C2.49336243,1.42448055 1.457409,2.43702783 1.457409,3.68606819 L1.457409,11.3139318 C1.457409,12.5629722 2.49336243,13.5755194 3.77127575,13.5755194 L14.2287243,13.5755194 C15.5066376,13.5755194 16.542591,12.5629722 16.542591,11.3139318 L16.542591,3.68606819 C16.542591,2.43702783 15.5066376,1.42448055 14.2287243,1.42448055 L3.77127575,1.42448055 Z" style="fill: rgb(51, 51, 51);"></path></g></g>
                <g class="ldl-layer"><g class="ldl-ani" style="transform-origin: 10px 10px; opacity: 1; animation: 1s linear 0.3s 1 reverse forwards running blink-72ac1c70-8c95-4d67-9012-3d78eff160b4;"><rect rx="0.713" height="1.426" width="7.75" y="4.008" x="3.225" fill-rule="nonzero" fill="#333333" id="矩形" style="fill: rgb(51, 51, 51);"></rect></g></g>
                <g class="ldl-layer"><g class="ldl-ani" style="transform-origin: 10px 10px; opacity: 1; animation: 1s linear 0.4s 1 reverse forwards running blink-72ac1c70-8c95-4d67-9012-3d78eff160b4;"><rect rx="0.713" height="1.426" width="7.75" y="7.508" x="3.225" fill-rule="nonzero" fill="#333333" id="矩形" style="fill: rgb(51, 51, 51);"></rect></g></g>
            </g></g></g>
        </g></g></g>
    </g></g></g>
</g></g><style id="blink-72ac1c70-8c95-4d67-9012-3d78eff160b4" data-anikit="">@keyframes blink-72ac1c70-8c95-4d67-9012-3d78eff160b4 {
  0% { opacity: 1; }
  49.75% { opacity: 1; }
  50.25% { opacity: 0; }
  99.5% { opacity: 0; }
  100% { opacity: 1; }
}</style><!-- [ldio] generated by https://loading.io/ --></svg>