<?xml version="1.0" encoding="UTF-8"?>
<svg width="22px" height="22px" viewBox="0 0 22 22" version="1.1" xmlns="http://www.w3.org/2000/svg" xmlns:xlink="http://www.w3.org/1999/xlink">
    <title>icon/底部导航/体育</title>
    <g id="icon/底部导航/体育" stroke="none" stroke-width="1" fill="none" fill-rule="evenodd" opacity="0.699999988">
        <g id="编组" transform="translate(1.222222, 1.222222)" fill="#222222" fill-rule="nonzero">
            <path d="M9.77777778,0 C14.9560463,0 19.2111252,4.03146924 19.5359239,9.16051009 L19.5515033,9.49653871 L19.5555556,9.77925607 C19.5460343,14.950872 15.523045,19.1987524 10.4010181,19.5345168 L10.0654446,19.5508373 L9.77777778,19.5555556 C4.59951055,19.5555556 0.344431763,15.5240876 0.0196329807,10.3950468 L0.00405357593,10.0590182 L0,9.77777778 C0,7.18455038 1.03015584,4.69753417 2.86384501,2.86384501 C4.50532798,1.22236203 6.67291083,0.2225287 8.98764101,0.0326273628 L9.42328479,0.00655333713 L9.77777778,0 Z M9.80359579,1.39658677 L9.45511111,1.4024127 L9.07912545,1.42667277 C7.23465721,1.5830032 5.50082457,2.33842655 4.1378455,3.57845389 L3.85154972,3.85154972 C2.3722711,5.33082833 1.50308986,7.30615758 1.40583091,9.36978233 L1.39668033,9.75764714 L1.40027299,10.0178777 C1.53078155,14.4470502 5.0735693,17.9904967 9.44150656,18.1530878 L9.75487047,18.158918 L10.0210739,18.1547168 C14.4455841,18.0140997 17.9824742,14.476099 18.1524891,10.1123415 L18.1588736,9.79927485 L18.1552839,9.53767926 C18.0247753,5.10850624 14.4819871,1.56505887 10.1167614,1.40242045 L9.80359579,1.39658677 Z M16.6834418,10.162595 C16.7988289,10.5905707 16.5454257,11.0310532 16.11745,11.1464403 C13.5435642,11.840389 11.4627378,13.7337535 10.52959,16.2308895 C10.3744298,16.6461036 9.91205013,16.8569189 9.49683609,16.7017587 C9.08162205,16.5465985 8.87080675,16.0842188 9.02596693,15.6690048 C10.1404334,12.6866537 12.6255824,10.4253921 15.6995964,9.59660319 C16.1275721,9.48121611 16.5680547,9.73461926 16.6834418,10.162595 Z M10.5364771,3.14376587 C10.9516911,3.29892606 11.1625064,3.76130572 11.0073462,4.17651977 C9.89287972,7.15887085 7.4077308,9.42013248 4.33371673,10.2489214 C3.90574102,10.3643085 3.46525845,10.1109053 3.34987137,9.68292961 C3.23448428,9.25495391 3.48788743,8.81447133 3.91586314,8.69908425 C6.48974896,8.00513557 8.57057534,6.11177102 9.50372317,3.61463504 C9.65888335,3.19942099 10.121263,2.98860569 10.5364771,3.14376587 Z" id="形状结合"></path>
        </g>
    </g>
</svg>