<?xml version="1.0" encoding="UTF-8"?>
<svg width="22px" height="22px" viewBox="0 0 22 22" version="1.1" xmlns="http://www.w3.org/2000/svg" xmlns:xlink="http://www.w3.org/1999/xlink">
    <title>icon/底部导航/投注单</title>
    <g id="icon/底部导航/投注单" stroke="none" stroke-width="1" fill="none" fill-rule="evenodd" opacity="0.699999988">
        <g id="编组-2" transform="translate(2.444444, 2.444444)" fill="#222222" fill-rule="nonzero">
            <g id="编组">
                <path d="M14.2592593,0 C15.8342935,0 17.1111111,1.27681757 17.1111111,2.85185185 L17.1111111,14.2592593 C17.1111111,15.8342935 15.8342935,17.1111111 14.2592593,17.1111111 L2.85185185,17.1111111 C1.27681757,17.1111111 0,15.8342935 0,14.2592593 L0,2.85185185 C0,1.27681757 1.27681757,0 2.85185185,0 L14.2592593,0 Z M14.2592593,1.42592593 L2.85185185,1.42592593 C2.12058593,1.42592593 1.51788794,1.97639064 1.43551917,2.68555877 L1.42592593,2.85185185 L1.42592593,14.2592593 C1.42592593,14.9905252 1.97639064,15.5932232 2.68555877,15.6755919 L2.85185185,15.6851852 L14.2592593,15.6851852 C14.9905252,15.6851852 15.5932232,15.1347205 15.6755919,14.4255523 L15.6851852,14.2592593 L15.6851852,2.85185185 C15.6851852,2.12058593 15.1347205,1.51788794 14.4255523,1.43551917 L14.2592593,1.42592593 Z M8.05555556,11 C8.33169793,11 8.55555556,11.2238576 8.55555556,11.5 L8.55555556,11.7222222 C8.55555556,11.9983646 8.33169793,12.2222222 8.05555556,12.2222222 L4.16666667,12.2222222 C3.89052429,12.2222222 3.66666667,11.9983646 3.66666667,11.7222222 L3.66666667,11.5 C3.66666667,11.2238576 3.89052429,11 4.16666667,11 L8.05555556,11 Z M12.9444444,7.33333333 C13.2205868,7.33333333 13.4444444,7.55719096 13.4444444,7.83333333 L13.4444444,8.05555556 C13.4444444,8.33169793 13.2205868,8.55555556 12.9444444,8.55555556 L4.16666667,8.55555556 C3.89052429,8.55555556 3.66666667,8.33169793 3.66666667,8.05555556 L3.66666667,7.83333333 C3.66666667,7.55719096 3.89052429,7.33333333 4.16666667,7.33333333 L12.9444444,7.33333333 Z M12.9444444,3.66666667 C13.2205868,3.66666667 13.4444444,3.89052429 13.4444444,4.16666667 L13.4444444,4.38888889 C13.4444444,4.66503126 13.2205868,4.88888889 12.9444444,4.88888889 L4.16666667,4.88888889 C3.89052429,4.88888889 3.66666667,4.66503126 3.66666667,4.38888889 L3.66666667,4.16666667 C3.66666667,3.89052429 3.89052429,3.66666667 4.16666667,3.66666667 L12.9444444,3.66666667 Z" id="形状结合"></path>
            </g>
        </g>
    </g>
</svg>