<?xml version="1.0" encoding="UTF-8"?>
<svg width="22px" height="22px" viewBox="0 0 22 22" version="1.1" xmlns="http://www.w3.org/2000/svg" xmlns:xlink="http://www.w3.org/1999/xlink">
    <title>icon/底部导航/主播</title>
    <g id="icon/底部导航/主播" stroke="none" stroke-width="1" fill="none" fill-rule="evenodd" opacity="0.699999988">
        <g id="编组" transform="translate(0.000000, 3.666667)" fill="#222222" fill-rule="nonzero">
            <path d="M14.3030464,0 L3.44521192,0 C1.54247392,0 0,1.54247392 0,3.44521192 L0,12.0661827 C0,13.9689207 1.54247392,15.5113946 3.44521192,15.5113946 L14.3030464,15.5113946 C16.2057844,15.5113946 17.7482583,13.9689207 17.7482583,12.0661827 L17.7482583,3.44521192 C17.7482583,1.54247392 16.2057844,0 14.3030464,0 Z M3.44521192,1.37808477 L14.3030464,1.37808477 C15.4446892,1.37808477 16.3701735,2.30356912 16.3701735,3.44521192 L16.3701735,12.0661827 C16.3701735,13.2078255 15.4446892,14.1333098 14.3030464,14.1333098 L3.44521192,14.1333098 C2.30356912,14.1333098 1.37808477,13.2078255 1.37808477,12.0661827 L1.37808477,3.44521192 C1.37808477,2.30356912 2.30356912,1.37808477 3.44521192,1.37808477 Z" id="矩形"></path>
            <path d="M18.9568086,3.94051 L16.3668662,5.32783743 L16.3799925,10.1037307 L18.9564206,11.4845251 C19.2567263,11.6454691 19.5921582,11.7296875 19.9328728,11.7296875 C21.0745156,11.7296875 22,10.8042031 22,9.66256034 L22,5.76268269 C22,5.42211704 21.9158552,5.08682709 21.7550455,4.78661845 C21.2159801,3.78026027 19.9631668,3.40144461 18.9568086,3.94051 Z M20.5402637,5.43732794 C20.5938669,5.53739749 20.6219152,5.6491608 20.6219152,5.76268269 L20.6219152,9.66256034 C20.6219152,10.0431079 20.3134204,10.3516027 19.9328728,10.3516027 L19.8202567,10.3423376 C19.7460619,10.3300458 19.6741234,10.3056473 19.6073888,10.2698819 L17.7555582,9.27718952 L17.7472897,6.15031518 L19.6075181,5.15529179 C19.9056983,4.99556871 20.2687885,5.07759208 20.4719949,5.33339056 L20.5402637,5.43732794 Z" id="矩形备份"></path>
            <path d="M4.50814735,5.89616288 C5.33657447,5.89616288 6.00814735,5.22459001 6.00814735,4.39616288 C6.00814735,3.56773576 5.33657447,2.89616288 4.50814735,2.89616288 C3.67972022,2.89616288 3.00814735,3.56773576 3.00814735,4.39616288 C3.00814735,5.22459001 3.67972022,5.89616288 4.50814735,5.89616288 Z" id="椭圆形"></path>
        </g>
    </g>
</svg>