<?xml version="1.0" encoding="UTF-8"?>
<svg width="20px" height="20px" viewBox="0 0 20 20" version="1.1" xmlns="http://www.w3.org/2000/svg" xmlns:xlink="http://www.w3.org/1999/xlink">
    <title>icon_home_find_pure</title>
    <g id="icon_home_find_pure" stroke="none" stroke-width="1" fill="none" fill-rule="evenodd" opacity="0.400000006">
        <path d="M10,1 C14.9705627,1 19,5.02943725 19,10 C19,14.9705627 14.9705627,19 10,19 C5.02943725,19 1,14.9705627 1,10 C1,5.02943725 5.02943725,1 10,1 Z M10,2.3 C5.74740743,2.3 2.3,5.74740743 2.3,10 C2.3,14.2525926 5.74740743,17.7 10,17.7 C14.2525926,17.7 17.7,14.2525926 17.7,10 C17.7,5.74740743 14.2525926,2.3 10,2.3 Z M10.5828784,5.71233229 L11.5257784,7.62285624 C11.5767601,7.72615646 11.6753081,7.79775574 11.7893066,7.8143207 L13.897695,8.12068746 C14.4308382,8.19815771 14.6437197,8.85333969 14.2579337,9.22938816 L12.7322895,10.7165237 C12.6497994,10.7969317 12.6121574,10.9127817 12.6316307,11.0263197 L12.9917864,13.1261887 C13.0828582,13.6571777 12.5255271,14.0621024 12.0486693,13.8114034 L10.1628694,12.8199797 C10.060906,12.7663744 9.93909401,12.7663744 9.83713061,12.8199797 L7.95133072,13.8114034 C7.47447293,14.0621024 6.91714184,13.6571777 7.00821358,13.1261887 L7.36836931,11.0263197 C7.38784259,10.9127817 7.35020062,10.7969317 7.26771049,10.7165237 L5.74206634,9.22938816 C5.35628027,8.85333969 5.5691618,8.19815771 6.10230503,8.12068746 L8.21069339,7.8143207 C8.32469195,7.79775574 8.4232399,7.72615646 8.47422161,7.62285624 L9.41712155,5.71233229 C9.65555045,5.22922257 10.3444496,5.22922257 10.5828784,5.71233229 Z M10,7.46870845 L9.63997851,8.19819167 C9.39963619,8.6851784 8.93505297,9.02271787 8.3976312,9.10080982 L7.59259868,9.21778789 L8.17512569,9.78561139 C8.56400773,10.1646777 8.74146273,10.710828 8.64966013,11.2460782 L8.51214416,12.0478579 L9.23218714,11.6693089 C9.71287178,11.416598 10.2871282,11.416598 10.7678129,11.6693089 L11.4878558,12.0478579 L11.3503399,11.2460782 C11.2585373,10.710828 11.4359923,10.1646777 11.8248743,9.78561139 L12.4074013,9.21778789 L11.6023688,9.10080982 C11.064947,9.02271787 10.6003638,8.6851784 10.3600215,8.19819167 L10,7.46870845 Z" id="形状结合" fill="#FFFFFF" fill-rule="nonzero"></path>
    </g>
</svg>