<?xml version="1.0" encoding="UTF-8"?>
<svg width="22px" height="22px" viewBox="0 0 22 22" version="1.1" xmlns="http://www.w3.org/2000/svg" xmlns:xlink="http://www.w3.org/1999/xlink">
    <title>icon/底部导航/比赛</title>
    <g id="icon/底部导航/比赛" stroke="none" stroke-width="1" fill="none" fill-rule="evenodd" opacity="0.699999988">
        <g id="编组" transform="translate(1.222222, 3.666667)" fill="#222222" fill-rule="nonzero">
            <path d="M17.1111111,0 C18.4611405,0 19.5555556,1.09441506 19.5555556,2.44444444 L19.5555556,12.2222222 C19.5555556,13.5722516 18.4611405,14.6666667 17.1111111,14.6666667 L2.44444444,14.6666667 C1.09441506,14.6666667 0,13.5722516 0,12.2222222 L0,2.44444444 C0,1.09441506 1.09441506,0 2.44444444,0 L17.1111111,0 Z M9.166,1.222 L2.44444444,1.22222222 C1.81764509,1.22222222 1.3010468,1.69404912 1.230445,2.30190751 L1.22222222,2.44444444 L1.222,3.666 L2.44444444,3.66666667 C3.79447383,3.66666667 4.88888889,4.76108172 4.88888889,6.11111111 L4.88888889,8.55555556 C4.88888889,9.90558494 3.79447383,11 2.44444444,11 L1.222,11 L1.22222222,12.2222222 C1.22222222,12.8490216 1.69404912,13.3656199 2.30190751,13.4362217 L2.44444444,13.4444444 L9.166,13.444 L9.16662639,9.70075672 C8.11234131,9.42938323 7.33333333,8.47233181 7.33333333,7.33333333 C7.33333333,6.19433485 8.11234131,5.23728344 9.16662639,4.96590994 L9.166,1.222 Z M17.1111111,1.22222222 L10.563,1.222 L10.5635489,5.01792349 C11.5281056,5.34515615 12.2222222,6.25818493 12.2222222,7.33333333 C12.2222222,8.40848174 11.5281056,9.32151052 10.5635489,9.64874318 L10.563,13.444 L17.1111111,13.4444444 C17.7379105,13.4444444 18.2545088,12.9726175 18.3251106,12.3647592 L18.3333333,12.2222222 L18.333,11 L17.1111111,11 C15.7610817,11 14.6666667,9.90558494 14.6666667,8.55555556 L14.6666667,6.11111111 C14.6666667,4.76108172 15.7610817,3.66666667 17.1111111,3.66666667 L18.333,3.666 L18.3333333,2.44444444 C18.3333333,1.81764509 17.8615064,1.3010468 17.253648,1.230445 L17.1111111,1.22222222 Z M2.44444444,4.88888889 L1.22222222,4.88888889 L1.22222222,9.77777778 L2.44444444,9.77777778 C3.0712438,9.77777778 3.58784209,9.30595088 3.65844388,8.69809249 L3.66666667,8.55555556 L3.66666667,6.11111111 C3.66666667,5.48431175 3.19483977,4.96771347 2.58698138,4.89711167 L2.44444444,4.88888889 Z M18.3333333,4.88888889 L17.1111111,4.88888889 C16.4843118,4.88888889 15.9677135,5.36071579 15.8971117,5.96857418 L15.8888889,6.11111111 L15.8888889,8.55555556 C15.8888889,9.18235491 16.3607158,9.6989532 16.9685742,9.769555 L17.1111111,9.77777778 L18.3333333,9.77777778 L18.3333333,4.88888889 Z M9.77777778,6.11111111 C9.10276308,6.11111111 8.55555556,6.65831864 8.55555556,7.33333333 C8.55555556,8.00834803 9.10276308,8.55555556 9.77777778,8.55555556 C10.4527925,8.55555556 11,8.00834803 11,7.33333333 C11,6.65831864 10.4527925,6.11111111 9.77777778,6.11111111 Z" id="形状结合"></path>
        </g>
    </g>
</svg>