<?xml version="1.0" encoding="UTF-8"?>
<svg width="20px" height="20px" viewBox="0 0 20 20" version="1.1" xmlns="http://www.w3.org/2000/svg" xmlns:xlink="http://www.w3.org/1999/xlink">
    <title>icon_home_match_white</title>
    <g id="icon_home_match_white" stroke="none" stroke-width="1" fill="none" fill-rule="evenodd" opacity="0.400000006">
        <g id="icon/底部导航/投注默认" transform="translate(0.000000, 2.000000)" fill="#FFFFFF" fill-rule="nonzero">
            <path d="M16,0 L15.999604,2.608 L17.8050234,2.60866919 C19.0682207,2.60866919 20.10221,3.59002526 20.1861827,4.83192883 L20.1916888,4.99533459 C20.1916888,6.30385628 19.4759117,7.50755169 18.326226,8.13241314 L18.326226,8.13241314 L15.3703277,9.73896259 L15.3541534,9.71081312 C14.4571191,11.4790485 12.7098969,12.7431455 10.6504385,12.9651525 L10.649604,14.85 L15.5,14.85 C15.8263501,14.85 16.0965265,15.0905082 16.1429523,15.4039478 L16.15,15.5 C16.15,15.8589851 15.8589851,16.15 15.5,16.15 L15.5,16.15 L4,16.15 C3.64101491,16.15 3.35,15.8589851 3.35,15.5 C3.35,15.1410149 3.64101491,14.85 4,14.85 L4,14.85 L9.34960397,14.85 L9.35047411,12.9652508 C7.20237682,12.7340201 5.39385446,11.3690811 4.53526947,9.48079629 L2.05506675,8.13241314 C0.905381066,7.50755169 0.189603965,6.30385628 0.189603965,4.99533459 C0.189603965,3.67721569 1.25815046,2.60866919 2.57626937,2.60866919 L3.99960397,2.608 L4,0 L16,0 Z M14.7,1.3 L5.3,1.3 L5.3,7 C5.3,7.54769033 5.39368026,8.07350046 5.56589124,8.56228087 L5.63175714,8.59676418 L5.6000766,8.65609222 C6.26985601,10.4346969 7.98716432,11.7 10,11.7 C12.5957383,11.7 14.7,9.59573832 14.7,7 L14.7,1.3 Z M17.8050234,3.90866919 L15.999604,3.908 L16,7 C16,7.32635008 15.9739449,7.64661467 15.9238015,7.95882709 L17.705434,6.99021473 C18.4365234,6.59286296 18.8916888,5.82742849 18.8916888,4.99533459 C18.8916888,4.39518586 18.4051721,3.90866919 17.8050234,3.90866919 L17.8050234,3.90866919 Z M3.99960397,3.908 L2.57626937,3.90866919 C1.97612064,3.90866919 1.48960397,4.39518586 1.48960397,4.99533459 C1.48960397,5.82742849 1.94476934,6.59286296 2.67585882,6.99021473 L4.04453605,7.73473016 C4.01513561,7.49393572 4,7.24873542 4,7 L3.99960397,3.908 Z" id="形状结合"></path>
        </g>
    </g>
</svg>