<?xml version="1.0" encoding="UTF-8"?>
<svg width="20px" height="20px" viewBox="0 0 20 20" version="1.1" xmlns="http://www.w3.org/2000/svg" xmlns:xlink="http://www.w3.org/1999/xlink">
    <title>icon_home_find_white</title>
    <g id="icon_home_find_white" stroke="none" stroke-width="1" fill="none" fill-rule="evenodd">
        <g id="icon/底部导航/投注默认" transform="translate(1.000000, 1.000000)" fill-rule="nonzero">
            <path d="M16.5088921,8.8414926 C14.5926891,8.84190804 12.8229722,7.81621203 11.8707864,6.15333015 C10.9186006,4.49044827 10.9297486,2.44500799 11.9000032,0.792603707 C8.32887518,-0.476336855 4.34717872,0.713129729 2.05725201,3.73296437 C-0.23267469,6.75279901 -0.303633192,10.9077602 1.88184264,14.0040258 C4.06731847,17.1002915 8.0060774,18.4250237 11.6184523,17.2787632 C15.2308272,16.1325026 17.6851589,12.7791471 17.6855588,8.98927037 C17.6855588,8.89593704 17.6855588,8.80371482 17.6855588,8.7114926 C17.2993277,8.79806764 16.9047072,8.84166594 16.5088921,8.8414926 L16.5088921,8.8414926 Z" id="路径" fill="#FFCC00" opacity="0.200000003"></path>
            <path d="M9,18 C13.9705627,18 18,13.9705627 18,9 C18,4.02943725 13.9705627,0 9,0 C4.02943725,0 0,4.02943725 0,9 C0,13.9705627 4.02943725,18 9,18 Z M9,16.7 C4.74740743,16.7 1.3,13.2525926 1.3,9 C1.3,4.74740743 4.74740743,1.3 9,1.3 C13.2525926,1.3 16.7,4.74740743 16.7,9 C16.7,13.2525926 13.2525926,16.7 9,16.7 Z" id="椭圆形" fill="#F7B500"></path>
            <path d="M6.95133072,12.8114034 C6.47447293,13.0621024 5.91714184,12.6571777 6.00821358,12.1261887 L6.36836931,10.0263197 C6.38784259,9.91278174 6.35020062,9.79693167 6.26771049,9.71652366 L4.74206634,8.22938816 C4.35628027,7.85333969 4.5691618,7.19815771 5.10230503,7.12068746 L7.21069339,6.8143207 C7.32469195,6.79775574 7.4232399,6.72615646 7.47422161,6.62285624 L8.41712155,4.71233229 C8.65555045,4.22922257 9.34444955,4.22922257 9.58287845,4.71233229 L10.5257784,6.62285624 C10.5767601,6.72615646 10.6753081,6.79775574 10.7893066,6.8143207 L12.897695,7.12068746 C13.4308382,7.19815771 13.6437197,7.85333969 13.2579337,8.22938816 L11.7322895,9.71652366 C11.6497994,9.79693167 11.6121574,9.91278174 11.6316307,10.0263197 L11.9917864,12.1261887 C12.0828582,12.6571777 11.5255271,13.0621024 11.0486693,12.8114034 L9.16286939,11.8199797 C9.06090599,11.7663744 8.93909401,11.7663744 8.83713061,11.8199797 L6.95133072,12.8114034 Z M8.23218714,10.6693089 C8.71287178,10.416598 9.28712822,10.416598 9.76781286,10.6693089 L10.4878558,11.0478579 L10.3503399,10.2460782 C10.2585373,9.71082803 10.4359923,9.1646777 10.8248743,8.78561139 L11.4074013,8.21778789 L10.6023688,8.10080982 C10.064947,8.02271787 9.60036381,7.6851784 9.36002149,7.19819167 L9,6.46870845 L8.63997851,7.19819167 C8.39963619,7.6851784 7.93505297,8.02271787 7.3976312,8.10080982 L6.59259868,8.21778789 L7.17512569,8.78561139 C7.56400773,9.1646777 7.74146273,9.71082803 7.64966013,10.2460782 L7.51214416,11.0478579 L8.23218714,10.6693089 Z" id="星形" fill="#F7B500"></path>
        </g>
    </g>
</svg>