<?xml version="1.0" encoding="UTF-8"?>
<svg width="185px" height="189px" viewBox="0 0 185 189" version="1.1" xmlns="http://www.w3.org/2000/svg" xmlns:xlink="http://www.w3.org/1999/xlink">
    <!-- Generator: Sketch 55.2 (78181) - https://sketchapp.com -->
    <title>bg_follow_rank_yellow</title>
    <desc>Created with Sketch.</desc>
    <g id="bg_follow_rank_yellow" stroke="none" stroke-width="1" fill="none" fill-rule="evenodd">
        <path d="M143.34555,166.503603 L140.47709,164.818884 C126.747835,173.987316 110.248139,179.332533 92.5,179.332533 C74.6383497,179.332533 58.041162,173.918725 44.2598306,164.642503 L41.3479114,166.290694 C55.8468249,176.405798 73.4806393,182.338027 92.5,182.338027 C111.385526,182.338027 128.904936,176.488992 143.345546,166.503606 Z M144.290012,167.058314 C129.616854,177.315393 111.761116,183.332533 92.5,183.332533 C73.0984042,183.332533 55.1227616,177.227301 40.3894435,166.833211 L38.1881974,168.07915 C25.8906916,159.126552 15.8788671,147.212629 9.19563405,133.382495 L10.6262702,131.443426 C5.09735863,119.740014 2.00394177,106.660517 2.00000376,92.85892 L2.96651592e-13,92.111837 C0.492351082,41.3391878 41.7168485,0.332532564 92.4987533,0.332532564 C143.383685,0.332532564 184.67239,41.5057462 185,92.4209819 L182.99939,93.1682912 C182.950654,106.586837 179.98159,119.317107 174.694645,130.756656 L176.128312,132.699846 C169.384518,146.952153 159.119599,159.205841 146.459549,168.332533 L144.290016,167.058311 Z M174.019723,129.841874 C179.0569,118.764291 181.902504,106.479264 182.002752,93.5405761 L178.980884,94.6693671 C178.741609,106.155313 176.263504,117.090887 171.965309,127.057345 L174.019721,129.841878 Z M2.99537255,93.2307308 C3.05339964,106.553004 6.0219802,119.188073 11.2980591,130.532882 L13.3423582,127.762069 C8.8152358,117.517664 6.21847069,106.229271 6.0131807,94.3580052 L2.99537255,93.2307308 Z M175.222947,75.4544512 C169.752996,49.4728554 152.402503,27.8805123 129.133438,16.6519997 C118.050988,11.3129704 105.624896,8.32103831 92.5,8.32103831 C78.7572341,8.32103831 65.780614,11.6012986 54.3103931,17.4215658 C32.3225875,28.5961025 15.8653229,49.119225 10.1468222,73.7716969 C8.73471711,79.8974767 7.98850575,86.2778611 7.98850575,92.8325326 C7.98850575,139.506942 45.8255905,177.344027 92.5,177.344027 C139.174409,177.344027 177.011494,139.506942 177.011494,92.8325326 C177.011494,86.8758061 176.395218,81.0630186 175.222947,75.4544512 Z" id="形状结合" fill="#F6DFAB" fill-rule="nonzero"></path>
        <path d="M92.5,166.332533 C133.092929,166.332533 166,133.425462 166,92.8325326 C166,52.2396035 133.092929,19.3325326 92.5,19.3325326 C51.9070709,19.3325326 19,52.2396035 19,92.8325326 C19,133.425462 51.9070709,166.332533 92.5,166.332533 Z M92.5,165.332533 C52.4593556,165.332533 20,132.873177 20,92.8325326 C20,52.7918882 52.4593556,20.3325326 92.5,20.3325326 C132.540644,20.3325326 165,52.7918882 165,92.8325326 C165,132.873177 132.540644,165.332533 92.5,165.332533 Z" id="椭圆形" fill="#F6DFAB" fill-rule="nonzero"></path>
        <path d="M95.322,11.632 C95.976,11.632 96.492,11.842 96.87,12.268 C97.23,12.67 97.41,13.204 97.41,13.864 C97.41,14.524 97.23,15.052 96.87,15.454 C96.492,15.874 95.976,16.084 95.322,16.084 C94.662,16.084 94.146,15.868 93.774,15.448 C93.414,15.04 93.24,14.512 93.24,13.864 C93.24,13.21 93.414,12.682 93.774,12.274 C94.146,11.842 94.662,11.632 95.322,11.632 Z M95.322,12.25 C94.878,12.25 94.536,12.4 94.29,12.7 C94.056,12.988 93.942,13.372 93.942,13.864 C93.942,14.35 94.056,14.734 94.29,15.022 C94.53,15.316 94.878,15.466 95.322,15.466 C95.766,15.466 96.108,15.322 96.348,15.04 C96.582,14.758 96.702,14.368 96.702,13.864 C96.702,13.36 96.582,12.964 96.348,12.676 C96.108,12.388 95.766,12.25 95.322,12.25 Z M94.53,13.528 L96.12,13.528 L96.12,14.14 L94.53,14.14 L94.53,13.528 Z M119.336877,16.4746182 L121.568892,17.1570138 L121.405749,17.6906318 L120.195067,17.3204892 L120.671856,18.0183835 C120.918217,18.3823147 121.077086,18.6630294 121.144954,18.872003 C121.243886,19.1845865 121.237454,19.5339725 121.121675,19.9126692 C120.993616,20.3315307 120.760376,20.6429452 120.425938,20.8544047 C120.054039,21.0857822 119.631962,21.1324165 119.16146,20.9885696 C118.690958,20.8447227 118.371101,20.5775306 118.192643,20.1967147 C118.022153,19.8308829 118.008191,19.4250688 118.141513,18.9889939 C118.278343,18.5414432 118.535813,18.2123401 118.910416,18.0131602 C119.240067,17.8378819 119.548338,17.7940985 119.846705,17.8853185 L119.869656,17.8923354 L119.198293,16.9279067 L119.336877,16.4746182 Z M119.949585,18.4312523 C119.708596,18.3575746 119.488951,18.3782604 119.28714,18.5047853 C119.070346,18.6392773 118.911076,18.8729204 118.80933,19.2057144 C118.721619,19.4926059 118.718549,19.7489076 118.800122,19.9746196 C118.889661,20.2153158 119.060663,20.3742569 119.324604,20.4549515 C119.588544,20.5356461 119.826682,20.4955175 120.035509,20.3460413 C120.229352,20.2045323 120.368375,19.9960699 120.456087,19.7091785 C120.554324,19.3878601 120.556918,19.1125907 120.462116,18.889108 C120.369068,18.6598875 120.196311,18.5066842 119.949585,18.4312523 Z M138.206688,26.2851302 L140.176482,27.6137725 L139.901359,28.021659 C139.346079,27.9221361 138.796691,27.9640956 138.263143,28.1542479 C137.686328,28.3441662 137.251913,28.6663206 136.949949,29.1140009 C136.782191,29.3627122 136.714503,29.5703616 136.751858,29.7403044 C136.779499,29.860271 136.890083,30.0289458 137.08361,30.2463289 C137.358226,30.5473569 137.526648,30.7912302 137.578926,30.9712385 C137.647629,31.1912746 137.598102,31.4256483 137.426989,31.6793338 C137.333044,31.8186121 137.199189,31.9526821 137.022068,32.0865182 L136.455006,31.7040302 C136.608641,31.6050138 136.73405,31.4941958 136.821284,31.3648659 C136.895098,31.255433 136.902393,31.1373196 136.841434,31.0238293 C136.787186,30.9003906 136.651614,30.736573 136.446403,30.5257832 C136.198159,30.2714934 136.05299,30.0360665 136.010894,29.8195025 C135.952608,29.5196447 136.066,29.1691278 136.334413,28.7711897 C136.622956,28.3434063 137.005776,28.0226369 137.496176,27.8106176 C137.91323,27.6214992 138.4064,27.5126706 138.97904,27.4791575 L137.894659,26.7477332 L138.206688,26.2851302 Z M154.3554,41.0045564 L154.785855,41.5361243 L153.275084,42.7595231 C152.930031,43.0389414 152.892551,43.3549528 153.175745,43.7046685 C153.281471,43.835229 153.422497,43.9140417 153.598825,43.9411065 C153.792031,43.9699452 153.988556,43.9266107 154.195952,43.8204287 L155.669421,42.6272372 L156.099876,43.158805 L153.68917,45.1109569 L153.258714,44.5793891 L153.571127,44.3264023 C153.349944,44.3202191 153.173617,44.2931542 153.042144,44.2452078 C152.886241,44.1861617 152.755427,44.0913584 152.645925,43.956135 C152.517544,43.7975972 152.454671,43.6246146 152.445092,43.4316373 L151.451899,44.2359088 L151.021444,43.7043409 L154.3554,41.0045564 Z M165.45692,60.6193739 L166.809999,63.968362 L166.287067,64.1796401 L166.071294,63.6455822 L164.424615,64.3108835 C164.268848,64.3738174 164.216869,64.4854155 164.28205,64.6467454 C164.313517,64.7246289 164.380722,64.8269004 164.483666,64.95356 L164.007823,65.2493524 C163.855655,65.0649262 163.741361,64.8781403 163.660446,64.6778686 C163.47614,64.2216942 163.634326,63.8924631 164.123879,63.6946709 L165.815063,63.0113884 L165.376773,61.9265833 L163.02358,62.8773349 L162.76735,62.2431411 L165.120542,61.2923896 L164.933988,60.830652 L165.45692,60.6193739 Z M172.766045,88.8122083 L172.605252,89.4526594 C172.088977,89.1966817 171.568368,89.0976791 171.048354,89.1431744 C170.76145,89.1682752 170.536932,89.2180326 170.381824,89.3038778 C170.197876,89.4042921 170.107768,89.5446796 170.124502,89.735949 C170.138098,89.8913554 170.214306,90.0051465 170.347148,90.0778452 C170.472966,90.1391125 170.655419,90.1592875 170.882551,90.139416 L171.904647,90.0499942 L171.964262,90.7313914 L170.942166,90.8208132 C170.709056,90.8412076 170.532879,90.8927587 170.420134,90.9809205 C170.306865,91.0631053 170.251575,91.1884009 170.265694,91.3497844 C170.281905,91.5350767 170.395545,91.6636616 170.594135,91.7306081 C170.761271,91.7822377 170.991541,91.7982292 171.278445,91.7731284 C171.798459,91.7276331 172.293445,91.5337544 172.757949,91.1979926 L173.027512,91.8007924 C172.507943,92.1955781 171.943845,92.4256178 171.334174,92.4789571 C170.891864,92.5176543 170.524344,92.4474185 170.22616,92.2747499 C169.92043,92.0846727 169.746423,91.8168191 169.715047,91.458189 C169.674781,90.9979471 169.84095,90.6943091 170.207053,90.5418209 C169.820032,90.4552224 169.603662,90.1850522 169.563396,89.7248103 C169.531497,89.360203 169.655826,89.0602256 169.92495,88.831901 C170.18212,88.6046223 170.53836,88.4770886 170.980671,88.4383914 C171.590342,88.3850521 172.185292,88.5076654 172.766045,88.8122083 Z M168.889604,119.477499 C168.687507,120.09949 168.328332,120.525342 167.806374,120.7532 C167.312803,120.971355 166.749315,120.97753 166.121618,120.773579 C165.493921,120.569628 165.047386,120.235277 164.776307,119.768672 C164.493672,119.279385 164.453403,118.723746 164.6555,118.101755 C164.859451,117.474058 165.224332,117.050061 165.73873,116.826055 C166.238008,116.609753 166.793934,116.60743 167.410219,116.807673 C168.03221,117.009771 168.480599,117.338415 168.757384,117.806875 C169.053286,118.294163 169.093555,118.849802 168.889604,119.477499 Z M168.301851,119.286527 C168.439054,118.864257 168.40208,118.492644 168.192781,118.165979 C167.991187,117.854434 167.661209,117.627351 167.193289,117.475315 C166.731076,117.325133 166.330642,117.314891 165.984428,117.448441 C165.630653,117.585844 165.380457,117.870459 165.243253,118.292728 C165.10605,118.714997 165.137318,119.084757 165.331352,119.400153 C165.52724,119.709843 165.86107,119.944487 166.340402,120.100231 C166.819735,120.255976 167.233435,120.26422 167.579649,120.130669 C167.927718,119.991413 168.164647,119.708796 168.301851,119.286527 Z M167.331142,118.138366 L166.839805,119.650546 L166.257758,119.461428 L166.749096,117.949248 L167.331142,118.138366 Z M157.862995,140.820553 L156.524268,142.732454 L156.067181,142.412398 L156.793329,141.375351 L155.982256,141.613143 C155.560007,141.734986 155.243938,141.799334 155.02422,141.799303 C154.696364,141.7968 154.366066,141.682717 154.041681,141.455581 C153.682893,141.204354 153.458795,140.886297 153.361032,140.502883 C153.255902,140.077687 153.341979,139.661857 153.624179,139.258834 C153.906379,138.855811 154.259335,138.634176 154.676659,138.582131 C155.07727,138.533033 155.467536,138.645158 155.84107,138.906709 C156.224433,139.175143 156.457866,139.521711 156.531538,139.939529 C156.59637,140.307209 156.54275,140.613922 156.363794,140.869498 L156.350028,140.889157 L157.474717,140.548677 L157.862995,140.820553 Z M155.812788,140.798639 C155.95733,140.592213 156.00553,140.376926 155.947561,140.145894 C155.886645,139.89815 155.713654,139.674476 155.428589,139.474871 C155.182844,139.302798 154.940035,139.220677 154.700162,139.228508 C154.443577,139.239287 154.239573,139.352804 154.081266,139.57889 C153.922959,139.804976 153.887535,140.043859 153.965164,140.288656 C154.039846,140.516741 154.195145,140.713378 154.440891,140.885451 C154.716126,141.078172 154.977121,141.165703 155.218961,141.1446 C155.465716,141.126939 155.664806,141.009981 155.812788,140.798639 Z M142.701551,155.735195 L140.829238,157.198007 L140.526332,156.810306 C140.792575,156.312958 140.922439,155.777492 140.906469,155.211297 C140.904092,154.604026 140.731947,154.091321 140.399489,153.665796 C140.214791,153.429392 140.038221,153.30085 139.865053,153.283862 C139.742416,153.273078 139.547824,153.326127 139.281278,153.443006 C138.910122,153.611159 138.62614,153.695977 138.438787,153.690071 C138.20829,153.687416 138.000692,153.567887 137.812299,153.326756 C137.708868,153.19437 137.622724,153.025636 137.550171,152.815827 L138.089171,152.394714 C138.135865,152.571428 138.202506,152.724943 138.298549,152.847873 C138.379816,152.95189 138.489894,152.995328 138.616667,152.972423 C138.750828,152.958974 138.948522,152.88066 139.212409,152.75063 C139.530964,152.593117 139.799728,152.527803 140.018701,152.55469 C140.321894,152.591917 140.620216,152.808075 140.915733,153.186321 C141.233415,153.592934 141.420187,154.056141 141.470287,154.588056 C141.521273,155.043139 141.472377,155.545801 141.327294,156.10077 L142.358012,155.295485 L142.701551,155.735195 Z M123.712319,166.54498 L123.07375,166.790104 L122.377082,164.975223 C122.217967,164.560713 121.929004,164.427415 121.508893,164.58868 C121.352052,164.648886 121.233517,164.758656 121.153288,164.91799 C121.066157,165.092828 121.046641,165.293126 121.083537,165.523184 L121.763003,167.293252 L121.124434,167.538376 L120.012776,164.642409 L120.651345,164.397286 L120.795409,164.772585 C120.869639,164.564139 120.949868,164.404804 121.036095,164.294582 C121.140427,164.164557 121.271014,164.069441 121.433457,164.007085 C121.623908,163.933978 121.807853,163.927637 121.994345,163.978159 L121.536351,162.785044 L122.17492,162.53992 L123.712319,166.54498 Z M101.626961,171.04184 L98.0237592,171.293801 L97.9844165,170.731175 L98.5590134,170.690995 L98.4351259,168.919321 C98.4234068,168.751731 98.3333334,168.667809 98.1597572,168.679947 C98.0759618,168.685806 97.9579283,168.718119 97.8056566,168.776884 L97.6713849,168.232925 C97.893807,168.145196 98.1067696,168.094216 98.3222435,168.079149 C98.813045,168.044829 99.07728,168.297011 99.1141114,168.823725 L99.2413472,170.643282 L100.408497,170.561667 L100.231455,168.029849 L100.913789,167.982136 L101.090831,170.513953 L101.587618,170.479214 L101.626961,171.04184 Z M72.2463208,170.232223 L71.6869033,169.88139 C72.0898903,169.469485 72.3449246,169.004949 72.4623491,168.496328 C72.527135,168.215709 72.5491927,167.986804 72.5154801,167.81276 C72.4768236,167.606785 72.3711518,167.477706 72.1840727,167.434515 C72.032071,167.399423 71.9002998,167.436737 71.7901089,167.540612 C71.6929601,167.64134 71.6173916,167.808628 71.5661028,168.030784 L71.335303,169.030488 L70.6688339,168.876622 L70.8996337,167.876918 C70.9522722,167.648915 70.9576861,167.46543 70.9086793,167.33096 C70.8655188,167.197839 70.7634412,167.106536 70.6055932,167.070094 C70.4243604,167.028253 70.2669523,167.096596 70.1419146,167.264779 C70.0411641,167.40778 69.954798,167.621838 69.8900121,167.902457 C69.7725876,168.411078 69.8040181,168.94175 69.979807,169.487275 L69.3232106,169.55737 C69.1083028,168.941235 69.0638377,168.33366 69.2015078,167.737345 C69.301386,167.304725 69.4817542,166.976897 69.7381156,166.746665 C70.0133655,166.514636 70.3218805,166.431916 70.6726537,166.512899 C71.1228127,166.616826 71.3602407,166.868691 71.3921336,167.263997 C71.5940895,166.922679 71.9178987,166.800386 72.3680576,166.904314 C72.7246771,166.986646 72.971553,167.197587 73.1055386,167.524096 C73.2422236,167.838912 73.253431,168.217127 73.1535528,168.649747 C73.0158827,169.246061 72.7154208,169.774003 72.2463208,170.232223 Z M41.8084706,155.965268 C41.286163,155.571681 41.0004482,155.093431 40.9549372,154.525726 C40.909358,153.988021 41.0869729,153.453223 41.4841708,152.926123 C41.8813687,152.399024 42.3428814,152.085671 42.8723198,151.981273 C43.4269664,151.873332 43.9654434,152.016155 44.4877511,152.409742 C45.0148505,152.80694 45.2969544,153.289982 45.3412845,153.849284 C45.3832527,154.391781 45.204457,154.918176 44.8144809,155.435692 C44.4208938,155.958 43.9641729,156.274963 43.4311236,156.384153 C42.8740471,156.505289 42.33557,156.362466 41.8084706,155.965268 Z M42.1803923,155.471711 C42.5349864,155.738917 42.898392,155.824942 43.2754009,155.733398 C43.6356043,155.644216 43.9577457,155.406147 44.2538387,155.013218 C44.5463208,154.625081 44.6863733,154.249798 44.6728154,153.878966 C44.6580765,153.499732 44.4704236,153.170505 44.1158294,152.903299 C43.7612352,152.636093 43.4014405,152.545276 43.0400562,152.626056 C42.6834636,152.710446 42.3529195,152.949696 42.0496047,153.352209 C41.7462899,153.754721 41.6038075,154.143198 41.6173654,154.51403 C41.6357152,154.888473 41.8257981,155.204505 42.1803923,155.471711 Z M43.5820312,154.927692 L42.3122007,153.970806 L42.6805115,153.482041 L43.950342,154.438927 L43.5820312,154.927692 Z M25.5436977,137.645267 L24.1718069,135.757022 L24.6232384,135.429037 L25.3673745,136.453253 L25.4065972,135.608951 C25.4288633,135.170039 25.4709234,134.85024 25.5424855,134.642503 C25.651592,134.333324 25.8669943,134.058162 26.1873651,133.825399 C26.5417145,133.567949 26.9154024,133.45961 27.3097561,133.492001 C27.7460138,133.531029 28.1111649,133.747797 28.4003553,134.145834 C28.6895456,134.54387 28.7841944,134.949754 28.6975365,135.361286 C28.6135335,135.756056 28.3804586,136.088556 28.0115468,136.356586 C27.6329269,136.631669 27.2292425,136.739553 26.8102018,136.673183 C26.441446,136.614778 26.1689003,136.464223 25.9855113,136.21181 L25.9714045,136.192393 L25.9271717,137.366657 L25.5436977,137.645267 Z M26.2318991,135.713893 C26.380021,135.917765 26.5678866,136.033431 26.8052041,136.053836 C27.0592833,136.076896 27.3270919,135.986152 27.6086298,135.781602 C27.8513349,135.605267 28.0080325,135.402422 28.0787227,135.173069 C28.1520677,134.926954 28.1111525,134.697107 27.9489238,134.473818 C27.7866951,134.250529 27.5723596,134.139262 27.3156256,134.132964 C27.0756533,134.12932 26.8391687,134.212139 26.5964636,134.388475 C26.3246339,134.585971 26.1569006,134.804249 26.098118,135.039784 C26.0344812,135.278846 26.0802505,135.505167 26.2318991,135.713893 Z M16.3777095,118.454108 L15.6041595,116.207556 L16.0693547,116.047376 C16.4529261,116.461034 16.9169389,116.758154 17.4574863,116.927389 C18.0324465,117.122849 18.5732633,117.127003 19.0838433,116.951196 C19.3674989,116.853526 19.5465237,116.728425 19.6189643,116.570222 C19.6690868,116.457777 19.6822815,116.256517 19.6585486,115.966439 C19.6203934,115.560759 19.6326526,115.264635 19.699233,115.089412 C19.7767855,114.872337 19.9573894,114.714964 20.2467181,114.61534 C20.4055652,114.560645 20.5931522,114.534128 20.815152,114.533836 L21.0378406,115.180571 C20.8555526,115.167189 20.6887047,115.180219 20.5412038,115.231008 C20.4163953,115.273983 20.3394865,115.363922 20.3198702,115.491245 C20.2889076,115.622475 20.2985924,115.834895 20.3356249,116.126738 C20.3808453,116.47922 20.3550994,116.754605 20.2583871,116.952895 C20.1244778,117.227449 19.8229722,117.439143 19.3691233,117.595416 C18.8812357,117.763409 18.3824584,117.7892 17.8632114,117.663397 C17.4163228,117.563444 16.9569652,117.353561 16.4794657,117.035703 L16.9053088,118.272441 L16.3777095,118.454108 Z M44.7383446,26.2171425 L46.6359026,24.78723 L46.9319956,25.1801587 C46.6571135,25.6727841 46.5179236,26.2059015 46.5240098,26.7722892 C46.5157886,27.3795094 46.6789598,27.8951402 47.00394,28.3264034 C47.1844845,28.5659941 47.3587837,28.6975986 47.5316296,28.7176062 C47.6540593,28.7305282 47.8495471,28.6808842 48.118093,28.5686741 C48.4921269,28.4070244 48.7775463,28.327176 48.9647676,28.3363509 C49.1951834,28.3430278 49.4006635,28.4661615 49.5848189,28.710544 C49.6859238,28.8447147 49.7691105,29.0149263 49.8379899,29.2259704 L49.2917232,29.6376119 C49.2481201,29.4601104 49.1841687,29.3054552 49.0902856,29.1808681 C49.010846,29.0754482 48.9015427,29.0300963 48.7743894,29.0507851 C48.6400143,29.0618902 48.4409837,29.1367424 48.1748678,29.262147 C47.8536119,29.4140768 47.5837489,29.4746898 47.3652786,29.4439858 C47.0627813,29.4014726 46.7682779,29.1801407 46.4794067,28.7967957 C46.1688702,28.3846998 45.9902107,27.9183042 45.9494009,27.3855955 C45.9063656,26.9296921 45.9640265,26.4279598 46.1187726,25.875607 L45.0741574,26.6627811 L44.7383446,26.2171425 Z M12.3391466,96.980114 L12.3152754,96.2965307 L14.2580911,96.2286861 C14.7018207,96.2131907 14.9219341,95.9833688 14.9062293,95.533643 C14.9003662,95.3657453 14.8351678,95.2179306 14.7106342,95.090199 C14.5736891,94.9508934 14.3906578,94.8672302 14.1611215,94.8272165 L12.2662765,94.893386 L12.2424052,94.2098026 L15.3425156,94.1015444 L15.3663868,94.7851277 L14.9646317,94.7991573 C15.1375549,94.9372065 15.2620885,95.0649381 15.3382326,95.1823523 C15.427207,95.323333 15.4746257,95.4777722 15.4806982,95.6516662 C15.4878177,95.8555419 15.4339268,96.0315299 15.3254405,96.1914134 L16.602662,96.1468118 L16.6265333,96.8303952 L12.3391466,96.980114 Z M69.3233583,15.639168 L69.9619273,15.3940443 L70.6585946,17.2089246 C70.81771,17.6234343 71.1066727,17.756733 71.5267839,17.5954674 C71.6836254,17.5352616 71.8021604,17.4254916 71.8823889,17.2661574 C71.9695199,17.0913198 71.9890359,16.8910222 71.9521398,16.6609642 L71.2726742,14.8908957 L71.9112432,14.645772 L73.0229006,17.5417385 L72.3843316,17.7868622 L72.2402677,17.4115628 C72.1660379,17.6200093 72.0858094,17.7793436 71.9995823,17.8895655 C71.8952496,18.0195912 71.7646625,18.114707 71.6022195,18.177063 C71.4117691,18.2501701 71.227824,18.2565113 71.0413316,18.2059885 L71.4993258,19.3991043 L70.8607568,19.644228 L69.3233583,15.639168 Z M15.2775707,74.633963 L16.2124251,71.1450389 L16.7572072,71.2910128 L16.6081275,71.8473861 L18.3236117,72.3070487 C18.4858873,72.3505303 18.5945614,72.2926863 18.6395959,72.1246152 C18.6613367,72.0434774 18.6692128,71.9213547 18.6632241,71.7582469 L19.2212618,71.8083862 C19.2317977,72.0472522 19.2106661,72.2652097 19.1547612,72.4738497 C19.0274222,72.9490852 18.7029528,73.1168218 18.192944,72.9801653 L16.4310952,72.5080794 L16.128277,73.6382126 L18.5797967,74.2950953 L18.4027645,74.9557886 L15.9512447,74.2989059 L15.8223529,74.7799369 L15.2775707,74.633963 Z M25.6084798,47.1176081 L26.1223278,46.7028886 C26.3805917,47.2180234 26.7367878,47.6104011 27.1794689,47.887019 C27.4237068,48.0396357 27.6329593,48.1350159 27.8084973,48.1598033 C28.0158358,48.1903118 28.172286,48.1324212 28.2740305,47.969596 C28.3566979,47.8373005 28.364317,47.70056 28.3019762,47.5625541 C28.2383646,47.4379044 28.1047931,47.3119892 27.9114381,47.1911676 L27.0413407,46.6474704 L27.4038055,46.0674055 L28.2739029,46.6111027 C28.4723461,46.7351038 28.6440719,46.7999595 28.7871713,46.7974021 C28.9270913,46.7999329 29.0466528,46.7331418 29.1324997,46.595758 C29.2310647,46.4380211 29.2176927,46.2669387 29.0993806,46.0939582 C28.9969715,45.9521401 28.8226936,45.8007887 28.5784558,45.648172 C28.1357747,45.3715541 27.6237823,45.2285025 27.0507463,45.2171084 L27.1982376,44.5734638 C27.850772,44.5708585 28.4397215,44.7266229 28.9587269,45.0509334 C29.3352603,45.2862176 29.5865058,45.5634894 29.7207314,45.8808402 C29.8505067,46.2166353 29.8282766,46.5352728 29.6375057,46.8405701 C29.392683,47.2323683 29.077241,47.3748617 28.6930885,47.276318 C28.9500604,47.5783932 28.9602689,47.9243756 28.7154462,48.3161738 C28.5214957,48.6265594 28.2416718,48.7913094 27.8893304,48.8116944 C27.5471656,48.8384385 27.1859077,48.7259007 26.8093744,48.4906165 C26.2903689,48.1663059 25.8890109,47.7103326 25.6084798,47.1176081 Z" id="形状结合" fill="#F6DFAB" fill-rule="nonzero"></path>
        <path d="M69.1074863,169.5 L64.6393321,179 L69.1074863,188.5 L116.455432,188.5 L120.372378,179 L116.455432,169.5 L69.1074863,169.5 Z" id="矩形" stroke="#F6DFAB" fill="#FFFFFF"></path>
    </g>
</svg>