<?xml version="1.0" encoding="UTF-8"?>
<svg width="14px" height="14px" viewBox="0 0 14 14" version="1.1" xmlns="http://www.w3.org/2000/svg" xmlns:xlink="http://www.w3.org/1999/xlink">
    <!-- Generator: Sketch 55.2 (78181) - https://sketchapp.com -->
    <title>icon_follow_clock_black</title>
    <desc>Created with Sketch.</desc>
    <g id="icon_follow_clock_black" stroke="none" stroke-width="1" fill="none" fill-rule="evenodd">
        <g id="icon/闹钟" fill="#222222">
            <path d="M11.8227326,11.1796713 C14.0347908,8.61834069 13.8601546,4.71813279 11.4152482,2.38965047 C8.97034173,0.0611681461 5.07013383,0.0611681313 2.56701533,2.38965047 C0.122108881,4.7181328 -0.11073935,8.56012864 2.15953092,11.1796713 L0.587805357,12.7513968 C0.413169177,12.926033 0.413169177,13.2170933 0.587805357,13.3917295 C0.762441537,13.5663657 1.05350182,13.5663657 1.228138,13.3917295 L2.79986356,11.8200039 C5.18655795,13.8574259 8.67928144,13.8574259 11.1241879,11.8200039 L12.6959135,13.4499415 C12.8705496,13.6245777 13.219822,13.6245777 13.3944582,13.4499415 C13.5690943,13.2753053 13.5690943,12.926033 13.3944582,12.7513968 L11.8227326,11.1796713 L11.8227326,11.1796713 Z M9.78531055,9.78258185 C9.61067437,10.0154301 9.31961409,10.0154301 9.08676585,9.84079392 L6.5254353,7.62873571 C6.40901118,7.5123116 6.35079912,7.39588748 6.35079912,7.27946335 L6.35079912,4.48528456 C6.35079912,4.25243633 6.58364735,4.0195881 6.81649558,4.0195881 C7.04934381,4.0195881 7.28219204,4.19422428 7.28219205,4.48528456 L7.28219205,6.93019101 L9.66888644,8.96761305 C9.78531055,9.02582511 9.84352262,9.20046128 9.8435226,9.31688539 C9.90173467,9.54973362 9.90173467,9.66615774 9.78531055,9.78258185 Z M0.646017407,3.14640722 C1.28635005,2.15680224 2.15953092,1.28362136 3.14913591,0.701500773 C2.7416515,0.177592247 2.04310681,-0.055255984 1.40277416,0.0611681461 C0.762441522,0.235804326 0.238532996,0.701500788 0.0638968307,1.40004548 C-0.11073935,2.04037812 0.122108896,2.73892281 0.646017407,3.14640722 Z M13.278034,3.14640722 C13.8019426,2.73892281 14.0347908,2.04037812 13.9183667,1.40004548 C13.7437305,0.759712838 13.278034,0.235804312 12.5794893,0.0611681461 C11.9391567,-0.113468034 11.240612,0.177592261 10.8331276,0.701500773 C11.8227326,1.28362135 12.6959135,2.15680222 13.278034,3.14640722 Z" id="形状"></path>
        </g>
    </g>
</svg>