<svg height="38" viewBox="0 0 38 38" width="38" xmlns="http://www.w3.org/2000/svg"><g fill-rule="evenodd" transform="translate(0 7.307692)"><path d="m.14809931 14.8968435c-.09453144.0893218-.14809931.2136361-.14809931.3436922v7.9291476c0 .2611482.21170246.4728506.47285068.4728506s.47285068-.2117024.47285068-.4728506v-7.725393l3.63470611-3.4343981c.20803374-.1965691.19511091-.5314378-.02745303-.7113897l-3.60725308-2.91661022v-7.9090416c0-.26114822-.21170246-.47285068-.47285068-.47285068s-.47285068.21170246-.47285068.47285068v8.13479794c0 .14278477.06452025.27792357.17555235.36769752l3.36229846 2.71855446z" fill-rule="nonzero" opacity=".2"/><path d="m26.0985141.46221937 7.8574179 4.68282045c.6052962.36074111.9760983 1.01338936.9760983 1.71802948v9.4769392c0 .7046401-.3708021 1.3572883-.9760983 1.7180294l-7.8574179 4.6828205c-.6308335.3759607-1.4169698.3759607-2.0478034 0l-7.8574178-4.6828205c-.6052963-.3607411-.9760983-1.0133893-.9760983-1.7180294v-9.4769392c0-.70464012.370802-1.35728837.9760983-1.71802948l7.8574178-4.68282045c.6308336-.3759607 1.4169699-.3759607 2.0478034 0zm-.8026188 5.9459578c-.2476268-.12221114-.5474398-.02054164-.6696509.22708519l-.9207517 1.86564672c-.291324.59028695-.8544552.9994257-1.5058755 1.09408261l-2.0588634.29917036c-.1088186.01581226-.2093898.06705585-.2861441.14579765-.1927506.1977418-.1887044.5142984.0090374.707049l1.4898075 1.4522035c.4713722.4594743.6864692 1.1214747.5751933 1.7702628l-.3516959 2.0505442c-.0185884.1083788-.000931.2198629.0502385.3171931.1285004.2444223.430814.3383956.6752363.2098952l1.8415034-.9681357c.582648-.3063162 1.2787164-.3063162 1.8613645 0l1.8415034.9681357c.0973302.0511695.2088143.0688268.3171931.0502384.2721682-.0466805.4549621-.3051585.4082816-.5773267l-.3516958-2.0505442c-.1112759-.6487881.103821-1.3107885.5751932-1.7702628l1.4898076-1.4522035c.0787418-.0767543.1299854-.1773255.1457976-.286144.0397088-.2732724-.1496319-.52699384-.4229043-.56670265l-2.0588634-.29917036c-.6514203-.09465691-1.2145515-.50379566-1.5058755-1.09408261l-.9207517-1.86564672c-.0486652-.09860631-.1284789-.17842007-.2270852-.22708519z" opacity=".4"/></g></svg>