<?xml version="1.0" encoding="UTF-8"?>
<svg width="10px" height="10px" viewBox="0 0 10 10" version="1.1" xmlns="http://www.w3.org/2000/svg" xmlns:xlink="http://www.w3.org/1999/xlink">
    <!-- Generator: Sketch 55.2 (78181) - https://sketchapp.com -->
    <title>icon_follow_ranking_up</title>
    <desc>Created with Sketch.</desc>
    <g id="icon_follow_ranking_up" stroke="none" stroke-width="1" fill="none" fill-rule="evenodd">
        <path d="M6.82377977,4.86016921 L6.82377977,9 C6.82377977,9.55228475 6.37606452,10 5.82377977,10 L4.17659197,10 C3.62430722,10 3.17659197,9.55228475 3.17659197,9 L3.17659197,4.86016921 L1.30104641,4.86016921 C1.02490404,4.86016921 0.801046412,4.63631159 0.801046412,4.36016921 C0.801046412,4.23210251 0.850187333,4.108918 0.938336498,4.01601588 L4.63745832,0.117439244 C4.82752895,-0.0828799103 5.14400241,-0.091187973 5.34432156,0.0988826661 C5.35067425,0.104910345 5.35686749,0.111103881 5.36289486,0.117456862 L9.06165684,4.0160335 C9.25171775,4.21636188 9.24339431,4.53283493 9.04306592,4.72289584 C8.95016561,4.81103472 8.82698852,4.86016921 8.69893021,4.86016921 L6.82377977,4.86016921 Z" id="形状结合" fill="#FF4000"></path>
    </g>
</svg>