<?xml version="1.0" encoding="UTF-8"?>
<svg width="16px" height="16px" viewBox="0 0 16 16" version="1.1" xmlns="http://www.w3.org/2000/svg" xmlns:xlink="http://www.w3.org/1999/xlink">
    <!-- Generator: Sketch 55.2 (78181) - https://sketchapp.com -->
    <title>icon_follow_result_black</title>
    <desc>Created with Sketch.</desc>
    <g id="icon_follow_result_black" stroke="none" stroke-width="1" fill="none" fill-rule="evenodd">
        <g id="ico-/个人中心/赛果">
            <circle id="椭圆形" fill="#5078FF" fill-rule="evenodd" cx="10.8" cy="4.4" r="2.8"></circle>
            <path d="M4.26666667,1.6 L11.7333333,1.6 C12.7642649,1.6 13.6,2.41867931 13.6,3.42857143 L13.6,12.5714286 C13.6,13.5813207 12.7642649,14.4 11.7333333,14.4 L4.26666667,14.4 C3.23573513,14.4 2.4,13.5813207 2.4,12.5714286 L2.4,3.42857143 C2.4,2.41867931 3.23573513,1.6 4.26666667,1.6 Z M4.16,2.4 C3.62980664,2.4 3.2,2.81786757 3.2,3.33333333 L3.2,12.6666667 C3.2,13.1821324 3.62980664,13.6 4.16,13.6 L11.84,13.6 C12.3701934,13.6 12.8,13.1821324 12.8,12.6666667 L12.8,3.33333333 C12.8,2.81786757 12.3701934,2.4 11.84,2.4 L4.16,2.4 Z" id="矩形备份-4" fill="#353535" fill-rule="nonzero"></path>
            <path d="M6,1.6 L10,1.6 C10.6627417,1.6 11.2,2.1372583 11.2,2.8 C11.2,3.4627417 10.6627417,4 10,4 L6,4 C5.3372583,4 4.8,3.4627417 4.8,2.8 C4.8,2.1372583 5.3372583,1.6 6,1.6 Z M6,2.4 C5.7790861,2.4 5.6,2.5790861 5.6,2.8 C5.6,3.0209139 5.7790861,3.2 6,3.2 L10,3.2 C10.2209139,3.2 10.4,3.0209139 10.4,2.8 C10.4,2.5790861 10.2209139,2.4 10,2.4 L6,2.4 Z" id="矩形" fill="#353535" fill-rule="nonzero"></path>
            <path d="M6,12 L10,12 C10.6627417,12 11.2,12.5372583 11.2,13.2 C11.2,13.8627417 10.6627417,14.4 10,14.4 L6,14.4 C5.3372583,14.4 4.8,13.8627417 4.8,13.2 C4.8,12.5372583 5.3372583,12 6,12 Z M6,12.8 C5.7790861,12.8 5.6,12.9790861 5.6,13.2 C5.6,13.4209139 5.7790861,13.6 6,13.6 L10,13.6 C10.2209139,13.6 10.4,13.4209139 10.4,13.2 C10.4,12.9790861 10.2209139,12.8 10,12.8 L6,12.8 Z" id="矩形备份" fill="#353535" fill-rule="nonzero"></path>
            <path d="M8,10 C9.1045695,10 10,9.1045695 10,8 C10,6.8954305 9.1045695,6 8,6 C6.8954305,6 6,6.8954305 6,8 C6,9.1045695 6.8954305,10 8,10 Z M8,9.2 C7.3372583,9.2 6.8,8.6627417 6.8,8 C6.8,7.3372583 7.3372583,6.8 8,6.8 C8.6627417,6.8 9.2,7.3372583 9.2,8 C9.2,8.6627417 8.6627417,9.2 8,9.2 Z" id="椭圆形" fill="#353535" fill-rule="nonzero"></path>
            <path d="M6.45040699,7.6 C6.4175012,7.75980996 6.4,7.92735022 6.4,8.1 C6.4,8.27264978 6.4175012,8.44019004 6.45040699,8.6 L3.2,8.6 L3.2,7.6 L6.45040699,7.6 Z M9.54959301,7.6 L12.8,7.6 L12.8,8.6 L9.54959301,8.6 C9.5824988,8.44019004 9.6,8.27264978 9.6,8.1 C9.6,7.92735022 9.5824988,7.75980996 9.54959301,7.6 Z" id="形状结合" fill="#353535" fill-rule="nonzero"></path>
        </g>
    </g>
</svg>