<?xml version="1.0" encoding="UTF-8"?>
<svg width="16px" height="16px" viewBox="0 0 16 16" version="1.1" xmlns="http://www.w3.org/2000/svg" xmlns:xlink="http://www.w3.org/1999/xlink">
    <!-- Generator: Sketch 55.2 (78181) - https://sketchapp.com -->
    <title>icon_follow_add_black</title>
    <desc>Created with Sketch.</desc>
    <g id="icon_follow_add_black" stroke="none" stroke-width="1" fill="none" fill-rule="evenodd">
        <g id="ico/+">
            <g id="ico/关闭" transform="translate(8.000000, 8.000000) rotate(45.000000) translate(-8.000000, -8.000000) translate(2.000000, 2.000000)">
                <path d="M6.03980436,5.3195484 L10.3511934,1.00815937 C10.5464555,0.812897222 10.863038,0.812897222 11.0583002,1.00815937 C11.2535623,1.20342151 11.2535623,1.520004 11.0583002,1.71526615 L6.74691114,6.02665518 L11.0583002,10.3380442 C11.2535623,10.5333064 11.2535623,10.8498888 11.0583002,11.045151 C10.863038,11.2404131 10.5464555,11.2404131 10.3511934,11.045151 L6.03980436,6.73376196 L1.72841533,11.045151 C1.53315318,11.2404131 1.21657069,11.2404131 1.02130855,11.045151 C0.826046402,10.8498888 0.826046402,10.5333064 1.02130855,10.3380442 L5.33269758,6.02665518 L1.02130855,1.71526615 C0.826046402,1.520004 0.826046402,1.20342151 1.02130855,1.00815937 C1.21657069,0.812897222 1.53315318,0.812897222 1.72841533,1.00815937 L6.03980436,5.3195484 Z" id="形状结合" fill="#0C172E"></path>
                <rect id="矩形" fill="#D8D8D8" opacity="0" x="0" y="0" width="12" height="12"></rect>
            </g>
        </g>
    </g>
</svg>