<?xml version="1.0" encoding="UTF-8"?>
<svg width="16px" height="16px" viewBox="0 0 16 16" version="1.1" xmlns="http://www.w3.org/2000/svg" xmlns:xlink="http://www.w3.org/1999/xlink">
    <!-- Generator: Sketch 55.2 (78181) - https://sketchapp.com -->
    <title>icon_follow_betlist_black</title>
    <desc>Created with Sketch.</desc>
    <g id="icon_follow_betlist_black" stroke="none" stroke-width="1" fill="none" fill-rule="evenodd">
        <g id="ico-/个人中心/注单">
            <circle id="椭圆形" fill="#5078FF" fill-rule="evenodd" cx="10.8" cy="4.4" r="2.8"></circle>
            <path d="M4.26666667,1.6 L11.7333333,1.6 C12.7642649,1.6 13.6,2.41867931 13.6,3.42857143 L13.6,12.5714286 C13.6,13.5813207 12.7642649,14.4 11.7333333,14.4 L4.26666667,14.4 C3.23573513,14.4 2.4,13.5813207 2.4,12.5714286 L2.4,3.42857143 C2.4,2.41867931 3.23573513,1.6 4.26666667,1.6 Z M4.16,2.4 C3.62980664,2.4 3.2,2.81786757 3.2,3.33333333 L3.2,12.6666667 C3.2,13.1821324 3.62980664,13.6 4.16,13.6 L11.84,13.6 C12.3701934,13.6 12.8,13.1821324 12.8,12.6666667 L12.8,3.33333333 C12.8,2.81786757 12.3701934,2.4 11.84,2.4 L4.16,2.4 Z" id="矩形备份-4" fill="#353535" fill-rule="nonzero"></path>
            <rect id="矩形" fill="#353535" fill-rule="evenodd" x="4.8" y="7.2" width="6.4" height="1" rx="0.5"></rect>
            <rect id="矩形备份" fill="#353535" fill-rule="evenodd" x="4.8" y="9.6" width="4" height="1" rx="0.5"></rect>
            <path d="M6,1.6 L10,1.6 C10.6627417,1.6 11.2,2.1372583 11.2,2.8 C11.2,3.4627417 10.6627417,4 10,4 L6,4 C5.3372583,4 4.8,3.4627417 4.8,2.8 C4.8,2.1372583 5.3372583,1.6 6,1.6 Z M6,2.4 C5.7790861,2.4 5.6,2.5790861 5.6,2.8 C5.6,3.0209139 5.7790861,3.2 6,3.2 L10,3.2 C10.2209139,3.2 10.4,3.0209139 10.4,2.8 C10.4,2.5790861 10.2209139,2.4 10,2.4 L6,2.4 Z" id="矩形" fill="#353535" fill-rule="nonzero"></path>
        </g>
    </g>
</svg>