<?xml version="1.0" encoding="UTF-8"?>
<svg width="16px" height="16px" viewBox="0 0 16 16" version="1.1" xmlns="http://www.w3.org/2000/svg" xmlns:xlink="http://www.w3.org/1999/xlink">
    <!-- Generator: Sketch 55.2 (78181) - https://sketchapp.com -->
    <title>icon_follow_ranklist_black</title>
    <desc>Created with Sketch.</desc>
    <g id="icon_follow_ranklist_black" stroke="none" stroke-width="1" fill="none" fill-rule="evenodd">
        <g id="ico-/个人中心/排行榜">
            <g id="排行榜" transform="translate(1.600000, 1.600000)">
                <path d="M7.6494066,0.372747248 C8.12483517,6.27164834 7.42857143,9.08940659 5.56061538,8.82672528 C7.80202198,8.66109891 9.04756044,8.39173626 9.29652748,8.01863737 C9.67032968,7.45951649 10.6046593,6.52694506 10.4175824,4.10268132 L10.2308571,0.559120877 L7.64975825,0.372747248 L7.6494066,0.372747248 Z" id="路径" fill="#5078FF" fill-rule="nonzero"></path>
                <path d="M3.69230769,11.5618462 L8.96703297,11.5618462 C9.2014652,11.5618462 9.31868132,11.6790623 9.31868132,11.9134945 L9.31868132,11.9134945 C9.31868132,12.1479267 9.2014652,12.2651429 8.96703297,12.2651429 L3.69230769,12.2651429 C3.45787546,12.2651429 3.34065934,12.1479267 3.34065934,11.9134945 L3.34065934,11.9134945 C3.34065934,11.6790623 3.45787546,11.5618462 3.69230769,11.5618462 Z" id="路径" fill="#222222" fill-rule="nonzero"></path>
                <path d="M3.34065934,0.703296707 C3.10997802,0.703296707 2.92290109,0.89037363 2.92290109,1.12105494 L2.92290109,5.21424175 C2.92290109,7.09556043 4.44835165,8.62065934 6.32967032,8.62065934 C8.210989,8.62065934 9.73643956,7.09556043 9.73643956,5.21424175 L9.73643956,1.12105494 C9.73643956,0.890021983 9.54901099,0.703296707 9.31868132,0.703296707 L3.34065934,0.703296707 Z M3.34065934,0 L9.31868132,0 C9.93782287,0 10.4397363,0.501913393 10.4397363,1.12105494 L10.4397363,5.21424175 C10.4397363,7.48378022 8.59956043,9.32395605 6.32967032,9.32395605 C4.05978022,9.32395605 2.2196044,7.48378022 2.2196044,5.21424175 L2.2196044,1.12105494 C2.2196044,0.823732684 2.33771521,0.538587973 2.54795379,0.32834939 C2.75819237,0.118110806 3.04333708,0 3.34065934,0 Z" id="形状" fill="#222222" fill-rule="nonzero"></path>
                <path d="M2.85221978,1.05494506 L2.85221978,1.75824175 L1.47551648,1.75824175 C1.17113484,1.75863305 0.895596911,1.93842793 0.772653735,2.21687597 C0.649710559,2.49532401 0.702476387,2.82007487 0.907252752,3.04527472 L2.93520879,5.27226374 L2.41547252,5.74593406 L0.386813185,3.51894506 C-0.00561548386,3.0877901 -0.10675767,2.46572372 0.128864478,1.93245357 C0.364486627,1.39918341 0.89251148,1.05511063 1.47551648,1.05494506 L2.85221978,1.05494506 Z M9.92879121,1.05494506 L11.3054945,1.05494506 C11.8884995,1.05511063 12.4165244,1.39918341 12.6521465,1.93245357 C12.8877687,2.46572372 12.7866265,3.0877901 12.3941978,3.51894506 L10.3665934,5.74593406 L9.84615385,5.27226374 L11.8741099,3.04527472 C12.0792622,2.82012922 12.1322041,2.49512077 12.0091112,2.21650613 C11.8860184,1.93789149 11.6100893,1.75817933 11.3054945,1.75824175 L9.92879121,1.75824175 L9.92879121,1.05494506 L9.92879121,1.05494506 Z M5.95621978,8.92975825 L6.65951648,8.92975825 L6.65951648,11.5618462 L5.95621978,11.5618462 L5.95621978,8.92975825 Z M6.32967032,4.71841758 L7.05547252,5.09925275 L6.91692308,4.29257143 L7.50347252,3.72184615 L6.69292308,3.6043956 L6.32967032,2.87015385 L5.96641758,3.6043956 L5.15586814,3.72184615 L5.74241758,4.29257143 L5.60386814,5.09925275 L6.32967032,4.71841758 Z M5.49591209,5.78918681 C5.37627022,5.85182187 5.23145804,5.84118582 5.12225142,5.76174249 C5.01304481,5.68229915 4.95834116,5.54779561 4.98109891,5.41468132 L5.14004395,4.48879121 L4.46628571,3.83296703 C4.36943514,3.73864487 4.33453203,3.59751768 4.37625198,3.46892472 C4.41797192,3.34033177 4.52907929,3.24657535 4.66285714,3.22707692 L5.59472528,3.09204395 L6.01142857,2.24914286 C6.07136046,2.12818683 6.19468072,2.05166201 6.32967033,2.05166201 C6.46465994,2.05166201 6.5879802,2.12818683 6.64791209,2.24914286 L7.06461538,3.09204395 L7.99648352,3.22707692 C8.13032209,3.24646522 8.24153596,3.34017872 8.28333709,3.46879183 C8.32513822,3.59740495 8.29027194,3.73859662 8.1934066,3.83296703 L7.51929671,4.48879121 L7.67824175,5.41468132 C7.70099951,5.54779561 7.64629585,5.68229915 7.53708924,5.76174249 C7.42788262,5.84118582 7.28307044,5.85182187 7.16342857,5.78918681 L6.32967032,5.35138462 L5.49591209,5.78918681 Z" id="形状" fill="#222222" fill-rule="nonzero"></path>
            </g>
        </g>
    </g>
</svg>