<?xml version="1.0" encoding="UTF-8"?>
<svg width="38px" height="38px" viewBox="0 0 38 38" version="1.1" xmlns="http://www.w3.org/2000/svg" xmlns:xlink="http://www.w3.org/1999/xlink">
    <!-- Generator: Sketch 55.2 (78181) - https://sketchapp.com -->
    <title>icon_follow_add_normal</title>
    <desc>Created with Sketch.</desc>
    <g id="icon_follow_add_normal" stroke="none" stroke-width="1" fill="none" fill-rule="evenodd">
        <g id="ico/ADD" fill="#FFFFFF">
            <g id="编组" transform="translate(2.923077, 7.307692)">
                <path d="M0.148099314,14.8968435 C0.0535678721,14.9861653 1.44950718e-12,15.1104796 1.44950718e-12,15.2405357 L1.44950718e-12,23.1696833 C1.44950718e-12,23.4308315 0.21170246,23.6425339 0.472850679,23.6425339 C0.733998898,23.6425339 0.945701357,23.4308315 0.945701357,23.1696833 L0.945701357,15.4442903 L4.58040747,12.0098922 C4.78844121,11.8133231 4.77551838,11.4784544 4.55295444,11.2985025 L0.945701357,8.38189228 L0.945701357,0.472850679 C0.945701357,0.21170246 0.733998898,0 0.472850679,0 C0.21170246,0 1.44950718e-12,0.21170246 1.44950718e-12,0.472850679 L1.44950718e-12,8.60764862 C1.44950718e-12,8.75043339 0.0645202454,8.88557219 0.175552347,8.97534614 L3.53785081,11.6939006 L0.148099314,14.8968435 Z" id="路径-9" fill-rule="nonzero" opacity="0.300000012"></path>
                <path d="M23.1754372,0.462219366 L31.0328551,5.14503982 C31.6381513,5.50578093 32.0089534,6.15842918 32.0089534,6.8630693 L32.0089534,16.3400085 C32.0089534,17.0446486 31.6381513,17.6972968 31.0328551,18.0580379 L23.1754372,22.7408584 C22.5446037,23.1168191 21.7584673,23.1168191 21.1276338,22.7408584 L13.2702159,18.0580379 C12.6649197,17.6972968 12.2941176,17.0446486 12.2941176,16.3400085 L12.2941176,6.8630693 C12.2941176,6.15842918 12.6649197,5.50578093 13.2702159,5.14503982 L21.1276338,0.462219366 C21.7584673,0.0862586701 22.5446037,0.0862586701 23.1754372,0.462219366 Z M21.2208532,15.5789718 C21.8035013,15.2726556 22.4995697,15.2726556 23.0822178,15.5789718 L24.9237212,16.5471075 C25.0210514,16.598277 25.1325354,16.6159343 25.2409143,16.5973459 C25.5130825,16.5506654 25.6958764,16.2921874 25.6491959,16.0200192 L25.2975,13.969475 C25.1862242,13.3206869 25.4013211,12.6586865 25.8726933,12.1992122 L27.3625008,10.7470087 C27.4412427,10.6702544 27.4924863,10.5696832 27.5082985,10.4608647 C27.5480073,10.1875923 27.3586666,9.93387086 27.0853942,9.89416205 L25.0265308,9.59499169 C24.3751104,9.50033478 23.8119793,9.09119603 23.5206552,8.50090908 L22.5999035,6.63526236 C22.5512384,6.53665605 22.4714247,6.45684229 22.3728184,6.40817717 C22.1251915,6.28596603 21.8253786,6.38763553 21.7031675,6.63526236 L20.7824158,8.50090908 C20.4910917,9.09119603 19.9279606,9.50033478 19.2765402,9.59499169 L17.2176768,9.89416205 C17.1088583,9.90997431 17.0082871,9.9612179 16.9315328,10.0399597 C16.7387822,10.2377015 16.7428284,10.5542581 16.9405702,10.7470087 L18.4303777,12.1992122 C18.9017499,12.6586865 19.1168468,13.3206869 19.005571,13.969475 L18.6538751,16.0200192 C18.6352867,16.128398 18.652944,16.2398821 18.7041136,16.3372123 C18.832614,16.5816346 19.1349275,16.6756079 19.3793498,16.5471075 L21.2208532,15.5789718 Z" id="形状结合"></path>
            </g>
        </g>
    </g>
</svg>