<svg height="46" viewBox="0 0 46 46" width="46" xmlns="http://www.w3.org/2000/svg"><g fill="none" fill-rule="evenodd"><circle cx="23" cy="23" r="22.5" stroke="#f5f5f5"/><circle cx="23" cy="23" fill="#f5f5f5" r="21"/><path d="m12.5 11.2416685c.9450163-.9579383 1.7767054-1.79608875 2.4951014-2.51448471 1.0779917-1.07799168 1.9019411-1.88740471 2.473589-2.42982822.2912125-.27632487.5188856-.48523848.6861479-.62922744.0928589-.0799383.1701725-.14261812.2368441-.19103116.1988569-.14439827.2981628-.19931919.5497591-.19931919.4312133 0 .7807807.34956745.7807807.78078075 0 .30903283-.1795378.57613236-.4399979.7026831-.0267163.02104587-.0635157.05152339-.1086033.09033739-.1445121.12440442-.3555799.31808089-.6300748.57854279-.559767.53115002-1.3750986 1.3320973-2.4442541 2.40125271-.7199142.71991418-1.554432 1.56094828-2.5035189 2.52306838 1.6698404 1.6985726 3.6382082 3.7126888 5.9052489 6.0424914.3007228.3090481.2939737.8033651-.0150744 1.1040878-.3090481.3007228-.803365.2939737-1.1040878-.0150744-2.2574057-2.3199008-4.2180737-4.3261714-5.8818599-6.0186704-1.6637862 1.692499-3.6244542 3.6987696-5.8818599 6.0186704-.30072276.3090481-.79503972.3157972-1.10408783.0150744-.30904811-.3007227-.31579715-.7950397-.01507439-1.1040878 2.26704074-2.3298026 4.23540851-4.3439188 5.90524892-6.0424914-.9490869-.9621201-1.78360473-1.8031542-2.50351895-2.52306838-1.06915541-1.06915541-1.884487-1.87010269-2.44425401-2.40125271-.27449492-.2604619-.4855627-.45413837-.63007488-.57854279-.04508759-.038814-.08188699-.06929152-.10860324-.09033739-.26046013-.12655074-.43999794-.39365027-.43999794-.7026831 0-.4312133.34956745-.78078075.78078075-.78078075.25159631 0 .35090219.05492092.54975909.19931919.06667162.04841304.14398522.11109286.23684412.19103116.16726222.14398896.39493537.35290257.6861479.62922744.57164789.54242351 1.39559727 1.35183654 2.47358896 2.42982822.718396.71839596 1.5500851 1.55654641 2.4951014 2.51448471z" fill="#222" opacity=".4" transform="matrix(.70710678 -.70710678 .70710678 .70710678 5.22233 22.9)"/></g></svg>