<svg height="12" viewBox="0 0 12 12" width="12" xmlns="http://www.w3.org/2000/svg"><g fill="#5078FF" fill-rule="nonzero"><path d="m2 0h8c1.1045695 0 2 .8954305 2 2v8c0 1.1045695-.8954305 2-2 2h-8c-1.1045695 0-2-.8954305-2-2v-8c0-1.1045695.8954305-2 2-2zm0 1c-.55228475 0-1 .44771525-1 1v8c0 .5522847.44771525 1 1 1h8c.5522847 0 1-.4477153 1-1v-8c0-.55228475-.4477153-1-1-1z"/><path d="m2.72321676 5.13177717c-.28173053-.23463052-.5828339-.13481686-.6766582 0-.09382431.13481686-.04972839.5395883.16775712.81911698l2.36626969 3.13166134c.21728101.27926583.56949082.27956686.78706062.0006727l4.42128622-6.37308808c.21777459-.27915666.26972479-.46068906.14328108-.62535269-.12644375-.16466364-.3814071-.08412443-.59918168.19503223l-3.86100079 3.73910535c-.33833597.32765439-.85944314.37480926-1.25110038.1132118z"/></g></svg>