<?xml version="1.0" encoding="UTF-8"?>
<svg width="32px" height="32px" viewBox="0 0 32 32" version="1.1" xmlns="http://www.w3.org/2000/svg" xmlns:xlink="http://www.w3.org/1999/xlink">
    <!-- Generator: Sketch 55.2 (78181) - https://sketchapp.com -->
    <title>icon_live_setting_normal</title>
    <desc>Created with Sketch.</desc>
    <g id="icon_live_setting_normal" stroke="none" stroke-width="1" fill="none" fill-rule="evenodd">
        <g id="ico/视频直播/设置" fill="#FFFFFF" fill-rule="nonzero">
            <path d="M6.39999992,20.7625457 L6.39999992,10.4377152 C6.39980683,10.2678463 6.49211618,10.1108098 6.64208828,10.0258754 L15.7580849,4.86362974 C15.9078894,4.77879009 16.0924563,4.77879009 16.2422609,4.86362974 L25.3579116,10.0262146 C25.5077766,10.1110885 25.6,10.2679675 25.6,10.4377152 L25.6,20.7625457 C25.5994683,20.9319574 25.5073033,21.0883609 25.3579116,21.1733678 L16.2412233,26.3366312 C16.0913238,26.4211225 15.9069469,26.4211225 15.7570474,26.3366312 L6.64208828,21.1740463 C6.49253541,21.0888667 6.40035653,20.9321813 6.39999992,20.7625457 Z M11.4999996,15.5999998 C11.4999996,18.085281 13.5147183,20.0999998 15.9999996,20.0999998 C18.485281,20.0999998 20.4999996,18.085281 20.4999996,15.5999998 C20.4999996,13.1147184 18.485281,11.0999998 15.9999996,11.0999998 C13.5147183,11.0999998 11.4999996,13.1147184 11.4999996,15.5999998 Z M12.8714283,15.5999997 C12.8714283,13.8721374 14.2721374,12.4714283 15.9999997,12.4714283 C17.7278619,12.4714283 19.1285711,13.8721374 19.1285711,15.5999997 C19.1285711,17.327862 17.7278619,18.7285711 15.9999997,18.7285711 C14.2721374,18.7285711 12.8714283,17.327862 12.8714283,15.5999997 Z" id="形状结合"></path>
        </g>
    </g>
</svg>