<?xml version="1.0" encoding="UTF-8"?>
<svg width="32px" height="32px" viewBox="0 0 32 32" version="1.1" xmlns="http://www.w3.org/2000/svg" xmlns:xlink="http://www.w3.org/1999/xlink">
    <!-- Generator: Sketch 55.2 (78181) - https://sketchapp.com -->
    <title>icon_live_vioce_off</title>
    <desc>Created with Sketch.</desc>
    <g id="icon_live_vioce_off" stroke="none" stroke-width="1" fill="none" fill-rule="evenodd">
        <g id="ico/视频直播/播放备份-6" fill="#FFFFFF">
            <path d="M23.2,15.2 L23.2,13.3 C23.2,13.0238576 23.4238576,12.8 23.7,12.8 L24.3,12.8 C24.5761424,12.8 24.8,13.0238576 24.8,13.3 L24.8,15.2 L26.7,15.2 C26.9761424,15.2 27.2,15.4238576 27.2,15.7 L27.2,16.3 C27.2,16.5761424 26.9761424,16.8 26.7,16.8 L24.8,16.8 L24.8,18.7 C24.8,18.9761424 24.5761424,19.2 24.3,19.2 L23.7,19.2 C23.4238576,19.2 23.2,18.9761424 23.2,18.7 L23.2,16.8 L21.3,16.8 C21.0238576,16.8 20.8,16.5761424 20.8,16.3 L20.8,15.7 C20.8,15.4238576 21.0238576,15.2 21.3,15.2 L23.2,15.2 Z" id="形状结合" fill-rule="evenodd" transform="translate(24.000000, 16.000000) rotate(45.000000) translate(-24.000000, -16.000000) "></path>
            <path d="M11.1766423,10.4211751 L11.1766423,21.950124 L17.0627737,25.6848539 C18.2072993,26.4967517 19.1883212,25.8472335 19.1883212,24.548197 L19.1883212,7.82310209 C19.1883212,6.52406559 18.2072993,6.03692691 17.0627737,6.68644516 L11.1766423,10.4211751 Z" id="路径" fill-rule="nonzero"></path>
            <path d="M4.8,12.8568685 L4.8,19.352051 C4.8,20.8134671 5.78102191,21.7877444 7.25255475,21.7877444 L9.70510949,21.7877444 L9.70510949,10.4211751 L7.25255475,10.4211751 C5.78102191,10.4211751 4.8,11.3954525 4.8,12.8568685 Z" id="路径" fill-rule="nonzero"></path>
        </g>
    </g>
</svg>