<?xml version="1.0" encoding="UTF-8"?>
<svg width="32px" height="32px" viewBox="0 0 32 32" version="1.1" xmlns="http://www.w3.org/2000/svg" xmlns:xlink="http://www.w3.org/1999/xlink">
    <!-- Generator: Sketch 55.2 (78181) - https://sketchapp.com -->
    <title>icon_live_vioce_on</title>
    <desc>Created with Sketch.</desc>
    <g id="icon_live_vioce_on" stroke="none" stroke-width="1" fill="none" fill-rule="evenodd">
        <g id="ico/视频直播/播放备份" fill="#FFFFFF" fill-rule="nonzero">
            <path d="M24.9109489,10.2587955 C24.5839416,9.93403641 24.0934307,9.93403641 23.7664234,10.2587955 C23.4394161,10.5835547 23.4394161,11.0706933 23.7664234,11.3954525 C24.9109489,12.5321094 25.5649635,14.155905 25.5649635,16.1044598 C25.5649635,18.0530145 24.9109489,19.5144306 23.7664234,20.8134671 C23.4394161,21.1382262 23.4394161,21.6253649 23.7664234,21.950124 C24.0934307,22.2748831 24.5839416,22.2748831 24.9109489,21.950124 C26.3824818,20.4887079 27.2,18.3777736 27.2,16.1044598 C27.2,13.8311459 26.3824818,11.7202116 24.9109489,10.2587955 L24.9109489,10.2587955 Z" id="路径"></path>
            <path d="M22.6218978,12.694489 C22.2948905,12.3697298 21.8043796,12.3697298 21.4773723,12.694489 C21.150365,13.0192481 21.150365,13.5063868 21.4773723,13.8311459 C21.9678832,14.4806641 22.4583942,15.2925619 22.4583942,16.1044598 C22.4583942,17.0787371 22.1313869,17.8906349 21.4773723,18.3777736 C21.150365,18.7025327 21.150365,19.1896714 21.4773723,19.5144306 C21.8043796,19.8391897 22.2948905,19.8391897 22.6218978,19.5144306 C23.4394161,18.5401532 24.0934307,17.4034962 24.0934307,16.1044598 C24.0934307,14.8054233 23.4394161,13.5063868 22.6218978,12.694489 Z" id="路径"></path>
            <path d="M11.1766423,10.4211751 L11.1766423,21.950124 L17.0627737,25.6848539 C18.2072993,26.4967517 19.1883212,25.8472335 19.1883212,24.548197 L19.1883212,7.82310209 C19.1883212,6.52406559 18.2072993,6.03692691 17.0627737,6.68644516 L11.1766423,10.4211751 Z" id="路径"></path>
            <path d="M4.8,12.8568685 L4.8,19.352051 C4.8,20.8134671 5.78102191,21.7877444 7.25255475,21.7877444 L9.70510949,21.7877444 L9.70510949,10.4211751 L7.25255475,10.4211751 C5.78102191,10.4211751 4.8,11.3954525 4.8,12.8568685 Z" id="路径"></path>
        </g>
    </g>
</svg>