<svg height="24" viewBox="0 0 24 24" width="24" xmlns="http://www.w3.org/2000/svg"><path d="m5.48555313 10.2278118h13.02461297c.2794728 0 .530802-.1627024.6368315-.42068783.1065721-.2516288.0494702-.54206788-.1446452-.73571217l-4.1102798-4.07072464c-.1270374-.12835843-.3008857-.20068716-.4823689-.20068716-.1814831 0-.3553314.07232873-.4823688.20068716-.1296057.12581484-.2026372.29799013-.2026372.47772677 0 .17973663.0730315.35191192.2026372.47772676l2.9426462 2.9143277h-11.37526493c-.37633932 0-.68535681.30595255-.68535681.67867017-.00289751.1793112.06707608.35227461.19425304.47993474.12717695.12766.30086332.1992822.48194073.1987385zm13.02461297 4.2133266h-13.02461297c-.27947285 0-.53080207.1626993-.63683158.4206847-.03463282.0815619-.05115063.1695459-.04843324.2579854 0 .1717743.06741383.3532715.20289598.4777268l3.42501505 3.4017775c.12703738.1283585.30088569.2006872.48236883.2006872s.35533146-.0723287.48236883-.2006872c.12960569-.1258148.20263724-.2979901.20263724-.4777267 0-.1797367-.07303155-.351912-.20263724-.4777268l-2.2573814-2.2356575h11.3746105c.3763393 0 .6852648-.3059526.6852648-.6786702-.0006545-.3727176-.3089255-.6883932-.6852648-.6883932z" fill="#fff"/></svg>