<?xml version="1.0" encoding="UTF-8"?>
<svg width="32px" height="32px" viewBox="0 0 32 32" version="1.1" xmlns="http://www.w3.org/2000/svg" xmlns:xlink="http://www.w3.org/1999/xlink">
    <!-- Generator: Sketch 55.2 (78181) - https://sketchapp.com -->
    <title>icon_live_screen_transverse</title>
    <desc>Created with Sketch.</desc>
    <g id="icon_live_screen_transverse" stroke="none" stroke-width="1" fill="none" fill-rule="evenodd">
        <g id="ico/视频直播/全屏" fill="#FFFFFF" fill-rule="nonzero">
            <path d="M23.4665386,9.21996548 C20.8662121,10.1364716 18.845608,12.2698267 18.0794692,14.9276553 C18.0408171,15.0561126 17.9060127,15.1295667 17.7771161,15.0924056 C17.6482195,15.0552445 17.5732083,14.9213004 17.6088733,14.7919818 C18.4125305,12.0038675 20.52071,9.76265935 23.2386856,8.78120629 L22.2758447,8.47861038 C22.146813,8.43803435 22.0751055,8.30054008 22.1156815,8.17150834 C22.1562575,8.04247659 22.2937518,7.97076905 22.4227835,8.01134508 L24.1370692,8.55012059 C24.2111625,8.57342805 24.2698062,8.63050206 24.2951149,8.70393583 C24.3204235,8.77736959 24.3093961,8.85845549 24.2653958,8.92246345 L23.1878447,10.4898104 C23.110413,10.5989938 22.9596646,10.6257814 22.8493577,10.5499588 C22.7390507,10.4741362 22.7100557,10.3237967 22.7842529,10.21239 L23.4665386,9.21996548 L23.4665386,9.21996548 Z" id="路径" transform="translate(20.954241, 11.551025) scale(-1, -1) rotate(-90.000000) translate(-20.954241, -11.551025) "></path>
            <path d="M25.3585306,24.4244898 C25.3826065,24.2555269 25.5272896,24.1299986 25.6979592,24.1299986 C25.8686287,24.1299986 26.0133119,24.2555269 26.0373878,24.4244898 L26.0408163,24.4244898 L26.0408163,24.8163265 C26.0408163,25.2491102 25.6939429,25.6 25.2659592,25.6 L9.57485714,25.6 C9.14687346,25.6 8.8,25.2491102 8.8,24.8163265 L8.8,16.5877551 C8.8,16.1549714 9.14687346,15.8040719 9.57485714,15.8040719 L17.0285714,15.8040719 L17.0285714,15.8075102 C17.1613551,15.7885896 17.292979,15.8488338 17.365445,15.9616974 C17.437911,16.0745609 17.437911,16.2193166 17.365445,16.3321802 C17.292979,16.4450437 17.1613551,16.505288 17.0285714,16.4863674 L17.0285714,16.4897959 L9.76911021,16.4897959 C9.61257143,16.4897959 9.48571429,16.6154775 9.48571429,16.7706449 L9.48571429,24.6334367 C9.48571429,24.7886041 9.61257143,24.9142857 9.76911021,24.9142857 L25.0717061,24.9142857 C25.2282449,24.9142857 25.355102,24.7886041 25.355102,24.6334367 L25.355102,24.4244898 L25.3585306,24.4244898 L25.3585306,24.4244898 Z" id="路径" transform="translate(17.420408, 20.702036) scale(-1, 1) translate(-17.420408, -20.702036) "></path>
            <path d="M22.9333333,20 L25.0666667,20 C25.3612185,20 25.6,20.1790861 25.6,20.4 C25.6,20.6209139 25.3612185,20.8 25.0666667,20.8 L22.9333333,20.8 C22.6387815,20.8 22.4,20.6209139 22.4,20.4 C22.4,20.1790861 22.6387815,20 22.9333333,20 L22.9333333,20 Z" id="路径" transform="translate(24.000000, 20.400000) rotate(90.000000) translate(-24.000000, -20.400000) "></path>
            <path d="M7.18367348,6.4 L15.4122449,6.4 C15.8450286,6.4 16.1959184,6.74285714 16.1959184,7.16584489 L16.1959184,22.4831347 C16.1959184,22.9061225 15.8450286,23.2489796 15.4122449,23.2489796 L7.18367348,23.2489796 C6.75088981,23.2489796 6.4,22.9061225 6.4,22.4831347 L6.4,7.16584489 C6.4,6.74285714 6.75088981,6.4 7.18367348,6.4 Z M10.3292517,21.0938775 C10.0346998,21.0938775 9.79591837,21.2729636 9.79591837,21.4938775 C9.79591837,21.7147914 10.0346998,21.8938775 10.3292517,21.8938775 L12.462585,21.8938775 C12.7571369,21.8938775 12.9959184,21.7147914 12.9959184,21.4938775 C12.9959184,21.2729636 12.7571369,21.0938775 12.462585,21.0938775 L10.3292517,21.0938775 Z" id="形状结合" transform="translate(11.297959, 14.824490) scale(1, -1) translate(-11.297959, -14.824490) "></path>
        </g>
    </g>
</svg>