<?xml version="1.0" encoding="UTF-8"?>
<svg width="32px" height="32px" viewBox="0 0 32 32" version="1.1" xmlns="http://www.w3.org/2000/svg" xmlns:xlink="http://www.w3.org/1999/xlink">
    <!-- Generator: Sketch 55.2 (78181) - https://sketchapp.com -->
    <title>icon_live_data_normal</title>
    <desc>Created with Sketch.</desc>
    <g id="icon_live_data_normal" stroke="none" stroke-width="1" fill="none" fill-rule="evenodd">
        <g id="ico/视频直播/数据" fill="#FFFFFF" fill-rule="nonzero">
            <path d="M18.4,24.7656598 C18.4,25.2337043 17.9764706,25.6 17.4352941,25.6 L13.7647059,25.6 C13.2235294,25.6 12.8,25.2337043 12.8,24.7656598 L12.8,13.6343402 C12.8,13.1662957 13.2235294,12.8 13.7647059,12.8 L17.4352941,12.8 C17.9764706,12.8 18.4,13.1662957 18.4,13.6343402 L18.4,24.7656598 Z" id="路径"></path>
            <path d="M9.4352941,25.6 L5.76470587,25.6 C5.22352941,25.6 4.8,25.2267819 4.8,24.749892 L4.8,16.850108 C4.8,16.3732181 5.22352941,16 5.76470587,16 L9.4352941,16 C9.97647055,16 10.4,16.3732181 10.4,16.850108 L10.4,24.749892 C10.4,25.2267819 9.97647059,25.6 9.4352941,25.6 Z" id="路径"></path>
            <path d="M26.4,24.6878331 C26.4,25.1995365 25.9764706,25.6 25.4352941,25.6 L21.7647059,25.6 C21.2235294,25.6 20.8,25.1995365 20.8,24.6878331 L20.8,7.31216688 C20.8,6.80046353 21.2235294,6.4 21.7647059,6.4 L25.4352941,6.4 C25.9764706,6.4 26.4,6.8004635 26.4,7.31216688 L26.4,24.6878331 Z" id="路径"></path>
        </g>
    </g>
</svg>