<?xml version="1.0" encoding="UTF-8"?>
<svg width="32px" height="32px" viewBox="0 0 32 32" version="1.1" xmlns="http://www.w3.org/2000/svg" xmlns:xlink="http://www.w3.org/1999/xlink">
    <!-- Generator: Sketch 55.2 (78181) - https://sketchapp.com -->
    <title>icon_live_outs_normal</title>
    <desc>Created with Sketch.</desc>
    <g id="icon_live_outs_normal" stroke="none" stroke-width="1" fill="none" fill-rule="evenodd">
        <g id="ico/视频直播/赛况" fill="#FFFFFF" fill-rule="nonzero">
            <g id="icon/比赛状态/动画" transform="translate(4.800000, 8.000000)">
                <path d="M19.1501702,3.63299047e-06 C19.9128198,0.00115742255 20.6432801,0.301336543 21.1786241,0.833590566 C21.713968,1.36584459 22.0096644,2.08589929 21.9997589,2.83314855 L21.9997589,13.1668497 C22.0009914,13.918615 21.69677,14.6399375 21.1542805,15.1715165 C20.6117911,15.7030956 19.8756639,16.0011986 19.1084689,16.0000036 L2.89129744,16.0000036 C2.1241025,16.0011986 1.38797528,15.7030956 0.845485833,15.1715165 C0.302996386,14.6399375 -0.00122500763,13.918615 3.70755517e-06,13.1668497 L3.70755517e-06,2.83314855 C-0.00122500763,2.0813832 0.302996386,1.36006075 0.845485833,0.82848168 C1.38797528,0.296902615 2.1241025,-0.00120037065 2.89129744,3.63299047e-06 L19.1501702,3.63299047e-06 Z M21.1054978,12.7128206 L21.1194377,12.7082803 L21.1194377,3.29171789 C21.123094,2.65272706 20.8672686,2.03853452 20.4083309,1.58456823 C19.9493932,1.13060195 19.3250337,0.87414411 18.672922,0.871743049 L3.38244605,0.871743049 C2.02317751,0.87922363 0.924593503,1.95976783 0.92206946,3.29171789 L0.92206946,12.7128206 C0.934637141,14.0316635 2.02263422,15.0977791 3.36854562,15.110094 L18.6590216,15.110094 C20.004933,15.0977791 21.0929301,14.0316635 21.1054978,12.7128206 Z M4.17941936,10.0476701 C4.17959631,10.4476942 3.85535707,10.7754668 3.44731474,10.7877375 L1.71439413,10.7877375 L1.71439413,5.23042192 L3.44731474,5.23042192 C3.85494275,5.23540718 4.18198383,5.56195566 4.17941936,5.96140869 L4.17941936,10.0476701 Z M18.6590216,5.23042192 L20.3039061,5.23042192 L20.3039061,10.7604957 L18.6590216,10.7604957 C18.2550034,10.7555542 17.929426,10.4345056 17.9269321,10.0385895 L17.9269321,5.9523281 C17.929426,5.55641206 18.2550034,5.23536342 18.6590216,5.23042192 Z M8.96115304,7.99999911 C8.96191127,7.07023272 9.62002405,6.26507925 10.5458024,6.06129507 L10.5458024,9.93870316 C9.62002405,9.73491898 8.96191127,8.92976551 8.96115304,7.99999911 Z M13.0339798,7.99999911 C13.0226898,8.93220986 12.3591351,9.73463605 11.4307966,9.93870316 L11.4307966,6.06129507 C12.3639397,6.25773426 13.0313011,7.0647639 13.0339798,7.99999911 Z M18.6590216,1.67991476 C19.0947392,1.67380756 19.5146323,1.83978195 19.8240674,2.14043145 C20.1335026,2.44108095 20.3064408,2.85110593 20.3039336,3.278097 L20.3039336,4.45857253 L18.6590216,4.45857253 C18.2522641,4.45857253 17.8621663,4.6169066 17.5745453,4.89874305 C17.2869243,5.18057951 17.1253405,5.56283176 17.1253405,5.96140869 L17.1253405,10.0476701 C17.1253405,10.8776636 17.8119929,11.5505063 18.6590216,11.5505063 L20.2761053,11.5505063 L20.2761053,12.7309818 C20.2735761,13.6058204 19.5518049,14.3151021 18.6590216,14.3200835 L11.3890953,14.3200835 L11.3890953,10.7695763 C12.7630556,10.5499097 13.7720386,9.38683088 13.7720386,8.02270056 C13.7720386,6.65857025 12.7630556,5.4954914 11.3890953,5.27582482 L11.3890953,1.67991476 L18.6590216,1.67991476 Z M8.22906359,8.02270057 C8.20990482,9.36639033 9.19355904,10.5230358 10.5458024,10.7468749 L10.5458024,14.3564058 L3.35927867,14.3564058 C2.44496515,14.3489119 1.70925408,13.6178435 1.71436736,12.7219012 L1.71436736,11.5641271 L3.45194822,11.5641271 C4.29792076,11.561634 4.98308499,10.8902496 4.98562929,10.061291 L4.98562929,5.97502956 C4.98562929,5.14252854 4.2969024,4.46765312 3.44731474,4.46765312 L1.71436736,4.46765312 L1.71436736,3.31441933 C1.7194576,2.42630834 2.45293967,1.70757785 3.35927867,1.70261622 L10.6106711,1.70261622 L10.6106711,5.27582482 C9.24224779,5.5047108 8.23847283,6.66243521 8.22906359,8.02270057 Z" id="形状结合"></path>
            </g>
        </g>
    </g>
</svg>