<svg height="22" viewBox="0 0 22 22" width="22" xmlns="http://www.w3.org/2000/svg"><path d="m13.7085415 1.85674923c.3473643.03892655.644779.25480766.77582.56313585.213777.49552138-.0377085 1.00535631-.5441207 1.7183073-.1271766.17926014-.2569339.34979583-.3624604.48475214l.632155 4.21731636c.4770196.20815988.9267974.53028286 1.3423077.96268831.424113.44140251.8161093 1.00167571 1.1650921 1.66527901.359428.6889027.6463375 1.4099045.856542 2.1524849.0655942.2490501.0061154.5129418-.1610568.7145671s-.4231697.3182274-.6931911.3157357l-4.8248234-.0475755-.0546272 5.077765c-.0049887.4578214-.3993883.8251139-.8809163.8203708-.4815279-.0047431-.8678393-.3797257-.8628506-.837547l.0546271-5.0736755-4.88977377-.0567089c-.26845707-.0031158-.52043497-.1236467-.68307195-.3267401-.16263697-.2030933-.21779546-.4660999-.14952588-.7129687.21917114-.7380546.51518156-1.4534979.88364051-2.1357176.3575855-.65706.75703746-1.2096993 1.18731576-1.64278633.41694411-.41959142.86586159-.7305362 1.34044379-.92929003l.60362267-4.18200961c-.10681684-.13618318-.23843812-.30849103-.36776536-.48979597-.51042677-.71595001-.76406299-1.22755709-.54971242-1.72416903.13225847-.30874262.43163112-.52390514.78012136-.5606821.47716301-.05561836 2.15440249-.01308667 2.65622649.00054528.0430447.00140073.0859288.00572857.1283236.01295035.5436906-.01226876 2.1518216-.04280432 2.6176578.01376827zm-1.7281388 2.02502617c.1065301-.12854929.2143506-.26486879.3160058-.3977803-.3852575.00259007-.8110911.00886076-1.2007933.01785785-.0607974.00143724-.1215862-.0031773-.1813736-.01376827h-.0031543c-.3950745-.01109641-.7902385-.01909409-1.18545183-.02399223.10151184.13359311.20933233.26882205.31471543.39628079.1477585.17706533.2130656.40381641.1808.62775129l-.71932896 4.98179612c-.03418499.41877609-.38410777.75147145-.82456865.78397345-.47200138.1518599-1.13182835.6088029-1.81645977 1.8663503-.14567236.2677315-.26955121.5308281-.37192332.7693872l4.4713959.0520741c.0325752-.0032404.0653196-.0046969.0980707-.0043623l4.4594955.0429407c-.1023721-.2475562-.226251-.5204679-.372927-.7962422-.7379681-1.3922311-1.458014-1.8164573-1.9318793-1.9275577-.0141944-.003408-.0283889-.0070886-.0424399-.0111782l-.0008603-.000818c-.0124739-.0036806-.0248045-.0074975-.037135-.0115871l-.0063086-.0021811c-.0097498-.0032717-.0193561-.0069523-.0289625-.0106329-.0045881-.0016359-.0074556-.0024538-.0136209-.0050439-.0061653-.00259-.0107534-.0047711-.0183524-.0079065-.0075991-.0031353-.0153415-.006407-.0226538-.009815-.0021507-.0009542-.0047315-.0014995-.006452-.0031353-.1990378-.0932295-.3531061-.25521924-.4307085-.45285343-.0007168-.00204479-.0010036-.00449854-.0024374-.00586173-.0027242-.00749758-.005305-.01513147-.0081726-.02276536l-.0061652-.01785785-.004158-.01376827c-.0028676-.00926973-.0055917-.01867578-.0080292-.02808182l-.0015771-.00640702c-.0035845-.01158716-.0064521-.02358327-.0088895-.03571571l-.0010036-.00095423c-.0027242-.01349563-.0051617-.0272639-.0073123-.04103217l-.757611-5.05527233c-.0336431-.2252029.0315209-.45365585.1802265-.63184088z" fill="#fff"/></svg>