<?xml version="1.0" encoding="UTF-8"?>
<svg width="32px" height="32px" viewBox="0 0 32 32" version="1.1" xmlns="http://www.w3.org/2000/svg" xmlns:xlink="http://www.w3.org/1999/xlink">
    <!-- Generator: Sketch 55.2 (78181) - https://sketchapp.com -->
    <title>icon_live_morematch_normal</title>
    <desc>Created with Sketch.</desc>
    <g id="icon_live_morematch_normal" stroke="none" stroke-width="1" fill="none" fill-rule="evenodd">
        <g id="ico/视频直播/更多" fill="#FFFFFF" fill-rule="nonzero">
            <path d="M8,6.4 L12.8,6.4 C13.6836556,6.4 14.4,7.1163444 14.4,8 L14.4,12.8 C14.4,13.6836556 13.6836556,14.4 12.8,14.4 L8,14.4 C7.1163444,14.4 6.4,13.6836556 6.4,12.8 L6.4,8 C6.4,7.1163444 7.1163444,6.4 8,6.4 Z" id="路径"></path>
            <path d="M8,17.6 L12.8,17.6 C13.6836556,17.6 14.4,18.3163444 14.4,19.2 L14.4,24 C14.4,24.8836556 13.6836556,25.6 12.8,25.6 L8,25.6 C7.1163444,25.6 6.4,24.8836556 6.4,24 L6.4,19.2 C6.4,18.3163444 7.1163444,17.6 8,17.6 Z" id="路径"></path>
            <path d="M19.2,6.4 L24,6.4 C24.8836556,6.4 25.6,7.1163444 25.6,8 L25.6,12.8 C25.6,13.6836556 24.8836556,14.4 24,14.4 L19.2,14.4 C18.3163444,14.4 17.6,13.6836556 17.6,12.8 L17.6,8 C17.6,7.1163444 18.3163444,6.4 19.2,6.4 Z" id="路径"></path>
            <path d="M19.2,17.6 L24,17.6 C24.8836556,17.6 25.6,18.3163444 25.6,19.2 L25.6,24 C25.6,24.8836556 24.8836556,25.6 24,25.6 L19.2,25.6 C18.3163444,25.6 17.6,24.8836556 17.6,24 L17.6,19.2 C17.6,18.3163444 18.3163444,17.6 19.2,17.6 Z" id="路径"></path>
        </g>
    </g>
</svg>