<?xml version="1.0" encoding="UTF-8"?>
<svg width="24px" height="24px" viewBox="0 0 24 24" version="1.1" xmlns="http://www.w3.org/2000/svg" xmlns:xlink="http://www.w3.org/1999/xlink">
    <title>icon_detail_video_exit</title>
    <g id="icon_detail_video_exit" stroke="none" stroke-width="1" fill="none" fill-rule="evenodd">
        <g id="编组" fill="#FFFFFF" fill-rule="nonzero">
            <g id="ico/视频直播/播放备份-2">
                <path d="M11.4,12 L11.468,12.004 L11.5279345,12.013669 L11.5279345,12.013669 C11.5426275,12.0169013 11.5577222,12.0207845 11.5726766,12.0252632 C11.5913924,12.0308417 11.6095263,12.0372718 11.6272362,12.0445242 C11.6402059,12.0498198 11.653238,12.0556897 11.6660897,12.0620483 C11.6831089,12.070518 11.6996378,12.0797179 11.7156641,12.0896516 L11.7516702,12.1137544 L11.7516702,12.1137544 C11.768077,12.1257293 11.7832922,12.1379573 11.7978735,12.1508844 C11.8064938,12.1584994 11.8154812,12.1669531 11.8242641,12.1757359 L11.8316986,12.1833022 C11.8858363,12.2393765 11.9291494,12.30597 11.9582723,12.3797171 C11.977309,12.4281996 11.9897304,12.4780467 11.9957516,12.5285121 L11.9959634,12.5300273 L12,12.6 L12,18.6 C12,18.9313708 11.7313708,19.2 11.4,19.2 C11.0922985,19.2 10.8386957,18.9683759 10.8040366,18.6699727 L10.8,18.6 L10.8,14.048 L6.42426407,18.4242641 C6.18994949,18.6585786 5.81005051,18.6585786 5.57573593,18.4242641 C5.35944555,18.2079737 5.34280783,17.8676351 5.52582277,17.6322603 L5.57573593,17.5757359 L9.95,13.2 L5.4,13.2 C5.0922985,13.2 4.8386957,12.9683759 4.80403664,12.6699727 L4.8,12.6 C4.8,12.2922985 5.03162411,12.0386957 5.33002732,12.0040366 L5.4,12 L11.4,12 Z M12.53,11.996 L12.4720655,11.986331 L12.4720655,11.986331 C12.4573725,11.9830987 12.4422778,11.9792155 12.4273234,11.9747368 C12.4086076,11.9691583 12.3904737,11.9627282 12.3727638,11.9554758 C12.3597941,11.9501802 12.346762,11.9443103 12.3339103,11.9379517 C12.3168911,11.929482 12.3003622,11.9202821 12.2843359,11.9103484 L12.2483298,11.8862456 L12.2483298,11.8862456 C12.231923,11.8742707 12.2167078,11.8620427 12.2021265,11.8491156 C12.1935062,11.8415006 12.1845188,11.8330469 12.1757359,11.8242641 L12.1683014,11.8166978 C12.1141637,11.7606235 12.0708506,11.69403 12.0417277,11.6202829 C12.022691,11.5718004 12.0102696,11.5219533 12.0042484,11.4714879 L12.0040366,11.4699727 L12,11.4 L12,5.4 C12,5.06862915 12.2686292,4.8 12.6,4.8 C12.9077015,4.8 13.1613043,5.03162411 13.1959634,5.33002732 L13.2,5.4 L13.2,9.952 L17.5757359,5.57573593 C17.8100505,5.34142136 18.1899495,5.34142136 18.4242641,5.57573593 C18.6405544,5.79202631 18.6571922,6.13236494 18.4741772,6.36773967 L18.4242641,6.42426407 L14.05,10.8 L18.6,10.8 C18.9077015,10.8 19.1613043,11.0316241 19.1959634,11.3300273 L19.2,11.4 C19.2,11.7077015 18.9683759,11.9613043 18.6699727,11.9959634 L18.6,12 L12.6,12 L12.542,11.996 L12.559,11.998 L12.6,12 L12.5746623,11.9994681 L12.559,11.998 L12.532,11.996 L12.53,11.996 Z" id="形状结合"></path>
            </g>
        </g>
    </g>
</svg>