<?xml version="1.0" encoding="UTF-8"?>
<svg width="48px" height="48px" viewBox="0 0 48 48" version="1.1" xmlns="http://www.w3.org/2000/svg" xmlns:xlink="http://www.w3.org/1999/xlink">
    <!-- Generator: Sketch 55.2 (78181) - https://sketchapp.com -->
    <title>icon_live_connect_error</title>
    <desc>Created with Sketch.</desc>
    <g id="icon_live_connect_error" stroke="none" stroke-width="1" fill="none" fill-rule="evenodd">
        <path d="M43.5019614,8 C45.977626,8 47.9930263,10.0427031 48,12.5362096 L48,34.4565265 C48,36.950033 45.977626,38.9927361 43.5089351,38.9927361 L17.6225483,38.9927361 C18.522156,38.0770416 19.2683423,36.9993396 19.8332123,35.8230244 L37.8114194,35.8230244 C38.6831324,35.8230244 39.3944501,35.1045565 39.3944501,34.224081 L39.3944501,12.7686551 C39.3944501,11.8881796 38.6831324,11.1697116 37.8114194,11.1697116 L7.42002034,11.1697116 C6.54830742,11.1697116 5.83698968,11.8881796 5.83698968,12.7686551 L5.83698968,19.657495 C4.85369752,19.98151 3.93316868,20.4323134 3.08237687,20.9958177 L3.08237687,12.5362096 C3.08237687,10.0427031 5.10475084,8 7.57344181,8 L43.5019614,8 Z M43.8366991,25.8560423 C45.1230901,25.8560423 46.165916,24.8027337 46.165916,23.5034118 C46.165916,22.2040899 45.1230901,21.1507814 43.8366991,21.1507814 C42.5503081,21.1507814 41.5074822,22.2040899 41.5074822,23.5034118 C41.5074822,24.8027337 42.5503081,25.8560423 43.8366991,25.8560423 Z M9.58884207,20.62954 C14.8818829,20.62954 19.1776841,24.968523 19.1776841,30.31477 C19.1776841,35.6610169 14.8818829,40 9.58884207,40 C4.29580125,40 0,35.6610169 0,30.31477 C0,24.968523 4.29580125,20.62954 9.58884207,20.62954 Z M13.6056952,31.9418886 L11.9110853,30.2443319 L13.5917478,28.5467753 C14.2403022,27.8917015 14.2403022,26.8421748 13.5917478,26.187101 C13.2827553,25.8726598 12.862277,25.6958103 12.4236525,25.6958103 C11.985028,25.6958103 11.5645497,25.8726598 11.2555572,26.187101 L9.57489467,27.8846577 L7.89423217,26.187101 C7.58523966,25.8726598 7.16476137,25.6958103 6.72613686,25.6958103 C6.28751234,25.6958103 5.86703406,25.8726598 5.55804155,26.187101 C5.24672966,26.4991996 5.07164016,26.9239045 5.07164016,27.3669381 C5.07164016,27.8099718 5.24672966,28.2346767 5.55804155,28.5467753 L7.23870405,30.2443319 L5.55804155,31.9418886 C5.24672966,32.2539872 5.07164016,32.6786921 5.07164016,33.1217257 C5.07164016,33.5647593 5.24672966,33.9894643 5.55804155,34.3015628 C5.88580561,34.6255778 6.30422781,34.7875853 6.72962371,34.7875853 C7.15501961,34.7875853 7.58041552,34.6255778 7.90120587,34.3015628 L9.58186837,32.6040062 L11.2625309,34.3015628 C11.5902949,34.6255778 12.0087171,34.7875853 12.434113,34.7875853 C12.8595089,34.7875853 13.2849048,34.6255778 13.6056952,34.3015628 C14.2542496,33.6464891 14.2542496,32.5969624 13.6056952,31.9418886 Z" id="形状结合" fill="#FFFFFF" fill-rule="nonzero"></path>
    </g>
</svg>