<?xml version="1.0" encoding="UTF-8"?>
<svg width="32px" height="32px" viewBox="0 0 32 32" version="1.1" xmlns="http://www.w3.org/2000/svg" xmlns:xlink="http://www.w3.org/1999/xlink">
    <!-- Generator: Sketch 55.2 (78181) - https://sketchapp.com -->
    <title>icon_live_screen_vertical</title>
    <desc>Created with Sketch.</desc>
    <g id="icon_live_screen_vertical" stroke="none" stroke-width="1" fill="none" fill-rule="evenodd">
        <g id="ico/视频直播/退出全屏" fill="#FFFFFF" fill-rule="nonzero">
            <path d="M23.4665386,9.21996548 C20.8662121,10.1364716 18.845608,12.2698267 18.0794692,14.9276553 C18.0408171,15.0561126 17.9060127,15.1295667 17.7771161,15.0924056 C17.6482195,15.0552445 17.5732083,14.9213004 17.6088733,14.7919818 C18.4125305,12.0038675 20.52071,9.76265935 23.2386856,8.78120629 L22.2758447,8.47861038 C22.146813,8.43803435 22.0751055,8.30054008 22.1156815,8.17150834 C22.1562575,8.04247659 22.2937518,7.97076905 22.4227835,8.01134508 L24.1370692,8.55012059 C24.2111625,8.57342805 24.2698062,8.63050206 24.2951149,8.70393583 C24.3204235,8.77736959 24.3093961,8.85845549 24.2653958,8.92246345 L23.1878447,10.4898104 C23.110413,10.5989938 22.9596646,10.6257814 22.8493577,10.5499588 C22.7390507,10.4741362 22.7100557,10.3237967 22.7842529,10.21239 L23.4665386,9.21996548 L23.4665386,9.21996548 Z" id="路径" transform="translate(20.954241, 11.551025) scale(1, -1) rotate(-180.000000) translate(-20.954241, -11.551025) "></path>
            <path d="M3.35984158,19.542862 L3.36327015,19.542862 L3.36327015,19.7518089 C3.36327015,19.9069763 3.49012729,20.0326579 3.64666607,20.0326579 L18.949262,20.0326579 C19.1058008,20.0326579 19.2326579,19.9069763 19.2326579,19.7518089 L19.2326579,11.8890171 C19.2326579,11.7338497 19.1058008,11.6081681 18.949262,11.6081681 L11.6898008,11.6081681 L11.6898008,11.6047395 C11.5570171,11.6236602 11.4253932,11.5634159 11.3529272,11.4505524 C11.2804612,11.3376888 11.2804612,11.1929331 11.3529272,11.0800696 C11.4253932,10.967206 11.5570171,10.9069618 11.6898008,10.9258824 L11.6898008,10.9224441 L19.1435151,10.9224441 C19.5714987,10.9224441 19.9183722,11.2733436 19.9183722,11.7061273 L19.9183722,19.9346987 C19.9183722,20.3674824 19.5714987,20.7183722 19.1435151,20.7183722 L3.45241301,20.7183722 C3.02442934,20.7183722 2.67755587,20.3674824 2.67755587,19.9346987 L2.67755587,19.542862 L2.68098444,19.542862 C2.70506034,19.3738991 2.84974346,19.2483708 3.02041301,19.2483708 C3.19108256,19.2483708 3.33576569,19.3738991 3.35984158,19.542862 Z M18.2775559,14.4517055 L18.2775559,16.5850389 C18.2775559,16.8795907 18.0984698,17.1183722 17.8775559,17.1183722 C17.656642,17.1183722 17.4775559,16.8795907 17.4775559,16.5850389 L17.4775559,14.4517055 C17.4775559,14.1571537 17.656642,13.9183722 17.8775559,13.9183722 C18.0984698,13.9183722 18.2775559,14.1571537 18.2775559,14.4517055 Z" id="形状结合" transform="translate(11.297964, 15.820408) scale(-1, 1) rotate(-90.000000) translate(-11.297964, -15.820408) "></path>
            <path d="M13.8612294,13.5183722 L22.0898008,13.5183722 C22.5225845,13.5183722 22.8734742,13.8612293 22.8734742,14.2842171 L22.8734742,29.6015069 C22.8734742,30.0244947 22.5225845,30.3673518 22.0898008,30.3673518 L13.8612294,30.3673518 C13.4284457,30.3673518 13.0775559,30.0244947 13.0775559,29.6015069 L13.0775559,14.2842171 C13.0775559,13.8612293 13.4284457,13.5183722 13.8612294,13.5183722 Z M17.0068076,28.2122497 C16.7122557,28.2122497 16.4734742,28.3913358 16.4734742,28.6122497 C16.4734742,28.8331636 16.7122557,29.0122497 17.0068076,29.0122497 L19.1401409,29.0122497 C19.4346928,29.0122497 19.6734742,28.8331636 19.6734742,28.6122497 C19.6734742,28.3913358 19.4346928,28.2122497 19.1401409,28.2122497 L17.0068076,28.2122497 Z" id="形状结合" transform="translate(17.975515, 21.942862) scale(1, -1) rotate(-90.000000) translate(-17.975515, -21.942862) "></path>
        </g>
    </g>
</svg>