<?xml version="1.0" encoding="UTF-8"?>
<svg width="16px" height="16px" viewBox="0 0 16 16" version="1.1" xmlns="http://www.w3.org/2000/svg" xmlns:xlink="http://www.w3.org/1999/xlink">
    <!-- Generator: Sketch 55.2 (78181) - https://sketchapp.com -->
    <title>icon_live_animation_selected</title>
    <desc>Created with Sketch.</desc>
    <g id="icon_live_animation_selected" stroke="none" stroke-width="1" fill="none" fill-rule="evenodd">
        <g id="ico/16/动画直播" fill="#5078FF">
            <path d="M13.9273965,2.00000272 C14.4820508,2.00086807 15.0132946,2.22600241 15.4026357,2.62519292 C15.7919767,3.02438344 16.0070286,3.56442447 15.9998247,4.12486141 L15.9998247,11.8751373 C16.000721,12.4389613 15.7794691,12.9799531 15.3849313,13.3786374 C14.9903935,13.7773217 14.4550283,14.0008989 13.8970683,14.0000027 L2.10276177,14.0000027 C1.54480182,14.0008989 1.00943657,13.7773217 0.614898787,13.3786374 C0.220361008,12.9799531 -0.000890914641,12.4389613 2.69640407e-06,11.8751373 L2.69640407e-06,4.12486141 C-0.000890914641,3.5610374 0.220361008,3.02004556 0.614898787,2.62136126 C1.00943657,2.22267696 1.54480182,1.99909972 2.10276177,2.00000272 L13.9273965,2.00000272 Z M15.3494529,11.5346155 L15.359591,11.5312103 L15.359591,4.46878842 C15.3622502,3.98954529 15.1761954,3.52890089 14.8424225,3.18842618 C14.5086496,2.84795146 14.0545699,2.65560808 13.5803069,2.65380729 L2.45996077,2.65380729 C1.47140183,2.65941772 0.672431639,3.46982587 0.670595971,4.46878842 L0.670595971,11.5346155 C0.679736102,12.5237476 1.47100671,13.3233343 2.44985136,13.3325705 L13.5701975,13.3325705 C14.5490422,13.3233343 15.3403128,12.5237476 15.3494529,11.5346155 Z M3.03957772,9.53575259 C3.03970641,9.83577067 2.80389605,10.0816001 2.50713799,10.0908031 L1.2468321,10.0908031 L1.2468321,5.92281644 L2.50713799,5.92281644 C2.80359472,5.92655538 3.04144278,6.17146675 3.03957772,6.47105652 L3.03957772,9.53575259 Z M13.5701975,5.92281644 L14.7664772,5.92281644 L14.7664772,10.0703718 L13.5701975,10.0703718 C13.2763661,10.0666657 13.0395825,9.82587919 13.0377688,9.52894215 L13.0377688,6.46424608 C13.0395825,6.16730904 13.2763661,5.92652257 13.5701975,5.92281644 Z M6.51720221,7.99999934 C6.51775365,7.30267454 6.99638113,6.69880944 7.66967446,6.5459713 L7.66967446,9.45402737 C6.99638113,9.30118923 6.51775365,8.69732413 6.51720221,7.99999934 Z M9.47925806,7.99999934 C9.47104711,8.69915739 8.98846186,9.30097704 8.31330662,9.45402737 L8.31330662,6.5459713 C8.99195612,6.6933007 9.47730992,7.29857292 9.47925806,7.99999934 Z M13.5701975,3.25993607 C13.8870831,3.25535567 14.1924599,3.37983646 14.4175036,3.60532359 C14.6425473,3.83081071 14.7683206,4.13832944 14.7664972,4.45857275 L14.7664972,5.3439294 L13.5701975,5.3439294 C13.2743739,5.3439294 12.9906664,5.46267995 12.7814875,5.67405729 C12.5723086,5.88543463 12.4547931,6.17212382 12.4547931,6.47105652 L12.4547931,9.53575259 C12.4547931,10.1582477 12.9541767,10.6628797 13.5701975,10.6628797 L14.7462584,10.6628797 L14.7462584,11.5482363 C14.744419,12.2043653 14.2194945,12.7363266 13.5701975,12.7400626 L8.28297839,12.7400626 L8.28297839,10.0771822 C9.28222225,9.91243229 10.0160281,9.04012316 10.0160281,8.01702542 C10.0160281,6.99392769 9.28222225,6.12161855 8.28297839,5.95686861 L8.28297839,3.25993607 L13.5701975,3.25993607 Z M5.98477352,8.01702543 C5.97083987,9.02479275 6.68622476,9.89227688 7.66967446,10.0601561 L7.66967446,12.7673043 L2.44311176,12.7673043 C1.77815647,12.761684 1.24309387,12.2133827 1.24681263,11.5414259 L1.24681263,10.6730954 L2.5105078,10.6730954 C3.12576055,10.6712255 3.62406181,10.1676872 3.62591221,9.54596824 L3.62591221,6.48127217 C3.62591221,5.85689641 3.12501993,5.35073984 2.50713799,5.35073984 L1.24681263,5.35073984 L1.24681263,4.4858145 C1.25051462,3.81973126 1.78395612,3.28068338 2.44311176,3.27696216 L7.71685168,3.27696216 L7.71685168,5.95686861 C6.72163476,6.1285331 5.9916166,6.99682641 5.98477352,8.01702543 Z" id="形状结合"></path>
        </g>
    </g>
</svg>