<?xml version="1.0" encoding="UTF-8"?>
<svg width="16px" height="16px" viewBox="0 0 16 16" version="1.1" xmlns="http://www.w3.org/2000/svg" xmlns:xlink="http://www.w3.org/1999/xlink">
    <!-- Generator: Sketch 55.2 (78181) - https://sketchapp.com -->
    <title>icon_live_score_selected</title>
    <desc>Created with Sketch.</desc>
    <g id="icon_live_score_selected" stroke="none" stroke-width="1" fill="none" fill-rule="evenodd">
        <g id="ico/16/视频直播备份" fill="#5078FF">
            <path d="M8.31818182,1.64933638 L7.68181818,1.65026855 L7.68181818,14.3636364 L2.27272727,14.3636364 C1.57272727,14.3636364 1,13.7909091 1,13.0909091 L1,2.90909091 C1,2.20909091 1.57272727,1.63636364 2.27272727,1.63636364 L7.68181818,1.63636364 L7.68181818,1.31818182 C7.68181818,1.14245485 7.82427303,1 8,1 C8.17572697,1 8.31818182,1.14245485 8.31818182,1.31818182 L8.31818182,1.63636364 L13.7272727,1.63636364 C14.4272727,1.63636364 15,2.20909091 15,2.90909091 L15,13.0909091 C15,13.7909091 14.4272727,14.3636364 13.7272727,14.3636364 L8.31818182,14.3636364 L8.31818182,1.64933638 Z M12.4545455,5.07272727 C12.3272727,4.94545455 12.2,4.88181818 12.0090909,4.81818182 C11.8181818,4.75454545 11.6909091,4.75454545 11.5,4.75454545 C11.3090909,4.75454545 11.1181818,4.81818182 10.9909091,4.81818182 C10.8,4.81818182 10.6727273,4.94545455 10.5454545,5.07272727 C10.4181818,5.2 10.2909091,5.32727273 10.2272727,5.51818182 C10.1636364,5.70909091 10.1,5.9 10.1,6.09090909 L10.1,9.90909091 C10.1,10.1 10.1636364,10.2909091 10.2272727,10.4818182 C10.2909091,10.6727273 10.4181818,10.8 10.5454545,10.9272727 C10.6727273,11.0545455 10.8,11.1181818 10.9909091,11.1818182 C11.1818182,11.2454545 11.3090909,11.3090909 11.5,11.3090909 C11.6909091,11.3090909 11.8818182,11.3090909 12.0090909,11.1818182 C12.2,11.1181818 12.3272727,11.0545455 12.4545455,10.9272727 C12.5818182,10.8 12.7090909,10.6727273 12.7727273,10.4818182 C12.8363636,10.2909091 12.9,10.1 12.9,9.90909091 L12.9,6.09090909 C12.9,5.9 12.8363636,5.70909091 12.7727273,5.51818182 C12.7090909,5.32727273 12.5818182,5.13636364 12.4545455,5.07272727 Z M11.9454545,9.84545455 C11.9454545,9.97272727 11.8818182,10.1 11.8181818,10.1636364 C11.7545455,10.2272727 11.6272727,10.2909091 11.5,10.2909091 C11.3727273,10.2909091 11.2454545,10.2272727 11.1818182,10.1636364 C11.1181818,10.1 11.0545455,9.97272727 11.0545455,9.84545455 L11.0545455,6.09090909 C11.0545455,5.96363636 11.1181818,5.83636364 11.1818182,5.77272727 C11.2454545,5.70909091 11.3727273,5.64545455 11.5,5.64545455 C11.6272727,5.64545455 11.7545455,5.70909091 11.8181818,5.77272727 C11.8818182,5.83636364 11.9454545,5.96363636 11.9454545,6.09090909 L11.9454545,9.84545455 Z M5.77272727,5.45454545 C5.70909091,5.32727273 5.58181818,5.13636364 5.45454545,5.07272727 C5.32727273,5.00909091 5.2,4.81818182 5.00909091,4.75454545 C4.88181818,4.69090909 4.69090909,4.69090909 4.5,4.69090909 C4.30909091,4.69090909 4.18181818,4.69090909 3.99090909,4.75454545 C3.8,4.81818182 3.67272727,4.94545455 3.54545455,5.07272727 C3.41818182,5.13636364 3.35454545,5.32727273 3.22727273,5.45454545 C3.16363636,5.64545455 3.16363636,5.83636364 3.16363636,6.09090909 L3.16363636,9.90909091 C3.16363636,10.1 3.22727273,10.2909091 3.29090909,10.4818182 C3.35454545,10.6727273 3.48181818,10.8 3.60909091,10.9272727 C3.73636364,11.0545455 3.86363636,11.1181818 4.05454545,11.1818182 C4.24545455,11.2454545 4.37272727,11.3090909 4.56363636,11.3090909 C4.75454545,11.3090909 4.94545455,11.3090909 5.07272727,11.1818182 C5.26363636,11.1181818 5.39090909,11.0545455 5.51818182,10.9272727 C5.64545455,10.8 5.77272727,10.6727273 5.83636364,10.4818182 C5.9,10.2909091 5.96363636,10.1 5.96363636,9.90909091 L5.96363636,6.09090909 C5.9,5.83636364 5.83636364,5.64545455 5.77272727,5.45454545 Z M4.94545455,9.84545455 C4.94545455,9.97272727 4.88181818,10.1 4.81818182,10.1636364 C4.75454545,10.2272727 4.62727273,10.2909091 4.5,10.2909091 C4.37272727,10.2909091 4.24545455,10.2272727 4.18181818,10.1636364 C4.11818182,10.1 4.05454545,9.97272727 4.05454545,9.84545455 L4.05454545,6.09090909 C4.05454545,5.96363636 4.11818182,5.83636364 4.18181818,5.77272727 C4.24545455,5.70909091 4.37272727,5.64545455 4.5,5.64545455 C4.62727273,5.64545455 4.75454545,5.70909091 4.81818182,5.77272727 C4.94545455,5.83636364 4.94545455,5.9 4.94545455,6.09090909 L4.94545455,9.84545455 Z M8,15.0139049 C7.82427303,15.0139049 7.68181818,14.8714501 7.68181818,14.6957231 L7.68181818,14.3636364 L8.31818182,14.3645685 L8.31818182,14.6957231 C8.31818182,14.8714501 8.17572697,15.0139049 8,15.0139049 Z" id="形状结合"></path>
        </g>
    </g>
</svg>