<?xml version="1.0" encoding="UTF-8"?>
<svg width="24px" height="24px" viewBox="0 0 24 24" version="1.1" xmlns="http://www.w3.org/2000/svg" xmlns:xlink="http://www.w3.org/1999/xlink">
    <title>icon_detail_video_screen</title>
    <g id="icon_detail_video_screen" stroke="none" stroke-width="1" fill="none" fill-rule="evenodd">
        <g id="编组" fill="#FFFFFF" fill-rule="nonzero">
            <g id="ico/视频直播/播放备份-2">
                <path d="M5.33,19.196 L5.2720655,19.186331 L5.2720655,19.186331 C5.25737252,19.1830987 5.24227782,19.1792155 5.22732341,19.1747368 C5.20860756,19.1691583 5.19047374,19.1627282 5.17276379,19.1554758 C5.15979406,19.1501802 5.14676195,19.1443103 5.13391027,19.1379517 C5.11689106,19.129482 5.10036219,19.1202821 5.08433593,19.1103484 L5.04832983,19.0862456 L5.04832983,19.0862456 C5.03192302,19.0742707 5.01670776,19.0620427 5.00212652,19.0491156 C4.99350623,19.0415006 4.98451881,19.0330469 4.97573593,19.0242641 L4.9683014,19.0166978 C4.91416369,18.9606235 4.87085059,18.89403 4.84172771,18.8202829 C4.82269103,18.7718004 4.81026958,18.7219533 4.8042484,18.6714879 L4.80403664,18.6699727 L4.8,18.6 L4.8,12.6 C4.8,12.2686292 5.06862915,12 5.4,12 C5.7077015,12 5.9613043,12.2316241 5.99596336,12.5300273 L6,12.6 L6,17.152 L10.3757359,12.7757359 C10.6100505,12.5414214 10.9899495,12.5414214 11.2242641,12.7757359 C11.4405544,12.9920263 11.4571922,13.3323649 11.2741772,13.5677397 L11.2242641,13.6242641 L6.85,18 L11.4,18 C11.7077015,18 11.9613043,18.2316241 11.9959634,18.5300273 L12,18.6 C12,18.9077015 11.7683759,19.1613043 11.4699727,19.1959634 L11.4,19.2 L5.4,19.2 L5.342,19.196 L5.359,19.198 L5.4,19.2 L5.3746623,19.1994681 L5.359,19.198 L5.332,19.196 L5.33,19.196 Z M18.6,4.8 L18.668,4.804 L18.7279345,4.813669 L18.7279345,4.813669 C18.7426275,4.81690133 18.7577222,4.82078451 18.7726766,4.82526318 C18.7913924,4.8308417 18.8095263,4.83727181 18.8272362,4.84452425 C18.8402059,4.84981985 18.853238,4.85568973 18.8660897,4.86204833 C18.8831089,4.87051799 18.8996378,4.8797179 18.9156641,4.88965164 L18.9516702,4.91375443 L18.9516702,4.91375443 C18.968077,4.92572934 18.9832922,4.93795727 18.9978735,4.95088443 C19.0064938,4.95849939 19.0154812,4.96695306 19.0242641,4.97573593 L19.0316986,4.98330225 C19.0858363,5.03937651 19.1291494,5.10597001 19.1582723,5.17971709 C19.177309,5.22819965 19.1897304,5.27804671 19.1957516,5.32851206 L19.1959634,5.33002732 L19.2,5.4 L19.2,11.4 C19.2,11.7313708 18.9313708,12 18.6,12 C18.2922985,12 18.0386957,11.7683759 18.0040366,11.4699727 L18,11.4 L18,6.848 L13.6242641,11.2242641 C13.3899495,11.4585786 13.0100505,11.4585786 12.7757359,11.2242641 C12.5594456,11.0079737 12.5428078,10.6676351 12.7258228,10.4322603 L12.7757359,10.3757359 L17.15,6 L12.6,6 C12.2922985,6 12.0386957,5.76837589 12.0040366,5.46997268 L12,5.4 C12,5.0922985 12.2316241,4.8386957 12.5300273,4.80403664 L12.6,4.8 L18.6,4.8 Z" id="形状结合"></path>
            </g>
        </g>
    </g>
</svg>