<?xml version="1.0" encoding="UTF-8"?>
<svg width="24px" height="24px" viewBox="0 0 24 24" version="1.1" xmlns="http://www.w3.org/2000/svg" xmlns:xlink="http://www.w3.org/1999/xlink">
    <!-- Generator: Sketch 55.2 (78181) - https://sketchapp.com -->
    <title>icon_live_tv_stop</title>
    <desc>Created with Sketch.</desc>
    <g id="icon_live_tv_stop" stroke="none" stroke-width="1" fill="none" fill-rule="evenodd">
        <g id="ico/16/结束" fill="#FFFFFF" fill-rule="nonzero">
            <path d="M12,21 C7.05,21 3,16.95 3,12 C3,8.45625 5.1375,5.19375 8.4,3.73125 C8.68125,3.61875 9.01875,3.73125 9.13125,4.0125 C9.24375,4.29375 9.13125,4.63125 8.85,4.74375 C5.98125,6.0375 4.125,8.85 4.125,12 C4.125,16.33125 7.66875,19.875 12,19.875 C16.33125,19.875 19.875,16.33125 19.875,12 C19.875,8.85 18.01875,6.0375 15.15,4.8 C14.86875,4.6875 14.75625,4.35 14.86875,4.06875 C14.98125,3.7875 15.31875,3.675 15.6,3.7875 C18.8625,5.19375 21,8.4 21,12 C21,16.95 16.95,21 12,21 Z M12,12 C11.6625,12 11.4375,11.775 11.4375,11.4375 L11.4375,3.5625 C11.4375,3.225 11.6625,3 12,3 C12.3375,3 12.5625,3.225 12.5625,3.5625 L12.5625,11.4375 C12.5625,11.775 12.3375,12 12,12 Z" id="形状结合"></path>
        </g>
    </g>
</svg>