<?xml version="1.0" encoding="UTF-8"?>
<svg width="24px" height="24px" viewBox="0 0 24 24" version="1.1" xmlns="http://www.w3.org/2000/svg" xmlns:xlink="http://www.w3.org/1999/xlink">
    <!-- Generator: Sketch 55.2 (78181) - https://sketchapp.com -->
    <title>icon_live_tv_normal</title>
    <desc>Created with Sketch.</desc>
    <g id="icon_live_tv_normal" stroke="none" stroke-width="1" fill="none" fill-rule="evenodd">
        <g id="ico/16/投屏" fill="#FFFFFF" fill-rule="nonzero">
            <path d="M17.953629,20.1181704 L5.99281754,20.1181704 C5.62580645,20.1181704 5.32827621,20.4157006 5.32827621,20.7827369 C5.32827621,21.149748 5.62580645,21.4472782 5.99281754,21.4472782 L17.953629,21.4472782 C18.3206401,21.4472782 18.6181704,21.149748 18.6181704,20.7827369 C18.6181704,20.4157258 18.3206401,20.1181704 17.953629,20.1181704 Z" id="路径"></path>
            <path d="M21.9406502,1.51234879 L21.9407762,1.51234879 C23.0411794,1.51363407 23.9329637,2.40544355 23.9340726,3.50599798 L23.9340726,16.7957661 C23.9328629,17.896119 23.041129,18.7878276 21.9407006,18.7890625 L2.00569556,18.7890625 C0.905342742,18.7878528 0.0136340726,17.896119 0.0123991935,16.7956905 L0.0123991935,3.50592238 C0.0134576613,2.40549395 0.905241935,1.51363407 2.00577117,1.51234879 L21.9406502,1.51234879 Z M10.9764113,7.16055948 L5.66053427,7.16055948 C5.29352319,7.16055948 4.99599294,7.45808972 4.99599294,7.82510081 C4.99599294,8.1921119 5.29352319,8.48964214 5.66053427,8.48964214 L7.65390625,8.48964214 L7.65390625,13.1409526 C7.65390625,13.5079637 7.95143649,13.805494 8.31844758,13.805494 C8.68545867,13.805494 8.98301411,13.5079637 8.98301411,13.1409526 L8.98301411,8.48964214 L10.9763861,8.48964214 C11.3433972,8.48964214 11.6409526,8.1921119 11.6409526,7.82510081 C11.6409526,7.45808972 11.3434224,7.16055948 10.9763861,7.16055948 L10.9764113,7.16055948 Z M18.5830141,7.23064516 C18.4963962,7.18651714 18.394128,7.16060988 18.2857863,7.16060988 C18.0268397,7.16060988 17.8024446,7.30841734 17.6922631,7.52424395 L15.627999,11.6549647 L13.5642641,7.52797379 C13.4527218,7.30841734 13.228503,7.16060988 12.9698085,7.16060988 C12.602747,7.16060988 12.3051663,7.45816532 12.3051663,7.82525202 C12.3051663,7.93356855 12.3310988,8.0359123 12.3770917,8.12628528 L15.0335433,13.4384073 C15.1450353,13.6580141 15.3692792,13.8058972 15.627999,13.8058972 C15.8867187,13.8058972 16.1109123,13.6580141 16.2207157,13.4421875 L18.8803679,8.12250504 C18.9246472,8.0358871 18.9506048,7.93359375 18.9506048,7.82520161 C18.9506048,7.56643145 18.8026966,7.3422379 18.5868196,7.23245968 L18.5830141,7.23064516 Z" id="形状结合"></path>
        </g>
    </g>
</svg>