<?xml version="1.0" encoding="UTF-8"?>
<svg width="36px" height="36px" viewBox="0 0 36 36" version="1.1" xmlns="http://www.w3.org/2000/svg" xmlns:xlink="http://www.w3.org/1999/xlink">
    <!-- Generator: Sketch 55.2 (78181) - https://sketchapp.com -->
    <title>icon_live_lock_close</title>
    <desc>Created with Sketch.</desc>
    <g id="icon_live_lock_close" stroke="none" stroke-width="1" fill="none" fill-rule="evenodd">
        <g id="icon/视频播放/锁定" fill="#FFFFFF">
            <circle id="椭圆形" fill-rule="evenodd" opacity="0.300000012" cx="18" cy="18" r="18"></circle>
            <path d="M23.9746835,14.9746835 C25.0932658,14.9746835 26,15.8814177 26,17 L26,24.6962025 C26,25.8147848 25.0932658,26.721519 23.9746835,26.721519 L12.0253165,26.721519 C10.9067342,26.721519 10,25.8147848 10,24.6962025 L10,17 C10,15.8814177 10.9067342,14.9746835 12.0253165,14.9746835 L13.5443038,14.9746835 L13.5443038,13.4556962 C13.5443038,10.9948354 15.5391392,9 18,9 C20.4608608,9 22.4556962,10.9949367 22.4556962,13.4556962 L22.4556962,14.9746835 L23.9746835,14.9746835 Z M14.9620253,13.4556962 L14.9620253,14.9746835 L21.0379747,14.9746835 L21.0379747,13.4556962 C21.0379747,11.780557 19.6751392,10.4177215 18,10.4177215 C16.3248608,10.4177215 14.9620253,11.780557 14.9620253,13.4556962 Z M24.5822785,24.6962025 L24.5822785,17 C24.5822785,16.6650127 24.3097722,16.3924051 23.9746835,16.3924051 L12.0253165,16.3924051 C11.6902278,16.3924051 11.4177215,16.6650127 11.4177215,17 L11.4177215,24.6962025 C11.4177215,25.0311899 11.6902278,25.3037975 12.0253165,25.3037975 L23.9746835,25.3037975 C24.3097722,25.3037975 24.5822785,25.0311899 24.5822785,24.6962025 Z M18,18.6202532 C18.391493,18.6202532 18.7088608,18.9376209 18.7088608,19.3291139 L18.7088608,22.7721519 C18.7088608,23.1636449 18.391493,23.4810127 18,23.4810127 C17.608507,23.4810127 17.2911392,23.1636449 17.2911392,22.7721519 L17.2911392,19.3291139 C17.2911392,18.9376209 17.608507,18.6202532 18,18.6202532 Z" id="形状结合" fill-rule="nonzero"></path>
        </g>
    </g>
</svg>