<?xml version="1.0" encoding="UTF-8"?>
<svg width="36px" height="36px" viewBox="0 0 36 36" version="1.1" xmlns="http://www.w3.org/2000/svg" xmlns:xlink="http://www.w3.org/1999/xlink">
    <!-- Generator: Sketch 55.2 (78181) - https://sketchapp.com -->
    <title>icon_live_wifi_error</title>
    <desc>Created with Sketch.</desc>
    <g id="icon_live_wifi_error" stroke="none" stroke-width="1" fill="none" fill-rule="evenodd">
        <path d="M22.0858547,17.1917944 C23.2446295,18.0054845 24.1221356,19.1327378 24.6234924,20.4515799 C24.8304027,20.9958087 24.556865,21.6046969 24.0126362,21.8116072 C23.4683723,22.0184472 22.859484,21.7449447 22.652644,21.2007159 C22.3016908,20.277421 21.6867231,19.4878025 20.874263,18.9173234 C20.0445134,18.3346854 19.0677339,18.0267448 18.0494178,18.0267448 C15.9481611,18.0267448 14.0771483,19.3606272 13.3936205,21.3459537 C13.243217,21.7827565 12.8343514,22.0572429 12.3968809,22.0572429 C12.2830241,22.0572429 12.1673047,22.0386533 12.0536236,21.9995413 C11.5031045,21.8099907 11.2104502,21.2100634 11.4000008,20.6595444 C12.3763586,17.8236649 15.0485512,15.9182842 18.0493826,15.9182842 C19.5035879,15.9182842 20.8993536,16.3586714 22.0858547,17.1917944 Z M24.5903896,11.703577 C26.5086318,12.8215179 28.120304,14.4225071 29.2511768,16.3334752 C29.5476966,16.8345509 29.3818662,17.4811103 28.8807906,17.7776302 C28.37975,18.07415 27.7331203,17.9083196 27.4366005,17.4072439 C26.4884258,15.8049544 25.1371134,14.4625679 23.5287445,13.5252166 C21.8727947,12.560139 19.9780618,12.0500321 18.0493475,12.0500321 C16.1017624,12.0500321 14.1909349,12.569592 12.5234237,13.5525212 C10.9032475,14.5075484 9.54915893,15.8727063 8.60759073,17.5004027 C8.4122067,17.838143 8.05805564,18.0269205 7.69406504,18.0269205 C7.51491618,18.0269205 7.33337772,17.9812021 7.16716075,17.8850562 C6.66316838,17.5935264 6.49097744,16.9486186 6.78250725,16.4446263 C7.90550849,14.5032964 9.52044873,12.8751431 11.4527474,11.7361175 C13.4443993,10.5621267 15.7254725,9.9415716 18.0493475,9.9415716 C20.3506971,9.9415716 22.6125481,10.5508464 24.5903896,11.703577 Z M33.7909384,12.3692883 C34.1168713,12.8517392 33.9900122,13.5070839 33.5075261,13.8330519 C33.0251103,14.1590198 32.3697657,14.0321257 32.0438328,13.5496748 C28.8959714,8.89025804 23.6643888,6.10849571 18.0493826,6.10849571 C12.3475429,6.10849571 7.07126089,8.95730707 3.93538263,13.7290696 C3.73286501,14.0371508 3.39642497,14.204422 3.05337844,14.204422 C2.85469118,14.204422 2.65386031,14.148337 2.47537912,14.0310715 C1.98881669,13.7112883 1.85355897,13.0576304 2.17334214,12.5710679 C3.86900127,9.99087445 6.19252483,7.83978784 8.89272487,6.35040642 C11.6803909,4.81274128 14.8467013,4 18.0493475,4 C24.3657682,4 30.2504465,7.12870948 33.7909384,12.3692883 Z M21.9151748,23.4592637 C22.3268869,23.8709407 22.3268869,24.5384442 21.9151396,24.9501562 L19.5638195,27.3014763 L21.9151396,29.6527964 C22.3268517,30.0645085 22.3268517,30.7319768 21.9151396,31.1436889 C21.7093187,31.3495098 21.4394709,31.4524729 21.1696934,31.4524729 C20.8998456,31.4524729 20.6301032,31.3495449 20.4242472,31.1436889 L18.0729271,28.7923688 L15.7216421,31.1436889 C15.5157861,31.3495449 15.2459734,31.4524729 14.9761959,31.4524729 C14.7064184,31.4524729 14.4366057,31.3495449 14.2307497,31.1436889 C13.8190376,30.7319768 13.8190376,30.0645084 14.2307497,29.6527964 L16.5820697,27.3014763 L14.2307497,24.9501562 C13.8190376,24.5384441 13.8190376,23.8709758 14.2307497,23.4592637 C14.6424969,23.0475517 15.3099652,23.0475517 15.7216773,23.4592637 L18.0729622,25.8105838 L20.4242823,23.4592637 C20.8359592,23.0475165 21.5034979,23.0475165 21.9151748,23.4592637 Z" id="形状结合" fill="#FFFFFF" fill-rule="nonzero"></path>
    </g>
</svg>