<svg height="14" viewBox="0 0 14 14" width="14" xmlns="http://www.w3.org/2000/svg"><path d="m11.8227326 11.1796713c2.2120582-2.56133061 2.037422-6.46153851-.4074844-8.79002083-2.44490647-2.32848232-6.34511437-2.32848234-8.84823287 0-2.44490645 2.32848233-2.67775468 6.17047817-.40748441 8.79002083l-1.57172556 1.5717255c-.17463618.1746362-.17463618.4656965 0 .6403327s.46569646.1746362.64033264 0l1.57172556-1.5717256c2.38669439 2.037422 5.87941788 2.037422 8.32432434 0l1.5717256 1.6299376c.1746361.1746362.5239085.1746362.6985447 0 .1746361-.1746362.1746361-.5239085 0-.6985447zm-2.03742205-1.39708945c-.17463618.23284825-.46569646.23284825-.6985447.05821207l-2.56133055-2.21205821c-.11642412-.11642411-.17463618-.23284823-.17463618-.34927236v-2.79417879c0-.23284823.23284823-.46569646.46569646-.46569646s.46569646.17463618.46569647.46569646v2.44490645l2.38669439 2.03742204c.11642411.05821206.17463618.23284823.17463616.34927234.05821207.23284823.05821207.34927235-.05821205.46569646zm-9.13929314-6.63617463c.64033264-.98960498 1.51351351-1.86278586 2.5031185-2.44490645-.40748441-.52390852-1.1060291-.75675675-1.74636175-.64033262-.64033264.17463618-1.16424116.64033264-1.33887733 1.33887733-.17463618.64033264.05821207 1.33887733.58212058 1.74636174zm12.63201659 0c.5239086-.40748441.7567568-1.1060291.6403327-1.74636174-.1746362-.64033264-.6403327-1.16424117-1.3388774-1.33887733-.6403326-.17463618-1.3388773.11642411-1.7463617.64033262.989605.58212058 1.8627859 1.45530145 2.4449064 2.44490645z" fill="#222" fill-rule="evenodd"/></svg>