<?xml version="1.0" encoding="UTF-8"?>
<svg width="28px" height="28px" viewBox="0 0 28 28" version="1.1" xmlns="http://www.w3.org/2000/svg" xmlns:xlink="http://www.w3.org/1999/xlink">
    <!-- Generator: Sketch 55.2 (78181) - https://sketchapp.com -->
    <title>icon_live_bet_normal</title>
    <desc>Created with Sketch.</desc>
    <g id="icon_live_bet_normal" stroke="none" stroke-width="1" fill="none" fill-rule="evenodd">
        <g id="ico/跟投">
            <circle id="椭圆形" fill="#5078FF" fill-rule="evenodd" cx="14" cy="14" r="14"></circle>
            <path d="M18.2137265,6.73172809 L17.0545455,7.89090909 L17.0703409,10.3896866 L13.9265427,13.5334848 C13.7774334,13.6825941 13.7774334,13.924348 13.9265427,14.0734573 C14.075652,14.2225666 14.3174059,14.2225666 14.4665152,14.0734573 L17.6103134,10.9296591 L20.1090909,10.9454545 L21.2682719,9.78627355 C21.9879069,11.0248987 22.4,12.4643246 22.4,14 C22.4,18.6391919 18.6391919,22.4 14,22.4 C9.3608081,22.4 5.6,18.6391919 5.6,14 C5.6,9.3608081 9.3608081,5.6 14,5.6 C15.5356754,5.6 16.9751013,6.01209311 18.2137265,6.73172809 Z M14,9.8 C11.6804041,9.8 9.8,11.6804041 9.8,14 C9.8,16.3195959 11.6804041,18.2 14,18.2 C16.3195959,18.2 18.2,16.3195959 18.2,14 C18.2,13.7891276 18.0290542,13.6181818 17.8181818,13.6181818 C17.6073095,13.6181818 17.4363636,13.7891276 17.4363636,14 C17.4363636,15.8978512 15.8978512,17.4363636 14,17.4363636 C12.1021488,17.4363636 10.5636364,15.8978512 10.5636364,14 C10.5636364,12.1021488 12.1021488,10.5636364 14,10.5636364 C14.2108724,10.5636364 14.3818182,10.3926905 14.3818182,10.1818182 C14.3818182,9.97094582 14.2108724,9.8 14,9.8 Z M21.0908538,8.81823713 L19.7272727,10.1818182 L17.8181818,10.1818182 L17.8181818,8.27272727 L19.1817629,6.90914622 C19.9118899,7.44360699 20.556393,8.08811007 21.0908538,8.81823713 Z" id="形状结合" fill="#000000" fill-rule="nonzero"></path>
        </g>
    </g>
</svg>