<?xml version="1.0" encoding="UTF-8"?>
<svg width="36px" height="36px" viewBox="0 0 36 36" version="1.1" xmlns="http://www.w3.org/2000/svg" xmlns:xlink="http://www.w3.org/1999/xlink">
    <!-- Generator: Sketch 55.2 (78181) - https://sketchapp.com -->
    <title>icon_live_lock_open</title>
    <desc>Created with Sketch.</desc>
    <g id="icon_live_lock_open" stroke="none" stroke-width="1" fill="none" fill-rule="evenodd">
        <g id="icon/视频播放/解锁" fill="#FFFFFF">
            <circle id="椭圆形" fill-rule="evenodd" opacity="0.300000012" cx="18" cy="18" r="18"></circle>
            <path d="M13.4936709,15 L13.4936709,13.7556962 C13.4936709,12.080557 12.1308354,10.7177215 10.4556962,10.7177215 C8.78055696,10.7177215 7.41772152,12.080557 7.41772152,13.7556962 L7.41772152,15.1 L6,15.1 L6,13.7556962 C6,11.2948354 7.99483544,9.3 10.4556962,9.3 C12.916557,9.3 14.9113924,11.2949367 14.9113924,13.7556962 L14.9113924,15 L24,15 L24,14.9748385 C25.106915,14.9883966 26,15.8898687 26,17 L26,24.6962025 C26,25.8147848 25.0932658,26.721519 23.9746835,26.721519 L12.0253165,26.721519 C10.9067342,26.721519 10,25.8147848 10,24.6962025 L10,17 C10,15.9907018 10.7382154,15.1538793 11.7041785,15 L13.4936709,15 Z M24.5822785,24.6962025 L24.5822785,17 C24.5822785,16.6650127 24.3097722,16.3924051 23.9746835,16.3924051 L12.0253165,16.3924051 C11.6902278,16.3924051 11.4177215,16.6650127 11.4177215,17 L11.4177215,24.6962025 C11.4177215,25.0311899 11.6902278,25.3037975 12.0253165,25.3037975 L23.9746835,25.3037975 C24.3097722,25.3037975 24.5822785,25.0311899 24.5822785,24.6962025 Z" id="形状结合" fill-rule="nonzero"></path>
            <path d="M18,18.6202532 C17.608507,18.6202532 17.2911392,18.9376209 17.2911392,19.3291139 L17.2911392,22.7721519 C17.2911392,23.1636449 17.608507,23.4810127 18,23.4810127 C18.391493,23.4810127 18.7088608,23.1636449 18.7088608,22.7721519 L18.7088608,19.3291139 C18.7088608,18.9376209 18.391493,18.6202532 18,18.6202532 L18,18.6202532 Z" id="路径" fill-rule="nonzero" transform="translate(18.000000, 21.050633) rotate(-270.000000) translate(-18.000000, -21.050633) "></path>
        </g>
    </g>
</svg>