<?xml version="1.0" encoding="UTF-8"?>
<svg width="32px" height="32px" viewBox="0 0 32 32" version="1.1" xmlns="http://www.w3.org/2000/svg" xmlns:xlink="http://www.w3.org/1999/xlink">
    <title>icon_live_ bullet_close</title>
    <g id="icon_live_-bullet_close" stroke="none" stroke-width="1" fill="none" fill-rule="evenodd">
        <g id="编组" transform="translate(1.000000, 1.000000)" fill="#FFFFFF" fill-rule="nonzero">
            <g id="弹幕关" transform="translate(3.000000, 4.500000)">
                <path d="M0.95703126,1.89453126 C0.439264307,1.89453126 0.0195312598,1.47479821 0.0195312598,0.95703126 C0.0195312598,0.439264307 0.439264307,0.0195312598 0.95703126,0.0195312598 L22.2070313,0.0195312598 C22.7247982,0.0195312598 23.1445313,0.439264307 23.1445313,0.95703126 C23.1445313,1.47479821 22.7247982,1.89453126 22.2070313,1.89453126 L0.95703126,1.89453126 Z M16.8695312,7.79703126 C16.3517643,7.79703126 15.9320312,7.37729821 15.9320312,6.85953126 C15.9320312,6.34176431 16.3517643,5.92203126 16.8695312,5.92203126 L22.2070313,5.92203126 C22.7247982,5.92203126 23.1445313,6.34176431 23.1445313,6.85953126 C23.1445313,7.37729821 22.7247982,7.79703126 22.2070313,7.79703126 L16.8695312,7.79703126 L16.8695312,7.79703126 Z M0.95703126,19.6032812 C0.439264307,19.6032812 0.0195312598,19.1835482 0.0195312598,18.6657812 C0.0195312598,18.1480143 0.439264307,17.7282812 0.95703126,17.7282812 L6.06328125,17.7282812 C6.5810482,17.7282812 7.00078125,18.1480143 7.00078125,18.6657812 C7.00078125,19.1835482 6.5810482,19.6032812 6.06328125,19.6032812 L0.95703126,19.6032812 Z M0.95703126,7.79703126 C0.439264307,7.79703126 0.0195312598,7.37729821 0.0195312598,6.85953126 C0.0195312598,6.34176431 0.439264307,5.92203126 0.95703126,5.92203126 L12.5445313,5.92203126 C13.0622982,5.92203126 13.4820313,6.34176431 13.4820313,6.85953126 C13.4820313,7.37729821 13.0622982,7.79703126 12.5445313,7.79703126 L0.95703126,7.79703126 Z M0.95703126,13.7007812 C0.439264307,13.7007812 0.0195312598,13.2810482 0.0195312598,12.7632812 C0.0195312598,12.2455143 0.439264307,11.8257812 0.95703126,11.8257812 L6.06328125,11.8257812 C6.5810482,11.8257812 7.00078125,12.2455143 7.00078125,12.7632812 C7.00078125,13.2810482 6.5810482,13.7007812 6.06328125,13.7007812 L0.95703126,13.7007812 Z" id="形状"></path>
                <path d="M19.5195313,11.2695313 L12.5195312,11.2695313 C10.1032855,11.2695313 8.14453125,13.2282855 8.14453125,15.6445312 C8.14453125,18.060777 10.1032855,20.0195312 12.5195312,20.0195312 L19.5195313,20.0195312 C21.935777,20.0195312 23.8945312,18.060777 23.8945312,15.6445313 C23.8945312,13.2282855 21.935777,11.2695313 19.5195313,11.2695313" id="路径" opacity="0.400000006"></path>
                <path d="M12.25,13.1445313 C11.3568361,13.1445313 10.5315185,13.6210285 10.0849365,14.3945312 C9.6383545,15.1680339 9.6383545,16.1210286 10.0849365,16.8945313 C10.5315185,17.668034 11.3568361,18.1445313 12.25,18.1445313 C13.6307119,18.1445313 14.75,17.0252431 14.75,15.6445313 C14.75,14.2638194 13.6307119,13.1445313 12.25,13.1445313 L12.25,13.1445313 Z" id="路径"></path>
            </g>
        </g>
    </g>
</svg>