<svg height="12" viewBox="0 0 12 12" width="12" xmlns="http://www.w3.org/2000/svg"><path d="m1.09090909 0h3.27272727c.60249246 0 1.09090909.48841664 1.09090909 1.09090909v3.27272727c0 .60249246-.48841663 1.09090909-1.09090909 1.09090909h-3.27272727c-.60249245 0-1.09090909-.48841663-1.09090909-1.09090909v-3.27272727c0-.60249245.48841664-1.09090909 1.09090909-1.09090909zm0 6.54545455h3.27272727c.60249246 0 1.09090909.48841663 1.09090909 1.09090909v3.27272726c0 .6024925-.48841663 1.0909091-1.09090909 1.0909091h-3.27272727c-.60249245 0-1.09090909-.4884166-1.09090909-1.0909091v-3.27272726c0-.60249246.48841664-1.09090909 1.09090909-1.09090909zm10.90909091-5.45454546v3.27272727c0 .60249246-.4884166 1.09090909-1.0909091 1.09090909h-3.27272726c-.60249246 0-1.09090909-.48841663-1.09090909-1.09090909v-3.27272727c0-.60249245.48841663-1.09090909 1.09090909-1.09090909h3.27272726c.6024925 0 1.0909091.48841664 1.0909091 1.09090909zm-4.36363636 5.45454546h3.27272726c.6024925 0 1.0909091.48841663 1.0909091 1.09090909v3.27272726c0 .6024925-.4884166 1.0909091-1.0909091 1.0909091h-3.27272726c-.60249246 0-1.09090909-.4884166-1.09090909-1.0909091v-3.27272726c0-.60249246.48841663-1.09090909 1.09090909-1.09090909z" fill="#5078FF" fill-rule="evenodd"/></svg>