<?xml version="1.0" encoding="UTF-8"?>
<svg width="32px" height="32px" viewBox="0 0 32 32" version="1.1" xmlns="http://www.w3.org/2000/svg" xmlns:xlink="http://www.w3.org/1999/xlink">
    <!-- Generator: Sketch 55.2 (78181) - https://sketchapp.com -->
    <title>icon_live_ refuse_normal</title>
    <desc>Created with Sketch.</desc>
    <g id="icon_live_-refuse_normal" stroke="none" stroke-width="1" fill="none" fill-rule="evenodd">
        <g id="ico/视频直播/刷新" fill="#FFFFFF" fill-rule="nonzero">
            <path d="M24.7000089,13.2999888 L20.8000284,13.2999888 C20.3024866,13.2999888 19.9000562,12.8968772 19.9000562,12.3999598 C19.9000562,11.9031181 20.3025055,11.4999876 20.8000284,11.4999876 L22.3656285,11.4999876 C20.9533758,9.50444721 18.6310664,8.2000201 16.0000189,8.2000201 C11.6921968,8.2000201 8.2000201,11.6922158 8.2000201,15.9999622 C8.2000201,20.3077842 11.6922158,23.799961 16.0000189,23.799961 C20.307841,23.799961 23.8000177,20.3077464 23.8000177,15.9999622 C23.8000177,15.5031204 24.2024482,15.0999899 24.699971,15.0999899 C25.1968695,15.0999899 25.6,15.5031204 25.6,15.9999622 C25.6,21.301865 21.3015244,25.5999622 16.0000189,25.5999622 C10.6984188,25.5999622 6.4,21.3018839 6.4,15.9999622 C6.4,10.6980972 10.6984377,6.4 16.0000189,6.4 C19.2176083,6.4 22.0595581,7.98637438 23.7999988,10.4168499 L23.7999988,8.79999527 C23.7999988,8.30309679 24.2024293,7.9 24.6999521,7.9 C25.1968506,7.9 25.6,8.30309679 25.6,8.79999527 L25.6,12.3999787 C25.6,12.8968772 25.1968506,13.3000077 24.7000089,13.3000077 L24.7000089,13.2999888 Z" id="路径"></path>
        </g>
    </g>
</svg>