<?xml version="1.0" encoding="UTF-8"?>
<svg width="17px" height="17px" viewBox="0 0 17 17" version="1.1" xmlns="http://www.w3.org/2000/svg" xmlns:xlink="http://www.w3.org/1999/xlink">
    <title>icon_detail_redbag_follow</title>
    <defs>
        <linearGradient x1="50%" y1="0%" x2="50%" y2="100%" id="linearGradient-1">
            <stop stop-color="#FF8B00" offset="0%"></stop>
            <stop stop-color="#FFC401" offset="100%"></stop>
        </linearGradient>
    </defs>
    <g id="icon_detail_redbag_follow" stroke="none" stroke-width="1" fill="none" fill-rule="evenodd">
        <circle id="椭圆形" fill="url(#linearGradient-1)" cx="8.5" cy="8.5" r="8.5"></circle>
        <path d="M8.5,4 C8.77614237,4 9,4.22385763 9,4.5 L9,8 L12.5,8 C12.7761424,8 13,8.22385763 13,8.5 C13,8.77614237 12.7761424,9 12.5,9 L9,9 L9,12.5 C9,12.7761424 8.77614237,13 8.5,13 C8.22385763,13 8,12.7761424 8,12.5 L8,9 L4.5,9 C4.22385763,9 4,8.77614237 4,8.5 C4,8.22385763 4.22385763,8 4.5,8 L8,8 L8,4.5 C8,4.22385763 8.22385763,4 8.5,4 Z" id="形状结合" fill="#663B2D"></path>
    </g>
</svg>