<?xml version="1.0" encoding="UTF-8"?>
<svg width="45px" height="45px" viewBox="0 0 45 45" version="1.1" xmlns="http://www.w3.org/2000/svg" xmlns:xlink="http://www.w3.org/1999/xlink">
    <title>img_mine_avatar_empty</title>
    <g id="img_mine_avatar_empty" stroke="none" stroke-width="1" fill="none" fill-rule="evenodd">
        <g id="编组" fill-rule="nonzero">
            <g id="头像-(3)">
                <path d="M0,22.5 C0,34.9264069 10.0735931,45 22.5,45 C34.9264069,45 45,34.9264069 45,22.5 C45,10.0735931 34.9264069,0 22.5,0 C10.0735931,0 0,10.0735931 0,22.5 Z" id="路径" fill="#E1E6EE"></path>
                <path d="M24.90375,25.3125 C28.9725,25.3125 32.2875,28.22625 32.34375,31.8525 L32.34375,32.278125 C32.34375,33.75 29.025,33.75 24.90375,33.75 L20.09625,33.75 C15.99,33.75 12.65625,33.75 12.65625,32.278125 L12.65625,31.8525 C12.7125,28.22625 16.0275,25.3125 20.09625,25.3125 L24.90375,25.3125 Z M22.5,11.25 C25.6066017,11.25 28.125,13.7683983 28.125,16.875 C28.125,19.9816017 25.6066017,22.5 22.5,22.5 C19.3933983,22.5 16.875,19.9816017 16.875,16.875 C16.875,13.7683983 19.3933983,11.25 22.5,11.25 Z" id="形状" fill="#A3ADC2"></path>
            </g>
        </g>
    </g>
</svg>