<svg height="26" viewBox="0 0 88 26" width="88" xmlns="http://www.w3.org/2000/svg"><g fill="none" fill-rule="evenodd"><rect fill="#fff" height="25" rx="12.5" stroke="#979797" width="87" x=".5" y=".5"/><circle cx="16" cy="13" r="5.5" stroke="#979797"/><path d="m28.9400001 8.32h10.2v.852h-3.912c-.216.492-.468.972-.744 1.428v8.124h-.888v-6.852c-1.128 1.404-2.604 2.652-4.428 3.744l-.564-.756c2.712-1.56 4.608-3.456 5.664-5.688h-5.328zm7.056 3.228c1.38 1.092 2.532 2.184 3.468 3.276l-.66.672c-.84-1.056-1.98-2.172-3.432-3.36zm5.2339999-3.3h10.092v.816h-4.62v1.236h3.588v4.548h1.38v.816h-1.38v1.776c0 .816-.372 1.224-1.092 1.224h-1.176l-.228-.84 1.128.036c.348 0 .528-.204.528-.612v-1.584h-6.36v3.036h-.84v-3.036h-1.38v-.816h1.38v-4.548h3.588v-1.236h-4.608zm1.86 6.6h2.748v-1.524h-2.748zm3.612 0h2.748v-1.524h-2.748zm-3.612-2.292h2.748v-1.464h-2.748zm3.612-1.464v1.464h2.748v-1.464zm7.778 7.5h-1.08l-.18-.84c.336.024.648.048.96.048.288 0 .444-.156.444-.456v-2.928c-.456.18-.924.348-1.392.492l-.204-.864c.54-.132 1.068-.3 1.596-.504v-2.712h-1.452v-.828h1.452v-2.268h.888v2.268h1.212v.828h-1.212v2.34c.348-.168.696-.336 1.032-.528v.876c-.336.18-.684.348-1.032.516v3.54c0 .672-.348 1.02-1.032 1.02zm3.18-10.476h5.232v4.164h-5.232zm4.392 3.456v-1.032h-3.552v1.032zm-3.552-1.704h3.552v-1.044h-3.552zm-1.68 3.252h6.864v.768h-3v1.356h2.508v.78h-2.508v1.548c.48.072 1.044.108 1.704.108.624 0 1.164-.024 1.608-.06l-.24.84c-.48 0-.924-.012-1.308-.012-1.584-.012-2.664-.168-3.24-.456-.456-.24-.876-.696-1.236-1.368-.288.744-.684 1.428-1.2 2.052l-.636-.552c.912-1.104 1.416-2.352 1.512-3.72l.768.084c-.024.432-.084.84-.18 1.248.384.804.828 1.32 1.332 1.548.084.036.18.072.288.108v-3.504h-3.036zm9.542 2.88v1.224h2.904v-1.224zm2.904 1.968h-2.904v.66h-.696v-8.232h1.164v-1.44h-1.536v-.768h4.908v.768h-1.392v1.44h1.152v8.232h-.696zm-1.128-7.572v-1.44h-.636v1.44zm1.128 4.896v-1.116h-.588c-.372 0-.552-.216-.552-.624v-2.436h-.588v.804c-.012 1.272-.288 2.208-.816 2.796l-.36-.312v.888zm-.636-4.176v2.316c0 .12.06.192.18.192h.456v-2.508zm-2.268 3.228c.444-.528.672-1.332.684-2.424v-.804h-.684zm4.476-6.204h4.836v4.044h-4.836zm4.02 3.348v-.972h-3.216v.972zm-3.216-1.668h3.216v-.984h-3.216zm-.156 4.452c-.24.528-.54 1.02-.888 1.452l-.492-.648c.552-.684.924-1.524 1.116-2.532l.756.084c-.06.312-.132.612-.216.888h1.224v-.96h.828v.96h2.064v.756h-2.064v1.26h1.8v.756h-1.8v1.308h2.364v.816h-5.7v-.816h2.508v-1.308h-1.836v-.756h1.836v-1.26z" fill="#979797" fill-rule="nonzero"/></g></svg>