<svg height="12" viewBox="0 0 12 12" width="12" xmlns="http://www.w3.org/2000/svg"><g fill="none" fill-rule="evenodd"><path d="m8 0c2.209139 0 4 1.790861 4 4v4c0 2.209139-1.790861 4-4 4h-4c-2.209139 0-4-1.790861-4-4v-4c0-2.209139 1.790861-4 4-4zm0 1h-4c-1.59768088 0-2.90366088 1.24891996-2.99490731 2.82372721l-.00509269.17627279v4c0 1.59768088 1.24891996 2.9036609 2.82372721 2.9949073l.17627279.0050927h4c1.59768088 0 2.9036609-1.24891996 2.9949073-2.82372721l.0050927-.17627279v-4c0-1.59768088-1.24891996-2.90366088-2.82372721-2.99490731z" fill="#ccc" fill-rule="nonzero"/><rect fill="#d8d8d8" height="12" opacity=".351017" rx="4" width="12"/></g></svg>