<?xml version="1.0" encoding="UTF-8"?>
<svg width="40px" height="40px" viewBox="0 0 40 40" version="1.1" xmlns="http://www.w3.org/2000/svg" xmlns:xlink="http://www.w3.org/1999/xlink">
    <!-- Generator: Sketch 55.2 (78181) - https://sketchapp.com -->
    <title>icon_constellation_ft_normal</title>
    <desc>Created with Sketch.</desc>
    <g id="icon_constellation_ft_normal" stroke="none" stroke-width="1" fill="none" fill-rule="evenodd">
        <g id="资源-1备份" fill-rule="nonzero">
            <path d="M21.5192475,39.3316197 C11.0041585,40.3472681 1.66964088,32.5213587 0.667155708,21.8360604 C-0.333995485,11.1609186 7.37640278,1.68559612 17.8921588,0.668593519 C28.4079147,-0.34840908 37.7511032,7.4788546 38.7529214,18.1533193 C39.7554066,28.8386176 32.0443413,38.31394 21.5192475,39.3316197 Z" id="路径" style="mix-blend-mode: multiply;"></path>
            <path d="M14.8109062,1.73329974 C14.8272499,1.90963416 14.8530225,2.08508926 14.8881561,2.25889376 C14.9026015,2.30777511 14.8982213,2.3602211 14.8761375,2.40582107 C14.9534883,2.37473114 15.0249087,2.34573471 15.0898178,2.31884058 C16.4236937,2.37857613 18.0973556,3.41519205 18.8141983,4.26532773 C20.0375787,4.0510684 21.7323158,3.94312271 22.9940876,3.99967043 C24.8378974,4.08481711 27.1699517,4.50446863 27.895956,4.88695295 L27.895956,4.88762872 C27.9489777,4.91683482 27.9853348,4.96533316 28.0007317,5.02002717 C28.5369039,4.46910392 28.9883129,4.11051304 29.779028,3.72433252 C25.4107797,1.1021864 20.0238271,0.246561427 14.8109062,1.73329974 Z M14.4113986,1.85194715 C14.1858281,1.9216093 13.960642,1.99570134 13.7359374,2.07427018 C10.9274002,3.0562864 8.49548259,4.63123546 6.53146962,6.60971487 C7.01938175,6.52785905 7.49279473,6.48064008 7.74263982,6.4689243 C7.80577189,6.4664585 7.86341347,6.49268072 7.90321389,6.53605806 C9.52633794,4.52293327 12.9755103,3.16242078 14.6163484,2.50955112 C14.6088599,2.50665241 14.6015156,2.50327601 14.5943605,2.49942567 C14.5468213,2.4738435 14.511848,2.42960584 14.4976944,2.37715304 C14.4662166,2.27028724 14.433715,2.07602605 14.4113986,1.85194715 Z M6.017237,7.14854084 C2.76016758,10.698631 0.932207314,15.4094285 1.00817103,20.2957637 C1.38773316,20.6113431 1.75014374,20.9475507 2.09377725,21.302928 C2.90857854,20.5301536 3.5679589,20.1842565 4.56470379,19.8528681 C4.67782057,18.787341 5.21180403,16.6007362 5.75550449,15.0281935 C6.28927365,13.4891508 7.21746334,11.4514214 7.81881175,10.6245952 C7.55346291,9.41187034 7.43473869,8.11129503 7.64108203,6.89512664 C7.27174849,6.92272097 6.61768082,7.01010658 6.017237,7.14854084 Z M1.02532644,20.8584041 C1.10713849,22.6584697 1.44852352,24.4771409 2.07304511,26.2655268 C2.49534969,27.4748421 3.02774502,28.6143376 3.65508222,29.6767173 C3.67675021,29.6143281 3.69738995,29.5536415 3.71568637,29.4988764 C2.80861804,27.8045074 1.39329536,23.9814795 1.81610408,21.6067788 C1.56067692,21.3486064 1.2969396,21.099014 1.02532621,20.8583989 Z M3.92640249,30.1220195 C6.54112313,34.2828377 10.6399637,37.1939413 15.2541132,38.3887392 C15.1891834,38.241094 15.1371792,38.1019805 15.1015401,37.9748388 C13.7925576,37.3212786 12.0577423,36.1611107 11.0156868,35.2525585 C9.86164917,34.2427753 8.69201392,32.8593443 8.03490404,31.8309485 C6.20955091,31.5227888 4.66748526,30.7504428 3.98762674,29.9586431 C3.96778883,30.0124729 3.94725076,30.0673414 3.92640249,30.1220195 Z M15.7709094,37.8268168 C17.4375262,37.6985515 19.8314344,37.1772961 21.2775023,36.6929519 C21.6999819,35.6987606 22.3301547,34.0277571 22.5554042,33.1279459 C22.8340184,32.0149571 23.0242262,30.4579892 23.008822,29.7801945 L23.0108313,29.7801945 C23.0089153,29.7550465 23.011558,29.7302208 23.0182446,29.7067556 C21.0825688,28.1762438 18.3472181,26.0203232 17.4388756,24.6528031 C17.4120192,24.6805379 17.3775329,24.7006678 17.3387554,24.7099122 C16.4185249,24.9802191 14.4903272,25.4532562 12.7288961,25.7519454 C11.5632149,25.9417753 10.3883584,26.0677021 9.20949889,26.1292257 C9.23156039,26.1460344 9.25351672,26.1623885 9.27536232,26.1782774 C8.7427066,27.7370367 8.30866822,30.3723042 8.35600036,31.5620252 C8.9819746,32.5578707 10.1445789,33.9368722 11.288943,34.9383267 C12.4406813,35.9460486 14.4814819,37.2740085 15.7709094,37.8268168 Z M21.7842667,36.5528286 C23.1199681,37.8407792 24.230236,38.1662415 25.094577,38.2937061 C25.4847155,38.1846828 25.8739244,38.062587 26.2617048,37.9271783 C30.0762798,36.5951696 33.1966071,34.1683727 35.3934905,31.1218401 C35.9915582,29.5883715 36.2027659,28.1664568 35.9987624,27.1907695 C35.8685798,27.1628016 35.7255985,27.1312504 35.5725806,27.0994255 C34.5649753,26.8932181 32.3175637,26.4044629 30.4411701,25.7523062 C29.0942969,27.0767237 25.1404011,29.2820508 23.5713174,30.1449275 C23.5218113,30.105558 23.4714553,30.065575 23.420309,30.0250105 C23.39457,30.8160821 23.2124864,32.1963038 22.9539029,33.2326899 C22.7445681,34.0637398 22.2062717,35.5294366 21.7842667,36.5528286 Z M36.1089727,26.7907277 C37.1099027,25.753607 38.260742,23.8818921 38.796896,22.721368 C39.2229322,19.7954724 38.9698199,16.7265684 37.9278248,13.7421012 C37.5679328,12.7122408 37.1283062,11.7329606 36.6182883,10.8087715 C36.9037362,11.9360574 37.1014493,12.8901023 37.1014493,13.3333333 C37.0269279,13.2772205 36.9484964,13.2199506 36.8664279,13.1619642 C37.3382517,14.2120458 37.8637515,15.7221225 38.1504316,16.9831884 C38.552279,18.7442381 38.8824636,21.0668504 38.8362511,22.3785148 C38.8308877,22.4942118 38.7335847,22.5836157 38.6189187,22.5782041 C38.5042527,22.5727924 38.4156454,22.4746145 38.4210088,22.3589176 C38.4699003,21.0857719 38.1423946,18.8131663 37.7512632,17.074417 C37.4021744,15.5573143 36.7007241,13.6611584 36.1922037,12.723629 C35.1320394,12.0900713 33.7287136,11.5002503 32.3234758,11.5044287 C32.2743981,11.307718 32.191645,11.0823446 32.0816566,10.8362112 C31.7768809,11.5921367 31.040848,13.1181822 30.4121904,14.2841736 C29.8730026,15.2791157 29.2778548,16.2866789 28.7357528,17.0612067 C28.7939275,17.0642625 28.8447212,17.067066 28.887515,17.0695871 C29.7609812,18.8753794 30.9395266,23.8179743 30.6909085,25.3965382 C32.5256157,26.0234486 34.6827512,26.4924046 35.6569685,26.6919378 C35.8176362,26.7265093 35.9664601,26.7581739 36.1089727,26.7907277 Z M31.9252886,10.5080351 C31.036059,8.74233044 29.0398973,6.19106993 27.8964632,5.25895311 C27.8386786,5.28708068 27.7691264,5.28854979 27.7077575,5.25727345 C27.0306446,4.9065502 24.7608766,4.49906249 22.9753348,4.41932195 C21.8058958,4.36397232 20.2447042,4.45511795 19.0725765,4.64058976 C19.0961544,4.68668236 19.115535,4.73144794 19.1304348,4.77463212 C18.1416641,5.74847102 16.1766716,8.91380715 15.8272232,10.2839754 C17.1266914,11.8808308 18.7338073,14.2030372 19.7471608,15.6809847 C19.9742045,16.014138 20.1791467,16.3087726 20.3753822,16.5925948 C20.4391442,16.6865123 20.4175021,16.8145415 20.3264907,16.8818233 C20.2817589,16.914417 20.2257111,16.9270156 20.171497,16.9166632 C20.1172828,16.9063108 20.0696738,16.8739185 20.0398396,16.8270861 C19.8730729,16.5925948 19.6547359,16.2702538 19.4089392,15.9202063 C18.3589489,14.3870313 16.6643947,11.9397308 15.3505556,10.3509887 C13.8176537,10.3000467 9.65946288,10.6687305 8.06515052,11.5942029 C8.02521415,11.4556672 7.98669418,11.3151812 7.94990097,11.1730444 C7.38493384,12.0886931 6.61049312,13.8247912 6.14663594,15.1626712 C5.63895131,16.6322849 5.132667,18.6496373 4.99368966,19.7167107 C5.00085557,19.7145239 5.0080387,19.7123354 5.01523921,19.7101449 C5.67765029,21.5808771 7.34414911,24.3739153 8.75772136,25.7372728 C10.0646342,25.683938 11.3673834,25.553233 12.6592426,25.3458092 C14.4045997,25.0430655 16.3133748,24.5740829 17.2228894,24.3098579 L17.2242289,24.3105337 C17.2962302,24.2855456 17.3760189,24.3026091 17.4317824,24.3549207 C17.443414,24.3658323 17.4536058,24.3779074 17.4622756,24.39086 C18.1650519,22.5410849 19.955035,18.2343603 20.5792899,16.8134172 C22.1171988,16.7921043 26.6660865,16.9630833 28.3828806,17.0438051 C28.3495326,16.9812705 28.3489074,16.9034694 28.3868796,16.8385742 C28.9226761,16.0756328 29.5147312,15.0721183 30.052537,14.0861738 C30.6874559,12.9143932 31.4308735,11.3682375 31.7195339,10.6384088 C31.7555549,10.5542396 31.8387108,10.5043495 31.9252886,10.5080351 Z M38.7323127,13.4610325 C42.3439106,23.8052179 36.885749,35.1200102 26.5426396,38.7317129 C16.1979624,42.3439631 4.88021983,36.8889862 1.26851558,26.5464762 C-2.34403643,16.2015386 3.11054191,4.88671727 13.4546694,1.26985195 C23.7975595,-2.3465807 35.1165097,3.11401571 38.7323127,13.4610325 Z" id="形状结合" fill="#FFFFFF" opacity="0.100000001"></path>
        </g>
    </g>
</svg>