<?xml version="1.0" encoding="UTF-8"?>
<svg width="32px" height="32px" viewBox="0 0 32 32" version="1.1" xmlns="http://www.w3.org/2000/svg" xmlns:xlink="http://www.w3.org/1999/xlink">
    <!-- Generator: Sketch 55.2 (78181) - https://sketchapp.com -->
    <title>icon_constellation_close_normal</title>
    <desc>Created with Sketch.</desc>
    <g id="icon_constellation_close_normal" stroke="none" stroke-width="1" fill="none" fill-rule="evenodd">
        <g id="编组">
            <circle id="椭圆形" stroke="#FEEA3B" cx="16" cy="16" r="15.5"></circle>
            <g id="ico/16/x" transform="translate(8.000000, 8.000000)" fill="#FEEA3B">
                <g id="形状结合-2" transform="translate(-1.500000, -1.500000)">
                    <path d="M9,9 L9,3.5 C9,3.22385763 9.22385763,3 9.5,3 C9.77614237,3 10,3.22385763 10,3.5 L10,9 L15.5,9 C15.7761424,9 16,9.22385763 16,9.5 C16,9.77614237 15.7761424,10 15.5,10 L10,10 L10,15.5 C10,15.7761424 9.77614237,16 9.5,16 C9.22385763,16 9,15.7761424 9,15.5 L9,10 L3.5,10 C3.22385763,10 3,9.77614237 3,9.5 C3,9.22385763 3.22385763,9 3.5,9 L9,9 Z" id="形状结合" transform="translate(9.500000, 9.500000) rotate(-315.000000) translate(-9.500000, -9.500000) "></path>
                </g>
            </g>
        </g>
    </g>
</svg>