<?xml version="1.0" encoding="UTF-8"?>
<svg width="40px" height="14px" viewBox="0 0 40 14" version="1.1" xmlns="http://www.w3.org/2000/svg" xmlns:xlink="http://www.w3.org/1999/xlink">
    <!-- Generator: Sketch 55.2 (78181) - https://sketchapp.com -->
    <title>tag_constellation_lucky_normal</title>
    <desc>Created with Sketch.</desc>
    <g id="tag_constellation_lucky_normal" stroke="none" stroke-width="1" fill="none" fill-rule="evenodd">
        <g id="编组-9" fill="#FDCE07">
            <path d="M4.54747351e-13,4.996 L1.692,4.996 L1.692,9.496 C1.71600012,10.0640028 1.73999988,10.4399991 1.764,10.624 C1.82000028,10.9920018 1.99599852,11.2419993 2.292,11.374 C2.58800148,11.5060007 3.10799628,11.572 3.852,11.572 L5.484,11.572 L5.484,13 L3.672,13 C2.81599572,13 2.19600192,12.9520005 1.812,12.856 C0.9319956,12.5999987 0.3720012,12.0400043 0.132,11.176 C0.04399956,10.8399983 4.54747351e-13,10.2800039 4.54747351e-13,9.496 L4.54747351e-13,4.996 Z M8.076,4.996 L8.076,9.796 C8.076,10.1800019 8.10799968,10.4779989 8.172,10.69 C8.23600032,10.9020011 8.34399924,11.0839992 8.496,11.236 C8.83200168,11.5640016 9.299997,11.728 9.9,11.728 C10.2840019,11.728 10.6179986,11.6620007 10.902,11.53 C11.1860014,11.3979993 11.384,11.2200011 11.496,10.996 C11.6080006,10.7719989 11.664,10.3720029 11.664,9.796 L11.664,4.996 L13.368,4.996 L13.368,9.712 C13.368,10.3360031 13.3020007,10.849998 13.17,11.254 C13.0379993,11.658002 12.8360014,11.9839988 12.564,12.232 C11.9319968,12.7840028 11.0360058,13.06 9.876,13.06 C8.6359938,13.06 7.73200284,12.7880027 7.164,12.244 C6.86799852,11.9639986 6.66400056,11.6500017 6.552,11.302 C6.43999944,10.9539983 6.384,10.4640032 6.384,9.832 L6.384,4.996 L8.076,4.996 Z M21,11.572 L21,13 L18.204,13 C17.6759974,13 17.2720014,12.9720003 16.992,12.916 C16.0079951,12.723999 15.3080021,12.1760045 14.892,11.272 C14.6199986,10.663997 14.484,9.91200448 14.484,9.016 C14.484,7.94399464 14.6919979,7.07200336 15.108,6.4 C15.4120015,5.91199756 15.8179975,5.55600112 16.326,5.332 C16.8340025,5.10799888 17.487996,4.996 18.288,4.996 L21,4.996 L21,6.424 L18.48,6.424 C17.7199962,6.424 17.1640018,6.62799796 16.812,7.036 C16.5159985,7.37200168 16.368,7.9799956 16.368,8.86 C16.368,10.0440059 16.5959977,10.8199982 17.052,11.188 C17.3720016,11.4440013 17.8719966,11.572 18.552,11.572 L21,11.572 Z M23.892,4.996 L23.892,13 L22.188,13 L22.188,4.996 L23.892,4.996 Z M23.952,8.956 L27.012,4.996 L29.256,4.996 L25.908,8.956 L29.1,13 L26.856,13 L23.952,8.956 Z M32.268,9.496 L29.304,4.996 L31.296,4.996 L33.132,8.128 L35.064,4.996 L37.092,4.996 L33.972,9.556 L33.972,13 L32.268,13 L32.268,9.496 Z" id="LUCKY" fill-rule="nonzero"></path>
            <polygon id="星形" transform="translate(38.780000, 3.500000) rotate(-15.000000) translate(-38.780000, -3.500000) " points="38.78 4.25 37.8983221 4.71352549 38.0667076 3.73176275 37.3534152 3.03647451 38.3391611 2.89323725 38.78 2 39.2208389 2.89323725 40.2065848 3.03647451 39.4932924 3.73176275 39.6616779 4.71352549"></polygon>
            <polygon id="星形备份" transform="translate(36.280000, 2.000000) rotate(-15.000000) translate(-36.280000, -2.000000) " points="36.28 2.5 35.6922147 2.80901699 35.8044717 2.1545085 35.3289435 1.69098301 35.9861074 1.5954915 36.28 1 36.5738926 1.5954915 37.2310565 1.69098301 36.7555283 2.1545085 36.8677853 2.80901699"></polygon>
        </g>
    </g>
</svg>