<?xml version="1.0" encoding="UTF-8"?>
<svg width="128px" height="34px" viewBox="0 0 128 34" version="1.1" xmlns="http://www.w3.org/2000/svg" xmlns:xlink="http://www.w3.org/1999/xlink">
    <!-- Generator: Sketch 55.2 (78181) - https://sketchapp.com -->
    <title>text_constellation_100_red</title>
    <desc>Created with Sketch.</desc>
    <defs>
        <linearGradient x1="0%" y1="45.391015%" x2="97.9545427%" y2="53.2789657%" id="linearGradient-1">
            <stop stop-color="#05FEC8" offset="0%"></stop>
            <stop stop-color="#05F8FF" offset="100%"></stop>
        </linearGradient>
        <path d="M14.8360596,20.5469666 L6.99932098,20.5469666 C6.2195421,24.3625374 5.28382148,27.8047942 4.19213104,30.8738403 L0.917076111,30.8738403 C2.08674443,27.6388998 3.10044178,24.0307511 3.95819855,20.0492859 C4.81595532,16.0678207 5.47875743,11.0081178 5.94662476,4.87002563 C9.22169606,4.45528967 13.120532,3.70877614 17.6432495,2.63046265 L16.941452,5.86538696 L8.87078094,7.23400879 L8.5198822,10.2200928 L14.3681946,10.2200928 C15.6938187,10.2200928 16.2006674,10.9251333 15.8887558,12.3352356 L14.8360596,20.5469666 Z M8.28594971,12.9573364 L7.46718597,17.8097229 L12.1458359,17.8097229 L12.7306671,12.9573364 L8.28594971,12.9573364 Z M21.4332047,7.45361328 C21.2171849,10.2772765 21.0371711,12.1043253 20.893158,12.9348145 L31.2620544,12.9348145 L30.9380264,15.675415 L27.2657089,15.675415 L25.4295502,31.1224365 L22.4052887,31.1224365 L24.2414474,15.675415 L20.5691299,15.675415 C20.1370904,18.4990782 19.5970491,21.1566038 18.9489899,23.6480713 C18.228924,26.2225877 17.3288552,28.7140179 16.2487564,31.1224365 L12.9004669,31.1224365 C13.9805657,28.9631647 14.9166373,26.6793537 15.7087097,24.2709351 C16.4287756,21.8625164 17.0048196,19.2465148 17.4368591,16.4228516 C17.8688986,13.5991884 18.2649289,9.77899544 18.6249619,4.9621582 C23.3773965,4.38081578 27.5897186,3.63338673 31.2620544,2.71984863 L30.6139984,5.95874023 C28.0937679,6.54008266 25.0335339,7.03836869 21.4332047,7.45361328 Z M60.75,6 C61.5000037,6 62.041665,6.166665 62.375,6.5 C62.7083339,6.833335 62.7916675,7.45832875 62.625,8.375 L59.5,31.25 L51.125,31.25 L50.25,28.375 L56.125,28.375 L58.875,9.5 C58.9583337,9.166665 58.833335,9 58.5,9 L40,9 L37,31.25 L33.375,31.25 L36.875,6 L45.5,6 C46.16667,4.91666125 46.7916637,3.75000625 47.375,2.5 L51.5,2.5 C50.5833288,4.3333425 50.0000013,5.5 49.75,6 L60.75,6 Z M55,14.375 L53.5,24.625 L41.125,24.625 L42.75,12.5 L53.375,12.5 C53.9583362,12.5 54.416665,12.5833325 54.75,12.75 C55.0000012,13 55.0833337,13.5416625 55,14.375 Z M51.25,15.5 C51.3333338,15.2499987 51.2500012,15.125 51,15.125 L46,15.125 L45,22 L50.375,22 L51.25,15.5 Z M75.6953125,18.875 L73.0292969,19.75 L71.3789062,31.25 L65.7929688,31.25 L64.9042969,28.375 L68.3320312,28.375 L69.4746094,20.875 L66.9355469,21.75 L65.7929688,18.875 L69.8554688,17.875 L70.8710938,11.375 L67.4433594,11.375 L67.9511719,8.625 L71.2519531,8.625 L72.140625,2.5 L75.4414062,2.5 L74.5527344,8.625 L77.4726562,8.625 L76.9648438,11.375 L74.171875,11.375 L73.4101562,16.75 L76.203125,15.75 L75.6953125,18.875 Z M75.7429962,22.875 C76.6870826,19.9583188 77.4595053,16.7916838 78.0602875,13.375 L78.9614563,6.375 L85.3983765,6.375 L85.9133301,2.5 L89.389267,2.5 L88.8743134,6.375 L93.8951111,6.375 C94.5817193,6.375 95.0537554,6.5 95.3112335,6.75 C95.4828856,7 95.4828856,7.45833 95.3112335,8.125 C94.9679294,9.6250075 94.4958933,11.3333237 93.8951111,13.25 L90.4191742,13.25 C91.1057824,11.7499925 91.5349062,10.4583388 91.7065582,9.375 C91.7923843,9.29166625 91.8352966,9.20833375 91.8352966,9.125 C91.8352966,9.04166625 91.7494719,9 91.5778198,9 L88.4880981,9 L87.7156677,14.5 L91.8352966,14.5 C92.3502528,14.5 92.7364642,14.5416662 92.9939423,14.625 C93.1655943,14.7916675 93.2514191,15.041665 93.2514191,15.375 C93.2514191,16.2916713 93.0368572,17.2916612 92.6077271,18.375 C91.5778147,20.37501 90.0758817,22.6249875 88.1018829,25.125 C89.4750994,27.2083438 90.9770325,29.24999 92.6077271,31.25 L88.1018829,31.25 L85.7845917,27.625 C84.6688533,28.7916725 83.4243945,30 82.051178,31.25 L77.0303802,31.25 L84.1109924,24.875 C82.823602,22.4583213 81.793705,20.25001 81.0212708,18.25 L84.3684692,18.25 C84.7117734,19.250005 85.3554589,20.583325 86.2995453,22.25 C87.5869358,20.5 88.5310079,18.95834 89.1317902,17.625 C89.3034422,17.291665 89.2605299,17.125 89.0030518,17.125 L80.6350555,17.125 L76.000473,31.25 L72.2670593,31.25 C73.3827977,28.7499875 74.3697823,26.4166775 75.2280426,24.25 L75.7429962,22.875 Z M84.2397308,14.5 L85.0121613,9 L82.051178,9 L81.1500092,14.5 L84.2397308,14.5 Z M116.79248,4.41595459 L127.421875,4.41595459 L127.059509,7.04960632 L104.10968,7.04960632 C103.948628,11.3136352 103.707053,14.8251357 103.384949,17.5842133 C102.821266,21.6810253 101.653655,25.9449903 99.8820801,30.376236 L96.6207886,30.376236 C98.5534154,26.1122071 99.841814,21.7228314 100.486023,17.2079773 C101.049706,13.1947736 101.371805,8.93080871 101.452332,4.41595459 L112.806458,4.41595459 L112.081726,2.40936279 L115.94696,2.40936279 L116.79248,4.41595459 Z M109.597481,7.125 L112.544197,7.125 L112.298637,8.25 L115.982033,8.25 L115.613693,10.75 L111.930298,10.75 L111.070839,16.5 L108.124123,16.5 L109.106361,10.75 L105.177406,10.75 L105.545746,8.25 L109.474701,8.25 L109.597481,7.125 Z M106.650764,16.125 L104.072388,16.125 C104.972778,14.7083262 105.791302,13.166675 106.527985,11.5 L108.738022,11.5 C107.919485,13.5 107.22374,15.0416613 106.650764,16.125 Z M112.666977,15.625 L112.053078,11.5 L114.140335,11.5 C114.385896,12.9166738 114.672379,14.29166 114.999794,15.625 L112.666977,15.625 Z M123.528656,7.25 L123.283096,8.375 L127.580391,8.375 L127.212051,10.75 L122.914757,10.75 L121.932518,16.5 L118.985802,16.5 L119.96804,10.75 L116.284645,10.75 L116.530205,8.375 L120.45916,8.375 L120.58194,7.25 L123.528656,7.25 Z M123.037537,11.625 L125.247574,11.625 C125.493135,13.3750087 125.861471,14.91666 126.352592,16.25 L123.774216,16.25 C123.446801,14.3333237 123.201244,12.7916725 123.037537,11.625 Z M119.722481,11.625 L117.635223,16.25 L115.056847,16.25 C115.875383,14.91666 116.652981,13.3750087 117.389664,11.625 L119.722481,11.625 Z M109.020103,31.279007 L109.343536,29.5288391 L102.01239,29.5288391 L102.443634,27.160965 L109.666969,27.160965 L109.990402,25.3078461 L103.629555,25.3078461 L103.952988,22.9399719 L110.313835,22.9399719 L110.637268,21.086853 L103.521744,21.086853 L103.952988,18.7189789 L110.960701,18.7189789 L111.284134,16.7629089 L114.19503,16.7629089 L112.038811,31.279007 L109.020103,31.279007 Z M125.507195,21.086853 L118.729523,21.086853 L118.406776,22.9399719 L124.75412,22.9399719 L124.323792,25.3078461 L118.08403,25.3078461 L117.761284,27.160965 L125.076866,27.160965 L124.75412,29.5288391 L117.438538,29.5288391 L117.223373,31.279007 L114.211075,31.279007 L116.362717,16.7629089 L119.375015,16.7629089 L119.052269,18.7189789 L125.937523,18.7189789 L125.507195,21.086853 Z" id="path-2"></path>
    </defs>
    <g id="text_constellation_100_red" stroke="none" stroke-width="1" fill="none" fill-rule="evenodd">
        <g id="所向披靡" fill-rule="nonzero">
            <use fill="#FFFFFF" xlink:href="#path-2"></use>
            <use fill="url(#linearGradient-1)" xlink:href="#path-2"></use>
        </g>
    </g>
</svg>