<?xml version="1.0" encoding="UTF-8"?>
<svg width="128px" height="34px" viewBox="0 0 128 34" version="1.1" xmlns="http://www.w3.org/2000/svg" xmlns:xlink="http://www.w3.org/1999/xlink">
    <!-- Generator: Sketch 55.2 (78181) - https://sketchapp.com -->
    <title>text_constellation_90_red</title>
    <desc>Created with Sketch.</desc>
    <defs>
        <linearGradient x1="0%" y1="45.3975963%" x2="97.9545427%" y2="53.2742835%" id="linearGradient-1">
            <stop stop-color="#05FEC8" offset="0%"></stop>
            <stop stop-color="#05F8FF" offset="100%"></stop>
        </linearGradient>
        <path d="M3.125,10.625 L8.25,10.25 L8.625,7.625 L4.25,7.625 L4.5,5.125 L9,5.125 L9.375,2.375 L12.625,2.375 L12.25,5.125 L15.5,5.125 L15.25,7.625 L12,7.625 L11.75,9.875 L15.125,9.375 L14.75,12 L11.375,12.375 L10.5,18.25 L4.375,18.25 L3.625,15.625 L7.5,15.625 L7.875,12.875 L4.125,13.25 L3.125,10.625 Z M28.375,15.125 L31.625,15.125 L30.5,17.75 L24.75,17.75 L24.875,16.875 L21.375,16.875 C20.70833,16.20833 20.1666687,15.54167 19.75,14.875 C18.9166625,15.875 18.0416713,16.8333287 17.125,17.75 L12.5,17.75 C14.3333425,16.1666587 16.083325,14.375 17.75,12.375 L15.5,8.875 L18.625,8.875 L19.375,10 C19.8750025,9.1666625 20.1666662,8.5000025 20.25,8 L16.625,8 L16.125,5.375 L20.875,5.375 C21.0416675,4.375 21.1666662,3.375 21.25,2.375 L24.625,2.375 C24.5416662,3.5416725 24.4166675,4.5416625 24.25,5.375 L27.875,5.375 C28.7083375,5.375 29.2499988,5.49999875 29.5,5.75 C29.6666675,6.083335 29.7083338,6.6666625 29.625,7.5 L28.375,15.125 Z M26.25,8.5 C26.3333338,8.166665 26.208335,8 25.875,8 L23.625,8 C23.1249975,9.666675 22.4166713,11.2499925 21.5,12.75 C22.5833387,14 23.7499938,15.2499938 25,16.5 L26.25,8.5 Z M26.875,20.375 C27.6250038,20.375 28.1249987,20.541665 28.375,20.875 C28.6250013,21.208335 28.7083338,21.7499963 28.625,22.5 C28.1249975,26.2500188 27.708335,29.1666562 27.375,31.25 L17.125,31.25 L16.25,28.5 L24,28.5 L24.75,23.625 C24.8333338,23.291665 24.708335,23.125 24.375,23.125 L15.125,23.125 C14.791665,23.79167 14.2083375,24.5833287 13.375,25.5 C12.5416625,26.500005 11.5000063,27.5416613 10.25,28.625 C8.91666,29.7083387 7.6666725,30.58333 6.5,31.25 L0.375,31.25 C2.45834375,30.3333287 4.5833225,29.0833413 6.75,27.5 C8.83334375,25.9166587 10.3333287,24.45834 11.25,23.125 L3.25,23.125 L2.625,20.375 L12.25,20.375 C12.4166675,19.8749975 12.5416663,19.125 12.625,18.125 L16.25,18.125 C16.1666662,19.125 16.0416675,19.8749975 15.875,20.375 L26.875,20.375 Z M36.625,3 L63.625,3 L63.25,6 L52,6 C51.4166637,6.91667125 50.5,8.2916575 49.25,10.125 L50.875,10.125 L48.125,30.625 L44.25,30.625 L46.75,13.625 C43.9166525,17.4583525 40.8750163,21.0833162 37.625,24.5 L32.5,24.5 C34.7500113,22.2499887 36.9166563,19.958345 39,17.625 C41.0833437,15.3749887 42.8749925,13.25001 44.375,11.25 C45.7916738,9.24999 46.9583287,7.5 47.875,6 L36.125,6 L36.625,3 Z M51.125,11 L54.875,11 C56.7916762,15.5000225 58.9999875,19.9999775 61.5,24.5 L57.125,24.5 C55.125,20.6666475 53.12501,16.1666925 51.125,11 Z M95.25,3.125 L94.875,6 L91.75,6 L88.5,30.5 L79,30.5 L78.125,27.625 L85.125,27.625 L88.125,6 L66.875,6 L67.375,3.125 L95.25,3.125 Z M83.25,12.625 L81.625,23.875 L67.25,23.875 L69.25,10 L81.25,10 C82.1666712,10 82.791665,10.166665 83.125,10.5 C83.3750012,10.9166687 83.4166675,11.624995 83.25,12.625 Z M79.625,13.25 C79.7083338,12.916665 79.583335,12.75 79.25,12.75 L72.375,12.75 L71.125,21.125 L78.375,21.125 L79.625,13.25 Z M107.358093,19.0272064 L104.655228,19.8909912 L102.982025,31.2435913 L97.3188782,31.2435913 L96.417923,28.4054413 L99.8930359,28.4054413 L101.051407,21.0015717 L98.4772491,21.8653564 L97.3188782,19.0272064 L101.437531,18.0400238 L102.467194,11.6233368 L98.9920807,11.6233368 L99.5069122,8.90858459 L102.853317,8.90858459 L103.754272,2.86209106 L107.100677,2.86209106 L106.199722,8.90858459 L109.160004,8.90858459 L108.645172,11.6233368 L105.813599,11.6233368 L105.041351,16.9294434 L107.872925,15.9422607 L107.358093,19.0272064 Z M124.375,12.625 L120.625,12.625 C122.208341,9.87498625 123.541661,7.333345 124.625,5 L128.25,5 C126.999994,7.75001375 125.70834,10.291655 124.375,12.625 Z M114.75,12.625 L110.875,12.625 C110.374998,10.2083212 109.916669,7.66668 109.5,5 L113,5 C113.416669,7.58334625 114,10.1249875 114.75,12.625 Z M122.875,14.875 C123.958339,14.875 124.666665,15.041665 125,15.375 C125.333334,15.708335 125.416668,16.375 125.25,17.375 L123.25,31.5 L105.625,31.5 L106,28.75 L120.125,28.75 L120.75,24.375 L108.125,24.375 L108.5,21.625 L121.125,21.625 L121.625,18.125 C121.708334,17.9583325 121.708334,17.8333338 121.625,17.75 L108.5,17.75 L108.875,14.875 L115.5,14.875 L117.25,2.875 L120.875,2.875 L119.125,14.875 L122.875,14.875 Z" id="path-2"></path>
    </defs>
    <g id="text_constellation_90_red" stroke="none" stroke-width="1" fill="none" fill-rule="evenodd">
        <g id="势不可挡" fill-rule="nonzero">
            <use fill="#FFFFFF" xlink:href="#path-2"></use>
            <use fill="url(#linearGradient-1)" xlink:href="#path-2"></use>
        </g>
    </g>
</svg>