<?xml version="1.0" encoding="UTF-8"?>
<svg width="128px" height="34px" viewBox="0 0 128 34" version="1.1" xmlns="http://www.w3.org/2000/svg" xmlns:xlink="http://www.w3.org/1999/xlink">
    <!-- Generator: Sketch 55.2 (78181) - https://sketchapp.com -->
    <title>text_constellation_50_red</title>
    <desc>Created with Sketch.</desc>
    <defs>
        <linearGradient x1="0%" y1="45.4371708%" x2="97.9545427%" y2="53.2461291%" id="linearGradient-1">
            <stop stop-color="#05FEC8" offset="0%"></stop>
            <stop stop-color="#05F8FF" offset="100%"></stop>
        </linearGradient>
        <path d="M11.4661865,6.75 L14.0186768,6.75 C13.2387453,10.416685 12.4233746,13.6666525 11.5725403,16.5 L9.12640381,16.5 C10.1899467,12.6666475 10.9698665,9.41668 11.4661865,6.75 Z M6.04214478,6.75 L5.93579102,16.5 L3.5960083,16.5 L3.5960083,6.75 L6.04214478,6.75 Z M8.06286621,19.75 L9.76452637,19.75 C10.0481378,23.416685 10.5089995,27.24998 11.1471252,31.25 L8.27557373,31.25 C7.92105943,27.91665 7.63745224,24.750015 7.42474365,21.75 C6.29029788,25.6666863 5.01406552,28.8333213 3.5960083,31.25 L0.299041748,31.25 C1.57529325,29.4166575 2.70972201,27.2500125 3.70236206,24.75 C4.69500211,22.3333212 5.47492189,19.8750125 6.04214478,17.375 C6.39665908,15.9583262 6.71571717,14.1666775 6.99932861,12 C7.28294006,9.8333225 7.46019455,6.6666875 7.53109741,2.5 L10.2962952,2.5 C10.0835866,6.166685 9.79997939,9.37498625 9.44546509,12.125 C9.09095078,14.9583475 8.6300891,17.4999887 8.06286621,19.75 Z M13.231369,16.6094818 L13.5666122,12.9804993 C14.6095964,12.5633728 15.5408182,12.0211164 16.3603058,11.353714 C15.7643149,10.3526104 15.2055817,9.3098097 14.6840897,8.22528076 L17.4777832,8.22528076 L18.2600174,9.47665405 L19.6009903,7.47445679 L14.5723419,7.47445679 L14.9075851,4.84657288 L20.8302155,4.84657288 L21.5007019,2.46896362 L24.7413864,2.46896362 L23.9591522,4.84657288 L31.8932419,4.84657288 L31.5579987,7.47445679 L25.8588638,7.47445679 C26.1568593,8.22528452 26.6410947,9.01781301 27.3115845,9.85206604 L28.3173141,8.10014343 L31.2227554,8.10014343 C30.5522656,9.35152298 29.8072881,10.5611717 28.9878006,11.729126 C29.7327893,12.3965284 30.5150156,12.9387847 31.3345032,13.3559113 L29.8817825,16.6094818 L28.0938187,15.1078339 L27.1998367,22.8663483 L22.6181793,22.8663483 L21.7241974,31.125412 L16.695549,31.125412 L15.9133148,28.4975281 L19.0422516,28.4975281 L19.6009903,22.8663483 L14.4605942,22.8663483 L15.3545761,15.3581085 L13.231369,16.6094818 Z M25.6353683,12.2296753 C25.1138763,11.5622729 24.6296409,10.7697444 24.1826477,9.85206604 C23.7356545,9.01781301 23.4004146,8.22528452 23.176918,7.47445679 L22.7299271,7.47445679 C22.2829339,8.30870982 21.053721,9.8937668 19.0422516,12.2296753 L25.6353683,12.2296753 Z M25.3001251,15.1078339 C25.374624,14.7741326 25.2628774,14.6072845 24.9648819,14.6072845 L18.2600174,14.6072845 L18.0365219,16.2340698 L25.1883774,16.2340698 L25.3001251,15.1078339 Z M17.7012787,20.488739 L24.7413864,20.488739 L24.9648819,18.6116791 L17.8130264,18.6116791 L17.7012787,20.488739 Z M14.6840897,24.2428589 L18.0365219,24.2428589 C16.9190389,26.1616409 15.5780794,28.1638181 14.0136032,30.2494507 L10.21418,30.2494507 C12.0766517,28.1638181 13.5666067,26.1616409 14.6840897,24.2428589 Z M23.5121613,24.2428589 L26.4176025,24.2428589 C27.0880923,26.0782156 27.9448165,28.0803928 28.9878006,30.2494507 L25.5236206,30.2494507 C24.7786319,28.3306687 24.1081522,26.3284915 23.5121613,24.2428589 Z M63.75,2.875 L63.375,5.625 L54.75,5.625 L53.5,8.125 L59.375,8.125 C59.9583363,8.125 60.416665,8.2083325 60.75,8.375 C61.083335,8.62500125 61.1666675,9.20832875 61,10.125 L59.625,20.25 L53.25,20.25 L51.75,30.75 L45.5,30.75 L44.5,28 L48.5,28 L49.625,20.25 L42.125,20.25 L43.875,8.125 L49.875,8.125 C50.2916687,7.2916625 50.666665,6.4583375 51,5.625 L41,5.625 C40.8333325,7.62501 40.6666675,9.66665625 40.5,11.75 C40.3333325,13.9166775 40.1666675,15.6249938 40,16.875 C39.2499963,21.7083575 38.041675,26.3333113 36.375,30.75 L32.375,30.75 C33.2083375,28.6666563 33.9999962,26.3750125 34.75,23.875 C35.41667,21.4583213 35.9583313,19.0000125 36.375,16.5 C36.9583363,12.833315 37.375,8.29169375 37.625,2.875 L63.75,2.875 Z M57.5,11 C57.5,10.7499987 57.4166675,10.625 57.25,10.625 L46.875,10.625 L46.625,12.875 L57.25,12.875 L57.5,11 Z M45.875,17.75 L56.5,17.75 L56.875,15.375 L46.25,15.375 L45.875,17.75 Z M43.625,21.875 L47.375,21.875 C45.7916587,24.3750125 43.9583437,26.95832 41.875,29.625 L37.75,29.625 C40.3333462,26.7083188 42.29166,24.1250113 43.625,21.875 Z M54.625,21.875 L58.125,21.875 C59.125,24.4583462 60.2499938,27.0416538 61.5,29.625 L57.625,29.625 C56.625,27.2083213 55.625,24.6250138 54.625,21.875 Z M78.875,27.75 C81.3750125,27.8333338 84.0833187,27.875 87,27.875 C89.8333475,27.875 92.416655,27.8333338 94.75,27.75 L93.5,31.125 C87.166635,31.125 81.9583538,31.0416675 77.875,30.875 C77.4583313,30.7916662 77.083335,30.7083338 76.75,30.625 C76.3333313,30.5416662 76.0000012,30.3750013 75.75,30.125 C75.4999988,29.9583325 75.25,29.6666687 75,29.25 C74.4999975,28.4166625 73.8333375,27.2916738 73,25.875 C72.9166663,25.7083325 72.8333338,25.625 72.75,25.625 C72.6666662,25.625 72.625,25.6666662 72.625,25.75 C71.3749938,28.083345 70.2916713,29.8749938 69.375,31.125 L65.25,31.125 C65.8333363,30.3749962 66.5833287,29.33334 67.5,28 C68.3333375,26.7499938 69.25,25.1666763 70.25,23.25 C70.4166675,22.7499975 70.7083313,22.333335 71.125,22 C71.5416687,21.666665 72.1249962,21.5 72.875,21.5 C73.2916687,21.5 73.7083313,21.6249987 74.125,21.875 C74.458335,22.1250013 74.75,22.4583313 75,22.875 L75.5,24.125 C77.50001,22.9583275 79.49999,21.5833413 81.5,20 C83.50001,18.5 85.25,17 86.75,15.5 C88.1666738,14 89.374995,12.5416738 90.375,11.125 C90.5416675,10.9583325 90.458335,10.875 90.125,10.875 L70.125,10.875 L70.625,7.875 L81.125,7.875 C80.45833,6.208325 79.8750025,4.41667625 79.375,2.5 L83.375,2.5 C83.9583363,4.50001 84.6249962,6.29165875 85.375,7.875 L92.875,7.875 C93.7083375,7.875 94.25,8 94.5,8.25 C94.6666675,8.5 94.75,8.791665 94.75,9.125 C94.75,9.54166875 94.7083337,9.95833125 94.625,10.375 C94.5416663,10.8750025 94.2916687,11.45833 93.875,12.125 C92.7916613,13.7083413 91.4583413,15.2916587 89.875,16.875 C88.2916587,18.541675 86.4166775,20.2499913 84.25,22 C82.0833225,23.7500087 79.7083463,25.3749925 77.125,26.875 C77.3750012,27.1250013 77.6249988,27.2916662 77.875,27.375 C78.1250012,27.5416675 78.4583313,27.6666662 78.875,27.75 Z M99.125,10.625 L104.25,10.25 L104.625,7.625 L100.25,7.625 L100.5,5.125 L105,5.125 L105.375,2.375 L108.625,2.375 L108.25,5.125 L111.5,5.125 L111.25,7.625 L108,7.625 L107.75,9.875 L111.125,9.375 L110.75,12 L107.375,12.375 L106.5,18.25 L100.375,18.25 L99.625,15.625 L103.5,15.625 L103.875,12.875 L100.125,13.25 L99.125,10.625 Z M124.375,15.125 L127.625,15.125 L126.5,17.75 L120.75,17.75 L120.875,16.875 L117.375,16.875 C116.70833,16.20833 116.166669,15.54167 115.75,14.875 C114.916663,15.875 114.041671,16.8333287 113.125,17.75 L108.5,17.75 C110.333342,16.1666587 112.083325,14.375 113.75,12.375 L111.5,8.875 L114.625,8.875 L115.375,10 C115.875002,9.1666625 116.166666,8.5000025 116.25,8 L112.625,8 L112.125,5.375 L116.875,5.375 C117.041668,4.375 117.166666,3.375 117.25,2.375 L120.625,2.375 C120.541666,3.5416725 120.416668,4.5416625 120.25,5.375 L123.875,5.375 C124.708337,5.375 125.249999,5.49999875 125.5,5.75 C125.666668,6.083335 125.708334,6.6666625 125.625,7.5 L124.375,15.125 Z M122.25,8.5 C122.333334,8.166665 122.208335,8 121.875,8 L119.625,8 C119.124998,9.666675 118.416671,11.2499925 117.5,12.75 C118.583339,14 119.749994,15.2499938 121,16.5 L122.25,8.5 Z M122.875,20.375 C123.625004,20.375 124.124999,20.541665 124.375,20.875 C124.625001,21.208335 124.708334,21.7499963 124.625,22.5 C124.124998,26.2500188 123.708335,29.1666562 123.375,31.25 L113.125,31.25 L112.25,28.5 L120,28.5 L120.75,23.625 C120.833334,23.291665 120.708335,23.125 120.375,23.125 L111.125,23.125 C110.791665,23.79167 110.208337,24.5833287 109.375,25.5 C108.541663,26.500005 107.500006,27.5416613 106.25,28.625 C104.91666,29.7083387 103.666673,30.58333 102.5,31.25 L96.375,31.25 C98.4583437,30.3333287 100.583323,29.0833413 102.75,27.5 C104.833344,25.9166587 106.333329,24.45834 107.25,23.125 L99.25,23.125 L98.625,20.375 L108.25,20.375 C108.416667,19.8749975 108.541666,19.125 108.625,18.125 L112.25,18.125 C112.166666,19.125 112.041667,19.8749975 111.875,20.375 L122.875,20.375 Z" id="path-2"></path>
    </defs>
    <g id="text_constellation_50_red" stroke="none" stroke-width="1" fill="none" fill-rule="evenodd">
        <g id="燎原之势" fill-rule="nonzero">
            <use fill="#FFFFFF" xlink:href="#path-2"></use>
            <use fill="url(#linearGradient-1)" xlink:href="#path-2"></use>
        </g>
    </g>
</svg>