<?xml version="1.0" encoding="UTF-8"?>
<svg width="128px" height="34px" viewBox="0 0 128 34" version="1.1" xmlns="http://www.w3.org/2000/svg" xmlns:xlink="http://www.w3.org/1999/xlink">
    <!-- Generator: Sketch 55.2 (78181) - https://sketchapp.com -->
    <title>text_constellation_70_red</title>
    <desc>Created with Sketch.</desc>
    <defs>
        <linearGradient x1="0%" y1="45.3678904%" x2="97.9545427%" y2="53.2954172%" id="linearGradient-1">
            <stop stop-color="#05FEC8" offset="0%"></stop>
            <stop stop-color="#05F8FF" offset="100%"></stop>
        </linearGradient>
        <path d="M3.125,10.625 L8.25,10.25 L8.625,7.625 L4.25,7.625 L4.5,5.125 L9,5.125 L9.375,2.375 L12.625,2.375 L12.25,5.125 L15.5,5.125 L15.25,7.625 L12,7.625 L11.75,9.875 L15.125,9.375 L14.75,12 L11.375,12.375 L10.5,18.25 L4.375,18.25 L3.625,15.625 L7.5,15.625 L7.875,12.875 L4.125,13.25 L3.125,10.625 Z M28.375,15.125 L31.625,15.125 L30.5,17.75 L24.75,17.75 L24.875,16.875 L21.375,16.875 C20.70833,16.20833 20.1666687,15.54167 19.75,14.875 C18.9166625,15.875 18.0416713,16.8333287 17.125,17.75 L12.5,17.75 C14.3333425,16.1666587 16.083325,14.375 17.75,12.375 L15.5,8.875 L18.625,8.875 L19.375,10 C19.8750025,9.1666625 20.1666662,8.5000025 20.25,8 L16.625,8 L16.125,5.375 L20.875,5.375 C21.0416675,4.375 21.1666662,3.375 21.25,2.375 L24.625,2.375 C24.5416662,3.5416725 24.4166675,4.5416625 24.25,5.375 L27.875,5.375 C28.7083375,5.375 29.2499988,5.49999875 29.5,5.75 C29.6666675,6.083335 29.7083338,6.6666625 29.625,7.5 L28.375,15.125 Z M26.25,8.5 C26.3333338,8.166665 26.208335,8 25.875,8 L23.625,8 C23.1249975,9.666675 22.4166713,11.2499925 21.5,12.75 C22.5833387,14 23.7499938,15.2499938 25,16.5 L26.25,8.5 Z M26.875,20.375 C27.6250038,20.375 28.1249987,20.541665 28.375,20.875 C28.6250013,21.208335 28.7083338,21.7499963 28.625,22.5 C28.1249975,26.2500188 27.708335,29.1666562 27.375,31.25 L17.125,31.25 L16.25,28.5 L24,28.5 L24.75,23.625 C24.8333338,23.291665 24.708335,23.125 24.375,23.125 L15.125,23.125 C14.791665,23.79167 14.2083375,24.5833287 13.375,25.5 C12.5416625,26.500005 11.5000063,27.5416613 10.25,28.625 C8.91666,29.7083387 7.6666725,30.58333 6.5,31.25 L0.375,31.25 C2.45834375,30.3333287 4.5833225,29.0833413 6.75,27.5 C8.83334375,25.9166587 10.3333287,24.45834 11.25,23.125 L3.25,23.125 L2.625,20.375 L12.25,20.375 C12.4166675,19.8749975 12.5416663,19.125 12.625,18.125 L16.25,18.125 C16.1666662,19.125 16.0416675,19.8749975 15.875,20.375 L26.875,20.375 Z M47.875,25.75 L45.75,28.5 C44.749995,27.5 43.58334,26.4583387 42.25,25.375 C41.58333,26.2083375 40.6666725,27 39.5,27.75 C38.3333275,28.5833375 37.1666725,29.2916637 36,29.875 C34.8333275,30.4583362 33.7916713,30.8749987 32.875,31.125 L33.75,27.25 C35.0000062,26.8333313 36.1666612,26.2500038 37.25,25.5 C38.3333388,24.83333 39.20833,24.1250038 39.875,23.375 C37.9583237,21.7916587 36.33334,20.5416713 35,19.625 C36.4166738,16.4583175 37.5833287,13.375015 38.5,10.375 L35.25,10.375 L35.875,7.625 L39.25,7.625 C39.7500025,5.7916575 40.1249988,4.08334125 40.375,2.5 L43.875,2.5 C43.541665,4.08334125 43.1250025,5.7916575 42.625,7.625 L47,7.625 C47.4166687,7.625 47.7499988,7.66666625 48,7.75 C48.2500012,7.9166675 48.375,8.2499975 48.375,8.75 C48.375,10.08334 48.1666687,11.7083237 47.75,13.625 C47.3333313,15.5416763 46.8333363,17.2916587 46.25,18.875 C45.58333,20.4583413 44.91667,21.749995 44.25,22.75 C45.0000037,23.3333363 46.208325,24.3333262 47.875,25.75 Z M61.625,5.25 C62.2083363,5.25 62.666665,5.3333325 63,5.5 C63.2500012,5.75 63.2916675,6.33332875 63.125,7.25 L60.125,30.25 L47.875,30.25 L51.375,5.25 L61.625,5.25 Z M59.625,8.25 C59.625,8.0833325 59.5416675,8 59.375,8 L54.5,8 L51.75,27.5 L57,27.5 L59.625,8.25 Z M41.875,10.375 C40.9583287,13.1250138 39.8750062,15.8749862 38.625,18.625 C39.7083388,19.29167 40.749995,19.9999962 41.75,20.75 C43.3333413,17.9999862 44.45833,14.7083525 45.125,10.875 C45.125,10.541665 44.9166687,10.375 44.5,10.375 L41.875,10.375 Z M74.081665,13.1425323 C74.570437,13.1425323 74.9777409,13.1850683 75.3035889,13.2701416 C75.6294369,13.3552149 75.8738192,13.5253588 76.0367432,13.7805786 C76.1182052,14.1208717 76.1182052,14.7589115 76.0367432,15.6947174 L74.5704346,28.8384705 L65.5281982,28.8384705 L66.7501221,19.1401672 L64.9172363,19.1401672 C67.5240202,14.4611379 69.3568876,10.3351466 70.4158936,6.7620697 L66.8723145,6.7620697 L67.2388916,3.95466614 L78.1140137,3.95466614 L77.7474365,6.7620697 L73.5928955,6.7620697 C72.9411995,8.80382796 72.1265918,10.9306276 71.1490479,13.1425323 L74.081665,13.1425323 Z M72.8597412,16.2051544 C72.8597412,15.9499346 72.7375501,15.8223267 72.4931641,15.8223267 L70.4158936,15.8223267 L69.0717773,26.1586761 L71.7600098,26.1586761 L72.8597412,16.2051544 Z M76.8720856,22.8576965 C77.7602227,19.9346066 78.4868695,16.7610136 79.0520477,13.3368225 L79.8998108,6.32144165 L85.9552612,6.32144165 L86.4396973,2.43792725 L89.7096405,2.43792725 L89.2252045,6.32144165 L93.9484558,6.32144165 C94.5943738,6.32144165 95.0384357,6.44671506 95.2806549,6.69726562 C95.4421344,6.94781619 95.4421344,7.40715201 95.2806549,8.07528687 C94.9576959,9.57859028 94.513634,11.2906602 93.9484558,13.2115479 L90.6785126,13.2115479 C91.3244305,11.7082444 91.7281232,10.4137526 91.8896027,9.32803345 C91.9703424,9.24451659 92.0107117,9.16100099 92.0107117,9.07748413 C92.0107117,8.99396727 91.9299731,8.95220947 91.7684937,8.95220947 L88.8618774,8.95220947 L88.1352234,14.4642944 L92.0107117,14.4642944 C92.4951501,14.4642944 92.8584735,14.5060522 93.1006927,14.5895691 C93.2621722,14.7566028 93.3429108,15.0071496 93.3429108,15.341217 C93.3429108,16.2599025 93.1410644,17.2620897 92.7373657,18.3478088 C91.7684888,20.3522134 90.3555645,22.6071347 88.4985504,25.1126404 C89.7903863,27.2005618 91.2033106,29.2466941 92.7373657,31.2510986 L88.4985504,31.2510986 L86.3185883,27.6181335 C85.2689716,28.7873695 84.0982629,29.9983458 82.806427,31.2510986 L78.0831757,31.2510986 L84.7441711,24.8620911 C83.533075,22.4401022 82.5642126,20.2269387 81.8375549,18.2225342 L84.9863892,18.2225342 C85.3093481,19.2247365 85.9148871,20.5609861 86.8030243,22.2313232 C88.0141204,20.4774693 88.9022443,18.9324306 89.4674225,17.5961609 C89.628902,17.2620935 89.5885327,17.0950623 89.3463135,17.0950623 L81.4742279,17.0950623 L77.1143036,31.2510986 L73.6021423,31.2510986 C74.651759,28.7455929 75.5802521,26.407156 76.3876495,24.2357178 L76.8720856,22.8576965 Z M84.8652802,14.4642944 L85.5919342,8.95220947 L82.806427,8.95220947 L81.9586639,14.4642944 L84.8652802,14.4642944 Z M111.375,9.25 L106.375,9.25 L103.25,31.125 L99.5,31.125 L102.25,11.25 C101.58333,12.1666713 100.791671,13 99.875,13.75 C98.9583287,14.5833375 98.0833375,15.2499975 97.25,15.75 L97.875,11.375 C99.0416725,10.4583287 99.9999963,9.4166725 100.75,8.25 C101.500004,7.0833275 102.083331,6.04167125 102.5,5.125 C102.833335,4.20832875 103.041666,3.3333375 103.125,2.5 L106.625,2.5 C106.374999,3.75000625 105.958336,5 105.375,6.25 L111.75,6.25 L111.375,9.25 Z M126.75,6.25 L126.375,9.25 L122.25,9.25 L119.125,31.125 L111.25,31.125 L110.375,28.125 L115.75,28.125 L118.5,9.25 L115.5,9.25 C113.749991,11.5000113 111.583346,13.6666562 109,15.75 L109.625,11.25 C110.458337,10.58333 111.249996,9.750005 112,8.75 C112.750004,7.83332875 113.374998,6.83333875 113.875,5.75 C114.291669,4.66666125 114.583332,3.58333875 114.75,2.5 L118.25,2.5 C117.916665,3.83334 117.541669,5.0833275 117.125,6.25 L126.75,6.25 Z" id="path-2"></path>
    </defs>
    <g id="text_constellation_70_red" stroke="none" stroke-width="1" fill="none" fill-rule="evenodd">
        <g id="势如破竹" fill-rule="nonzero">
            <use fill="#FFFFFF" xlink:href="#path-2"></use>
            <use fill="url(#linearGradient-1)" xlink:href="#path-2"></use>
        </g>
    </g>
</svg>