<?xml version="1.0" encoding="UTF-8"?>
<svg width="128px" height="34px" viewBox="0 0 128 34" version="1.1" xmlns="http://www.w3.org/2000/svg" xmlns:xlink="http://www.w3.org/1999/xlink">
    <!-- Generator: Sketch 55.2 (78181) - https://sketchapp.com -->
    <title>text_constellation_30_red</title>
    <desc>Created with Sketch.</desc>
    <defs>
        <linearGradient x1="0%" y1="45.2401121%" x2="97.9545427%" y2="53.3863224%" id="linearGradient-1">
            <stop stop-color="#05FEC8" offset="0%"></stop>
            <stop stop-color="#05F8FF" offset="100%"></stop>
        </linearGradient>
        <path d="M19.875,4.875 L31.125,4.875 L30.75,7.375 L3.5,7.375 L3.875,4.875 L15.75,4.875 L15,2.5 L19,2.5 L19.875,4.875 Z M24.75,8.625 C26.1666738,8.625 26.7500012,9.29166 26.5,10.625 L25.75,15.625 L6.125,15.625 L7.25,8.625 L24.75,8.625 Z M22.75,11.625 C22.8333338,11.291665 22.708335,11.125 22.375,11.125 L10.5,11.125 L10.25,13.125 L22.5,13.125 L22.75,11.625 Z M27,16.875 C27.5,16.875 27.916665,16.9583325 28.25,17.125 C28.5,17.375 28.5833337,17.9166625 28.5,18.75 L26.75,31.25 L19.75,31.25 L18.75,28.75 L23.625,28.75 L24.875,19.75 C24.875,19.4999987 24.7500012,19.375 24.5,19.375 L6.125,19.375 L4.625,31.25 L1,31.25 L3,16.875 L27,16.875 Z M22.125,22.625 L21.5,27.75 L7.375,27.75 L8.25,20.75 L20.625,20.75 C21.29167,20.75 21.7499987,20.8749987 22,21.125 C22.1666669,21.458335 22.2083338,21.95833 22.125,22.625 Z M18.75,23.5 C18.8333338,23.166665 18.7500013,23 18.5,23 L11.25,23 L10.875,25.625 L18.5,25.625 L18.75,23.5 Z M62.1025238,6.25488281 C62.7552472,6.25488281 63.1468754,6.49113228 63.27742,6.96363831 C63.3426924,7.43614433 63.179514,8.26301747 62.7878799,9.44428253 L61.2213516,13.8149414 L58.382019,13.8149414 L60.0464554,9.32615662 C60.1117277,9.0899036 60.079092,8.97177887 59.9485474,8.97177887 L54.0740662,8.97177887 L52.0179977,14.2874451 L49.0807571,14.2874451 C51.0389273,10.0348908 52.5075329,6.01864988 53.486618,2.23860168 L56.2280426,2.23860168 L55.0531464,6.25488281 L62.1025238,6.25488281 Z M55.9833221,17.1610107 L56.8297501,17.1610107 C57.9583263,22.0804689 59.3376765,26.8358739 60.9678421,31.4273682 L57.8642731,31.4273682 C57.4253823,30.0335217 56.5162651,26.1800039 55.1368942,19.8666992 C54.3218114,22.1624464 53.4126942,24.2941796 52.4095154,26.2619629 C51.3436379,28.2297462 50.2777763,29.9515307 49.2118988,31.4273682 L45.5440445,31.4273682 C46.9234154,29.8695397 48.3654634,27.901786 49.8702316,25.5240479 C51.3749999,23.2283007 52.4722103,20.932588 53.1618958,18.6368408 C53.7888825,16.4230846 54.2277667,14.1683668 54.4785614,11.8726196 L56.9237976,11.8726196 C56.6730029,13.59443 56.3595142,15.3572094 55.9833221,17.1610107 Z M33.7799377,17.7638702 L34.198822,15.6303711 L50.1164246,15.6303711 L49.8022614,17.7638702 L48.1267242,17.7638702 L46.0323029,31.2437057 L39.6443176,31.2437057 L38.9112701,29.1102066 L43.5189972,29.1102066 L45.2992554,17.7638702 L33.7799377,17.7638702 Z M42.3670654,21.0610962 L41.5292969,27.3646164 L33.0468903,27.3646164 L34.198822,19.5094604 L40.6915283,19.5094604 C41.4594867,19.5094604 41.9830868,19.6064367 42.2623444,19.8003922 C42.4717875,20.0589994 42.5066942,20.4792299 42.3670654,21.0610962 Z M39.5395966,21.8369141 C39.5395966,21.7076104 39.5046899,21.6106342 39.4348755,21.5459824 C39.3650611,21.4813305 39.2603411,21.4490051 39.1207123,21.4490051 L36.6074066,21.4490051 L36.1885223,25.3280945 L39.0159912,25.3280945 L39.5395966,21.8369141 Z M41,10.375 C41.0833338,10.1249987 41.0416669,10 40.875,10 L39,10 L38.625,12.375 L40.75,12.375 L41,10.375 Z M44.25,9.375 L43.375,14.75 L35.25,14.75 L36.25,7.75 L43,7.75 C43.4166687,7.75 43.75,7.79166625 44,7.875 C44.25,8.0416675 44.3333338,8.5416625 44.25,9.375 Z M44.75,15.375 L46.125,6.375 L35.375,6.375 L35.625,3.875 L52.125,3.875 L51.75,6.375 L49.5,6.375 L48.125,15.375 L44.75,15.375 Z M49.6644592,18.2088242 L33.5776825,18.2088242 L33.973259,15.627243 L50.0600357,15.627243 L49.6644592,18.2088242 Z M74.6392212,9.25 C75.0205657,10.3333387 75.2493689,11.5 75.3256378,12.75 C75.4019067,14.08334 75.325639,15.74999 75.0968323,17.75 L73.3807907,31.25 L67.6606522,31.25 L66.8598328,28.5 L70.749527,28.5 L72.3511658,16 C72.4274347,15.33333 72.4655685,14.5833375 72.4655685,13.75 C72.4655685,12.9166625 72.3893008,12.2083363 72.236763,11.625 C70.2537717,13.291675 68.3470779,14.45833 66.5166245,15.125 L67.2030411,11.625 C67.8131922,11.3749987 68.499602,10.9583362 69.262291,10.375 C69.948711,9.8749975 70.5969869,9.3750025 71.2071381,8.875 L68.1182632,2.5 L71.4359436,2.5 L73.4951935,6.5 C74.562958,5.08332625 75.3256355,3.75000625 75.7832489,2.5 L79.215332,2.5 C78.2238364,4.833345 76.6984814,7.0833225 74.6392212,9.25 Z M72.3511658,16.25 C71.0545946,19.58335 69.6055073,22.8333175 68.0038605,26 L64.6861801,26 C66.5929025,22.66665 68.1563914,19.4166825 69.3766937,16.25 L72.3511658,16.25 Z M88.9925461,9.33602905 L95.567276,9.33602905 L95.1647415,11.90271 L88.5900116,11.90271 L87.6507645,17.5249634 L79.7342529,17.5249634 L78.7950058,15.0805054 L84.2963104,15.0805054 L84.8330231,11.90271 L76.7823334,11.90271 L77.319046,9.33602905 L85.2355576,9.33602905 L85.3697357,8.72491455 C86.4431664,8.07305582 87.6060321,7.25824464 88.8583679,6.28045654 C88.9478205,6.1989742 88.9925461,6.11749308 88.9925461,6.03601074 L80.0026093,6.03601074 L79.0633621,3.46932983 L94.0913162,3.46932983 C94.7174841,3.46932983 95.0305634,3.67303263 95.0305634,4.08044434 C94.9411108,4.56933838 94.806934,4.97674398 94.6280289,5.30267334 C94.4491238,5.71008504 94.0913189,6.11749064 93.5546036,6.52490234 C92.4811729,7.25824341 90.9605023,8.19527628 88.9925461,9.33602905 Z M92.5680923,21.2034149 L91.5998917,28.7230988 L93.2942429,28.7230988 L92.9311676,31.22966 L73.8092041,31.22966 L74.1722794,28.7230988 L76.5927811,28.7230988 L77.924057,18.9475098 L90.631691,18.9475098 C91.4385289,18.9475098 92.003307,19.0728366 92.3260422,19.323494 C92.5680936,19.6577038 92.6487761,20.2843379 92.5680923,21.2034149 Z M80.3445587,21.454071 L79.376358,28.7230988 L80.8286591,28.7230988 L81.9178848,21.454071 L80.3445587,21.454071 Z M84.8224869,28.7230988 L85.7906876,21.454071 L84.4594116,21.454071 L83.3701859,28.7230988 L84.8224869,28.7230988 Z M89.6634903,22.0807114 C89.7441741,21.9971589 89.7845154,21.8718321 89.7845154,21.7047272 C89.7038316,21.5376223 89.5424664,21.454071 89.300415,21.454071 L88.3322144,21.454071 L87.3640137,28.7230988 L88.8163147,28.7230988 L89.6634903,22.0807114 Z M126.453613,9.70251465 L123.917969,9.70251465 L122.791016,15.6794434 L126.171875,15.6794434 L125.749268,18.0911865 L122.368408,18.0911865 L120.818848,26.6895752 L117.15625,26.6895752 L118.705811,18.0911865 L114.761475,18.0911865 L111.239746,26.6895752 L107.29541,26.6895752 C108.516282,24.6623027 109.784092,21.7962018 111.098877,18.0911865 L108.281494,18.0911865 L108.704102,15.6794434 L111.662354,15.6794434 L113.071045,9.70251465 L110.253662,9.70251465 L110.67627,7.29077148 L113.493652,7.29077148 L114.338867,2.67700195 L117.860596,2.67700195 L117.15625,7.29077148 L120.677979,7.29077148 L121.523193,2.67700195 L125.044922,2.67700195 L124.199707,7.29077148 L127.01709,7.29077148 L126.453613,9.70251465 Z M119.128418,15.6794434 L120.255371,9.70251465 L116.733643,9.70251465 L115.324951,15.6794434 L119.128418,15.6794434 Z M107.525818,10.272522 L103.892853,10.272522 L101.262085,2.53103638 L104.644501,2.53103638 C105.479669,5.11154448 106.440099,7.69201387 107.525818,10.272522 Z M104.268677,25.2560425 C105.354396,26.2549488 107.024708,26.9624969 109.279663,27.3787079 C111.534618,27.8781611 114.290633,28.1278839 117.547791,28.1278839 L126.567566,28.1278839 L125.565369,31.2494507 L117.422516,31.2494507 C114.081842,31.2494507 111.284069,30.9581074 109.029114,30.375412 C106.690642,29.8759588 104.64451,29.0019289 102.890656,27.7532959 L100.760986,31.2494507 L97.0027466,31.2494507 L102.389557,21.7598877 L103.266479,15.8913422 C103.266479,15.7248578 103.224722,15.5999963 103.141205,15.5167542 C103.057688,15.433512 102.932415,15.3918915 102.765381,15.3918915 L99.6335144,15.3918915 L100.134613,12.52005 L105.020325,12.52005 C105.68846,12.52005 106.147795,12.6449115 106.398346,12.8946381 C106.648897,13.1443647 106.732412,13.6021899 106.648895,14.2681274 L105.521423,22.7587891 C105.103839,23.6744532 104.686261,24.5068627 104.268677,25.2560425 Z" id="path-2"></path>
    </defs>
    <g id="text_constellation_30_red" stroke="none" stroke-width="1" fill="none" fill-rule="evenodd">
        <g id="高歌猛进" fill-rule="nonzero">
            <use fill="#FFFFFF" xlink:href="#path-2"></use>
            <use fill="url(#linearGradient-1)" xlink:href="#path-2"></use>
        </g>
    </g>
</svg>