<?xml version="1.0" encoding="UTF-8"?>
<svg width="128px" height="34px" viewBox="0 0 128 34" version="1.1" xmlns="http://www.w3.org/2000/svg" xmlns:xlink="http://www.w3.org/1999/xlink">
    <!-- Generator: Sketch 55.2 (78181) - https://sketchapp.com -->
    <title>text_constellation_60_red</title>
    <desc>Created with Sketch.</desc>
    <defs>
        <linearGradient x1="0%" y1="45.394818%" x2="97.9545427%" y2="53.2762601%" id="linearGradient-1">
            <stop stop-color="#05FEC8" offset="0%"></stop>
            <stop stop-color="#05F8FF" offset="100%"></stop>
        </linearGradient>
        <path d="M30.8575058,14.0109482 L29.7283173,16.8168869 L5.13710022,16.8168869 L6.89361572,2.7871933 L27.720871,2.7871933 C28.4736671,2.7871933 28.9755236,2.92748883 29.2264557,3.20808411 C29.4773877,3.48867938 29.5610305,3.95633116 29.4773865,4.61105347 L28.5991287,11.2050095 L9.40292358,11.2050095 L9.0265274,14.0109482 L30.8575058,14.0109482 Z M25.4624939,5.73342896 L10.1557159,5.73342896 L9.77931976,8.39907074 L25.4624939,8.39907074 L25.7134247,6.01402283 C25.7134247,5.82695931 25.6297819,5.73342896 25.4624939,5.73342896 Z M25.2016373,17.6112061 L24.695137,21.3253784 L30.899765,21.3253784 L30.3932648,24.0810547 L24.1886368,24.0810547 L23.1756363,30.7905273 L19.3768845,30.7905273 L20.51651,24.0810547 L11.7793808,24.0810547 C10.7663752,26.4773069 8.99364212,28.7137754 6.46112823,30.7905273 L1.14287567,30.7905273 C2.57796687,29.8320265 3.92862068,28.7537291 5.19487762,27.555603 C6.46113457,26.3574769 7.38970906,25.1993057 7.98062897,24.0810547 L2.28250122,24.0810547 L2.6623764,21.3253784 L8.86700439,21.3253784 C9.20467291,19.8876271 9.41571257,18.649582 9.5001297,17.6112061 L13.1722565,17.6112061 C13.0878393,18.4898319 12.8767997,19.7278769 12.5391312,21.3253784 L20.8963852,21.3253784 L21.5295105,17.6112061 L25.2016373,17.6112061 Z M36.1546631,2.86553955 L61.4676514,2.86553955 C62.2755167,2.86553955 62.8140856,3.00503401 63.083374,3.2840271 C63.3526625,3.65601789 63.3975432,4.16749756 63.2180176,4.81848145 L62.6794434,8.16638184 L59.1787109,8.16638184 L59.5826416,6.07394409 C59.6724044,5.794951 59.5826429,5.65545654 59.3133545,5.65545654 L38.9821777,5.65545654 L38.5782471,8.02688599 L35.4814453,8.02688599 L36.1546631,2.86553955 Z M45.7937622,12.2003403 C43.8118899,14.8325912 42.3453264,16.6822533 41.3940277,17.749382 L47.1017914,17.749382 L47.6963501,13.5876007 L50.9069672,15.0815735 L50.5502319,17.8560944 L58.7551422,17.8560944 L58.5173187,20.2037659 L50.1934967,20.2037659 L49.7178497,23.5118484 L60.4199066,23.5118484 L59.9442596,25.9662323 L49.3611145,25.9662323 L48.5287323,31.195137 L45.0802917,31.195137 L45.7937622,25.9662323 L33.1891174,25.9662323 L33.5458527,23.5118484 L46.1504974,23.5118484 L46.7450562,20.2037659 L35.2106171,20.2037659 C36.71684,18.6386437 38.8968668,15.9708618 41.7507629,12.2003403 L35.4484406,12.2003403 L35.8051758,9.85266876 L43.4155273,9.85266876 C44.2875512,8.64325618 45.0010145,7.61171386 45.5559387,6.75801086 L49.7178497,6.75801086 C49.2422004,7.54057195 48.5287371,8.57211426 47.5774384,9.85266876 L61.2522888,9.85266876 L60.8955536,12.2003403 L45.7937622,12.2003403 Z M33.2697754,23.340683 L61.5158691,23.340683 L61.0114746,26.3406448 L32.7653809,26.3406448 L33.2697754,23.340683 Z M35.70224,9.59068298 L61.5523376,9.59068298 L61.0907288,12.5906448 L35.2406311,12.5906448 L35.70224,9.59068298 Z M38.0673065,17.0695953 L59.127121,17.0695953 L58.7510529,20.1319504 L37.6912384,20.1319504 L38.0673065,17.0695953 Z M93.625,5 C94.2083363,5 94.6249988,5.12499875 94.875,5.375 C95.0416669,5.62500125 95.0833338,6 95,6.5 L94.25,11 L90.875,11 L91.375,8.125 C91.375,7.87499875 91.2916675,7.75 91.125,7.75 L71.625,7.75 L71.25,11 L67.875,11 L68.625,5 L79.375,5 C79.041665,4 78.7916675,3.16667 78.625,2.5 L82.75,2.5 C82.9166675,3.41667125 83.1249988,4.24999625 83.375,5 L93.625,5 Z M80.5,8.75 C79.16666,10.3333413 77.16668,12.4166538 74.5,15 L69.125,15 C72.0416812,13.0833237 74.3749912,11.0000113 76.125,8.75 L80.5,8.75 Z M91.125,14.625 L86.25,14.625 C84.8333262,12.958325 83.4166738,11.0000113 82,8.75 L85.75,8.75 C87.5833425,11.083345 89.3749913,13.0416587 91.125,14.625 Z M88.625,15.375 C88.8750012,16.04167 89.33333,16.874995 90,17.875 L93.5,17.875 L93.125,20.625 L80.875,20.625 C80.2916637,21.7083387 79.5416712,22.8749938 78.625,24.125 C77.7083287,25.45834 76.58334,26.75 75.25,28 C73.91666,29.33334 72.6666725,30.4166625 71.5,31.25 L65,31.25 C67.333345,30.0833275 69.6249887,28.50001 71.875,26.5 C74.2916788,24.4166562 76,22.4583425 77,20.625 L66.125,20.625 L66.625,17.875 L77.875,17.875 C78.2916687,16.7083275 78.5416662,15.3333413 78.625,13.75 L82.25,13.75 C82.0833325,15.5000087 81.8750012,16.874995 81.625,17.875 L86,17.875 C85.5833313,16.9583287 85.2500012,16.1250038 85,15.375 L88.625,15.375 Z M80.625,22.625 L84.625,22.625 C86.3750087,24.7916775 87.7916613,26.4999938 88.875,27.75 C89.875005,29.08334 90.9166613,30.249995 92,31.25 L86.75,31.25 C85.4999938,29.7499925 83.4583475,26.8750212 80.625,22.625 Z M108.25,26.75 C109.416673,27.083335 111.083322,27.3749987 113.25,27.625 C115.416678,27.8750013 118.583313,28 122.75,28 L126.75,28 L125,31.125 L122.25,31.125 C117.749977,31.125 114.375011,30.958335 112.125,30.625 C109.874989,30.291665 108.041674,29.7500037 106.625,29 C105.124992,28.33333 103.666674,27.33334 102.25,26 C101.499996,28.2500113 100.916669,29.9583275 100.5,31.125 L96.75,31.125 C98.5833425,26.6249775 99.999995,22.0833563 101,17.5 L104.375,17.5 C104.041665,19.166675 103.625002,20.9583237 103.125,22.875 C103.79167,23.7916713 104.45833,24.5416637 105.125,25.125 L106.25,15.875 L99.875,15.875 L100.25,13.125 L105.375,13.125 L105.875,9.25 L102,9.25 L102.375,6.5 L106.25,6.5 L106.75,2.5 L110.125,2.5 L109.625,6.5 L113.75,6.5 L113.375,9.25 L109.375,9.25 L108.875,13.125 L113.875,13.125 L113.5,15.875 L109.625,15.875 L109.125,19.5 L112.75,19.5 L112.375,22.25 L108.75,22.25 L108.25,26.75 Z M125.5,4 C126.16667,4 126.666665,4.0833325 127,4.25 C127.333334,4.4166675 127.416667,4.95832875 127.25,5.875 L126,15 L118.5,15 L117.5,22.125 L126.75,22.125 L125.375,25.25 L113.625,25.25 L115.5,12.375 L123,12.375 L123.625,7.25 C123.708334,6.916665 123.583335,6.75 123.25,6.75 L115.25,6.75 L115.625,4 L125.5,4 Z" id="path-2"></path>
    </defs>
    <g id="text_constellation_60_red" stroke="none" stroke-width="1" fill="none" fill-rule="evenodd">
        <g id="异军突起" fill-rule="nonzero">
            <use fill="#000000" xlink:href="#path-2"></use>
            <use fill="url(#linearGradient-1)" xlink:href="#path-2"></use>
        </g>
    </g>
</svg>