<?xml version="1.0" encoding="UTF-8"?>
<svg width="128px" height="34px" viewBox="0 0 128 34" version="1.1" xmlns="http://www.w3.org/2000/svg" xmlns:xlink="http://www.w3.org/1999/xlink">
    <!-- Generator: Sketch 55.2 (78181) - https://sketchapp.com -->
    <title>text_constellation_40_red</title>
    <desc>Created with Sketch.</desc>
    <defs>
        <linearGradient x1="0%" y1="45.152698%" x2="97.9545427%" y2="53.4485113%" id="linearGradient-1">
            <stop stop-color="#05FEC8" offset="0%"></stop>
            <stop stop-color="#05F8FF" offset="100%"></stop>
        </linearGradient>
        <path d="M26.75,15.75 C25.9999963,20.0000212 25.2083375,24.2083125 24.375,28.375 L28.125,28.375 L27.125,31.25 L20,31.25 C21.000005,26.3333088 21.8749962,21.708355 22.625,17.375 L22.625,16.75 C22.5416662,16.5833325 22.2916687,16.5 21.875,16.5 L4.25,16.5 L3.625,13.625 L24.5,13.625 C25.500005,13.625 26.166665,13.791665 26.5,14.125 C26.7500012,14.458335 26.8333338,14.9999962 26.75,15.75 Z M27.375,8.875 L26.875,11.75 L7.5,11.75 L7.875,8.875 L27.375,8.875 Z M11.875,4.25 L30.5,4.25 L30,7.125 L9.625,7.125 C8.54166125,8.20833875 7.29167375,9.20832875 5.875,10.125 C4.45832625,11.125005 3.04167375,11.9166638 1.625,12.5 L2.5,8.25 C3.500005,7.7499975 4.45832875,7.16667 5.375,6.5 C6.29167125,5.83333 7.04166375,5.12500375 7.625,4.375 C8.125,3.70833 8.49999875,3.08333625 8.75,2.5 L12.75,2.5 C12.4999987,3.08333625 12.208335,3.66666375 11.875,4.25 Z M35.125,10.625 L40.25,10.25 L40.625,7.625 L36.25,7.625 L36.5,5.125 L41,5.125 L41.375,2.375 L44.625,2.375 L44.25,5.125 L47.5,5.125 L47.25,7.625 L44,7.625 L43.75,9.875 L47.125,9.375 L46.75,12 L43.375,12.375 L42.5,18.25 L36.375,18.25 L35.625,15.625 L39.5,15.625 L39.875,12.875 L36.125,13.25 L35.125,10.625 Z M60.375,15.125 L63.625,15.125 L62.5,17.75 L56.75,17.75 L56.875,16.875 L53.375,16.875 C52.70833,16.20833 52.1666687,15.54167 51.75,14.875 C50.9166625,15.875 50.0416713,16.8333287 49.125,17.75 L44.5,17.75 C46.3333425,16.1666587 48.083325,14.375 49.75,12.375 L47.5,8.875 L50.625,8.875 L51.375,10 C51.8750025,9.1666625 52.1666663,8.5000025 52.25,8 L48.625,8 L48.125,5.375 L52.875,5.375 C53.0416675,4.375 53.1666662,3.375 53.25,2.375 L56.625,2.375 C56.5416662,3.5416725 56.4166675,4.5416625 56.25,5.375 L59.875,5.375 C60.7083375,5.375 61.2499988,5.49999875 61.5,5.75 C61.6666675,6.083335 61.7083337,6.6666625 61.625,7.5 L60.375,15.125 Z M58.25,8.5 C58.3333337,8.166665 58.208335,8 57.875,8 L55.625,8 C55.1249975,9.666675 54.4166713,11.2499925 53.5,12.75 C54.5833387,14 55.7499938,15.2499938 57,16.5 L58.25,8.5 Z M58.875,20.375 C59.6250038,20.375 60.1249988,20.541665 60.375,20.875 C60.6250012,21.208335 60.7083338,21.7499963 60.625,22.5 C60.1249975,26.2500188 59.708335,29.1666562 59.375,31.25 L49.125,31.25 L48.25,28.5 L56,28.5 L56.75,23.625 C56.8333338,23.291665 56.708335,23.125 56.375,23.125 L47.125,23.125 C46.791665,23.79167 46.2083375,24.5833287 45.375,25.5 C44.5416625,26.500005 43.5000062,27.5416613 42.25,28.625 C40.91666,29.7083387 39.6666725,30.58333 38.5,31.25 L32.375,31.25 C34.4583437,30.3333287 36.5833225,29.0833413 38.75,27.5 C40.8333437,25.9166587 42.3333288,24.45834 43.25,23.125 L35.25,23.125 L34.625,20.375 L44.25,20.375 C44.4166675,19.8749975 44.5416663,19.125 44.625,18.125 L48.25,18.125 C48.1666663,19.125 48.0416675,19.8749975 47.875,20.375 L58.875,20.375 Z M79.875,25.75 L77.75,28.5 C76.749995,27.5 75.58334,26.4583387 74.25,25.375 C73.58333,26.2083375 72.6666725,27 71.5,27.75 C70.3333275,28.5833375 69.1666725,29.2916637 68,29.875 C66.8333275,30.4583362 65.7916713,30.8749987 64.875,31.125 L65.75,27.25 C67.0000062,26.8333313 68.1666613,26.2500038 69.25,25.5 C70.3333387,24.83333 71.20833,24.1250038 71.875,23.375 C69.9583238,21.7916587 68.33334,20.5416713 67,19.625 C68.4166738,16.4583175 69.5833287,13.375015 70.5,10.375 L67.25,10.375 L67.875,7.625 L71.25,7.625 C71.7500025,5.7916575 72.1249988,4.08334125 72.375,2.5 L75.875,2.5 C75.541665,4.08334125 75.1250025,5.7916575 74.625,7.625 L79,7.625 C79.4166687,7.625 79.7499988,7.66666625 80,7.75 C80.2500012,7.9166675 80.375,8.2499975 80.375,8.75 C80.375,10.08334 80.1666687,11.7083237 79.75,13.625 C79.3333313,15.5416763 78.8333363,17.2916587 78.25,18.875 C77.58333,20.4583413 76.91667,21.749995 76.25,22.75 C77.0000037,23.3333363 78.208325,24.3333262 79.875,25.75 Z M93.625,5.25 C94.2083363,5.25 94.666665,5.3333325 95,5.5 C95.2500012,5.75 95.2916675,6.33332875 95.125,7.25 L92.125,30.25 L79.875,30.25 L83.375,5.25 L93.625,5.25 Z M91.625,8.25 C91.625,8.0833325 91.5416675,8 91.375,8 L86.5,8 L83.75,27.5 L89,27.5 L91.625,8.25 Z M73.875,10.375 C72.9583287,13.1250138 71.8750062,15.8749862 70.625,18.625 C71.7083387,19.29167 72.749995,19.9999962 73.75,20.75 C75.3333413,17.9999862 76.45833,14.7083525 77.125,10.875 C77.125,10.541665 76.9166687,10.375 76.5,10.375 L73.875,10.375 Z M106.16256,18.7027435 L107.593254,18.7027435 L108.666275,10.561348 C108.666275,10.4803386 108.626534,10.4398346 108.54705,10.4398346 L107.354805,10.4398346 L106.16256,18.7027435 Z M102.824272,10.4398346 L101.751251,18.7027435 L103.062721,18.7027435 L104.254967,10.4398346 L102.824272,10.4398346 Z M110.335419,7.76654053 C110.891803,7.76654053 111.289214,7.84754863 111.527664,8.00956726 C111.766114,8.25259521 111.845597,8.77914787 111.766113,9.58924103 L110.216194,21.2545242 L105.804886,21.2545242 L105.208763,25.7505188 L106.997131,25.2644653 L106.520233,22.1051178 L109.620071,22.1051178 C109.858522,24.7784252 110.335415,27.4516926 111.050766,30.125 L107.950928,30.125 L107.47403,27.6947327 C104.056242,28.6668445 100.400059,29.4769255 96.5053711,30.125 L96.8630447,27.3301926 C98.5321968,27.0871646 100.241065,26.7631322 101.9897,26.3580856 L102.705048,21.2545242 L98.2937393,21.2545242 L100.320557,7.76654053 L104.61264,7.76654053 L105.447212,2.17692566 L108.54705,2.17692566 L107.712479,7.76654053 L110.335419,7.76654053 Z M127.188759,7.71138 L121.866379,7.71138 L118.880653,28.5818558 L124.981918,28.5818558 L124.592476,31.6175613 L109.534035,31.6175613 L109.923477,28.5818558 L115.116043,28.5818558 L118.231583,7.71138 L112.779388,7.71138 L113.298645,4.67567444 L127.578201,4.67567444 L127.188759,7.71138 Z" id="path-2"></path>
    </defs>
    <g id="text_constellation_40_red" stroke="none" stroke-width="1" fill="none" fill-rule="evenodd">
        <g id="气势如虹" fill-rule="nonzero">
            <use fill="#FFFFFF" xlink:href="#path-2"></use>
            <use fill="url(#linearGradient-1)" xlink:href="#path-2"></use>
        </g>
    </g>
</svg>