<?xml version="1.0" encoding="UTF-8"?>
<svg width="128px" height="34px" viewBox="0 0 128 34" version="1.1" xmlns="http://www.w3.org/2000/svg" xmlns:xlink="http://www.w3.org/1999/xlink">
    <!-- Generator: Sketch 55.2 (78181) - https://sketchapp.com -->
    <title>text_constellation_20_red</title>
    <desc>Created with Sketch.</desc>
    <defs>
        <linearGradient x1="0%" y1="45.3492671%" x2="97.9545427%" y2="53.3086663%" id="linearGradient-1">
            <stop stop-color="#05FEC8" offset="0%"></stop>
            <stop stop-color="#05F8FF" offset="100%"></stop>
        </linearGradient>
        <path d="M2.25,15 L30.25,15 L29.75,18.625 L1.75,18.625 L2.25,15 Z M59.375,3 C60.125,3 60.7083313,3.0833325 61.125,3.25 C61.5416687,3.5 61.6666675,4.08332875 61.5,5 L58.25,30.625 L34.625,30.625 L38.75,3 L59.375,3 Z M56.5,6 L42.25,6 L40.875,14.75 L56.375,14.75 L57.375,7 C57.4583338,6.666665 57.4583338,6.4166675 57.375,6.25 C57.2083325,6.0833325 56.9166687,6 56.5,6 Z M39,27.625 L54.75,27.625 L56,17.75 L40.5,17.875 L39,27.625 Z M94.5,14.5 L94,17.625 L81.5,17.625 L79.625,31.125 L75.625,31.125 L77.625,17.625 L65.5,17.625 L65.875,14.5 L78,14.5 L79,7.5 C75.4166488,7.833335 71.95835,8.0833325 68.625,8.25 L69.125,5.125 C72.9583525,4.87499875 76.9583125,4.5 81.125,4 C85.2916875,3.58333125 89.1249825,3.08333625 92.625,2.5 L92.25,5.75 C89.58332,6.16666875 86.5000175,6.58333125 83,7 L81.875,14.5 L94.5,14.5 Z M124.875,18.625 L114.75,18.625 L114.25,22 L124.625,22 L124.125,24.625 L113.875,24.625 L113.375,28 L125.75,28 L125.375,30.75 L97.25,30.75 L97.625,28 L109.5,28 L110,24.625 L100.125,24.625 L100.625,22 L110.375,22 L110.875,18.625 L101,18.625 L103.375,3 L124.375,3 C125.291671,3 125.958331,3.20833125 126.375,3.625 C126.708335,4.1250025 126.833334,4.874995 126.75,5.875 L124.875,18.625 Z M112.75,5.75 L106.625,5.75 L106,9.375 L112.25,9.375 L112.75,5.75 Z M123,6.25 C123,5.916665 122.833335,5.75 122.5,5.75 L116.625,5.75 L116.125,9.375 L122.5,9.375 L123,6.25 Z M105.125,15.875 L111.25,15.875 L111.875,12.125 L105.625,12.125 L105.125,15.875 Z M115.125,15.875 L121.5,15.875 L122.125,12.125 L115.625,12.125 L115.125,15.875 Z" id="path-2"></path>
    </defs>
    <g id="text_constellation_20_red" stroke="none" stroke-width="1" fill="none" fill-rule="evenodd">
        <g id="一日千里" fill-rule="nonzero">
            <use fill="#FFFFFF" xlink:href="#path-2"></use>
            <use fill="url(#linearGradient-1)" xlink:href="#path-2"></use>
        </g>
    </g>
</svg>