<?xml version="1.0" encoding="UTF-8"?>
<svg width="128px" height="34px" viewBox="0 0 128 34" version="1.1" xmlns="http://www.w3.org/2000/svg" xmlns:xlink="http://www.w3.org/1999/xlink">
    <title>text_constellation_80_red</title>
    <defs>
        <linearGradient x1="0%" y1="45.3857047%" x2="97.9545427%" y2="53.2827436%" id="linearGradient-1">
            <stop stop-color="#05FEC8" offset="0%"></stop>
            <stop stop-color="#05F8FF" offset="100%"></stop>
        </linearGradient>
        <path d="M10.7425232,18.875 L8.27854156,19.75 L6.7532196,31.25 L1.59059143,31.25 L0.769264221,28.375 L3.9372406,28.375 L4.99323273,20.875 L2.64658356,21.75 L1.59059143,18.875 L5.3452301,17.875 L6.28388977,11.375 L3.11591339,11.375 L3.58524323,8.625 L6.63588715,8.625 L7.45721436,2.5 L10.5078583,2.5 L9.68653107,8.625 L12.3851776,8.625 L11.9158478,11.375 L9.33453369,11.375 L8.63053894,16.75 L11.211853,15.75 L10.7425232,18.875 Z M31.3924408,4.00059509 L30.6318207,10.4135971 L13.0424805,10.4135971 L13.8031006,4.00059509 L16.465271,4.00059509 L15.9898834,7.8483963 L20.7437592,7.8483963 L21.3142242,2.83459473 L23.9763947,2.83459473 L23.5010071,7.8483963 L28.2548828,7.8483963 L28.6351929,4.00059509 L31.3924408,4.00059509 Z M19.3538055,11.0332642 C18.7243773,12.9769384 17.8152169,14.6849902 16.626297,16.1574707 L14.1085968,31.2650452 L11.4859924,31.2650452 L13.4791718,19.6030579 C12.7798071,20.1331508 11.8706467,20.692685 10.7516632,21.2816772 L11.3810883,18.0127869 C11.94058,17.6593915 12.535031,17.1587557 13.1644592,16.5108643 C13.723951,15.8629728 14.318402,15.0383961 14.9478302,14.0371094 C15.5772584,13.0358226 16.0318386,12.0345509 16.3115845,11.0332642 L19.3538055,11.0332642 Z M29.1204834,21.7529907 L24.1139679,21.7529907 L23.8572235,23.852478 L28.863739,23.852478 L28.4786224,26.3018799 L23.6004791,26.3018799 L23.3437347,28.6346436 L29.2488556,28.6346436 L28.863739,31.0840454 L14.3576813,31.0840454 L14.7427979,28.6346436 L20.2628021,28.6346436 L20.6479187,26.3018799 L15.1279144,26.3018799 L15.513031,23.852478 L21.0330353,23.852478 L21.2897797,21.7529907 L15.7697754,21.7529907 L16.154892,19.1869507 L21.6748962,19.1869507 L21.9316406,17.2041016 L16.4116364,17.2041016 L16.7967529,14.7546997 L22.188385,14.7546997 C21.9316393,14.0548671 21.6321072,13.005134 21.2897797,11.6054688 L24.3707123,11.6054688 C24.7130398,12.6940972 25.0553623,13.7438304 25.3976898,14.7546997 L31.0460663,14.7546997 L30.5325775,17.2041016 L24.7558289,17.2041016 L24.4990845,19.1869507 L29.5056,19.1869507 L29.1204834,21.7529907 Z M46.5089417,10.25 L42.9416428,10.25 L40.179863,31.125 L37.0728607,31.125 L39.8346405,10.25 L35.5768967,10.25 L36.0371933,7.625 L40.2949371,7.625 L40.9853821,2.5 L43.9773102,2.5 L43.2868652,7.625 L46.8541641,7.625 L46.5089417,10.25 Z M36.3824158,12.75 L39.0291214,12.75 C37.8016576,18.9166975 36.5742122,24.0416462 35.3467484,28.125 L32.4698944,28.125 C34.0809407,22.7083062 35.3851014,17.5833575 36.3824158,12.75 Z M43.1717911,12.75 L45.7034225,12.75 L44.7828293,26 L42.1361237,26 L43.1717911,12.75 Z M57.6691132,4.02857971 L57.1612701,7.93275452 L63.6362686,7.93275452 L63.2553864,11.3489075 L56.7803879,11.3489075 L56.1455841,17.2051697 L58.8117599,17.2051697 C59.7428101,17.2051697 60.4199274,17.3136179 60.843132,17.5305176 C61.2663366,17.8558671 61.5202556,18.2354359 61.6048965,18.6692352 C61.6048965,19.2114844 61.5625767,19.8079496 61.4779358,20.4586487 L60.2083282,31.3578033 L46.1156845,31.3578033 L47.7661743,17.2051697 L52.9715652,17.2051697 L53.606369,11.3489075 L47.2583313,11.3489075 L47.6392136,7.93275452 L53.9872513,7.93275452 L54.4950943,4.02857971 L57.6691132,4.02857971 Z M58.3039169,20.9466705 C58.3039169,20.621321 58.1769574,20.4586487 57.9230347,20.4586487 L50.4323502,20.4586487 L49.6705856,27.7789764 L57.4151917,27.7789764 L58.3039169,20.9466705 Z M77.125,18.25 L73.25,19.625 L71.625,31.25 L65.5,31.25 L64.625,28.375 L68.625,28.375 L69.625,20.875 L66.625,22 L65,19.375 L70.125,17.625 L71.125,10.5 L67,10.5 L67.375,7.625 L71.5,7.625 L72.25,2.375 L75.625,2.375 L75,7.625 L78,7.625 L77.5,10.5 L74.5,10.5 L73.75,16.375 L77.375,15.125 L77.125,18.25 Z M89.25,6.75 L95.5,6.75 L95.125,9.625 L78.75,9.625 L79.125,6.75 L85.25,6.75 C84.8333313,5.49999375 84.5000012,4.041675 84.25,2.375 L88.125,2.375 C88.3750012,3.62500625 88.75,5.083325 89.25,6.75 Z M89.625,12.625 L93.25,12.625 C91.3333238,18.2083612 89.2916775,23.4166425 87.125,28.25 L92.75,28.25 L92.375,31.25 L74.375,31.25 L74.875,28.25 L83.625,28.25 C86.0416787,22.6666388 88.0416587,17.4583575 89.625,12.625 Z M82.25,12.625 C82.583335,15.7916825 83.1666625,20.0833062 84,25.5 L80.625,25.5 C80.2083313,22.7499862 79.8750012,20.37501 79.625,18.375 C79.3749988,16.4583237 79.2083337,14.5416763 79.125,12.625 L82.25,12.625 Z M111.911865,10.25 L107.989563,10.25 L104.952942,31.125 L101.536743,31.125 L104.573364,10.25 L99.8919067,10.25 L100.39801,7.625 L105.079468,7.625 L105.838623,2.5 L109.128296,2.5 L108.369141,7.625 L112.291443,7.625 L111.911865,10.25 Z M100.777588,12.75 L103.687683,12.75 C102.338067,18.9166975 100.988471,24.0416462 99.638855,28.125 L96.475708,28.125 C98.2470792,22.7083062 99.6810248,17.5833575 100.777588,12.75 Z M108.242615,12.75 L111.026184,12.75 L110.013977,26 L107.103882,26 L108.242615,12.75 Z M127.486496,6.66259766 L118.867874,6.66259766 L116.897903,13.8634796 L124.039047,13.8634796 C124.695707,13.8634796 125.147155,14.0290155 125.393402,14.3600922 C125.557567,14.6911689 125.598608,15.2705444 125.516525,16.0982361 C125.02403,19.9883872 124.244258,25.0372309 123.177185,31.2449188 L113.819824,31.2449188 L112.957962,28.2652435 L119.975983,28.2652435 C120.796808,23.6301699 121.412418,19.946997 121.82283,17.2156143 L121.82283,16.967308 C121.82283,16.8845389 121.699708,16.8431549 121.453461,16.8431549 L112.465469,16.8431549 L115.297302,6.66259766 L111.480484,6.66259766 L111.972977,3.8070755 L127.855865,3.8070755 L127.486496,6.66259766 Z" id="path-2"></path>
    </defs>
    <g id="text_constellation_80_red" stroke="none" stroke-width="1" fill="none" fill-rule="evenodd">
        <g id="摧枯拉朽" fill-rule="nonzero">
            <use fill="#FFFFFF" xlink:href="#path-2"></use>
            <use fill="url(#linearGradient-1)" xlink:href="#path-2"></use>
        </g>
    </g>
</svg>