<?xml version="1.0" encoding="UTF-8"?>
<svg width="128px" height="34px" viewBox="0 0 128 34" version="1.1" xmlns="http://www.w3.org/2000/svg" xmlns:xlink="http://www.w3.org/1999/xlink">
    <!-- Generator: Sketch 55.2 (78181) - https://sketchapp.com -->
    <title>text_constellation_10_red</title>
    <desc>Created with Sketch.</desc>
    <defs>
        <linearGradient x1="0%" y1="45.0638175%" x2="97.9545427%" y2="53.5117435%" id="linearGradient-1">
            <stop stop-color="#05FEC8" offset="0%"></stop>
            <stop stop-color="#05F8FF" offset="100%"></stop>
        </linearGradient>
        <path d="M23.0613708,3.78256226 L29.9724121,3.78256226 L29.6149445,5.92886353 L22.7039032,5.92886353 L22.3464355,7.7532196 L19.1292267,7.7532196 L19.3675385,5.92886353 L13.0522766,5.92886353 L12.8139648,7.7532196 L9.4776001,7.7532196 L9.71591187,5.92886353 L3.28149414,5.92886353 L3.63896179,3.78256226 L10.0733795,3.78256226 L10.4308472,2.06552124 L13.648056,2.06552124 L13.4097443,3.78256226 L19.7250061,3.78256226 L19.9633179,2.06552124 L23.2996826,2.06552124 L23.0613708,3.78256226 Z M18.8345413,8.97581482 L29.6332245,8.97581482 L29.2922134,11.563179 L3.83005524,11.563179 L4.17106628,8.97581482 L15.0834198,8.97581482 L14.6287384,7.205513 L18.3798599,7.205513 L18.8345413,8.97581482 Z M15.6308594,11.4489746 L11.9775085,13.6431885 L16.7932892,13.6431885 L19.4502716,12.2169495 L25.7606049,12.2169495 L13.3059998,18.0316162 L21.6090698,18.0316162 L20.2805786,16.0568237 L24.4321136,16.0568237 C25.5391952,17.5927811 26.7569666,19.0190059 28.0854645,20.3355408 L23.2696838,20.3355408 L22.107254,18.6898804 L20.9448242,20.2258301 L3.17625427,20.2258301 L12.4756927,15.7276917 L3.84049988,15.7276917 L10.8150787,11.4489746 L15.6308594,11.4489746 Z M24.9616394,21.3349762 C26.5467914,21.3349762 27.2072615,21.8545785 26.9430695,22.8937988 L25.3579254,31.6405258 L2.24124146,31.6405258 L4.09057617,21.3349762 L24.9616394,21.3349762 Z M13.7335358,23.1536026 L6.86457825,23.1536026 L6.46829224,25.5784378 L13.3372498,25.5784378 L13.7335358,23.1536026 Z M23.640686,23.1536026 L16.7717285,23.1536026 L16.3754425,25.5784378 L23.2444,25.5784378 L23.640686,23.1536026 Z M6.20410156,27.3970642 L5.67572021,29.9085007 L12.6767731,29.9085007 L13.0730591,27.3970642 L6.20410156,27.3970642 Z M15.7149658,29.9085007 L22.451828,29.9085007 L22.848114,27.3970642 L16.1112518,27.3970642 L15.7149658,29.9085007 Z M35.125,10.625 L40.25,10.25 L40.625,7.625 L36.25,7.625 L36.5,5.125 L41,5.125 L41.375,2.375 L44.625,2.375 L44.25,5.125 L47.5,5.125 L47.25,7.625 L44,7.625 L43.75,9.875 L47.125,9.375 L46.75,12 L43.375,12.375 L42.5,18.25 L36.375,18.25 L35.625,15.625 L39.5,15.625 L39.875,12.875 L36.125,13.25 L35.125,10.625 Z M60.375,15.125 L63.625,15.125 L62.5,17.75 L56.75,17.75 L56.875,16.875 L53.375,16.875 C52.70833,16.20833 52.1666687,15.54167 51.75,14.875 C50.9166625,15.875 50.0416713,16.8333287 49.125,17.75 L44.5,17.75 C46.3333425,16.1666587 48.083325,14.375 49.75,12.375 L47.5,8.875 L50.625,8.875 L51.375,10 C51.8750025,9.1666625 52.1666663,8.5000025 52.25,8 L48.625,8 L48.125,5.375 L52.875,5.375 C53.0416675,4.375 53.1666662,3.375 53.25,2.375 L56.625,2.375 C56.5416662,3.5416725 56.4166675,4.5416625 56.25,5.375 L59.875,5.375 C60.7083375,5.375 61.2499988,5.49999875 61.5,5.75 C61.6666675,6.083335 61.7083337,6.6666625 61.625,7.5 L60.375,15.125 Z M58.25,8.5 C58.3333337,8.166665 58.208335,8 57.875,8 L55.625,8 C55.1249975,9.666675 54.4166713,11.2499925 53.5,12.75 C54.5833387,14 55.7499938,15.2499938 57,16.5 L58.25,8.5 Z M58.875,20.375 C59.6250038,20.375 60.1249988,20.541665 60.375,20.875 C60.6250012,21.208335 60.7083338,21.7499963 60.625,22.5 C60.1249975,26.2500188 59.708335,29.1666562 59.375,31.25 L49.125,31.25 L48.25,28.5 L56,28.5 L56.75,23.625 C56.8333338,23.291665 56.708335,23.125 56.375,23.125 L47.125,23.125 C46.791665,23.79167 46.2083375,24.5833287 45.375,25.5 C44.5416625,26.500005 43.5000062,27.5416613 42.25,28.625 C40.91666,29.7083387 39.6666725,30.58333 38.5,31.25 L32.375,31.25 C34.4583437,30.3333287 36.5833225,29.0833413 38.75,27.5 C40.8333437,25.9166587 42.3333288,24.45834 43.25,23.125 L35.25,23.125 L34.625,20.375 L44.25,20.375 C44.4166675,19.8749975 44.5416663,19.125 44.625,18.125 L48.25,18.125 C48.1666663,19.125 48.0416675,19.8749975 47.875,20.375 L58.875,20.375 Z M77.1604614,2.52886963 C76.2001498,4.61933418 74.759704,6.4589154 72.8390808,8.04766846 C70.8311565,9.7200401 68.7359627,10.9324914 66.5534363,11.6850586 L67.4700928,7.79681396 C68.6050065,7.29510247 69.7399032,6.58435518 70.8748169,5.66455078 C71.9224296,4.74474638 72.7081273,3.69952978 73.2319336,2.52886963 L77.1604614,2.52886963 Z M76.3747559,9.8036499 C75.4144443,11.6432587 74.1922478,13.3992226 72.7081299,15.0715942 L70.4819641,31.0008545 L66.6843872,31.0008545 L68.5177002,18.5835571 C67.4700875,19.3361244 66.3788407,19.9632543 65.243927,20.4649658 L66.0296326,16.4512939 C67.2518473,15.6987267 68.4303939,14.6953188 69.5653076,13.44104 C70.7002213,12.2703799 71.6605185,11.0579286 72.446228,9.8036499 L76.3747559,9.8036499 Z M94.7290955,14.5929794 L75.1452103,14.5929794 L75.5029068,11.4778748 L83.9981995,11.4778748 L84.2664719,8.21443176 L77.4702377,8.21443176 L77.7385101,5.24766541 L84.5347443,5.24766541 L84.8030167,2.57757568 L87.3068924,2.57757568 L87.03862,5.24766541 L93.6560059,5.24766541 L93.2983093,8.21443176 L86.8597717,8.21443176 L86.5914993,11.4778748 L94.9973679,11.4778748 L94.7290955,14.5929794 Z M90.2360382,15.6505203 L89.9536591,18.0651932 L93.9069672,18.0651932 L93.4833984,21.2344513 L89.5300903,21.2344513 L88.5417633,31.1949768 L81.9058533,31.1949768 L81.0587158,28.1766357 L85.7179718,28.1766357 L86.4239197,21.2344513 L74.9875641,21.2344513 L75.2699432,18.0651932 L86.7062988,18.0651932 L86.988678,15.6505203 L90.2360382,15.6505203 Z M80.0703888,22.2908707 L82.8941803,26.9692993 L78.5173035,26.9692993 L76.3994598,22.2908707 L80.0703888,22.2908707 Z M127.25,12.875 L112.25,12.875 L110.75,16.125 L122.875,16.125 C123.375002,16.125 123.749999,16.2083325 124,16.375 C124.250001,16.5416675 124.375,16.9166637 124.375,17.5 L124.375,18.375 C124.291666,18.708335 124,19.1666638 123.5,19.75 C122.749996,20.6666713 121.833339,21.624995 120.75,22.625 C119.666661,23.7083387 118.625005,24.6666625 117.625,25.5 C119.62501,27 122.333316,28.8749887 125.75,31.125 L119.625,31.125 C118.124992,29.9583275 116.541675,28.6666738 114.875,27.25 C112.624989,28.916675 110.666675,30.2083287 109,31.125 L102.75,31.125 C106.333351,29.2083237 109.624985,27.25001 112.625,25.25 L108.125,21 C106.12499,24.4166838 103.708348,27.79165 100.875,31.125 L96.5,31.125 C101.500025,25.5416388 105.458319,19.4583663 108.375,12.875 L99.875,12.875 C101.541675,9.79165125 102.916661,6.79168125 104,3.875 L107.875,3.875 C107.041663,6.0416775 106.083339,8.12499 105,10.125 L109.625,10.125 C110.625005,7.2916525 111.374998,4.75001125 111.875,2.5 L115.625,2.5 C115.374999,3.58333875 115.041669,4.83332625 114.625,6.25 C114.208331,7.66667375 113.791669,8.9583275 113.375,10.125 L127.625,10.125 L127.25,12.875 Z M125.25,9 L121.125,9 C120.124995,7.08332375 119.250004,5.25000875 118.5,3.5 L122.125,3.5 C123.041671,5.3333425 124.083327,7.1666575 125.25,9 Z M119.375,19 L109.25,19 L108.5,20.375 L111.75,20.375 C112.916673,21.5416725 114.041661,22.5833287 115.125,23.5 C115.875004,22.9166637 116.666663,22.2083375 117.5,21.375 C118.333337,20.6249963 119.041664,19.91667 119.625,19.25 L119.5,19.125 C119.5,19.0416662 119.458334,19 119.375,19 Z" id="path-2"></path>
    </defs>
    <g id="text_constellation_10_red" stroke="none" stroke-width="1" fill="none" fill-rule="evenodd">
        <g id="蓄势待发" fill-rule="nonzero">
            <use fill="#000000" xlink:href="#path-2"></use>
            <use fill="url(#linearGradient-1)" xlink:href="#path-2"></use>
        </g>
    </g>
</svg>