<?xml version="1.0" encoding="UTF-8"?>
<svg width="24px" height="24px" viewBox="0 0 24 24" version="1.1" xmlns="http://www.w3.org/2000/svg" xmlns:xlink="http://www.w3.org/1999/xlink">
    <!-- Generator: Sketch 56.2 (81672) - https://sketch.com -->
    <title>icon_detail_more_animation_selected</title>
    <desc>Created with Sketch.</desc>
    <g id="icon_detail_more_animation_selected" stroke="none" stroke-width="1" fill="none" fill-rule="evenodd">
        <g id="icon/动画备份" fill="#FFCD00" fill-rule="nonzero">
            <path d="M12.1381861,19 L12.1381861,14.4962491 C13.4551822,14.4244772 14.5005453,13.3335757 14.5000041,11.9989787 C14.4994544,11.3351289 14.2350062,10.6987308 13.7649179,10.2299944 C13.3290179,9.79534797 12.7494663,9.53793254 12.1381861,9.50387469 L12.1381861,5 L19.5771562,5 C20.9152559,5 22,6.05572893 22,7.35803657 L22,16.6397177 L22,16.6419634 C22,17.9442711 20.9152559,19 19.5771562,19 L12.1381861,19 Z M11.86,19 L4.42284492,19 C3.08474523,19 2,17.9442711 2,16.6419634 L2,7.36028232 C1.99938874,6.73450313 2.25438155,6.1341502 2.7088193,5.69144673 C3.16325704,5.24874325 3.7798668,5 4.42284492,5 L11.86,5 L11.86,9.50385767 C10.5423427,9.57663471 9.49762639,10.6693199 9.50000405,12.0044601 C9.5023842,13.3365915 10.5462765,14.4236422 11.86,14.4961542 L11.86,19 Z M12.1381861,9.75889827 C13.3117331,9.83331963 14.240527,10.8087131 14.240527,12.001038 C14.240527,13.1933629 13.3117331,14.1687563 12.1381861,14.2431777 L12.1381861,9.75889827 Z M11.86,14.2438214 C10.6814798,14.1745901 9.74712068,13.1969297 9.74712068,12.001038 C9.74876054,10.8058525 10.6822128,9.82915852 11.86,9.75843361 L11.86,14.2438214 Z M2.5,15.5432806 L4.80770599,15.5432806 C5.56319806,15.5426484 6.1754904,14.9193485 6.17611144,14.1502743 L6.17611144,9.85316518 C6.1754904,9.08409106 5.56319806,8.46079108 4.80770599,8.46015887 L2.5,8.46015887 L2.5,15.5432806 Z M21.5,8.46818442 L19.2891523,8.44984031 C18.5334029,8.44984031 17.9207469,9.07351047 17.9207469,9.84284661 L17.9207469,14.1422488 C17.9213679,14.9113229 18.5336603,15.5346229 19.2891523,15.5352551 L21.5,15.5535992 L21.5,8.46818442 Z" id="形状结合"></path>
            <path d="M2.5,15.5432806 L4.80770599,15.5432806 C5.56319806,15.5426484 6.1754904,14.9193485 6.17611144,14.1502743 L6.17611144,9.85316518 C6.1754904,9.08409106 5.56319806,8.46079108 4.80770599,8.46015887 L2.5,8.46015887 L2.5,15.5432806 Z" id="路径" opacity="0.400000006"></path>
            <path d="M21.5,8.46818442 L19.2891523,8.44984031 C18.5334029,8.44984031 17.9207469,9.07351047 17.9207469,9.84284661 L17.9207469,14.1422488 C17.9213679,14.9113229 18.5336603,15.5346229 19.2891523,15.5352551 L21.5,15.5535992 L21.5,8.46818442 Z" id="路径" opacity="0.400000006"></path>
            <path d="M12.1381861,9.50387469 C12.7494663,9.53793254 13.3290179,9.79534797 13.7649179,10.2299944 C14.2350062,10.6987308 14.4994544,11.3351289 14.5000041,11.9989787 C14.5005453,13.3335757 13.4551822,14.4244772 12.1381861,14.4962491 L12.1381861,19 L11.86,19 L11.86,14.4961542 C10.5462765,14.4236422 9.5023842,13.3365915 9.50000405,12.0044601 C9.49762639,10.6693199 10.5423427,9.57663471 11.86,9.50385767 L11.86,5 L12.1381861,5 L12.1381861,9.50387469 Z M12.1381861,9.75889827 L12.1381861,14.2431777 C13.3117331,14.1687563 14.240527,13.1933629 14.240527,12.001038 C14.240527,10.8087131 13.3117331,9.83331963 12.1381861,9.75889827 Z M11.86,14.2438214 L11.86,9.75843361 C10.6822128,9.82915852 9.74876054,10.8058525 9.74712068,12.001038 C9.74712068,13.1969297 10.6814798,14.1745901 11.86,14.2438214 Z" id="形状结合" opacity="0.300000012"></path>
        </g>
    </g>
</svg>