<svg height="24" viewBox="0 0 24 24" width="24" xmlns="http://www.w3.org/2000/svg"><g fill="none" fill-rule="evenodd"><path d="m11.0693177 18.9892886-3.74148332 1.9670142c-.48884459.2570008-1.09347174.0690543-1.35047255-.4197903-.10233907-.1946604-.13765375-.4176285-.1004769-.6343862l.71455974-4.1662029c.11127587-.6487881-.1038211-1.3107885-.57519327-1.7702629l-3.02692363-2.9505213c-.39548358-.3855012-.40357588-1.01861445-.01807467-1.41409803.1535086-.15748363.35465101-.25997081.57228805-.29159532l4.18310557-.60784082c.65142032-.09465691 1.2145515-.50379566 1.50587552-1.09408261l1.87074166-3.79053667c.2444223-.49525366.8440482-.69859266 1.3393018-.45417036.1972126.09733023.3568401.25695776.4541704.45417036l1.8707417 3.79053667c.291324.59028695.8544552.9994257 1.5058755 1.09408261l4.1831056.60784082c.5465448.07941762.9252263.58686047.8458087 1.13340535-.0316246.217637-.1341117.4187794-.2915954.572288l-3.0269236 2.9505213c-.4713722.4594744-.6864691 1.1214748-.5751933 1.7702629l.7145598 4.1662029c.093361.5443365-.2722268 1.0612924-.8165633 1.1546534-.2167576.0371769-.4397257.0018622-.6343862-.1004769l-3.7414833-1.9670142c-.5826481-.3063162-1.2787165-.3063162-1.8613646 0zm.4713315-10.36137367c.8639587 2.00966117 2.2661742 3.18648277 4.1710149 3.47472687.273034.041316.5278651-.1465286.5691811-.4195626.0413161-.2730341-.1465285-.5278652-.4195626-.5691812-1.5467873-.2340628-2.6688874-1.17579515-3.4019318-2.88093537-.1090631-.25369245-.4031345-.37093773-.6568269-.26187466-.2536925.10906306-.3709378.40313451-.2618747.65682696z" fill="#fefffe" fill-rule="evenodd"/><path d="m11.5406492 8.62791493c.8639587 2.00966117 2.2661742 3.18648277 4.1710149 3.47472687.273034.041316.5278651-.1465286.5691811-.4195626.0413161-.2730341-.1465285-.5278652-.4195626-.5691812-1.5467873-.2340628-2.6688874-1.17579515-3.4019318-2.88093537-.1090631-.25369245-.4031345-.37093773-.6568269-.26187466-.2536925.10906306-.3709378.40313451-.2618747.65682696z" fill="#fff" fill-rule="nonzero" opacity=".4"/></g></svg>