<svg height="24" viewBox="0 0 24 24" width="24" xmlns="http://www.w3.org/2000/svg"><g fill="none" fill-rule="nonzero" transform="translate(2 5)"><path d="m14.9919537 2.20952121h-.000894l.0089403 9.58955119c0 1.2489429-.6562165 2.2009276-1.7791155 2.2009276h-11.23256646c-1.12379307 0-1.98205984-.9558041-1.98205984-2.2057018l-.0062582-9.58859639c0-1.24989769.85916081-2.20570181 1.98205984-2.20570181h11.23077836c1.1237931 0 1.7791155.96057837 1.7791155 2.20952121zm-5.21506481 3.51741212-2.83911111-1.75093333c-.95911111-.59453333-1.77511111-.19786667-1.77511111.89133333v3.96573334c0 1.0892.78133333 1.48586663 1.77511111.89133333l2.83911111-1.75093333c.95911111-.6608.95911111-1.652 0-2.2456z" fill="#fefffe"/><g fill="#fff"><path d="m9.77688889 5.72693333-2.83911111-1.75093333c-.95911111-.59453333-1.77511111-.19786667-1.77511111.89133333v3.96573334c0 1.0892.78133333 1.48586663 1.77511111.89133333l2.83911111-1.75093333c.95911111-.6608.95911111-1.652 0-2.2456z" opacity=".3"/><path d="m19.1502222 1.12170393c-.4586666-.25400042-.8782222-.08890015-1.4871111.29600817l-2.6631111 1.94994161.0062222 7.47933519 2.6568889 1.7770259c.5848889.4259392 1.1733333.42887 1.4871111.3057775.3697778-.1270002.8471111-.7678628.8533334-1.5796872v-8.648714c0-.67700879-.4302223-1.34424833-.8533334-1.57968717z" opacity=".4"/></g></g></svg>