<?xml version="1.0" encoding="UTF-8"?>
<svg width="14px" height="14px" viewBox="0 0 14 14" version="1.1" xmlns="http://www.w3.org/2000/svg" xmlns:xlink="http://www.w3.org/1999/xlink">
    <!-- Generator: Sketch 56.2 (81672) - https://sketch.com -->
    <title>直播 2</title>
    <desc>Created with Sketch.</desc>
    <defs>
        <linearGradient x1="-1.11022302e-14%" y1="50%" x2="100%" y2="50%" id="linearGradient-1">
            <stop stop-color="#15FF6E" offset="0%"></stop>
            <stop stop-color="#5BBBFF" offset="100%"></stop>
        </linearGradient>
    </defs>
    <g id="3.6优化" stroke="none" stroke-width="1" fill="none" fill-rule="evenodd">
        <g id="2.3详情页优化备份" transform="translate(-300.000000, -703.000000)">
            <g id="直播-2" transform="translate(300.000000, 703.000000)">
                <path d="M4.884375,3.49026397 C4.884375,4.39995211 4.146875,5.13770607 3.2375,5.13770607 C2.328125,5.13770607 1.590625,4.39995211 1.590625,3.49026397 C1.590625,2.58057582 2.328125,1.84282186 3.2375,1.84282186 C4.146875,1.84282186 4.884375,2.58057582 4.884375,3.49026397" id="路径" fill="#00FFBF" fill-rule="nonzero"></path>
                <path d="M8.1015625,5.13770607 C6.6859375,5.13770607 5.5390625,3.99043614 5.5390625,2.57432367 C5.5390625,1.1582112 6.6859375,0.0109412664 8.1015625,0.0109412664 C9.5171875,0.0109412664 10.6640625,1.1582112 10.6640625,2.57432367 C10.6640625,3.99043614 9.5171875,5.13770607 8.1015625,5.13770607 Z M12.621875,6.83829147 C13.2296875,6.48660791 13.9890625,6.9258216 13.9890625,7.62762569 L13.9890625,11.336715 C13.9890625,12.0400821 13.228125,12.4792958 12.6203125,12.1276122 L11.4859375,11.4726993 L11.4859375,11.8978456 C11.4859375,12.6027758 10.909375,13.1810999 10.203125,13.1810999 L1.2859375,13.1810999 C0.58125,13.1810999 0.003125,12.6043388 0.003125,11.8978456 L0.003125,6.62884437 C0.003125,5.92391421 0.5796875,5.34559013 1.2859375,5.34559013 L10.2046875,5.34559013 C10.909375,5.34559013 11.4875,5.92235118 11.4875,6.62884437 L11.4875,7.49320442 L12.621875,6.83829147 Z M5.465625,7.70265152 C5.1734375,7.53384341 4.8078125,7.74485354 4.80625,8.08246976 L4.80625,10.6396 C4.80625,10.9787793 5.1734375,11.1897894 5.465625,11.0209813 L7.6796875,9.74241617 C7.971875,9.57360806 7.971875,9.15002475 7.6796875,8.98121664 L5.465625,7.70265152 Z" id="形状结合" fill="url(#linearGradient-1)" fill-rule="nonzero"></path>
                <rect id="矩形" x="0" y="0" width="14" height="14"></rect>
            </g>
        </g>
    </g>
</svg>