<?xml version="1.0" encoding="UTF-8"?>
<svg width="34px" height="34px" viewBox="0 0 34 34" version="1.1" xmlns="http://www.w3.org/2000/svg" xmlns:xlink="http://www.w3.org/1999/xlink">
    <title>icon_details_data</title>
    <g id="icon_details_data" stroke="none" stroke-width="1" fill="none" fill-rule="evenodd" opacity="0.800000012">
        <rect id="矩形备份" fill="#FFFFFF" x="15.7571303" y="10.3309118" width="2.5" height="12.8" rx="1.25"></rect>
        <path d="M23.8071303,14.4996578 C24.4974862,14.4996578 25.0571303,15.0593019 25.0571303,15.7496578 L25.0571303,21.8809118 C25.0571303,22.5712677 24.4974862,23.1309118 23.8071303,23.1309118 C23.1167743,23.1309118 22.5571303,22.5712677 22.5571303,21.8809118 L22.5571303,15.7496578 C22.5571303,15.0593019 23.1167743,14.4996578 23.8071303,14.4996578 Z" id="矩形备份-2" fill="#FFFFFF"></path>
        <path d="M10.2071303,13.5309118 C10.8974862,13.5309118 11.4571303,14.0905559 11.4571303,14.7809118 L11.4571303,21.8809118 C11.4571303,22.5712677 10.8974862,23.1309118 10.2071303,23.1309118 C9.51677434,23.1309118 8.95713027,22.5712677 8.95713027,21.8809118 L8.95713027,14.7809118 C8.95713027,14.0905559 9.51677434,13.5309118 10.2071303,13.5309118 Z" id="矩形备份-3" fill="#FFFFFF"></path>
    </g>
</svg>