<?xml version="1.0" encoding="UTF-8"?>
<svg width="24px" height="24px" viewBox="0 0 24 24" version="1.1" xmlns="http://www.w3.org/2000/svg" xmlns:xlink="http://www.w3.org/1999/xlink">
    <!-- Generator: Sketch 56.2 (81672) - https://sketch.com -->
    <title>icon_detail_more_score_selected</title>
    <desc>Created with Sketch.</desc>
    <g id="icon_detail_more_score_selected" stroke="none" stroke-width="1" fill="none" fill-rule="evenodd">
        <g id="icon/比分备份" fill="#FFCD00" fill-rule="nonzero">
            <path d="M18.2443439,21 L5.7556561,21 C5.43891403,21 5.16742081,20.7286432 5.16742081,20.4120603 C5.16742081,20.0954774 5.43891403,19.8241206 5.7556561,19.8241206 L18.2443439,19.8241206 C18.561086,19.8241206 18.8325792,20.0954774 18.8325792,20.4120603 C18.8325792,20.7286432 18.561086,21 18.2443439,21 Z" id="路径" opacity="0.400000006"></path>
            <path d="M20.0542986,3 C21.0950226,3 22,3.85929647 22,4.94472362 L22,15.6180905 C22,16.7035176 21.1402715,17.5628141 20.0542986,17.5628141 L3.94570136,17.5628141 C2.8597285,17.5628141 2,16.6582915 2,15.6180905 L2,4.94472362 C2,3.85929649 2.8597285,3 3.94570136,3 L20.0542986,3 Z M10.0090498,13.2663317 L10.0542986,13.2663317 L10.0542986,12.361809 L8.28959275,12.361809 C8.06334841,12.361809 7.83710407,12.4070352 7.61085972,12.4070352 C8.92307693,11.0050251 9.73755657,10.0552764 9.73755657,9.01507538 C9.73755655,7.92964824 9.01357466,7.25125628 7.9276018,7.25125628 C7.0678733,7.25125628 6.52488687,7.70351758 6.11764706,8.15577889 L6.02714932,8.24623117 L6.61538462,8.83417085 L6.70588235,8.74371859 C7.0678733,8.33668342 7.47511311,8.11055277 7.83710407,8.11055277 C8.42533936,8.11055277 8.78733032,8.4723618 8.78733032,9.10552764 C8.78733032,9.96482413 7.79185521,11.0050251 6.16289593,12.6331658 L6.11764706,12.678392 L6.11764706,13.2663317 L10.0090498,13.2663317 Z M12.4977376,12.4974874 C12.8144796,12.4974874 13.1312217,12.1809045 13.1312217,11.8643216 C13.1312217,11.5025126 12.8597285,11.2311558 12.4977376,11.2311558 C12.1357466,11.2311558 11.8642534,11.5025126 11.8642534,11.8643216 C11.8642534,12.2261307 12.1357466,12.4974874 12.4977376,12.4974874 Z M12.4977376,9.33165829 C12.8144796,9.33165829 13.1312217,9.06030152 13.1312217,8.69849247 C13.1312217,8.33668342 12.8597285,8.06532663 12.4977376,8.06532663 C12.1357466,8.06532663 11.8642534,8.33668342 11.8642534,8.69849247 C11.8642534,9.0603015 12.1357466,9.33165829 12.4977376,9.33165829 Z M17.8823529,13.2663317 L17.9728507,13.2663317 L17.9728507,12.4522613 L16.7963801,12.4522613 L16.7963801,7.43216081 L16.0271493,7.43216081 C15.6651584,7.61306533 15.3031674,7.74874372 14.8506787,7.83919598 L14.760181,7.83919598 L14.760181,8.51758794 L15.800905,8.51758794 L15.800905,12.4522613 L14.4886878,12.4522613 L14.4886878,13.2663317 L17.8823529,13.2663317 Z" id="形状结合"></path>
            <path d="M10.0090498,13.2663317 L6.11764706,13.2663317 L6.11764706,12.678392 L6.16289593,12.6331658 C7.79185521,11.0050251 8.78733032,9.96482413 8.78733032,9.10552764 C8.78733032,8.4723618 8.42533936,8.11055277 7.83710407,8.11055277 C7.47511311,8.11055277 7.0678733,8.33668342 6.70588235,8.74371859 L6.61538462,8.83417085 L6.02714932,8.24623117 L6.11764706,8.15577889 C6.52488687,7.70351758 7.0678733,7.25125628 7.9276018,7.25125628 C9.01357466,7.25125628 9.73755655,7.92964824 9.73755657,9.01507538 C9.73755657,10.0552764 8.92307693,11.0050251 7.61085972,12.4070352 C7.83710407,12.4070352 8.06334841,12.361809 8.28959275,12.361809 L10.0542986,12.361809 L10.0542986,13.2663317 L10.0090498,13.2663317 Z M12.4977376,12.4974874 C12.1357466,12.4974874 11.8642534,12.2261307 11.8642534,11.8643216 C11.8642534,11.5025126 12.1357466,11.2311558 12.4977376,11.2311558 C12.8597285,11.2311558 13.1312217,11.5025126 13.1312217,11.8643216 C13.1312217,12.1809045 12.8144796,12.4974874 12.4977376,12.4974874 Z M12.4977376,9.33165829 C12.1357466,9.33165829 11.8642534,9.0603015 11.8642534,8.69849247 C11.8642534,8.33668342 12.1357466,8.06532663 12.4977376,8.06532663 C12.8597285,8.06532663 13.1312217,8.33668342 13.1312217,8.69849247 C13.1312217,9.06030152 12.8144796,9.33165829 12.4977376,9.33165829 Z M17.8823529,13.2663317 L14.4886878,13.2663317 L14.4886878,12.4522613 L15.800905,12.4522613 L15.800905,8.51758794 L14.760181,8.51758794 L14.760181,7.83919598 L14.8506787,7.83919598 C15.3031674,7.74874372 15.6651584,7.61306533 16.0271493,7.43216081 L16.7963801,7.43216081 L16.7963801,12.4522613 L17.9728507,12.4522613 L17.9728507,13.2663317 L17.8823529,13.2663317 Z" id="形状结合" opacity="0.300000012"></path>
        </g>
    </g>
</svg>