<?xml version="1.0" encoding="UTF-8"?>
<svg width="24px" height="24px" viewBox="0 0 24 24" version="1.1" xmlns="http://www.w3.org/2000/svg" xmlns:xlink="http://www.w3.org/1999/xlink">
    <!-- Generator: Sketch 56.2 (81672) - https://sketch.com -->
    <title>icon_detail_more_data</title>
    <desc>Created with Sketch.</desc>
    <g id="icon_detail_more_data" stroke="none" stroke-width="1" fill="none" fill-rule="evenodd">
        <g id="icon/数据" fill="#FFFFFF" fill-rule="nonzero">
            <path d="M12,21 C7.02943725,21 3,16.9705627 3,12 C3,7.02943725 7.02943725,3 12,3 C16.9705627,3 21,7.02943725 21,12 C21,16.9705627 16.9705627,21 12,21 Z M9.75,12.75 C9.75,12.1286797 9.24632034,11.625 8.625,11.625 C8.00367966,11.625 7.5,12.1286797 7.5,12.75 L7.5,16.875 L9.75,16.875 L9.75,12.75 Z M13.125,8.25000001 C13.125,7.62867966 12.6213203,7.12500001 12,7.12500001 C11.3786797,7.12500001 10.875,7.62867966 10.875,8.25000001 L10.875,16.875 L13.125,16.875 L13.125,8.25000001 Z M16.5,10.875 C16.5,10.2536797 15.9963203,9.75 15.375,9.75 C14.7536797,9.75 14.25,10.2536797 14.25,10.875 L14.25,16.875 L16.5,16.875 L16.5,10.875 Z" id="形状结合"></path>
            <path d="M9.75,12.75 C9.75,12.1286797 9.24632034,11.625 8.625,11.625 C8.00367966,11.625 7.5,12.1286797 7.5,12.75 L7.5,16.875 L9.75,16.875 L9.75,12.75 Z" id="路径" opacity="0.300000012"></path>
            <path d="M13.125,8.25000001 C13.125,7.62867966 12.6213203,7.12500001 12,7.12500001 C11.3786797,7.12500001 10.875,7.62867966 10.875,8.25000001 L10.875,16.875 L13.125,16.875 L13.125,8.25000001 Z" id="路径" opacity="0.300000012"></path>
            <path d="M16.5,10.875 C16.5,10.2536797 15.9963203,9.75 15.375,9.75 C14.7536797,9.75 14.25,10.2536797 14.25,10.875 L14.25,16.875 L16.5,16.875 L16.5,10.875 Z" id="路径" opacity="0.300000012"></path>
        </g>
    </g>
</svg>