<?xml version="1.0" encoding="UTF-8"?>
<svg width="34px" height="34px" viewBox="0 0 34 34" version="1.1" xmlns="http://www.w3.org/2000/svg" xmlns:xlink="http://www.w3.org/1999/xlink">
    <title>icon_detail_bot_share</title>
    <defs>
        <linearGradient x1="50%" y1="0%" x2="50%" y2="100%" id="linearGradient-1">
            <stop stop-color="#FFCD00" offset="0%"></stop>
            <stop stop-color="#FFCD00" offset="100%"></stop>
        </linearGradient>
    </defs>
    <g id="icon_detail_bot_share" stroke="none" stroke-width="1" fill="none" fill-rule="evenodd">
        <g id="编组" transform="translate(7.000000, 7.000000)" fill="url(#linearGradient-1)" fill-rule="nonzero">
            <g id="icon/分享备份-4">
                <path d="M16.9150986,2.70833333 L17.0499674,2.84320212 L17.0499674,4.31130507 L16.9150986,4.44617386 L14.0966476,4.4460685 L14.0966476,5.35598325 L14.187794,5.37837997 C14.9029895,5.57563022 15.4787061,6.00331803 15.9110416,6.65508689 L16.0253935,6.83839298 L16.1326179,7.03278188 C16.7444977,8.15456148 17.0607934,9.53835501 17.0833333,11.1846962 C17.0833333,12.8732313 16.7730317,14.328828 16.1556878,15.54007 C15.7019384,16.6467758 14.8156546,17.2319248 13.5192506,17.2876724 L13.3111504,17.292074 L7.98927715,17.2753911 L7.85483115,17.1405229 L7.85483115,5.3956993 L7.98969993,5.26083051 L10.3221198,5.26067598 L10.319759,4.8430903 L10.3104312,4.4460685 L7.48921029,4.44617386 L7.3543415,4.31130507 L7.3543415,2.84320212 L7.48921029,2.70833333 L16.9150986,2.70833333 Z M5.08686,3.37565286 L5.29505091,3.39784651 C5.81648302,3.47333223 6.25301786,3.68516281 6.60422159,4.03653657 C7.00108086,4.46841284 7.23060604,4.94511897 7.28803734,5.45387866 C7.37798323,5.92609459 7.44531068,6.52965466 7.49015125,7.26510466 L7.51956745,7.84143004 L7.5405634,8.46726532 L7.55315145,9.14266166 L7.55734392,9.86767022 L7.54694214,10.7225723 L7.52831819,11.4651063 L7.51134696,11.8974454 L7.49074038,12.2794582 L7.46650602,12.6109904 L7.43865146,12.8918882 C7.42876408,12.9770646 7.4182746,13.0537762 7.40718428,13.1219975 C7.395713,13.8676302 7.22283734,14.5245577 6.87973683,15.1027047 C6.49489126,15.6158321 6.02587685,15.9140193 5.47233694,15.9910247 L5.30373885,16.0074846 L3.05153545,16.0074846 L2.91666667,15.8726158 L2.91666667,3.51052165 L3.05153545,3.37565286 L5.08686,3.37565286 Z M10.3032382,6.96451833 L9.59203009,6.96451833 L9.59203009,15.5205942 L13.2281582,15.5208682 C13.9008047,15.5208682 14.3989446,15.1786736 14.740718,14.4649384 L14.8222417,14.284297 L14.7467384,14.3714619 L14.5464525,14.3970759 L14.1807816,14.4347446 C14.0108292,14.448882 13.860168,14.4559667 13.7286478,14.4559667 C12.99075,14.4559667 12.5972718,13.6400885 12.5036185,12.0560892 L12.4927018,11.8353327 L12.4926082,6.96451833 L11.9252601,6.96451833 L11.9194074,7.29830423 C11.9091112,7.78326328 11.8957875,8.25061588 11.8794337,8.70036956 L11.8426849,9.57641393 L11.7978511,10.4055412 L11.7449274,11.1877649 C11.6594722,12.3259293 11.5466979,13.3058389 11.4065329,14.1276971 L11.3587967,14.3957964 L11.2261996,14.5060157 L9.7540684,14.5060157 L9.83695266,13.8883512 C10.0770706,12.0213666 10.2288421,9.88812322 10.2921755,7.48879298 L10.3032382,6.96451833 Z M5.95147194,10.4180584 L4.57041555,10.4180584 L4.57041555,14.269911 L5.09586173,14.2718631 C5.53507515,14.1911912 5.76581474,13.9036229 5.79990242,13.3583033 L5.80433426,13.2165742 L5.83962648,12.9430077 C5.8451201,12.8933599 5.85041935,12.8416864 5.85552395,12.7879883 L5.88381382,12.4415154 L5.90741982,12.0465142 L5.92632945,11.6030454 L5.94586087,10.8470987 L5.95147194,10.4180584 Z M14.0966476,7.3727212 L14.0970649,12.1837657 L14.0991879,12.3348241 C14.1017416,12.4208652 14.1067427,12.4982854 14.1128148,12.5668747 L14.1328675,12.7459398 L14.1569296,12.9124337 C14.159754,12.935556 14.1602083,12.9493225 14.1569162,12.9535231 L14.3501627,12.9203959 L14.7031772,12.8542092 L14.8644959,12.8219454 L14.8636015,14.2033757 L14.8870775,14.1579213 C15.1780865,13.541788 15.3366688,12.6542308 15.3593821,11.4993981 L15.3622278,11.2051241 C15.3293427,10.0212598 15.116199,9.00472821 14.7269955,8.16103496 C14.5680723,7.85832404 14.3808819,7.61400043 14.1654414,7.42698839 L14.0966476,7.3727212 Z M4.84195138,5.06286842 L4.57041555,5.06286842 L4.57041555,8.59732979 L5.94787544,8.59732979 L5.93703988,8.19793048 C5.91840276,7.66817266 5.89175653,7.16192599 5.85701207,6.67756868 L5.81956489,6.20044774 C5.80059401,5.55543768 5.52214867,5.19325934 4.96112314,5.08233763 L4.84195138,5.06286842 Z M12.4926082,4.4460685 L11.9144706,4.4460685 L11.9241152,4.85662747 L11.9270584,5.26067598 L12.4926082,5.26067598 L12.4926082,4.4460685 Z" id="形状结合"></path>
            </g>
        </g>
    </g>
</svg>