<svg height="24" viewBox="0 0 24 24" width="24" xmlns="http://www.w3.org/2000/svg"><g fill="none"><path d="m18.2443439 21h-12.4886878c-.31674207 0-.58823529-.2713568-.58823529-.5879397s.27149322-.5879397.58823529-.5879397h12.4886878c.3167421 0 .5882353.2713568.5882353.5879397s-.2714932.5879397-.5882353.5879397z" fill="#fff" opacity=".4"/><path d="m20.0542986 3c1.040724 0 1.9457014.85929647 1.9457014 1.94472362v10.67336688c0 1.0854271-.8597285 1.9447236-1.9457014 1.9447236h-16.10859724c-1.08597286 0-1.94570136-.9045226-1.94570136-1.9447236v-10.67336688c0-1.08542713.8597285-1.94472362 1.94570136-1.94472362zm-10.0452488 10.2663317h.0452488v-.9045227h-1.76470585c-.22624434 0-.45248868.0452262-.67873303.0452262 1.31221721-1.4020101 2.12669685-2.3517588 2.12669685-3.39195982-.00000002-1.08542714-.72398191-1.7638191-1.80995477-1.7638191-.8597285 0-1.40271493.4522613-1.80995474.90452261l-.09049774.09045228.5882353.58793968.09049773-.09045226c.36199095-.40703517.76923076-.63316582 1.13122172-.63316582.58823529 0 .95022625.36180903.95022625.99497487 0 .85929649-.99547511 1.89949746-2.62443439 3.52763816l-.04524887.0452262v.5879397zm2.4886878-.7688443c.316742 0 .6334841-.3165829.6334841-.6331658 0-.361809-.2714932-.6331658-.6334841-.6331658-.361991 0-.6334842.2713568-.6334842.6331658 0 .3618091.2714932.6331658.6334842.6331658zm0-3.16582911c.316742 0 .6334841-.27135677.6334841-.63316582s-.2714932-.63316584-.6334841-.63316584c-.361991 0-.6334842.27135679-.6334842.63316584 0 .36180903.2714932.63316582.6334842.63316582zm5.3846153 3.93467341h.0904978v-.8140704h-1.1764706v-5.02010049h-.7692308c-.3619909.18090452-.7239819.31658291-1.1764706.40703517h-.0904977v.67839196h1.040724v3.93467336h-1.3122172v.8140704z" fill="#fefffe"/><path d="m10.0090498 13.2663317h-3.89140274v-.5879397l.04524887-.0452262c1.62895928-1.6281407 2.62443439-2.66834167 2.62443439-3.52763816 0-.63316584-.36199096-.99497487-.95022625-.99497487-.36199096 0-.76923077.22613065-1.13122172.63316582l-.09049773.09045226-.5882353-.58793968.09049774-.09045228c.40723981-.45226131.95022624-.90452261 1.80995474-.90452261 1.08597286 0 1.80995475.67839196 1.80995477 1.7638191 0 1.04020102-.81447964 1.98994972-2.12669685 3.39195982.22624435 0 .45248869-.0452262.67873303-.0452262h1.76470585v.9045227zm2.4886878-.7688443c-.361991 0-.6334842-.2713567-.6334842-.6331658 0-.361809.2714932-.6331658.6334842-.6331658.3619909 0 .6334841.2713568.6334841.6331658 0 .3165829-.3167421.6331658-.6334841.6331658zm0-3.16582911c-.361991 0-.6334842-.27135679-.6334842-.63316582 0-.36180905.2714932-.63316584.6334842-.63316584.3619909 0 .6334841.27135679.6334841.63316584s-.3167421.63316582-.6334841.63316582zm5.3846153 3.93467341h-3.3936651v-.8140704h1.3122172v-3.93467336h-1.040724v-.67839196h.0904977c.4524887-.09045226.8144797-.22613065 1.1764706-.40703517h.7692308v5.02010049h1.1764706v.8140704z" fill="#fff" opacity=".3"/></g></svg>