<svg height="24" viewBox="0 0 24 24" width="24" xmlns="http://www.w3.org/2000/svg"><g fill="none"><path d="m12.1381861 19v-4.5037509c1.3169961-.0717719 2.3623592-1.1626734 2.361818-2.4972704-.0005497-.6638498-.2649979-1.3002479-.7350862-1.7689843-.4359-.43464643-1.0154516-.69206186-1.6267318-.72611971v-4.50387469h7.4389701c1.3380997 0 2.4228438 1.05572893 2.4228438 2.35803657v9.28168113.0022457c0 1.3023077-1.0847441 2.3580366-2.4228438 2.3580366zm-.2781861 0h-7.43715508c-1.33809969 0-2.42284492-1.0557289-2.42284492-2.3580366v-9.28168108c-.00061126-.62577919.25438155-1.22613212.7088193-1.66883559.45443774-.44270348 1.0710475-.69144673 1.71402562-.69144673h7.43715508v4.50385767c-1.3176573.07277704-2.36237361 1.16546223-2.35999595 2.50060243.00238015 1.3321314 1.04627245 2.4191821 2.35999595 2.4916941zm.2781861-9.24110173c1.173547.07442136 2.1023409 1.04981483 2.1023409 2.24213973s-.9287939 2.1677183-2.1023409 2.2421397zm-.2781861 4.48492313c-1.1785202-.0692313-2.11287932-1.0468917-2.11287932-2.2427834.00163986-1.1951855.93509212-2.17187948 2.11287932-2.24260439zm-9.36 1.2994592h2.30770599c.75549207-.0006322 1.36778441-.6239321 1.36840545-1.3930063v-4.29710912c-.00062104-.76907412-.61291338-1.3923741-1.36840545-1.39300631h-2.30770599zm19-7.07509618-2.2108477-.01834411c-.7557494 0-1.3684054.62367016-1.3684054 1.3930063v4.29940219c.000621.7690741.6129134 1.3923741 1.3684054 1.3930063l2.2108477.0183441z" fill="#fefffe"/><g fill="#fff"><path d="m2.5 15.5432806h2.30770599c.75549207-.0006322 1.36778441-.6239321 1.36840545-1.3930063v-4.29710912c-.00062104-.76907412-.61291338-1.3923741-1.36840545-1.39300631h-2.30770599z" opacity=".4"/><path d="m21.5 8.46818442-2.2108477-.01834411c-.7557494 0-1.3684054.62367016-1.3684054 1.3930063v4.29940219c.000621.7690741.6129134 1.3923741 1.3684054 1.3930063l2.2108477.0183441z" opacity=".4"/><path d="m12.1381861 9.50387469c.6112802.03405785 1.1908318.29147328 1.6267318.72611971.4700883.4687364.7345365 1.1051345.7350862 1.7689843.0005412 1.334597-1.0448219 2.4254985-2.361818 2.4972704v4.5037509h-.2781861v-4.5038458c-1.3137235-.072512-2.3576158-1.1595627-2.35999595-2.4916941-.00237766-1.3351402 1.04233865-2.42782539 2.35999595-2.50060243v-4.50385767h.2781861zm0 .25502358v4.48427943c1.173547-.0744214 2.1023409-1.0498148 2.1023409-2.2421397s-.9287939-2.16771837-2.1023409-2.24213973zm-.2781861 4.48492313v-4.48538779c-1.1777872.07072491-2.11123946 1.04741889-2.11287932 2.24260439 0 1.1958917.93435912 2.1735521 2.11287932 2.2427834z" opacity=".3"/></g></g></svg>