<?xml version="1.0" encoding="UTF-8"?>
<svg width="34px" height="34px" viewBox="0 0 34 34" version="1.1" xmlns="http://www.w3.org/2000/svg" xmlns:xlink="http://www.w3.org/1999/xlink">
    <title>icon_details_more</title>
    <g id="icon_details_more" stroke="none" stroke-width="1" fill="none" fill-rule="evenodd" opacity="0.800000012">
        <path d="M9,15 C10.1045695,15 11,15.8954305 11,17 C11,18.1045695 10.1045695,19 9,19 C7.8954305,19 7,18.1045695 7,17 C7,15.8954305 7.8954305,15 9,15 Z M17,15 C18.1045695,15 19,15.8954305 19,17 C19,18.1045695 18.1045695,19 17,19 C15.8954305,19 15,18.1045695 15,17 C15,15.8954305 15.8954305,15 17,15 Z M25,15 C26.1045695,15 27,15.8954305 27,17 C27,18.1045695 26.1045695,19 25,19 C23.8954305,19 23,18.1045695 23,17 C23,15.8954305 23.8954305,15 25,15 Z" id="形状结合" fill="#FFFFFF"></path>
    </g>
</svg>