<svg height="24" viewBox="0 0 24 24" width="24" xmlns="http://www.w3.org/2000/svg"><g fill="#fff" fill-rule="nonzero" transform="translate(2 2)"><path d="m10 0c6.6666667 0 10 3.33333333 10 10 0 6.6666667-3.3333333 10-10 10-6.66666667 0-10-3.3333333-10-10 0-6.66666667 3.33333333-10 10-10zm-.8790602 6.45296499c.32688028-.32169511.3387213-.8554642.02644765-1.19220663s-.83041028-.3489407-1.15729056-.02724559l-2.73532974 2.69194028c-.53384461.52537644-.17287363 1.45296361.56542146 1.45296361h8.36126969c.4520681 0 .8185417-.37753029.8185417-.8432375s-.3664736-.8432375-.8185417-.8432375h-6.31946534zm1.7581204 7.09407001c-.3268803.3216951-.3387213.8554642-.0264477 1.1922066.3122737.3367425.8304103.3489407 1.1572906.0272456l2.7353297-2.6919403c.5338447-.5253764.1728737-1.4529636-.5654214-1.4529636h-8.36126973c-.45206808 0-.81854167.3775303-.81854167.8432375 0 .4657073.36647359.8432375.81854167.8432375h6.31946533z"/><path d="m9.1209398 6.45296499-1.25894684 1.23897667h6.31946534c.4520681 0 .8185417.37753029.8185417.8432375s-.3664736.8432375-.8185417.8432375h-8.36126969c-.73829509 0-1.09926607-.92758717-.56542146-1.45296361l2.73532974-2.69194028c.32688028-.32169511.84501691-.30949684 1.15729056.02724559s.30043263.87051152-.02644765 1.19220663zm1.7581204 7.09407001 1.2589468-1.2389767h-6.31946533c-.45206808 0-.81854167-.3775302-.81854167-.8432375 0-.4657072.36647359-.8432375.81854167-.8432375h8.36126973c.7382951 0 1.0992661.9275872.5654214 1.4529636l-2.7353297 2.6919403c-.3268803.3216951-.8450169.3094969-1.1572906-.0272456-.3122736-.3367424-.3004326-.8705115.0264477-1.1922066z" opacity=".4"/></g></svg>