<svg height="24" viewBox="0 0 24 24" width="24" xmlns="http://www.w3.org/2000/svg"><g fill="#fff"><path d="m18.4645161 3.0141897c.920083-.00136634 1.8029509.3631751 2.4540325 1.01328846.6510815.65011336 1.0169353 1.53243787 1.0169353 2.45252184v10.2632258c0 .920084-.3658538 1.8024085-1.0169353 2.4525218-.6510816.6501134-1.5339495 1.0146549-2.4540325 1.0132885h-13.13032255c-.91895189 0-1.80022824-.3652323-2.4497833-1.0152714s-1.01412727-1.5315873-1.01344347-2.4505389v-10.2632258c-.0006838-.91895164.36388841-1.80049979 1.01344347-2.45053887s1.53083141-1.01527143 2.4497833-1.01527143zm1.4632258 12.3612942c.5701004 0 1.0322581-.4621577 1.0322581-1.0322581s-.4621577-1.0322581-1.0322581-1.0322581h-2.8103225c-.9378152 0-1.6980645-.7602494-1.6980645-1.6980645s.7602493-1.69806446 1.6980645-1.69806449h2.8103225c.5701004-.00000002 1.0322581-.46215769 1.0322581-1.03225806 0-.57010038-.4621577-1.03225807-1.0322581-1.03225807h-2.8103225c-2.078016 0-3.7625807 1.68456474-3.7625807 3.76258062 0 2.0780159 1.6845647 3.7625807 3.7625807 3.7625807zm-2.5858064-2.8645162c.4959873 0 .8980645-.4020771.8980645-.8980645 0-.4959873-.4020772-.8980645-.8980645-.8980645-.4959874 0-.8980645.4020772-.8980645.8980645 0 .4959874.4020771.8980645.8980645.8980645z"/><path d="m19.9277419 15.3754839h-2.8103225c-2.078016 0-3.7625807-1.6845648-3.7625807-3.7625807 0-2.07801588 1.6845647-3.76258062 3.7625807-3.76258062h2.8103225c.5701004 0 1.0322581.46215769 1.0322581 1.03225807 0 .57010037-.4621577 1.03225804-1.0322581 1.03225806h-2.8103225c-.9378152.00000003-1.6980645.76024939-1.6980645 1.69806449s.7602493 1.6980645 1.6980645 1.6980645h2.8103225c.5701004 0 1.0322581.4621577 1.0322581 1.0322581s-.4621577 1.0322581-1.0322581 1.0322581z" opacity=".4"/><circle cx="17.341936" cy="11.612903" opacity=".7" r="1"/></g></svg>