<?xml version="1.0" encoding="UTF-8"?>
<svg width="34px" height="34px" viewBox="0 0 34 34" version="1.1" xmlns="http://www.w3.org/2000/svg" xmlns:xlink="http://www.w3.org/1999/xlink">
    <title>icon_detail_bot_data</title>
    <g id="icon_detail_bot_data" stroke="none" stroke-width="1" fill="none" fill-rule="evenodd">
        <g id="icon/分享备份-2" transform="translate(7.000000, 7.000000)" fill="#FFCD00">
            <path d="M16.6666667,15.8333333 C17.126904,15.8333333 17.5,16.2064294 17.5,16.6666667 C17.5,17.126904 17.126904,17.5 16.6666667,17.5 L3.33333333,17.5 C2.87309604,17.5 2.5,17.126904 2.5,16.6666667 C2.5,16.2064294 2.87309604,15.8333333 3.33333333,15.8333333 L16.6666667,15.8333333 Z M5.66666667,5.83333333 C6.21895142,5.83333333 6.66666667,6.28104858 6.66666667,6.83333333 L6.66666667,13.1666667 C6.66666667,13.7189514 6.21895142,14.1666667 5.66666667,14.1666667 L4.33333333,14.1666667 C3.78104858,14.1666667 3.33333333,13.7189514 3.33333333,13.1666667 L3.33333333,6.83333333 C3.33333333,6.28104858 3.78104858,5.83333333 4.33333333,5.83333333 L5.66666667,5.83333333 Z M10.6666667,2.5 C11.2189514,2.5 11.6666667,2.94771525 11.6666667,3.5 L11.6666667,13.1666667 C11.6666667,13.7189514 11.2189514,14.1666667 10.6666667,14.1666667 L9.33333333,14.1666667 C8.78104858,14.1666667 8.33333333,13.7189514 8.33333333,13.1666667 L8.33333333,3.5 C8.33333333,2.94771525 8.78104858,2.5 9.33333333,2.5 L10.6666667,2.5 Z M15.6666667,7.5 C16.2189514,7.5 16.6666667,7.94771525 16.6666667,8.5 L16.6666667,13.1666667 C16.6666667,13.7189514 16.2189514,14.1666667 15.6666667,14.1666667 L14.3333333,14.1666667 C13.7810486,14.1666667 13.3333333,13.7189514 13.3333333,13.1666667 L13.3333333,8.5 C13.3333333,7.94771525 13.7810486,7.5 14.3333333,7.5 L15.6666667,7.5 Z" id="形状结合"></path>
        </g>
    </g>
</svg>