<?xml version="1.0" encoding="UTF-8"?>
<svg width="34px" height="34px" viewBox="0 0 34 34" version="1.1" xmlns="http://www.w3.org/2000/svg" xmlns:xlink="http://www.w3.org/1999/xlink">
    <title>icon_detail_bot_more</title>
    <g id="icon_detail_bot_more" stroke="none" stroke-width="1" fill="none" fill-rule="evenodd" opacity="0.699999988">
        <g id="icon/分享备份" transform="translate(7.000000, 7.000000)" fill="#FFFFFF">
            <path d="M16.25,14.5833333 C16.7102373,14.5833333 17.0833333,14.9564294 17.0833333,15.4166667 C17.0833333,15.876904 16.7102373,16.25 16.25,16.25 L3.75,16.25 C3.28976271,16.25 2.91666667,15.876904 2.91666667,15.4166667 C2.91666667,14.9564294 3.28976271,14.5833333 3.75,14.5833333 L16.25,14.5833333 Z M16.25,9.16666667 C16.7102373,9.16666667 17.0833333,9.53976271 17.0833333,10 C17.0833333,10.4602373 16.7102373,10.8333333 16.25,10.8333333 L3.75,10.8333333 C3.28976271,10.8333333 2.91666667,10.4602373 2.91666667,10 C2.91666667,9.53976271 3.28976271,9.16666667 3.75,9.16666667 L16.25,9.16666667 Z M16.25,3.75 C16.7102373,3.75 17.0833333,4.12309604 17.0833333,4.58333333 C17.0833333,5.04357062 16.7102373,5.41666667 16.25,5.41666667 L3.75,5.41666667 C3.28976271,5.41666667 2.91666667,5.04357062 2.91666667,4.58333333 C2.91666667,4.12309604 3.28976271,3.75 3.75,3.75 L16.25,3.75 Z" id="形状结合"></path>
        </g>
    </g>
</svg>