<svg height="24" viewBox="0 0 24 24" width="24" xmlns="http://www.w3.org/2000/svg"><g fill="#fff"><path d="m16.9949045 3.05c1.547684 0 2.8322352 1.19607027 2.9425031 2.7398212l.8571429 12c.1160785 1.6250996-1.1072248 3.0366034-2.7323244 3.152682-.0699482.0049963-.1400524.0074968-.2101788.0074968h-11.70409461c-1.62924001 0-2.95-1.32076-2.95-2.95 0-.0701264.00250054-.1402306.00749684-.2101788l.85714286-12c.11026792-1.54375093 1.39481909-2.7398212 2.94250316-2.7398212zm-.9949045 4c-.5246705 0-.95.42532949-.95.95l-.0051776.17921067c-.0927672 1.60105403-1.4205135 2.87078933-3.0448224 2.87078933-1.6844685 0-3.05-1.36553151-3.05-3.05 0-.52467051-.42532949-.95-.95-.95s-.95.42532949-.95.95c0 2.7338095 2.21619049 4.95 4.95 4.95 2.7338095 0 4.95-2.2161905 4.95-4.95 0-.52467051-.4253295-.95-.95-.95z"/><path d="m16 7.05c.5246705 0 .95.42532949.95.95 0 2.7338095-2.2161905 4.95-4.95 4.95-2.73380951 0-4.95-2.2161905-4.95-4.95 0-.52467051.42532949-.95.95-.95s.95.42532949.95.95c0 1.68446849 1.3655315 3.05 3.05 3.05 1.6243089 0 2.9520552-1.2697353 3.0448224-2.87078933l.0051776-.17921067c0-.52467051.4253295-.95.95-.95z" opacity=".4"/></g></svg>