<?xml version="1.0" encoding="UTF-8"?>
<svg width="34px" height="34px" viewBox="0 0 34 34" version="1.1" xmlns="http://www.w3.org/2000/svg" xmlns:xlink="http://www.w3.org/1999/xlink">
    <title>icon_detail_bot_share</title>
    <g id="icon_detail_bot_share" stroke="none" stroke-width="1" fill="none" fill-rule="evenodd">
        <g id="icon/分享备份-4" transform="translate(7.000000, 7.000000)" fill="#FFCD00">
            <path d="M6.57415054,3.67283951 C7.07104373,3.67283951 7.47266793,4.07739387 7.47266793,4.57791229 C7.47266793,5.07843071 7.07104373,5.48298508 6.57415054,5.48298508 L5.64761287,5.48298508 C4.90040507,5.48298508 4.29516675,6.0926391 4.29516675,6.84529838 L4.29516675,13.9917983 C4.29516675,14.7444575 4.90040507,15.3541116 5.64761287,15.3541116 L15.1838524,15.3541116 C15.9310602,15.3541116 16.5362986,14.7444575 16.5362986,13.9917983 L16.5362986,11.5080226 C16.5362986,11.0075042 16.9379228,10.6029498 17.434816,10.6029498 C17.9317091,10.6029498 18.3333333,11.0075042 18.3333333,11.5080226 L18.3333333,13.9917983 C18.3333333,15.7417311 16.9229786,17.1604938 15.1857205,17.1604938 L5.64761287,17.1604938 C3.90848671,17.1604938 2.5,15.7398494 2.5,13.9899166 L2.5,6.84341673 C2.5,5.09160225 3.91035473,3.67283951 5.64761287,3.67283951 L6.57415054,3.67283951 Z M11.8617946,3.77386306 C11.8617946,2.71812505 13.0634839,2.12189891 13.8909382,2.76749409 L13.8909382,2.76749409 L17.8439129,5.85305931 C18.4964735,6.36194022 18.4964735,7.35691632 17.8439129,7.86579723 L17.8439129,7.86579723 L13.8890576,10.9513624 C13.0616033,11.5969576 11.859914,11.0007315 11.859914,9.94499348 L11.859914,9.94499348 L11.859914,9.13420188 C9.04845008,9.13420188 6.68080249,11.0273148 5.78940857,13.6419753 C5.5656198,12.9204278 5.43209877,12.1988802 5.43209877,11.3880886 C5.43209877,7.66262463 8.30938296,4.65301179 11.8617946,4.62832727 L11.8617946,4.62832727 Z" id="形状结合"></path>
        </g>
    </g>
</svg>