<?xml version="1.0" encoding="UTF-8"?>
<svg width="24px" height="24px" viewBox="0 0 24 24" version="1.1" xmlns="http://www.w3.org/2000/svg" xmlns:xlink="http://www.w3.org/1999/xlink">
    <!-- Generator: Sketch 56.2 (81672) - https://sketch.com -->
    <title>icon_detail_more_video_selected</title>
    <desc>Created with Sketch.</desc>
    <g id="icon_detail_more_video_selected" stroke="none" stroke-width="1" fill="none" fill-rule="evenodd">
        <g id="icon/更多视频备份" fill="#FFCD00">
            <g id="编组" transform="translate(2.000000, 5.000000)">
                <path d="M14.9919537,2.20952121 L14.9910597,2.20952121 L15,11.7990724 C15,13.0480153 14.3437835,14 13.2208845,14 L1.98831804,14 C0.864524973,14 0.00625819526,13.0441959 0.00625819526,11.7942982 L0,2.20570181 C0,0.955804119 0.859160806,0 1.98205984,0 L13.2128382,0 C14.3366313,0 14.9919537,0.960578366 14.9919537,2.20952121 Z M9.77688889,5.72693333 L6.93777778,3.976 C5.97866667,3.38146667 5.16266667,3.77813333 5.16266667,4.86733333 L5.16266667,8.83306667 C5.16266667,9.92226667 5.944,10.3189333 6.93777778,9.7244 L9.77688889,7.97346667 C10.736,7.31266667 10.736,6.32146667 9.77688889,5.72786667 L9.77688889,5.72693333 Z" id="形状结合" fill-rule="nonzero"></path>
                <path d="M9.77688889,5.72693333 L6.93777778,3.976 C5.97866667,3.38146667 5.16266667,3.77813333 5.16266667,4.86733333 L5.16266667,8.83306667 C5.16266667,9.92226667 5.944,10.3189333 6.93777778,9.7244 L9.77688889,7.97346667 C10.736,7.31266667 10.736,6.32146667 9.77688889,5.72786667 L9.77688889,5.72693333 Z" id="路径" fill-rule="nonzero" opacity="0.300000012"></path>
                <path d="M19.1502222,1.12170393 C18.6915556,0.867703514 18.272,1.03280378 17.6631111,1.4177121 L15,3.36765371 L15.0062222,10.8469889 L17.6631111,12.6240148 C18.248,13.049954 18.8364444,13.0528848 19.1502222,12.9297923 C19.52,12.8027921 19.9973333,12.1619295 20.0035556,11.3501051 L20.0035556,2.7013911 C20.0035556,2.02438231 19.5733333,1.35714277 19.1502222,1.12170393 L19.1502222,1.12170393 Z" id="路径" fill-rule="nonzero" opacity="0.400000006"></path>
            </g>
        </g>
    </g>
</svg>