<?xml version="1.0" encoding="UTF-8"?>
<svg width="28px" height="14px" viewBox="0 0 28 14" version="1.1" xmlns="http://www.w3.org/2000/svg" xmlns:xlink="http://www.w3.org/1999/xlink">
    <!-- Generator: Sketch 55.2 (78181) - https://sketchapp.com -->
    <title>完场/10th_slice</title>
    <desc>Created with Sketch.</desc>
    <g id="切图" stroke="none" stroke-width="1" fill="none" fill-rule="evenodd">
        <g id="画板" transform="translate(-300.000000, -1276.000000)">
            <g id="完场/10th" transform="translate(300.000000, 1276.000000)">
                <path d="M4.65542669,-2.27373675e-13 L23.3445733,-2.27373675e-13 C24.9632601,-2.27373675e-13 25.5506355,0.186 26.1425501,0.534 C26.7344647,0.883 27.1983733,1.394 27.515211,2.046 C27.8311409,2.698 28,3.345 28,5.128 L28,8.872 C28,10.655 27.8311409,11.302 27.515211,11.954 C27.2056276,12.598193 26.7273772,13.1249907 26.1425501,13.466 C25.5506355,13.814 24.9632601,14 23.3445733,14 L4.65542669,14 C3.03673991,14 2.44936451,13.814 1.85744988,13.466 C1.27262281,13.1249907 0.794372403,12.598193 0.484788972,11.954 C0.16885908,11.302 0,10.655 0,8.872 L0,5.128 C0,3.345 0.16885908,2.698 0.484788972,2.046 C0.794372403,1.40180701 1.27262281,0.875009308 1.85744988,0.534 C2.44936451,0.186 3.03673991,-2.27373675e-13 4.65542669,-2.27373675e-13 Z" id="形状" fill="#E5E6E8" fill-rule="nonzero"></path>
                <path d="M15.9903846,4.42307692 L15.9903846,6.02884615 L17.0961538,6.02884615 L17.0961538,6.93269231 L15.9903846,6.93269231 L15.9903846,9.74038462 C15.9903846,9.85576923 16.0096154,9.94230769 16.0673077,10.0096154 C16.125,10.0673077 16.2019231,10.0961538 16.3173077,10.0961538 L16.9711538,10.0961538 L16.9711538,11 L16.1346154,11 C15.7019231,11 15.3846154,10.8846154 15.1826923,10.6538462 C14.9903846,10.4423077 14.8942308,10.1442308 14.8942308,9.74038462 L14.8942308,6.93269231 L14,6.93269231 L14,6.02884615 L14.8942308,6.02884615 L14.8942308,4.875 L15.9903846,4.42307692 Z M17.9134615,4 L19.0096154,4 L19.0096154,6.69230769 C19.1923077,6.41346154 19.4230769,6.21153846 19.6923077,6.07692308 C19.9326923,5.95192308 20.2115385,5.89423077 20.5288462,5.89423077 C21.1346154,5.89423077 21.5865385,6.06730769 21.8846154,6.42307692 C22.1634615,6.75961538 22.3076923,7.25961538 22.3076923,7.92307692 L22.3076923,11 L21.2115385,11 L21.2115385,8.11538462 C21.2115385,7.69230769 21.125,7.36538462 20.9615385,7.14423077 C20.7692308,6.90384615 20.4903846,6.78846154 20.1153846,6.78846154 C19.7692308,6.78846154 19.5,6.92307692 19.3076923,7.19230769 C19.1057692,7.46153846 19.0096154,7.79807692 19.0096154,8.22115385 L19.0096154,11 L17.9134615,11 L17.9134615,4 Z" id="th" fill="#030A22" opacity="0.300000012"></path>
                <path d="M4.94716669,3.146 L5.84916669,3.146 L5.84916669,11 L4.65016669,11 L4.65016669,4.587 C4.17716669,5.038 3.57216669,5.368 2.84616669,5.577 L2.84616669,4.389 C3.19816669,4.301 3.56116669,4.147 3.95716669,3.927 C4.35316669,3.685 4.68316669,3.432 4.94716669,3.146 Z M10.394,2.992 C11.318,2.992 12.033,3.377 12.539,4.158 C13.001,4.884 13.232,5.852 13.232,7.073 C13.232,8.283 13.001,9.262 12.539,9.988 C12.033,10.758 11.318,11.154 10.394,11.154 C9.47,11.154 8.755,10.758 8.249,9.988 C7.787,9.262 7.556,8.294 7.556,7.073 C7.556,5.841 7.787,4.873 8.249,4.158 C8.755,3.377 9.47,2.992 10.394,2.992 Z M10.394,4.004 C9.745,4.004 9.294,4.356 9.03,5.071 C8.832,5.555 8.744,6.226 8.744,7.073 C8.744,7.909 8.832,8.58 9.03,9.075 C9.294,9.779 9.745,10.142 10.394,10.142 C11.032,10.142 11.494,9.779 11.758,9.075 C11.945,8.58 12.044,7.909 12.044,7.073 C12.044,6.226 11.945,5.555 11.758,5.071 C11.494,4.356 11.032,4.004 10.394,4.004 Z" id="10" fill="#030A22" fill-rule="nonzero" opacity="0.5"></path>
            </g>
        </g>
    </g>
</svg>