<?xml version="1.0" encoding="UTF-8"?>
<svg width="28px" height="16px" viewBox="0 0 28 16" version="1.1" xmlns="http://www.w3.org/2000/svg" xmlns:xlink="http://www.w3.org/1999/xlink">
    <!-- Generator: Sketch 55.2 (78181) - https://sketchapp.com -->
    <title>完场/1st_slice</title>
    <desc>Created with Sketch.</desc>
    <g id="切图" stroke="none" stroke-width="1" fill="none" fill-rule="evenodd">
        <g id="画板" transform="translate(-47.000000, -1233.000000)">
            <g id="icon/28/第一节备份" transform="translate(47.000000, 1233.000000)">
                <path d="M4.65542669,1 L23.3445733,1 C24.9632601,1 25.5506355,1.186 26.1425501,1.534 C26.7344647,1.883 27.1983733,2.394 27.515211,3.046 C27.8311409,3.698 28,4.345 28,6.128 L28,9.872 C28,11.655 27.8311409,12.302 27.515211,12.954 C27.2056276,13.598193 26.7273772,14.1249907 26.1425501,14.466 C25.5506355,14.814 24.9632601,15 23.3445733,15 L4.65542669,15 C3.03673991,15 2.44936451,14.814 1.85744988,14.466 C1.27262281,14.1249907 0.794372403,13.598193 0.484788972,12.954 C0.16885908,12.302 0,11.655 0,9.872 L0,6.128 C0,4.345 0.16885908,3.698 0.484788972,3.046 C0.794372403,2.40180701 1.27262281,1.87500931 1.85744988,1.534 C2.44936451,1.186 3.03673991,1 4.65542669,1 Z" id="形状" fill="#E5E6E8" fill-rule="nonzero"></path>
                <g id="编组" stroke-width="1" fill-rule="evenodd" transform="translate(6.000000, 4.000000)" fill="#030A22">
                    <path d="M2.1512605,0 L3.1372549,0 L3.1372549,8 L1.82633053,8 L1.82633053,1.57983193 C1.34453782,2.01680672 0.739495798,2.34173669 3.92352817e-13,2.55462185 L3.92352817e-13,1.25490196 C0.358543417,1.16526611 0.739495798,1.00840336 1.14285714,0.784313725 C1.54621849,0.537815126 1.88235294,0.280112045 2.1512605,0 Z" id="1" opacity="0.5"></path>
                    <path d="M9.25644699,2.53438395 C10.6203438,2.53438395 11.3724928,3.07593123 11.4928367,4.17908309 L10.3796562,4.17908309 C10.2994269,3.91833811 10.1790831,3.7277937 10.0186246,3.62750716 C9.84813754,3.51719198 9.58739255,3.46704871 9.23638968,3.46704871 C8.93553009,3.46704871 8.70487106,3.50716332 8.55444126,3.5974212 C8.3739255,3.68767908 8.29369628,3.82808023 8.29369628,4.0286533 C8.29369628,4.18911175 8.42406877,4.33954155 8.70487106,4.45988539 C8.87535817,4.53008596 9.21633238,4.63037249 9.73782235,4.76074499 C10.3194842,4.90114613 10.760745,5.06160458 11.0415473,5.252149 C11.4527221,5.51289398 11.6633238,5.88395415 11.6633238,6.34527221 C11.6633238,7.44842407 10.8810888,8 9.32664756,8 C7.88252149,8 7.11031519,7.38825215 7,6.1747851 L8.11318052,6.1747851 C8.17335244,6.50573066 8.29369628,6.73638968 8.46418338,6.87679083 C8.63467049,6.99713467 8.90544413,7.06733524 9.28653295,7.06733524 C10.0888252,7.06733524 10.4899713,6.84670487 10.4899713,6.42550143 C10.4899713,6.18481375 10.3395415,5.99426934 10.0386819,5.85386819 C9.8782235,5.77363897 9.53724928,5.68338109 9.01575931,5.56303725 C8.40401146,5.4226361 7.97277937,5.2722063 7.72206304,5.11174785 C7.32091691,4.86103152 7.12034384,4.51002865 7.12034384,4.05873926 C7.12034384,3.5773639 7.31088825,3.20630372 7.71203438,2.94555874 C8.10315186,2.66475645 8.61461318,2.53438395 9.25644699,2.53438395 Z M14.1905444,1 L14.1905444,2.6747851 L15.3438395,2.6747851 L15.3438395,3.61747851 L14.1905444,3.61747851 L14.1905444,6.54584527 C14.1905444,6.66618911 14.2106017,6.75644699 14.2707736,6.82664756 C14.3309456,6.88681948 14.4111748,6.91690544 14.5315186,6.91690544 L15.213467,6.91690544 L15.213467,7.85959885 L14.3409742,7.85959885 C13.8896848,7.85959885 13.5587393,7.73925501 13.3481375,7.49856734 C13.1475645,7.27793696 13.0472779,6.96704871 13.0472779,6.54584527 L13.0472779,3.61747851 L12.1146132,3.61747851 L12.1146132,2.6747851 L13.0472779,2.6747851 L13.0472779,1.4713467 L14.1905444,1 Z" id="st" opacity="0.300000012"></path>
                </g>
            </g>
        </g>
    </g>
</svg>