<?xml version="1.0" encoding="UTF-8"?>
<svg width="28px" height="16px" viewBox="0 0 28 16" version="1.1" xmlns="http://www.w3.org/2000/svg" xmlns:xlink="http://www.w3.org/1999/xlink">
    <!-- Generator: Sketch 55.2 (78181) - https://sketchapp.com -->
    <title>完场/3rd_slice</title>
    <desc>Created with Sketch.</desc>
    <g id="切图" stroke="none" stroke-width="1" fill="none" fill-rule="evenodd">
        <g id="画板" transform="translate(-174.000000, -1233.000000)">
            <g id="icon/28/第三节备份" transform="translate(174.000000, 1233.000000)">
                <path d="M4.65542669,1 L23.3445733,1 C24.9632601,1 25.5506355,1.186 26.1425501,1.534 C26.7344647,1.883 27.1983733,2.394 27.515211,3.046 C27.8311409,3.698 28,4.345 28,6.128 L28,9.872 C28,11.655 27.8311409,12.302 27.515211,12.954 C27.2056276,13.598193 26.7273772,14.1249907 26.1425501,14.466 C25.5506355,14.814 24.9632601,15 23.3445733,15 L4.65542669,15 C3.03673991,15 2.44936451,14.814 1.85744988,14.466 C1.27262281,14.1249907 0.794372403,13.598193 0.484788972,12.954 C0.16885908,12.302 0,11.655 0,9.872 L0,6.128 C0,4.345 0.16885908,3.698 0.484788972,3.046 C0.794372403,2.40180701 1.27262281,1.87500931 1.85744988,1.534 C2.44936451,1.186 3.03673991,1 4.65542669,1 Z" id="形状" fill="#E5E6E8" fill-rule="nonzero"></path>
                <g id="编组" stroke-width="1" fill-rule="evenodd" transform="translate(5.000000, 4.000000)" fill="#030A22">
                    <path d="M2.8787062,0 C3.65498652,0 4.29110512,0.18328841 4.76549865,0.5606469 C5.22911051,0.938005391 5.46630728,1.45552561 5.46630728,2.12398922 C5.46630728,2.96495957 5.03504043,3.52560647 4.18328841,3.80592992 C4.6361186,3.94609164 4.99191375,4.1509434 5.22911051,4.43126685 C5.48787062,4.72237197 5.61725067,5.09973046 5.61725067,5.55256065 C5.61725067,6.26415094 5.36927224,6.84636119 4.87331536,7.29919137 C4.35579515,7.76280323 3.67654987,8 2.83557951,8 C2.03773585,8 1.39083558,7.79514825 0.905660377,7.38544474 C0.366576819,6.93261456 0.064690027,6.26415094 2.10942375e-13,5.40161725 L1.28301887,5.40161725 C1.30458221,5.89757412 1.45552561,6.28571429 1.7574124,6.55525606 C2.02695418,6.8032345 2.38274933,6.93261456 2.82479784,6.93261456 C3.30997305,6.93261456 3.69811321,6.79245283 3.97843666,6.52291105 C4.22641509,6.27493261 4.35579515,5.97304582 4.35579515,5.606469 C4.35579515,5.16442049 4.21563342,4.84097035 3.95687332,4.6361186 C3.69811321,4.42048518 3.32075472,4.32345013 2.82479784,4.32345013 L2.28571429,4.32345013 L2.28571429,3.37466307 L2.82479784,3.37466307 C3.27762803,3.37466307 3.62264151,3.27762803 3.85983827,3.08355795 C4.08625337,2.88948787 4.20485175,2.59838275 4.20485175,2.22102426 C4.20485175,1.84366577 4.09703504,1.56334232 3.89218329,1.36927224 C3.66576819,1.17520216 3.33153639,1.07816712 2.88948787,1.07816712 C2.43665768,1.07816712 2.0916442,1.18598383 1.84366577,1.41239892 C1.58490566,1.63881402 1.43396226,1.98382749 1.39083558,2.44743935 L0.150943396,2.44743935 C0.215633423,1.67115903 0.495956873,1.06738544 1.01347709,0.636118598 C1.49865229,0.204851752 2.12398922,0 2.8787062,0 Z" id="3" opacity="0.5"></path>
                    <path d="M11.3018868,2.85849057 C11.5377358,2.85849057 11.745283,2.89622642 11.9150943,2.98113208 L11.9150943,4.05660377 C11.6698113,3.98113208 11.4433962,3.95283019 11.2169811,3.95283019 C10.9339623,3.95283019 10.6792453,4.05660377 10.4528302,4.28301887 C10.1886792,4.53773585 10.0660377,4.86792453 10.0660377,5.28301887 L10.0660377,7.86792453 L9,7.86792453 L9,2.99056604 L10.0660377,2.99056604 L10.0660377,3.68867925 C10.1981132,3.44339623 10.3490566,3.25471698 10.5283019,3.12264151 C10.745283,2.94339623 11,2.85849057 11.3018868,2.85849057 Z M16,1 L17.0754717,1 L17.0754717,7.86792453 L16.0754717,7.86792453 L16.0754717,7.3490566 C15.7358491,7.78301887 15.245283,8 14.6037736,8 C13.8773585,8 13.3113208,7.74528302 12.9056604,7.23584906 C12.5283019,6.76415094 12.3396226,6.1509434 12.3396226,5.40566038 C12.3396226,4.68867925 12.5188679,4.09433962 12.8962264,3.62264151 C13.2924528,3.11320755 13.8490566,2.85849057 14.5471698,2.85849057 C15.1132075,2.85849057 15.5943396,3.12264151 16,3.66037736 L16,1 Z M14.8018868,3.72641509 C14.3113208,3.72641509 13.9622642,3.88679245 13.7358491,4.20754717 C13.5377358,4.48113208 13.4433962,4.87735849 13.4433962,5.40566038 C13.4433962,5.93396226 13.5283019,6.33962264 13.7169811,6.62264151 C13.9339623,6.96226415 14.2830189,7.13207547 14.7641509,7.13207547 C15.1792453,7.13207547 15.509434,6.96226415 15.7358491,6.63207547 C15.9339623,6.33018868 16.0377358,5.93396226 16.0377358,5.46226415 L16.0377358,5.38679245 C16.0377358,4.86792453 15.9056604,4.45283019 15.6603774,4.1509434 C15.4339623,3.86792453 15.1415094,3.72641509 14.8018868,3.72641509 Z" id="rd" opacity="0.300000012"></path>
                </g>
            </g>
        </g>
    </g>
</svg>