<?xml version="1.0" encoding="UTF-8"?>
<svg width="28px" height="16px" viewBox="0 0 28 16" version="1.1" xmlns="http://www.w3.org/2000/svg" xmlns:xlink="http://www.w3.org/1999/xlink">
    <!-- Generator: Sketch 55.2 (78181) - https://sketchapp.com -->
    <title>完场/4th_slice</title>
    <desc>Created with Sketch.</desc>
    <g id="切图" stroke="none" stroke-width="1" fill="none" fill-rule="evenodd">
        <g id="画板" transform="translate(-237.000000, -1233.000000)">
            <g id="icon/28/第四节备份" transform="translate(237.000000, 1233.000000)">
                <path d="M4.65542669,1 L23.3445733,1 C24.9632601,1 25.5506355,1.186 26.1425501,1.534 C26.7344647,1.883 27.1983733,2.394 27.515211,3.046 C27.8311409,3.698 28,4.345 28,6.128 L28,9.872 C28,11.655 27.8311409,12.302 27.515211,12.954 C27.2056276,13.598193 26.7273772,14.1249907 26.1425501,14.466 C25.5506355,14.814 24.9632601,15 23.3445733,15 L4.65542669,15 C3.03673991,15 2.44936451,14.814 1.85744988,14.466 C1.27262281,14.1249907 0.794372403,13.598193 0.484788972,12.954 C0.16885908,12.302 0,11.655 0,9.872 L0,6.128 C0,4.345 0.16885908,3.698 0.484788972,3.046 C0.794372403,2.40180701 1.27262281,1.87500931 1.85744988,1.534 C2.44936451,1.186 3.03673991,1 4.65542669,1 Z" id="形状" fill="#E5E6E8" fill-rule="nonzero"></path>
                <g id="编组" stroke-width="1" fill-rule="evenodd" transform="translate(5.000000, 4.000000)" fill="#030A22">
                    <path d="M3.91036415,0 L5.1092437,0 L5.1092437,5.24369748 L6.29691877,5.24369748 L6.29691877,6.28571429 L5.1092437,6.28571429 L5.1092437,8 L3.86554622,8 L3.86554622,6.28571429 L0,6.28571429 L0,5.04201681 L3.91036415,0 Z M3.83193277,1.65826331 L1.06442577,5.24369748 L3.86554622,5.24369748 L3.86554622,1.65826331 L3.83193277,1.65826331 Z" id="4" opacity="0.5"></path>
                    <path d="M10.9903846,1.42307692 L10.9903846,3.02884615 L12.0961538,3.02884615 L12.0961538,3.93269231 L10.9903846,3.93269231 L10.9903846,6.74038462 C10.9903846,6.85576923 11.0096154,6.94230769 11.0673077,7.00961538 C11.125,7.06730769 11.2019231,7.09615385 11.3173077,7.09615385 L11.9711538,7.09615385 L11.9711538,8 L11.1346154,8 C10.7019231,8 10.3846154,7.88461538 10.1826923,7.65384615 C9.99038462,7.44230769 9.89423077,7.14423077 9.89423077,6.74038462 L9.89423077,3.93269231 L9,3.93269231 L9,3.02884615 L9.89423077,3.02884615 L9.89423077,1.875 L10.9903846,1.42307692 Z M12.9134615,1 L14.0096154,1 L14.0096154,3.69230769 C14.1923077,3.41346154 14.4230769,3.21153846 14.6923077,3.07692308 C14.9326923,2.95192308 15.2115385,2.89423077 15.5288462,2.89423077 C16.1346154,2.89423077 16.5865385,3.06730769 16.8846154,3.42307692 C17.1634615,3.75961538 17.3076923,4.25961538 17.3076923,4.92307692 L17.3076923,8 L16.2115385,8 L16.2115385,5.11538462 C16.2115385,4.69230769 16.125,4.36538462 15.9615385,4.14423077 C15.7692308,3.90384615 15.4903846,3.78846154 15.1153846,3.78846154 C14.7692308,3.78846154 14.5,3.92307692 14.3076923,4.19230769 C14.1057692,4.46153846 14.0096154,4.79807692 14.0096154,5.22115385 L14.0096154,8 L12.9134615,8 L12.9134615,1 Z" id="th" opacity="0.300000012"></path>
                </g>
            </g>
        </g>
    </g>
</svg>