<?xml version="1.0" encoding="UTF-8"?>
<svg width="28px" height="16px" viewBox="0 0 28 16" version="1.1" xmlns="http://www.w3.org/2000/svg" xmlns:xlink="http://www.w3.org/1999/xlink">
    <!-- Generator: Sketch 55.2 (78181) - https://sketchapp.com -->
    <title>完场/5th_slice</title>
    <desc>Created with Sketch.</desc>
    <g id="切图" stroke="none" stroke-width="1" fill="none" fill-rule="evenodd">
        <g id="画板" transform="translate(-300.000000, -1233.000000)">
            <g id="icon/28/第N节备份" transform="translate(300.000000, 1233.000000)">
                <path d="M4.65542669,1 L23.3445733,1 C24.9632601,1 25.5506355,1.186 26.1425501,1.534 C26.7344647,1.883 27.1983733,2.394 27.515211,3.046 C27.8311409,3.698 28,4.345 28,6.128 L28,9.872 C28,11.655 27.8311409,12.302 27.515211,12.954 C27.2056276,13.598193 26.7273772,14.1249907 26.1425501,14.466 C25.5506355,14.814 24.9632601,15 23.3445733,15 L4.65542669,15 C3.03673991,15 2.44936451,14.814 1.85744988,14.466 C1.27262281,14.1249907 0.794372403,13.598193 0.484788972,12.954 C0.16885908,12.302 0,11.655 0,9.872 L0,6.128 C0,4.345 0.16885908,3.698 0.484788972,3.046 C0.794372403,2.40180701 1.27262281,1.87500931 1.85744988,1.534 C2.44936451,1.186 3.03673991,1 4.65542669,1 Z" id="形状" fill="#E5E6E8" fill-rule="nonzero"></path>
                <path d="M15.9903846,5.42307692 L15.9903846,7.02884615 L17.0961538,7.02884615 L17.0961538,7.93269231 L15.9903846,7.93269231 L15.9903846,10.7403846 C15.9903846,10.8557692 16.0096154,10.9423077 16.0673077,11.0096154 C16.125,11.0673077 16.2019231,11.0961538 16.3173077,11.0961538 L16.9711538,11.0961538 L16.9711538,12 L16.1346154,12 C15.7019231,12 15.3846154,11.8846154 15.1826923,11.6538462 C14.9903846,11.4423077 14.8942308,11.1442308 14.8942308,10.7403846 L14.8942308,7.93269231 L14,7.93269231 L14,7.02884615 L14.8942308,7.02884615 L14.8942308,5.875 L15.9903846,5.42307692 Z M17.9134615,5 L19.0096154,5 L19.0096154,7.69230769 C19.1923077,7.41346154 19.4230769,7.21153846 19.6923077,7.07692308 C19.9326923,6.95192308 20.2115385,6.89423077 20.5288462,6.89423077 C21.1346154,6.89423077 21.5865385,7.06730769 21.8846154,7.42307692 C22.1634615,7.75961538 22.3076923,8.25961538 22.3076923,8.92307692 L22.3076923,12 L21.2115385,12 L21.2115385,9.11538462 C21.2115385,8.69230769 21.125,8.36538462 20.9615385,8.14423077 C20.7692308,7.90384615 20.4903846,7.78846154 20.1153846,7.78846154 C19.7692308,7.78846154 19.5,7.92307692 19.3076923,8.19230769 C19.1057692,8.46153846 19.0096154,8.79807692 19.0096154,9.22115385 L19.0096154,12 L17.9134615,12 L17.9134615,5 Z" id="th" fill="#030A22" fill-rule="evenodd" opacity="0.300000012"></path>
                <path d="M5.78958335,4.146 L10.5195833,4.146 L10.5195833,5.202 L6.75758335,5.202 L6.52658335,7.468 L6.55958335,7.468 C6.80158335,7.215 7.07658335,7.039 7.39558335,6.929 C7.68158335,6.808 8.01158335,6.753 8.36358335,6.753 C9.10058335,6.753 9.70558335,6.995 10.1675833,7.479 C10.6295833,7.963 10.8715833,8.623 10.8715833,9.47 C10.8715833,10.284 10.5635833,10.944 9.96958335,11.461 C9.40858335,11.923 8.73758335,12.154 7.95658335,12.154 C7.25258335,12.154 6.64758335,11.956 6.14158335,11.571 C5.58058335,11.153 5.27258335,10.57 5.21758335,9.844 L6.39458335,9.844 C6.43858335,10.284 6.61458335,10.625 6.91158335,10.845 C7.17558335,11.043 7.52758335,11.142 7.96758335,11.142 C8.45158335,11.142 8.85858335,10.988 9.18858335,10.691 C9.51858335,10.383 9.68358335,9.987 9.68358335,9.481 C9.68358335,8.931 9.54058335,8.502 9.25458335,8.194 C8.96858335,7.886 8.57258335,7.732 8.04458335,7.732 C7.69258335,7.732 7.39558335,7.787 7.13158335,7.919 C6.84558335,8.051 6.63658335,8.26 6.48258335,8.546 L5.36058335,8.546 L5.78958335,4.146 Z" id="5" fill="#030A22" fill-rule="evenodd" opacity="0.5"></path>
            </g>
        </g>
    </g>
</svg>