<?xml version="1.0" encoding="UTF-8"?>
<svg width="28px" height="14px" viewBox="0 0 28 14" version="1.1" xmlns="http://www.w3.org/2000/svg" xmlns:xlink="http://www.w3.org/1999/xlink">
    <!-- Generator: Sketch 55.2 (78181) - https://sketchapp.com -->
    <title>完场/6th_slice</title>
    <desc>Created with Sketch.</desc>
    <g id="切图" stroke="none" stroke-width="1" fill="none" fill-rule="evenodd">
        <g id="画板" transform="translate(-47.000000, -1276.000000)">
            <g id="完场/6th" transform="translate(47.000000, 1276.000000)">
                <path d="M4.65542669,-2.27373675e-13 L23.3445733,-2.27373675e-13 C24.9632601,-2.27373675e-13 25.5506355,0.186 26.1425501,0.534 C26.7344647,0.883 27.1983733,1.394 27.515211,2.046 C27.8311409,2.698 28,3.345 28,5.128 L28,8.872 C28,10.655 27.8311409,11.302 27.515211,11.954 C27.2056276,12.598193 26.7273772,13.1249907 26.1425501,13.466 C25.5506355,13.814 24.9632601,14 23.3445733,14 L4.65542669,14 C3.03673991,14 2.44936451,13.814 1.85744988,13.466 C1.27262281,13.1249907 0.794372403,12.598193 0.484788972,11.954 C0.16885908,11.302 0,10.655 0,8.872 L0,5.128 C0,3.345 0.16885908,2.698 0.484788972,2.046 C0.794372403,1.40180701 1.27262281,0.875009308 1.85744988,0.534 C2.44936451,0.186 3.03673991,-2.27373675e-13 4.65542669,-2.27373675e-13 Z" id="形状" fill="#E5E6E8" fill-rule="nonzero"></path>
                <path d="M15.9903846,4.42307692 L15.9903846,6.02884615 L17.0961538,6.02884615 L17.0961538,6.93269231 L15.9903846,6.93269231 L15.9903846,9.74038462 C15.9903846,9.85576923 16.0096154,9.94230769 16.0673077,10.0096154 C16.125,10.0673077 16.2019231,10.0961538 16.3173077,10.0961538 L16.9711538,10.0961538 L16.9711538,11 L16.1346154,11 C15.7019231,11 15.3846154,10.8846154 15.1826923,10.6538462 C14.9903846,10.4423077 14.8942308,10.1442308 14.8942308,9.74038462 L14.8942308,6.93269231 L14,6.93269231 L14,6.02884615 L14.8942308,6.02884615 L14.8942308,4.875 L15.9903846,4.42307692 Z M17.9134615,4 L19.0096154,4 L19.0096154,6.69230769 C19.1923077,6.41346154 19.4230769,6.21153846 19.6923077,6.07692308 C19.9326923,5.95192308 20.2115385,5.89423077 20.5288462,5.89423077 C21.1346154,5.89423077 21.5865385,6.06730769 21.8846154,6.42307692 C22.1634615,6.75961538 22.3076923,7.25961538 22.3076923,7.92307692 L22.3076923,11 L21.2115385,11 L21.2115385,8.11538462 C21.2115385,7.69230769 21.125,7.36538462 20.9615385,7.14423077 C20.7692308,6.90384615 20.4903846,6.78846154 20.1153846,6.78846154 C19.7692308,6.78846154 19.5,6.92307692 19.3076923,7.19230769 C19.1057692,7.46153846 19.0096154,7.79807692 19.0096154,8.22115385 L19.0096154,11 L17.9134615,11 L17.9134615,4 Z" id="th" fill="#030A22" opacity="0.300000012"></path>
                <path d="M8.15458335,2.992 C9.67258335,2.992 10.5415833,3.696 10.7395833,5.126 L9.57358335,5.126 C9.40858335,4.356 8.93558335,3.982 8.14358335,3.982 C7.59358335,3.982 7.16458335,4.246 6.84558335,4.785 C6.52658335,5.291 6.37258335,5.918 6.37258335,6.688 C6.37258335,6.721 6.37258335,6.765 6.38358335,6.831 L6.42758335,6.831 C6.64758335,6.479 6.92258335,6.226 7.26358335,6.061 C7.57158335,5.896 7.93458335,5.819 8.35258335,5.819 C9.12258335,5.819 9.73858335,6.061 10.2005833,6.545 C10.6515833,7.04 10.8825833,7.678 10.8825833,8.448 C10.8825833,9.229 10.6185833,9.878 10.1015833,10.384 C9.57358335,10.89 8.91358335,11.154 8.14358335,11.154 C7.17558335,11.154 6.44958335,10.802 5.94358335,10.098 C5.45958335,9.427 5.21758335,8.492 5.21758335,7.293 C5.21758335,6.017 5.47058335,4.983 5.99858335,4.191 C6.52658335,3.388 7.25258335,2.992 8.15458335,2.992 Z M8.11058335,6.787 C7.61558335,6.787 7.23058335,6.941 6.94458335,7.249 C6.65858335,7.557 6.51558335,7.964 6.51558335,8.481 C6.51558335,8.987 6.65858335,9.394 6.95558335,9.702 C7.24158335,10.01 7.62658335,10.164 8.09958335,10.164 C8.58358335,10.164 8.96858335,9.999 9.25458335,9.68 C9.55158335,9.35 9.70558335,8.943 9.70558335,8.448 C9.70558335,7.942 9.56258335,7.535 9.27658335,7.249 C8.99058335,6.941 8.59458335,6.787 8.11058335,6.787 Z" id="6" fill="#030A22" fill-rule="nonzero" opacity="0.5"></path>
            </g>
        </g>
    </g>
</svg>