<?xml version="1.0" encoding="UTF-8"?>
<svg width="28px" height="14px" viewBox="0 0 28 14" version="1.1" xmlns="http://www.w3.org/2000/svg" xmlns:xlink="http://www.w3.org/1999/xlink">
    <!-- Generator: Sketch 55.2 (78181) - https://sketchapp.com -->
    <title>完场/8th_slice</title>
    <desc>Created with Sketch.</desc>
    <g id="切图" stroke="none" stroke-width="1" fill="none" fill-rule="evenodd">
        <g id="画板" transform="translate(-174.000000, -1276.000000)">
            <g id="完场/8th" transform="translate(174.000000, 1276.000000)">
                <path d="M4.65542669,-2.27373675e-13 L23.3445733,-2.27373675e-13 C24.9632601,-2.27373675e-13 25.5506355,0.186 26.1425501,0.534 C26.7344647,0.883 27.1983733,1.394 27.515211,2.046 C27.8311409,2.698 28,3.345 28,5.128 L28,8.872 C28,10.655 27.8311409,11.302 27.515211,11.954 C27.2056276,12.598193 26.7273772,13.1249907 26.1425501,13.466 C25.5506355,13.814 24.9632601,14 23.3445733,14 L4.65542669,14 C3.03673991,14 2.44936451,13.814 1.85744988,13.466 C1.27262281,13.1249907 0.794372403,12.598193 0.484788972,11.954 C0.16885908,11.302 0,10.655 0,8.872 L0,5.128 C0,3.345 0.16885908,2.698 0.484788972,2.046 C0.794372403,1.40180701 1.27262281,0.875009308 1.85744988,0.534 C2.44936451,0.186 3.03673991,-2.27373675e-13 4.65542669,-2.27373675e-13 Z" id="形状" fill="#E5E6E8" fill-rule="nonzero"></path>
                <path d="M15.9903846,4.42307692 L15.9903846,6.02884615 L17.0961538,6.02884615 L17.0961538,6.93269231 L15.9903846,6.93269231 L15.9903846,9.74038462 C15.9903846,9.85576923 16.0096154,9.94230769 16.0673077,10.0096154 C16.125,10.0673077 16.2019231,10.0961538 16.3173077,10.0961538 L16.9711538,10.0961538 L16.9711538,11 L16.1346154,11 C15.7019231,11 15.3846154,10.8846154 15.1826923,10.6538462 C14.9903846,10.4423077 14.8942308,10.1442308 14.8942308,9.74038462 L14.8942308,6.93269231 L14,6.93269231 L14,6.02884615 L14.8942308,6.02884615 L14.8942308,4.875 L15.9903846,4.42307692 Z M17.9134615,4 L19.0096154,4 L19.0096154,6.69230769 C19.1923077,6.41346154 19.4230769,6.21153846 19.6923077,6.07692308 C19.9326923,5.95192308 20.2115385,5.89423077 20.5288462,5.89423077 C21.1346154,5.89423077 21.5865385,6.06730769 21.8846154,6.42307692 C22.1634615,6.75961538 22.3076923,7.25961538 22.3076923,7.92307692 L22.3076923,11 L21.2115385,11 L21.2115385,8.11538462 C21.2115385,7.69230769 21.125,7.36538462 20.9615385,7.14423077 C20.7692308,6.90384615 20.4903846,6.78846154 20.1153846,6.78846154 C19.7692308,6.78846154 19.5,6.92307692 19.3076923,7.19230769 C19.1057692,7.46153846 19.0096154,7.79807692 19.0096154,8.22115385 L19.0096154,11 L17.9134615,11 L17.9134615,4 Z" id="th" fill="#030A22" opacity="0.300000012"></path>
                <path d="M8.04458335,2.992 C8.88058335,2.992 9.54058335,3.212 10.0355833,3.652 C10.4755833,4.048 10.6955833,4.543 10.6955833,5.126 C10.6955833,5.533 10.6075833,5.874 10.4315833,6.149 C10.2335833,6.446 9.93658335,6.666 9.54058335,6.82 L9.54058335,6.853 C9.91458335,6.941 10.2445833,7.161 10.5085833,7.513 C10.8165833,7.887 10.9705833,8.316 10.9705833,8.811 C10.9705833,9.504 10.7175833,10.065 10.2115833,10.505 C9.69458335,10.934 8.96858335,11.154 8.04458335,11.154 C7.10958335,11.154 6.38358335,10.934 5.87758335,10.505 C5.37158335,10.065 5.11858335,9.504 5.11858335,8.811 C5.11858335,8.316 5.27258335,7.887 5.58058335,7.513 C5.84458335,7.161 6.16358335,6.941 6.54858335,6.853 L6.54858335,6.82 C6.15258335,6.666 5.85558335,6.446 5.65758335,6.149 C5.48158335,5.874 5.39358335,5.533 5.39358335,5.126 C5.39358335,4.543 5.61358335,4.048 6.05358335,3.652 C6.53758335,3.212 7.20858335,2.992 8.04458335,2.992 Z M8.04458335,3.949 C7.56058335,3.949 7.17558335,4.07 6.88958335,4.334 C6.63658335,4.554 6.51558335,4.84 6.51558335,5.17 C6.51558335,5.544 6.61458335,5.841 6.82358335,6.061 C7.07658335,6.325 7.48358335,6.457 8.04458335,6.457 C8.59458335,6.457 9.00158335,6.325 9.26558335,6.061 C9.46358335,5.841 9.57358335,5.544 9.57358335,5.17 C9.57358335,4.84 9.44158335,4.554 9.19958335,4.334 C8.91358335,4.07 8.52858335,3.949 8.04458335,3.949 Z M8.04458335,7.348 C7.47258335,7.348 7.03258335,7.48 6.74658335,7.766 C6.44958335,8.03 6.30658335,8.371 6.30658335,8.811 C6.30658335,9.218 6.44958335,9.548 6.75758335,9.801 C7.05458335,10.054 7.48358335,10.186 8.04458335,10.186 C8.59458335,10.186 9.03458335,10.054 9.35358335,9.801 C9.63958335,9.548 9.78258335,9.218 9.78258335,8.811 C9.78258335,8.371 9.63958335,8.03 9.35358335,7.777 C9.04558335,7.491 8.61658335,7.348 8.04458335,7.348 Z" id="8" fill="#030A22" fill-rule="nonzero" opacity="0.5"></path>
            </g>
        </g>
    </g>
</svg>