<?xml version="1.0" encoding="UTF-8"?>
<svg width="14px" height="14px" viewBox="0 0 14 14" version="1.1" xmlns="http://www.w3.org/2000/svg" xmlns:xlink="http://www.w3.org/1999/xlink">
    <!-- Generator: Sketch 55.2 (78181) - https://sketchapp.com -->
    <title>完场/上半场_slice</title>
    <desc>Created with Sketch.</desc>
    <g id="切图" stroke="none" stroke-width="1" fill="none" fill-rule="evenodd">
        <g id="画板" transform="translate(-47.000000, -1176.000000)">
            <g id="ico/半场" transform="translate(47.000000, 1176.000000)">
                <rect id="矩形" fill-opacity="0" fill="#D8D8D8" fill-rule="evenodd" x="0" y="0" width="14" height="14"></rect>
                <path d="M12.4368525,4.53275668 C12.466189,4.65751412 12.4081855,4.7786891 12.3028905,4.84348755 L9.2335117,7.67488432 C9.39912303,8.30973312 9.42517289,8.98034363 9.30234904,9.64580044 C9.08895935,10.8019279 8.45043361,11.8006159 7.50825665,12.4614218 C6.79352899,12.96152 5.96662872,13.2222222 5.12256476,13.2220966 C4.85318005,13.2220966 4.58221288,13.196328 4.31124571,13.1417113 C3.66852034,13.0141884 3.0756427,12.7419218 2.5657229,12.3492344 C2.48465186,12.7773064 2.11958872,13.1018643 1.68027132,13.1018643 C1.18307212,13.1018643 0.777777778,12.6834084 0.777777778,12.1699231 C0.777777778,11.6991759 1.11861699,11.3092539 1.55836044,11.2474094 C0.938702577,10.282849 0.713809562,9.1277271 0.924156046,7.98781494 C1.13754574,6.8316246 1.77601062,5.83287374 2.71818758,5.17357625 C2.82232613,5.10048159 2.92920357,5.03348339 3.0377852,4.97075899 L3.03504632,4.96152003 L11.0947981,0.853323592 C11.130221,0.823406947 11.1728868,0.800969463 11.2215173,0.788713694 L11.2429414,0.777777778 L11.2450717,0.783245736 C11.4131785,0.754523243 11.5759292,0.857283148 11.6134824,1.01491118 L12.4368525,4.53275668 Z M1.68027132,12.6208097 C1.92056296,12.6208097 2.11691069,12.4178667 2.11691069,12.1697974 C2.11691069,11.9217281 1.92263234,11.7190365 1.68027132,11.7190365 C1.4401014,11.7190365 1.24369281,11.9217281 1.24369281,12.1697974 C1.24369281,12.4178667 1.44004054,12.6208097 1.68027132,12.6208097 Z M7.04130693,11.7499588 C8.60855866,10.6513391 9.01823521,8.44209542 7.9542691,6.82383118 C7.29279757,5.81433296 6.21026789,5.27080535 5.10899205,5.27080535 C4.70990586,5.27080535 4.30911546,5.3435229 3.92469752,5.49002648 L3.2881803,5.81181896 C3.25360946,5.83425644 3.21922122,5.85719673 3.1851373,5.88107976 C1.6180073,6.97976227 1.20820901,9.1889431 2.27217513,10.807333 C2.78696406,11.5910737 3.56760759,12.1211514 4.46766656,12.2993943 C5.36918627,12.4775115 6.28367005,12.2830533 7.04130693,11.7499588 Z M8.95950132,6.91251267 L11.6134824,4.53275668 L10.9391702,1.7728163 L8.95950132,2.86861288 L9.33491136,3.77057359 C9.40880043,3.92857872 9.34556259,4.11932876 9.19425432,4.19569163 C9.15024955,4.21750061 9.10447971,4.22837368 9.0588316,4.22837368 C8.94434614,4.22837368 8.83533846,4.16300958 8.78269097,4.05038221 L8.35717263,3.16075416 C6.67814516,4.03804765 5.86417408,4.48172241 5.91525938,4.49177842 C7.03321199,4.71376496 8.00192572,5.3714912 8.64197307,6.34441066 C8.76230149,6.52717874 8.8682051,6.71711172 8.95950132,6.91251267 Z M5.05220188,6.22222222 C5.92548345,6.22222222 6.78384891,6.63950715 7.30841951,7.4142501 C8.15205689,8.65652006 7.82722422,10.352347 6.58442434,11.1954993 C5.9837064,11.6047656 5.25845777,11.754051 4.54361282,11.6172321 C3.82989597,11.4804759 3.21081492,11.0736529 2.80262754,10.4720008 C1.95905284,9.22973086 2.28394818,7.53396658 3.52668539,6.69062628 C3.99409848,6.37376287 4.52537506,6.22222222 5.05220188,6.22222222 Z M6.15918999,10.56929 C7.05622452,9.96068425 7.29074581,8.73651899 6.68181774,7.83992959 C6.30308654,7.2806262 5.6835041,6.97948694 5.05314197,6.97948694 C4.67284395,6.97948694 4.28934962,7.08892948 3.95198241,7.31758734 C3.05494788,7.92625577 2.82042659,9.15035839 3.42935467,10.0470731 C3.72397909,10.4813977 4.17083552,10.7750821 4.68606789,10.8736869 C5.20205233,10.9724796 5.72555749,10.8647912 6.15918999,10.56929 Z" id="形状结合" fill="#000000" fill-rule="nonzero" opacity="0.400000006"></path>
            </g>
        </g>
    </g>
</svg>