<?xml version="1.0" encoding="UTF-8"?>
<svg width="28px" height="14px" viewBox="0 0 28 14" version="1.1" xmlns="http://www.w3.org/2000/svg" xmlns:xlink="http://www.w3.org/1999/xlink">
    <!-- Generator: Sketch 55.2 (78181) - https://sketchapp.com -->
    <title>icon_detail_score_ot</title>
    <desc>Created with Sketch.</desc>
    <g id="icon_detail_score_ot" stroke="none" stroke-width="1" fill="none" fill-rule="evenodd">
        <g id="icon/16/暂停备份-6" fill-rule="nonzero">
            <path d="M5.00156841,0 L22.9984316,0 C24.7374715,0 25.3685196,0.186 26.0044444,0.534 C26.6403693,0.883 27.1387705,1.394 27.4791658,2.046 C27.8185859,2.698 28,3.345 28,5.128 L28,8.872 C28,10.655 27.8185859,11.302 27.4791658,11.954 C27.1465642,12.598193 26.6327547,13.1249907 26.0044444,13.466 C25.3685196,13.814 24.7374715,14 22.9984316,14 L5.00156841,14 C3.26252854,14 2.63148042,13.814 1.99555557,13.466 C1.36724526,13.1249907 0.853435825,12.598193 0.520834152,11.954 C0.181414143,11.302 0,10.655 0,8.872 L0,5.128 C0,3.345 0.181414143,2.698 0.520834152,2.046 C0.853435825,1.40180701 1.36724526,0.875009308 1.99555557,0.534 C2.63148042,0.186 3.26252854,0 5.00156841,0 Z" id="形状" fill="#FFFFFF" opacity="0.200000003"></path>
            <path d="M7.118,7.076 C7.118,6.056 7.346,5.18 7.79,4.472 C8.45,3.488 9.398,2.984 10.61,2.984 C11.81,2.984 12.77,3.488 13.418,4.472 C13.862,5.18 14.102,6.056 14.102,7.076 C14.102,8.096 13.862,8.972 13.418,9.68 C12.77,10.664 11.81,11.156 10.61,11.156 C9.398,11.156 8.45,10.664 7.79,9.68 C7.346,8.972 7.118,8.096 7.118,7.076 Z M12.77,7.076 C12.746,6.044 12.566,5.228 12.254,4.652 C11.846,3.932 11.282,3.584 10.526,3.596 C9.782,3.608 9.218,3.992 8.846,4.724 C8.57,5.3 8.426,6.14 8.45,7.172 C8.462,8.204 8.642,9.02 8.954,9.596 C9.35,10.304 9.926,10.664 10.682,10.652 C11.426,10.64 11.99,10.244 12.35,9.524 C12.638,8.936 12.782,8.108 12.77,7.076 Z M17.486,9.248 L17.486,3.716 L16.742,3.716 C16.49,3.716 16.286,3.776 16.13,3.896 L15.206,4.724 L14.966,4.724 L14.966,3.152 L21.182,3.152 L21.182,4.724 L20.942,4.724 L20.018,3.896 C19.874,3.776 19.658,3.716 19.418,3.716 L18.662,3.716 L18.662,9.248 C18.662,9.656 18.71,9.98 18.806,10.208 C18.926,10.448 19.082,10.652 19.274,10.76 L19.274,11 L16.886,11 L16.886,10.76 C17.066,10.652 17.234,10.448 17.354,10.208 C17.438,9.98 17.486,9.656 17.486,9.248 Z" id="OT" fill="#D2E4FF"></path>
        </g>
    </g>
</svg>