<?xml version="1.0" encoding="UTF-8"?>
<svg width="20px" height="20px" viewBox="0 0 20 20" version="1.1" xmlns="http://www.w3.org/2000/svg" xmlns:xlink="http://www.w3.org/1999/xlink">
    <title>icon_mine_setting_white</title>
    <g id="icon_mine_setting_white" stroke="none" stroke-width="1" fill="none" fill-rule="evenodd">
        <circle id="椭圆形" fill="#FFFFFF" opacity="0.400000006" cx="10" cy="10" r="10"></circle>
        <g id="icon/个人中心/setting" transform="translate(3.000000, 3.000000)" fill="#222222">
            <path d="M7.14838498,0.318973295 L12.7317212,3.48105658 C12.8235135,3.53304181 12.8800003,3.62913021 12.8800003,3.73310068 L12.8800003,10.0570595 C12.8796746,10.1608242 12.8232236,10.2566213 12.7317212,10.308688 L7.14774949,13.4711869 C7.05593603,13.5229378 6.94300516,13.5229378 6.85119169,13.4711869 L1.26827918,10.3091036 C1.17667804,10.2569311 1.12021848,10.1609613 1.1200001,10.0570595 L1.1200001,3.73310068 C1.11988178,3.62905599 1.17642126,3.53287111 1.26827918,3.48084881 L6.85182717,0.318973295 C6.94358248,0.267009009 7.05662968,0.267009009 7.14838498,0.318973295 Z M7.00009231,1.20034738 L1.96000029,4.05447231 L1.96000029,9.73550842 L6.99947668,12.589799 L12.0400003,9.7350853 L12.0400003,4.05466392 L7.00009231,1.20034738 Z M7,4.13875 C8.52223484,4.13875 9.75625,5.37276516 9.75625,6.895 C9.75625,8.41723484 8.52223484,9.65125 7,9.65125 C5.47776516,9.65125 4.24375,8.41723484 4.24375,6.895 C4.24375,5.37276516 5.47776516,4.13875 7,4.13875 Z M7,4.97875 C5.94168435,4.97875 5.08375,5.83668435 5.08375,6.895 C5.08375,7.95331565 5.94168435,8.81125 7,8.81125 C8.05831565,8.81125 8.91625,7.95331565 8.91625,6.895 C8.91625,5.83668435 8.05831565,4.97875 7,4.97875 Z" id="形状结合"></path>
        </g>
    </g>
</svg>