<?xml version="1.0" encoding="UTF-8"?>
<svg width="22px" height="22px" viewBox="0 0 22 22" version="1.1" xmlns="http://www.w3.org/2000/svg" xmlns:xlink="http://www.w3.org/1999/xlink">
    <!-- Generator: Sketch 55.2 (78181) - https://sketchapp.com -->
    <title>icon_personal_message_normal</title>
    <desc>Created with Sketch.</desc>
    <g id="icon_personal_message_normal" stroke="none" stroke-width="1" fill="none" fill-rule="evenodd">
        <g id="ico/通知" fill="#FFFFFF" fill-rule="nonzero">
            <path d="M12.3674391,20.3852121 C13.7737628,20.3852121 14.9986253,19.5232718 15.5732522,18.2832875 L9.16162608,18.2832875 C9.73625295,19.5232718 10.9611155,20.3852121 12.3674391,20.3852121 Z M20.9868421,15.1379615 C20.10978,14.8808916 19.4595444,14.0643166 19.4595444,13.0814022 L19.4595444,7.2746465 L19.4444226,7.2746465 C19.3234485,3.64542419 16.7527494,0.666437549 13.380597,0.0615671642 L13.380597,-0.0594069128 C13.380597,-0.785251375 12.8059701,-1.375 12.1103692,-1.375 C11.4147683,-1.375 10.8552632,-0.800373134 10.8552632,-0.0745286724 L10.8552632,0.0464454046 C7.48311076,0.651315789 4.91241163,3.63030244 4.79143755,7.25952474 L4.77631579,7.25952474 L4.77631579,13.0360369 C4.77631579,13.0814022 4.79143755,13.1116457 4.79143755,13.157011 C4.79143755,14.0491948 4.27729772,14.8204046 3.52120974,15.168205 C3.06755695,15.2891791 2.75,15.7125884 2.75,16.1813629 C2.75,16.7559898 3.20365279,17.2247643 3.76315789,17.2247643 L20.9868421,17.2247643 C21.5463472,17.2247643 22,16.7559898 22,16.1813629 C22,15.6067361 21.5463472,15.1379615 20.9868421,15.1379615 Z M6.25824823,15.1379615 C6.6060487,14.5028476 6.80263158,13.7770031 6.80263158,13.0511587 L6.80263158,7.78878633 L6.81775334,7.78878633 C6.81775334,7.69805577 6.80263158,7.60732522 6.80263158,7.53171642 C6.80263158,4.49224273 9.1918696,2.02739592 12.125491,2.02739592 C15.0591123,2.02739592 17.4483504,4.49224273 17.4483504,7.53171642 C17.4483504,7.62244698 17.4332286,7.71317753 17.4332286,7.78878633 L17.4483504,7.78878633 L17.4483504,13.0360369 C17.4483504,13.8072467 17.6449332,14.5179694 17.9927337,15.1379615 L6.25824823,15.1379615 Z" id="形状" transform="translate(12.375000, 9.505106) rotate(45.000000) translate(-12.375000, -9.505106) "></path>
        </g>
    </g>
</svg>