<?xml version="1.0" encoding="UTF-8"?>
<svg width="12px" height="12px" viewBox="0 0 12 12" version="1.1" xmlns="http://www.w3.org/2000/svg" xmlns:xlink="http://www.w3.org/1999/xlink">
    <!-- Generator: Sketch 55.2 (78181) - https://sketchapp.com -->
    <title>icon_team_mean_normal</title>
    <desc>Created with Sketch.</desc>
    <g id="icon_team_mean_normal" stroke="none" stroke-width="1" fill="none" fill-rule="evenodd">
        <g id="ico/喜欢" transform="translate(0.000000, 0.500000)">
            <g id="编组" transform="translate(0.000000, 0.550000)">
                <path d="M5.56647597,1.3027665 L6.43353097,1.30277482 C6.30155236,1.14432703 6.15625047,0.998403052 5.99972796,0.866092047 C5.84357838,0.998373029 5.69848625,1.14428756 5.56647597,1.3027665 Z M3.6115827,0 C1.6091703,0 0,1.56393929 0,3.47897628 C0,4.41152964 0.291386251,5.02394296 0.982580247,5.97369982 C1.52036028,6.72261504 2.42026606,7.57884297 3.54708959,8.48467797 C4.23770739,9.03985432 5.000354,9.59586169 5.28898359,9.78526393 C5.491533,9.92433618 5.74206039,10 6,10 C6.26165074,10 6.52087127,9.92250649 6.73003395,9.77220079 C7.13513062,9.494464 7.76722615,9.03246834 8.45088211,8.48284415 C9.57982639,7.57523108 10.4795275,6.72050912 11.0188676,5.97171723 C11.7168418,5.00409048 12,4.4099644 12,3.47897628 C12,1.56468295 10.3860969,0 8.38294813,0 C7.49413441,0 6.65081073,0.314532003 5.99972796,0.866092047 C5.34771998,0.314939169 4.50101055,0 3.6115827,0 Z M8.38294813,0.5 C10.0772595,0.5 11.4545455,1.83422668 11.4545455,3.47897628 C11.4545455,4.459029 10.9626434,5.14312388 10.56368,5.69622141 C9.41045587,7.29729785 6.51374765,9.29622141 6.39351295,9.37870164 C6.27873497,9.46118187 6.13664846,9.5 6,9.5 C5.86337646,9.5 5.72673422,9.46118188 5.60648706,9.37870164 C5.48079564,9.29622141 2.58954414,7.30215287 1.43633251,5.69622141 C1.03734417,5.14797892 0.545454545,4.459029 0.545454545,3.47897628 C0.545454545,1.83423774 1.91728378,0.5 3.6115827,0.5 C4.55165835,0.5 5.42614125,0.917256193 6,1.60620611 C6.57388369,0.917256193 7.44288494,0.5 8.38294813,0.5 Z" id="形状" fill="#FFFFFF" fill-rule="nonzero"></path>
                <path d="M8.38294813,0.5 C7.44288494,0.5 6.57388369,0.917256193 6.00000623,1.60620611 C5.42614125,0.917256193 4.55165835,0.5 3.6115827,0.5 C1.91728378,0.5 0.545454545,1.83423774 0.545454545,3.47897628 C0.545454545,4.459029 1.03734417,5.14797892 1.43633251,5.69622141 C2.58954414,7.30215287 5.48079564,9.29622141 5.60648706,9.37870164 C5.72673422,9.46118188 5.86337646,9.5 6.00000623,9.5 C6.13664846,9.5 6.27873497,9.46118187 6.39351295,9.37870164 C6.51374765,9.29622141 9.41045587,7.29729785 10.56368,5.69622141 C10.9626434,5.14312388 11.4545455,4.459029 11.4545455,3.47897628 C11.4545455,1.83422668 10.0772595,0.5 8.38294813,0.5 Z" id="形状备份" fill="#F24343"></path>
            </g>
        </g>
    </g>
</svg>