<?xml version="1.0" encoding="UTF-8"?>
<svg width="14px" height="14px" viewBox="0 0 14 14" version="1.1" xmlns="http://www.w3.org/2000/svg" xmlns:xlink="http://www.w3.org/1999/xlink">
    <!-- Generator: Sketch 55.2 (78181) - https://sketchapp.com -->
    <title>icon_bet_setting_black</title>
    <desc>Created with Sketch.</desc>
    <g id="icon_bet_setting_black" stroke="none" stroke-width="1" fill="none" fill-rule="evenodd">
        <g id="编组" fill="#000000" fill-rule="nonzero">
            <path d="M14,4.46203333 C12.8538667,2.62091667 12.8721833,2.58615 12.8721833,2.58615 C12.8721833,2.58615 8.91485,3.6554 8.17798333,0 L5.88548333,0 C5.88548333,0 5.25315,3.66123333 1.20983333,2.57716667 C0.04095,4.45468333 0.00105,4.51336667 0,4.51441667 C0.00163333333,4.51546667 3.1647,6.64545 0,9.53773333 L1.22826667,11.4840833 C1.22826667,11.4840833 4.7229,10.03135 5.8674,14 L8.1872,14 C8.1872,14 8.91485,10.353 12.8447667,11.4312333 C13.9637167,9.59035 13.9816833,9.57273333 13.9816833,9.57273333 C13.9816833,9.57273333 11.0149667,7.10791667 14,4.46203333 L14,4.46203333 Z M6.98168333,9.57728333 C5.5048,9.57728333 4.30721667,8.42333333 4.30721667,6.99988333 C4.30721667,5.57643333 5.5048,4.42225 6.98168333,4.42225 C8.4588,4.42225 9.6565,5.57643333 9.6565,6.99988333 C9.6565,8.42333333 8.4588,9.57728333 6.98168333,9.57728333 L6.98168333,9.57728333 Z" id="形状"></path>
        </g>
    </g>
</svg>