<?xml version="1.0" encoding="UTF-8"?>
<svg width="14px" height="14px" viewBox="0 0 14 14" version="1.1" xmlns="http://www.w3.org/2000/svg" xmlns:xlink="http://www.w3.org/1999/xlink">
    <!-- Generator: Sketch 55.2 (78181) - https://sketchapp.com -->
    <title>icon_bet_delete_black</title>
    <desc>Created with Sketch.</desc>
    <g id="icon_bet_delete_black" stroke="none" stroke-width="1" fill="none" fill-rule="evenodd">
        <g id="编组" transform="translate(1.000000, 0.000000)" fill="#000000" fill-rule="nonzero">
            <path d="M11.3937086,1.83174284 L0.616341446,1.83174284 C0.275459864,1.83174284 0,2.11300854 0,2.46107484 L0,3.8322451 C0,4.1803114 0.275459864,4.4615771 0.616341446,4.4615771 L1.20513691,4.4615771 L1.20513691,11.0396786 C1.20513691,12.6745354 2.50324152,14 4.10435198,14 L7.84027638,14 C9.44138684,14 10.7394915,12.6745354 10.7394915,11.0396786 L10.7394915,4.46333501 L11.3833789,4.46333501 C11.7242605,4.46333501 11.9997203,4.18206931 11.9997203,3.83400301 L11.9997203,2.46283275 C12.0100501,2.11300854 11.7328686,1.83174284 11.3937086,1.83174284 Z M4.44179031,10.7672024 C4.44179031,11.1996484 4.10090873,11.5565043 3.66878107,11.5565043 C3.24526152,11.5565043 2.89577182,11.1996484 2.89577182,10.7672024 L2.89577182,6.3038674 C2.89577182,5.8714214 3.24526152,5.51456554 3.66878107,5.51456554 C4.09230061,5.51456554 4.44179031,5.86263184 4.44179031,6.3038674 L4.44179031,10.7672024 Z M6.77286941,10.7672024 C6.77286941,11.1996484 6.43198783,11.5565043 5.99986017,11.5565043 C5.5677325,11.5565043 5.22685092,11.1996484 5.22685092,10.7672024 L5.22685092,6.3038674 C5.22685092,5.8714214 5.57634062,5.51456554 5.99986017,5.51456554 C6.42337971,5.51456554 6.77286941,5.86263184 6.77286941,6.3038674 L6.77286941,10.7672024 Z M9.10394851,10.7672024 C9.10394851,11.1996484 8.76306693,11.5565043 8.33093927,11.5565043 C7.8988116,11.5565043 7.55793002,11.1996484 7.55793002,10.7672024 L7.55793002,6.3038674 C7.55793002,5.8714214 7.90741973,5.51456554 8.33093927,5.51456554 C8.75445881,5.51456554 9.10394851,5.86263184 9.10394851,6.3038674 L9.10394851,10.7672024 Z M6.7367153,0 L5.26472665,0 C4.56574725,0 3.99416803,0.564289302 3.95801392,1.26921145 L8.04342803,1.26921145 C8.01588205,0.562531391 7.44602445,0 6.7367153,0 L6.7367153,0 Z" id="形状"></path>
        </g>
    </g>
</svg>