<?xml version="1.0" encoding="UTF-8"?>
<svg width="43px" height="33px" viewBox="0 0 43 33" version="1.1" xmlns="http://www.w3.org/2000/svg" xmlns:xlink="http://www.w3.org/1999/xlink">
    <!-- Generator: Sketch 55.2 (78181) - https://sketchapp.com -->
    <title>icon_bet_lock_normal</title>
    <desc>Created with Sketch.</desc>
    <g id="icon_bet_lock_normal" stroke="none" stroke-width="1" fill="none" fill-rule="evenodd">
        <g id="ico/账号锁定">
            <rect id="矩形" stroke="#19263B" stroke-width="2" fill="#FFFFFF" fill-rule="evenodd" x="1" y="1" width="38" height="28" rx="8"></rect>
            <rect id="矩形" fill="#19263B" fill-rule="evenodd" x="8" y="8" width="24" height="2" rx="1"></rect>
            <rect id="矩形备份" fill="#19263B" fill-rule="evenodd" x="8" y="16" width="16" height="2" rx="1"></rect>
            <circle id="椭圆形" fill="#F05050" fill-rule="evenodd" cx="34.5" cy="24.5" r="8.5"></circle>
            <path d="M37.8607595,22.3607595 C38.489962,22.3607595 39,22.8707975 39,23.5 L39,27.8291139 C39,28.4583165 38.489962,28.9683544 37.8607595,28.9683544 L31.1392405,28.9683544 C30.510038,28.9683544 30,28.4583165 30,27.8291139 L30,23.5 C30,22.8707975 30.510038,22.3607595 31.1392405,22.3607595 L31.9936709,22.3607595 L31.9936709,21.5063291 C31.9936709,20.1220949 33.1157658,19 34.5,19 C35.8842342,19 37.0063291,20.1221519 37.0063291,21.5063291 L37.0063291,22.3607595 L37.8607595,22.3607595 Z M32.7911392,21.5063291 L32.7911392,22.3607595 L36.2088608,22.3607595 L36.2088608,21.5063291 C36.2088608,20.5640633 35.4422658,19.7974684 34.5,19.7974684 C33.5577342,19.7974684 32.7911392,20.5640633 32.7911392,21.5063291 Z M38.2025316,27.8291139 L38.2025316,23.5 C38.2025316,23.3115696 38.0492468,23.1582278 37.8607595,23.1582278 L31.1392405,23.1582278 C30.9507532,23.1582278 30.7974684,23.3115696 30.7974684,23.5 L30.7974684,27.8291139 C30.7974684,28.0175443 30.9507532,28.1708861 31.1392405,28.1708861 L37.8607595,28.1708861 C38.0492468,28.1708861 38.2025316,28.0175443 38.2025316,27.8291139 Z M34.5,24.4113924 C34.7202148,24.4113924 34.8987342,24.5899118 34.8987342,24.8101266 L34.8987342,26.7468354 C34.8987342,26.9670502 34.7202148,27.1455696 34.5,27.1455696 C34.2797852,27.1455696 34.1012658,26.9670502 34.1012658,26.7468354 L34.1012658,24.8101266 C34.1012658,24.5899118 34.2797852,24.4113924 34.5,24.4113924 Z" id="形状结合" fill="#FFFFFF" fill-rule="nonzero"></path>
        </g>
    </g>
</svg>