<?xml version="1.0" encoding="UTF-8"?>
<svg width="55px" height="48px" viewBox="0 0 55 48" version="1.1" xmlns="http://www.w3.org/2000/svg" xmlns:xlink="http://www.w3.org/1999/xlink">
    <title>icon_personal_follow_normal</title>
    <g id="icon_personal_follow_normal" stroke="none" stroke-width="1" fill="none" fill-rule="evenodd">
        <path d="M36.1052066,26.7149053 C36.5959747,26.7149053 36.9938209,27.1127515 36.9938209,27.6035196 C36.9938209,28.0942877 36.5959747,28.4921338 36.1052066,28.4921338 L20.0358209,28.492244 L21.7495576,30.2062846 C22.0965831,30.5533101 22.0965831,31.1159495 21.7495576,31.4629749 C21.4025322,31.8100004 20.8398927,31.8100004 20.4928673,31.4629749 L17.2617571,28.2318648 L17.2532882,28.2248052 C17.0965884,28.0645863 17.0000007,27.8453326 17.0000007,27.6035196 C17.0000007,27.4037134 17.0659454,27.2193095 17.1772576,27.0708851 C17.1819343,27.0665197 17.1860633,27.0611314 17.1902624,27.0557801 C17.2086426,27.0305998 17.2287441,27.00758 17.2499649,26.98565 C17.254172,26.9828274 17.2579436,26.9789879 17.2617571,26.9751744 L17.2707454,26.9648695 C17.293732,26.9426263 17.3179159,26.9216129 17.343191,26.9019353 L17.323,26.919 L17.3585266,26.8912927 L17.3585266,26.8912927 C17.4130495,26.8495245 17.4738618,26.814261 17.5386425,26.7864764 C17.5460621,26.7839208 17.5528398,26.7811119 17.5596444,26.7783905 C17.6227997,26.7525608 17.6900615,26.7342878 17.7599586,26.7241508 C17.7784163,26.7217252 17.7963747,26.7196486 17.8143708,26.7181185 C17.8385241,26.7159516 17.8634474,26.7149053 17.888615,26.7149053 L36.1052066,26.7149053 Z M33.5629217,16.2602691 L36.7940319,19.4913793 L36.8025008,19.4984388 C36.9592006,19.6586578 37.0557883,19.8779115 37.0557883,20.1197245 C37.0557883,20.3195306 36.9898436,20.5039345 36.8785314,20.6523589 C36.8738547,20.6567243 36.8697257,20.6621127 36.8655266,20.667464 C36.8471464,20.6926442 36.8270449,20.715664 36.8058241,20.737594 C36.801617,20.7404167 36.7978454,20.7442562 36.7940319,20.7480696 L36.7850436,20.7583745 C36.762057,20.7806177 36.7378731,20.8016312 36.712598,20.8213087 L36.733,20.803 L36.6972624,20.8319514 L36.6972624,20.8319514 C36.6427395,20.8737195 36.5819272,20.9089831 36.5171465,20.9367676 C36.5097269,20.9393232 36.5029492,20.9421321 36.4961446,20.9448536 C36.4329893,20.9706832 36.3657275,20.9889563 36.2958304,20.9990932 L36.2414182,21.0051255 L36.2414182,21.0051255 C36.2172649,21.0072924 36.1923416,21.0083387 36.167174,21.0083387 L17.9505824,21.0083387 C17.4598143,21.0083387 17.0619681,20.6104926 17.0619681,20.1197245 C17.0619681,19.6289563 17.4598143,19.2311102 17.9505824,19.2311102 L34.0199681,19.231 L32.3062314,17.5169594 C31.9592059,17.169934 31.9592059,16.6072945 32.3062314,16.2602691 C32.6532568,15.9132436 33.2158963,15.9132436 33.5629217,16.2602691 Z" id="形状结合" fill="#888888"></path>
    </g>
</svg>