<?xml version="1.0" encoding="UTF-8"?>
<svg width="20px" height="20px" viewBox="0 0 20 20" version="1.1" xmlns="http://www.w3.org/2000/svg" xmlns:xlink="http://www.w3.org/1999/xlink">
    <!-- Generator: Sketch 55.2 (78181) - https://sketchapp.com -->
    <title>icon_anchor_link_normal</title>
    <desc>Created with Sketch.</desc>
    <g id="icon_anchor_link_normal" stroke="none" stroke-width="1" fill="none" fill-rule="evenodd" opacity="0.400000006">
        <g id="形状-2" fill="#19263B">
            <path d="M9.14303872,5.46743839 C8.64643513,5.94255422 7.85894224,5.92632039 7.38234857,5.43114253 C6.88707495,4.95464099 6.87083798,4.16730029 7.34604567,3.67079269 L9.27917456,1.73622267 C11.6624593,-0.646601389 15.6049531,-0.566750462 18.0862557,1.91407245 C20.5675582,4.39489537 20.6456094,8.33844195 18.2641398,10.7194512 L16.3291958,12.6540212 C15.8325922,13.129137 15.0450993,13.1129032 14.5685056,12.6177254 C14.073232,12.1412238 14.0569951,11.3538831 14.5322027,10.8573755 L16.4671468,8.9228055 C17.8974806,7.4927481 17.8484717,5.12807199 16.3600533,3.63994121 C14.8716348,2.15181043 12.5065015,2.10462579 11.0761676,3.53286838 L9.14303872,5.46743839 Z M9.09812175,12.6611069 C8.6119267,13.1264923 7.84093923,13.110591 7.37433472,12.6255544 C6.8894418,12.1588116 6.87354516,11.3875957 7.33879273,10.9012566 L10.9018783,7.33889311 C11.3880733,6.8735077 12.1590607,6.88940905 12.6256653,7.37444562 C13.1105582,7.84118838 13.1264548,8.61240427 12.6612073,9.09874336 L9.09812175,12.6611069 L9.09812175,12.6611069 Z M10.8394645,14.5947278 C11.3401226,14.1156908 12.134045,14.1320586 12.6145298,14.6313232 C13.113847,15.1117573 13.1302166,15.9055959 12.6511291,16.4062012 L10.8083551,18.2487807 C8.40561218,20.6512702 4.43093001,20.57259 1.92936902,18.0694631 C-0.572192003,15.568166 -0.650880455,11.5939031 1.75003252,9.19141365 L3.59280644,7.34883414 C4.09346453,6.86979719 4.88738687,6.88616499 5.36787167,7.38542955 C5.86718893,7.86586366 5.88355846,8.65970227 5.40447096,9.16030755 L3.56169704,11.0028871 C2.12151525,12.4447467 2.16909431,14.8289385 3.66966494,16.3293508 C5.17023554,17.8297631 7.55467886,17.8791669 8.99669061,16.4373073 L10.8394645,14.5947278 L10.8394645,14.5947278 Z" id="形状"></path>
        </g>
    </g>
</svg>