<?xml version="1.0" encoding="UTF-8"?>
<svg width="22px" height="22px" viewBox="0 0 22 22" version="1.1" xmlns="http://www.w3.org/2000/svg" xmlns:xlink="http://www.w3.org/1999/xlink">
    <!-- Generator: Sketch 55.2 (78181) - https://sketchapp.com -->
    <title>icon_personal_customer_normal</title>
    <desc>Created with Sketch.</desc>
    <g id="icon_personal_customer_normal" stroke="none" stroke-width="1" fill="none" fill-rule="evenodd">
        <g id="ico/通知备份" fill="#FFFFFF" fill-rule="nonzero">
            <path d="M20.2587407,13.5829503 C20.2587407,14.4659565 19.6394815,15.1849876 18.8800741,15.1849876 L18.0807407,15.1849876 L18.0807407,9.52456522 L18.8800741,9.52456522 C19.2581481,9.52456522 19.6011852,9.70247825 19.8513333,9.99107454 C20.1185926,10.3075466 20.2628148,10.7109255 20.2587407,11.1274224 L20.2587407,13.5813106 L20.2587407,13.5829503 Z M3.92088889,11.4840683 L3.92088889,15.1841677 L3.12074074,15.1841677 C2.36051851,15.1841677 1.74207407,14.4659565 1.74207407,13.5821304 L1.74207407,11.1274224 C1.74207407,10.9880435 1.76162963,10.8552236 1.79096297,10.727323 C1.79829631,10.6961677 1.80725927,10.6666522 1.81540741,10.6363168 C1.84800001,10.5248137 1.88629629,10.4174099 1.93762964,10.318205 L1.9522963,10.2862298 C2.08103704,10.0460062 2.26192593,9.85169565 2.47703704,9.71887577 C2.56666666,9.66312423 2.66362962,9.61885093 2.76385185,9.58605589 C2.77444445,9.58277639 2.78340741,9.57785714 2.79399999,9.57539752 C2.89829629,9.54342236 3.00748148,9.52456522 3.12074074,9.52456522 L3.92088889,9.52456522 L3.92088889,11.4840683 Z M19.4113333,7.80856522 C18.2298519,4.07239131 14.9762963,1.375 11.1474815,1.375 C7.33414815,1.375 4.09037036,4.05271429 2.89829629,7.77003105 C1.28088889,7.89301242 0,9.34993169 0,11.1274224 L0,13.5821304 C0,15.4407888 1.39985185,16.9526397 3.12074074,16.9526397 L4.79111111,16.9526397 C5.27266667,16.9526397 5.66296296,16.5574596 5.66296296,16.0696335 L5.66296296,8.64155901 C5.66296296,8.15291304 5.27266667,7.75691304 4.79111111,7.75691304 L4.75037037,7.75691304 C5.84222221,5.04312421 8.29644444,3.14265216 11.1474815,3.14265218 C13.9993333,3.14265218 16.4543704,5.04312423 17.5454074,7.75691304 L17.2088889,7.75691304 C16.7281481,7.75691304 16.3378518,8.15291304 16.3378518,8.64155901 L16.3378518,16.0688137 C16.3378518,16.2934596 16.4234074,16.4959689 16.5586667,16.6517453 C15.2565926,18.1808137 13.3401481,19.0539814 10.9820741,19.0539814 C10.6605039,19.0557878 10.4010227,19.3190809 10.4019259,19.6426522 C10.4019259,19.9681429 10.6618519,20.2321429 10.9820741,20.2321429 C13.9097037,20.2321429 16.288963,19.0195466 17.8012593,16.9526397 L18.8792593,16.9526397 C20.6001481,16.9526397 22,15.4407888 22,13.5829503 L22,11.1274224 C22,9.46471429 20.8796296,8.08404347 19.4113333,7.8093851 L19.4113333,7.80856522 Z" id="形状"></path>
        </g>
    </g>
</svg>