<?xml version="1.0" encoding="UTF-8"?>
<svg width="55px" height="48px" viewBox="0 0 55 48" version="1.1" xmlns="http://www.w3.org/2000/svg" xmlns:xlink="http://www.w3.org/1999/xlink">
    <title>icon_personal_follow_selected</title>
    <g id="icon_personal_follow_selected" stroke="none" stroke-width="1" fill="none" fill-rule="evenodd">
        <path d="M17.0725797,15.1630395 C19.7552849,12.4800453 24.0236846,12.2904671 26.9182203,14.6084654 C28.2145288,13.5762305 29.821425,13.0119838 31.4785012,13.0071652 C31.9169008,13.0005184 32.2902774,13.3655143 32.2925893,13.8128727 C32.2938958,14.0277296 32.2096965,14.2342846 32.058555,14.3869982 C31.9074135,14.5397118 31.7017408,14.626044 31.4868819,14.6269608 C29.9889432,14.631288 28.5518797,15.220257 27.4817531,16.2684307 C27.166226,16.5770668 26.6615712,16.5759096 26.3474627,16.2658298 C24.1020012,14.0524463 20.4557995,14.0718087 18.2166958,16.3088895 C16.013427,18.5124473 16.0827849,22.3045895 18.3678382,24.5902208 L18.3678382,24.5902208 L26.9219772,33.1154607 L35.6391072,24.3957298 C35.8428234,24.1925399 36.1410374,24.1125934 36.4205479,24.1874502 C36.7000583,24.2623071 36.918401,24.4805947 36.9933284,24.7600863 C37.0682557,25.0395779 36.9883844,25.337812 36.7838013,25.5424468 L36.7838013,25.5424468 L27.4959137,34.8335133 C27.3441498,34.9853694 27.1382584,35.070689 26.9235666,35.070689 C26.7088749,35.070689 26.5029835,34.9853694 26.3512196,34.8335133 L26.3512196,34.8335133 L17.3086855,25.8190113 C17.2884561,25.8028278 17.2682267,25.7860663 17.2482863,25.7675709 C17.1992351,25.7236374 17.1543471,25.6752667 17.1141944,25.6230753 C14.3158928,22.6903928 14.2887277,17.9468915 17.0725797,15.1630395 Z M39.3777496,16.0525645 C39.690169,16.3649839 39.690169,16.8715159 39.3777496,17.1839353 L34.8527442,21.7089407 C34.6947593,21.8669255 34.4871372,21.9450203 34.2800791,21.943225 C34.0503581,21.9656514 33.8126874,21.8888052 33.6366476,21.7127654 L30.7277497,18.8038675 C30.4153303,18.4914481 30.4153303,17.9849161 30.7277497,17.6724967 C31.0401691,17.3600773 31.5467011,17.3600773 31.8591205,17.6724967 L34.2424351,20.0562499 L38.2463787,16.0525645 C38.5587981,15.740145 39.0653301,15.740145 39.3777496,16.0525645 Z" id="形状结合" fill="#888888" fill-rule="nonzero"></path>
    </g>
</svg>