<?xml version="1.0" encoding="UTF-8"?>
<svg width="48px" height="48px" viewBox="0 0 48 48" version="1.1" xmlns="http://www.w3.org/2000/svg" xmlns:xlink="http://www.w3.org/1999/xlink">
    <title>img_head portrait_nor2</title>
    <g id="img_head-portrait_nor2" stroke="none" stroke-width="1" fill="none" fill-rule="evenodd">
        <g id="img_head-portrait_nor">
            <rect id="矩形" fill="#E1E2E6" x="0" y="0" width="48" height="48"></rect>
            <path d="M26.564,27 C30.904,27 34.44,30.108 34.5,33.976 L34.5,34.43 C34.5,36 30.96,36 26.564,36 L21.436,36 C17.056,36 13.5,36 13.5,34.43 L13.5,33.976 C13.56,30.108 17.096,27 21.436,27 L26.564,27 Z M24,12 C27.3137085,12 30,14.6862915 30,18 C30,21.3137085 27.3137085,24 24,24 C20.6862915,24 18,21.3137085 18,18 C18,14.6862915 20.6862915,12 24,12 Z" id="形状" fill="#AFBAC0" fill-rule="nonzero"></path>
        </g>
    </g>
</svg>