<?xml version="1.0" encoding="UTF-8"?>
<svg width="18px" height="18px" viewBox="0 0 18 18" version="1.1" xmlns="http://www.w3.org/2000/svg" xmlns:xlink="http://www.w3.org/1999/xlink">
    <title>img_head portrait_nor</title>
    <g id="img_head-portrait_nor" stroke="none" stroke-width="1" fill="none" fill-rule="evenodd">
        <g id="头像-(3)" fill-rule="nonzero">
            <path d="M0,9 C0,13.9705627 4.02943725,18 9,18 C13.9705627,18 18,13.9705627 18,9 C18,4.02943725 13.9705627,0 9,0 C4.02943725,0 0,4.02943725 0,9 Z" id="路径" fill="#E1E2E6"></path>
            <path d="M9.96150001,10.125 C11.589,10.125 12.915,11.2905 12.9375,12.741 L12.9375,12.91125 C12.9375,13.5 11.61,13.5 9.96150001,13.5 L8.03849999,13.5 C6.39599999,13.5 5.0625,13.5 5.0625,12.91125 L5.0625,12.741 C5.085,11.2905 6.41100001,10.125 8.03849999,10.125 L9.96150001,10.125 Z M9,4.5 C10.2426407,4.5 11.25,5.50735931 11.25,6.75 C11.25,7.99264069 10.2426407,9 9,9 C7.75735931,9 6.75,7.99264069 6.75,6.75 C6.75,5.50735931 7.75735931,4.5 9,4.5 Z" id="形状" fill="#AFBAC0"></path>
        </g>
        <g id="头像-(3)" fill-rule="nonzero">
            <path d="M0,9 C0,13.9705627 4.02943725,18 9,18 C13.9705627,18 18,13.9705627 18,9 C18,4.02943725 13.9705627,0 9,0 C4.02943725,0 0,4.02943725 0,9 Z" id="路径" fill="#E1E2E6"></path>
            <path d="M9.96150001,10.125 C11.589,10.125 12.915,11.2905 12.9375,12.741 L12.9375,12.91125 C12.9375,13.5 11.61,13.5 9.96150001,13.5 L8.03849999,13.5 C6.39599999,13.5 5.0625,13.5 5.0625,12.91125 L5.0625,12.741 C5.085,11.2905 6.41100001,10.125 8.03849999,10.125 L9.96150001,10.125 Z M9,4.5 C10.2426407,4.5 11.25,5.50735931 11.25,6.75 C11.25,7.99264069 10.2426407,9 9,9 C7.75735931,9 6.75,7.99264069 6.75,6.75 C6.75,5.50735931 7.75735931,4.5 9,4.5 Z" id="形状" fill="#AFBAC0"></path>
        </g>
    </g>
</svg>