<?xml version="1.0" encoding="UTF-8"?>
<svg width="20px" height="20px" viewBox="0 0 20 20" version="1.1" xmlns="http://www.w3.org/2000/svg" xmlns:xlink="http://www.w3.org/1999/xlink">
    <!-- Generator: Sketch 55.2 (78181) - https://sketchapp.com -->
    <title>ico/个人中心/修改个人信息_slice</title>
    <desc>Created with Sketch.</desc>
    <g id="切图" stroke="none" stroke-width="1" fill="none" fill-rule="evenodd">
        <g id="画板" transform="translate(-154.000000, -337.000000)">
            <g id="ico/个人中心/修改个人信息" transform="translate(154.000000, 337.000000)">
                <circle id="椭圆形" fill="#FFFFFF" cx="10" cy="10" r="10"></circle>
                <path d="M8.10633369,11.7883231 L8.10700036,11.7889898 C8.20554674,11.8873695 8.33914015,11.9425692 8.4783879,11.9424444 C8.61763565,11.9423192 8.75112972,11.8868796 8.84949928,11.7883231 L14.5976576,6.04099843 C14.8030098,5.8353783 14.8030098,5.50228635 14.5976576,5.29666623 L14.5959909,5.29483289 C14.4973053,5.19653451 14.3636015,5.14148208 14.2243128,5.14179334 C14.0850241,5.14210725 13.9515688,5.19775923 13.8533254,5.29649956 L8.10633369,11.0439909 C7.90087054,11.2496302 7.90087054,11.5828505 8.10633369,11.7884898 L8.10633369,11.7883231 Z M14.4738245,9.21032701 L14.4714911,9.21032701 C14.1822245,9.210419 13.9477505,9.44489294 13.9476585,9.73415955 L13.9476585,13.9474866 L6.05283667,13.9474866 L6.05283667,6.05083175 L10.2656639,6.05283175 L10.2661639,6.05283175 C10.4054026,6.05239042 10.538763,5.99665446 10.636907,5.8978853 C10.7350511,5.79911614 10.7899392,5.66540454 10.7894965,5.52616588 L10.7894965,5.52399921 C10.7894965,5.23473256 10.5550972,5.00018401 10.2658306,5 L5.52283744,5 C5.38350432,5 5.25000451,5.05566659 5.15167132,5.1543331 C5.05414412,5.25232774 4.99958101,5.38507799 5.00000242,5.52333254 L5.00000242,14.4769858 C5.00062712,14.6162076 5.05600521,14.749594 5.15417131,14.8483185 C5.25223728,14.9459432 5.38513057,15.0005158 5.52350411,14.9999888 L14.4771578,14.9999888 C14.6163797,14.9993627 14.749766,14.9439846 14.8484906,14.8458185 C14.9460835,14.7475406 15.0005881,14.6144869 15.0000024,14.4759858 L15.0000024,9.73432622 C14.9993467,9.44435004 14.7638008,9.20977414 14.4738245,9.21032701 L14.4738245,9.21032701 Z" id="形状" fill="#FFD525" fill-rule="nonzero"></path>
            </g>
        </g>
    </g>
</svg>