<?xml version="1.0" encoding="UTF-8"?>
<svg width="64px" height="64px" viewBox="0 0 64 64" version="1.1" xmlns="http://www.w3.org/2000/svg" xmlns:xlink="http://www.w3.org/1999/xlink">
    <!-- Generator: Sketch 55.2 (78181) - https://sketchapp.com -->
    <title>logo</title>
    <desc>Created with Sketch.</desc>
    <g id="新增v1.3" stroke="none" stroke-width="1" fill="none" fill-rule="evenodd">
        <g id="00设置-关于" transform="translate(-156.000000, -144.000000)">
            <g id="logo" transform="translate(156.000000, 144.000000)">
                <rect id="矩形备份-4" fill="#222222" x="0" y="0" width="64" height="64" rx="14"></rect>
                <path d="M36.5910711,25.6873858 L33.3166021,41.396556 C33.1352489,43.3712303 33.3568628,44.4733702 33.9814439,44.7029758 C34.606025,44.9325814 35.8832357,44.3814324 37.8130759,43.0495287 L41.776837,26.7118969 C40.7334511,25.7150339 40.7334511,24.7948712 41.776837,23.9514087 C43.3419159,22.686215 44.5043435,22.6289401 46.5252848,22.8733005 C47.872579,23.0362074 48.7549307,23.9742359 49.17234,25.6873858 L45.8239998,41.6526837 C45.3195274,43.5677302 45.5532891,44.5844942 46.5252848,44.7029758 C47.9832784,44.8806982 50.5138252,42.4687021 51.1003812,42.295849 C51.6869373,42.1229959 52.4663451,41.5080107 52.136057,43.0495287 C51.8057689,44.5910467 51.0208706,45.4249698 50.2469214,46.2791102 C49.7309552,46.8485372 48.8313668,47.4597656 47.5481562,48.1127954 C45.3253334,48.908032 43.6259649,49.1363336 42.4500509,48.7977 C41.2741368,48.4590665 40.0088033,47.3770057 38.6540505,45.5515176 C36.5668128,47.372434 34.7876633,48.4544948 33.3166021,48.7977 C31.8455409,49.1409052 29.9838198,48.9126036 27.7314386,48.1127954 C21.5676166,50.2101973 16.7771442,49.356438 13.3600216,45.5515176 C11.6425957,43.883525 10.7838828,40.7530745 10.7838828,36.1601659 C11.6929924,30.3546031 14.2602666,26.2850173 18.4857055,23.9514087 C22.7111444,21.6178001 26.6852567,21.6178001 30.4080424,23.9514087 C32.4289196,22.949195 33.9441843,22.5898256 34.9538366,22.8733005 C35.9634889,23.1567754 36.5092337,24.0948038 36.5910711,25.6873858 Z M26.7319325,25.7504249 C26.7319325,24.7309748 22.2613357,28.5329409 20.1131553,30.5116346 C17.9649749,32.4903284 15.5831687,34.7776848 15.4182636,36.1714707 C15.3083268,37.1006614 16.6009374,37.5159929 19.2960953,37.4174653 C20.0590158,43.3220953 20.6520167,46.2744103 21.075098,46.2744103 C21.3900718,46.2744103 21.8044768,43.9316857 24.2122535,39.654592 C25.038668,38.1865772 27.973292,35.7183818 27.973292,34.6989317 C27.973292,34.0192982 26.7196125,33.6794815 24.2122535,33.6794815 C25.8920395,29.0730772 26.7319325,26.4300584 26.7319325,25.7504249 Z M47.8025652,21.7018107 C44.8130277,21.7018107 42.3890132,19.4936474 42.3890132,16.7703193 C42.3890132,14.0469912 44.8130277,11.8388278 47.8025652,11.8388278 C50.7921026,11.8388278 53.2161172,14.0469912 53.2161172,16.7703193 C53.2161172,19.4936474 50.7921026,21.7018107 47.8025652,21.7018107 Z M47.5705558,15.1070417 C47.6986443,15.0222817 47.9052777,15.0200801 48.0357829,15.1070417 L49.4665074,16.0548127 C49.5945959,16.1395727 49.6598485,16.317899 49.6103049,16.4576979 L49.0629078,17.9910836 C49.0133641,18.128681 48.8478157,18.2398597 48.6871009,18.2398597 L46.9180294,18.2398597 C46.7597314,18.2398597 46.5917663,18.1308825 46.5422226,17.9910836 L45.9948255,16.4576979 C45.9452818,16.3201005 46.0081177,16.1406735 46.138623,16.0548127 L47.5705558,15.1070417 Z M44.1230415,13.9005875 L44.2982569,13.8719673 C44.4456796,13.8400447 44.5967273,13.9193008 44.6341872,14.0513943 L45.0136192,15.6871524 C45.0426204,15.8434631 44.9640755,16.0614174 44.8408205,16.1714953 L43.4789738,17.2909879 C43.3629692,17.3768487 43.1901705,17.3592362 43.0910832,17.2546622 L42.9762869,17.1445842 C43.0427479,17.85899 43.2952998,18.5238608 43.6892323,19.1006691 L43.738776,18.8067611 C43.754485,18.6691636 43.8861986,18.5645896 44.0348296,18.5755974 L45.8582783,18.7825439 C46.0298686,18.8078618 46.23046,18.94656 46.3041713,19.0885606 L47.0231587,20.6252485 C47.0751191,20.7529389 47.0014078,20.8960402 46.8600271,20.9477769 L46.6171423,21.0490486 C46.9965743,21.1360101 47.394132,21.1822429 47.8037736,21.1822429 C48.1856223,21.1822429 48.5565956,21.1426148 48.91186,21.066661 L48.6532662,20.9587847 C48.5118855,20.907048 48.4381742,20.7639467 48.4901346,20.6362563 L49.209122,19.0995684 C49.2828333,18.9575678 49.4834248,18.8188696 49.655015,18.7935517 L51.4772553,18.5866052 C51.6258863,18.5755974 51.7576,18.6801714 51.7733089,18.8177688 L51.8397699,19.2118478 C52.254245,18.6449465 52.5273394,17.9866804 52.6167597,17.2766778 L52.5938004,17.2986934 C52.4947131,17.4043682 52.3219144,17.4219806 52.2059097,17.3350191 L50.8440631,16.2155265 C50.7195997,16.1054486 50.6422632,15.8874942 50.6712644,15.7311836 L51.049488,14.0943247 C51.0869479,13.9622312 51.2367873,13.8829751 51.3854183,13.9148977 L51.5159235,13.9369133 C51.0144449,13.3931283 50.3715856,12.960522 49.6380977,12.6864279 L49.7553107,12.8834674 C49.8338556,13.0012508 49.7988125,13.1564607 49.6731408,13.2302129 L48.0841182,14.0635029 C47.9306537,14.1361543 47.6793102,14.1372551 47.5246373,14.0635029 L45.933198,13.2291121 C45.8075263,13.1564607 45.7712748,13.0012508 45.8498196,12.8823667 L45.9658243,12.6864279 C45.2492537,12.9539173 44.6196866,13.3733142 44.1230415,13.9005875 Z" id="形状结合" fill="#5078FF"></path>
            </g>
        </g>
    </g>
</svg>