<?xml version="1.0" encoding="UTF-8"?>
<svg width="20px" height="20px" viewBox="0 0 20 20" version="1.1" xmlns="http://www.w3.org/2000/svg" xmlns:xlink="http://www.w3.org/1999/xlink">
    <!-- Generator: Sketch 55.2 (78181) - https://sketchapp.com -->
    <title>ico/个人主页/盘口设置_slice</title>
    <desc>Created with Sketch.</desc>
    <g id="切图" stroke="none" stroke-width="1" fill="none" fill-rule="evenodd">
        <g id="画板" transform="translate(-160.000000, -54.000000)" fill="#959595">
            <g id="ico/个人主页/盘口设置" transform="translate(160.000000, 54.000000)">
                <g id="盘口设置" transform="translate(3.000000, 3.000000)">
                    <path d="M5.89203654,0.0163798375 L8.14294234,0.0197614668 C8.84181836,0.0209256455 9.40801388,0.587310222 9.40894475,1.28618659 L9.40979016,1.6530948 C9.84582501,1.83403463 10.2588723,2.06602788 10.6402853,2.34421799 L10.9416742,2.17090882 C11.5474018,1.82232703 12.3209762,2.02952096 12.6713844,2.63419384 L13.7995848,4.58201993 C14.1355255,5.16208291 13.9619999,5.90340966 13.40351,6.27410929 L13.334609,6.31637984 L13.031952,6.49095712 C13.0839447,6.97115036 13.0776042,7.45895228 13.0095486,7.94379529 L13.2234375,8.06764795 C13.8049879,8.40332236 14.0240663,9.13413958 13.7230752,9.734375 L13.6879906,9.79989433 L12.6312274,11.6302083 C12.2955529,12.2117587 11.5647357,12.4308371 10.9645003,12.129846 L10.8985583,12.0943388 L10.6064689,11.9252566 C10.2391659,12.1895279 9.84275294,12.4107816 9.42500755,12.5846769 L9.42500755,13.0876962 C9.42587792,13.7578354 8.90518283,14.3129719 8.2363602,14.3549668 L8.1556235,14.357503 L5.9047177,14.3541214 C5.2060064,14.3529578 4.63987883,13.7868303 4.63871527,13.088119 L4.63744716,12.4815368 C4.28861014,12.317739 3.95637686,12.1206923 3.64535779,11.893131 L3.10598582,12.2033967 C2.50014772,12.5519074 1.72653932,12.3445153 1.37627567,11.739689 L0.248075181,9.79228563 C-0.0881362257,9.21212753 0.0854164182,8.47050021 0.644150054,8.09977355 L0.713051033,8.05750303 L1.26172252,7.74174216 C1.21945199,7.3401721 1.21733846,6.9339523 1.25791817,6.5285779 L0.648799819,6.17646437 C0.0670934466,5.84093138 -0.152180339,5.11008054 0.148739439,4.50973732 L0.184246685,4.44421799 L1.24100996,2.61390399 C1.57668437,2.03235357 2.30750159,1.81327522 2.90773701,2.1142663 L2.97325634,2.14977355 L3.50417422,2.45623491 C3.85017971,2.1864387 4.22518017,1.95605089 4.62222976,1.76933877 L4.62222976,1.28660929 C4.62113579,0.61630718 5.14189153,0.0609208247 5.81087712,0.0189160694 L5.89161382,0.0163798375 L5.89203654,0.0163798375 Z M5.89034571,1.28449578 L5.89161382,2.57374697 L5.16286987,2.916561 C4.85091335,3.06323975 4.55628775,3.24415761 4.28491092,3.45593297 L3.61111866,3.98177839 L2.37132397,3.26571558 L2.33962107,3.24796196 L1.28285779,5.07827596 L2.60169837,5.83956824 L2.51969353,6.65496679 C2.48799063,6.97157308 2.48925875,7.2911383 2.52265248,7.60774457 L2.60972976,8.42863828 L1.34584089,9.15653683 L2.47361866,11.1039402 L3.72863074,10.3823822 L4.39439161,10.8697615 C4.63949937,11.0493024 4.90138498,11.2047351 5.17639643,11.3338919 L5.90429498,11.6758605 L5.90683121,13.0860054 L8.15731431,13.0893871 L8.1560462,11.7388436 L8.93805103,11.4133605 C9.26609087,11.2769303 9.57740381,11.1033325 9.86588918,10.8959692 L10.5312274,10.4178895 L11.5330389,10.9961504 L12.5889568,9.16541364 L11.6353336,8.61420592 L11.7536911,7.76837259 C11.8065293,7.39005134 11.8124472,7.00708033 11.7714447,6.62706824 L11.6826766,5.80575181 L12.7022418,5.21734601 L11.5740414,3.26994263 L10.5595486,3.85454408 L9.89336504,3.36885567 C9.5927583,3.14962282 9.26726689,2.966729 8.92367904,2.82398853 L8.14336504,2.50019625 L8.1408288,1.28787741 L5.89034571,1.28449578 L5.89034571,1.28449578 Z M8.41431915,4.92483393 C9.62703722,5.62620155 10.0427607,7.17712634 9.34342542,8.39101752 C9.00773553,8.9737499 8.45407893,9.3990591 7.80450676,9.57318758 C7.15493459,9.74731606 6.46277931,9.65596717 5.8806235,9.31927839 C4.66805883,8.61776612 4.25253359,7.0668754 4.95193991,5.8530948 C5.28762849,5.27047722 5.84120811,4.84525048 6.49067825,4.6711281 C7.14014839,4.49700572 7.83220134,4.58827944 8.41431915,4.92483393 L8.41431915,4.92483393 Z M6.05012831,6.48630737 C5.70009414,7.09396654 5.90812515,7.87030042 6.51510417,8.22151268 C6.80587312,8.38981332 7.15165703,8.43550726 7.47616222,8.34851258 C7.80066741,8.26151791 8.07722461,8.04898424 8.24481431,7.75780495 C8.58034347,7.17523931 8.40438854,6.43215389 7.84324426,6.06191123 L7.77983846,6.02259964 L7.71431915,5.98751509 C7.11508678,5.68618903 6.38483537,5.90506042 6.05012831,6.48630737 L6.05012831,6.48630737 Z" id="形状" fill-rule="nonzero"></path>
                </g>
            </g>
        </g>
    </g>
</svg>