<?xml version="1.0" encoding="UTF-8"?>
<svg width="20px" height="20px" viewBox="0 0 20 20" version="1.1" xmlns="http://www.w3.org/2000/svg" xmlns:xlink="http://www.w3.org/1999/xlink">
    <!-- Generator: Sketch 55.2 (78181) - https://sketchapp.com -->
    <title>ico/个人主页/排序方式_slice</title>
    <desc>Created with Sketch.</desc>
    <g id="切图" stroke="none" stroke-width="1" fill="none" fill-rule="evenodd">
        <g id="画板" transform="translate(-227.000000, -52.000000)" fill="#959595">
            <g id="ico/个人主页/排序方式" transform="translate(227.000000, 52.000000)">
                <g id="排序方式" transform="translate(3.000000, 3.000000)">
                    <path d="M4.31546953,9.83308455 C5.09709802,9.8329824 5.79392064,10.3255549 6.05458644,11.0624378 L13.9439521,11.0624378 L13.9439521,12.368408 L6.02541978,12.368408 C5.74348689,13.0649812 5.06715274,13.5208715 4.31568719,13.5208715 C3.56422164,13.5208715 2.88788749,13.0649812 2.60595461,12.368408 L0.0136038625,12.368408 L0.0136038625,11.0624378 L2.57678793,11.0624378 C2.83740045,10.3257055 3.5340008,9.83316685 4.31546953,9.83308455 Z M4.31546953,11.1390547 C4.01854779,11.1390547 3.77784515,11.3797574 3.77784515,11.6766791 C3.77784515,11.9736009 4.01854779,12.2143035 4.31546953,12.2143035 C4.61239128,12.2143035 4.85309392,11.9736009 4.85309392,11.6766791 C4.85309392,11.3797574 4.61239128,11.1390547 4.31546953,11.1390547 L4.31546953,11.1390547 Z M9.64208644,4.91654228 C10.4235552,4.91662457 11.1201555,5.40916322 11.380768,6.14589552 L13.9439521,6.14589552 L13.9439521,7.45186567 L11.3516014,7.45186567 C11.0696685,8.14843894 10.3933343,8.60432922 9.64186878,8.60432922 C8.89040323,8.60432922 8.21406908,8.14843894 7.93213619,7.45186567 L0.0136038625,7.45186567 L0.0136038625,6.14589552 L7.90296953,6.14589552 C8.16363534,5.40901261 8.86045796,4.91644013 9.64208644,4.91654228 L9.64208644,4.91654228 Z M9.64208644,6.22251243 C9.4499868,6.22247502 9.2724634,6.32493746 9.17640278,6.49129439 C9.08034215,6.65765132 9.08034215,6.86262232 9.17640278,7.02897925 C9.2724634,7.19533618 9.4499868,7.29779862 9.64208644,7.2977612 C9.93896728,7.29770336 10.1796061,7.05701767 10.1796061,6.76013682 C10.1796061,6.46325597 9.93896728,6.22257028 9.64208644,6.22251243 L9.64208644,6.22251243 Z M4.31546953,-4.26832564e-08 C5.09698507,-0.000167422332 5.79377385,0.492206731 6.05458644,1.22891791 L13.9439521,1.22891791 L13.9439521,2.53488806 L6.02541978,2.53488806 C5.74348689,3.23146133 5.06715274,3.6873516 4.31568719,3.6873516 C3.56422164,3.6873516 2.88788749,3.23146133 2.60595461,2.53488806 L0.0136038625,2.53488806 L0.0136038625,1.22891791 L2.57678793,1.22891791 C2.83754721,0.492357337 3.53411374,-4.26832564e-08 4.31546953,-4.26832564e-08 Z M4.31546953,1.30597014 C4.1233699,1.30593272 3.9458465,1.40839517 3.84978588,1.5747521 C3.75372525,1.74110903 3.75372525,1.94608002 3.84978588,2.11243695 C3.9458465,2.27879388 4.1233699,2.38125632 4.31546953,2.38121891 C4.61235037,2.38116106 4.85298918,2.14047537 4.85298918,1.84359452 C4.85298918,1.54671368 4.61235037,1.30602799 4.31546953,1.30597014 L4.31546953,1.30597014 Z" id="形状" fill-rule="nonzero"></path>
                </g>
            </g>
        </g>
    </g>
</svg>