<?xml version="1.0" encoding="UTF-8"?>
<svg width="16px" height="16px" viewBox="0 0 16 16" version="1.1" xmlns="http://www.w3.org/2000/svg" xmlns:xlink="http://www.w3.org/1999/xlink">
    <!-- Generator: Sketch 55.2 (78181) - https://sketchapp.com -->
    <title>选中对号</title>
    <desc>Created with Sketch.</desc>
    <g id="Symbols" stroke="none" stroke-width="1" fill="none" fill-rule="evenodd">
        <g id="个人主页/意见反馈" transform="translate(-14.000000, -18.000000)" fill="#33C759">
            <g id="ico/选中对号" transform="translate(12.000000, 16.000000)">
                <path d="M10,18 C5.581722,18 2,14.418278 2,10 C2,5.581722 5.581722,2 10,2 C14.418278,2 18,5.581722 18,10 C18,14.418278 14.418278,18 10,18 Z M7.09590864,10.0404446 C6.84520438,9.7679234 6.43873246,9.7679234 6.1880282,10.0404446 C5.93732393,10.3129659 5.93732393,10.7548101 6.1880282,11.0273314 L8.7346884,13.7956091 C8.98515692,14.0678741 9.39116329,14.0681675 9.64196471,13.7962649 L14.8113677,8.19193352 C15.0624051,7.91977497 15.0629457,7.47793112 14.8125751,7.20504766 C14.5622045,6.9321642 14.155733,6.93157654 13.9046955,7.20373509 L9.18923197,12.3159348 L7.09590864,10.0404446 Z" id="形状结合"></path>
            </g>
        </g>
    </g>
</svg>