<?xml version="1.0" encoding="UTF-8"?>
<svg width="20px" height="20px" viewBox="0 0 20 20" version="1.1" xmlns="http://www.w3.org/2000/svg" xmlns:xlink="http://www.w3.org/1999/xlink">
    <!-- Generator: Sketch 55.2 (78181) - https://sketchapp.com -->
    <title>ico/个人中心/检查更新_slice</title>
    <desc>Created with Sketch.</desc>
    <g id="切图" stroke="none" stroke-width="1" fill="none" fill-rule="evenodd">
        <g id="画板" transform="translate(-83.000000, -337.000000)" fill="#999999">
            <g id="ico/个人主页/转账备份" transform="translate(83.000000, 337.000000)">
                <g id="exchange-rate" transform="translate(3.000000, 3.000000)">
                    <path d="M7.54140625,12.713831 L7.64267939,12.7016782 L7.59001736,12.7077546 L7.64632523,12.7008681 L7.66901042,12.6972222 L7.67387153,12.696412 L7.70182292,12.6931713 L7.76096644,12.6842593 L7.74881366,12.6862847 L7.7743345,12.6818287 L7.84157986,12.6708912 L7.81362847,12.6757523 L7.82861689,12.6737269 L7.86223958,12.6676505 L7.89019097,12.6623843 L7.90234375,12.6607639 L7.9537905,12.6510417 L7.98619792,12.6441551 L7.96067708,12.6498264 L8.02063078,12.6376736 L8.07531828,12.6267361 L8.09719328,12.6214699 L8.0805845,12.6255208 L8.11380208,12.6178241 L8.12352431,12.6153935 L8.13648727,12.6133681 L8.14985533,12.6097222 L8.19482061,12.5995949 L8.24991319,12.5862269 L8.19360533,12.5995949 L8.25842014,12.5842014 L8.28029514,12.5785301 L8.25923033,12.5837963 L8.28070023,12.5785301 L8.30905672,12.5716435 L8.33862847,12.5635417 L8.3649595,12.55625 L8.37994792,12.5526042 L8.39817708,12.5469329 L8.42896411,12.538831 L8.45205439,12.5319444 L8.49458911,12.5201968 L8.50390625,12.5165509 L8.53914931,12.5060185 L8.54968172,12.503588 L8.57398727,12.4954861 L8.60477431,12.486169 L8.66553819,12.4667245 L8.72144097,12.4476852 L8.774103,12.429456 L8.78544561,12.4254051 L8.83567708,12.4071759 L8.86362847,12.3962384 L8.85026042,12.4015046 L8.87213542,12.3934028 L8.90778356,12.3800347 L8.93451967,12.3699074 L8.95112847,12.3634259 L8.98313078,12.3512731 L9.01108217,12.3395255 L9.04510995,12.3253472 L9.07913773,12.311169 L9.0868345,12.3079282 L9.14476273,12.2832176 L9.16987847,12.2722801 L9.207147,12.2556713 L9.22537616,12.2475694 L9.23226273,12.2443287 L9.272772,12.2256944 L9.31328125,12.2070602 L9.36756366,12.1803241 L9.3756655,12.1762731 L9.42225116,12.153588 L9.44858217,12.1402199 L9.49273727,12.1171296 L9.5024595,12.1126736 L9.54782986,12.0883681 L9.56403356,12.0798611 L9.60292245,12.0583912 L9.62560764,12.0462384 L9.64707755,12.0344907 L9.70054977,12.0041088 L9.64707755,12.0340856 L9.70257523,12.0028935 L9.74065394,11.9802083 L9.70176505,12.0028935 L9.74673033,11.9769676 L9.76212384,11.9684606 C9.79453125,11.9494213 9.82612847,11.9299768 9.85772569,11.9105324 L9.82005208,11.9328125 L9.90107061,11.8833912 L9.95454283,11.8493634 L10.0335359,11.7971065 L10.0566262,11.781713 L10.0971354,11.7537616 L10.1254919,11.733912 L10.1457465,11.7201389 L10.1534433,11.7144676 L10.1708623,11.7019097 L10.1931424,11.6865162 L10.2405382,11.6520833 L10.2486401,11.6456019 L10.2514757,11.6435764 L10.2850984,11.6184606 L10.2936053,11.6123843 L10.3397859,11.5771412 L10.3450521,11.5726852 L10.3713831,11.5520255 L10.4345776,11.5021991 L10.5277488,11.4252315 L10.5731192,11.3875579 L10.5986401,11.3644676 L10.6075521,11.3567708 L10.6148438,11.3502894 C10.672772,11.3000579 10.7270544,11.2506366 10.7809317,11.2 L10.8554688,11.1278935 L10.9283854,11.0545718 L10.9624132,11.0193287 L10.996441,10.9840856 L11.0365451,10.9415509 L11.0774595,10.8965856 L11.0993345,10.8722801 L11.1122974,10.8581019 L11.1183738,10.8512153 L11.1268808,10.841088 L11.1568576,10.8070602 L11.1888599,10.7701968 L11.1937211,10.7645255 L11.2228877,10.7296875 L11.2301794,10.7215856 L11.2386863,10.7114583 L11.2747396,10.6668981 L11.2642072,10.6802662 L11.2775752,10.6636574 L11.3043113,10.63125 L11.3436053,10.5818287 L11.3585938,10.5615741 L11.3719618,10.5453704 L11.3436053,10.5818287 C11.3905961,10.521875 11.4367766,10.4603009 11.4813368,10.3987269 L11.504022,10.3663194 L11.5165799,10.3493056 L11.5514178,10.2990741 L11.5335938,10.3237847 L11.6210938,10.1957755 C11.6833936,10.1010345 11.7428339,10.0044439 11.7993345,9.90613425 L11.8179688,9.87170139 L11.8175637,9.87291667 C11.8244934,9.86127231 11.8312458,9.84952327 11.8378183,9.83767361 L11.8272859,9.8546875 L11.8588831,9.79959491 C11.9672539,9.60085757 12.0635699,9.3957803 12.147309,9.18547453 L12.1809317,9.09959491 C12.2480928,8.92211216 12.3062304,8.74134478 12.3551215,8.55798611 L12.3818576,8.45509259 C12.4768122,8.0716226 12.531124,7.67921992 12.5438947,7.284375 L12.5467303,7.0927662 L12.5455151,6.96637731 C12.5343533,6.44100555 12.4499558,5.91975929 12.2947627,5.41770833 L13.5566262,5.41770833 C13.6911169,5.95405092 13.7620081,6.51510417 13.7620081,7.0927662 C13.7620081,10.845544 10.7550058,13.8958912 7.01883681,13.9655671 L6.888397,13.9667824 L6.75755208,13.9655671 C5.36471569,13.9413556 4.01246714,13.4924905 2.88162616,12.6789931 L2.88162616,13.5677662 L1.66634839,13.5677662 L1.66594328,9.61811342 L5.19794561,9.61811342 L5.19794561,10.8333912 L2.88122106,10.8333912 L2.88122106,10.8487847 L2.95332755,10.8487847 C3.86316552,11.9773727 5.16958913,12.6076968 6.91189236,12.7510995 L6.98967014,12.7502894 L7.06906828,12.748669 L7.16264467,12.7446181 L7.18492477,12.7434028 L7.16467014,12.744213 L7.18573495,12.7429977 L7.20882523,12.7421875 L7.23515625,12.7405671 L7.25622106,12.7393519 L7.24042245,12.740162 L7.26675347,12.7389468 C7.3587095,12.7328704 7.45026042,12.7243634 7.54100116,12.713831 L7.55436922,12.7122106 L7.56368634,12.7105903 L7.57178819,12.7097801 L7.56611689,12.7105903 L7.57300347,12.7101852 L7.56409144,12.7109954 L7.54140625,12.713831 Z M7.27025798,12.7801008 L7.19985798,12.7843675 L7.19559128,12.7865008 L7.27025798,12.7801008 Z M7.29950811,12.7763471 L7.28676298,12.7784805 L7.19950811,12.7870138 L7.29950811,12.7763471 Z M7.35662616,12.7658961 L7.27386753,12.7872294 L7.25662616,12.7893628 L7.35662616,12.7680294 L7.35662616,12.7658961 Z M7.62001584,12.7505829 L7.59441584,12.7527162 L7.57094914,12.7548496 L7.62001584,12.7505829 L7.62001584,12.7505829 Z M7.6217177,12.7485036 L7.6089177,12.7485036 L7.585451,12.7549036 L7.611051,12.7506369 L7.6217177,12.7506369 L7.6217177,12.7485036 Z M7.69698459,12.7401045 L7.68631789,12.7422378 L7.67991789,12.7422378 L7.69698459,12.7401045 Z M7.73533178,12.7342714 L7.72679848,12.7342714 L7.67559848,12.7428047 L7.73533178,12.7342714 L7.73533178,12.7342714 Z M7.77063078,12.7123436 L7.6762252,12.7507436 L7.67063078,12.7550103 L7.77063078,12.7123436 Z M7.85858667,12.7158804 L7.83298667,12.7180137 L7.76258667,12.7308137 L7.85858667,12.7158804 L7.85858667,12.7158804 Z M7.9444155,12.6834742 L7.93339187,12.6856075 L7.90898244,12.6984075 L7.89402179,12.7048075 L7.8444155,12.7304075 L7.90898244,12.6984075 L7.9444155,12.6834742 L7.9444155,12.6834742 Z M8.48075811,12.5597052 L8.42749724,12.5874385 L8.38075811,12.6151719 L8.48075811,12.5597052 Z M8.55286458,12.5403146 L8.47025587,12.5851146 L8.45286458,12.593648 L8.55286458,12.5403146 Z M8.65413773,12.5043968 L8.60739862,12.5342635 L8.55413773,12.5683968 L8.65413773,12.5043968 Z M8.96362847,12.412629 L8.90112846,12.438229 L8.86362847,12.4531623 L8.96362847,12.412629 L8.96362847,12.412629 Z M8.99117477,12.3872712 L8.94242476,12.4214045 L8.89117477,12.4534045 L8.99117477,12.3894045 L8.99117477,12.3872712 Z M9.46618339,12.1913406 L9.38938339,12.2297406 L9.37871679,12.2361406 L9.46618339,12.193474 L9.46618339,12.1913406 Z M9.70980903,12.0394057 L9.65795718,12.086339 L9.60980903,12.1332723 L9.70980903,12.0394057 Z M2.17657095,4.05902648 L2.13603755,4.12302648 L2.14670425,4.10809318 L2.17657095,4.05902648 L2.17657095,4.05902648 Z M2.99746569,3.02887731 L2.89823495,3.12887731 L2.99823495,3.02887731 L2.99746569,3.02887731 Z M4.75033876,1.91000911 L4.66927206,1.94414241 L4.69700546,1.92920911 L4.75033876,1.90787581 L4.75033876,1.91000911 Z M6.40911458,1.49314128 L6.33608087,1.50807458 L6.30911458,1.51020798 L6.40911458,1.49314128 Z M6.41867297,1.49624661 L6.36320637,1.50264661 L6.41227297,1.49624661 L6.41867297,1.49624661 Z M6.36177661,1.45792825 L6.35448495,1.45833333 L6.3524595,1.45914352 L6.34516783,1.45954861 L6.30749422,1.46319444 L6.30911458,1.46319444 L6.30506366,1.46319444 L6.30749422,1.46319444 L6.30384839,1.46359953 L6.28359375,1.46603009 L6.19609375,1.47575231 L6.25523727,1.46886575 L6.12439236,1.48506944 L5.99476273,1.5041088 L5.93521411,1.51383102 L5.95911458,1.50978009 L5.90564236,1.51909722 L5.88579283,1.52233797 L5.85257523,1.52841436 L5.75211227,1.54826389 L5.63342014,1.57378472 L5.60303819,1.5806713 L5.51148727,1.6025463 C5.46079966,1.61534364 5.4102932,1.62884804 5.35998264,1.64305556 L5.37578125,1.63819444 L5.34175347,1.64791667 L5.29314236,1.66209491 L5.29030672,1.66290509 L5.23237847,1.68032408 L5.22184606,1.68315972 L5.20888311,1.68721064 L5.15217014,1.70503472 L5.05697339,1.73703703 C4.94578418,1.77503136 4.83581491,1.81650626 4.727228,1.86140047 L4.70413773,1.8703125 L4.71953125,1.86423611 L4.70373264,1.8703125 L4.69684606,1.87355325 L4.66686922,1.88611111 L4.65350116,1.8921875 L4.661603,1.88894675 L4.62392939,1.90515047 L4.62352431,1.90515047 L4.59678819,1.91730325 L4.55303819,1.93674769 L4.55020255,1.93796297 L4.54412616,1.94079861 L4.50361689,1.95943286 L4.44568866,1.98697917 L4.44406828,1.98738425 L4.39019097,2.01371528 L4.37317708,2.02222222 L4.34320023,2.03721064 L4.34076967,2.03842592 L4.31970486,2.04895833 L4.28284144,2.06840278 L4.25894097,2.08055556 L4.23868634,2.09149306 L4.22248264,2.1 L4.21276042,2.10486111 L4.19939236,2.11215278 L4.19655672,2.11377314 L4.18359375,2.12106481 L4.18075811,2.12268519 C4.09483454,2.16949343 4.01014161,2.21852617 3.92676505,2.2697338 L3.91825811,2.275 L3.91744792,2.27540509 L3.88179977,2.29768519 L3.83723958,2.32604167 L3.78376736,2.36087964 L3.77445023,2.36695602 L3.77080439,2.36898148 L3.72300347,2.40138889 L3.72016783,2.40300925 L3.68046875,2.43015047 L3.650897,2.45040509 L3.67115161,2.43663194 L3.585272,2.49739583 L3.58486689,2.49780092 L3.57798033,2.50266203 L3.54071181,2.52980325 L3.49655672,2.56261575 L3.49169561,2.56626158 L3.48116319,2.57436342 L3.44916089,2.59826389 L3.48116319,2.57436342 L3.39204283,2.64322917 C3.35080975,2.67561109 3.31002653,2.70856177 3.26970486,2.74207175 L3.24823495,2.76030092 L3.20772569,2.7947338 L3.19476273,2.8052662 L3.07728589,2.90978009 C2.95254629,3.02350405 2.83292581,3.14271904 2.71877894,3.26707175 L2.60818866,3.39103009 L2.55309606,3.45584491 L2.54499422,3.46516203 L2.50853589,3.50972222 L2.47167245,3.5546875 L2.45101273,3.58061342 L2.42873264,3.60896991 L2.39429977,3.65353009 L2.36877894,3.68715278 L2.36594328,3.6912037 L2.36067708,3.69728009 L2.33758681,3.72887731 L2.33110533,3.73738425 L2.29302661,3.7900463 L2.27439236,3.81556714 L2.25859375,3.83744214 L2.25980903,3.83622686 L2.24968172,3.85121528 L2.22416089,3.88767361 L2.207147,3.91197917 L2.19134839,3.93547453 L2.189728,3.93831019 L2.185272,3.94438658 L2.16177661,3.97962964 L2.15610533,3.98894675 L2.13017939,4.02864583 L2.11397569,4.05376158 L2.11114005,4.05821759 L2.04186922,4.17042825 L1.95760995,4.3146412 L1.87740161,4.46128472 C1.86362847,4.48761575 1.84985531,4.51394675 1.83648727,4.54108797 L1.82919561,4.55445602 L1.82838542,4.55688658 L1.80732061,4.59861111 L1.82838542,4.55648148 L1.77693866,4.66180556 C1.75754081,4.70262585 1.73863512,4.7436782 1.72022569,4.7849537 L1.71212384,4.80358797 L1.708478,4.81087964 L1.70361689,4.82222222 C1.52391745,5.23197406 1.39377223,5.66171168 1.31594328,6.10231481 L1.29730903,6.21412036 C1.25194968,6.50479807 1.22933093,6.79857086 1.22965856,7.0927662 C1.22965856,7.67285878 1.31715856,8.23310184 1.47919561,8.76012731 L0.218142361,8.76012731 C0.0824628771,8.21473264 0.0140337915,7.65478412 0.0143794677,7.0927662 C0.0143794677,6.63096064 0.0597511447,6.18009259 0.146440972,5.74421297 C0.773119219,2.59340278 3.55326967,0.21875 6.888397,0.21875 C8.66391783,0.21875 10.2826678,0.892013889 11.5024016,1.99751158 L11.5024016,0.00972222222 L12.7176794,0.00972222222 L12.7176794,3.959375 L9.18608217,3.959375 L9.18608217,2.74409722 L10.2575521,2.74409722 C9.43237847,2.01493056 8.36333911,1.58553241 7.03179977,1.4494213 L6.86449653,1.43402778 L6.76848958,1.43524306 L6.67005208,1.4380787 L6.62022569,1.44010417 L6.61293403,1.44010417 L6.604022,1.44091436 L6.60726273,1.44091436 L6.61293403,1.44010417 L6.62387153,1.44010417 L6.61333911,1.44010417 L6.60969328,1.44050925 L6.60726273,1.44050925 L6.59997106,1.44091436 L6.59835069,1.44091436 L6.59592014,1.44131944 L6.59348958,1.44131944 L6.58903356,1.44172453 L6.57039931,1.44293981 L6.58012153,1.44212964 L6.58903356,1.44212964 L6.59429977,1.44131944 L6.604022,1.44131944 L6.58012153,1.44212964 L6.55743634,1.44375 L6.49748264,1.44699075 L6.57039931,1.44293981 L6.55865161,1.44334491 L6.49626736,1.44739583 L6.47763311,1.44820602 L6.43712384,1.45185186 L6.41038773,1.45347222 L6.38689236,1.45549769 L6.389728,1.45549769 L6.41038773,1.45347222 L6.4225405,1.45306714 L6.389728,1.45509259 L6.38284144,1.45630786 L6.36177661,1.45792825 L6.36177661,1.45792825 Z M6.53793403,1.47966533 L6.43793403,1.50099873 L6.51217646,1.48179873 L6.53793403,1.47966533 Z M6.65865161,1.47877366 L6.55865161,1.48730706 L6.6391711,1.47877366 L6.65865161,1.47877366 Z M6.60531992,1.48568664 L6.61246278,1.48142004 L6.64817706,1.48142004 L6.65412946,1.47715334 L6.68984375,1.47715334 L6.65412946,1.47715334 L6.61246278,1.48142004 L6.58984375,1.48568664 L6.60531992,1.48568664 L6.60531992,1.48568664 Z M7.60910813,12.7499345 L7.60697483,12.7520679 L7.59844153,12.7520679 L7.60910813,12.7520679 L7.64964153,12.7456679 L7.61337483,12.7520679 L7.60910813,12.7520679 L7.60910813,12.7499345 Z M8.20394248,12.6474198 L8.14847578,12.6602198 L8.13140908,12.6623531 L8.20394248,12.6474198 L8.20394248,12.6474198 Z" id="形状" fill-rule="nonzero"></path>
                </g>
            </g>
        </g>
    </g>
</svg>