<?xml version="1.0" encoding="UTF-8"?>
<svg width="20px" height="20px" viewBox="0 0 20 20" version="1.1" xmlns="http://www.w3.org/2000/svg" xmlns:xlink="http://www.w3.org/1999/xlink">
    <!-- Generator: Sketch 55.2 (78181) - https://sketchapp.com -->
    <title>ico/个人主页/版本偏好_slice</title>
    <desc>Created with Sketch.</desc>
    <g id="切图" stroke="none" stroke-width="1" fill="none" fill-rule="evenodd">
        <g id="画板" transform="translate(-194.000000, -52.000000)" fill="#999999">
            <g id="ico/个人主页/版式设置" transform="translate(194.000000, 52.000000)">
                <g id="版本偏好" transform="translate(4.000000, 2.000000)">
                    <path d="M7.98180809,13.6003893 L7.98180809,15.0064187 L3.29430809,15.0064187 L3.29430809,13.5999481 L7.98180809,13.5999481 L7.98180809,13.6003893 Z M5.6378375,0.00641871424 C8.7446022,0.00641871424 11.2628375,2.52465401 11.2628375,5.63141871 C11.2628375,7.71333047 10.131661,9.53097752 8.45077867,10.5037717 L8.4503375,11.3389187 C8.4503375,12.0698838 7.8577732,12.6624481 7.12680809,12.6624481 L4.14886692,12.6624481 C3.41790181,12.6624481 2.82533751,12.0698838 2.82533751,11.3389187 L2.82533751,10.5037717 C1.084326,9.49912409 0.0120390443,7.64150258 0.0128370635,5.63141871 C0.0128370635,2.52465401 2.53107279,0.00641871424 5.6378375,0.00641871424 Z M5.6378375,1.32994812 C3.26210221,1.32994812 1.33636606,3.25568342 1.33636606,5.63141871 C1.33539785,7.16905167 2.15585414,8.59008803 3.48798455,9.35803636 L4.14886692,9.74053636 L4.14886692,11.3389187 L7.12680809,11.3389187 L7.12769043,9.74009519 L7.78813161,9.35803636 C9.1200922,8.58997576 9.94036805,7.16896057 9.93930911,5.63141871 C9.93930911,3.25568342 8.0135728,1.32994812 5.6378375,1.32994812 Z M6.32342574,2.82068343 L7.25121986,3.76480107 L5.84871985,5.14303636 L6.94901396,5.14303636 C7.54548455,5.14303636 7.83754336,5.87053636 7.40651397,6.28303637 L4.92048456,8.66097753 L4.00548455,7.70450696 L5.29989631,6.46656577 L4.23136691,6.46656577 C3.63930809,6.46656577 3.34548456,5.7478893 3.76769045,5.33274225 L6.32342574,2.82068343 Z" id="形状" fill-rule="nonzero"></path>
                </g>
            </g>
        </g>
    </g>
</svg>