<?xml version="1.0" encoding="UTF-8"?>
<svg width="72px" height="72px" viewBox="0 0 72 72" version="1.1" xmlns="http://www.w3.org/2000/svg" xmlns:xlink="http://www.w3.org/1999/xlink">
    <title>img_floating_window_load</title>
    <defs>
        <rect id="path-1" x="0" y="0" width="66" height="66" rx="33"></rect>
    </defs>
    <g id="img_floating_window_load" stroke="none" stroke-width="1" fill="none" fill-rule="evenodd">
        <g id="编组-2" transform="translate(3.000000, 3.000000)">
            <mask id="mask-2" fill="white">
                <use xlink:href="#path-1"></use>
            </mask>
            <use id="蒙版" fill="#F4F5F8" xlink:href="#path-1"></use>
            <g id="编组" transform="translate(18.333333, 22.916667)" fill="#E8EAF1" fill-rule="nonzero">
                <path d="M21.6662446,0 C22.9581676,0 24.0085413,1.05805014 24.0085413,2.35941495 C24.0085413,3.66077976 22.9581676,4.7188299 21.6662446,4.7188299 C20.3743215,4.7188299 19.3239479,3.66077976 19.3239479,2.35941495 C19.3239479,1.05805014 20.3743215,0 21.6662446,0 Z M29.2567498,11.9002991 C29.2347908,11.8892394 26.7753793,10.7095319 24.3525661,11.3288783 C23.3021924,11.5943125 22.3835729,12.2099724 21.6186667,13.1500517 C21.1648467,13.7104128 20.8866989,14.2449677 20.7549448,14.5398946 C22.2518187,16.9509218 22.6507412,19.0375294 22.7385773,19.6310697 L22.8044544,20.0918929 L21.0294327,20.0918929 L21.0001539,19.8891307 C20.8427809,18.8200208 20.2791657,17.0578328 19.1665748,15.3177642 C17.7831558,13.1574249 15.9093184,11.509521 13.5926406,10.4256648 C10.7343066,9.08374755 7.68932092,8.98052315 4.54917939,10.1159916 C2.15564494,10.9823393 0.600213532,12.2800175 0.585574178,12.2910772 L0,12.7813932 L0,10.5178294 C0.71000869,10.0090806 2.07512849,9.13904634 3.89040844,8.4717743 C5.46413904,7.89298032 7.05616884,7.59068028 8.62257976,7.56856076 C10.5879131,7.54275466 12.5093284,7.96302545 14.331928,8.81831337 C15.7263265,9.47083906 16.9999503,10.3224404 18.1162011,11.3473113 C18.6505376,11.8376272 19.1519354,12.3721821 19.6130751,12.9399164 C19.752149,12.7150346 19.9168417,12.4643468 20.114473,12.2062858 C20.8208218,11.2846393 22.0578473,10.0828123 23.9170453,9.61092933 C26.0836698,9.05794145 28.1734376,9.60355616 29.25309,9.99064767 L29.25309,11.9002991 L29.2567498,11.9002991 Z" id="形状"></path>
            </g>
        </g>
    </g>
</svg>