<?xml version="1.0" encoding="UTF-8"?>
<svg width="16px" height="16px" viewBox="0 0 16 16" version="1.1" xmlns="http://www.w3.org/2000/svg" xmlns:xlink="http://www.w3.org/1999/xlink">
    <title>icon_tabsdk_setting</title>
    <g id="icon_tabsdk_setting" stroke="none" stroke-width="1" fill="none" fill-rule="evenodd">
        <g id="编组" fill="#000000" fill-rule="nonzero">
            <g id="icon/设置">
                <path d="M7.37248679,1.00126988 C7.72897558,0.811152871 8.15027335,0.793867132 8.51854751,0.949413381 L8.62732121,1.00126222 L13.9607434,3.84551557 C14.3642145,4.06068215 14.6270609,4.46608075 14.6625518,4.91716615 L14.6666667,5.022008 L14.6666667,10.9804567 C14.6666667,11.4378586 14.4324946,11.8606592 14.0509819,12.1041979 L13.9603645,12.1571511 L8.62694236,14.9991991 C8.27063402,15.189067 7.84964655,15.2063253 7.48158029,15.0509748 L7.37286564,14.9991914 L2.03962113,12.1571545 C1.63596183,11.9420482 1.37296247,11.5365582 1.33745062,11.0853408 L1.33333333,10.9804678 L1.33333333,5.02199692 C1.33333333,4.56474351 1.5673548,4.14205677 1.948671,3.89847754 L2.03924227,3.84551216 L7.37248679,1.00126988 Z M8.15676369,1.88363154 C8.07833565,1.84180675 7.987361,1.83344226 7.90391463,1.85853792 L7.84305509,1.88363345 L2.50981057,4.72787573 C2.41928985,4.77615082 2.35708336,4.8627275 2.33886233,4.96148772 L2.33333333,5.02199692 L2.33333333,10.9804678 C2.33333333,11.0830888 2.38048225,11.1787431 2.45909063,11.2412919 L2.50990528,11.2746394 L7.8431498,14.1166764 C7.92153712,14.1584483 8.01244673,14.1668031 8.0958433,14.1417408 L8.15666898,14.1166783 L13.4900911,11.2746303 C13.5806574,11.2263698 13.6429018,11.1397748 13.6611342,11.0409849 L13.6666667,10.9804567 L13.6666667,5.022008 C13.6666667,4.91941787 13.6195459,4.82378793 13.5409762,4.76123701 L13.4901858,4.72788489 L8.15676369,1.88363154 Z" id="路径-34"></path>
                <path d="M8,5.33333333 C9.47275933,5.33333333 10.6666667,6.52724067 10.6666667,8 C10.6666667,9.47275933 9.47275933,10.6666667 8,10.6666667 C6.52724067,10.6666667 5.33333333,9.47275933 5.33333333,8 C5.33333333,6.52724067 6.52724067,5.33333333 8,5.33333333 Z M8,6.33333333 C7.07952542,6.33333333 6.33333333,7.07952542 6.33333333,8 C6.33333333,8.92047458 7.07952542,9.66666667 8,9.66666667 C8.92047458,9.66666667 9.66666667,8.92047458 9.66666667,8 C9.66666667,7.07952542 8.92047458,6.33333333 8,6.33333333 Z" id="椭圆形"></path>
            </g>
        </g>
    </g>
</svg>