<svg height="16" viewBox="0 0 16 16" width="16" xmlns="http://www.w3.org/2000/svg"><path d="m11.7083612 2.04120958h-10.62564102c-.59754738 0-1.08272018-.45733855-1.08272018-1.02060479 0-.56326623.48695652-1.02060479 1.08272018-1.02060479h10.62742472c.5975474 0 1.0827202.45733856 1.0827202 1.02060479 0 .56326624-.4869565 1.02060479-1.0845039 1.02060479zm0 4.98033772h-10.62564102c-.59754738 0-1.08272018-.4573385-1.08272018-1.0206048 0-.5632662.48695652-1.02060476 1.08272018-1.02060476h10.62742472c.5975474 0 1.0827202.45733856 1.0827202 1.02060476 0 .5632663-.4869565 1.0206048-1.0845039 1.0206048zm3.2071349 4.9784527h-13.83277592c-.59754738 0-1.08272018-.4573386-1.08272018-1.0206048s.48695652-1.0206048 1.08272018-1.0206048h13.83455962c.5975474 0 1.0827202.4573386 1.0827202 1.0206048s-.4869565 1.0206048-1.0845039 1.0206048z" fill="#222" transform="translate(0 2)"/></svg>