<svg height="10" viewBox="0 0 10 10" width="10" xmlns="http://www.w3.org/2000/svg"><path d="m5 4.49666739c.37800653-.38317532.71068218-.71843549.99804057-1.00579388.43119666-.43119666.76077642-.75496188.98943557-.97193128.11648502-.11052995.20755428-.19409539.27445916-.25169098.03714356-.03197532.068069-.05704725.09473765-.07641246.07954276-.05775931.11926511-.07972768.21990364-.07972768.17248532 0 .3123123.13982698.3123123.3123123 0 .12361314-.07181512.23045295-.17599918.28107324-.0106865.00841835-.02540626.02060936-.0434413.03613496-.05780487.04976177-.14223198.12723235-.25202994.23141711-.22390681.21246001-.55003945.53283893-.97770161.96050109-.28796569.28796568-.62177282.62437933-1.00140756 1.00922737.66793614.67942902 1.45528325 1.48507549 2.36209955 2.41699654.1202891.12361924.11758949.32134602-.00602976.44163513-.12361924.1202891-.32134603.11758949-.44163513-.00602976-.90296228-.92796032-1.68722949-1.73046857-2.35274396-2.40746816-.66551447.67699959-1.44978168 1.47950784-2.35274396 2.40746816-.1202891.12361925-.31801589.12631886-.44163513.00602976-.12361925-.12028911-.12631886-.31801589-.00602976-.44163513.9068163-.93192105 1.69416341-1.73756752 2.36209955-2.41699654-.37963474-.38484804-.71344187-.72126169-1.00140756-1.00922737-.42766216-.42766216-.7537948-.74804108-.97770161-.96050109-.10979796-.10418476-.19422507-.18165534-.25202994-.23141711-.01803504-.0155256-.0327548-.02771661-.0434413-.03613496-.10418406-.05062029-.17599918-.1574601-.17599918-.28107324 0-.17248532.13982698-.3123123.3123123-.3123123.10063853 0 .14036088.02196837.21990364.07972768.02666865.01936521.05759409.04443714.09473765.07641246.06690488.05759559.15797414.14116103.27445916.25169098.22865915.2169694.55823891.54073462.98943557.97193128.28735839.28735839.62003404.62261856.99804057 1.00579388z" fill="#071125" fill-rule="evenodd" opacity=".4" transform="matrix(.99999999664 0 0 .99999999664 -.00000012464 -.00000032464)"/></svg>