<?xml version="1.0" encoding="UTF-8"?>
<svg width="22px" height="22px" viewBox="0 0 22 22" version="1.1" xmlns="http://www.w3.org/2000/svg" xmlns:xlink="http://www.w3.org/1999/xlink">
    <!-- Generator: Sketch 56.2 (81672) - https://sketch.com -->
    <title>icon_sdk_item_setting</title>
    <desc>Created with Sketch.</desc>
    <g id="icon_sdk_item_setting" stroke="none" stroke-width="1" fill="none" fill-rule="evenodd">
        <g id="icon/设置" fill="#222222" fill-rule="nonzero">
            <path d="M21.5410937,9.27775762 L17.7164576,2.54761656 C17.1199531,1.49795673 16.017596,0.85131758 14.8245625,0.85131758 L7.17538839,0.85131758 C5.98237946,0.85131758 4.87999777,1.49795673 4.28346875,2.54761656 L0.458955357,9.27775762 C-0.137549107,10.3274424 -0.137549107,11.6206708 0.458955357,12.6703556 L4.28354241,19.4004966 C4.88004688,20.4501565 5.98240402,21.0967956 7.1754375,21.0967956 L14.8246116,21.0967956 C16.0176205,21.0967956 17.1200022,20.4501565 17.7165312,19.4004966 L21.5410446,12.6703556 C22.1375491,11.6206708 22.1375491,10.3274424 21.5410446,9.27775762 L21.5410937,9.27775762 Z M20.0100804,11.7723149 L16.1854687,18.502456 C15.9047584,18.9964229 15.3859831,19.3007144 14.8245625,19.3007144 L7.17538839,19.3007144 C6.61396776,19.3007144 6.09519246,18.9964229 5.81448214,18.502456 L1.98991964,11.7723149 C1.70921097,11.278351 1.70921097,10.6697622 1.98991964,10.1757983 L5.81453125,3.4456572 C6.09524157,2.95169033 6.61401686,2.64739886 7.1754375,2.64739886 L14.8246116,2.64739886 C15.3860322,2.64739886 15.9048075,2.95169033 16.1855179,3.4456572 L20.0100804,10.1757983 C20.290789,10.6697622 20.290789,11.278351 20.0100804,11.7723149 L20.0100804,11.7723149 Z" id="形状"></path>
            <path d="M11.0245536,5.9350508 C8.24729911,5.9350508 5.99107143,8.19951016 5.99107143,10.9990022 C5.99107143,13.7984942 8.24729911,16.0629536 11.0245536,16.0629536 C13.801808,16.0629536 16.0580357,13.7984942 16.0580357,10.9990022 C16.0580357,8.19951016 13.801808,5.9350508 11.0245536,5.9350508 Z M11.0245536,7.93069666 C12.7222857,7.93069666 14.09375,9.30716845 14.09375,10.9990022 C14.09375,12.6908359 12.7222857,14.0673077 11.0245536,14.0673077 C9.32682143,14.0673077 7.95535714,12.6908359 7.95535714,10.9990022 C7.95535714,9.30716845 9.32682143,7.93069666 11.0245536,7.93069666 Z" id="形状"></path>
        </g>
    </g>
</svg>