<svg height="16" viewBox="0 0 16 16" width="16" xmlns="http://www.w3.org/2000/svg" xmlns:xlink="http://www.w3.org/1999/xlink"><defs><path id="a" d="m12.6434897 3.88026208c.1333582-.00360605.2653141-.0871913.3381269-.21418073.0680908-.12964932.0598678-.27631285-.0208861-.37252445l-2.7253249-3.19937669c-.0785364-.094573-.2136877-.12061446-.34168753-.06583766-.1302316.05141097-.22930651.17541211-.24969883.31252052l-.29189183 1.83845401c-.01677945.08984182-.06457785.1755759-.13427802.24084915-.0725047.06245518-.16100738.0981483-.24797072.10000657h-7.45097447c-.08680783-.00044348-.17593053.03518433-.24764535.09899901s-.12010829.15055425-.13447209.24102331l-.10810318.68087802c-.01458968.09053772.006171.17740779.05766128.2412711.05149028.06386332.12943617.09941886.21648382.09877819z"/><filter id="b" height="151.5%" width="116.7%" x="-4.2%" y="-12.9%"><feOffset dx="1" dy="1" in="SourceAlpha" result="shadowOffsetOuter1"/><feColorMatrix in="shadowOffsetOuter1" type="matrix" values="0 0 0 0 0   0 0 0 0 0   0 0 0 0 0  0 0 0 0.5 0"/></filter><path id="c" d="m.94769068 6.11790897c-.13394342-.00237703-.26892892.08282786-.33799462.21334733-.07468277.1274982-.06951606.27689928.01288295.37252446l2.72479561 3.20271023c.08228995.09376771.21912799.11953081.34969071.06583766.12903006-.05388177.22704956-.17682398.24983115-.3133539l.29109792-1.83345369c.01310309-.09064621.06170078-.17781394.13427802-.24084915.07192964-.06353392.16096267-.09916071.24783841-.09917317h7.45097447c.0869761.00066953.1763531-.03499999.2481747-.09904422.0718217-.06404424.1201068-.15112959.1340858-.24181149l.1082355-.68171141c.0148597-.09098682-.0056173-.17841104-.0569248-.24298329s-.1292286-.10098568-.2165709-.10120598z"/><filter id="d" height="151.5%" width="116.7%" x="-4.2%" y="-12.9%"><feOffset dx="1" dy="1" in="SourceAlpha" result="shadowOffsetOuter1"/><feColorMatrix in="shadowOffsetOuter1" type="matrix" values="0 0 0 0 0   0 0 0 0 0   0 0 0 0 0  0 0 0 0.5 0"/></filter></defs><g fill="none" transform="translate(1 3)"><g><use fill="#000" filter="url(#b)" xlink:href="#a"/><use fill="#fff" xlink:href="#a"/></g><g opacity=".7"><use fill="#000" filter="url(#d)" xlink:href="#c"/><use fill="#fff" xlink:href="#c"/></g></g></svg>