<svg height="16" viewBox="0 0 16 16" width="16" xmlns="http://www.w3.org/2000/svg"><path d="m9.5 2.37777777c0-.28227887-.22385763-.5111111-.5-.5111111h-2c-.13260824-.00000001-.2597852.05384904-.35355339.14970097-.0937682.09585192-.14644661.22585504-.14644661.36141013v1.02222223h-1.5v-1.02222223c0-.54222038.21071368-1.06223282.58578643-1.44564053.37507276-.38340771.88378059-.59880391 1.41421357-.59880391h2c1.1045695 0 2 .91532896 2 2.04444444v1.02222223h4.25c.4142136 0 .75.34324836.75.76666667 0 .4234183-.3357864.76666666-.75.76666666h-1.25v8.68888887c0 1.1291155-.8954305 2.0444445-2 2.0444445h-8c-.53043298 0-1.03914081-.2153962-1.41421356-.5988039-.37507276-.3834077-.58578644-.9034202-.58578644-1.4456406v-8.68888887h-1.25c-.41421356 0-.75-.34324836-.75-.76666666 0-.42341831.33578644-.76666667.75-.76666667h8.75zm3 2.55555556h-9.00000001v8.68888887c0 .1355551.05267843.2655582.14644662.3614102.09376819.0958519.22094515.1497009.35355338.1497009h8.00000001c.2761424 0 .5-.2288322.5-.5111111zm-6.27000001 1.57217778c.41421357 0 .75.34324835.75.76666666v4.56115553c0 .2739037-.14294918.527001-.37499999.6639529-.23205081.1369518-.5179492.1369518-.75000001 0-.23205081-.1369519-.375-.3900492-.375-.6639529v-4.56115553c0-.42341831.33578644-.76666666.75-.76666666zm3.52000001 0c.4142136 0 .75.34324835.75.76666666v4.56115553c0 .4234183-.3357864.7666667-.75.7666667-.41421357 0-.75-.3432484-.75-.7666667v-4.56115553c0-.42341831.33578643-.76666666.75-.76666666z"/></svg>