<?xml version="1.0" encoding="UTF-8"?>
<svg width="24px" height="24px" viewBox="0 0 24 24" version="1.1" xmlns="http://www.w3.org/2000/svg" xmlns:xlink="http://www.w3.org/1999/xlink">
    <title>icon_setting_language_hk</title>
    <g id="icon_setting_language_hk" stroke="none" stroke-width="1" fill="none" fill-rule="evenodd">
        <g id="icon/繁体">
            <circle id="椭圆形备份" fill="#ED5565" cx="12" cy="12" r="12"></circle>
            <g id="_ffffffff" transform="translate(6.300000, 6.000000)" fill="#FFFFFF" fill-rule="nonzero">
                <path d="M6.42857143,0.428571429 C6.68655964,0.388899416 6.94809733,0.377403253 7.20857143,0.394285714 C6.97442096,0.506361459 6.78437901,0.693386901 6.66857143,0.925714286 C6.54609626,1.19830342 6.54609626,1.51026801 6.66857143,1.78285714 C6.73285714,1.94142857 6.84857143,2.07428571 6.9,2.23714286 C7.00034113,2.56542297 6.98367947,2.91834747 6.85285714,3.23571429 C6.75341323,3.51287634 6.58179214,3.75847199 6.35571429,3.94714286 C6.23571429,4.04571429 6.08142857,4.09285714 5.95285714,4.18285714 C5.58803323,4.40621901 5.34741784,4.78613807 5.30142857,5.21142857 C5.27215273,5.54752946 5.38571181,5.88042866 5.61428571,6.12857143 C5.18267031,5.79481337 4.89823247,5.30588781 4.82142857,4.76571429 C4.73326667,4.20963451 4.84893527,3.64042333 5.14714286,3.16285714 L5.07428571,3.11571429 C4.54149261,3.96596751 4.59274719,5.05768993 5.20285714,5.85428571 C5.29015959,5.96351636 5.38934079,6.06269756 5.49857143,6.15 C5.08013824,5.9410218 4.70837619,5.6494437 4.40571429,5.29285714 C4.03420458,4.84238803 3.81513122,4.2857016 3.78,3.70285714 C3.69226089,2.09362068 4.83652517,0.679028614 6.42857143,0.428571429 Z M5.27571429,2.24571429 C5.27571429,2.36857143 5.28285716,2.49142857 5.29714286,2.61428571 L4.97142857,2.79857143 L5.33142857,2.88857143 L5.40428571,3.25285714 L5.60142857,2.94 L5.97,2.98285714 L5.73428571,2.69571429 L5.88857143,2.36142857 L5.54571429,2.49857143 L5.27571429,2.24571429 Z" id="Shape"></path>
                <path d="M0.497142857,5.14285714 C0.324453487,4.46957139 0.374063264,3.7584979 0.638571429,3.11571429 C0.67294959,3.37281037 0.792092889,3.61109696 0.977142857,3.79285714 C1.19487102,3.97989885 1.48037827,4.06834404 1.76571429,4.03714286 C1.95,4.03714286 2.12571429,3.95142857 2.31428571,3.95571429 C2.68387529,3.97465834 3.03407283,4.12691814 3.3,4.38428571 C3.48587414,4.54806849 3.6323732,4.75170219 3.72857143,4.98 C3.80571429,5.15571429 3.79285714,5.35714286 3.85714286,5.53714286 C3.98170874,5.97540261 4.31829763,6.32165434 4.75285714,6.45857143 C5.0249676,6.53590029 5.3153499,6.5177514 5.57571429,6.40714286 C5.11869776,6.71257517 4.5606399,6.82787636 4.02,6.72857143 C3.47283215,6.63542186 2.97633691,6.35149337 2.61857143,5.92714286 L2.55428571,5.98285714 C2.90060929,6.39463217 3.37400928,6.67957676 3.9,6.79285714 C4.41681356,6.91043443 4.95853029,6.84215079 5.43,6.6 C5.46857143,6.57428571 5.53714286,6.57 5.54142857,6.51 L5.54142857,6.54428571 C5.43428571,6.61714286 5.34857143,6.71142857 5.24571429,6.78857143 C4.86264596,7.1057397 4.40813631,7.32490457 3.92142857,7.42714286 C3.37821163,7.53317134 2.81572316,7.47498287 2.30571429,7.26 C1.40225093,6.87931093 0.72526587,6.1026762 0.471428571,5.15571429 L0.497142857,5.14285714 Z M2.07857143,4.98857143 C2.07857143,5.11285714 2.07857143,5.23285714 2.1,5.35714286 L1.77857143,5.54142857 L2.13,5.62714286 C2.16428571,5.74714286 2.18142857,5.87142857 2.20714286,5.99571429 L2.40428571,5.68285714 L2.77285714,5.72571429 L2.53714286,5.43857143 L2.69142857,5.10428571 L2.34857143,5.23714286 L2.07857143,4.98857143 Z" id="Shape"></path>
                <path d="M7.91142857,3.46285714 C8.93151793,3.18544959 10.0227664,3.43455639 10.8214286,4.12714286 C11.3163951,4.56459891 11.6649838,5.14358533 11.82,5.78571429 C11.6356367,5.59017189 11.3883294,5.46575966 11.1214286,5.43428571 C10.8365391,5.41986994 10.5580455,5.52198424 10.35,5.71714286 C10.2128571,5.83285714 10.1185714,5.99142857 9.96857143,6.09428571 C9.63921214,6.30820324 9.24158901,6.39078651 8.85428571,6.32571429 C8.5302861,6.29567079 8.22702981,6.15314036 7.99714286,5.92285714 C7.80374593,5.71538271 7.55563281,5.56681196 7.28142857,5.49428571 C6.93051557,5.39897053 6.55553383,5.45990507 6.25285714,5.66142857 C6.1054881,5.76451929 5.98138654,5.89738093 5.88857143,6.05142857 C6.05692534,5.58490971 6.38686337,5.19415363 6.81857143,4.95 C7.34349591,4.64229244 7.96777641,4.55157189 8.55857143,4.69714286 L8.58428571,4.61571429 C7.46782316,4.32442581 6.30434421,4.88260577 5.83285714,5.93571429 C5.9115786,5.40586414 6.11744597,4.90295961 6.43285714,4.47 C6.80157484,3.98174379 7.32142757,3.62914802 7.91142857,3.46714286 L7.91142857,3.46285714 Z M8.84571429,4.40571429 C8.84571429,4.53 8.84571429,4.65428571 8.86714286,4.77428571 L8.54571429,4.95428571 L8.90571429,5.04857143 C8.93142857,5.16857143 8.95285714,5.28857143 8.97857143,5.41285714 L9.18,5.1 L9.54857143,5.14285714 L9.31285714,4.85571429 L9.46714286,4.52142857 L9.12428571,4.65857143 L8.84571429,4.40571429 Z" id="Shape"></path>
                <path d="M6.10714286,6.19714286 C6.67065767,6.1001742 7.2497205,6.15187624 7.78714286,6.34714286 C8.37008961,6.57110919 8.86070546,6.98473607 9.18,7.52142857 C9.74305903,8.47051941 9.77227594,9.64406619 9.25714286,10.62 C8.98531521,11.1191196 8.58793569,11.5386578 8.10428571,11.8371429 C8.24900657,11.5755122 8.2829613,11.2668328 8.19857143,10.98 C8.07080794,10.660275 7.80916286,10.4127306 7.48285714,10.3028571 C7.15956831,10.1643959 6.90711017,9.89954717 6.78428571,9.57 C6.64035711,9.23652643 6.60439071,8.86637259 6.68142857,8.51142857 C6.73994194,8.3500857 6.80865189,8.19262539 6.88714286,8.04 C7.03019349,7.68308751 7.01933614,7.2829164 6.85714286,6.93428571 C6.69539936,6.58983639 6.3751797,6.3464694 6,6.28285714 C6.440832,6.2860887 6.86786074,6.43698223 7.21285714,6.71142857 C7.75595079,7.12112571 8.09386303,7.74688911 8.13857143,8.42571429 L8.22428571,8.42571429 C8.15704937,7.46889861 7.52946039,6.64276941 6.62571429,6.32142857 C6.45694856,6.26408087 6.28091897,6.23089496 6.10285714,6.22285714 L6.10714286,6.19714286 Z M7.88142857,8.49428571 C7.88142857,8.61857143 7.88142857,8.74285714 7.88142857,8.87142857 C7.77428571,8.92714286 7.66714286,8.98714286 7.56428571,9.04714286 L7.92,9.13714286 C7.94571429,9.25714286 7.96714286,9.38142857 7.99285714,9.50142857 L8.19,9.18857143 L8.55857143,9.23142857 L8.32285714,8.94428571 L8.47714286,8.61 L8.13428571,8.74714286 L7.88142857,8.49428571 Z" id="Shape"></path>
                <path d="M5.83714286,6.46285714 C6.06687009,7.29403007 5.79448637,8.183037 5.13857143,8.74285714 C4.94294931,8.9222226 4.71833949,9.06713216 4.47428571,9.17142857 L4.50428571,9.25285714 C5.34061586,8.91346054 5.91876857,8.13708407 6.00428571,7.23857143 C6.02274677,7.01132919 6.00392709,6.78259731 5.94857143,6.56142857 C6.21264056,7.06868816 6.34108204,7.63560236 6.32142857,8.20714286 C6.28284377,8.88944619 5.99631047,9.53414614 5.51571429,10.02 C4.78248994,10.7651659 3.72949547,11.1017395 2.7,10.92 C2.14506979,10.8156698 1.6267326,10.5690535 1.19571429,10.2042857 C1.4599831,10.2526215 1.73283533,10.2071462 1.96714286,10.0757143 C2.20678922,9.91891307 2.37233531,9.67136751 2.42571429,9.39 C2.46857143,9.21857143 2.45142857,9.03428571 2.51142857,8.86714286 C2.63540744,8.53430451 2.87192835,8.25533113 3.18,8.07857143 C3.4092484,7.93204663 3.67147653,7.84512831 3.94285714,7.82571429 C4.10571429,7.82571429 4.26428571,7.87285714 4.42714286,7.87714286 C4.84997443,7.90549671 5.26238829,7.73800294 5.54571429,7.42285714 C5.76882514,7.16426391 5.87164226,6.82309804 5.82857143,6.48428571 L5.83714286,6.46285714 Z M3.71142857,8.83714286 C3.71142857,8.96142857 3.71142857,9.08142857 3.73285714,9.20571429 L3.41142857,9.38571429 C3.53142857,9.41571429 3.65571429,9.44571429 3.77142857,9.48428571 C3.77142857,9.60428571 3.81857143,9.72428571 3.84,9.84428571 L4.03714286,9.53142857 L4.40571429,9.57428571 C4.32857143,9.48 4.25142857,9.38571429 4.17,9.29142857 C4.21714286,9.17571429 4.27285714,9.06428571 4.32428571,8.95285714 L3.98142857,9.09 L3.71142857,8.83714286 Z" id="Shape"></path>
            </g>
        </g>
    </g>
</svg>