<?xml version="1.0" encoding="UTF-8"?>
<svg width="24px" height="24px" viewBox="0 0 24 24" version="1.1" xmlns="http://www.w3.org/2000/svg" xmlns:xlink="http://www.w3.org/1999/xlink">
    <title>icon_setting_language_chinese</title>
    <g id="icon_setting_language_chinese" stroke="none" stroke-width="1" fill="none" fill-rule="evenodd">
        <g id="icon/繁体">
            <circle id="椭圆形" fill="#ED5565" cx="12" cy="12" r="12"></circle>
            <path d="M4.65002636,13.0166197 C4.33819538,13.2409859 4.15566017,13.115493 4.24312496,12.7390141 L4.58157566,11.3395775 C4.65498083,10.9195239 4.5120502,10.4907321 4.20129397,10.1987324 L3.17833622,9.31267606 C2.88551932,9.06169014 2.96157566,8.84492958 3.34566017,8.83352113 L4.77932214,8.79169014 C5.20077514,8.77078104 5.56690107,8.49505658 5.70340665,8.09577465 L6.15213904,6.57464789 C6.26242073,6.1943662 6.45636439,6.1943662 6.58566017,6.57464789 L7.12566017,8.09577465 C7.28361074,8.47959608 7.64689038,8.73950348 8.06115312,8.76507042 L9.52143481,8.76507042 C9.9017165,8.76507042 9.98157566,8.98183099 9.69256158,9.2328169 L8.57833622,10.206338 C8.27601593,10.5025241 8.15053773,10.9352076 8.24749115,11.3471831 L8.60115312,12.5792958 C8.707632,12.9595775 8.5288996,13.0888732 8.20185735,12.8873239 L7.00397003,12.1267606 C6.63832059,11.9256581 6.1920474,11.9402422 5.84030805,12.1647887 L4.65002636,13.0166197 Z" id="Shape_2_copy_9" fill="#F6D660" fill-rule="nonzero"></path>
            <path d="M11.1680545,7.09943662 C11.0615757,7.17549296 11.0007306,7.13366197 11.0311531,7.00056338 L11.1452376,6.51380282 C11.1664103,6.37498427 11.1213781,6.23425861 11.0235475,6.13352113 L10.6774912,5.82549296 C10.5786179,5.73802817 10.6052376,5.66197183 10.7345334,5.65816901 L11.2174912,5.65816901 C11.3588681,5.64623395 11.4790386,5.55009752 11.5217165,5.41478873 L11.6738292,4.88239437 C11.7118573,4.75309859 11.7765052,4.75309859 11.822139,4.88239437 L12.0046743,5.4071831 C12.058908,5.53691402 12.1803016,5.62613102 12.3203081,5.63915493 L12.8146743,5.63915493 C12.94397,5.63915493 12.9705897,5.71521127 12.8717165,5.80267606 L12.4914348,6.14112676 C12.393038,6.24132707 12.3503586,6.38359157 12.3773503,6.52140845 L12.4990404,6.95112676 C12.5370686,7.08042254 12.4762235,7.12985915 12.3659419,7.05760563 L11.9628433,6.8028169 C11.8451837,6.73488612 11.7002211,6.73488612 11.5825616,6.8028169 L11.1680545,7.09943662 Z" id="Shape_2_copy_10" fill="#F6D660" fill-rule="nonzero"></path>
            <path d="M11.1680545,14.61 C11.0615757,14.6860563 11.0007306,14.6442254 11.0311531,14.5111268 L11.1452376,14.0243662 C11.1664103,13.8855476 11.1213781,13.744822 11.0235475,13.6440845 L10.6774912,13.3360563 C10.5786179,13.2485915 10.6052376,13.1725352 10.7345334,13.1687324 L11.2174912,13.1687324 C11.3578791,13.1573906 11.477777,13.062971 11.5217165,12.9291549 L11.6738292,12.3967606 C11.7118573,12.2674648 11.7765052,12.2674648 11.822139,12.3967606 L12.0046743,12.9215493 C12.058908,13.0512802 12.1803016,13.1404972 12.3203081,13.1535211 L12.8146743,13.1535211 C12.94397,13.1535211 12.9705897,13.2295775 12.8717165,13.3170423 L12.4914348,13.655493 C12.393038,13.7556933 12.3503586,13.8979577 12.3773503,14.0357746 L12.4990404,14.465493 C12.5370686,14.5947887 12.4762235,14.6442254 12.3659419,14.5719718 L11.9666461,14.3171831 C11.8489865,14.2492523 11.704024,14.2492523 11.5863644,14.3171831 L11.1680545,14.61 Z" id="Shape_2_copy_11" fill="#F6D660" fill-rule="nonzero"></path>
            <path d="M13.8034066,12.594507 C13.6969278,12.6705634 13.6360827,12.6287324 13.6665052,12.4994366 L13.7805897,12.0126761 C13.8017624,11.8738575 13.7567302,11.7331319 13.6588996,11.6323944 L13.3128433,11.3243662 C13.21397,11.2369014 13.2405897,11.1608451 13.3698855,11.1570423 L13.8528433,11.1570423 C13.9932312,11.1457004 14.1131291,11.0512808 14.1570686,10.9174648 L14.3091813,10.3850704 C14.3472095,10.2557746 14.4118573,10.2557746 14.4574912,10.3850704 L14.6400264,10.9098592 C14.6942601,11.0395901 14.8156538,11.1288071 14.9556602,11.141831 L15.4500264,11.141831 C15.5793221,11.141831 15.6059419,11.2178873 15.5070686,11.3053521 L15.1267869,11.6438028 C15.0297584,11.7447331 14.9885291,11.8869028 15.0165052,12.0240845 L15.1381954,12.4538028 C15.1762235,12.5830986 15.1115757,12.6325352 15.0050968,12.5602817 L14.605801,12.305493 C14.4881414,12.2375622 14.3431789,12.2375622 14.2255193,12.305493 L13.8034066,12.594507 Z" id="Shape_2_copy_12" fill="#F6D660" fill-rule="nonzero"></path>
            <path d="M13.8034066,9.11873239 C13.6969278,9.19478873 13.6360827,9.15295775 13.6665052,9.01985915 L13.7805897,8.53309859 C13.8017624,8.39428003 13.7567302,8.2535544 13.6588996,8.1528169 L13.3090404,7.82957746 C13.2101672,7.74211268 13.2367869,7.66605634 13.3660827,7.66225352 L13.8490404,7.66225352 C13.9894284,7.6509117 14.1093263,7.55649209 14.1532658,7.42267606 L14.3053785,6.89028169 C14.3434066,6.76098592 14.4080545,6.76098592 14.4536883,6.89028169 L14.6362235,7.41507042 C14.6904573,7.54480135 14.8118509,7.63401833 14.9518573,7.64704225 L15.4462235,7.64704225 C15.5755193,7.64704225 15.602139,7.72309859 15.5032658,7.81056338 L15.1229841,8.14901408 C15.0265347,8.25027819 14.9853943,8.39214197 15.0127024,8.52929577 L15.1343926,8.95901408 C15.1724207,9.08830986 15.1077728,9.13774648 15.001294,9.06549296 L14.6019982,8.81070423 C14.4843386,8.74277344 14.3393761,8.74277344 14.2217165,8.81070423 L13.8034066,9.11873239 Z" id="Shape_2_copy_13" fill="#F6D660" fill-rule="nonzero"></path>
        </g>
    </g>
</svg>