<?xml version="1.0" encoding="UTF-8"?>
<svg width="24px" height="24px" viewBox="0 0 24 24" version="1.1" xmlns="http://www.w3.org/2000/svg" xmlns:xlink="http://www.w3.org/1999/xlink">
    <title>icon_setting_language_thailand</title>
    <g id="icon_setting_language_thailand" stroke="none" stroke-width="1" fill="none" fill-rule="evenodd">
        <g id="泰国" fill-rule="nonzero">
            <path d="M0.00669323462,12.0009817 C0.00669323462,18.6252558 5.37670752,23.9952701 12.0009817,23.9952701 C18.6252558,23.9952701 23.9952701,18.6252558 23.9952701,12.0009817 C23.9952701,5.37670752 18.6252558,0.00669323462 12.0009817,0.00669323462 C5.37670752,0.00669323462 0.00669323462,5.37670752 0.00669323462,12.0009817 Z" id="路径" fill="#F0F0F0"></path>
            <path d="M23.2493396,7.82925393 L0.752623748,7.82925393 C0.257785364,9.16438179 0.00518206136,10.5771035 0.0066864943,12.0009817 C0.0066864943,13.468283 0.27056758,14.8738993 0.752623748,16.1727094 L23.2493396,16.1727094 C23.7441543,14.8375751 23.9967568,13.4248577 23.9952766,12.0009817 C23.9952766,10.5336804 23.7313958,9.12806402 23.2493396,7.82925393 Z" id="路径" fill="#0052B4"></path>
            <path d="M12.0009817,0.00669323462 C8.36556997,0.00669323462 5.10826392,1.62420871 2.90816873,4.17842098 L21.0937946,4.17842098 C18.8936994,1.62420871 15.6363934,0.00669323462 12.0009817,0.00669323462 Z M21.0937946,19.8235424 L2.90816873,19.8235424 C5.10883508,22.3777546 8.36614113,23.9952701 12.0009817,23.9952701 C15.6358222,23.9952701 18.8936994,22.3777546 21.0937946,19.8235424 L21.0937946,19.8235424 Z" id="形状" fill="#D80027"></path>
        </g>
    </g>
</svg>