<?xml version="1.0" encoding="UTF-8"?>
<svg width="24px" height="24px" viewBox="0 0 24 24" version="1.1" xmlns="http://www.w3.org/2000/svg" xmlns:xlink="http://www.w3.org/1999/xlink">
    <title>icon_nation_uk</title>
    <g id="icon_nation_uk" stroke="none" stroke-width="1" fill="none" fill-rule="evenodd">
        <g id="英国国旗" transform="translate(0.000000, 0.000000)" fill-rule="nonzero">
            <path d="M0.226485526,14.3299023 C0.341479203,14.9135541 0.500128359,15.4877492 0.701095474,16.0476467 L1.69077276,16.0476467 L0.897954911,16.562714 C1.18919122,17.2665351 1.5424527,17.9352788 1.95501377,18.5662908 L5.82472613,16.0449448 L8.61574074,16.0449448 L2.87458388,19.7878812 C3.0415041,19.9817422 3.21416253,20.1705876 3.39232941,20.3541661 L8.70471381,16.8917058 L8.70471381,23.5361976 C9.17517379,23.6696422 9.65337549,23.7741063 10.1366256,23.8490017 L10.1366256,14.3299023 L0.226485526,14.3299023 Z M13.8633507,23.8517036 C14.3466008,23.7767845 14.8248025,23.6723204 15.2952625,23.5388758 L15.2952625,16.9671931 L20.5644876,20.4000273 C21.1038246,19.8499063 21.5919204,19.2485441 22.0206691,18.6013681 L18.0943828,16.0449448 L20.8853974,16.0449448 L22.7757315,17.277319 C22.8808923,17.0615699 22.9806729,16.8431427 23.0723716,16.6220373 L22.1878551,16.0449448 L23.2961789,16.0449448 C23.4974891,15.4851561 23.6561454,14.9109349 23.7707889,14.3272004 L13.8633507,14.3272004 L13.8633507,23.8517036 L13.8633507,23.8517036 Z M10.1366256,0.137512455 C9.65337549,0.212407859 9.17517379,0.316872008 8.70471381,0.450316555 L8.70471381,7.23504648 L3.30873644,3.71864301 C2.8017748,4.25257624 2.34335255,4.83234695 1.93884978,5.44987315 L5.76267725,7.94156945 L2.97166265,7.94156945 L1.18919122,6.77932612 C1.0703856,7.02731228 0.959761337,7.27913563 0.857497524,7.53438848 L1.48312942,7.94156945 L0.701071773,7.94156945 C0.501510437,8.49436857 0.342430189,9.06878289 0.226461825,9.6566356 L10.1366256,9.6566356 L10.1366256,0.137512455 Z M23.7734908,9.6593375 C23.6575224,9.07146109 23.4984185,8.49707047 23.2988808,7.94427135 L22.4036041,7.94427135 L23.120911,7.4777434 C22.8350785,6.77392233 22.4817933,6.10247664 22.0746123,5.47146464 L18.2804346,7.94427135 L15.4867418,7.94427135 L21.1631479,4.24449424 C20.995962,4.0476348 20.8260741,3.85888106 20.6454024,3.67280552 L15.2952625,7.1595355 L15.2952625,0.453018454 C14.8248025,0.319573907 14.3466008,0.215109758 13.8633507,0.140214355 L13.8633507,9.6593375 L23.7734908,9.6593375 L23.7734908,9.6593375 Z" id="形状" fill="#FFFFFF"></path>
            <path d="M0.701095474,16.0476467 C0.763120654,16.2229383 0.830525932,16.3928261 0.90065681,16.562714 L1.69345096,16.0476467 L0.701095474,16.0476467 Z M0.854795624,7.53438848 C0.800762072,7.66904192 0.749517743,7.80479791 0.701095474,7.94156945 L1.48042752,7.94156945 L0.854795624,7.53438848 L0.854795624,7.53438848 Z M20.6454024,3.67280552 C19.1972791,2.1680846 17.3581863,1.04089487 15.2952625,0.453042155 L15.2952625,7.1595355 L20.6454024,3.67280552 Z M8.70471381,0.453042155 C6.61752028,1.04627496 4.76491797,2.1923543 3.30873644,3.71864301 L8.70471381,7.23504648 L8.70471381,0.453042155 Z M3.39230571,20.3541661 C4.83500145,21.8399737 6.65793026,22.9536776 8.70469011,23.5361739 L8.70469011,16.8916821 L3.39230571,20.3541661 Z M23.2989045,7.94424765 C23.2423814,7.78768147 23.1830405,7.63214688 23.120911,7.4777197 L22.4036278,7.94424765 L23.2989045,7.94424765 L23.2989045,7.94424765 Z M15.2952625,23.5362214 C17.3204545,22.9591051 19.1271957,21.8642908 20.5644876,20.4000036 L15.2952625,16.9671931 L15.2952625,23.5362214 L15.2952625,23.5362214 Z M23.0750735,16.6220373 C23.1540914,16.4314148 23.2287136,16.2389997 23.2988808,16.0449448 L22.190557,16.0449448 L23.0750735,16.6220373 Z" id="形状" fill="#002377"></path>
            <path d="M13.8633507,23.8516799 L13.8633507,14.3326042 L23.7734908,14.3326042 C23.9218108,13.5775655 24,12.7955316 24,11.9973337 C24,11.1991357 23.9217871,10.4171018 23.7734908,9.6620394 L13.8633507,9.6620394 L13.8633507,0.142916254 C13.273662,0.0502749777 12.6777954,0.00249916239 12.0808792,0 L11.9190971,0 C11.3123548,0.00267819846 10.7163964,0.0539194822 10.1366256,0.142916254 L10.1366256,9.6620157 L0.226485526,9.6620157 C0.0781654736,10.4170781 0,11.199112 0,11.99731 C0,12.7955079 0.0782128753,13.5775418 0.226509227,14.3325805 L10.1366256,14.3325805 L10.1366256,23.8517036 C10.7190983,23.9433786 11.3123548,23.991918 11.9190971,23.9946199 L12.078201,23.9946199 C12.6849433,23.9892398 13.280878,23.9407004 13.8633507,23.8517036 L13.8633507,23.8516799 Z" id="路径" fill="#C2121F"></path>
            <path d="M18.0943828,16.0449448 L22.0179672,18.6013681 C22.2984196,18.1779758 22.5519005,17.7357412 22.7784334,17.277319 L20.8880993,16.0449448 L18.0943828,16.0449448 Z M18.2777564,7.94429505 L22.0719104,5.47146464 C21.7945911,5.04343035 21.4901467,4.63359374 21.160446,4.24447054 L15.4867418,7.94429505 L18.2777564,7.94429505 L18.2777564,7.94429505 Z M5.76267725,7.94427135 L1.93884978,5.45259875 C1.66109927,5.87864561 1.41032035,6.32360577 1.18648932,6.78202802 L2.96896075,7.94427135 L5.76267725,7.94427135 Z M5.82470243,16.0449448 L1.95773937,18.5636126 C2.23816808,18.9896832 2.54559208,19.3995424 2.87458388,19.7851793 L8.61571704,16.0422429 L5.82470243,16.0422429 L5.82470243,16.0449448 Z" id="形状" fill="#C2121F"></path>
        </g>
    </g>
</svg>