<?xml version="1.0" encoding="UTF-8"?>
<svg width="16px" height="16px" viewBox="0 0 16 16" version="1.1" xmlns="http://www.w3.org/2000/svg" xmlns:xlink="http://www.w3.org/1999/xlink">
    <!-- Generator: Sketch 55.2 (78181) - https://sketchapp.com -->
    <title>icon_league_fantasy_prompt</title>
    <desc>Created with Sketch.</desc>
    <g id="icon_league_fantasy_prompt" stroke="none" stroke-width="1" fill="none" fill-rule="evenodd">
        <g id="ico/规则">
            <rect id="矩形" fill="#D8D8D8" opacity="0" x="0" y="0" width="16" height="16"></rect>
            <g id="问号" stroke-width="1" fill="#FFFFFF">
                <path d="M8,0 C12.4186667,0 16,3.58133333 16,8 C16,12.4186667 12.4186667,16 8,16 C3.58133333,16 0,12.4186667 0,8 C0,3.58133333 3.58133333,0 8,0 Z M12.8606667,12.8606667 C14.1528417,11.5735229 14.8778105,9.82385459 14.8746769,8 C14.8746769,7.072 14.694,6.172 14.3346667,5.32333333 C13.9899598,4.50601865 13.4895551,3.76356299 12.8613333,3.13733333 C12.228,2.506 11.494,2.01066666 10.6746667,1.664 C9.82837001,1.30652565 8.91869576,1.12332106 8,1.12531693 C7.072,1.12531693 6.172,1.306 5.32333333,1.66533333 C4.50601865,2.01004023 3.76356299,2.51044494 3.13733333,3.13866667 C2.506,3.772 2.01066666,4.506 1.664,5.32533333 C1.30652565,6.17162999 1.12332106,7.08130424 1.12531693,8 C1.12531693,8.928 1.306,9.828 1.66533333,10.6766667 C2.01004023,11.4939813 2.51044494,12.236437 3.13866667,12.8626667 C3.772,13.494 4.506,13.9893333 5.32533333,14.336 C6.172,14.694 7.072,14.8746667 8,14.8746667 C8.928,14.8746667 9.828,14.694 10.6746667,14.3346667 C11.4922189,13.9900353 12.2349069,13.4896266 12.8613333,12.8613333 L12.8606667,12.8606667 Z M7.91866667,10.374 C7.9,10.374 7.88133334,10.372 7.86266667,10.37 C7.5535579,10.3391214 7.32778637,10.0638412 7.358,9.75466667 C7.43466667,8.97466667 8.006,8.34533334 8.636,7.71533333 C9.644,6.708 9.66066667,6.38733333 9.678,6.04866667 C9.69652896,5.64695848 9.54701597,5.25566438 9.26533333,4.96866667 C8.93380001,4.62315997 8.47550787,4.42809079 7.99666667,4.42866667 L7.994,4.42866667 C7.0683321,4.43196561 6.3191612,5.18232803 6.31733333,6.108 C6.31733333,6.41875222 6.06541888,6.67066666 5.75466666,6.67066666 C5.44391445,6.67066666 5.19198738,6.41875222 5.19198738,6.108 C5.18976455,5.36481167 5.48448928,4.65152022 6.01066667,4.12666667 C6.53434126,3.59898026 7.24723718,3.30254037 7.99066667,3.3033285 C8.78001983,3.30189019 9.53553157,3.62375361 10.0813333,4.194 C10.5826667,4.722 10.8393333,5.40133333 10.8013333,6.10733333 C10.7626667,6.83133333 10.5406667,7.40133333 9.43133333,8.51066667 C8.86866666,9.07333334 8.514,9.49533334 8.478,9.86533333 C8.44989072,10.1532866 8.20798849,10.3729881 7.91866667,10.3733333 L7.91866667,10.374 Z M7.22199999,12.0186667 C7.22196326,11.7768925 7.35092716,11.5534682 7.56030365,11.4325705 C7.76968013,11.3116727 8.0276532,11.3116727 8.23702968,11.4325705 C8.44640617,11.5534682 8.57537007,11.7768925 8.57533334,12.0186667 C8.57527655,12.3923392 8.27233919,12.6952305 7.89866666,12.6952305 C7.52499414,12.6952305 7.22205678,12.3923392 7.22199999,12.0186667 L7.22199999,12.0186667 Z" id="形状" fill-rule="nonzero"></path>
            </g>
        </g>
    </g>
</svg>