<?xml version="1.0" encoding="UTF-8"?>
<svg width="12px" height="12px" viewBox="0 0 12 12" version="1.1" xmlns="http://www.w3.org/2000/svg" xmlns:xlink="http://www.w3.org/1999/xlink">
    <!-- Generator: Sketch 55.2 (78181) - https://sketchapp.com -->
    <title>icon_list_fantasy_prompt</title>
    <desc>Created with Sketch.</desc>
    <g id="icon_list_fantasy_prompt" stroke="none" stroke-width="1" fill="none" fill-rule="evenodd" opacity="0.5">
        <g id="ico/规则">
            <rect id="矩形" fill="#D8D8D8" opacity="0" x="0" y="0" width="12" height="12"></rect>
            <g id="问号" stroke-width="1" fill="#222222">
                <path d="M6,0 C9.314,0 12,2.686 12,6 C12,9.314 9.314,12 6,12 C2.686,12 0,9.314 0,6 C0,2.686 2.686,0 6,0 Z M9.6455,9.6455 C10.6146313,8.68014215 11.1583579,7.36789094 11.1560076,6 C11.1560076,5.304 11.0205,4.629 10.751,3.9925 C10.4924698,3.37951399 10.1171663,2.82267224 9.646,2.353 C9.171,1.8795 8.6205,1.50799999 8.006,1.248 C7.37127751,0.979894239 6.68902182,0.842490798 6,0.843987697 C5.304,0.843987697 4.629,0.9795 3.9925,1.249 C3.37951399,1.50753018 2.82267224,1.8828337 2.353,2.354 C1.8795,2.829 1.50799999,3.3795 1.248,3.994 C0.979894239,4.62872249 0.842490798,5.31097818 0.843987697,6 C0.843987697,6.696 0.9795,7.371 1.249,8.0075 C1.50753018,8.62048601 1.8828337,9.17732776 2.354,9.647 C2.829,10.1205 3.3795,10.492 3.994,10.752 C4.629,11.0205 5.304,11.156 6,11.156 C6.696,11.156 7.371,11.0205 8.006,10.751 C8.6191642,10.4925265 9.17618019,10.11722 9.646,9.646 L9.6455,9.6455 Z M5.939,7.7805 C5.925,7.7805 5.91100001,7.779 5.897,7.7775 C5.66516843,7.75434102 5.49583978,7.54788086 5.5185,7.316 C5.576,6.731 6.0045,6.25900001 6.477,5.7865 C7.233,5.031 7.2455,4.7905 7.2585,4.5365 C7.27239672,4.23521886 7.16026198,3.94174829 6.949,3.7265 C6.70035001,3.46736997 6.3566309,3.32106809 5.9975,3.3215 L5.9955,3.3215 C5.30124908,3.3239742 4.7393709,3.88674602 4.738,4.581 C4.738,4.81406416 4.54906416,5.003 4.316,5.003 C4.08293583,5.003 3.89399053,4.81406416 3.89399053,4.581 C3.89232341,4.02360875 4.11336696,3.48864016 4.508,3.095 C4.90075595,2.69923519 5.43542789,2.47690527 5.993,2.47749637 C6.58501488,2.47641764 7.15164868,2.71781521 7.561,3.1455 C7.93699999,3.5415 8.1295,4.051 8.101,4.5805 C8.07199999,5.1235 7.90549999,5.551 7.0735,6.383 C6.65149999,6.80500001 6.3855,7.12150001 6.3585,7.399 C6.33741804,7.61496497 6.15599136,7.77974104 5.939,7.78 L5.939,7.7805 Z M5.41649999,9.014 C5.41647245,8.83266935 5.51319537,8.66510113 5.67022773,8.57442784 C5.8272601,8.48375456 6.0207399,8.48375456 6.17777226,8.57442784 C6.33480462,8.66510113 6.43152755,8.83266935 6.4315,9.014 C6.43145741,9.2942544 6.20425439,9.52142289 5.924,9.52142289 C5.6437456,9.52142289 5.41654259,9.2942544 5.41649999,9.014 L5.41649999,9.014 Z" id="形状"></path>
            </g>
        </g>
    </g>
</svg>