<?xml version="1.0" encoding="UTF-8"?>
<svg width="14px" height="14px" viewBox="0 0 14 14" version="1.1" xmlns="http://www.w3.org/2000/svg" xmlns:xlink="http://www.w3.org/1999/xlink">
    <!-- Generator: Sketch 55.2 (78181) - https://sketchapp.com -->
    <title>icon_match_arrow_down</title>
    <desc>Created with Sketch.</desc>
    <g id="icon_match_arrow_down" stroke="none" stroke-width="1" fill="none" fill-rule="evenodd">
        <path d="M6.93716015,9.3910096 L0.5,6.55501009 C0.5,7.23666482 0.5,7.73815316 0.5,8.52005896 C4.79498487,10.5066863 6.94247731,11.5 6.94247731,11.5 C6.94247731,11.5 9.08996974,10.5068006 13.3849546,8.52040188 C13.3849546,7.39426606 13.3849546,7.56858831 13.3849546,6.5 C13.052887,6.65904358 10.9036222,7.62271344 6.93716015,9.3910096 Z M6.93716015,5.3910096 L0.5,2.55501009 C0.5,3.23666482 0.5,3.73815316 0.5,4.52005896 C4.79498487,6.50668632 6.94247731,7.5 6.94247731,7.5 C6.94247731,7.5 9.08996974,6.50680063 13.3849546,4.52040188 C13.3849546,3.39426606 13.3849546,3.56858831 13.3849546,2.5 C13.052887,2.65904358 10.9036222,3.62271344 6.93716015,5.3910096 Z" id="路径-10" fill="#000000"></path>
    </g>
</svg>