<?xml version="1.0" encoding="UTF-8"?>
<svg width="32px" height="32px" viewBox="0 0 32 32" version="1.1" xmlns="http://www.w3.org/2000/svg" xmlns:xlink="http://www.w3.org/1999/xlink">
    <!-- Generator: Sketch 55.2 (78181) - https://sketchapp.com -->
    <title>icon_personal_star_normal</title>
    <desc>Created with Sketch.</desc>
    <g id="icon_personal_star_normal" stroke="none" stroke-width="1" fill="none" fill-rule="evenodd">
        <g id="ico-/个人中心/收藏">
            <circle id="椭圆形" fill="#5078FF" fill-rule="evenodd" cx="18.4" cy="16.8" r="5.6"></circle>
            <path d="M9.74092894,29.3290154 C8.54939228,29.9458173 7.07564081,29.4947457 6.44921292,28.3215187 C6.19976604,27.8543336 6.11368811,27.3192102 6.204305,26.7989919 L7.39965097,19.9366848 L2.33608415,15.076772 C1.37211074,14.1515691 1.35238611,12.6320972 2.29202795,11.6829367 C2.66619826,11.3049759 3.15647383,11.0590067 3.6869543,10.9831079 L10.6846315,9.98191077 L13.8140879,3.73837757 C14.4098563,2.54976879 15.8714172,2.06175519 17.0785757,2.64836869 C17.5592726,2.88196127 17.9483575,3.26506732 18.1855955,3.73837757 L21.3150519,9.98191077 L28.3127292,10.9831079 C29.6449077,11.1737102 30.5679267,12.391573 30.3743498,13.7032807 C30.2972665,14.2256095 30.0474586,14.7083513 29.6635993,15.076772 L24.6000325,19.9366848 L25.7953785,26.7989919 C26.0229417,28.1053993 25.1318379,29.3460936 23.8050423,29.57016 C23.2767053,29.6593844 22.7332307,29.5746292 22.2587545,29.3290154 L15.9998417,26.0890735 L9.74092894,29.3290154 Z M16.3779244,24.4771478 L23.0149199,27.9128051 C23.1730786,27.9946764 23.3542368,28.0229281 23.5303492,27.9931867 C23.9726143,27.9184978 24.269649,27.5049331 24.1937945,27.0694639 L22.9262412,19.7926249 C22.8810362,19.5331097 22.9684177,19.2683095 23.1599091,19.0845198 L28.5293513,13.9310338 C28.6573044,13.8082269 28.7405737,13.647313 28.7662681,13.4732034 C28.8307937,13.0359675 28.5231207,12.6300132 28.0790612,12.5664791 L20.6586747,11.5048026 C20.3940401,11.4669398 20.1652723,11.3032843 20.0469241,11.0671696 L16.7284263,4.44648271 C16.649347,4.28871262 16.519652,4.16101061 16.3594197,4.08314641 C15.9570336,3.88760858 15.4698466,4.05027978 15.2712571,4.44648271 L11.9527594,11.0671696 C11.8344112,11.3032843 11.6056434,11.4669398 11.3410088,11.5048026 L3.92062224,12.5664791 C3.74379542,12.5917787 3.58037023,12.6737684 3.4556468,12.7997554 C3.14243285,13.1161422 3.14900773,13.6226328 3.4703322,13.9310338 L8.83977433,19.0845198 C9.03126574,19.2683095 9.11864727,19.5331097 9.07344228,19.7926249 L7.80588893,27.0694639 C7.7756833,27.2428701 7.80437595,27.4212445 7.88752491,27.5769729 C8.0963342,27.9680486 8.58758469,28.1184058 8.98476358,27.9128051 L15.6217591,24.4771478 C15.8584555,24.3546213 16.141228,24.3546213 16.3779244,24.4771478 Z" id="星形" fill="#353535" fill-rule="nonzero"></path>
            <path d="M7.62081681,16.3794424 L10.1739599,19.0005263 C10.3383939,19.173339 10.4171316,19.4105157 10.3886944,19.6473576 L9.68976924,23.4437734 C9.6370979,23.8824504 9.95001734,24.280767 10.3886944,24.3334383 C10.8273714,24.3861097 11.2256879,24.0731902 11.2783593,23.6345132 L11.9772844,19.8380974 C12.0625962,19.1275717 11.8263831,18.4160416 11.3330809,17.8976037 L8.77993786,15.2765197 C8.47537418,14.9564373 7.96899845,14.9438568 7.64891601,15.2484205 C7.32883357,15.5529842 7.31625313,16.0593599 7.62081681,16.3794424 Z" id="路径-65" fill="#353535" fill-rule="nonzero"></path>
        </g>
    </g>
</svg>