<?xml version="1.0" encoding="UTF-8"?>
<svg width="32px" height="32px" viewBox="0 0 32 32" version="1.1" xmlns="http://www.w3.org/2000/svg" xmlns:xlink="http://www.w3.org/1999/xlink">
    <!-- Generator: Sketch 55.2 (78181) - https://sketchapp.com -->
    <title>icon_vlog_heart_selected</title>
    <desc>Created with Sketch.</desc>
    <g id="icon_vlog_heart_selected" stroke="none" stroke-width="1" fill="none" fill-rule="evenodd">
        <g id="ico/喜欢">
            <g id="编组" transform="translate(0.000000, 1.600000)">
                <path d="M14.8439359,3.78986617 L17.1560826,3.7898904 C16.8041396,3.32895135 16.4166679,2.90444524 15.9992746,2.5195405 C15.5828757,2.9043579 15.1959633,3.32883654 14.8439359,3.78986617 Z M9.63088719,0 C4.29112081,0 0,4.54964157 0,10.1206583 C0,12.8335408 0.777030003,14.6151068 2.62021399,17.3780358 C4.05429408,19.5566983 6.45404282,22.0475432 9.45890558,24.6826995 C11.300553,26.297758 13.3342773,27.915234 14.1039562,28.4662223 C14.644088,28.8707962 15.312161,29.0909091 16,29.0909091 C16.6977353,29.0909091 17.3889901,28.8654734 17.9467572,28.4282205 C19.027015,27.6202589 20.7126031,26.2762715 22.5356856,24.6773648 C25.5462037,22.0370359 27.9454066,19.550572 29.383647,17.3722683 C31.2449114,14.5573541 32,12.8289874 32,10.1206583 C32,4.55180494 27.6962583,0 22.3545284,0 C19.9843584,0 17.7354953,0.915002191 15.9992746,2.5195405 C14.2605866,0.916186672 12.0026948,0 9.63088719,0 Z M22.3545284,1.45454545 C26.872692,1.45454545 30.5454545,5.33593216 30.5454545,10.1206583 C30.5454545,12.9717207 29.2337157,14.9618149 28.1698132,16.5708259 C25.094549,21.2285028 17.3699937,27.0435532 17.0493679,27.2834957 C16.7432932,27.5234382 16.3643959,27.6363636 16,27.6363636 C15.6356706,27.6363636 15.2712912,27.5234382 14.9506322,27.2834957 C14.6154551,27.0435532 6.90545104,21.2426265 3.83022003,16.5708259 C2.76625112,14.9759387 1.45454545,12.9717207 1.45454545,10.1206583 C1.45454545,5.33596433 5.11275674,1.45454545 9.63088719,1.45454545 C12.1377556,1.45454545 14.46971,2.66838165 16,4.6725996 C17.5303565,2.66838165 19.8476932,1.45454545 22.3545284,1.45454545 Z" id="形状" fill="#FFFFFF" fill-rule="nonzero"></path>
                <path d="M22.3545284,1.45454545 C19.8476932,1.45454545 17.5303565,2.66838165 16.0000166,4.6725996 C14.46971,2.66838165 12.1377556,1.45454545 9.63088719,1.45454545 C5.11275674,1.45454545 1.45454545,5.33596433 1.45454545,10.1206583 C1.45454545,12.9717207 2.76625112,14.9759387 3.83022003,16.5708259 C6.90545104,21.2426265 14.6154551,27.0435532 14.9506322,27.2834957 C15.2712912,27.5234382 15.6356706,27.6363636 16.0000166,27.6363636 C16.3643959,27.6363636 16.7432932,27.5234382 17.0493679,27.2834957 C17.3699937,27.0435532 25.094549,21.2285028 28.1698132,16.5708259 C29.2337157,14.9618149 30.5454545,12.9717207 30.5454545,10.1206583 C30.5454545,5.33593216 26.872692,1.45454545 22.3545284,1.45454545 Z" id="形状备份" fill="#F24343"></path>
            </g>
        </g>
    </g>
</svg>