<?xml version="1.0" encoding="UTF-8"?>
<svg width="32px" height="32px" viewBox="0 0 32 32" version="1.1" xmlns="http://www.w3.org/2000/svg" xmlns:xlink="http://www.w3.org/1999/xlink">
    <!-- Generator: Sketch 55.2 (78181) - https://sketchapp.com -->
    <title>icon_vlog_star_normal</title>
    <desc>Created with Sketch.</desc>
    <g id="icon_vlog_star_normal" stroke="none" stroke-width="1" fill="none" fill-rule="evenodd">
        <g id="ico/收藏" transform="translate(0.000000, 1.000000)">
            <rect id="矩形" fill="#D8D8D8" fill-rule="evenodd" opacity="0" x="0" y="0" width="32" height="32"></rect>
            <path d="M31.9204512,11.4992685 C31.7284479,10.9274817 31.216439,10.4827586 30.6084284,10.4033438 L21.5202699,9.08505747 L17.456199,0.905329154 C17.1841942,0.365308255 16.6241845,0 16.0001736,0 C15.392163,0 14.8161529,0.349425287 14.5441482,0.889446186 L10.4800773,9.10094044 L1.39191883,10.4033438 C0.767907944,10.4986416 0.271899293,10.9115987 0.0798959449,11.4992685 C-0.112107404,12.0869383 0.0478953868,12.7063741 0.4959032,13.1510972 L7.07201789,19.5201672 L5.51999082,28.5099269 C5.40798887,29.1134796 5.66399333,29.7170324 6.16000198,30.0982236 C6.448007,30.3047022 6.78401286,30.4 7.10401844,30.4 C7.36002291,30.4 7.61602737,30.3364681 7.85603156,30.2094044 L15.9841733,25.968652 L24.0963148,30.2094044 C24.624324,30.4952978 25.312336,30.4635319 25.8243449,30.0823406 C26.3203536,29.7170324 26.5603578,29.1134796 26.4643561,28.5099269 L24.912329,19.5201672 L31.4884437,13.1510972 C31.9524518,12.7222571 32.1124546,12.0869383 31.9204512,11.4992685 Z" id="路径" fill="#FFFFFF" fill-rule="nonzero"></path>
        </g>
    </g>
</svg>