<?xml version="1.0" encoding="UTF-8"?>
<svg width="10px" height="10px" viewBox="0 0 10 10" version="1.1" xmlns="http://www.w3.org/2000/svg" xmlns:xlink="http://www.w3.org/1999/xlink">
    <!-- Generator: Sketch 55.2 (78181) - https://sketchapp.com -->
    <title>ico/bet_good_slice</title>
    <desc>Created with Sketch.</desc>
    <defs>
        <linearGradient x1="50%" y1="0%" x2="50%" y2="100%" id="linearGradient-1">
            <stop stop-color="#C8DADB" offset="0%"></stop>
            <stop stop-color="#FCFDFC" offset="100%"></stop>
        </linearGradient>
    </defs>
    <g id="I切图" stroke="none" stroke-width="1" fill="none" fill-rule="evenodd">
        <g id="画板" transform="translate(-22.000000, -1201.000000)">
            <g id="ico/支持" transform="translate(22.000000, 1201.000000)">
                <path d="M9.18578166,4.13554487 C9.36221609,4.38514768 9.41972165,4.7110528 9.3394318,5.00738115 L8.36113955,8.64753951 C8.25190716,9.07475937 7.88823993,9.375 7.47807365,9.375 L3.125,9.375 L3.125,3.93664507 C4.05627898,3.76245778 4.72111272,2.92224569 4.72111272,1.84660623 L4.72111272,1.59662524 C4.72111272,1.07899283 5.1611765,0.625 5.66299418,0.625 L5.68672118,0.625 C6.07129952,0.625 6.42508661,0.896824509 6.54683139,1.28543026 L6.6061734,1.46123462 C6.7863542,2.03610354 6.80932214,2.64186635 6.67395086,3.21758293 L6.64409009,3.35182595 C6.63492005,3.43891307 6.59533831,3.59280872 6.52925039,3.74734338 L8.46494827,3.74734338 C8.74817872,3.74734338 9.0114163,3.88877193 9.18578166,4.13554487 Z M0.625,4.83184248 C0.625,4.25565336 1.09517661,3.75021716 1.63147539,3.75 L2.5,3.75 L2.5,9.375 L1.63103125,9.375 L1.63147539,9.37456568 C1.07629418,9.37456568 0.625,8.91925236 0.625,8.35982515 L0.625,4.83184248 Z" id="形状结合" fill="url(#linearGradient-1)"></path>
                <rect id="矩形" fill="#D8D8D8" opacity="0" x="0" y="0" width="10" height="10"></rect>
            </g>
        </g>
    </g>
</svg>