<?xml version="1.0" encoding="UTF-8"?>
<svg width="14px" height="14px" viewBox="0 0 14 14" version="1.1" xmlns="http://www.w3.org/2000/svg" xmlns:xlink="http://www.w3.org/1999/xlink">
    <!-- Generator: Sketch 55.2 (78181) - https://sketchapp.com -->
    <title>角球</title>
    <desc>Created with Sketch.</desc>
    <g id="角球" stroke="none" stroke-width="1" fill="none" fill-rule="evenodd">
        <g id="ico/角球">
            <rect id="矩形" fill="#D8D8D8" opacity="0" x="0" y="0" width="14" height="14"></rect>
            <g id="角球" stroke-width="1" transform="translate(1.555556, 0.777778)">
                <path d="M5.89803486,11.6646121 L10.4700855,11.6622527 C10.7013842,11.6622527 10.8888889,11.8362407 10.8888889,12.0508657 C10.8888889,12.2654907 10.7013842,12.4394787 10.4700855,12.4394787 L0.847338682,12.4444444 C0.815642299,12.4444444 0.784081985,12.4427757 0.752801181,12.4394787 L0,12.4394787 L0,5.44444444 L0.837606838,5.44444444 L0.837606838,10.2806796 L3.72601415,6.26493437 C3.85441596,6.08641766 4.11446526,6.03828792 4.3068505,6.1574336 C4.49923574,6.27657927 4.55110456,6.51788231 4.42270274,6.69639903 L2.97582209,8.70799349 C4.31173273,9.30968022 5.36440452,10.3681545 5.89803486,11.6646121 Z M4.99014845,11.6650806 C4.48780578,10.6476714 3.60258917,9.82696728 2.50560291,9.36173797 L0.847338682,11.6672184 L4.99014845,11.6650806 Z" id="形状结合" fill="#FFFFFF" fill-rule="nonzero"></path>
                <polygon id="路径" fill="#FF4000" points="0 0 0 6.22222222 7.77777778 3.24358635"></polygon>
            </g>
        </g>
    </g>
</svg>