<?xml version="1.0" encoding="UTF-8"?>
<svg width="18px" height="18px" viewBox="0 0 18 18" version="1.1" xmlns="http://www.w3.org/2000/svg" xmlns:xlink="http://www.w3.org/1999/xlink">
    <!-- Generator: Sketch 55.2 (78181) - https://sketchapp.com -->
    <title>ico/数据分析_slice</title>
    <desc>Created with Sketch.</desc>
    <g id="切图" stroke="none" stroke-width="1" fill="none" fill-rule="evenodd" opacity="0.600000024">
        <g id="画板" transform="translate(-206.000000, -2809.000000)">
            <g id="ico/数据分析" transform="translate(206.000000, 2809.000000)">
                <path d="M10.8,13.9306836 C10.8,14.1939587 10.5277311,14.4 10.1798319,14.4 L7.82016806,14.4 C7.47226891,14.4 7.2,14.1939587 7.2,13.9306836 L7.2,7.66931637 C7.2,7.40604134 7.47226891,7.2 7.82016806,7.2 L10.1798319,7.2 C10.5277311,7.2 10.8,7.40604134 10.8,7.66931637 L10.8,13.9306836 Z M5.4,13.9218143 C5.4,14.1900648 5.12773109,14.4 4.77983192,14.4 L2.42016806,14.4 C2.07226891,14.4 1.8,14.1900648 1.8,13.9218143 L1.8,9.47818574 C1.8,9.20993521 2.07226891,9 2.42016806,9 L4.77983192,9 C5.12773107,9 5.4,9.20993521 5.4,9.47818574 L5.4,13.9218143 Z M16.2,13.8869061 C16.2,14.1747393 15.9277311,14.4 15.5798319,14.4 L13.2201681,14.4 C12.8722689,14.4 12.6,14.1747393 12.6,13.8869061 L12.6,4.11309387 C12.6,3.82526074 12.8722689,3.6 13.2201681,3.6 L15.5798319,3.6 C15.9277311,3.6 16.2,3.82526072 16.2,4.11309387 L16.2,13.8869061 Z" id="形状结合" fill="#19263B"></path>
                <rect id="矩形" fill="#D8D8D8" opacity="0" x="0" y="0" width="18" height="18"></rect>
            </g>
        </g>
    </g>
</svg>