<?xml version="1.0" encoding="UTF-8"?>
<svg width="18px" height="18px" viewBox="0 0 18 18" version="1.1" xmlns="http://www.w3.org/2000/svg" xmlns:xlink="http://www.w3.org/1999/xlink">
    <!-- Generator: Sketch 55.2 (78181) - https://sketchapp.com -->
    <title>icon_data_goal_normal</title>
    <desc>Created with Sketch.</desc>
    <g id="icon_data_goal_normal" stroke="none" stroke-width="1" fill="none" fill-rule="evenodd">
        <g id="ico/足球" fill="#11D664">
            <g id="进球" transform="translate(1.000000, 1.000000)">
                <path d="M14.7,3.62264151 C15.5,4.83018868 16,6.44025157 16,8.05031447 C16,8.85534591 15.9,9.55974843 15.6,10.163522 C15.3,11.1698113 14.9,12.1761006 14.2,12.9811321 C12.8,14.6918239 10.7,15.8993711 8.3,16 C8.2,16 8.1,16 8,16 C7.8,16 7.5,16 7.3,16 C6.5,15.8993711 5.8,15.7987421 5.2,15.4968553 C4.1,15.0943396 3.1,14.490566 2.3,13.6855346 C1.5,12.8805031 0.9,11.8742138 0.5,10.7672956 C0.3,10.3647799 0.2,9.96226415 0.1,9.4591195 C0,9.05660377 0,8.55345912 0,8.05031447 C0,7.94968553 0,7.8490566 0,7.74842767 C0.1,5.33333333 1.3,3.11949686 3,1.71069182 C3.8,1.10691824 4.8,0.603773585 5.8,0.301886792 C6.5,0.100628931 7.2,0 8,0 C9.7,0 11.2,0.503144654 12.5,1.40880503 C12.7,1.61006289 12.9,1.71069182 13.1,1.91194969 C13.3,2.01257862 13.5,2.21383648 13.7,2.41509434 C14.1,2.81761006 14.4,3.11949686 14.7,3.62264151 Z M14.5,10.5660377 C14.6,10.4654088 14.6,10.4654088 14.5,10.5660377 L12.6,7.94968553 L12.2,7.44654088 L12.4,6.8427673 L13.6,3.72327044 C13.6,3.62264151 13.6,3.62264151 13.6,3.62264151 C13.5,3.42138365 13.3,3.22012579 13.1,3.01886792 C12.9,2.81761006 12.7,2.71698113 12.5,2.51572327 C12.4,2.51572327 12.4,2.51572327 12.4,2.51572327 L9.3,3.72327044 L8.8,3.9245283 L8.3,3.52201258 L5.7,1.40880503 C5.7,1.40880503 5.6,1.40880503 5.6,1.40880503 C5.3,1.50943396 5.1,1.61006289 4.9,1.71069182 C4.9,1.81132075 4.8,1.81132075 4.8,1.81132075 C4.6,1.91194969 4.3,2.01257862 4.2,2.21383648 C4.1,2.21383648 4.1,2.21383648 4.1,2.21383648 L4.3,5.53459119 L4.3,6.13836478 L3.8,6.44025157 L1,8.25157233 C1,8.55345912 1.1,8.95597484 1.2,9.25786164 C1.2,9.35849057 1.2,9.35849057 1.2,9.4591195 C1.2,9.66037736 1.3,9.86163522 1.3,10.0628931 L4.4,10.7672956 L5,10.9685535 L5.2,11.572327 L6,14.7924528 C6.2,14.8930818 6.4,14.9937107 6.6,14.9937107 C6.7,14.9937107 6.7,14.9937107 6.8,14.9937107 C7.1,15.0943396 7.5,15.0943396 7.8,15.0943396 L9.6,12.3773585 L9.9,11.8742138 L10.5,11.8742138 L13.8,12.0754717 C13.8,12.0754717 13.8,11.9748428 13.8,11.9748428 C13.9,11.7735849 14.1,11.4716981 14.2,11.2704403 C14.3,11.0691824 14.4,10.7672956 14.5,10.5660377 Z M10.9634455,7.88957297 L9.47258412,10.7172339 C9.37940528,10.9057446 9.19304761,11 9.09986878,11 C9.09986878,11 9.09986878,11 9.00668994,11 L5.93178836,10.5287232 C5.74543069,10.5287232 5.55907301,10.3402124 5.55907301,10.1517017 L5,7.04127469 C5,6.85276396 5.09317884,6.66425323 5.27953651,6.56999787 L8.07490158,5.06191204 C8.26125925,4.96765667 8.44761692,4.96765667 8.6339746,5.1561674 L10.7770878,7.32404078 C10.9634455,7.41829615 11.0566243,7.70106224 10.9634455,7.88957297 Z" id="形状结合" fill-rule="nonzero"></path>
            </g>
        </g>
    </g>
</svg>