<?xml version="1.0" encoding="UTF-8"?>
<svg width="10px" height="10px" viewBox="0 0 10 10" version="1.1" xmlns="http://www.w3.org/2000/svg" xmlns:xlink="http://www.w3.org/1999/xlink">
    <!-- Generator: Sketch 55.2 (78181) - https://sketchapp.com -->
    <title>形状</title>
    <desc>Created with Sketch.</desc>
    <g id="v1.6" stroke="none" stroke-width="1" fill="none" fill-rule="evenodd">
        <g id="联赛-优胜者备份" transform="translate(-230.000000, -332.000000)" fill="#CCCCCC" fill-rule="nonzero">
            <path d="M237.662298,335.5625 L237.662298,334.5 C237.662298,333.15625 236.392137,332 234.875,332 C233.357863,332 232.087702,333.15625 232.087702,334.5 L232.087702,335.5625 C231.205645,335.5625 230.5,336.21875 230.5,337 L230.5,340.5625 C230.5,341.34375 231.205645,342 232.087702,342 L237.662298,342 C238.544355,342 239.25,341.34375 239.25,340.5625 L239.25,337 C239.25,336.21875 238.544355,335.5625 237.662298,335.5625 Z M235.263105,338.4375 L235.263105,340.21875 C235.263105,340.4375 235.086694,340.5625 234.875,340.5625 C234.628024,340.5625 234.486895,340.40625 234.486895,340.21875 L234.486895,338.4375 C233.992944,338.4375 233.675403,338.15625 233.675403,337.71875 C233.675403,337.28125 233.992944,337 234.486895,337 L235.298387,337 C235.792339,337 236.109879,337.28125 236.109879,337.71875 C236.074597,338.15625 235.757056,338.4375 235.263105,338.4375 L235.263105,338.4375 Z M233.357863,335.5625 C233.357863,335.40625 233.287298,335.34375 233.287298,335.21875 L233.287298,334.5 C233.287298,333.71875 233.992944,333.0625 234.875,333.0625 C235.757056,333.0625 236.462702,333.71875 236.462702,334.5 L236.462702,335.21875 C236.462702,335.375 236.462702,335.4375 236.392137,335.5625 L233.357863,335.5625 Z" id="形状"></path>
        </g>
    </g>
</svg>