<?xml version="1.0" encoding="UTF-8"?>
<svg width="18px" height="18px" viewBox="0 0 18 18" version="1.1" xmlns="http://www.w3.org/2000/svg" xmlns:xlink="http://www.w3.org/1999/xlink">
    <!-- Generator: Sketch 55.2 (78181) - https://sketchapp.com -->
    <title>icon_data_assists_normal</title>
    <desc>Created with Sketch.</desc>
    <defs>
        <linearGradient x1="50%" y1="0%" x2="50%" y2="100%" id="linearGradient-1">
            <stop stop-color="#6185BF" offset="0%"></stop>
            <stop stop-color="#83BBE5" offset="100%"></stop>
        </linearGradient>
        <linearGradient x1="50%" y1="0%" x2="50%" y2="100%" id="linearGradient-2">
            <stop stop-color="#6185BF" offset="0%"></stop>
            <stop stop-color="#83BBE5" offset="100%"></stop>
        </linearGradient>
    </defs>
    <g id="icon_data_assists_normal" stroke="none" stroke-width="1" fill="none" fill-rule="evenodd">
        <g id="ico/角球备份">
            <rect id="矩形" fill="#D8D8D8" opacity="0" x="0" y="0" width="18" height="18"></rect>
            <g id="足球鞋" stroke-width="1" transform="translate(0.000000, -0.000000)" fill="url(#linearGradient-2)">
                <path d="M17.1044776,3.0358209 C16.4776119,2.06865672 15.5014925,1.11044776 14.2119403,0.179104478 C14.1492537,0.134328358 14.0865672,0.0985074627 14.0059701,0.0805970149 C13.8358209,0.0179104478 13.638806,0.0358208955 13.4865672,0.125373134 C13.4597015,0.143283582 13.4328358,0.16119403 13.4149254,0.170149254 C12.958209,0.528358209 12.6089552,0.994029851 12.4029851,1.54029851 C12.3402985,1.71044776 12.2865672,1.88059701 12.2507463,2.05970149 C11.9462687,2.41791045 11.6059701,2.71343284 11.238806,2.91940299 C10.6567164,3.25074627 10.0029851,3.39402985 9.28656716,3.34029851 C8.84776119,3.30447761 8.46268657,3.20597015 8.16716418,3.10746269 L8.61492537,2.4358209 C8.63283582,2.40895522 8.65074627,2.38208955 8.65970149,2.35522388 C8.73134328,2.2119403 8.74925373,2.04179104 8.69552239,1.88955224 C8.64179104,1.73731343 8.53432836,1.6119403 8.39104478,1.53134328 C7.94328358,1.30746269 7.27164179,1.08358209 6.6,1.30746269 C6.48358209,1.34328358 6.3761194,1.39701493 6.27761194,1.45074627 C5.7761194,1.73731343 5.40895522,2.25671642 5.19402985,2.95522388 C4.97910448,3.66268657 4.96119403,4.53134328 5.14029851,5.40895522 L1.84477612,10.3432836 C1.78208955,10.3970149 1.73731343,10.4507463 1.70149254,10.5223881 C1.68358209,10.5492537 1.67462687,10.5850746 1.66567164,10.6208955 L0.197014925,12.8328358 L0.170149254,12.958209 C0.0985074627,13.3432836 0.071641791,13.7373134 0.0895522388,14.1223881 C0.125373134,15.0537313 0.420895522,15.7343284 0.958208955,16.1373134 C1.62985075,16.6477612 2.5880597,16.6477612 3.80597015,16.1462687 L4.2,16.8358209 C4.37014925,17.1313433 4.74626866,17.2298507 5.03283582,17.0597015 C5.32835821,16.8895522 5.42686567,16.5134328 5.25671642,16.2268657 L4.88955224,15.5910448 L5.82985075,15.0537313 L6.19701493,15.6895522 C6.36716418,15.9850746 6.74328358,16.0835821 7.02985075,15.9134328 C7.32537313,15.7432836 7.4238806,15.3671642 7.25373134,15.080597 L6.88656716,14.4447761 L7.7641791,13.9343284 L8.13134328,14.5701493 C8.30149254,14.8656716 8.67761194,14.9641791 8.9641791,14.7940299 C9.25970149,14.6238806 9.35820896,14.2477612 9.1880597,13.961194 L8.82089552,13.3253731 L9.69850746,12.8149254 L10.0656716,13.4507463 C10.2358209,13.7462687 10.6119403,13.8447761 10.8985075,13.6746269 C11.1940299,13.5044776 11.2925373,13.1283582 11.1223881,12.841791 L10.7552239,12.2059701 L13.6298507,10.5492537 L13.9970149,11.1850746 C14.1671642,11.480597 14.5432836,11.5791045 14.8298507,11.4089552 C15.1253731,11.238806 15.2238806,10.8626866 15.0537313,10.5761194 L14.6865672,9.94029851 L15.2149254,9.6358209 L15.5820896,10.2716418 C15.7522388,10.5671642 16.1283582,10.6656716 16.4149254,10.4955224 C16.7104478,10.3253731 16.8089552,9.94925373 16.638806,9.66268657 L16.2716418,9.02686567 L16.6298507,8.82089552 L16.6746269,8.78507463 C16.7283582,8.73134328 18.0626866,7.54925373 17.9731343,5.5880597 C17.9552239,4.72835821 17.6597015,3.87761194 17.1044776,3.0358209 Z M5.35522388,7.32537313 L11.2656716,10.5044776 L9.90447761,11.2925373 L4.63880597,8.4 L5.35522388,7.32537313 Z M12.6447761,4.05671642 C12.8865672,4.2358209 13.3164179,4.37014925 13.9880597,3.9761194 L14.0238806,3.94925373 C14.4358209,3.70746269 14.7761194,3.3761194 14.8746269,3.27761194 C15.0358209,3.11641791 15.1880597,2.93731343 15.3223881,2.74029851 C15.6179104,3.06268657 15.8776119,3.3761194 16.0746269,3.68955224 C16.5044776,4.34328358 16.7373134,4.9880597 16.7641791,5.60597015 C16.7910448,6.17910448 16.6567164,6.72537313 16.3522388,7.2358209 C16.2268657,7.44179104 16.0835821,7.62985075 15.9134328,7.8 L12.5014925,9.77014925 L6.04477612,6.29552239 L7.47761194,4.15522388 C7.85373134,4.30746269 8.46268657,4.50447761 9.17910448,4.56716418 C10.1373134,4.64776119 11.0686567,4.44179104 11.8746269,3.9761194 C12.0358209,3.88656716 12.1970149,3.77910448 12.3492537,3.66268657 C12.4029851,3.8238806 12.5104478,3.95820896 12.6447761,4.05671642 Z M13.4238806,2.51641791 C13.4507463,2.44477612 13.4597015,2.3641791 13.4597015,2.28358209 C13.4865672,2.1761194 13.5134328,2.06865672 13.5492537,1.97014925 C13.6208955,1.77313433 13.7283582,1.60298507 13.8537313,1.44179104 C14.0507463,1.59402985 14.238806,1.74626866 14.4179104,1.89850746 C14.3014925,2.08656716 14.158209,2.26567164 14.0059701,2.42686567 C13.8179104,2.61492537 13.6119403,2.78507463 13.4149254,2.90149254 C13.4149254,2.76716418 13.4149254,2.64179104 13.4238806,2.51641791 Z M6.28656716,3.72537313 C6.3761194,3.09850746 6.6358209,2.67761194 6.89552239,2.52537313 C6.93134328,2.50746269 6.95820896,2.48955224 6.99402985,2.48059701 C7.02089552,2.47164179 7.07462687,2.46268657 7.12835821,2.45373134 L6.28656716,3.72537313 Z M3.94925373,9.42089552 L8.65970149,12 L7.29850746,12.7880597 L3.16119403,10.6029851 L3.94925373,9.42089552 Z M6.04477612,13.5134328 L3.77910448,14.8208955 C2.79402985,15.3134328 2.05074627,15.438806 1.70149254,15.1701493 C1.28955224,14.8567164 1.26268657,13.8985075 1.35223881,13.2985075 L2.47164179,11.6238806 L6.04477612,13.5134328 Z" id="形状"></path>
            </g>
        </g>
    </g>
</svg>