<?xml version="1.0" encoding="UTF-8"?>
<svg width="18px" height="18px" viewBox="0 0 18 18" version="1.1" xmlns="http://www.w3.org/2000/svg" xmlns:xlink="http://www.w3.org/1999/xlink">
    <!-- Generator: Sketch 55.2 (78181) - https://sketchapp.com -->
    <title>icon_data_start_normal</title>
    <desc>Created with Sketch.</desc>
    <g id="icon_data_start_normal" stroke="none" stroke-width="1" fill="none" fill-rule="evenodd">
        <g id="ico/半场" transform="translate(1.000000, 0.000000)">
            <rect id="矩形" fill-opacity="0" fill="#D8D8D8" x="0" y="0" width="17" height="17"></rect>
            <path d="M15.1018923,5.50406169 C15.1375152,5.65555286 15.0670824,5.80269391 14.9392242,5.88137774 L11.2121213,9.31950238 C11.4132208,10.0903902 11.4448528,10.904703 11.2957096,11.7127577 C11.0365935,13.1166268 10.2612408,14.3293193 9.11716878,15.1317265 C8.2492852,15.7389886 7.24519202,16.0555556 6.22025721,16.055403 C5.89314721,16.055403 5.56411564,16.0241126 5.23508407,15.9577922 C4.45463184,15.8029431 3.734709,15.4723336 3.11552066,14.9954989 C3.01707725,15.5153006 2.5737863,15.9094066 2.04032946,15.9094066 C1.43658757,15.9094066 0.944444444,15.4012816 0.944444444,14.7777637 C0.944444444,14.2061421 1.35832063,13.7326654 1.89229481,13.6575686 C1.13985313,12.4863166 0.866768753,11.0836686 1.12218948,9.69948957 C1.38130554,8.29554415 2.15658432,7.08277526 3.30065635,6.28219973 C3.4271103,6.19344193 3.55689005,6.11208697 3.68873918,6.03592163 L3.68541339,6.02470289 L13.4722548,1.03617865 C13.5152684,0.999851292 13.5670768,0.972605776 13.6261281,0.957723772 L13.6521432,0.944444444 L13.6547299,0.951084108 C13.8588595,0.916206795 14.0564854,1.04098668 14.1020857,1.23239215 L15.1018923,5.50406169 Z M2.04032946,15.3252689 C2.33211217,15.3252689 2.57053441,15.0788381 2.57053441,14.7776111 C2.57053441,14.4763841 2.33462499,14.2302586 2.04032946,14.2302586 C1.74869456,14.2302586 1.51019841,14.4763841 1.51019841,14.7776111 C1.51019841,15.0788381 1.74862065,15.3252689 2.04032946,15.3252689 Z M8.55015841,14.2678071 C10.4532498,12.9337689 10.9507142,10.2511159 9.65875533,8.28608072 C8.85553991,7.06026146 7.54103958,6.40026363 6.20377607,6.40026363 C5.7191714,6.40026363 5.23249735,6.48856353 4.76570414,6.66646072 L3.99279036,7.05720874 C3.95081149,7.08445425 3.90905434,7.11231031 3.86766672,7.14131114 C1.96472315,8.47542561 1.46711094,11.1580023 2.7590698,13.1231901 C3.38417065,14.0748752 4.33209493,14.718541 5.42502368,14.9349788 C6.51972619,15.1512639 7.63017078,14.9151361 8.55015841,14.2678071 Z M10.8793945,8.39376538 L14.1020857,5.50406169 L13.2832782,2.15270551 L10.8793945,3.48331564 L11.3352495,4.57855364 C11.424972,4.77041702 11.3481831,5.00204207 11.1644517,5.0947684 C11.1110173,5.12125074 11.0554396,5.13445375 11.0000098,5.13445375 C10.8609917,5.13445375 10.7286253,5.05508306 10.6646962,4.91832125 L10.1479953,3.83805862 C8.10917626,4.90334358 7.12078281,5.44209149 7.18281496,5.45430237 C8.54032885,5.72385745 9.71662409,6.52252502 10.4938244,7.70392723 C10.6399375,7.9258599 10.7685348,8.15649281 10.8793945,8.39376538 Z M6.13481656,7.55555556 C7.1952299,7.55555556 8.23753082,8.06225869 8.87450941,9.00301798 C9.89892623,10.5114886 9.50448656,12.570707 7.99537242,13.5945349 C7.2659292,14.0915011 6.38527015,14.2727762 5.51724413,14.106639 C4.65058796,13.9405779 3.89884669,13.4465785 3.40319059,12.716001 C2.37884988,11.2075303 2.77336565,9.14838799 4.28240369,8.12433191 C4.84997672,7.7395692 5.49509828,7.55555556 6.13481656,7.55555556 Z M7.47901642,12.8341379 C8.56827263,12.0951166 8.85304848,10.6086302 8.11363582,9.51991451 C7.65374794,8.84076039 6.90139784,8.47509128 6.1359581,8.47509128 C5.67416765,8.47509128 5.20849597,8.6079858 4.79883579,8.88564177 C3.70957957,9.62473914 3.42480372,11.1111495 4.16421638,12.2000173 C4.5219746,12.7274115 5.06458599,13.0840283 5.6902253,13.2037627 C6.31677783,13.3237253 6.95246267,13.1929607 7.47901642,12.8341379 Z" id="形状结合" fill="#19263B" opacity="0.400000006"></path>
        </g>
    </g>
</svg>