<?xml version="1.0" encoding="UTF-8"?>
<svg width="24px" height="24px" viewBox="0 0 24 24" version="1.1" xmlns="http://www.w3.org/2000/svg" xmlns:xlink="http://www.w3.org/1999/xlink">
    <!-- Generator: Sketch 55.2 (78181) - https://sketchapp.com -->
    <title>icon_win_x_black</title>
    <desc>Created with Sketch.</desc>
    <g id="icon_win_x_black" stroke="none" stroke-width="1" fill="none" fill-rule="evenodd">
        <g id="icon/浮窗备份" fill="#222222">
            <path d="M12,24 C5.372583,24 0,18.627417 0,12 C0,5.372583 5.372583,0 12,0 C18.627417,0 24,5.372583 24,12 C24,18.627417 18.627417,24 12,24 Z M12,22.7368421 C17.9297942,22.7368421 22.7368421,17.9297942 22.7368421,12 C22.7368421,6.07020584 17.9297942,1.26315789 12,1.26315789 C6.07020584,1.26315789 1.26315789,6.07020584 1.26315789,12 C1.26315789,17.9297942 6.07020584,22.7368421 12,22.7368421 Z M12.2522594,10.9571813 L15.9938529,7.21558786 C16.3514788,6.85796194 16.931305,6.85796194 17.2889309,7.21558786 C17.6465568,7.57321379 17.6465568,8.15303997 17.2889309,8.51066589 L13.5473374,12.2522594 L17.2889309,15.9938529 C17.6465568,16.3514788 17.6465568,16.931305 17.2889309,17.2889309 C16.931305,17.6465568 16.3514788,17.6465568 15.9938529,17.2889309 L12.2522594,13.5473374 L8.51066589,17.2889309 C8.15303997,17.6465568 7.57321379,17.6465568 7.21558786,17.2889309 C6.85796194,16.931305 6.85796194,16.3514788 7.21558786,15.9938529 L10.9571813,12.2522594 L7.21558786,8.51066589 C6.85796194,8.15303997 6.85796194,7.57321379 7.21558786,7.21558786 C7.57321379,6.85796194 8.15303997,6.85796194 8.51066589,7.21558786 L12.2522594,10.9571813 Z" id="形状结合"></path>
        </g>
    </g>
</svg>