<?xml version="1.0" encoding="UTF-8"?>
<svg width="8px" height="8px" viewBox="0 0 8 8" version="1.1" xmlns="http://www.w3.org/2000/svg" xmlns:xlink="http://www.w3.org/1999/xlink">
    <title>icon_detail_ot_normal</title>
    <g id="icon_detail_ot_normal" stroke="none" stroke-width="1" fill="none" fill-rule="evenodd">
        <path d="M2.04708493,7 C2.68605942,7 3.19487243,6.71698113 3.56760755,6.1509434 C3.92259338,5.60107817 4.10008629,4.88948787 4.10008629,4.00808625 C4.10008629,3.11859838 3.92259338,2.39892183 3.56760755,1.85714286 C3.19487243,1.28301887 2.68605942,1 2.04708493,1 C1.40219401,1 0.893380995,1.28301887 0.526562308,1.86522911 C0.171576482,2.41509434 0,3.12668464 0,4.00808625 C0,4.88140162 0.171576482,5.59299191 0.526562308,6.14285714 C0.893380995,6.70889488 1.40219401,7 2.04708493,7 Z M2.04708493,6.22371968 C1.59743622,6.22371968 1.24836682,6.01347709 0.999876743,5.60916442 C0.763219526,5.21293801 0.644890917,4.67924528 0.644890917,4.00808625 C0.644890917,3.32884097 0.763219526,2.79514825 0.999876743,2.39892183 C1.24836682,1.97843666 1.59743622,1.77628032 2.04708493,1.77628032 C2.49673364,1.77628032 2.84580304,1.9703504 3.08837668,2.37466307 C3.3250339,2.77088949 3.44927894,3.31266846 3.44927894,4.00808625 C3.44927894,4.69541779 3.3250339,5.23719677 3.08837668,5.62533693 C2.84580304,6.02156334 2.49673364,6.22371968 2.04708493,6.22371968 Z M6.59188956,6.88679245 L6.59188956,1.86522911 L8,1.86522911 L8,1.11320755 L4.5388882,1.11320755 L4.5388882,1.86522911 L5.95291507,1.86522911 L5.95291507,6.88679245 L6.59188956,6.88679245 Z" id="OT" fill="#FFFFFF" fill-rule="nonzero"></path>
    </g>
</svg>