<?xml version="1.0" encoding="UTF-8"?>
<svg width="10px" height="10px" viewBox="0 0 10 10" version="1.1" xmlns="http://www.w3.org/2000/svg" xmlns:xlink="http://www.w3.org/1999/xlink">
    <title>icon_events_kink</title>
    <g id="icon_events_kink" stroke="none" stroke-width="1" fill="none" fill-rule="evenodd">
        <g id="编组" fill-rule="nonzero">
            <g id="icon/小比分/半场">
                <path d="M2.5,1.07142857 C2.67532849,1.07142857 2.82114884,1.19776797 2.85138881,1.36437455 L2.85714286,1.42857143 L2.85685714,8.43642857 L5.38612183,5.96447818 C5.52715852,5.82658668 5.75327449,5.82913636 5.89116599,5.97017305 C6.01373622,6.095539 6.02534057,6.28812808 5.92735152,6.42622354 L5.88547112,6.47521722 L3.37485714,8.92842857 L7.5,8.92857143 C7.67532849,8.92857143 7.82114884,9.05491083 7.85138881,9.22151741 L7.85714286,9.28571429 C7.85714286,9.46104278 7.73080346,9.60686312 7.56419688,9.63710309 L7.5,9.64285714 L2.5,9.64285714 L2.4748988,9.6419778 C2.4641472,9.64122417 2.45342422,9.63998629 2.44276535,9.63826457 L2.5,9.64285714 C2.46500797,9.64285714 2.43119131,9.63782478 2.39923427,9.6284443 C2.39020795,9.62578904 2.38058845,9.62254257 2.37109523,9.61887616 C2.35419397,9.61230817 2.33846215,9.60479425 2.32341432,9.59621799 C2.31735886,9.59282189 2.31080785,9.58882507 2.30436441,9.5845987 C2.26049047,9.55573328 2.22349037,9.51772684 2.19598632,9.47323008 L2.24463048,9.53538893 C2.2199014,9.5100958 2.19968917,9.48206637 2.18398251,9.45230021 C2.17532944,9.43591538 2.16776616,9.41841615 2.16162279,9.40026231 C2.15931721,9.39339538 2.15718892,9.38639028 2.15528063,9.37933867 C2.15265916,9.36977259 2.15042684,9.35991446 2.14861119,9.34991117 L2.14551246,9.32933738 C2.14416204,9.31829687 2.14332688,9.30720649 2.14300652,9.29610511 L2.14285714,9.28571429 L2.14285714,1.42857143 C2.14285714,1.23132688 2.30275545,1.07142857 2.5,1.07142857 Z" id="形状结合" fill="#BFBFBF"></path>
                <polygon id="路径" fill="#FF7A7A" points="2.14285714 5.71428571 7.14285714 3.21428572 2.14285714 0.714285714"></polygon>
            </g>
        </g>
    </g>
</svg>