<?xml version="1.0" encoding="UTF-8"?>
<svg width="16px" height="12px" viewBox="0 0 16 12" version="1.1" xmlns="http://www.w3.org/2000/svg" xmlns:xlink="http://www.w3.org/1999/xlink">
    <title>icon_tag_killer_th-th</title>
    <defs>
        <path d="M1.87976565,8.1125 L2.32976565,5.721875 L4.57976565,5.721875 L4.15789065,8.1125 L5.11414065,8.1125 L6.07039065,2.65625 L5.11414065,2.65625 L4.72039065,4.934375 L2.44226565,4.934375 L2.83601565,2.65625 L1.87976565,2.65625 L0.923515654,8.1125 L1.87976565,8.1125 Z M9.02351565,8.16875 C9.30476565,8.16875 9.51101565,8.15 9.64226565,8.1125 C9.81101565,8.075 9.94226565,8.01875 10.0360157,7.94375 C10.1860157,7.85 10.3078907,7.709375 10.4016407,7.521875 C10.4953907,7.334375 10.5610157,7.08125 10.5985157,6.7625 L10.5985157,6.7625 L10.9922657,4.56875 C11.0672657,4.175 11.1047657,3.884375 11.1047657,3.696875 C11.1047657,3.303125 10.9922657,3.021875 10.7672657,2.853125 C10.5422657,2.703125 10.1766407,2.628125 9.67039065,2.628125 L9.67039065,2.628125 L8.46101565,2.628125 C8.19851565,2.628125 7.99226565,2.646875 7.84226565,2.684375 C7.67351565,2.721875 7.54226565,2.778125 7.44851565,2.853125 C7.29851565,2.946875 7.17664065,3.0875 7.08289065,3.275 C6.98914065,3.4625 6.91414065,3.715625 6.85789065,4.034375 L6.85789065,4.034375 L6.49226565,6.2 C6.41726565,6.59375 6.37976565,6.89375 6.37976565,7.1 C6.37976565,7.49375 6.49226565,7.765625 6.71726565,7.915625 C6.94226565,8.084375 7.30789065,8.16875 7.81414065,8.16875 L7.81414065,8.16875 L9.02351565,8.16875 Z M8.91101565,7.38125 L8.20789065,7.38125 C7.88914065,7.38125 7.67351565,7.34375 7.56101565,7.26875 C7.42976565,7.2125 7.36414065,7.090625 7.36414065,6.903125 C7.36414065,6.771875 7.41101565,6.434375 7.50476565,5.890625 L7.50476565,5.890625 L7.75789065,4.371875 C7.83289065,4.034375 7.90789065,3.809375 7.98289065,3.696875 C8.03914065,3.584375 8.12351565,3.509375 8.23601565,3.471875 C8.32976565,3.434375 8.44226565,3.415625 8.57351565,3.415625 L8.57351565,3.415625 L9.27664065,3.415625 C9.59539065,3.415625 9.82039065,3.44375 9.95164065,3.5 C10.0641407,3.55625 10.1203907,3.66875 10.1203907,3.8375 C10.1203907,4.025 10.0735157,4.38125 9.97976565,4.90625 L9.97976565,4.90625 L9.69851565,6.425 C9.64226565,6.7625 9.58601565,6.9875 9.52976565,7.1 C9.45476565,7.2125 9.37039065,7.2875 9.27664065,7.325 C9.16414065,7.3625 9.04226565,7.38125 8.91101565,7.38125 L8.91101565,7.38125 Z M12.8485157,8.1125 L13.6641407,3.471875 L14.9860157,3.471875 L15.1266407,2.65625 L11.4985157,2.65625 L11.3578907,3.471875 L12.7078907,3.471875 L11.8641407,8.1125 L12.8485157,8.1125 Z" id="path-1"></path>
    </defs>
    <g id="页面-1" stroke="none" stroke-width="1" fill="none" fill-rule="evenodd">
        <g id="icon_tag_killer_th-th" fill-rule="nonzero">
            <g id="编组">
                <rect id="矩形" fill="#FF4000" x="0" y="0" width="16" height="10"></rect>
                <polygon id="路径-94" fill="#D63600" points="9.09494702e-13 10 9.09494702e-13 12 2.86655105 10"></polygon>
            </g>
            <g id="HOT">
                <use fill="#000000" xlink:href="#path-1"></use>
                <use fill="#FFFFFF" xlink:href="#path-1"></use>
            </g>
        </g>
    </g>
</svg>