<?xml version="1.0" encoding="UTF-8"?>
<svg width="14px" height="14px" viewBox="0 0 14 14" version="1.1" xmlns="http://www.w3.org/2000/svg" xmlns:xlink="http://www.w3.org/1999/xlink">
    <!-- Generator: Sketch 55.2 (78181) - https://sketchapp.com -->
    <title>补时</title>
    <desc>Created with Sketch.</desc>
    <g id="补时" stroke="none" stroke-width="1" fill="none" fill-rule="evenodd">
        <g id="ico/补时">
            <g id="编组" transform="translate(0.777778, 0.777778)">
                <path d="M9.33333333,6.22222222 C11.0515341,6.22222222 12.4444444,7.61513256 12.4444444,9.33333333 C12.4444444,11.0515341 11.0515341,12.4444444 9.33333333,12.4444444 C7.61513256,12.4444444 6.22222222,11.0515341 6.22222222,9.33333333 C6.22222222,7.61513256 7.61513256,6.22222222 9.33333333,6.22222222 Z M7.46777877,9.95472148 L8.71194519,9.95472148 L8.71194519,11.1988879 L9.95611161,11.1988879 L9.95611161,9.95472148 L11.200278,9.95472148 L11.200278,8.71055506 L9.95611161,8.71055506 L9.95611161,7.46638864 L8.71194519,7.46638864 L8.71194519,8.71055506 L7.46777877,8.71055506 L7.46777877,9.95472148 Z" id="形状" fill="#FC5E57"></path>
                <path d="M5.55555556,5.55555556 L5.55555556,2.68553735 C5.55555556,2.31734752 5.85403239,2.01887068 6.22222222,2.01887068 C6.59041206,2.01887068 6.88888889,2.31734752 6.88888889,2.68553735 L6.88888889,6.88888889 L2.78358519,6.88888889 C2.41539536,6.88888889 2.11691853,6.59041206 2.11691853,6.22222222 C2.11691853,5.85403239 2.41539536,5.55555556 2.78358519,5.55555556 L5.55555556,5.55555556 Z M6.787928,12.4190743 C6.60160622,12.4358661 6.41291601,12.4444444 6.22222222,12.4444444 C2.78578378,12.4444444 0,9.65866067 0,6.22222222 C0,2.78578378 2.78578378,0 6.22222222,0 C9.65866067,0 12.4444444,2.78578378 12.4444444,6.22222222 C12.4444444,6.41291601 12.4358661,6.60160622 12.4190743,6.787928 C12.0570255,6.34952418 11.6033519,5.98958149 11.0873764,5.73742282 C10.8439844,3.26494962 8.7586799,1.33333333 6.22222222,1.33333333 C3.52216345,1.33333333 1.33333333,3.52216345 1.33333333,6.22222222 C1.33333333,8.7586799 3.26494962,10.8439844 5.73742282,11.0873764 C5.98958149,11.6033519 6.34952418,12.0570255 6.787928,12.4190743 Z" id="形状结合" fill="#FFFFFF" fill-rule="nonzero"></path>
            </g>
        </g>
    </g>
</svg>