<?xml version="1.0" encoding="UTF-8"?>
<svg width="24px" height="24px" viewBox="0 0 24 24" version="1.1" xmlns="http://www.w3.org/2000/svg" xmlns:xlink="http://www.w3.org/1999/xlink">
    <!-- Generator: Sketch 55.2 (78181) - https://sketchapp.com -->
    <title>icon_win_black</title>
    <desc>Created with Sketch.</desc>
    <g id="icon_win_black" stroke="none" stroke-width="1" fill="none" fill-rule="evenodd">
        <g id="icon/浮窗" fill="#222222">
            <path d="M12,24 C5.372583,24 0,18.627417 0,12 C0,5.372583 5.372583,0 12,0 C18.627417,0 24,5.372583 24,12 C24,18.627417 18.627417,24 12,24 Z M12,22.7368421 C17.9297942,22.7368421 22.7368421,17.9297942 22.7368421,12 C22.7368421,6.07020584 17.9297942,1.26315789 12,1.26315789 C6.07020584,1.26315789 1.26315789,6.07020584 1.26315789,12 C1.26315789,17.9297942 6.07020584,22.7368421 12,22.7368421 Z M12,18.3157895 C8.51188579,18.3157895 5.68421053,15.4881142 5.68421053,12 C5.68421053,8.51188579 8.51188579,5.68421053 12,5.68421053 C15.4881142,5.68421053 18.3157895,8.51188579 18.3157895,12 C18.3157895,15.4881142 15.4881142,18.3157895 12,18.3157895 Z M12,17.0526316 C14.7904914,17.0526316 17.0526316,14.7904914 17.0526316,12 C17.0526316,9.20950863 14.7904914,6.94736842 12,6.94736842 C9.20950863,6.94736842 6.94736842,9.20950863 6.94736842,12 C6.94736842,14.7904914 9.20950863,17.0526316 12,17.0526316 Z" id="形状结合"></path>
        </g>
    </g>
</svg>