<?xml version="1.0" encoding="UTF-8"?>
<svg width="16px" height="12px" viewBox="0 0 16 12" version="1.1" xmlns="http://www.w3.org/2000/svg" xmlns:xlink="http://www.w3.org/1999/xlink">
    <title>icon_tag_anchor</title>
    <g id="icon_tag_anchor" stroke="none" stroke-width="1" fill="none" fill-rule="evenodd">
        <g id="编组">
            <rect id="矩形" fill="#FF4000" x="0" y="0" width="16" height="10"></rect>
            <path d="M4.6169265,7.59688196 L4.6325167,7.47216036 L7.51670379,7.47216036 L7.61804009,6.73942094 L6.65924276,6.73942094 L6.74498886,6.11581292 L7.51670379,6.11581292 L7.62583519,5.3752784 L6.85412027,5.3752784 L6.93986637,4.75167038 L7.71158129,4.75167038 L7.81291759,4.01113586 L7.04120267,4.01113586 L7.13474388,3.38752784 L8.0857461,3.38752784 L8.18708241,2.64699332 L7.23608018,2.64699332 L7.30623608,2.155902 L5.72383073,2.155902 L6.02004454,2.45211581 L5.98886414,2.64699332 L5.31069042,2.64699332 L5.40423163,2 L3.87639198,2.49888641 L3.75167038,3.38752784 L4.00111359,3.30957684 L3.40089087,7.59688196 L4.6169265,7.59688196 Z M2.20824053,7.60467706 C2.35374907,7.60467706 2.48366741,7.55660728 2.59799555,7.46046771 C2.71232368,7.36432814 2.78247958,7.24090572 2.80846325,7.09020045 L2.80846325,7.09020045 L3.05011136,5.3518931 L3.24498886,5.28953229 L3.36191537,4.47884187 L3.15924276,4.54120267 L3.27616927,3.69933185 L3.54120267,3.69933185 L3.63474388,3.00556793 L3.37750557,3.00556793 L3.51781737,2.0155902 L1.98218263,2.0155902 L2.17706013,2.24164811 L2.06792873,3.00556793 L1.64699332,3.00556793 L1.55345212,3.69933185 L1.96659243,3.69933185 L1.78730512,4.96993318 L1.35077951,5.10244989 L1.23385301,5.92093541 L1.67817372,5.78062361 L1.52227171,6.90311804 L1,7.60467706 L2.20824053,7.60467706 Z M5.80178174,4.01113586 L5.11581292,4.01113586 L5.20935412,3.38752784 L5.88752784,3.38752784 L5.80178174,4.01113586 Z M5.60690423,5.3752784 L4.92873051,5.3752784 L5.01447661,4.75167038 L5.69265033,4.75167038 L5.60690423,5.3752784 Z M5.41982183,6.73942094 L4.73385301,6.73942094 L4.81959911,6.11581292 L5.50556793,6.11581292 L5.41982183,6.73942094 Z M10.018931,7.59688196 L11.2193764,4.36191537 L10.2683742,4.36191537 L11.5,2.74053452 L12.513363,2.74053452 L13.3162584,4.33073497 L12.5757238,4.33073497 L12.1080178,7.59688196 L13.5812918,7.59688196 L14.0178174,4.53340757 L15,4.53340757 L13.6124722,2 L10.3151448,2 L10.4710468,2.18708241 L8.60022272,4.52561247 L9.66035635,4.52561247 L8.52227171,7.59688196 L10.018931,7.59688196 Z" id="推介" fill="#FFFFFF" fill-rule="nonzero"></path>
            <polygon id="路径-94" fill="#D63600" points="9.09494702e-13 10 9.09494702e-13 12 2.86655105 10"></polygon>
        </g>
    </g>
</svg>