<?xml version="1.0" encoding="UTF-8"?>
<svg width="24px" height="24px" viewBox="0 0 24 24" version="1.1" xmlns="http://www.w3.org/2000/svg" xmlns:xlink="http://www.w3.org/1999/xlink">
    <!-- Generator: Sketch 55.2 (78181) - https://sketchapp.com -->
    <title>icon_detail_score_gray</title>
    <desc>Created with Sketch.</desc>
    <g id="icon_detail_score_gray" stroke="none" stroke-width="1" fill="none" fill-rule="evenodd">
        <g id="ico/16/视频直播备份" fill="#E5E6E8" fill-rule="nonzero">
            <path d="M12.4772727,2.47400457 L11.5227273,2.47540283 L11.5227273,21.5454545 L3.40909091,21.5454545 C2.35909091,21.5454545 1.5,20.6863636 1.5,19.6363636 L1.5,4.36363636 C1.5,3.31363636 2.35909091,2.45454545 3.40909091,2.45454545 L11.5227273,2.45454545 L11.5227273,1.97727273 C11.5227273,1.71368228 11.7364096,1.5 12,1.5 C12.2635904,1.5 12.4772727,1.71368228 12.4772727,1.97727273 L12.4772727,2.45454545 L20.5909091,2.45454545 C21.6409091,2.45454545 22.5,3.31363636 22.5,4.36363636 L22.5,19.6363636 C22.5,20.6863636 21.6409091,21.5454545 20.5909091,21.5454545 L12.4772727,21.5454545 L12.4772727,2.47400457 Z M18.6818182,7.60909091 C18.4909091,7.41818182 18.3,7.32272727 18.0136364,7.22727273 C17.7272727,7.13181818 17.5363636,7.13181818 17.25,7.13181818 C16.9636364,7.13181818 16.6772727,7.22727273 16.4863636,7.22727273 C16.2,7.22727273 16.0090909,7.41818182 15.8181818,7.60909091 C15.6272727,7.8 15.4363636,7.99090909 15.3409091,8.27727273 C15.2454545,8.56363636 15.15,8.85 15.15,9.13636364 L15.15,14.8636364 C15.15,15.15 15.2454545,15.4363636 15.3409091,15.7227273 C15.4363636,16.0090909 15.6272727,16.2 15.8181818,16.3909091 C16.0090909,16.5818182 16.2,16.6772727 16.4863636,16.7727273 C16.7727273,16.8681818 16.9636364,16.9636364 17.25,16.9636364 C17.5363636,16.9636364 17.8227273,16.9636364 18.0136364,16.7727273 C18.3,16.6772727 18.4909091,16.5818182 18.6818182,16.3909091 C18.8727273,16.2 19.0636364,16.0090909 19.1590909,15.7227273 C19.2545455,15.4363636 19.35,15.15 19.35,14.8636364 L19.35,9.13636364 C19.35,8.85 19.2545455,8.56363636 19.1590909,8.27727273 C19.0636364,7.99090909 18.8727273,7.70454545 18.6818182,7.60909091 Z M17.9181818,14.7681818 C17.9181818,14.9590909 17.8227273,15.15 17.7272727,15.2454545 C17.6318182,15.3409091 17.4409091,15.4363636 17.25,15.4363636 C17.0590909,15.4363636 16.8681818,15.3409091 16.7727273,15.2454545 C16.6772727,15.15 16.5818182,14.9590909 16.5818182,14.7681818 L16.5818182,9.13636364 C16.5818182,8.94545455 16.6772727,8.75454545 16.7727273,8.65909091 C16.8681818,8.56363636 17.0590909,8.46818182 17.25,8.46818182 C17.4409091,8.46818182 17.6318182,8.56363636 17.7272727,8.65909091 C17.8227273,8.75454545 17.9181818,8.94545455 17.9181818,9.13636364 L17.9181818,14.7681818 Z M8.65909091,8.18181818 C8.56363636,7.99090909 8.37272727,7.70454545 8.18181818,7.60909091 C7.99090909,7.51363636 7.8,7.22727273 7.51363636,7.13181818 C7.32272727,7.03636364 7.03636364,7.03636364 6.75,7.03636364 C6.46363636,7.03636364 6.27272727,7.03636364 5.98636364,7.13181818 C5.7,7.22727273 5.50909091,7.41818182 5.31818182,7.60909091 C5.12727273,7.70454545 5.03181818,7.99090909 4.84090909,8.18181818 C4.74545455,8.46818182 4.74545455,8.75454545 4.74545455,9.13636364 L4.74545455,14.8636364 C4.74545455,15.15 4.84090909,15.4363636 4.93636364,15.7227273 C5.03181818,16.0090909 5.22272727,16.2 5.41363636,16.3909091 C5.60454545,16.5818182 5.79545455,16.6772727 6.08181818,16.7727273 C6.36818182,16.8681818 6.55909091,16.9636364 6.84545455,16.9636364 C7.13181818,16.9636364 7.41818182,16.9636364 7.60909091,16.7727273 C7.89545455,16.6772727 8.08636364,16.5818182 8.27727273,16.3909091 C8.46818182,16.2 8.65909091,16.0090909 8.75454545,15.7227273 C8.85,15.4363636 8.94545455,15.15 8.94545455,14.8636364 L8.94545455,9.13636364 C8.85,8.75454545 8.75454545,8.46818182 8.65909091,8.18181818 Z M7.41818182,14.7681818 C7.41818182,14.9590909 7.32272727,15.15 7.22727273,15.2454545 C7.13181818,15.3409091 6.94090909,15.4363636 6.75,15.4363636 C6.55909091,15.4363636 6.36818182,15.3409091 6.27272727,15.2454545 C6.17727273,15.15 6.08181818,14.9590909 6.08181818,14.7681818 L6.08181818,9.13636364 C6.08181818,8.94545455 6.17727273,8.75454545 6.27272727,8.65909091 C6.36818182,8.56363636 6.55909091,8.46818182 6.75,8.46818182 C6.94090909,8.46818182 7.13181818,8.56363636 7.22727273,8.65909091 C7.41818182,8.75454545 7.41818182,8.85 7.41818182,9.13636364 L7.41818182,14.7681818 Z M12,22.5208574 C11.7364096,22.5208574 11.5227273,22.3071751 11.5227273,22.0435847 L11.5227273,21.5454545 L12.4772727,21.5468528 L12.4772727,22.0435847 C12.4772727,22.3071751 12.2635904,22.5208574 12,22.5208574 Z" id="形状结合"></path>
        </g>
    </g>
</svg>