<?xml version="1.0" encoding="UTF-8"?>
<svg width="18px" height="18px" viewBox="0 0 18 18" version="1.1" xmlns="http://www.w3.org/2000/svg" xmlns:xlink="http://www.w3.org/1999/xlink">
    <title>icon_details_news_history</title>
    <g id="icon_details_news_history" stroke="none" stroke-width="1" fill="none" fill-rule="evenodd">
        <g id="编组" fill="#222222" fill-rule="nonzero">
            <g id="icon/购物车">
                <path d="M13.5,2.25 C15.363961,2.25 16.875,3.76103897 16.875,5.625 L16.875,12.375 C16.875,14.238961 15.363961,15.75 13.5,15.75 L4.5,15.75 C2.63603897,15.75 1.125,14.238961 1.125,12.375 L1.125,5.625 C1.125,3.76103897 2.63603897,2.25 4.5,2.25 L13.5,2.25 Z M13.5,3.375 L4.5,3.375 C3.31384298,3.375 2.34206424,4.29286251 2.25617145,5.45707986 L2.25,5.625 L2.25,12.375 C2.25,13.561157 3.16786251,14.5329358 4.33207986,14.6188285 L4.5,14.625 L13.5,14.625 C14.686157,14.625 15.6579358,13.7071375 15.7438285,12.5429201 L15.75,12.375 L15.75,5.625 C15.75,4.43884298 14.8321375,3.46706424 13.6679201,3.38117145 L13.5,3.375 Z M10.75,9 C11.0261424,9 11.25,9.22385763 11.25,9.5 L11.25,9.625 C11.25,9.90114237 11.0261424,10.125 10.75,10.125 L5,10.125 C4.72385763,10.125 4.5,9.90114237 4.5,9.625 L4.5,9.5 C4.5,9.22385763 4.72385763,9 5,9 L10.75,9 Z M13,5.625 C13.2761424,5.625 13.5,5.84885763 13.5,6.125 L13.5,6.25 C13.5,6.52614237 13.2761424,6.75 13,6.75 L5,6.75 C4.72385763,6.75 4.5,6.52614237 4.5,6.25 L4.5,6.125 C4.5,5.84885763 4.72385763,5.625 5,5.625 L13,5.625 Z" id="形状结合"></path>
            </g>
        </g>
    </g>
</svg>