<?xml version="1.0" encoding="UTF-8"?>
<svg width="10px" height="10px" viewBox="0 0 10 10" version="1.1" xmlns="http://www.w3.org/2000/svg" xmlns:xlink="http://www.w3.org/1999/xlink">
    <title>icon_events_goal</title>
    <g id="icon_events_goal" stroke="none" stroke-width="1" fill="none" fill-rule="evenodd">
        <g id="icon/小比分/半场备份-2" fill="#222222">
            <path d="M5,9.28571429 C7.36670918,9.28571429 9.28571429,7.36670918 9.28571429,5 C9.28571429,2.63329082 7.36670918,0.714285714 5,0.714285714 C2.63329082,0.714285714 0.714285714,2.63329082 0.714285714,5 C0.714285714,7.36670918 2.63329082,9.28571429 5,9.28571429 Z M4.81632653,3.55452806 C4.91772959,3.48086735 5.08131378,3.47895408 5.1846301,3.55452806 L6.31728316,4.37818878 C6.41868622,4.45184949 6.47034439,4.60682398 6.43112245,4.72831633 L5.99776786,6.06090561 C5.95854592,6.18048469 5.82748724,6.27710459 5.7002551,6.27710459 L4.2997449,6.27710459 C4.17442602,6.27710459 4.04145408,6.18239796 4.00223214,6.06090561 L3.56887755,4.72831633 C3.52965561,4.60873724 3.57940051,4.45280612 3.68271684,4.37818878 L4.81632653,3.55452806 L4.81632653,3.55452806 Z M2.08705357,2.50605867 C2.48022959,2.04783163 2.9786352,1.68335459 3.54591837,1.45089286 L3.45408163,1.62117347 C3.39190051,1.7244898 3.42059949,1.859375 3.52008929,1.92251276 L4.77997449,2.64764031 C4.90242347,2.71173469 5.10140306,2.71077806 5.22289541,2.64764031 L6.48086735,1.92346939 C6.58035714,1.859375 6.60809949,1.7244898 6.54591837,1.6221301 L6.453125,1.45089286 C7.03380102,1.68909439 7.54272959,2.06505102 7.93973214,2.53762755 L7.83641582,2.5184949 C7.71875,2.49075255 7.60012755,2.5596301 7.57047194,2.67442602 L7.27104592,4.09693878 C7.24808673,4.23278061 7.30931122,4.42219388 7.40784439,4.51785714 L8.48596939,5.49075255 C8.57780612,5.56632653 8.71460459,5.55102041 8.79304847,5.45918367 L8.81122449,5.44005102 C8.74043367,6.05707908 8.52423469,6.62914541 8.19610969,7.12181122 L8.1434949,6.77933673 C8.13105867,6.65975765 8.02678571,6.56887755 7.9091199,6.57844388 L6.46651786,6.75829082 C6.33067602,6.78029337 6.171875,6.90082908 6.11352041,7.02423469 L5.54432398,8.35969388 C5.50318878,8.47066327 5.56154337,8.59502551 5.67346939,8.63998724 L5.87818878,8.73373724 C5.59693878,8.7997449 5.30325255,8.83418367 5.00095663,8.83418367 C4.67665816,8.83418367 4.36192602,8.7940051 4.06154337,8.71843112 L4.25382653,8.63042092 C4.36575255,8.58545918 4.42410714,8.46109694 4.38297194,8.35012755 L3.81377551,7.01466837 C3.75542092,6.89126276 3.5966199,6.77072704 3.46077806,6.74872449 L2.01721939,6.56887755 C1.89955357,6.55931122 1.79528061,6.65019133 1.78284439,6.76977041 L1.74362245,7.02519133 C1.4317602,6.52391582 1.23182398,5.94610969 1.17920918,5.3252551 L1.27008929,5.42091837 C1.34853316,5.51179847 1.48533163,5.52710459 1.57716837,5.45248724 L2.65529337,4.47959184 C2.7528699,4.38392857 2.81505102,4.19451531 2.79209184,4.05867347 L2.49170918,2.63711735 C2.46205357,2.52232143 2.34247449,2.45344388 2.22576531,2.48118622 L2.08705357,2.50605867 Z" id="形状"></path>
        </g>
    </g>
</svg>