<?xml version="1.0" encoding="UTF-8"?>
<svg width="24px" height="24px" viewBox="0 0 24 24" version="1.1" xmlns="http://www.w3.org/2000/svg" xmlns:xlink="http://www.w3.org/1999/xlink">
    <!-- Generator: Sketch 55.2 (78181) - https://sketchapp.com -->
    <title>icon_detail_animation_yellow</title>
    <desc>Created with Sketch.</desc>
    <g id="icon_detail_animation_yellow" stroke="none" stroke-width="1" fill="none" fill-rule="evenodd">
        <g id="ico/16/动画直播" fill="#5078FF">
            <path d="M20.8910948,3.00000409 C21.7230762,3.0013021 22.5199419,3.33900361 23.1039535,3.93778939 C23.6879651,4.53657516 24.010543,5.3466367 23.999737,6.18729212 L23.999737,17.8127059 C24.0010815,18.6584419 23.6692036,19.4699297 23.0773969,20.0679561 C22.4855903,20.6659826 21.6825424,21.0013484 20.8456025,20.9999939 L3.15414266,20.9999939 C2.31720272,21.0013484 1.51415485,20.6659826 0.922348181,20.0679561 C0.330541512,19.4699297 -0.00133637196,18.6584419 4.04460554e-06,17.8127059 L4.04460554e-06,6.18729212 C-0.00133637196,5.3415561 0.330541512,4.53006834 0.922348181,3.93204189 C1.51415485,3.33401544 2.31720272,2.99864958 3.15414266,3.00000409 L20.8910948,3.00000409 Z M23.0241794,17.3019232 L23.0393866,17.2968154 L23.0393866,6.70318263 C23.0433753,5.98431794 22.7642931,5.29335134 22.2636338,4.78263926 C21.7629744,4.27192719 21.0818549,3.98341212 20.3704604,3.98071093 L3.68994115,3.98071093 C2.20710274,3.98912658 1.00864746,5.20473881 1.00589396,6.70318263 L1.00589396,17.3019232 C1.01960415,18.7856214 2.20651006,19.9850015 3.67477704,19.9988558 L20.3552963,19.9988558 C21.8235633,19.9850015 23.0104692,18.7856214 23.0241794,17.3019232 Z M4.55936658,14.3036289 C4.55955961,14.753656 4.20584408,15.1224002 3.76070699,15.1362047 L1.87024814,15.1362047 L1.87024814,8.88422466 L3.76070699,8.88422466 C4.20539209,8.88983307 4.56216418,9.25720012 4.55936658,9.70658478 L4.55936658,14.3036289 Z M20.3552963,8.88422466 L22.1497158,8.88422466 L22.1497158,15.1055577 L20.3552963,15.1055577 C19.9145491,15.0999985 19.5593738,14.7388188 19.5566532,14.2934132 L19.5566532,9.69636912 C19.5593738,9.25096356 19.9145491,8.88978385 20.3552963,8.88422466 Z M9.77580332,11.999999 C9.77663047,10.9540118 10.4945717,10.0482142 11.5045117,9.81895695 L11.5045117,14.1810411 C10.4945717,13.9517838 9.77663047,13.0459862 9.77580332,11.999999 Z M14.2188871,11.999999 C14.2065707,13.0487361 13.4826928,13.9514656 12.4699599,14.1810411 L12.4699599,9.81895695 C13.4879342,10.039951 14.2159649,10.9478594 14.2188871,11.999999 Z M20.3552963,4.88990411 C20.8306246,4.88303351 21.2886898,5.06975469 21.6262554,5.40798538 C21.963821,5.74621606 22.1524809,6.20749417 22.1497458,6.68785913 L22.1497458,8.0158941 L20.3552963,8.0158941 C19.9115608,8.0158941 19.4859996,8.19401993 19.1722312,8.51108594 C18.8584629,8.82815194 18.6821897,9.25818573 18.6821897,9.70658478 L18.6821897,14.3036289 C18.6821897,15.2373716 19.431265,15.9943196 20.3552963,15.9943196 L22.1193876,15.9943196 L22.1193876,17.3223545 C22.1166285,18.3065479 21.3292417,19.1044899 20.3552963,19.1100939 L12.4244676,19.1100939 L12.4244676,15.1157733 C13.9233334,14.8686484 15.0240421,13.5601847 15.0240421,12.0255381 C15.0240421,10.4908915 13.9233334,9.18242783 12.4244676,8.93530292 L12.4244676,4.88990411 L20.3552963,4.88990411 Z M8.97716028,12.0255381 C8.9562598,13.5371891 10.0293371,14.8384153 11.5045117,15.0902342 L11.5045117,19.1509565 L3.66466764,19.1509565 C2.6672347,19.1425259 1.86464081,18.320074 1.87021894,17.3121389 L1.87021894,16.009643 L3.76576169,16.009643 C4.68864083,16.0068383 5.43609272,15.2515308 5.43886832,14.3189524 L5.43886832,9.72190826 C5.43886832,8.78534461 4.6875299,8.02610976 3.76070699,8.02610976 L1.87021894,8.02610976 L1.87021894,6.72872175 C1.87577193,5.72959688 2.67593419,4.92102508 3.66466764,4.91544325 L11.5752775,4.91544325 L11.5752775,8.93530292 C10.0824521,9.19279965 8.9874249,10.4952396 8.97716028,12.0255381 Z" id="形状结合"></path>
        </g>
    </g>
</svg>