<?xml version="1.0" encoding="UTF-8"?>
<svg width="34px" height="34px" viewBox="0 0 34 34" version="1.1" xmlns="http://www.w3.org/2000/svg" xmlns:xlink="http://www.w3.org/1999/xlink">
    <title>icon_win_white</title>
    <g id="icon_win_white" stroke="none" stroke-width="1" fill="none" fill-rule="evenodd">
        <g id="icon/浮窗" fill="#FFFFFF" fill-rule="nonzero">
            <path d="M17,0 C26.3888407,0 34,7.61115925 34,17 C34,26.3888407 26.3888407,34 17,34 C7.61115925,34 0,26.3888407 0,17 C0,7.61115925 7.61115925,0 17,0 Z M17,1.78947368 C8.59945828,1.78947368 1.78947368,8.59945828 1.78947368,17 C1.78947368,25.4005417 8.59945828,32.2105263 17,32.2105263 C25.4005417,32.2105263 32.2105263,25.4005417 32.2105263,17 C32.2105263,8.59945828 25.4005417,1.78947368 17,1.78947368 Z M17,8.05263158 C21.9414951,8.05263158 25.9473684,12.0585049 25.9473684,17 C25.9473684,21.9414951 21.9414951,25.9473684 17,25.9473684 C12.0585049,25.9473684 8.05263158,21.9414951 8.05263158,17 C8.05263158,12.0585049 12.0585049,8.05263158 17,8.05263158 Z M17,9.84210526 C13.0468039,9.84210526 9.84210526,13.0468039 9.84210526,17 C9.84210526,20.9531961 13.0468039,24.1578947 17,24.1578947 C20.9531961,24.1578947 24.1578947,20.9531961 24.1578947,17 C24.1578947,13.0468039 20.9531961,9.84210526 17,9.84210526 Z" id="形状结合"></path>
        </g>
    </g>
</svg>