<?xml version="1.0" encoding="UTF-8"?>
<svg width="10px" height="10px" viewBox="0 0 10 10" version="1.1" xmlns="http://www.w3.org/2000/svg" xmlns:xlink="http://www.w3.org/1999/xlink">
    <title>icon_details_share_notice</title>
    <g id="icon_details_share_notice" stroke="none" stroke-width="1" fill="none" fill-rule="evenodd" opacity="0.400000006">
        <g id="icon/提示" fill="#222222" fill-rule="nonzero">
            <path d="M5,0 C7.76142375,0 10,2.23857625 10,5 C10,7.76142375 7.76142375,10 5,10 C2.23857625,10 0,7.76142375 0,5 C0,2.23857625 2.23857625,0 5,0 Z M5,0.877192982 C2.72303656,0.877192982 0.877192982,2.72303656 0.877192982,5 C0.877192982,7.27696344 2.72303656,9.12280702 5,9.12280702 C7.27696344,9.12280702 9.12280702,7.27696344 9.12280702,5 C9.12280702,2.72303656 7.27696344,0.877192982 5,0.877192982 Z M5,3.87453063 C5.1241334,3.87453063 5.24318263,3.92384243 5.3309582,4.011618 C5.40117865,4.08183846 5.4467823,4.17207405 5.46221493,4.26891578 L5.46804557,4.3425762 L5.46785733,6.98165204 C5.4562764,7.23145024 5.25038047,7.42802175 5.00031396,7.42802175 C4.77803262,7.42802175 4.59065149,7.27270599 4.54348959,7.0570438 L4.53258236,6.97352723 L4.53258236,4.3425762 C4.53258236,4.11028391 4.70182313,3.9174498 4.9238276,3.88080212 L5,3.87453063 Z M5,2.55842721 C5.29872162,2.55842721 5.54088335,2.80058893 5.54088335,3.09931056 C5.54088335,3.39803218 5.29872162,3.6401939 5,3.6401939 C4.70127838,3.6401939 4.45911665,3.39803218 4.45911665,3.09931056 C4.45911665,2.80058893 4.70127838,2.55842721 5,2.55842721 Z" id="形状结合"></path>
        </g>
    </g>
</svg>