<?xml version="1.0" encoding="UTF-8"?>
<svg width="20px" height="20px" viewBox="0 0 20 20" version="1.1" xmlns="http://www.w3.org/2000/svg" xmlns:xlink="http://www.w3.org/1999/xlink">
    <title>icon_detail_living_blank</title>
    <g id="icon_detail_living_blank" stroke="none" stroke-width="1" fill="none" fill-rule="evenodd">
        <g id="icon/关注备份-6">
            <path d="M4.79166667,2.70833333 C4.10131073,2.70833333 3.54166667,3.25243173 3.54166667,3.92361111 L3.54166667,16.0763889 C3.54166667,16.7475683 4.10131073,17.2916667 4.79166667,17.2916667 L14.7916667,17.2916667 C15.4820226,17.2916667 16.0416667,16.7475683 16.0416667,16.0763889 L16.0416667,3.92361111 C16.0416667,3.25243173 15.4820226,2.70833333 14.7916667,2.70833333 L4.79166667,2.70833333 Z" id="路径" fill="#FFFFFF" fill-rule="nonzero" transform="translate(9.791667, 10.000000) rotate(-270.000000) translate(-9.791667, -10.000000) "></path>
            <circle id="椭圆形" fill="#5078FF" cx="15.2083333" cy="6.25" r="2.91666667"></circle>
            <path d="M12.3215756,10.8592183 C12.6340355,11.3310253 12.5254788,11.981233 12.0791076,12.3114979 C11.9132821,12.4341903 11.7157649,12.5 11.513349,12.5 L7.65323297,12.5 C7.10836744,12.5 6.66666667,12.0331296 6.66666667,11.4572158 C6.66666667,11.2432655 6.72892847,11.0344931 6.84500636,10.8592183 L8.77506438,7.94487628 C9.08752423,7.47306929 9.70267837,7.35832674 10.1490496,7.68859164 C10.2434061,7.75840493 10.325468,7.84514302 10.3915176,7.94487628 L12.3215756,10.8592183 Z M9.58329098,8.54287378 L7.65323297,11.4572158 L11.513349,11.4572158 L9.58329098,8.54287378 Z" id="三角形" fill="#353535" fill-rule="nonzero" transform="translate(9.583333, 10.000000) rotate(-270.000000) translate(-9.583333, -10.000000) "></path>
            <path d="M14.6527778,1.66666667 C15.9951365,1.66666667 17.0833333,2.73265536 17.0833333,4.04761905 L17.0833333,15.952381 C17.0833333,17.2673446 15.9951365,18.3333333 14.6527778,18.3333333 L4.93055556,18.3333333 C3.58819679,18.3333333 2.5,17.2673446 2.5,15.952381 L2.5,4.04761905 C2.5,2.73265536 3.58819679,1.66666667 4.93055556,1.66666667 L14.6527778,1.66666667 Z M14.7916667,2.70833333 L4.79166667,2.70833333 C4.10131073,2.70833333 3.54166667,3.25243173 3.54166667,3.92361111 L3.54166667,16.0763889 C3.54166667,16.7475683 4.10131073,17.2916667 4.79166667,17.2916667 L14.7916667,17.2916667 C15.4820226,17.2916667 16.0416667,16.7475683 16.0416667,16.0763889 L16.0416667,3.92361111 C16.0416667,3.25243173 15.4820226,2.70833333 14.7916667,2.70833333 Z" id="形状结合" fill="#353535" fill-rule="nonzero" transform="translate(9.791667, 10.000000) rotate(-270.000000) translate(-9.791667, -10.000000) "></path>
            <path d="M3.64583333,12.0833333 L3.64583333,14.1666667 C3.64583333,14.454315 3.87901836,14.6875 4.16666667,14.6875 C4.45431497,14.6875 4.6875,14.454315 4.6875,14.1666667 L4.6875,12.0833333 C4.6875,11.795685 4.45431497,11.5625 4.16666667,11.5625 C3.87901836,11.5625 3.64583333,11.795685 3.64583333,12.0833333 Z" id="路径-18" fill="#353535" fill-rule="nonzero"></path>
            <path d="M3.64583333,10.4166667 L3.64583333,10.625 C3.64583333,10.9126483 3.87901836,11.1458333 4.16666667,11.1458333 C4.45431497,11.1458333 4.6875,10.9126483 4.6875,10.625 L4.6875,10.4166667 C4.6875,10.1290184 4.45431497,9.89583333 4.16666667,9.89583333 C3.87901836,9.89583333 3.64583333,10.1290184 3.64583333,10.4166667 Z" id="路径-18备份" fill="#353535" fill-rule="nonzero"></path>
        </g>
    </g>
</svg>