<?xml version="1.0" encoding="UTF-8"?>
<svg width="14px" height="14px" viewBox="0 0 14 14" version="1.1" xmlns="http://www.w3.org/2000/svg" xmlns:xlink="http://www.w3.org/1999/xlink">
    <!-- Generator: Sketch 55.2 (78181) - https://sketchapp.com -->
    <title>icon_live_select_selected</title>
    <desc>Created with Sketch.</desc>
    <g id="icon_live_select_selected" stroke="none" stroke-width="1" fill="none" fill-rule="evenodd">
        <rect fill="#000000" x="0" y="0" width="14" height="14"></rect>
        <g id="ico/成功" fill="#5078FF">
            <path d="M7,14 C3.13400675,14 0,10.8659932 0,7 C0,3.13400675 3.13400675,0 7,0 C10.8659932,0 14,3.13400675 14,7 C14,10.8659932 10.8659932,14 7,14 Z M4.45892006,7.03538907 C4.23955383,6.79693297 3.8838909,6.79693297 3.66452467,7.03538907 C3.44515844,7.27384516 3.44515844,7.66045887 3.66452467,7.89891496 L5.89285235,10.3211579 C6.11201231,10.5593898 6.46726787,10.5596466 6.68671912,10.3217318 L11.2099467,5.41794183 C11.4296045,5.1798031 11.4300775,4.79318973 11.2110032,4.5544167 C10.991929,4.31564367 10.6362664,4.31512947 10.4166086,4.55326821 L6.29057797,9.02644296 L4.45892006,7.03538907 Z" id="形状结合"></path>
        </g>
    </g>
</svg>