<?xml version="1.0" encoding="UTF-8"?>
<svg width="12px" height="12px" viewBox="0 0 12 12" version="1.1" xmlns="http://www.w3.org/2000/svg" xmlns:xlink="http://www.w3.org/1999/xlink">
    <!-- Generator: Sketch 56.2 (81672) - https://sketch.com -->
    <title>icon_detail_usercard_report</title>
    <desc>Created with Sketch.</desc>
    <g id="icon_detail_usercard_report" stroke="none" stroke-width="1" fill="none" fill-rule="evenodd" opacity="0.699999988">
        <g id="icon/举报" fill="#000000">
            <g id="举报" transform="translate(0.000000, 0.857143)">
                <path d="M10.8210526,8.29501245 L6.60711237,1.41023293 C6.48256243,1.1733386 6.2417545,1.020235 5.97439545,1.00795697 C5.70703639,1.02023499 5.46622846,1.17333859 5.34167852,1.41023293 L1.12773826,8.29501245 C1.04559736,8.42169695 0.999926149,8.56855353 0.99573257,8.71947902 C0.99573257,9.02445769 1.23300141,9.33000533 1.76614509,9.33000533 L10.1826458,9.33000533 C10.7157895,9.33000533 10.9530583,9.02445768 10.9530583,8.71947902 C10.9488647,8.56855353 10.9031935,8.42169695 10.8210526,8.29501245 Z M11.9487909,8.71947902 C11.9487909,9.64181188 11.1965861,10.3257379 10.1826458,10.3257379 L1.76614509,10.3257379 C0.752204835,10.3251689 0,9.64181188 0,8.69387446 C0.00755468882,8.36824054 0.103536231,8.0507934 0.277667145,7.77552454 L4.47624467,0.916349578 C4.76862312,0.386605285 5.31380955,0.0453796776 5.91806543,0.0139313661 L5.97439545,0.0105174303 L6.03072546,0.0139313661 C6.63498135,0.0453796776 7.18016778,0.386605285 7.47254623,0.916349578 L11.6660028,7.76698969 C11.8423897,8.04579481 11.940256,8.36556721 11.9487909,8.71947902 L11.9487909,8.71947902 Z" id="形状" fill-rule="nonzero"></path>
                <path d="M5.42987198,3.8176298 C5.42987198,3.53313479 5.65234709,3.30212482 5.92773826,3.30212482 C6.20256045,3.30212482 6.42560455,3.53313478 6.42560455,3.8176298 L6.42560455,6.03669096 C6.42560455,6.32232397 6.20256045,6.55276494 5.92773826,6.55276494 C5.65234708,6.55276494 5.42987198,6.32232398 5.42987198,6.03725996 L5.42987198,3.81819879 L5.42987198,3.8176298 Z M5.93058321,8.2119399 C5.65589809,8.21115508 5.4337475,7.98805036 5.43413939,7.7133644 C5.43453232,7.43867844 5.65731945,7.21620935 5.93200569,7.21620935 C6.20669193,7.21620935 6.42947906,7.43867844 6.42987199,7.7133644 C6.43026388,7.98805036 6.20811329,8.21115508 5.93342817,8.2119399 L5.93058321,8.2119399 Z" id="形状" fill-rule="nonzero"></path>
            </g>
        </g>
    </g>
</svg>