<?xml version="1.0" encoding="UTF-8"?>
<svg width="16px" height="16px" viewBox="0 0 16 16" version="1.1" xmlns="http://www.w3.org/2000/svg" xmlns:xlink="http://www.w3.org/1999/xlink">
    <title>icon_details_news_cart</title>
    <g id="icon_details_news_cart" stroke="none" stroke-width="1" fill="none" fill-rule="evenodd">
        <g id="编组" fill="#222222" fill-rule="nonzero">
            <g id="形状结合">
                <path d="M5.56330275,11.9537207 C6.61039755,11.9537207 7.4617737,12.8067278 7.4617737,13.8521916 C7.4617737,14.8976555 6.61039755,15.7506626 5.56330275,15.7506626 C4.51620795,15.7506626 3.6648318,14.8992864 3.6648318,13.8521916 C3.6648318,12.8050968 4.51620795,11.9537207 5.56330275,11.9537207 Z M11.4642202,11.9537207 C12.511315,11.9537207 13.3626911,12.8050968 13.3626911,13.8521916 C13.3626911,14.8992864 12.509684,15.7506626 11.4625892,15.7506626 C10.4171254,15.7506626 9.56574924,14.8992864 9.56574924,13.8521916 C9.56574924,12.8050968 10.4171254,11.9537207 11.4642202,11.9537207 Z M5.56330275,12.7137615 C4.93537207,12.7137615 4.42487258,13.224261 4.42487258,13.8521916 C4.42487258,14.4801223 4.93537207,14.9906218 5.56330275,14.9906218 C6.19123344,14.9906218 6.70173293,14.4801223 6.70173293,13.8521916 C6.70173293,13.224261 6.19123344,12.7137615 5.56330275,12.7137615 Z M11.4625892,12.7137615 C10.8346585,12.7137615 10.324159,13.224261 10.324159,13.8521916 C10.324159,14.4801223 10.8346585,14.9906218 11.4625892,14.9906218 C12.0905199,14.9906218 12.6010194,14.4801223 12.6010194,13.8521916 C12.6010194,13.224261 12.0905199,12.7137615 11.4625892,12.7137615 Z M12.9630989,1 C14.6364934,1 16,2.36187564 16,4.03690112 C16,5.32043105 15.2003377,6.42008653 14.0728759,6.86400483 L13.4556575,10.2917431 C13.3643221,10.8071356 12.8505607,11.2116208 12.2878695,11.2116208 L4.73965341,11.2116208 C4.17696228,11.2116208 3.66320082,10.8071356 3.57023445,10.2917431 L2.62426096,5.03669725 C2.61049349,4.9608083 2.60336286,4.88512675 2.60265554,4.81047814 C2.59688509,4.793328 2.59194975,4.77504005 2.5883792,4.75616718 L2.38776758,3.71396534 C2.38124363,3.67808359 2.28827727,3.59490316 2.16595311,3.59490316 L0.380020387,3.59490316 C0.169622834,3.59490316 0,3.42528033 0,3.21488277 C0,3.00448522 0.169622834,2.83486239 0.380020387,2.83486239 L2.16595311,2.83486239 C2.63730887,2.83486239 3.05321101,3.15127421 3.13312946,3.56880734 L3.17522803,3.78740985 C3.33312393,3.70098064 3.51337666,3.65524975 3.70560652,3.65524975 L9.9500973,3.65500335 C10.1385948,2.15969618 11.4189054,1 12.9630989,1 Z M9.94969274,4.41578775 L3.70397554,4.41529052 L3.70397554,4.41692151 C3.59959225,4.41692151 3.51151886,4.45606524 3.44954128,4.52945973 C3.37288481,4.62079511 3.34352701,4.75779817 3.36962283,4.90458716 L4.31559633,10.159633 C4.34006116,10.2982671 4.52599388,10.454842 4.73802243,10.454842 L12.2878695,10.454842 C12.4982671,10.454842 12.6841998,10.2998981 12.7102956,10.159633 L13.2680938,7.05749235 L13.1413198,7.06863876 C13.0823441,7.07206516 13.0229212,7.07380224 12.9630989,7.07380224 C11.4163629,7.07380224 10.1366457,5.9125489 9.94969274,4.41578775 Z M12.9630989,1.76004077 C11.7072375,1.76004077 10.6862385,2.78103976 10.6862385,4.03690112 C10.6862385,5.29276249 11.7072375,6.31376147 12.9630989,6.31376147 L13.1268782,6.30793939 C13.1416633,6.30688467 13.1564101,6.30568831 13.171117,6.30435165 C13.2104779,6.30037739 13.2501685,6.29561439 13.2897066,6.2898148 L13.171117,6.30435165 C13.2226046,6.29967213 13.2736042,6.2932731 13.3240575,6.28521259 L13.2897066,6.2898148 C13.3461777,6.28153142 13.4023376,6.27113346 13.458079,6.25867464 L13.3240575,6.28521259 C13.3756759,6.27696595 13.4267225,6.26698022 13.4771348,6.25531754 L13.458079,6.25867464 C13.5107711,6.2468974 13.5630891,6.23327861 13.6149424,6.21786367 L13.4771348,6.25531754 C14.4864774,6.0218106 15.2415902,5.11606738 15.2415902,4.03690112 C15.2415902,2.78103976 14.2189602,1.76004077 12.9630989,1.76004077 Z M12.9630989,2.51845056 C13.1734964,2.51845056 13.3431193,2.68807339 13.3431193,2.89847095 L13.343,3.656 L14.1015291,3.65688073 C14.3119266,3.65688073 14.4815494,3.82650357 14.4815494,4.03690112 C14.4815494,4.24729867 14.3119266,4.41692151 14.1015291,4.41692151 L13.343,4.416 L13.3431193,5.17533129 C13.3431193,5.38572885 13.1734964,5.55535168 12.9630989,5.55535168 C12.7527013,5.55535168 12.5830785,5.38572885 12.5830785,5.17533129 L12.583,4.416 L11.8246687,4.41692151 C11.6142712,4.41692151 11.4446483,4.24729867 11.4446483,4.03690112 C11.4446483,3.82650357 11.6142712,3.65688073 11.8246687,3.65688073 L12.583,3.656 L12.5830785,2.89847095 C12.5830785,2.68807339 12.7527013,2.51845056 12.9630989,2.51845056 Z"></path>
            </g>
        </g>
    </g>
</svg>