<?xml version="1.0" encoding="UTF-8"?>
<svg width="24px" height="24px" viewBox="0 0 24 24" version="1.1" xmlns="http://www.w3.org/2000/svg" xmlns:xlink="http://www.w3.org/1999/xlink">
    <!-- Generator: Sketch 55.2 (78181) - https://sketchapp.com -->
    <title>icon_detail_data_yellow</title>
    <desc>Created with Sketch.</desc>
    <g id="icon_detail_data_yellow" stroke="none" stroke-width="1" fill="none" fill-rule="evenodd">
        <g id="ico/数据分析" fill="#5078FF">
            <path d="M14.4,18.5742448 C14.4,18.9252782 14.0369748,19.2 13.5731092,19.2 L10.4268907,19.2 C9.96302521,19.2 9.6,18.9252782 9.6,18.5742448 L9.6,10.2257552 C9.6,9.87472178 9.96302521,9.6 10.4268907,9.6 L13.5731092,9.6 C14.0369748,9.6 14.4,9.87472178 14.4,10.2257552 L14.4,18.5742448 Z M7.2,18.562419 C7.2,18.9200864 6.83697479,19.2 6.37310922,19.2 L3.22689075,19.2 C2.76302521,19.2 2.4,18.9200864 2.4,18.562419 L2.4,12.637581 C2.4,12.2799136 2.76302521,12 3.22689075,12 L6.37310922,12 C6.83697476,12 7.2,12.2799136 7.2,12.637581 L7.2,18.562419 Z M21.6,18.5158749 C21.6,18.8996524 21.2369748,19.2 20.7731092,19.2 L17.6268908,19.2 C17.1630252,19.2 16.8,18.8996524 16.8,18.5158749 L16.8,5.48412516 C16.8,5.10034765 17.1630252,4.8 17.6268908,4.8 L20.7731092,4.8 C21.2369748,4.8 21.6,5.10034763 21.6,5.48412516 L21.6,18.5158749 Z" id="形状结合"></path>
        </g>
    </g>
</svg>