<?xml version="1.0" encoding="UTF-8"?>
<svg width="14px" height="14px" viewBox="0 0 14 14" version="1.1" xmlns="http://www.w3.org/2000/svg" xmlns:xlink="http://www.w3.org/1999/xlink">
    <!-- Generator: Sketch 55.2 (78181) - https://sketchapp.com -->
    <title>点球</title>
    <desc>Created with Sketch.</desc>
    <defs>
        <linearGradient x1="50%" y1="0%" x2="50%" y2="100%" id="linearGradient-1">
            <stop stop-color="#CDCDCD" offset="0%"></stop>
            <stop stop-color="#FCFDFC" offset="100%"></stop>
        </linearGradient>
    </defs>
    <g id="点球" stroke="none" stroke-width="1" fill="none" fill-rule="evenodd">
        <g id="ico/补时备份">
            <g id="编组" transform="translate(1.166667, 0.777778)">
                <ellipse id="椭圆形" fill="url(#linearGradient-1)" opacity="0.200000003" cx="5.83333333" cy="11.2777778" rx="5.83333333" ry="1.16666667"></ellipse>
                <path d="M10.71875,2.64150943 C11.3020833,3.52201258 11.6666667,4.69601677 11.6666667,5.87002096 C11.6666667,6.45702306 11.59375,6.9706499 11.375,7.41090147 C11.15625,8.14465409 10.8645833,8.87840671 10.3541667,9.46540881 C9.33333333,10.7127883 7.80208333,11.5932914 6.05208333,11.6666667 C5.97916667,11.6666667 5.90625,11.6666667 5.83333333,11.6666667 C5.6875,11.6666667 5.46875,11.6666667 5.32291667,11.6666667 C4.73958333,11.5932914 4.22916667,11.5199161 3.79166667,11.2997904 C2.98958333,11.0062893 2.26041667,10.5660377 1.67708333,9.97903564 C1.09375,9.39203354 0.65625,8.65828092 0.364583333,7.85115304 C0.21875,7.55765199 0.145833333,7.26415094 0.0729166667,6.89727463 C0,6.60377358 0,6.23689727 0,5.87002096 C0,5.7966457 0,5.72327044 0,5.64989518 C0.0729166667,3.88888889 0.947916667,2.27463312 2.1875,1.24737945 C2.77083333,0.807127883 3.5,0.440251572 4.22916667,0.220125786 C4.73958333,0.0733752621 5.25,0 5.83333333,0 C7.07291667,0 8.16666667,0.36687631 9.11458333,1.02725367 C9.26041667,1.17400419 9.40625,1.24737945 9.55208333,1.39412998 C9.69791667,1.46750524 9.84375,1.61425577 9.98958333,1.76100629 C10.28125,2.05450734 10.5,2.27463312 10.71875,2.64150943 Z M10.5729167,7.70440252 C10.6458333,7.63102725 10.6458333,7.63102725 10.5729167,7.70440252 L9.1875,5.7966457 L8.89583333,5.42976939 L9.04166667,4.98951782 L9.91666667,2.7148847 C9.91666667,2.64150943 9.91666667,2.64150943 9.91666667,2.64150943 C9.84375,2.49475891 9.69791667,2.34800839 9.55208333,2.20125786 C9.40625,2.05450734 9.26041667,1.98113208 9.11458333,1.83438155 C9.04166667,1.83438155 9.04166667,1.83438155 9.04166667,1.83438155 L6.78125,2.7148847 L6.41666667,2.86163522 L6.05208333,2.56813417 L4.15625,1.02725367 C4.15625,1.02725367 4.08333333,1.02725367 4.08333333,1.02725367 C3.86458333,1.10062893 3.71875,1.17400419 3.57291667,1.24737945 C3.57291667,1.32075472 3.5,1.32075472 3.5,1.32075472 C3.35416667,1.39412998 3.13541667,1.46750524 3.0625,1.61425577 C2.98958333,1.61425577 2.98958333,1.61425577 2.98958333,1.61425577 L3.13541667,4.03563941 L3.13541667,4.47589099 L2.77083333,4.69601677 L0.729166667,6.01677149 C0.729166667,6.23689727 0.802083333,6.53039832 0.875,6.75052411 C0.875,6.82389937 0.875,6.82389937 0.875,6.89727463 C0.875,7.04402516 0.947916667,7.19077568 0.947916667,7.33752621 L3.20833333,7.85115304 L3.64583333,7.99790356 L3.79166667,8.43815514 L4.375,10.7861635 C4.52083333,10.8595388 4.66666667,10.932914 4.8125,10.932914 C4.88541667,10.932914 4.88541667,10.932914 4.95833333,10.932914 C5.17708333,11.0062893 5.46875,11.0062893 5.6875,11.0062893 L7,9.02515723 L7.21875,8.65828092 L7.65625,8.65828092 L10.0625,8.80503145 C10.0625,8.80503145 10.0625,8.73165618 10.0625,8.73165618 C10.1354167,8.58490566 10.28125,8.36477987 10.3541667,8.21802935 C10.4270833,8.07127883 10.5,7.85115304 10.5729167,7.70440252 Z M7.994179,5.75281363 L6.90709259,7.81464972 C6.83914969,7.95210546 6.70326388,8.02083333 6.63532098,8.02083333 C6.63532098,8.02083333 6.63532098,8.02083333 6.56737808,8.02083333 L4.32526234,7.67719398 C4.18937654,7.67719398 4.05349074,7.53973824 4.05349074,7.4022825 L3.64583333,5.1342628 C3.64583333,4.99680706 3.71377623,4.85935132 3.84966204,4.79062345 L5.88794907,3.69097753 C6.02383487,3.62224966 6.15972067,3.62224966 6.29560648,3.7597054 L7.8582932,5.34044641 C7.994179,5.40917428 8.06212191,5.61535789 7.994179,5.75281363 Z" id="形状结合" fill="#FFFFFF" fill-rule="nonzero"></path>
            </g>
        </g>
    </g>
</svg>