<?xml version="1.0" encoding="UTF-8"?>
<svg width="14px" height="14px" viewBox="0 0 14 14" version="1.1" xmlns="http://www.w3.org/2000/svg" xmlns:xlink="http://www.w3.org/1999/xlink">
    <title>icon_detail_chatroom_blank</title>
    <g id="icon_detail_chatroom_blank" stroke="none" stroke-width="1" fill="none" fill-rule="evenodd">
        <g id="icon/关注" fill="#222222">
            <path d="M7.74320988,0.233333333 C11.0269177,0.233333333 13.6888889,2.87825534 13.6888889,6.14093197 C13.6888889,9.40360861 11.0269177,12.0485306 7.74320988,12.0485306 L7.74320988,13.3002669 C7.74320988,13.4101986 7.70412759,13.5165969 7.6328602,13.6006849 C7.46587439,13.7977105 7.16975526,13.8229296 6.97145961,13.6570133 L4.85038765,11.8822873 C2.24547324,11.2545468 0.311111111,8.9221898 0.311111111,6.14093197 C0.311111111,2.87825534 2.97308228,0.233333333 6.25679012,0.233333333 L7.74320988,0.233333333 Z M7.74320988,1.01064894 L6.25679012,1.01064894 C3.4051491,1.01064894 1.0934373,3.30755489 1.0934373,6.14093197 C1.0934373,8.52136982 2.73896499,10.5736186 5.03478437,11.1268725 L5.21358232,11.1699598 L6.96088369,12.6319475 L6.96088369,11.271215 L7.74320988,11.271215 C10.5948509,11.271215 12.9065627,8.97430905 12.9065627,6.14093197 C12.9065627,3.30755489 10.5948509,1.01064894 7.74320988,1.01064894 Z M10.3055556,5.21111111 C10.7995436,5.21111111 11.2,5.61156753 11.2,6.10555556 C11.2,6.59954358 10.7995436,7 10.3055556,7 C9.81156753,7 9.41111111,6.59954358 9.41111111,6.10555556 C9.41111111,5.61156753 9.81156753,5.21111111 10.3055556,5.21111111 Z M7.03888889,5.21111111 C7.53287692,5.21111111 7.93333333,5.61156753 7.93333333,6.10555556 C7.93333333,6.59954358 7.53287692,7 7.03888889,7 C6.54490086,7 6.14444444,6.59954358 6.14444444,6.10555556 C6.14444444,5.61156753 6.54490086,5.21111111 7.03888889,5.21111111 Z M3.77222222,5.21111111 C4.26621025,5.21111111 4.66666667,5.61156753 4.66666667,6.10555556 C4.66666667,6.59954358 4.26621025,7 3.77222222,7 C3.2782342,7 2.87777778,6.59954358 2.87777778,6.10555556 C2.87777778,5.61156753 3.2782342,5.21111111 3.77222222,5.21111111 Z" id="形状结合"></path>
        </g>
    </g>
</svg>