<svg height="14" viewBox="0 0 14 14" width="14" xmlns="http://www.w3.org/2000/svg"><path d="m7 14c-3.86599325 0-7-3.1340068-7-7 0-3.86599325 3.13400675-7 7-7 3.8659932 0 7 3.13400675 7 7 0 3.8659932-3.1340068 7-7 7zm0-7.7420628-2.38690579-2.3869058c-.20491499-.20491498-.53714782-.20491498-.74206281 0-.20491498.20491499-.20491498.53714782 0 .74206281l2.3869058 2.38690579-2.3869058 2.38690579c-.20491498.20491499-.20491498.53714782 0 .74206281.20491499.204915.53714782.204915.74206281 0l2.38690579-2.3869058 2.38690579 2.3869058c.20491499.204915.53714782.204915.74206281 0 .204915-.20491499.204915-.53714782 0-.74206281l-2.3869058-2.38690579 2.3869058-2.38690579c.204915-.20491499.204915-.53714782 0-.74206281-.20491499-.20491498-.53714782-.20491498-.74206281 0z" fill="#fff" opacity=".4"/></svg>