<?xml version="1.0" encoding="UTF-8"?>
<svg width="30px" height="30px" viewBox="0 0 30 30" version="1.1" xmlns="http://www.w3.org/2000/svg" xmlns:xlink="http://www.w3.org/1999/xlink">
    <title>icon_details_games_close</title>
    <g id="icon_details_games_close" stroke="none" stroke-width="1" fill="none" fill-rule="evenodd">
        <g id="编组-5">
            <circle id="椭圆形" stroke="#979797" stroke-width="2" opacity="0.100000001" cx="15" cy="15" r="14"></circle>
            <g id="编组" transform="translate(9.000000, 9.000000)" fill="#FFFFFF" opacity="0.699999988">
                <g id="icon/x">
                    <path d="M10.0403254,0.907278459 C10.3345438,0.678509791 10.7599671,0.699306943 11.0303301,0.969669914 C11.3232233,1.26256313 11.3232233,1.73743687 11.0303301,2.03033009 L11.0303301,2.03033009 L7.061,6 L11.0303301,9.96966991 C11.3232233,10.2625631 11.3232233,10.7374369 11.0303301,11.0303301 C10.7599671,11.3006931 10.3345438,11.3214902 10.0403254,11.0927215 L9.96966991,11.0303301 L6,7.061 L2.03033009,11.0303301 L1.95967458,11.0927215 C1.66545618,11.3214902 1.24003289,11.3006931 0.969669914,11.0303301 C0.676776695,10.7374369 0.676776695,10.2625631 0.969669914,9.96966991 L0.969669914,9.96966991 L4.939,6 L0.969669914,2.03033009 C0.676776695,1.73743687 0.676776695,1.26256313 0.969669914,0.969669914 C1.24003289,0.699306943 1.66545618,0.678509791 1.95967458,0.907278459 L2.03033009,0.969669914 L6,4.939 L9.96966991,0.969669914 Z" id="形状结合"></path>
                </g>
            </g>
        </g>
    </g>
</svg>