<?xml version="1.0" encoding="UTF-8"?>
<svg width="20px" height="20px" viewBox="0 0 20 20" version="1.1" xmlns="http://www.w3.org/2000/svg" xmlns:xlink="http://www.w3.org/1999/xlink">
    <title>icon_detail_arrowdown_all</title>
    <g id="icon_detail_arrowdown_all" stroke="none" stroke-width="1" fill="none" fill-rule="evenodd">
        <g id="编组" fill="#FFFFFF" fill-rule="nonzero">
            <g id="icon/关注备份-8" transform="translate(10.000000, 10.000000) scale(1, -1) translate(-10.000000, -10.000000) ">
                <path d="M9.41074435,9.41074435 C9.73618126,9.08530744 10.2638187,9.08530744 10.5892557,9.41074435 L10.5892557,9.41074435 L15.5892557,14.4107443 C15.9146926,14.7361813 15.9146926,15.2638187 15.5892557,15.5892557 C15.2638187,15.9146926 14.7361813,15.9146926 14.4107443,15.5892557 L14.4107443,15.5892557 L10,11.1785113 L5.58925565,15.5892557 C5.26381874,15.9146926 4.73618126,15.9146926 4.41074435,15.5892557 C4.08530744,15.2638187 4.08530744,14.7361813 4.41074435,14.4107443 L4.41074435,14.4107443 Z M9.41074435,4.41074435 C9.73618126,4.08530744 10.2638187,4.08530744 10.5892557,4.41074435 L10.5892557,4.41074435 L15.5892557,9.41074435 C15.9146926,9.73618126 15.9146926,10.2638187 15.5892557,10.5892557 C15.2638187,10.9146926 14.7361813,10.9146926 14.4107443,10.5892557 L14.4107443,10.5892557 L10,6.1785113 L5.58925565,10.5892557 C5.26381874,10.9146926 4.73618126,10.9146926 4.41074435,10.5892557 C4.08530744,10.2638187 4.08530744,9.73618126 4.41074435,9.41074435 L4.41074435,9.41074435 Z" id="形状结合"></path>
            </g>
        </g>
    </g>
</svg>