<?xml version="1.0" encoding="UTF-8"?>
<svg width="20px" height="20px" viewBox="0 0 20 20" version="1.1" xmlns="http://www.w3.org/2000/svg" xmlns:xlink="http://www.w3.org/1999/xlink">
    <title>icon_detail_bot_follow</title>
    <g id="icon_detail_bot_follow" stroke="none" stroke-width="1" fill="none" fill-rule="evenodd">
        <g id="编组" transform="translate(0.833333, 0.833333)">
            <circle id="椭圆形" fill="#FFFFFF" cx="9.16666667" cy="9.16666667" r="8.25"></circle>
            <polygon id="路径-8" fill="#5078FF" points="11.8061783 3.26764077 14.3341254 0.79567013 14.8679998 3.06377717 17.5178164 3.99783962 14.7881303 6.34727611 12.4392747 5.78275718"></polygon>
            <path d="M11.780528,0.381697733 C12.0680913,0.467276343 12.231485,0.768606647 12.145478,1.0547378 C12.0594711,1.34086896 11.7566326,1.50344892 11.4690693,1.41787032 C7.90231845,0.356408037 4.07194493,1.87017189 2.19271039,5.08489332 C0.312678137,8.30097939 0.872600119,12.3861654 3.54816558,14.9769606 C6.22242439,17.5664906 10.3182212,17.9930145 13.467938,16.0102594 C16.6190469,14.0266281 18.0079726,10.1447751 16.8303922,6.61012223 C16.7359483,6.32663729 16.8903466,6.02064674 17.1752504,5.92667321 C17.4601542,5.83269968 17.7676763,5.98632904 17.8621202,6.26981399 C19.1965841,10.2753718 17.6224874,14.6747517 14.0490607,16.9242332 C10.474242,19.174591 5.82459683,18.690391 2.79010762,15.7520438 C-0.243074939,12.8149619 -0.877531013,8.18597581 1.25315268,4.54111169 C3.38463409,0.894882941 7.7319202,-0.823164796 11.780528,0.381697733 Z M10.4021174,4.1485402 C10.6934618,4.22034916 10.871139,4.5135669 10.7989707,4.80346035 C10.7268023,5.09335379 10.432117,5.2701462 10.1407726,5.19833725 C8.33413982,4.7530484 6.45484802,5.58714089 5.57177606,7.22729358 C4.68799576,8.86876188 5.02649409,10.9007544 6.39411386,12.1663589 C7.76041891,13.4307469 9.80788839,13.6100897 11.3727487,12.6026833 C12.938987,11.5943897 13.6252442,9.65249414 13.0400519,7.88223974 C12.9462686,7.59853774 13.1013793,7.29290411 13.3865013,7.19958791 C13.6716233,7.10627172 13.9787866,7.26060991 14.0725699,7.54431191 C14.8119734,9.78106793 13.9447416,12.2350658 11.9631849,13.510728 C9.98025016,14.7872772 7.38457959,14.559916 5.65387877,12.9583138 C3.92449267,11.3579283 3.49685667,8.79084579 4.61366689,6.71656491 C5.73118545,4.64096841 8.11228773,3.58415566 10.4021174,4.1485402 Z M14.990321,0.366453027 L15.0112594,0.449085556 L15.4290082,2.84533529 L17.8916195,3.31488381 C18.3098647,3.39457079 18.4684546,3.89150424 18.2034627,4.19681715 L18.1447679,4.25514439 L15.2002662,6.78711541 C15.0873676,6.88419662 14.9404572,6.92997464 14.7943865,6.91639652 L14.7071237,6.90106248 L12.6090558,6.35380238 L10.6732296,8.26953282 C10.8258618,8.52693877 10.9134323,8.8270926 10.9134323,9.14759775 C10.9134323,10.1032934 10.1348102,10.8780377 9.17433119,10.8780377 C8.21385218,10.8780377 7.4352301,10.1032934 7.4352301,9.14759775 C7.4352301,8.19190213 8.21385218,7.41715775 9.17433119,7.41715775 C9.41521688,7.41715775 9.64466388,7.46588868 9.85325822,7.55398344 L11.836895,5.59154356 L11.2214589,3.38863821 C11.1763197,3.22714209 11.2093075,3.05564592 11.3074154,2.92310293 L11.3618359,2.86030417 L14.0925946,0.158226743 C14.3835477,-0.129670493 14.8660808,-0.00222992184 14.990321,0.366453027 Z M14.1185956,1.65652301 L12.353408,3.40340219 L12.8855729,5.3077514 L14.7055422,5.78275718 L16.5837714,4.16652623 L14.8564854,3.83778229 C14.6622203,3.80076954 14.5058515,3.662443 14.4438682,3.47998226 L14.4232473,3.39924941 L14.1185956,1.65652301 Z" id="形状结合" fill="#353535" fill-rule="nonzero"></path>
        </g>
    </g>
</svg>