<?xml version="1.0" encoding="UTF-8"?>
<svg width="20px" height="20px" viewBox="0 0 20 20" version="1.1" xmlns="http://www.w3.org/2000/svg" xmlns:xlink="http://www.w3.org/1999/xlink">
    <title>icon_detail_bot_betlist</title>
    <g id="icon_detail_bot_betlist" stroke="none" stroke-width="1" fill="none" fill-rule="evenodd">
        <g id="编组">
            <polygon id="路径" fill="#FFFFFF" fill-rule="nonzero" points="6.73265947 11.8176312 5.46687849 5.76632003 16.7424097 5.87059057 16.1057517 11.5631139"></polygon>
            <circle id="椭圆形" fill="#5078FF" cx="15" cy="7" r="2"></circle>
            <path d="M17.3570497,4.87062064 L5.26924483,4.75425701 L4.79119605,2.50456004 C4.72290337,2.20395398 4.45948873,1.99062064 4.14729361,2.00031761 L2.6155863,2.05849943 C2.26436678,2.0681964 1.98143995,2.35910549 2.00095215,2.7081964 C2.01070825,3.05728731 2.30339117,3.32880246 2.65461069,3.31910549 L3.64973264,3.29001458 L5.52290337,12.0075903 L5.60095215,12.3566813 C5.60095215,12.3663782 5.60095215,12.3663782 5.61070825,12.3760752 L5.98143995,14.1118328 C5.15217166,14.3348631 4.53753751,15.0815297 4.53753751,15.9736509 C4.53753751,17.0403176 5.4058302,17.9033479 6.47900093,17.9033479 C7.55217166,17.9033479 8.42046434,17.0403176 8.42046434,15.9736509 C8.42046434,15.7409237 8.37168386,15.5178934 8.30339117,15.30456 L13.3082692,15.2948631 C13.2302204,15.5081964 13.18144,15.7312267 13.18144,15.9736509 C13.18144,17.0403176 14.0497326,17.9033479 15.1229034,17.9033479 C16.1960741,17.9033479 17.0643668,17.0403176 17.0643668,15.9736509 C17.0643668,15.1881964 16.7424156,14.7324388 16.4692448,14.4997116 C16.1765619,14.2475903 15.7960741,14.0924388 15.3570497,14.0536509 C15.2985131,14.034257 15.2399765,14.034257 15.18144,14.034257 L7.23997654,14.043954 L6.986318,12.8415297 L16.4497326,12.5797116 C16.7619278,12.5700146 17.0253424,12.3372873 17.0643668,12.0366813 L17.9619278,5.59789337 C17.9619278,5.56880246 17.9716839,5.53971155 17.9716839,5.52031761 C17.9911961,5.16152974 17.7082692,4.87062064 17.3570497,4.87062064 Z M6.47900093,16.6427419 C6.10826922,16.6427419 5.8058302,16.3421358 5.8058302,15.9736509 C5.8058302,15.6051661 6.10826922,15.30456 6.47900093,15.30456 C6.84973264,15.30456 7.15217166,15.6051661 7.15217166,15.9736509 C7.15217166,16.3421358 6.84973264,16.6427419 6.47900093,16.6427419 Z M15.1326595,16.6427419 C14.7619278,16.6427419 14.4594887,16.3421358 14.4594887,15.9736509 C14.4594887,15.6051661 14.7619278,15.30456 15.1326595,15.30456 C15.5083959,15.30456 15.8058302,15.5566813 15.8058302,15.9736509 C15.8058302,16.3518328 15.5033912,16.6427419 15.1326595,16.6427419 Z M6.73265947,11.8176312 L5.46687849,5.76632003 L16.7424097,5.87059057 L16.1057517,11.5631139 L6.73265947,11.8176312 Z" id="形状" fill="#353535" fill-rule="nonzero"></path>
        </g>
    </g>
</svg>