<?xml version="1.0" encoding="UTF-8"?>
<svg width="16px" height="12px" viewBox="0 0 16 12" version="1.1" xmlns="http://www.w3.org/2000/svg" xmlns:xlink="http://www.w3.org/1999/xlink">
    <title>icon_tag_killer</title>
    <g id="icon_tag_killer" stroke="none" stroke-width="1" fill="none" fill-rule="evenodd">
        <g id="编组">
            <rect id="矩形" fill="#FF4000" x="0" y="0" width="16" height="10"></rect>
            <path d="M4.02466669,7.063 L5.71866669,6.874 L5.80966669,6.209 L5.16566669,6.293 L5.39666669,4.683 L5.50166669,4.683 L6.24366669,7.056 L7.27266669,7.056 L6.86666669,5.775 L7.48966669,5.565 L7.59466669,4.83 L6.67066669,5.138 L6.53066669,4.683 L7.46166669,4.683 L7.81166669,2.156 L4.71066669,2.156 L4.02466669,7.063 Z M1.44166669,7.049 L3.85666669,6.748 L3.94766669,6.097 L3.50666669,6.153 L3.61866669,5.32 L3.98966669,5.32 L4.08066669,4.641 L3.71666669,4.641 L3.78666669,4.13 L4.22766669,4.13 L4.50066669,2.156 L2.25366669,2.156 L1.98066669,4.13 L2.78566669,4.13 L2.48466669,6.286 L2.26766669,6.314 L2.51966669,4.501 L1.91766669,4.501 L1.65166669,6.398 L1.53266669,6.412 L1.44166669,7.049 Z M3.39466669,3.556 L2.96766669,3.556 L3.07966669,2.751 L3.50666669,2.751 L3.39466669,3.556 Z M6.74766669,3.164 L5.59966669,3.164 L5.65566669,2.786 L6.80366669,2.786 L6.74766669,3.164 Z M6.62166669,4.067 L5.47366669,4.067 L5.52266669,3.689 L6.67066669,3.689 L6.62166669,4.067 Z M9.197,7.056 C9.32766667,7.056 9.4455,7.01283333 9.5505,6.9265 C9.6555,6.84016667 9.71733333,6.72933333 9.736,6.594 L9.736,6.594 L9.953,5.047 L10.247,4.956 L10.352,4.214 L10.058,4.305 L10.177,3.486 L10.45,3.486 L10.548,2.821 L10.268,2.821 L10.38,2.03 L8.987,2.03 L9.162,2.233 L9.078,2.821 L8.623,2.821 L8.525,3.486 L8.987,3.486 L8.819,4.669 L8.343,4.809 L8.238,5.551 L8.714,5.411 L8.567,6.461 L8.021,7.056 L9.197,7.056 Z M11.738,4.032 L12.004,2.814 L13.033,2.814 L12.858,4.032 L14.272,4.032 L14.412,3.066 L14.174,3.332 L14.048,3.332 L14.216,2.156 L10.709,2.156 L10.926,2.408 L10.576,4.032 L11.738,4.032 Z M11.444,7.063 L11.99,6.692 L12.431,7.063 L13.908,7.063 L12.809,6.132 L13.964,5.348 L14.125,4.214 L10.576,4.214 L10.485,4.851 L12.746,4.851 L12.697,5.173 L12.13,5.558 L11.724,5.215 L11.745,5.033 L10.457,5.033 L10.415,5.348 L11.311,6.118 L9.925,7.063 L11.444,7.063 Z" id="跟投" fill="#FFFFFF" fill-rule="nonzero"></path>
            <polygon id="路径-94" fill="#D63600" points="9.09494702e-13 10 9.09494702e-13 12 2.86655105 10"></polygon>
        </g>
    </g>
</svg>