<?xml version="1.0" encoding="UTF-8"?>
<svg width="20px" height="20px" viewBox="0 0 20 20" version="1.1" xmlns="http://www.w3.org/2000/svg" xmlns:xlink="http://www.w3.org/1999/xlink">
    <title>icon_detail_sharedbet_blank</title>
    <g id="icon_detail_sharedbet_blank" stroke="none" stroke-width="1" fill="none" fill-rule="evenodd">
        <g id="编组" transform="translate(2.500000, 1.666667)">
            <path d="M2.29166667,1.04166667 C1.60131073,1.04166667 1.04166667,1.58576506 1.04166667,2.25694444 L1.04166667,14.4097222 C1.04166667,15.0809016 1.60131073,15.625 2.29166667,15.625 L12.2916667,15.625 C12.9820226,15.625 13.5416667,15.0809016 13.5416667,14.4097222 L13.5416667,2.25694444 C13.5416667,1.58576506 12.9820226,1.04166667 12.2916667,1.04166667 L2.29166667,1.04166667 Z" id="路径" fill="#FFFFFF" fill-rule="nonzero"></path>
            <circle id="椭圆形" fill="#5078FF" cx="10.9375" cy="3.64583333" r="3.64583333"></circle>
            <rect id="矩形" fill="#353535" x="3.125" y="7.29166667" width="1.04166667" height="1.04166667" rx="0.5"></rect>
            <rect id="矩形备份-2" fill="#353535" x="5" y="7.29166667" width="5" height="1.04166667" rx="0.5"></rect>
            <rect id="矩形备份" fill="#353535" x="3.125" y="10.4166667" width="5.20833333" height="1.04166667" rx="0.5"></rect>
            <path d="M4.6875,0 L9.89583333,0 C10.7587783,0 11.4583333,0.699555078 11.4583333,1.5625 C11.4583333,2.42544492 10.7587783,3.125 9.89583333,3.125 L4.6875,3.125 C3.82455508,3.125 3.125,2.42544492 3.125,1.5625 C3.125,0.699555078 3.82455508,0 4.6875,0 Z M4.6875,1.04166667 C4.39985169,1.04166667 4.16666667,1.27485169 4.16666667,1.5625 C4.16666667,1.85014831 4.39985169,2.08333333 4.6875,2.08333333 L9.89583333,2.08333333 C10.1834816,2.08333333 10.4166667,1.85014831 10.4166667,1.5625 C10.4166667,1.27485169 10.1834816,1.04166667 9.89583333,1.04166667 L4.6875,1.04166667 Z" id="矩形" fill="#353535" fill-rule="nonzero"></path>
            <path d="M12.1527778,0 C13.4951365,0 14.5833333,1.06598869 14.5833333,2.38095238 L14.5833333,14.2857143 C14.5833333,15.600678 13.4951365,16.6666667 12.1527778,16.6666667 L2.43055556,16.6666667 C1.08819679,16.6666667 0,15.600678 0,14.2857143 L0,2.38095238 C0,1.06598869 1.08819679,0 2.43055556,0 L12.1527778,0 Z M12.2916667,1.04166667 L2.29166667,1.04166667 C1.60131073,1.04166667 1.04166667,1.58576506 1.04166667,2.25694444 L1.04166667,14.4097222 C1.04166667,15.0809016 1.60131073,15.625 2.29166667,15.625 L12.2916667,15.625 C12.9820226,15.625 13.5416667,15.0809016 13.5416667,14.4097222 L13.5416667,2.25694444 C13.5416667,1.58576506 12.9820226,1.04166667 12.2916667,1.04166667 Z" id="形状结合" fill="#353535" fill-rule="nonzero"></path>
        </g>
    </g>
</svg>