<?xml version="1.0" encoding="UTF-8"?>
<svg width="24px" height="24px" viewBox="0 0 24 24" version="1.1" xmlns="http://www.w3.org/2000/svg" xmlns:xlink="http://www.w3.org/1999/xlink">
    <!-- Generator: Sketch 55.2 (78181) - https://sketchapp.com -->
    <title>icon_win_red</title>
    <desc>Created with Sketch.</desc>
    <g id="icon_win_red" stroke="none" stroke-width="1" fill="none" fill-rule="evenodd">
        <g id="icon/底部导航/比赛默认备份">
            <g id="足球场" transform="translate(0.000000, 3.600000)">
                <polygon id="路径" fill="#1CC86D" fill-rule="nonzero" points="0.79081632 0.931122455 23.0612245 0.931122455 23.0612245 16.3137755 0.79081632 16.3137755"></polygon>
                <path d="M19.9795918,5.03571429 L23.1887755,5.03571429 L23.1887755,12.252551 L19.9795918,12.252551 L19.9795918,5.03571429 Z M0.785714292,5.03571429 L3.99489796,5.03571429 L3.99489796,12.252551 L0.785714292,12.252551 L0.785714292,5.03571429 L0.785714292,5.03571429 Z" id="形状" fill="#FFFFFF" fill-rule="nonzero"></path>
                <path d="M21.0280612,0.00255101403 L2.90816327,0.00255101403 C1.30357142,0.00510202806 0.00255101403,1.30612244 0,2.91071428 L0,14.3086735 C0.00255101403,15.9132653 1.30357142,17.2142857 2.90816327,17.2168367 L21.0280612,17.2168367 C22.6326531,17.2142857 23.9336735,15.9132653 23.9362245,14.3086735 L23.9362245,2.91581633 C23.9362245,1.30867347 22.6326531,0.00510204719 21.0280612,0.00255101403 Z M11.4617347,10.9566327 C10.3622449,10.7270408 9.54591836,9.76530612 9.54591836,8.61224489 C9.54591836,7.45918366 10.3596939,6.49744898 11.4464286,6.27040816 L11.4617347,10.9566327 Z M12.4183674,6.26785714 C13.5178572,6.49744898 14.3341837,7.45918368 14.3341837,8.61224489 C14.3341837,9.7653061 13.5204082,10.7270408 12.4336735,10.9540816 L12.4183674,6.26785714 Z M0.938775517,5.26275511 L3.00510205,5.26275511 C3.48214286,5.26275511 3.86989797,5.65051022 3.86989797,6.12755103 L3.86989797,11.0969388 C3.86989797,11.5739796 3.48214286,11.9617347 3.00510205,11.9617347 L0.938775517,11.9617347 L0.938775517,5.26275511 Z M0.938775517,14.3137755 L0.938775517,12.9158163 L3.00510205,12.9158163 C4.01275511,12.9158163 4.82653062,12.0994898 4.82653062,11.0943878 L4.82653062,6.14285715 C4.82653062,5.13520408 4.01020408,4.32142858 3.00510205,4.32142858 L0.938775517,4.32142858 L0.938775517,2.9260204 C0.941326531,1.84948978 1.81377551,0.977040804 2.89030613,0.97448979 L11.4617347,0.97448979 L11.4617347,5.31887755 C9.84183673,5.57142857 8.61734694,6.95663265 8.61734694,8.62755101 C8.61734694,10.2984694 9.84183673,11.6836735 11.4413265,11.9362245 L11.4591837,16.2806122 L2.89285714,16.2806122 C1.8112245,16.2806122 0.936224483,15.4056122 0.936224483,14.3239796 C0.936224483,14.3188776 0.938775497,14.3163265 0.938775517,14.3137755 Z M21.0280612,16.2653061 L12.4183674,16.2653061 L12.4183674,11.9209184 C14.0382653,11.6683674 15.2627551,10.2831633 15.2627551,8.60969388 C15.2627551,6.93622448 14.0382653,5.55357143 12.4387755,5.30102041 L12.4209184,0.956632653 L21.0306122,0.956632653 C22.1071429,0.959183667 22.9795918,1.83163265 22.9821429,2.90816327 L22.9821429,4.30612246 L21.0306122,4.30612246 C20.0229592,4.30612246 19.2091837,5.12244899 19.2091837,6.12755103 L19.2091837,11.0969388 C19.2091837,12.1045918 20.0255102,12.9183673 21.0306122,12.9183673 L22.9438776,12.9183673 L22.9438776,14.3163265 C22.9362245,15.380102 22.0841837,16.242347 21.0280612,16.2653061 Z M22.9795918,5.26275511 L22.9795918,11.9591837 L21.0280612,11.9591837 C20.5510204,11.9591837 20.1632653,11.5714286 20.1632653,11.0943878 L20.1632653,6.14285715 C20.1632653,5.66581634 20.5510204,5.27806123 21.0280612,5.27806123 L22.9413265,5.27806123 L22.9795918,5.26275511 Z" id="形状" fill="#42443F" fill-rule="nonzero"></path>
            </g>
        </g>
    </g>
</svg>