<?xml version="1.0" encoding="UTF-8"?>
<svg width="20px" height="20px" viewBox="0 0 20 20" version="1.1" xmlns="http://www.w3.org/2000/svg" xmlns:xlink="http://www.w3.org/1999/xlink">
    <title>icon_detail_deta_blank</title>
    <g id="icon_detail_deta_blank" stroke="none" stroke-width="1" fill="none" fill-rule="evenodd">
        <g id="icon/关注备份-6">
            <polygon id="路径" fill="#FFFFFF" fill-rule="nonzero" points="2.70833333 3.85416667 2.70833333 13.6458333 17.5 13.6458333 17.5 3.85416667"></polygon>
            <circle id="椭圆形" fill="#5078FF" cx="14.5833333" cy="6.25" r="2.91666667"></circle>
            <path d="M2.08333333,3.33333333 C2.08333333,3.04568503 2.31348998,2.8125 2.5974026,2.8125 L17.4025974,2.8125 C17.68651,2.8125 17.9166667,3.04568503 17.9166667,3.33333333 L17.9166667,14.1666667 C17.9166667,14.454315 17.68651,14.6875 17.4025974,14.6875 L2.5974026,14.6875 C2.31348998,14.6875 2.08333333,14.454315 2.08333333,14.1666667 L2.08333333,3.33333333 Z M3.11147186,3.85416667 L3.11147186,13.6458333 L16.8885281,13.6458333 L16.8885281,3.85416667 L3.11147186,3.85416667 Z" id="矩形" fill="#353535" fill-rule="nonzero"></path>
            <path d="M0.539954147,3.85416667 L19.4600459,3.85416667 C19.7582543,3.85416667 20,3.62098164 20,3.33333333 C20,3.04568503 19.7582543,2.8125 19.4600459,2.8125 L0.539954147,2.8125 C0.241745706,2.8125 0,3.04568503 0,3.33333333 C0,3.62098164 0.241745706,3.85416667 0.539954147,3.85416667 Z" id="路径-19" fill="#353535" fill-rule="nonzero"></path>
            <path d="M9.27083333,11.1458333 C9.461005,11.3993956 9.83166532,11.4257376 10.0557848,11.2016181 L13.3891181,7.86828478 C13.5925162,7.66488671 13.5925162,7.33511329 13.3891181,7.13171522 C13.18572,6.92831715 12.8559466,6.92831715 12.6525486,7.13171522 L9.74385114,10.0404126 L7.60416667,7.1875 C7.39583333,6.90972222 6.97916667,6.90972222 6.77083333,7.1875 L4.27083333,10.5208333 C4.09824435,10.750952 4.14488135,11.077411 4.375,11.25 C4.60511865,11.422589 4.93157768,11.375952 5.10416667,11.1458333 L7.1875,8.36805556 L9.27083333,11.1458333 Z" id="路径-23" fill="#353535" fill-rule="nonzero"></path>
            <path d="M14.5907362,6.66666667 L14.6875,6.5699029 C14.8908981,6.36650483 14.8908981,6.0367314 14.6875,5.83333333 C14.4841019,5.62993526 14.1543285,5.62993526 13.9509304,5.83333333 L13.8541667,5.9300971 C13.6507686,6.13349517 13.6507686,6.4632686 13.8541667,6.66666667 C14.0575647,6.87006474 14.3873382,6.87006474 14.5907362,6.66666667 Z" id="路径-27" fill="#353535" fill-rule="nonzero"></path>
            <path d="M9.52295592,14.9254612 L13.2991128,18.7016181 C13.5025109,18.9050162 13.8322843,18.9050162 14.0356824,18.7016181 C14.2390805,18.49822 14.2390805,18.1684466 14.0356824,17.9650486 L9.8912407,13.8206068 C9.68784263,13.6172088 9.35806921,13.6172088 9.15467114,13.8206068 L5.01022943,17.9650486 C4.80683137,18.1684466 4.80683137,18.49822 5.01022943,18.7016181 C5.2136275,18.9050162 5.54340093,18.9050162 5.746799,18.7016181 L9.52295592,14.9254612 Z" id="路径-52" fill="#353535" fill-rule="nonzero"></path>
        </g>
    </g>
</svg>