<?xml version="1.0" encoding="UTF-8"?>
<svg width="48px" height="41px" viewBox="0 0 48 41" version="1.1" xmlns="http://www.w3.org/2000/svg" xmlns:xlink="http://www.w3.org/1999/xlink">
    <title>编组 2</title>
    <g id="3.11" stroke="none" stroke-width="1" fill="none" fill-rule="evenodd">
        <g id="欧洲杯-缺省" transform="translate(-164.000000, -289.000000)" fill-rule="nonzero">
            <g id="编组-2" transform="translate(164.000000, 289.000000)">
                <path d="M41.941915,20.925 C41.56748,20.925 41.0994363,21.0166667 40.6313925,21.2 C40.1633488,19.7333333 39.3208701,19 38.1975652,19 C37.542304,19 36.6998253,19.1833333 35.9509553,19.7333333 C35.2956941,18.3583333 34.2659979,18.0833333 33.5171279,18.0833333 C32.8618667,18.0833333 32.3002142,18.2666667 31.644953,18.725 L31.644953,14.325 C31.1769092,11.2083333 29.1175169,10.75 27.9006031,10.75 C26.7772982,10.75 24.624297,11.2083333 24.1562533,14.2333333 L24.1562533,28.625 C22.5649047,27.25 20.7863385,26.3333333 19.0077723,27.4333333 C18.3525111,27.8 17.9780761,28.4416667 17.7908586,29.2666667 C17.6036411,30.55 18.0716849,32.1083334 19.0077723,33.3916667 L27.4325594,43.75 L38.5720002,43.75 C40.9122188,43.75 43.8140899,42.4666667 44.6565686,36.5083333 L44.7501774,24.5 C44.7501774,22.1166667 43.8140899,20.925 41.941915,20.925 Z M42.7501774,36.221875 C42.0086997,41.75 39.4135281,41.75 38.5793658,41.75 L28.3840487,41.75 L20.5985337,32.234375 C20.0424255,31.509375 19.6716867,30.421875 19.7643714,29.60625 C19.8570562,29.334375 19.9497408,29.0625 20.1351102,28.971875 C20.505849,28.790625 21.4326961,28.15625 24.4912912,31.41875 L26.1596158,33.23125 L26.1596158,14.653125 C26.3449852,12.93125 27.1791476,12.75 27.9206251,12.75 C28.6621028,12.75 29.4962651,13.021875 29.7743192,14.653125 L29.7743192,24.53125 C29.7743192,25.075 30.145058,25.4375 30.7011662,25.4375 C31.2572744,25.4375 31.6280132,25.075 31.6280132,24.53125 L31.6280132,21.26875 C32.2768061,20.453125 32.925599,20 33.4817072,20 C33.7597613,20 34.3158695,20 34.4085542,21.903125 L34.4085542,25.4375 C34.4085542,25.98125 34.779293,26.34375 35.3354013,26.34375 C35.8915095,26.34375 36.2622483,25.98125 36.2622483,25.4375 L36.2622483,22.084375 C36.9110412,21.0875 37.6525188,20.90625 38.1159423,20.90625 C38.4866811,20.90625 38.8574199,21.540625 39.0427893,22.71875 L39.0427893,26.34375 C39.0427893,26.8875 39.4135281,27.25 39.9696363,27.25 C40.5257445,27.25 40.8964833,26.8875 40.8964833,26.34375 L40.8964833,23.171875 C41.3599069,22.809375 41.7306456,22.71875 41.8233303,22.71875 C42.2867538,22.71875 42.7501774,22.71875 42.7501774,24.53125 L42.7501774,36.221875 L42.7501774,36.221875 Z" id="形状" fill="#FFFFFF" opacity="0.699999988" transform="translate(31.250177, 27.250000) rotate(-90.000000) translate(-31.250177, -27.250000) "></path>
                <path d="M8.55271929,0.402756551 L8.62175289,0.50973876 L15.3717529,12.5097388 C15.6425167,12.9910966 15.4717965,13.6008117 14.9904386,13.8715755 C14.5434634,14.1229991 13.9858129,13.9937553 13.6916404,13.588607 L13.6286018,13.4902612 L8.75017735,4.817 L8.75017735,28.75 C8.75017735,29.3022847 8.3024621,29.75 7.75017735,29.75 C7.23734151,29.75 6.81467019,29.3639598 6.75690508,28.8666211 L6.75017735,28.75 L6.75017735,4.817 L1.87175289,13.4902612 C1.62032936,13.9372364 1.0766468,14.1163659 0.614858579,13.9228866 L0.509916113,13.8715755 C0.0629409412,13.620152 -0.116188501,13.0764695 0.0772907242,12.6146812 L0.128601816,12.5097388 L6.87860182,0.50973876 C7.23966677,-0.132154493 8.13256207,-0.16781523 8.55271929,0.402756551 L8.55271929,0.402756551 Z" id="路径-15" fill="#5078FF"></path>
            </g>
        </g>
    </g>
</svg>