<?xml version="1.0" encoding="UTF-8"?>
<svg width="16px" height="16px" viewBox="0 0 16 16" version="1.1" xmlns="http://www.w3.org/2000/svg" xmlns:xlink="http://www.w3.org/1999/xlink">
    <!-- Generator: Sketch 55.2 (78181) - https://sketchapp.com -->
    <title>ico/nav/联赛备份_4_slice</title>
    <desc>Created with Sketch.</desc>
    <g id="Symbols" stroke="none" stroke-width="1" fill="none" fill-rule="evenodd" opacity="0.200000003">
        <g id="画板" transform="translate(-285.000000, -75.000000)" fill="#071125">
            <g id="ico/锁盘" transform="translate(285.000000, 75.000000)">
                <g id="形状-2" transform="translate(2.400000, 1.600000)">
                    <path d="M9.16774193,4.56 L9.16774193,3.2 C9.16774193,1.48 7.54193547,0 5.59999999,0 C3.65806451,0 2.03225805,1.48 2.03225807,3.2 L2.03225807,4.56 C0.903225811,4.56 0,5.4 0,6.4 L0,10.96 C0,11.96 0.903225811,12.8 2.03225807,12.8 L9.16774193,12.8 C10.2967742,12.8 11.2,11.96 11.2,10.96 L11.2,6.4 C11.2,5.4 10.2967742,4.56 9.16774193,4.56 Z M6.09677419,8.24 L6.09677419,10.52 C6.09677419,10.8 5.87096774,10.96 5.59999999,10.96 C5.28387095,10.96 5.10322579,10.76 5.10322581,10.52 L5.10322581,8.24 C4.47096775,8.24 4.06451612,7.88 4.06451612,7.31999999 C4.06451612,6.75999998 4.47096773,6.4 5.10322581,6.4 L6.14193548,6.4 C6.77419354,6.4 7.18064516,6.76 7.18064516,7.31999999 C7.13548388,7.87999999 6.72903227,8.23999998 6.09677419,8.24 L6.09677419,8.24 Z M3.65806451,4.56 C3.65806451,4.36 3.56774194,4.27999999 3.56774194,4.11999999 L3.56774194,3.2 C3.56774194,2.2 4.47096775,1.36 5.59999999,1.36 C6.72903223,1.36 7.63225806,2.2 7.63225806,3.2 L7.63225806,4.11999999 C7.63225806,4.31999999 7.63225806,4.4 7.54193549,4.56 L3.65806451,4.56 Z" id="形状"></path>
                </g>
            </g>
        </g>
    </g>
</svg>