<?xml version="1.0" encoding="UTF-8"?>
<svg width="26px" height="14px" viewBox="0 0 26 14" version="1.1" xmlns="http://www.w3.org/2000/svg" xmlns:xlink="http://www.w3.org/1999/xlink">
    <!-- Generator: Sketch 55.2 (78181) - https://sketchapp.com -->
    <title>ico/单场比赛/6节_slice</title>
    <desc>Created with Sketch.</desc>
    <g id="Z切图" stroke="none" stroke-width="1" fill="none" fill-rule="evenodd">
        <g id="画板" transform="translate(-23.000000, -3849.000000)">
            <g id="ico/单场比赛/6节" transform="translate(23.000000, 3849.000000)">
                <path d="M4.32289621,-2.27373675e-13 L21.6771038,-2.27373675e-13 C23.1801701,-2.27373675e-13 23.7255901,0.186 24.2752251,0.534 C24.8248601,0.883 25.2556323,1.394 25.5498388,2.046 C25.8432023,2.698 26,3.345 26,5.128 L26,8.872 C26,10.655 25.8432023,11.302 25.5498388,11.954 C25.2623685,12.598193 24.8182788,13.1249907 24.2752251,13.466 C23.7255901,13.814 23.1801701,14 21.6771038,14 L4.32289621,14 C2.81982992,14 2.2744099,13.814 1.72477489,13.466 C1.18172118,13.1249907 0.737631517,12.598193 0.450161189,11.954 C0.156797717,11.302 0,10.655 0,8.872 L0,5.128 C0,3.345 0.156797717,2.698 0.450161189,2.046 C0.737631517,1.40180701 1.18172118,0.875009308 1.72477489,0.534 C2.2744099,0.186 2.81982992,-2.27373675e-13 4.32289621,-2.27373675e-13 Z" id="形状" fill="#FFFFFF" fill-rule="nonzero" opacity="0.1"></path>
                <path d="M14.8482143,4.42307692 L14.8482143,6.02884615 L15.875,6.02884615 L15.875,6.93269231 L14.8482143,6.93269231 L14.8482143,9.74038462 C14.8482143,9.85576923 14.8660714,9.94230769 14.9196429,10.0096154 C14.9732143,10.0673077 15.0446429,10.0961538 15.1517857,10.0961538 L15.7589286,10.0961538 L15.7589286,11 L14.9821429,11 C14.5803571,11 14.2857143,10.8846154 14.0982143,10.6538462 C13.9196429,10.4423077 13.8303571,10.1442308 13.8303571,9.74038462 L13.8303571,6.93269231 L13,6.93269231 L13,6.02884615 L13.8303571,6.02884615 L13.8303571,4.875 L14.8482143,4.42307692 Z M16.6339286,4 L17.6517857,4 L17.6517857,6.69230769 C17.8214286,6.41346154 18.0357143,6.21153846 18.2857143,6.07692308 C18.5089286,5.95192308 18.7678571,5.89423077 19.0625,5.89423077 C19.625,5.89423077 20.0446429,6.06730769 20.3214286,6.42307692 C20.5803571,6.75961538 20.7142857,7.25961538 20.7142857,7.92307692 L20.7142857,11 L19.6964286,11 L19.6964286,8.11538462 C19.6964286,7.69230769 19.6160714,7.36538462 19.4642857,7.14423077 C19.2857143,6.90384615 19.0267857,6.78846154 18.6785714,6.78846154 C18.3571429,6.78846154 18.1071429,6.92307692 17.9285714,7.19230769 C17.7410714,7.46153846 17.6517857,7.79807692 17.6517857,8.22115385 L17.6517857,11 L16.6339286,11 L16.6339286,4 Z" id="th" fill="#D2E4FF" opacity="0.5"></path>
                <path d="M7.57244049,2.992 C9.09044049,2.992 9.95944049,3.696 10.1574405,5.126 L8.99144049,5.126 C8.82644049,4.356 8.35344049,3.982 7.56144049,3.982 C7.01144049,3.982 6.58244049,4.246 6.26344049,4.785 C5.94444049,5.291 5.79044049,5.918 5.79044049,6.688 C5.79044049,6.721 5.79044049,6.765 5.80144049,6.831 L5.84544049,6.831 C6.06544049,6.479 6.34044049,6.226 6.68144049,6.061 C6.98944049,5.896 7.35244049,5.819 7.77044049,5.819 C8.54044049,5.819 9.15644049,6.061 9.61844049,6.545 C10.0694405,7.04 10.3004405,7.678 10.3004405,8.448 C10.3004405,9.229 10.0364405,9.878 9.51944049,10.384 C8.99144049,10.89 8.33144049,11.154 7.56144049,11.154 C6.59344049,11.154 5.86744049,10.802 5.36144049,10.098 C4.87744049,9.427 4.63544049,8.492 4.63544049,7.293 C4.63544049,6.017 4.88844049,4.983 5.41644049,4.191 C5.94444049,3.388 6.67044049,2.992 7.57244049,2.992 Z M7.52844049,6.787 C7.03344049,6.787 6.64844049,6.941 6.36244049,7.249 C6.07644049,7.557 5.93344049,7.964 5.93344049,8.481 C5.93344049,8.987 6.07644049,9.394 6.37344049,9.702 C6.65944049,10.01 7.04444049,10.164 7.51744049,10.164 C8.00144049,10.164 8.38644049,9.999 8.67244049,9.68 C8.96944049,9.35 9.12344049,8.943 9.12344049,8.448 C9.12344049,7.942 8.98044049,7.535 8.69444049,7.249 C8.40844049,6.941 8.01244049,6.787 7.52844049,6.787 Z" id="6" fill="#D2E4FF" fill-rule="nonzero"></path>
            </g>
        </g>
    </g>
</svg>