<?xml version="1.0" encoding="UTF-8"?>
<svg width="28px" height="14px" viewBox="0 0 28 14" version="1.1" xmlns="http://www.w3.org/2000/svg" xmlns:xlink="http://www.w3.org/1999/xlink">
    <!-- Generator: Sketch 55.2 (78181) - https://sketchapp.com -->
    <title>ico/单场比赛/2节_slice</title>
    <desc>Created with Sketch.</desc>
    <g id="Z切图" stroke="none" stroke-width="1" fill="none" fill-rule="evenodd">
        <g id="画板" transform="translate(-69.000000, -1549.000000)">
            <g id="ico/单场比赛/2节" transform="translate(69.000000, 1549.000000)">
                <path d="M4.65542669,-2.27373675e-13 L23.3445733,-2.27373675e-13 C24.9632601,-2.27373675e-13 25.5506355,0.186 26.1425501,0.534 C26.7344647,0.883 27.1983733,1.394 27.515211,2.046 C27.8311409,2.698 28,3.345 28,5.128 L28,8.872 C28,10.655 27.8311409,11.302 27.515211,11.954 C27.2056276,12.598193 26.7273772,13.1249907 26.1425501,13.466 C25.5506355,13.814 24.9632601,14 23.3445733,14 L4.65542669,14 C3.03673991,14 2.44936451,13.814 1.85744988,13.466 C1.27262281,13.1249907 0.794372403,12.598193 0.484788972,11.954 C0.16885908,11.302 0,10.655 0,8.872 L0,5.128 C0,3.345 0.16885908,2.698 0.484788972,2.046 C0.794372403,1.40180701 1.27262281,0.875009308 1.85744988,0.534 C2.44936451,0.186 3.03673991,-2.27373675e-13 4.65542669,-2.27373675e-13 Z" id="形状" fill="#FFFFFF" fill-rule="nonzero" opacity="0.1"></path>
                <g id="编组" transform="translate(5.000000, 3.000000)" fill="#D2E4FF">
                    <path d="M2.85714286,0 C3.61538462,0 4.24175824,0.21978022 4.73626374,0.659340659 C5.21978022,1.0989011 5.46153846,1.65934066 5.46153846,2.36263736 C5.46153846,3.04395604 5.1978022,3.65934066 4.69230769,4.21978022 C4.38461538,4.54945055 3.83516484,4.96703297 3.06593407,5.48351648 C2.26373626,6.01098901 1.78021978,6.47252747 1.6043956,6.86813187 L5.47252747,6.86813187 L5.47252747,8 L1.99840144e-13,8 C1.99840144e-13,7.1978022 0.252747253,6.50549451 0.78021978,5.91208791 C1.06593407,5.58241758 1.67032967,5.0989011 2.58241758,4.47252747 C3.08791209,4.12087912 3.43956044,3.82417582 3.65934066,3.59340659 C4,3.20879121 4.17582418,2.79120879 4.17582418,2.35164835 C4.17582418,1.92307692 4.05494505,1.6043956 3.83516484,1.3956044 C3.6043956,1.18681319 3.26373626,1.08791209 2.81318681,1.08791209 C2.32967033,1.08791209 1.96703297,1.25274725 1.72527473,1.58241758 C1.48351648,1.89010989 1.35164835,2.36263736 1.32967033,2.97802198 L0.043956044,2.97802198 C0.0549450549,2.0989011 0.307692308,1.3956044 0.813186813,0.857142857 C1.32967033,0.285714286 2.01098901,0 2.85714286,0 Z" id="2"></path>
                    <path d="M10.5188679,2.85849057 C11.7358491,2.85849057 12.3490566,3.51886792 12.3490566,4.85849057 L12.3490566,7.86792453 L11.2735849,7.86792453 L11.2735849,4.95283019 C11.2735849,4.1509434 10.9056604,3.75471698 10.1698113,3.75471698 C9.90566038,3.75471698 9.66981132,3.8490566 9.47169811,4.03773585 C9.24528302,4.24528302 9.11320755,4.54716981 9.0754717,4.93396226 L9.0754717,7.86792453 L8,7.86792453 L8,2.99056604 L9.0754717,2.99056604 L9.0754717,3.55660377 C9.26415094,3.33018868 9.48113208,3.1509434 9.71698113,3.03773585 C9.96226415,2.91509434 10.2264151,2.85849057 10.5188679,2.85849057 Z M16.4811321,1 L17.5566038,1 L17.5566038,7.86792453 L16.5566038,7.86792453 L16.5566038,7.3490566 C16.2169811,7.78301887 15.7264151,8 15.0849057,8 C14.3584906,8 13.7924528,7.74528302 13.3867925,7.23584906 C13.009434,6.76415094 12.8207547,6.1509434 12.8207547,5.40566038 C12.8207547,4.68867925 13,4.09433962 13.3773585,3.62264151 C13.7735849,3.11320755 14.3301887,2.85849057 15.0283019,2.85849057 C15.5943396,2.85849057 16.0754717,3.12264151 16.4811321,3.66037736 L16.4811321,1 Z M15.2830189,3.72641509 C14.7924528,3.72641509 14.4433962,3.88679245 14.2169811,4.20754717 C14.0188679,4.48113208 13.9245283,4.87735849 13.9245283,5.40566038 C13.9245283,5.93396226 14.009434,6.33962264 14.1981132,6.62264151 C14.4150943,6.96226415 14.7641509,7.13207547 15.245283,7.13207547 C15.6603774,7.13207547 15.990566,6.96226415 16.2169811,6.63207547 C16.4150943,6.33018868 16.5188679,5.93396226 16.5188679,5.46226415 L16.5188679,5.38679245 C16.5188679,4.86792453 16.3867925,4.45283019 16.1415094,4.1509434 C15.9150943,3.86792453 15.6226415,3.72641509 15.2830189,3.72641509 Z" id="nd" opacity="0.5"></path>
                </g>
            </g>
        </g>
    </g>
</svg>