<?xml version="1.0" encoding="UTF-8"?>
<svg width="26px" height="14px" viewBox="0 0 26 14" version="1.1" xmlns="http://www.w3.org/2000/svg" xmlns:xlink="http://www.w3.org/1999/xlink">
    <!-- Generator: Sketch 55.2 (78181) - https://sketchapp.com -->
    <title>ico/单场比赛/9节_slice</title>
    <desc>Created with Sketch.</desc>
    <g id="Z切图" stroke="none" stroke-width="1" fill="none" fill-rule="evenodd">
        <g id="画板" transform="translate(-237.000000, -3849.000000)">
            <g id="ico/单场比赛/9节" transform="translate(237.000000, 3849.000000)">
                <path d="M4.32289621,-2.27373675e-13 L21.6771038,-2.27373675e-13 C23.1801701,-2.27373675e-13 23.7255901,0.186 24.2752251,0.534 C24.8248601,0.883 25.2556323,1.394 25.5498388,2.046 C25.8432023,2.698 26,3.345 26,5.128 L26,8.872 C26,10.655 25.8432023,11.302 25.5498388,11.954 C25.2623685,12.598193 24.8182788,13.1249907 24.2752251,13.466 C23.7255901,13.814 23.1801701,14 21.6771038,14 L4.32289621,14 C2.81982992,14 2.2744099,13.814 1.72477489,13.466 C1.18172118,13.1249907 0.737631517,12.598193 0.450161189,11.954 C0.156797717,11.302 0,10.655 0,8.872 L0,5.128 C0,3.345 0.156797717,2.698 0.450161189,2.046 C0.737631517,1.40180701 1.18172118,0.875009308 1.72477489,0.534 C2.2744099,0.186 2.81982992,-2.27373675e-13 4.32289621,-2.27373675e-13 Z" id="形状" fill="#FFFFFF" fill-rule="nonzero" opacity="0.1"></path>
                <path d="M14.8482143,4.42307692 L14.8482143,6.02884615 L15.875,6.02884615 L15.875,6.93269231 L14.8482143,6.93269231 L14.8482143,9.74038462 C14.8482143,9.85576923 14.8660714,9.94230769 14.9196429,10.0096154 C14.9732143,10.0673077 15.0446429,10.0961538 15.1517857,10.0961538 L15.7589286,10.0961538 L15.7589286,11 L14.9821429,11 C14.5803571,11 14.2857143,10.8846154 14.0982143,10.6538462 C13.9196429,10.4423077 13.8303571,10.1442308 13.8303571,9.74038462 L13.8303571,6.93269231 L13,6.93269231 L13,6.02884615 L13.8303571,6.02884615 L13.8303571,4.875 L14.8482143,4.42307692 Z M16.6339286,4 L17.6517857,4 L17.6517857,6.69230769 C17.8214286,6.41346154 18.0357143,6.21153846 18.2857143,6.07692308 C18.5089286,5.95192308 18.7678571,5.89423077 19.0625,5.89423077 C19.625,5.89423077 20.0446429,6.06730769 20.3214286,6.42307692 C20.5803571,6.75961538 20.7142857,7.25961538 20.7142857,7.92307692 L20.7142857,11 L19.6964286,11 L19.6964286,8.11538462 C19.6964286,7.69230769 19.6160714,7.36538462 19.4642857,7.14423077 C19.2857143,6.90384615 19.0267857,6.78846154 18.6785714,6.78846154 C18.3571429,6.78846154 18.1071429,6.92307692 17.9285714,7.19230769 C17.7410714,7.46153846 17.6517857,7.79807692 17.6517857,8.22115385 L17.6517857,11 L16.6339286,11 L16.6339286,4 Z" id="th" fill="#D2E4FF" opacity="0.5"></path>
                <path d="M7.37444049,2.992 C8.33144049,2.992 9.05744049,3.333 9.56344049,4.037 C10.0474405,4.708 10.3004405,5.643 10.3004405,6.853 C10.3004405,8.129 10.0364405,9.163 9.51944049,9.955 C8.98044049,10.747 8.26544049,11.154 7.36344049,11.154 C5.83444049,11.154 4.97644049,10.439 4.77844049,9.02 L5.94444049,9.02 C6.09844049,9.779 6.58244049,10.164 7.37444049,10.164 C7.91344049,10.164 8.34244049,9.889 8.67244049,9.361 C8.98044049,8.855 9.14544049,8.217 9.14544049,7.458 C9.14544049,7.414 9.13444049,7.37 9.13444049,7.315 L9.09044049,7.315 C8.87044049,7.656 8.58444049,7.909 8.25444049,8.085 C7.93544049,8.239 7.57244049,8.327 7.16544049,8.327 C6.39544049,8.327 5.76844049,8.074 5.30644049,7.579 C4.85544049,7.095 4.63544049,6.468 4.63544049,5.698 C4.63544049,4.906 4.88844049,4.268 5.41644049,3.762 C5.94444049,3.245 6.59344049,2.992 7.37444049,2.992 Z M7.41844049,3.982 C6.93444049,3.982 6.53844049,4.136 6.25244049,4.466 C5.95544049,4.785 5.81244049,5.192 5.81244049,5.698 C5.81244049,6.204 5.95544049,6.6 6.25244049,6.897 C6.52744049,7.205 6.91244049,7.359 7.40744049,7.359 C7.89144049,7.359 8.28744049,7.205 8.57344049,6.897 C8.85944049,6.589 9.00244049,6.171 9.00244049,5.665 C9.00244049,5.148 8.84844049,4.741 8.56244049,4.444 C8.26544049,4.136 7.88044049,3.982 7.41844049,3.982 Z" id="9" fill="#D2E4FF" fill-rule="nonzero"></path>
            </g>
        </g>
    </g>
</svg>