<?xml version="1.0" encoding="UTF-8"?>
<svg width="26px" height="14px" viewBox="0 0 26 14" version="1.1" xmlns="http://www.w3.org/2000/svg" xmlns:xlink="http://www.w3.org/1999/xlink">
    <!-- Generator: Sketch 55.2 (78181) - https://sketchapp.com -->
    <title>ico/单场比赛/5节_slice</title>
    <desc>Created with Sketch.</desc>
    <g id="Z切图" stroke="none" stroke-width="1" fill="none" fill-rule="evenodd">
        <g id="画板" transform="translate(-261.000000, -1583.000000)">
            <g id="ico/单场比赛/5节" transform="translate(261.000000, 1583.000000)">
                <path d="M4.32289621,-2.27373675e-13 L21.6771038,-2.27373675e-13 C23.1801701,-2.27373675e-13 23.7255901,0.186 24.2752251,0.534 C24.8248601,0.883 25.2556323,1.394 25.5498388,2.046 C25.8432023,2.698 26,3.345 26,5.128 L26,8.872 C26,10.655 25.8432023,11.302 25.5498388,11.954 C25.2623685,12.598193 24.8182788,13.1249907 24.2752251,13.466 C23.7255901,13.814 23.1801701,14 21.6771038,14 L4.32289621,14 C2.81982992,14 2.2744099,13.814 1.72477489,13.466 C1.18172118,13.1249907 0.737631517,12.598193 0.450161189,11.954 C0.156797717,11.302 0,10.655 0,8.872 L0,5.128 C0,3.345 0.156797717,2.698 0.450161189,2.046 C0.737631517,1.40180701 1.18172118,0.875009308 1.72477489,0.534 C2.2744099,0.186 2.81982992,-2.27373675e-13 4.32289621,-2.27373675e-13 Z" id="形状" fill="#FFFFFF" fill-rule="nonzero" opacity="0.1"></path>
                <path d="M14.8482143,4.42307692 L14.8482143,6.02884615 L15.875,6.02884615 L15.875,6.93269231 L14.8482143,6.93269231 L14.8482143,9.74038462 C14.8482143,9.85576923 14.8660714,9.94230769 14.9196429,10.0096154 C14.9732143,10.0673077 15.0446429,10.0961538 15.1517857,10.0961538 L15.7589286,10.0961538 L15.7589286,11 L14.9821429,11 C14.5803571,11 14.2857143,10.8846154 14.0982143,10.6538462 C13.9196429,10.4423077 13.8303571,10.1442308 13.8303571,9.74038462 L13.8303571,6.93269231 L13,6.93269231 L13,6.02884615 L13.8303571,6.02884615 L13.8303571,4.875 L14.8482143,4.42307692 Z M16.6339286,4 L17.6517857,4 L17.6517857,6.69230769 C17.8214286,6.41346154 18.0357143,6.21153846 18.2857143,6.07692308 C18.5089286,5.95192308 18.7678571,5.89423077 19.0625,5.89423077 C19.625,5.89423077 20.0446429,6.06730769 20.3214286,6.42307692 C20.5803571,6.75961538 20.7142857,7.25961538 20.7142857,7.92307692 L20.7142857,11 L19.6964286,11 L19.6964286,8.11538462 C19.6964286,7.69230769 19.6160714,7.36538462 19.4642857,7.14423077 C19.2857143,6.90384615 19.0267857,6.78846154 18.6785714,6.78846154 C18.3571429,6.78846154 18.1071429,6.92307692 17.9285714,7.19230769 C17.7410714,7.46153846 17.6517857,7.79807692 17.6517857,8.22115385 L17.6517857,11 L16.6339286,11 L16.6339286,4 Z" id="th" fill="#D2E4FF" opacity="0.5"></path>
                <path d="M5.20744049,3.146 L9.93744049,3.146 L9.93744049,4.202 L6.17544049,4.202 L5.94444049,6.468 L5.97744049,6.468 C6.21944049,6.215 6.49444049,6.039 6.81344049,5.929 C7.09944049,5.808 7.42944049,5.753 7.78144049,5.753 C8.51844049,5.753 9.12344049,5.995 9.58544049,6.479 C10.0474405,6.963 10.2894405,7.623 10.2894405,8.47 C10.2894405,9.284 9.98144049,9.944 9.38744049,10.461 C8.82644049,10.923 8.15544049,11.154 7.37444049,11.154 C6.67044049,11.154 6.06544049,10.956 5.55944049,10.571 C4.99844049,10.153 4.69044049,9.57 4.63544049,8.844 L5.81244049,8.844 C5.85644049,9.284 6.03244049,9.625 6.32944049,9.845 C6.59344049,10.043 6.94544049,10.142 7.38544049,10.142 C7.86944049,10.142 8.27644049,9.988 8.60644049,9.691 C8.93644049,9.383 9.10144049,8.987 9.10144049,8.481 C9.10144049,7.931 8.95844049,7.502 8.67244049,7.194 C8.38644049,6.886 7.99044049,6.732 7.46244049,6.732 C7.11044049,6.732 6.81344049,6.787 6.54944049,6.919 C6.26344049,7.051 6.05444049,7.26 5.90044049,7.546 L4.77844049,7.546 L5.20744049,3.146 Z" id="5" fill="#D2E4FF" fill-rule="nonzero"></path>
            </g>
        </g>
    </g>
</svg>