<?xml version="1.0" encoding="UTF-8"?>
<svg width="26px" height="14px" viewBox="0 0 26 14" version="1.1" xmlns="http://www.w3.org/2000/svg" xmlns:xlink="http://www.w3.org/1999/xlink">
    <!-- Generator: Sketch 55.2 (78181) - https://sketchapp.com -->
    <title>ico/单场比赛/8节_slice</title>
    <desc>Created with Sketch.</desc>
    <g id="Z切图" stroke="none" stroke-width="1" fill="none" fill-rule="evenodd">
        <g id="画板" transform="translate(-168.000000, -3849.000000)">
            <g id="ico/单场比赛/8节" transform="translate(168.000000, 3849.000000)">
                <path d="M4.32289621,-2.27373675e-13 L21.6771038,-2.27373675e-13 C23.1801701,-2.27373675e-13 23.7255901,0.186 24.2752251,0.534 C24.8248601,0.883 25.2556323,1.394 25.5498388,2.046 C25.8432023,2.698 26,3.345 26,5.128 L26,8.872 C26,10.655 25.8432023,11.302 25.5498388,11.954 C25.2623685,12.598193 24.8182788,13.1249907 24.2752251,13.466 C23.7255901,13.814 23.1801701,14 21.6771038,14 L4.32289621,14 C2.81982992,14 2.2744099,13.814 1.72477489,13.466 C1.18172118,13.1249907 0.737631517,12.598193 0.450161189,11.954 C0.156797717,11.302 0,10.655 0,8.872 L0,5.128 C0,3.345 0.156797717,2.698 0.450161189,2.046 C0.737631517,1.40180701 1.18172118,0.875009308 1.72477489,0.534 C2.2744099,0.186 2.81982992,-2.27373675e-13 4.32289621,-2.27373675e-13 Z" id="形状" fill="#FFFFFF" fill-rule="nonzero" opacity="0.1"></path>
                <path d="M14.8482143,4.42307692 L14.8482143,6.02884615 L15.875,6.02884615 L15.875,6.93269231 L14.8482143,6.93269231 L14.8482143,9.74038462 C14.8482143,9.85576923 14.8660714,9.94230769 14.9196429,10.0096154 C14.9732143,10.0673077 15.0446429,10.0961538 15.1517857,10.0961538 L15.7589286,10.0961538 L15.7589286,11 L14.9821429,11 C14.5803571,11 14.2857143,10.8846154 14.0982143,10.6538462 C13.9196429,10.4423077 13.8303571,10.1442308 13.8303571,9.74038462 L13.8303571,6.93269231 L13,6.93269231 L13,6.02884615 L13.8303571,6.02884615 L13.8303571,4.875 L14.8482143,4.42307692 Z M16.6339286,4 L17.6517857,4 L17.6517857,6.69230769 C17.8214286,6.41346154 18.0357143,6.21153846 18.2857143,6.07692308 C18.5089286,5.95192308 18.7678571,5.89423077 19.0625,5.89423077 C19.625,5.89423077 20.0446429,6.06730769 20.3214286,6.42307692 C20.5803571,6.75961538 20.7142857,7.25961538 20.7142857,7.92307692 L20.7142857,11 L19.6964286,11 L19.6964286,8.11538462 C19.6964286,7.69230769 19.6160714,7.36538462 19.4642857,7.14423077 C19.2857143,6.90384615 19.0267857,6.78846154 18.6785714,6.78846154 C18.3571429,6.78846154 18.1071429,6.92307692 17.9285714,7.19230769 C17.7410714,7.46153846 17.6517857,7.79807692 17.6517857,8.22115385 L17.6517857,11 L16.6339286,11 L16.6339286,4 Z" id="th" fill="#D2E4FF" opacity="0.5"></path>
                <path d="M7.46244049,2.992 C8.29844049,2.992 8.95844049,3.212 9.45344049,3.652 C9.89344049,4.048 10.1134405,4.543 10.1134405,5.126 C10.1134405,5.533 10.0254405,5.874 9.84944049,6.149 C9.65144049,6.446 9.35444049,6.666 8.95844049,6.82 L8.95844049,6.853 C9.33244049,6.941 9.66244049,7.161 9.92644049,7.513 C10.2344405,7.887 10.3884405,8.316 10.3884405,8.811 C10.3884405,9.504 10.1354405,10.065 9.62944049,10.505 C9.11244049,10.934 8.38644049,11.154 7.46244049,11.154 C6.52744049,11.154 5.80144049,10.934 5.29544049,10.505 C4.78944049,10.065 4.53644049,9.504 4.53644049,8.811 C4.53644049,8.316 4.69044049,7.887 4.99844049,7.513 C5.26244049,7.161 5.58144049,6.941 5.96644049,6.853 L5.96644049,6.82 C5.57044049,6.666 5.27344049,6.446 5.07544049,6.149 C4.89944049,5.874 4.81144049,5.533 4.81144049,5.126 C4.81144049,4.543 5.03144049,4.048 5.47144049,3.652 C5.95544049,3.212 6.62644049,2.992 7.46244049,2.992 Z M7.46244049,3.949 C6.97844049,3.949 6.59344049,4.07 6.30744049,4.334 C6.05444049,4.554 5.93344049,4.84 5.93344049,5.17 C5.93344049,5.544 6.03244049,5.841 6.24144049,6.061 C6.49444049,6.325 6.90144049,6.457 7.46244049,6.457 C8.01244049,6.457 8.41944049,6.325 8.68344049,6.061 C8.88144049,5.841 8.99144049,5.544 8.99144049,5.17 C8.99144049,4.84 8.85944049,4.554 8.61744049,4.334 C8.33144049,4.07 7.94644049,3.949 7.46244049,3.949 Z M7.46244049,7.348 C6.89044049,7.348 6.45044049,7.48 6.16444049,7.766 C5.86744049,8.03 5.72444049,8.371 5.72444049,8.811 C5.72444049,9.218 5.86744049,9.548 6.17544049,9.801 C6.47244049,10.054 6.90144049,10.186 7.46244049,10.186 C8.01244049,10.186 8.45244049,10.054 8.77144049,9.801 C9.05744049,9.548 9.20044049,9.218 9.20044049,8.811 C9.20044049,8.371 9.05744049,8.03 8.77144049,7.777 C8.46344049,7.491 8.03444049,7.348 7.46244049,7.348 Z" id="8" fill="#D2E4FF" fill-rule="nonzero"></path>
            </g>
        </g>
    </g>
</svg>