<?xml version="1.0" encoding="UTF-8"?>
<svg width="6px" height="8px" viewBox="0 0 6 8" version="1.1" xmlns="http://www.w3.org/2000/svg" xmlns:xlink="http://www.w3.org/1999/xlink">
    <!-- Generator: Sketch 55.2 (78181) - https://sketchapp.com -->
    <title>icon_match_hot_white</title>
    <desc>Created with Sketch.</desc>
    <g id="icon_match_hot_white" stroke="none" stroke-width="1" fill="none" fill-rule="evenodd">
        <path d="M3.12360318,0.727272727 C2.08029865,1.39800835 1.2299753,2.50240925 1.41692582,3.86700931 C1.18776067,3.64150337 0.75958366,3.3813042 0.632939754,2.97076775 C-0.0726476993,3.74558304 -0.259598224,4.86733055 0.439958572,5.97173145 C0.506295854,6.07002891 0.590725123,6.19145519 0.693246378,6.29553485 C0.99477948,6.64246707 1.71845893,7.27272727 3.03314325,7.27272727 C4.03423315,7.27272727 4.67348332,6.90844844 5.07753768,6.60199165 C5.48159204,6.31866367 5.75900249,5.82717636 5.8856464,5.4166399 C6.3138234,3.86700932 5.48159204,2.51975587 4.35385823,1.785416 C4.35385823,2.15547703 4.1849997,2.60648892 4.10057043,2.84934147 C3.6120868,2.30003212 3.12360317,1.74494057 3.12360318,0.727272727 Z" id="热度" fill="#FFFFFF"></path>
    </g>
</svg>