<?xml version="1.0" encoding="UTF-8"?>
<svg width="13px" height="13px" viewBox="0 0 13 13" version="1.1" xmlns="http://www.w3.org/2000/svg" xmlns:xlink="http://www.w3.org/1999/xlink">
    <!-- Generator: Sketch 55.2 (78181) - https://sketchapp.com -->
    <title>点球</title>
    <desc>Created with Sketch.</desc>
    <defs>
        <polygon id="path-1" points="0.00190243902 0.0126829268 12.9872996 0.0126829268 12.9872996 12.9999841 0.00190243902 12.9999841"></polygon>
    </defs>
    <g id="Z-CUT" stroke="none" stroke-width="1" fill="none" fill-rule="evenodd">
        <g id="B01列表" transform="translate(-366.000000, -527.000000)">
            <g id="icon/足球备份-4" transform="translate(366.000000, 527.000000)">
                <ellipse id="椭圆形" fill="#FFFFFF" opacity="0.779999971" cx="6.5" cy="11.78125" rx="5.6875" ry="1.21875"></ellipse>
                <g id="足球" stroke-width="1">
                    <g id="编组">
                        <g>
                            <mask id="mask-2" fill="white">
                                <use xlink:href="#path-1"></use>
                            </mask>
                            <g id="Clip-4"></g>
                            <path d="M6.32898441,0.0126829268 C2.8335501,0.0126829268 -1.58536585e-06,2.84623462 -1.58536585e-06,6.34166892 C-1.58536585e-06,9.83702597 2.8335501,12.6705777 6.32898441,12.6705777 C9.82434146,12.6705777 12.6578932,9.83702597 12.6578932,6.34166892 C12.6578932,2.84623462 9.82434146,0.0126829268 6.32898441,0.0126829268 M6.32897814,0.696893453 C9.44641235,0.696893453 11.9736826,3.22414755 11.9736826,6.34166265 C11.9736826,9.45909686 9.44641235,11.9863671 6.32897814,11.9863671 C3.21146304,11.9863671 0.684208941,9.45909686 0.684208941,6.34166265 C0.687622444,3.22553884 3.21285432,0.700306956 6.32897814,0.696893453" id="Fill-3" fill="#FFFFFF" mask="url(#mask-2)"></path>
                        </g>
                    </g>
                    <path d="M12.1881772,7.2085476 L9.92105263,5.52978222 L10.8194574,2.8586948 L11.1610506,2.97387984 L10.3456222,5.3966099 L12.4034747,6.91940641 L12.1881772,7.2085476 Z M7.86364994,12.3157895 L7.52631579,12.1949254 L8.48206697,9.57894737 L11.2894737,9.67016555 L11.2775201,10.024417 L8.73086884,9.94264861 L7.86364994,12.3157895 Z M0.557795994,7.38256702 L0.337662338,7.09695369 L2.37513942,5.54659882 L1.52718959,3.13467379 L1.86754606,3.01466366 L2.8020874,5.67383866 L0.557795994,7.38256702 Z M4.35724615,12.4224701 L3.76188791,9.93614387 L1.2072878,9.73214564 L1.23614635,9.37334923 L4.05169435,9.59773937 L4.70719571,12.338482 L4.35724615,12.4224701 Z M6.49209705,2.90428789 L4.2068487,1.24833487 L4.41973601,0.956709957 L6.49209705,2.45911456 L8.56437882,0.956709957 L8.77726612,1.24833487 L6.49209705,2.90428789 Z M5.06922781,8.57172084 L7.91371364,8.57172084 L8.79286877,5.8730118 L6.49209705,4.20505144 L4.19124605,5.8730118 L5.06922781,8.57172084 Z M8.17589833,8.93175121 L4.80821649,8.93175121 L3.76789746,5.7350144 L6.49209705,3.7598623 L9.21628079,5.7350144 L8.17589833,8.93175121 Z" id="Fill-5" fill="#FFFFFF"></path>
                    <path d="M2.53246753,5.81728097 L2.59503588,5.4636462 L4.31969289,5.76537056 L4.25720382,6.11913159 L2.53246753,5.81728097 Z M3.74961692,9.66422313 L4.98844165,8.36848297 L5.24963992,8.61605572 L4.01098961,9.91189058 L3.74961692,9.66422313 Z M7.65883841,8.5838741 L7.96673303,8.39678196 L8.91481949,9.94277798 L8.60692487,10.1298701 L7.65883841,8.5838741 Z M8.60078855,5.7665385 L10.3790393,5.31833176 L10.4675325,5.6666003 L8.68955124,6.11469656 L8.60078855,5.7665385 Z M6.26814352,4.42647957 L6.62893424,4.42647957 L6.62893424,2.87012987 L6.26814352,2.87012987 L6.26814352,4.42647957 Z" id="Fill-6" fill="#FFFFFF"></path>
                </g>
            </g>
        </g>
    </g>
</svg>