<?xml version="1.0" encoding="UTF-8"?>
<svg width="32px" height="32px" viewBox="0 0 32 32" version="1.1" xmlns="http://www.w3.org/2000/svg" xmlns:xlink="http://www.w3.org/1999/xlink">
    <title>icon_betlist_money_detail</title>
    <g id="icon_betlist_money_detail" stroke="none" stroke-width="1" fill="none" fill-rule="evenodd">
        <path d="M20.4666667,2.2 C22.5285297,2.2 24.2,3.83735863 24.2,5.85714286 L24.2004102,16.0322734 C23.969808,16.0109168 23.7361789,16 23.5,16 C23.1954312,16 22.8951026,16.0181545 22.6000374,16.0534405 L22.6,5.66666667 C22.6,4.63573513 21.7403867,3.8 20.68,3.8 L5.32,3.8 C4.25961328,3.8 3.4,4.63573513 3.4,5.66666667 L3.4,24.3333333 C3.4,25.3642649 4.25961328,26.2 5.32,26.2 L16.500936,26.200629 C16.7211422,26.770945 17.009048,27.3075913 17.3548005,27.8007151 L5.53333333,27.8 C3.47147027,27.8 1.8,26.1626414 1.8,24.1428571 L1.8,5.85714286 C1.8,3.83735863 3.47147027,2.2 5.53333333,2.2 L20.4666667,2.2 Z" id="形状结合" fill="#353535" fill-rule="nonzero"></path>
        <rect id="矩形" fill="#353535" x="6.6" y="13.4" width="12.8" height="1.6" rx="0.5"></rect>
        <rect id="矩形备份" fill="#353535" x="6.6" y="18.2" width="8" height="1.6" rx="0.5"></rect>
        <path d="M10,2.2 L18,2.2 C19.3254834,2.2 20.4,3.2745166 20.4,4.6 C20.4,5.9254834 19.3254834,7 18,7 L10,7 C8.6745166,7 7.6,5.9254834 7.6,4.6 C7.6,3.2745166 8.6745166,2.2 10,2.2 Z M10,3.8 C9.5581722,3.8 9.2,4.1581722 9.2,4.6 C9.2,5.0418278 9.5581722,5.4 10,5.4 L18,5.4 C18.4418278,5.4 18.8,5.0418278 18.8,4.6 C18.8,4.1581722 18.4418278,3.8 18,3.8 L10,3.8 Z" id="矩形" fill="#353535" fill-rule="nonzero"></path>
        <path d="M25.7496755,23.75 C26.0258179,23.75 26.2496755,23.9738576 26.2496755,24.25 C26.2496755,24.4954599 26.0728003,24.6996084 25.8395511,24.7419443 L25.7496755,24.75 L22.4576755,24.7503366 L23.8538923,26.1457832 C24.0274587,26.3193495 24.0467438,26.5887739 23.9117478,26.7836421 L23.8538923,26.8528899 C23.680326,27.0264563 23.4109016,27.0457414 23.2160334,26.9107454 L23.1467855,26.8528899 L20.897449,24.6035534 C20.6034654,24.3095698 20.7781969,23.8208157 21.1649704,23.7569551 L21.2510024,23.75 L25.7496755,23.75 Z M23.7836421,19.8385912 L23.8528899,19.8964466 L26.1022265,22.1457832 C26.3962101,22.4397668 26.2214786,22.9285208 25.8347051,22.9923814 L25.7486731,22.9993366 L21.25,22.9993366 C20.9738576,22.9993366 20.75,22.7754789 20.75,22.4993366 C20.75,22.2538767 20.9268752,22.0497282 21.1601244,22.0073922 L21.25,21.9993366 L24.542,21.999 L23.1457832,20.6035534 C22.9722168,20.429987 22.9529317,20.1605626 23.0879277,19.9656945 L23.1457832,19.8964466 C23.3193495,19.7228803 23.5887739,19.7035951 23.7836421,19.8385912 Z" id="形状结合" fill="#353535" fill-rule="nonzero"></path>
        <path d="M23.5,17 C27.0898509,17 30,19.9101491 30,23.5 C30,27.0898509 27.0898509,30 23.5,30 C19.9101491,30 17,27.0898509 17,23.5 C17,19.9101491 19.9101491,17 23.5,17 Z M23.5,18.5 C20.7385763,18.5 18.5,20.7385763 18.5,23.5 C18.5,26.2614237 20.7385763,28.5 23.5,28.5 C26.2614237,28.5 28.5,26.2614237 28.5,23.5 C28.5,20.7385763 26.2614237,18.5 23.5,18.5 Z" id="椭圆形" fill="#353535" fill-rule="nonzero"></path>
    </g>
</svg>