<?xml version="1.0" encoding="UTF-8"?>
<svg width="22px" height="22px" viewBox="0 0 22 22" version="1.1" xmlns="http://www.w3.org/2000/svg" xmlns:xlink="http://www.w3.org/1999/xlink">
    <!-- Generator: Sketch 55.2 (78181) - https://sketchapp.com -->
    <title>icon_personal_close_normal</title>
    <desc>Created with Sketch.</desc>
    <g id="icon_personal_close_normal" stroke="none" stroke-width="1" fill="none" fill-rule="evenodd">
        <g id="ico/收藏备份-2" fill="#FFFFFF">
            <g id="形状结合-2" transform="translate(3.300000, 3.300000)">
                <path d="M7.54539195,9.18982846 L1.97805987,14.7571605 C1.53421336,15.2010071 0.814595974,15.2010071 0.370749459,14.7571605 C-0.0730970556,14.313314 -0.0730970556,13.5936966 0.370749459,13.1498501 L5.96105473,7.55954485 L0.331058144,1.92954826 C-0.110352715,1.48813741 -0.110352715,0.772469002 0.331058144,0.331058144 C0.772469002,-0.110352715 1.48813741,-0.110352715 1.92954826,0.331058144 L7.54539195,5.94690183 L13.1612356,0.331058144 C13.6026465,-0.110352715 14.3183149,-0.110352715 14.7597258,0.331058144 C15.2011366,0.772469002 15.2011366,1.48813741 14.7597258,1.92954826 L9.12972917,7.55954485 L14.7200344,13.1498501 C15.163881,13.5936966 15.163881,14.313314 14.7200344,14.7571605 C14.2761879,15.2010071 13.5565705,15.2010071 13.112724,14.7571605 L7.54539195,9.18982846 Z" id="形状结合" fill-rule="nonzero"></path>
            </g>
        </g>
    </g>
</svg>