<?xml version="1.0" encoding="UTF-8"?>
<svg width="16px" height="16px" viewBox="0 0 16 16" version="1.1" xmlns="http://www.w3.org/2000/svg" xmlns:xlink="http://www.w3.org/1999/xlink">
    <!-- Generator: Sketch 55.2 (78181) - https://sketchapp.com -->
    <title>icon_personal_eye_no</title>
    <desc>Created with Sketch.</desc>
    <g id="icon_personal_eye_no" stroke="none" stroke-width="1" fill="none" fill-rule="evenodd">
        <g id="ico/个人中心/不可见" fill="#222222">
            <path d="M10.6068168,3.64231854 L9.78275665,4.49565777 C9.21011219,4.30482772 8.61659332,4.19765894 8.01434269,4.18162958 C5.65963544,4.24356788 3.46181491,5.66630136 2.09594764,8.01838574 C2.76082126,8.96300686 3.4484603,9.72874401 4.15953566,10.3186736 L3.40033232,11.1048516 C2.55951495,10.3945215 1.75996046,9.4764084 1.00242791,8.35399307 L0.818487725,8.08145391 L0.973599527,7.79153683 C2.50134482,4.93605161 5.12657685,3.16630305 8.01434269,3.09109769 C8.9103265,3.11466568 9.78334449,3.30465164 10.6068168,3.64231854 Z M12.5418804,4.77935208 C13.5248292,5.55478145 14.3752882,6.57455291 15.0264005,7.79153683 L15.1815123,8.08145391 L14.9975721,8.35399307 C12.9632089,11.3682536 10.6257843,12.9090909 8,12.9090909 C7.05210591,12.9090909 6.14179004,12.7082934 5.269744,12.3098698 L6.08387758,11.4668098 C6.70604348,11.701637 7.34462465,11.8181818 8,11.8181818 C10.1431996,11.8181818 12.1068001,10.5718376 13.9040533,8.01838445 C13.3270189,7.02467591 12.6016723,6.19684665 11.7808414,5.5674311 L12.5418804,4.77935208 Z M7.54954472,9.94906705 L9.93220224,7.48175297 C9.97642337,7.64704061 10,7.82076699 10,8 C10,9.1045695 9.1045695,10 8,10 C7.84510471,10 7.6943221,9.98239151 7.54954472,9.94906705 Z M6.03533249,8.37622908 C6.01213857,8.25437664 6,8.12860588 6,8 C6,6.8954305 6.8954305,6 8,6 C8.10452107,6 8.20716949,6.00801777 8.30736377,6.02347182 L6.03533249,8.37622908 Z" id="形状结合"></path>
            <path d="M8,-0.0878183622 C8.30124623,-0.0878183622 8.54545455,0.156389956 8.54545455,0.457636183 L8.54545455,15.3667271 C8.54545455,15.6679733 8.30124623,15.9121816 8,15.9121816 C7.69875377,15.9121816 7.45454545,15.6679733 7.45454545,15.3667271 L7.45454545,0.457636183 C7.45454545,0.156389956 7.69875377,-0.0878183622 8,-0.0878183622 Z" id="矩形" transform="translate(8.000000, 7.912182) rotate(44.000000) translate(-8.000000, -7.912182) "></path>
        </g>
    </g>
</svg>