<?xml version="1.0" encoding="UTF-8"?>
<svg width="28px" height="28px" viewBox="0 0 28 28" version="1.1" xmlns="http://www.w3.org/2000/svg" xmlns:xlink="http://www.w3.org/1999/xlink">
    <!-- Generator: Sketch 55.2 (78181) - https://sketchapp.com -->
    <title>icon_personal_cash_normal</title>
    <desc>Created with Sketch.</desc>
    <g id="icon_personal_cash_normal" stroke="none" stroke-width="1" fill="none" fill-rule="evenodd">
        <g id="ico/个人主页/取款">
            <path d="M25.2,14 L23.8,14 L23.8,7 C23.8,6.22680135 23.1731986,5.6 22.4,5.6 L5.6,5.6 C4.82680135,5.6 4.2,6.22680135 4.2,7 L4.2,21 C4.2,21.7731986 4.82680135,22.4 5.6,22.4 L22.4,22.4 C23.1731986,22.4 23.8,21.7731986 23.8,21 L23.8,19.6 L25.2,19.6 L25.2,21 C25.2,22.5463973 23.9463973,23.8 22.4,23.8 L5.6,23.8 C4.0536027,23.8 2.8,22.5463973 2.8,21 L2.8,7 C2.8,5.4536027 4.0536027,4.2 5.6,4.2 L22.4,4.2 C23.9463973,4.2 25.2,5.4536027 25.2,7 L25.2,14 Z" id="形状结合" fill="#353535" fill-rule="nonzero"></path>
            <path d="M14,0.7 C14.3865993,0.7 14.7,1.01340068 14.7,1.4 L14.7,15.4 C14.7,15.7865993 14.3865993,16.1 14,16.1 C13.6134007,16.1 13.3,15.7865993 13.3,15.4 L13.3,1.4 C13.3,1.01340068 13.6134007,0.7 14,0.7 Z" id="矩形" fill="#353535" fill-rule="evenodd" transform="translate(14.000000, 8.400000) rotate(90.000000) translate(-14.000000, -8.400000) "></path>
            <path d="M19.8548034,14.7607678 C20.1281704,14.4874008 20.1281704,14.0441853 19.8548034,13.7708183 C19.5814363,13.4974513 19.1382209,13.4974513 18.8648539,13.7708183 L15.7290112,16.906661 C15.2880358,17.3476364 15.6003526,18.1016357 16.223986,18.1016357 L24.5196442,18.1016357 C24.9062435,18.1016357 25.2196442,17.788235 25.2196442,17.4016357 C25.2196442,17.0150364 24.9062435,16.7016357 24.5196442,16.7016357 L17.9139355,16.7016357 L19.8548034,14.7607678 Z" id="路径-27备份" fill="#5078FF" fill-rule="nonzero" transform="translate(20.371113, 15.833714) scale(-1, 1) translate(-20.371113, -15.833714) "></path>
        </g>
    </g>
</svg>