<?xml version="1.0" encoding="UTF-8"?>
<svg width="32px" height="32px" viewBox="0 0 32 32" version="1.1" xmlns="http://www.w3.org/2000/svg" xmlns:xlink="http://www.w3.org/1999/xlink">
    <!-- Generator: Sketch 55.2 (78181) - https://sketchapp.com -->
    <title>icon_personal_betlist_normal</title>
    <desc>Created with Sketch.</desc>
    <g id="icon_personal_betlist_normal" stroke="none" stroke-width="1" fill="none" fill-rule="evenodd">
        <g id="ico-/个人中心/注单">
            <circle id="椭圆形" fill="#5078FF" fill-rule="evenodd" cx="21.6" cy="8.8" r="5.6"></circle>
            <path d="M8.53333333,3.2 L23.4666667,3.2 C25.5285297,3.2 27.2,4.83735863 27.2,6.85714286 L27.2,25.1428571 C27.2,27.1626414 25.5285297,28.8 23.4666667,28.8 L8.53333333,28.8 C6.47147027,28.8 4.8,27.1626414 4.8,25.1428571 L4.8,6.85714286 C4.8,4.83735863 6.47147027,3.2 8.53333333,3.2 Z M8.32,4.8 C7.25961328,4.8 6.4,5.63573513 6.4,6.66666667 L6.4,25.3333333 C6.4,26.3642649 7.25961328,27.2 8.32,27.2 L23.68,27.2 C24.7403867,27.2 25.6,26.3642649 25.6,25.3333333 L25.6,6.66666667 C25.6,5.63573513 24.7403867,4.8 23.68,4.8 L8.32,4.8 Z" id="矩形备份-4" fill="#353535" fill-rule="nonzero"></path>
            <rect id="矩形" fill="#353535" fill-rule="evenodd" x="9.6" y="14.4" width="12.8" height="1.6" rx="0.5"></rect>
            <rect id="矩形备份" fill="#353535" fill-rule="evenodd" x="9.6" y="19.2" width="8" height="1.6" rx="0.5"></rect>
            <path d="M12,3.2 L20,3.2 C21.3254834,3.2 22.4,4.2745166 22.4,5.6 C22.4,6.9254834 21.3254834,8 20,8 L12,8 C10.6745166,8 9.6,6.9254834 9.6,5.6 C9.6,4.2745166 10.6745166,3.2 12,3.2 Z M12,4.8 C11.5581722,4.8 11.2,5.1581722 11.2,5.6 C11.2,6.0418278 11.5581722,6.4 12,6.4 L20,6.4 C20.4418278,6.4 20.8,6.0418278 20.8,5.6 C20.8,5.1581722 20.4418278,4.8 20,4.8 L12,4.8 Z" id="矩形" fill="#353535" fill-rule="nonzero"></path>
        </g>
    </g>
</svg>