<?xml version="1.0" encoding="UTF-8"?>
<svg width="28px" height="28px" viewBox="0 0 28 28" version="1.1" xmlns="http://www.w3.org/2000/svg" xmlns:xlink="http://www.w3.org/1999/xlink">
    <!-- Generator: Sketch 55.2 (78181) - https://sketchapp.com -->
    <title>icon_personal_teansfer_normal</title>
    <desc>Created with Sketch.</desc>
    <g id="icon_personal_teansfer_normal" stroke="none" stroke-width="1" fill="none" fill-rule="evenodd">
        <g id="ico/个人主页/转账">
            <path d="M14,25.2 C20.1855892,25.2 25.2,20.1855892 25.2,14 C25.2,7.8144108 20.1855892,2.8 14,2.8 C7.8144108,2.8 2.8,7.8144108 2.8,14 C2.8,20.1855892 7.8144108,25.2 14,25.2 Z M14,23.8 C8.58760945,23.8 4.2,19.4123905 4.2,14 C4.2,8.58760945 8.58760945,4.2 14,4.2 C19.4123905,4.2 23.8,8.58760945 23.8,14 C23.8,19.4123905 19.4123905,23.8 14,23.8 Z" id="椭圆形" fill="#353535" fill-rule="nonzero"></path>
            <g id="编组" stroke-width="1" fill-rule="evenodd" transform="translate(9.100000, 9.100000)" fill="#5078FF">
                <path d="M4.37820907,1.10649649 C4.65447799,0.853370109 4.65447799,0.442971162 4.37820907,0.189844784 C4.10194016,-0.0632815946 3.65401976,-0.0632815946 3.37775085,0.189844784 L0.208619909,3.09350351 C-0.237036636,3.50182824 0.0785954938,4.2 0.708849023,4.2 L9.0925692,4.2 C9.48327244,4.2 9.8,3.90980412 9.8,3.55182936 C9.8,3.19385461 9.48327244,2.90365873 9.0925692,2.90365873 L2.41673805,2.90365873 L4.37820907,1.10649649 Z" id="路径-27备份" fill-rule="nonzero" transform="translate(4.900000, 2.100000) scale(-1, 1) translate(-4.900000, -2.100000) "></path>
                <path d="M4.37820907,6.70649649 C4.65447799,6.45337011 4.65447799,6.04297116 4.37820907,5.78984478 C4.10194016,5.53671841 3.65401976,5.53671841 3.37775085,5.78984478 L0.208619909,8.69350351 C-0.237036636,9.10182824 0.0785954938,9.8 0.708849023,9.8 L9.0925692,9.8 C9.48327244,9.8 9.8,9.50980412 9.8,9.15182936 C9.8,8.79385461 9.48327244,8.50365873 9.0925692,8.50365873 L2.41673805,8.50365873 L4.37820907,6.70649649 Z" id="路径-27备份-2" fill-rule="nonzero" transform="translate(4.900000, 7.700000) scale(1, -1) translate(-4.900000, -7.700000) "></path>
            </g>
        </g>
    </g>
</svg>