<?xml version="1.0" encoding="UTF-8"?>
<svg width="32px" height="32px" viewBox="0 0 32 32" version="1.1" xmlns="http://www.w3.org/2000/svg" xmlns:xlink="http://www.w3.org/1999/xlink">
    <title>icon_personal_cloud_normal</title>
    <g id="icon_personal_cloud_normal" stroke="none" stroke-width="1" fill="none" fill-rule="evenodd">
        <path d="M31.2785714,19.1478571 C31.2821429,19.1228571 31.2821429,19.1014286 31.2821429,19.0764286 L31.2821429,10.5585714 C31.2821429,10.0442857 30.8785714,9.60857143 30.3642857,9.59428571 C29.8285714,9.58 29.3928571,10.0085714 29.3928571,10.5407143 L29.3928571,17.3692857 C28.85,17.0835714 28.25,16.8942857 27.6107143,16.83 L27.6107143,7.14785714 C27.5821429,6.70142857 27.3464286,6.34071429 27.2607143,6.23 C25.2,3.56571429 22.0892857,2.04071429 18.725,2.04071429 C12.7714286,2.04071429 7.92857143,6.88714286 7.93928571,12.8442857 C7.93928571,12.8442857 7.93928571,12.8442857 7.93928571,12.8442857 L7.68571429,12.8442857 C3.50357143,12.8442857 0.0178571429,16.2657143 0.014282915,20.4442857 C0.0107142857,24.6407143 3.425,28.0514286 7.61785714,28.0514286 L13.35,28.0514286 C13.6428571,29.1371429 14.6392857,29.9407143 15.8178571,29.9407143 L17.7071429,29.9407143 C19.1178571,29.9407143 20.2642857,28.7942857 20.2642857,27.3835714 L20.2642857,26.1085714 C20.2642857,24.6978571 19.1178571,23.5514286 17.7071429,23.5514286 L15.8214286,23.5514286 C14.4107143,23.5514286 13.2642857,24.6978571 13.2642857,26.1085714 L13.2642857,26.1585714 L7.675,26.1585714 C4.51785714,26.1585714 1.91428571,23.6192857 1.90714286,20.4621429 C1.9,17.305 4.46428571,14.7335714 7.62142857,14.7335714 L8.91785714,14.7335714 C9.09285714,14.7335714 9.26785714,14.6907143 9.41785714,14.5978571 C9.73928571,14.405 9.90714286,14.0514286 9.87142857,13.6942857 C9.84285714,13.405 9.82857143,13.1121429 9.82857143,12.8228571 C9.82857143,7.91928571 13.8178571,3.92642857 18.725,3.92642857 C21.2535714,3.92642857 23.6107143,4.97642857 25.2964286,6.82642857 C25.5678571,7.12642857 25.7214286,7.51571429 25.7214286,7.92285714 L25.7214286,17.0121429 C23.7357143,17.6157143 22.2821429,19.4585714 22.275,21.6407143 C22.2642857,24.3014286 24.4285714,26.4942857 27.0892857,26.5121429 C29.7821429,26.5335714 31.9821429,24.3478571 31.9821429,21.6585714 C31.9785714,20.7407143 31.725,19.8835714 31.2785714,19.1478571 Z M15.1535714,26.1085714 C15.1535714,25.7407143 15.4535714,25.4442857 15.8178571,25.4442857 L17.7071429,25.4442857 C18.075,25.4442857 18.3714286,25.7442857 18.3714286,26.1085714 L18.3714286,27.3835714 C18.3714286,27.7514286 18.0714286,28.0478571 17.7071429,28.0478571 L15.8214286,28.0478571 C15.4535714,28.0478571 15.1571429,27.7478571 15.1571429,27.3835714 L15.1571429,26.1085714 L15.1535714,26.1085714 Z M27.125,24.6228571 C25.4928571,24.6228571 24.1607143,23.2942857 24.1607143,21.6585714 C24.1607143,20.0264286 25.4892857,18.6942857 27.125,18.6942857 C28.7571429,18.6942857 30.0892857,20.0228571 30.0892857,21.6585714 C30.0892857,23.2942857 28.7607143,24.6228571 27.125,24.6228571 Z" id="形状" fill="#353535" fill-rule="nonzero"></path>
        <path d="M22.7678571,16.0942857 C22.5714286,15.6121429 22.0178571,15.38 21.5357143,15.5764286 C20.4857143,16.005 19.6642857,16.8157143 19.225,17.8621429 C18.7857143,18.9085714 18.7821429,20.0621429 19.2107143,21.1121429 C19.3607143,21.48 19.7142857,21.7014286 20.0857143,21.7014286 C20.2035714,21.7014286 20.325,21.68 20.4428571,21.63 C20.925,21.4335714 21.1571429,20.88 20.9607143,20.3978571 C20.7214286,19.8157143 20.725,19.1764286 20.9678571,18.5942857 C21.2107143,18.0157143 21.6678571,17.5657143 22.25,17.3264286 C22.7357143,17.13 22.9678571,16.5764286 22.7678571,16.0942857 Z" id="路径" fill="#353535" fill-rule="nonzero"></path>
        <path d="M20.9928571,14.4942857 C21.475,14.2978571 21.7071429,13.7442857 21.5107143,13.2621429 C21.3142857,12.78 20.7607143,12.5478571 20.2785714,12.7442857 C18.5607143,13.4442857 17.2214286,14.7728571 16.5035714,16.48 C15.7857143,18.1871429 15.7785714,20.0728571 16.4785714,21.7907143 C16.6285714,22.1585714 16.9821429,22.38 17.3535714,22.38 C17.4714286,22.38 17.5928571,22.3585714 17.7107143,22.3085714 C18.1928571,22.1121429 18.425,21.5585714 18.2285714,21.0764286 C17.7178571,19.8264286 17.725,18.455 18.2464286,17.2121429 C18.7714286,15.9692857 19.7464286,15.0014286 20.9928571,14.4942857 Z" id="路径" fill="#353535" fill-rule="nonzero"></path>
    </g>
</svg>