<?xml version="1.0" encoding="UTF-8"?>
<svg width="16px" height="16px" viewBox="0 0 16 16" version="1.1" xmlns="http://www.w3.org/2000/svg" xmlns:xlink="http://www.w3.org/1999/xlink">
    <!-- Generator: Sketch 55.2 (78181) - https://sketchapp.com -->
    <title>icon_personal_eye_can</title>
    <desc>Created with Sketch.</desc>
    <g id="icon_personal_eye_can" stroke="none" stroke-width="1" fill="none" fill-rule="evenodd">
        <g id="ico/个人中心/可见" fill="#222222">
            <path d="M1.00242791,8.35399307 L0.818487725,8.08145391 L0.973599527,7.79153683 C2.50134482,4.93605161 5.12657685,3.16630305 8.01434269,3.09109769 C10.8734231,3.16630305 13.4986552,4.93605161 15.0264005,7.79153683 L15.1815123,8.08145391 L14.9975721,8.35399307 C12.9632089,11.3682536 10.6257843,12.9090909 8,12.9090909 C5.37421571,12.9090909 3.03679114,11.3682536 1.00242791,8.35399307 Z M8,11.8181818 C10.1431996,11.8181818 12.1068001,10.5718376 13.9040533,8.01838445 C12.538227,5.66630085 10.3414714,4.24356787 8.01434269,4.18162958 C5.65963544,4.24356788 3.46181491,5.66630136 2.09594764,8.01838574 C3.89320052,10.571838 5.8568008,11.8181818 8,11.8181818 Z M8,10 C6.8954305,10 6,9.1045695 6,8 C6,6.8954305 6.8954305,6 8,6 C9.1045695,6 10,6.8954305 10,8 C10,9.1045695 9.1045695,10 8,10 Z M8,8.90909091 C8.50207705,8.90909091 8.90909091,8.50207705 8.90909091,8 C8.90909091,7.49792295 8.50207705,7.09090909 8,7.09090909 C7.49792295,7.09090909 7.09090909,7.49792295 7.09090909,8 C7.09090909,8.50207705 7.49792295,8.90909091 8,8.90909091 Z" id="形状结合"></path>
        </g>
    </g>
</svg>