<?xml version="1.0" encoding="UTF-8"?>
<svg width="28px" height="28px" viewBox="0 0 28 28" version="1.1" xmlns="http://www.w3.org/2000/svg" xmlns:xlink="http://www.w3.org/1999/xlink">
    <!-- Generator: Sketch 55.2 (78181) - https://sketchapp.com -->
    <title>icon_personal_costomer_normal</title>
    <desc>Created with Sketch.</desc>
    <g id="icon_personal_costomer_normal" stroke="none" stroke-width="1" fill="none" fill-rule="evenodd">
        <g id="ico-/个人中心/客服">
            <path d="M3.88165041,24.699068 C3.5049596,24.7860339 3.12909155,24.5511655 3.04212563,24.1744747 C3.01358592,24.0508556 3.01917952,23.9218043 3.05830841,23.8011182 L4.37701164,19.7338144 C3.37547725,18.0565663 2.8,16.0954881 2.8,14 C2.8,7.8144108 7.8144108,2.8 14,2.8 C20.1855892,2.8 25.2,7.8144108 25.2,14 C25.2,20.1855892 20.1855892,25.2 14,25.2 C11.9367452,25.2 10.003797,24.6420908 8.34378591,23.6689029 L3.88165041,24.699068 Z M4.77136506,23.0568355 L8.57144276,22.1795184 L9.05183545,22.4611505 C10.5400988,23.3336506 12.2343019,23.8 14,23.8 C19.4123905,23.8 23.8,19.4123905 23.8,14 C23.8,8.58760945 19.4123905,4.2 14,4.2 C8.58760945,4.2 4.2,8.58760945 4.2,14 C4.2,15.7928921 4.68086947,17.5119435 5.57902127,19.016059 L5.90465813,19.5613961 L4.77136506,23.0568355 Z" id="形状结合" fill="#353535" fill-rule="nonzero"></path>
            <rect id="矩形" fill="#5078FF" fill-rule="evenodd" x="8.4" y="11.2" width="11.2" height="1.4" rx="0.5"></rect>
            <rect id="矩形备份" fill="#5078FF" fill-rule="evenodd" x="8.4" y="15.4" width="5.6" height="1.4" rx="0.5"></rect>
        </g>
    </g>
</svg>