<svg height="12" viewBox="0 0 12 12" width="12" xmlns="http://www.w3.org/2000/svg"><path d="m6.57270081.93583176-3.15879034 1.8798327v5.98860993l3.15879034 1.87983271c.59751825.3356844 1.1111154.0839211 1.1111154-.5975183v-8.55323879c0-.67136882-.51359716-1.02383746-1.1111154-.59751825zm-6.57270081 3.16886085v3.40383994c.00879243.70544989.57368231 1.27775303 1.27895761 1.29574184h1.28231446v-5.98860993h-1.28231446c-.70271503.01786944-1.26660013.58619458-1.27895761 1.28902815zm11.5240459 1.27895761h-1.70527682c-.23544959 0-.4263192.19086961-.4263192.4263192 0 .2354496.19086961.42631921.4263192.42631921h1.70863362c.2354496 0 .4263192-.19086961.4263192-.42631921 0-.23544959-.1908696-.4263192-.4263192-.4263192zm-.2551202 4.36389737-1.45015662-.85263841c-.13428312-.12056249-.32859424-.14684446-.49008029-.06628686s-.25736169.25159974-.24181201.43139262.13936775.33183445.31228678.38347048l1.44344294.83921108c.2129128.1118469.4761402.0364278.5975183-.1711991.0789556-.2152092.0097432-.45677411-.1711991-.59751825zm-1.53407773-7.01916107 1.45015663-.85263842c.1922187-.13288811.2638804-.38300153.1711991-.59751825-.1036911-.17822121-.3237116-.25156136-.5135972-.17119904l-1.44344294.8526384c-.19221862.13288811-.26388033.38300153-.17119905.59751826.10318737.17479616.31884333.24763361.50688346.17119905z" fill="#4e2e09" fill-rule="evenodd"/></svg>