<?xml version="1.0" encoding="UTF-8"?>
<svg width="12px" height="12px" viewBox="0 0 12 12" version="1.1" xmlns="http://www.w3.org/2000/svg" xmlns:xlink="http://www.w3.org/1999/xlink">
    <!-- Generator: Sketch 55.2 (78181) - https://sketchapp.com -->
    <title>icon_ft_red</title>
    <desc>Created with Sketch.</desc>
    <defs>
        <linearGradient x1="0%" y1="0.623046875%" x2="98.1714362%" y2="97.5711749%" id="linearGradient-1">
            <stop stop-color="#FF7F4F" offset="0%"></stop>
            <stop stop-color="#EA563B" offset="100%"></stop>
        </linearGradient>
    </defs>
    <g id="icon_ft_red" stroke="none" stroke-width="1" fill="none" fill-rule="evenodd">
        <g id="ico/体育项/足球" fill="url(#linearGradient-1)">
            <path d="M11.025,2.7 C11.625,3.6 12,4.8 12,6 C12,6.525 11.925,7.125 11.7,7.575 C11.475,8.325 11.175,9.075 10.65,9.675 C9.6,10.95 8.025,11.85 6.225,11.925 C6.15,11.925 6.075,11.925 6,11.925 C5.85,11.925 5.625,11.925 5.475,11.925 C4.875,11.85 4.35,11.7 3.9,11.55 C3.075,11.25 2.325,10.8 1.725,10.2 C1.125,9.6 0.675,8.85 0.375,8.025 C0.225,7.725 0.15,7.425 0.075,7.05 C0,6.75 0,6.375 0,6 C0,5.925 0,5.85 0,5.775 C0.075,3.975 0.975,2.325 2.25,1.275 C2.85,0.825 3.6,0.45 4.35,0.225 C4.875,0.075 5.475,4.4408921e-14 6,4.4408921e-14 L6,0.75 C5.7,0.75 5.4,0.75 5.1,0.825 L6.6,2.1 L8.4,1.35 C7.65,0.975 6.825,0.75 6,0.75 L6,4.4408921e-14 C7.275,4.4408921e-14 8.4,0.375 9.375,1.05 C9.525,1.2 9.675,1.275 9.825,1.425 C9.975,1.5 10.125,1.65 10.275,1.8 C10.575,2.1 10.8,2.4 11.025,2.7 Z M6.45,2.925 L6.225,2.7 L4.275,1.125 C4.275,1.125 4.2,1.125 4.2,1.125 C3.975,1.2 3.825,1.275 3.675,1.35 C3.675,1.35 3.6,1.35 3.6,1.35 C3.45,1.425 3.225,1.5 3.15,1.65 C3.075,1.65 3.075,1.65 3.075,1.65 L3.225,4.125 L3.225,4.575 L2.85,4.8 L0.75,6.15 C0.75,6.375 0.825,6.675 0.825,6.9 C0.825,6.975 0.825,6.975 0.825,7.05 C0.9,7.2 0.9,7.35 0.975,7.5 L3.375,8.1 L3.825,8.175 L3.9,8.625 L4.5,11.025 C4.65,11.1 4.8,11.175 4.95,11.175 C5.025,11.175 5.025,11.175 5.1,11.175 C5.4,11.25 5.625,11.25 5.85,11.25 L7.2,9.3 L7.425,8.925 L7.875,8.925 L10.35,9.075 C10.35,9 10.35,9 10.35,9 C10.425,8.85 10.575,8.625 10.65,8.475 C10.65,8.4 10.65,8.4 10.65,8.4 C10.725,8.25 10.8,8.025 10.875,7.875 C10.875,7.875 10.875,7.8 10.875,7.8 L9.3,5.85 L9,5.475 L9.15,5.1 L10.05,2.775 C10.05,2.7 10.05,2.7 10.05,2.7 C9.975,2.55 9.825,2.4 9.675,2.25 C9.525,2.1 9.375,2.025 9.225,1.875 C9.15,1.875 9.15,1.875 9.15,1.875 L6.825,2.775 L6.45,2.925 Z M2.325,2.25 C1.5,3.075 0.975,4.125 0.825,5.25 L2.475,4.2 L2.325,2.25 Z M2.325,9.675 C2.7,10.125 3.15,10.425 3.675,10.575 L3.225,8.7 L1.35,8.25 C1.575,8.775 1.95,9.3 2.325,9.675 Z M6.75,11.175 C7.875,11.025 8.925,10.5 9.75,9.675 L7.8,9.525 L6.75,11.175 Z M9.9,5.4 L11.175,6.9 C11.25,6.6 11.25,6.3 11.25,6 C11.25,5.1 11.025,4.275 10.65,3.6 L9.9,5.4 Z M3.675,5.175 C3.675,5.025 3.75,4.8 3.9,4.725 L6.15,3.525 C6.3,3.45 6.525,3.525 6.6,3.6 L8.325,5.4 C8.475,5.55 8.475,5.7 8.4,5.85 L7.2,8.1 C7.2,8.25 7.05,8.325 6.9,8.325 C6.825,8.325 6.825,8.325 6.825,8.325 L4.35,7.95 C4.2,7.95 4.05,7.8 4.05,7.65 L3.675,5.175 Z M6.3,4.35 L4.5,5.325 L4.725,7.2 L6.675,7.5 L7.65,5.7 L6.3,4.35 Z" id="形状结合"></path>
        </g>
    </g>
</svg>