<?xml version="1.0" encoding="UTF-8"?>
<svg width="12px" height="12px" viewBox="0 0 12 12" version="1.1" xmlns="http://www.w3.org/2000/svg" xmlns:xlink="http://www.w3.org/1999/xlink">
    <!-- Generator: Sketch 63.1 (92452) - https://sketch.com -->
    <title>icon_boradcast_close_normal</title>
    <desc>Created with Sketch.</desc>
    <g id="icon_boradcast_close_normal" stroke="none" stroke-width="1" fill="none" fill-rule="evenodd">
        <g id="ico/收藏备份-2" fill="#FFFFFF">
            <g id="形状结合-2" transform="translate(1.800000, 1.800000)">
                <path d="M1.05248087,0.180577169 L4.115,3.243 L7.17885581,0.180577169 C7.39287319,-0.0334402165 7.72508912,-0.0572199261 7.96537284,0.109238041 L8.05075951,0.180577169 C8.29152907,0.421346728 8.29152907,0.811711312 8.05075951,1.05248087 L8.05075951,1.05248087 L4.98,4.123 L8.0291097,7.17264553 C8.24430801,7.38784384 8.26821893,7.72189289 8.10084247,7.96350248 L8.0291097,8.0493603 C7.7870116,8.29145839 7.39449303,8.29145839 7.15239493,8.0493603 L7.15239493,8.0493603 L4.115,5.012 L1.07894175,8.0493603 C0.836843649,8.29145839 0.444325076,8.29145839 0.202226978,8.0493603 C-0.0398711212,7.8072622 -0.0398711212,7.41474362 0.202226978,7.17264553 L3.251,4.123 L0.180577169,1.05248087 C-0.0601923897,0.811711312 -0.0601923897,0.421346728 0.180577169,0.180577169 C0.421346728,-0.0601923897 0.811711312,-0.0601923897 1.05248087,0.180577169 Z" id="形状结合" fill-rule="nonzero"></path>
            </g>
        </g>
    </g>
</svg>