<svg height="14" viewBox="0 0 24 14" width="24" xmlns="http://www.w3.org/2000/svg"><g fill="none" fill-rule="evenodd"><path d="m0 0h20c2.209139 0 4 1.790861 4 4v10h-20c-2.209139 0-4-1.790861-4-4z" fill="#ff4000" transform="matrix(1 0 0 -1 0 14)"/><path d="m3 4h.94016687v5.15966387h3.1284863v.84033613h-4.06865317zm4.95343663 0h.94827175v6h-.94827175zm1.71148191 0h1.02932066l1.5885578 4.8907563h.0243146l1.5885578-4.8907563h1.0293207l-2.0586413 6h-1.142789zm6.02328166 0h4.1740167v.84033613h-3.2257449v1.66386555h3.0312276v.84033614h-3.0312276v1.81512605h3.363528v.84033613h-4.3117998z" fill="#fff" fill-rule="nonzero"/></g></svg>