<svg height="32" viewBox="0 0 83 32" width="83" xmlns="http://www.w3.org/2000/svg"><path d="m30.2995145 25.7926044h.3761636l-.3580207 5.4714713h-19.4237232l.2998424-4.5823572h7.2838962l.9107647-17.57710161h-5.8818317l.30208-4.61655393h15.4569065c.3191707 0 .6343966-.11398784.9456871-.34196695l.6855393-.54714714h.3761636l-.3602583 5.50566802h-5.8818317l-1.4579119 17.57710161h5.0953077c.3419687 0 .6571945-.1139879.9456871-.341967zm-20.58713652-17.23513465 4.01215202 3.48806295-5.78284266 6.3263887h3.14609596c.3875645 0 .7027904-.1139878.9456871-.3419669l.6833017-.5129505h.3761636l-.3401196 5.1978978h-11.11392616l.28417896-4.3429804 2.43151702-2.6673422-1.07478785-.8207207-1.85746885-1.4020646 5.39714576-10.36159877c.13039893-.25077702.20678544-.54714542.22916185-.88911408l-.01245265-.8549174.22755647-.34196695 5.10133885 3.04350591c-.9027717 1.25388512-1.8078727 2.45645689-2.7153304 3.6077514-.90745766 1.15129452-1.91514779 2.35386629-3.02310062 3.60775139l1.04282878.786524 1.54590507-1.6756381c.19580914-.2051812.27911922-.43315687.24993277-.68393389l-.01021503-.88911409zm3.11680882 15.08074285.1121729.3761636-10.23833678 7.5232731-1.70302292-7.420683.38511417-.1367868.32406592.2735736c.282947.2051812.58474723.2963715.90540975.2735736zm36.4212934-19.79988686h6.292192l-1.8603387-1.88081826.1591631-.34196696h5.4372746c.3191708 0 .632159-.07979149.9389742-.23937687l.7769412-.37616365.3330165.13678678-1.4078538 2.70153896h4.5823572c.3419687 0 .6571946-.11398784.9456871-.34196695l.6855393-.54714713h.3761636l-1.2322521 15.69628334h-8.3439938c-.1016339.1595854-.1918676.3191684-.2707036.4787537-.0788361.1595854-.1683239.3077696-.2684661.4445571h5.0953077l-.2541167 2.8383257h2.6673423c.3191707 0 .6343966-.1139878.9456871-.3419669l.6855393-.5471472h.3761636l-.3602583 5.505668h-4.6849474l-.3973249 5.0269143h-4.4113737l.2263414-5.0269143h-9.0279277l.30208-4.6165539h3.2486861l-2.5583306-2.1885885.2595155-.3077703h.7181306c.3191708 0 .5979627-.0797915.8363841-.2393768.2384214-.1595854.4897298-.341966.7539327-.5471472l.5442772-.4787537h-2.9067191zm-6.7830136 17.95326526h-1.4704579c-.2631656 2.2797911-.5848615 4.2346827-.9650973 5.8647333-.3802358 1.6300507-.9290479 3.0491993-1.6464527 4.2574886l-4.3243976-3.4196695.1955974-.3761637.3784013-.0341967c.2552523-.0683937.4397651-.188081.5535439-.3590653s.2373576-.4046594.37074-.7010323c.2122185-.4559582.5114815-1.8067142.897798-4.0523084s.7117014-5.2149776.9761645-8.9082392l.664576-10.15641866c.0620051-.25077703-.0150136-.46735393-.2310586-.64973722l-.5752632-.61554053.0268515-.41036034h5.1295044l-.543744 8.30979705h1.231081l.3487789-7.42068297c.0164093-.25077702-.0606094-.46735392-.2310586-.64973721l-.5730256-.64973722.0223763-.34196696h5.3004878l-.7438166 8.75435406.0364343-.0341967.6833017-.51295039h.3761636l-.3155057 4.82173409h-6.3947821c-.0586002.5471499-.1050548 1.0828928-.1393653 1.6072447l-.1006933 1.5388513h4.0010134c.3419686 0 .6571945-.1139878.945687-.3419669l.6855393-.5471472h.3761637l-1.1488276 14.9439561h-4.3087837zm16.5701739-8.651764c-.0649887.2963728-.1353029.5870418-.2109447.8720157s-.155863.5528453-.2406661.8036224h2.9067191l.1096439-1.6756381zm-3.6478088-3.83002994c.0392073-.25077702.067761-.51294907.0856622-.786524l.0559407-.85491739h-2.0859984l-.141603 1.64144139zm4.5187799-1.64144139c-.0193928.29637284-.043739.58134246-.073039.85491739-.0293001.27357493-.0635533.53574698-.1027606.786524h2.0518018l.1074062-1.64144139zm-3.9308717 12.51599063c-.2761369.3875645-.5629227.7637244-.8603658 1.128491-.2974431.3647665-.6062805.7295276-.9265215 1.0942942h2.3253753l.0783171-1.1968843c.0089505-.1367875-.0117148-.2564747-.0619967-.3590653-.0502818-.1025906-.1172882-.2108791-.201021-.3248686zm-1.9398708-5.3688812c.2137103-.4787562.4212397-1.0372966.6225943-1.6756381h-1.6414414l-.1438405 1.6756381zm28.9621309-10.32740214-2.3102507 15.96985694h-3.8984234l-.3619076-14.32841554c.0164094-.25077702-.0720082-.46735393-.2652553-.64973722l-.641419-.64973722.0223763-.34196696zm-4.4183341 18.39782234c.4559582 0 .8888445.0911902 1.2986718.2735735.4098272.1823833.7638786.4331566 1.0621647.7523273.2982861.3191708.5248186.6896313.6796044 1.1113926.1547857.4217614.21726.8606146.1874248 1.3165728-.031327.4787562-.1516061.9233088-.3608411 1.3336712s-.4835031.7694241-.8228127 1.0771959c-.3393095.3077718-.7197338.5471463-1.1412844.7181306-.4215507.1709843-.8716973.2564752-1.3504534.2564752s-.9177147-.0854909-1.3168889-.2564752-.7425727-.4103588-1.0302057-.7181306-.5035126-.6668335-.6476453-1.0771959c-.1441326-.4103624-.2005346-.854915-.1692077-1.3336712.031327-.4787561.1516062-.9233087.3608412-1.3336711.2092349-.4103624.4781766-.7751235.8068331-1.0942943.3286564-.3191707.7041272-.569944 1.1264237-.7523273s.8614173-.2735735 1.3173755-.2735735z" fill="#4e2e09"/></svg>