<?xml version="1.0" encoding="UTF-8"?>
<svg width="66px" height="30px" viewBox="0 0 66 30" version="1.1" xmlns="http://www.w3.org/2000/svg" xmlns:xlink="http://www.w3.org/1999/xlink">
    <title>word_notifi_result_draw_en-us</title>
    <defs>
        <linearGradient x1="100%" y1="50%" x2="0%" y2="50%" id="linearGradient-1">
            <stop stop-color="#0E5D04" offset="0%"></stop>
            <stop stop-color="#249612" offset="26.7419764%"></stop>
            <stop stop-color="#199611" offset="55.4080448%"></stop>
            <stop stop-color="#4BCE16" offset="80.4423564%"></stop>
            <stop stop-color="#115704" offset="100%"></stop>
        </linearGradient>
    </defs>
    <g id="word_notifi_result_draw_en-us" stroke="none" stroke-width="1" fill="none" fill-rule="evenodd">
        <g transform="translate(18.000000, 0.000000)" fill-rule="nonzero">
            <rect id="矩形" fill="#D8D8D8" opacity="0" x="0" y="0" width="30" height="30"></rect>
            <polygon id="矩形" stroke="#48D231" fill="url(#linearGradient-1)" points="4.25 0.5 4.25 25.88924 15.0371221 29.4729535 25.75 25.8900028 25.75 0.5"></polygon>
            <rect id="矩形" fill="#2F8E0D" x="1.875" y="0" width="26.25" height="1.875"></rect>
            <path d="M9.366,16.855 L10.464,9.745 L8.88,9.745 L8.547,12.337 L6.423,12.382 C6.177,12.388 5.9565,12.478 5.7615,12.652 C5.5665,12.826 5.451,13.036 5.415,13.282 L5.055,15.883 C5.049,15.913 5.046,15.955 5.046,16.009 C5.046,16.243 5.127,16.435 5.289,16.585 C5.451,16.735 5.655,16.798 5.901,16.774 L7.998,16.612 L7.962,16.855 L9.366,16.855 Z M6.54,15.37 L6.783,13.642 L8.376,13.678 L8.169,15.28 L6.54,15.37 Z M12.048,16.765 L12.363,14.497 C12.393,14.275 12.501,14.0815 12.687,13.9165 C12.873,13.7515 13.083,13.663 13.317,13.651 L14.28,13.588 L14.361,12.301 L13.254,12.436 C13.062,12.454 12.855,12.502 12.633,12.58 L12.678,12.265 L11.094,12.265 L10.464,16.765 L12.048,16.765 Z M18.681,16.963 L18.807,16.018 L18.339,16.018 L18.933,12.319 L17.601,12.319 L17.583,12.49 L17.574,12.49 L15.747,12.418 C15.489,12.406 15.2535,12.4915 15.0405,12.6745 C14.8275,12.8575 14.709,13.078 14.685,13.336 L14.685,13.336 L14.37,15.937 C14.364,15.961 14.361,16 14.361,16.054 C14.361,16.276 14.436,16.4605 14.586,16.6075 C14.736,16.7545 14.925,16.828 15.153,16.828 L15.153,16.828 L15.261,16.819 L17.007,16.603 C17.055,16.711 17.1285,16.798 17.2275,16.864 C17.3265,16.93 17.439,16.963 17.565,16.963 L17.565,16.963 L18.681,16.963 Z M15.765,15.505 L15.963,13.714 L17.385,13.705 L17.376,13.768 L17.133,15.307 L17.124,15.307 L15.765,15.505 Z M20.256,16.783 C20.448,16.783 20.6265,16.726 20.7915,16.612 C20.9565,16.498 21.075,16.348 21.147,16.162 L21.939,14.281 L22.209,16.171 C22.239,16.351 22.3215,16.498 22.4565,16.612 C22.5915,16.726 22.752,16.783 22.938,16.783 C23.118,16.783 23.2875,16.732 23.4465,16.63 C23.6055,16.528 23.727,16.39 23.811,16.216 L25.674,12.445 L24.162,12.166 L23.199,14.83 L22.893,12.778 C22.863,12.61 22.7865,12.475 22.6635,12.373 C22.5405,12.271 22.392,12.22 22.218,12.22 C22.05,12.22 21.8895,12.271 21.7365,12.373 C21.5835,12.475 21.471,12.607 21.399,12.769 L20.526,14.704 L20.337,12.139 L18.933,12.364 L19.509,16.171 C19.539,16.351 19.6215,16.498 19.7565,16.612 C19.8915,16.726 20.052,16.783 20.238,16.783 L20.256,16.783 Z" id="draw" fill="#D3FFB8"></path>
        </g>
    </g>
</svg>