<svg height="32" viewBox="0 0 119 32" width="119" xmlns="http://www.w3.org/2000/svg"><path d="m18.2363842 19.3956044h-6.7879769c-.5415057 2.6117347-1.2806348 4.956583-2.21740956 7.0346154-.93677474 2.0780323-2.04212398 3.9346072-3.31608087 5.5697802l-5.91491687-4.4626374.27297616-.3065934 1.30759762-.1021978c.41439443-.0454214.78333342-.193039 1.10682801-.4428571.64952277-.5223469 1.27828855-1.3683092 1.88631621-2.5379121s1.12584289-2.753653 1.55346121-4.7521978h-5.76466375l.55105001-4.9395604h5.96932638l.73346657-6.57472532h-4.63901936l.53584864-4.8032967h24.0819681c.3411061 0 .6607646-.11355198.9589853-.34065934l.7089038-.54505495h.3752148l-.6346576 5.68901099h-4.1955837l-.8016875 6.57472532h3.6839272c.3183656 0 .6380242-.113552.9589852-.3406594l.6747934-.5450549h.4093252l-.649859 5.8252747h-5.6964428l-1.515967 12.3659341h-4.843682zm-5.9640434-4.9395604h6.4809829l.6652457-6.57472532h-6.412762zm32.4889232-8.34615389-.5814528 5.21208789h-1.876074l-.5964688 4.7351649 1.3758185-.1021978-.6854531-1.8054946.3601061-.1703296.9397982.4428571c.2374766.1135537.4528584.1703297.6461518.1703297s.4200761-.0454208.6803549-.1362637c.4219951-.1135537.8976981-.3009145 1.4271231-.562088.5294251-.2611734 1.0860159-.5620862 1.6697892-.9027472h-3.752148l.4104373-3.67912089h3.7862584l-2.2925366-1.46483516 2.725498-1.4989011h-1.7396323c-.5685101 0-1.0902648-.0113552-1.5652797-.03406594l.1220743-2.62307692 16.3317617-1.46483516c.3967212-.09084295.7366172-.28388131 1.0196981-.57912088l.4701308-.54505495.3866158-.1021978 1.2340937 4.83736264c-.6645388.04542147-1.3745479.09084226-2.1300484.13626373-.7555005.04542148-1.5450998.09084227-2.3688215.13626374l2.9140325 1.7032967-2.4867249 1.4989011h2.2512888c.3638465 0 .683505-.11355198.9589853-.34065934l.7051034-.51098901h.3752148l-.5054458 4.53076924h-3.8885898c.8058631.5223469 1.5214182.9368116 2.1466866 1.2434066.6252685.3065949 1.0566654.4144693 1.2942038.3236264.2375383-.090843.4043348-.2100726.5003945-.3576923.0960597-.1476198.1782298-.3236254.2465128-.528022h.3752148c.0328129.1135537.036536.33498.0111693.6642857-.0253666.3293057-.1088344.6188632-.2504057.8686813l-1.956808 3.7813187-.1970619-.0681319-1.6601021 12.7406594h-18.1467521l1.2356681-12.9109891-.4624374.1703297-.8748217-2.2483516-1.9030471 1.4648351-1.6716884 13.456044c-.5356354-.090843-1.1066242-.2214277-1.7129835-.3917583-.6063593-.1703305-1.2152276-.3690464-1.8266232-.5961538s-1.2151968-.4712441-1.8114218-.7324176c-.596225-.2611734-1.1520126-.5280206-1.6673794-.8005494l.0076934-.3747253 2.7406066-1.3285714c.2653459-.1362645.4959598-.3179476.6918486-.545055.1958888-.2271073.3115665-.4996321.3470366-.8175824l.4258239-4.4285714-2.0129791 1.532967-.7975173-7.221978.3828154-.0681319.2765912.2725275c.1237746.1135537.2494474.2100729.3770223.2895604.1275749.0794876.2835885.1078756.4680453.0851649l1.8230545-.1362638.4904298-5.0076923h-2.8311662l.4826438-4.3263736h2.7629453l.3573251-3.50879121c.0278694-.2498181-.0390223-.46556686-.2006769-.64725275l-.5455817-.61318681.0456042-.40879121h5.4576698l-.6458733 5.17802198c.2501445 0 .5243229-.11355198.8225435-.34065935l.7089038-.54505494zm7.5207031 8.41428569c-.9148687.6586114-1.8170714 1.2547593-2.7066352 1.7884616s-1.8384826 1.0390086-2.8467846 1.515934h14.5651563c-.7452426-.4542147-1.5239354-.9651986-2.3361015-1.532967-.8121662-.5677684-1.6476782-1.1809491-2.5065611-1.8395604l-.3495391 2.8274725h-4.0591419zm-.9639913-8.17582415.0786953 2.96373626h1.3644174l.2624092-2.96373626zm6.2195005-.1021978-.4102519 3.06593406h1.2620861l.5692178-2.35054945c.0986241-.27252883.1504998-.53369838.1556288-.78351648zm-2.3678002 21.83626375h2.4900618l.1559068-1.7032967h-2.4218409zm-6.8903082 0h2.421841l.1559068-1.7032967h-2.3536201zm7.5512902-5.0076923h2.3195097l.1521064-1.6692308h-2.2512888zm-6.9244186 0h2.2512888l.1521065-1.6692308h-2.183068zm32.629257-21.22307695h5.5600011l-.5736667 4.53076923c.0960288-.04542147.2426033-.13626305.439728-.27252747l.6785937-.57912088h.3411044l-.5852531 5.24615387h-1.4326384l-.5964688 4.7351648 2.0732286-.2384615.094638.3747252-2.4375984 1.9758242-1.7742051 14.0692308c-1.139492-.1816859-2.3578929-.4712434-3.6552392-.8686813s-2.4967457-.8573234-3.598234-1.3796704l.0456041-.4087912 2.9186668-1.0901099c.5508987-.2498181.8592798-.6699604.9251528-1.2604395l.524633-5.3142857-.8264365.6813187-1.5523034-5.3483517-1.3981562 11.3098901h-7.9136213l2.3153367-23.8120879h6.6174247c.3411061 0 .6721347-.11355198.9930957-.34065934l.6747934-.54505494h.3752148l-1.5500774 12.36593408.0379107-.034066.314502.2384616c.3183039.2043966.6290642.2725278.9322901.2043956l1.5160606-.1362637.5094316-5.178022h-2.1489575l.4864441-4.36043958h2.1148471l.2889189-2.8956044c.0051289-.2498181-.071866-.47692205-.230987-.68131868l-.549382-.57912088zm17.2224353 23.57362635-.6118555 5.4846154h-13.0301867l.5130465-4.5989011h6.5492038l3.1117421-12.910989c.0556769-.2952396.0165924-.5564091-.1172546-.7835165l-.4924695-.7835165.1176253-.4428571 5.2451288.9879121c-.3161412.9992724-.6689366 2.0723386-1.0583968 3.2192307-.3894602 1.1468922-.8048216 2.3221552-1.2460966 3.5258242s-.9116018 2.4129976-1.4109946 3.628022-1.0069812 2.4016426-1.5227805 3.5598901h1.9101845c.3183656 0 .6380242-.113552.9589852-.3406593l.7089038-.545055zm-2.9000377-22.9263736c.4320677 0 .8161461-.07948639 1.1522468-.23846154l1.0386072-.44285714.2917925.13626373-2.222276 4.32637363h2.5582827c.3638465 0 .683505-.11355198.9589852-.34065934l.7051035-.51098901h.375215l-.589054 5.28021977h-12.0068733l.4940448-4.42857142h5.5600012l-3.1636506-3.44065934.1744452-.34065934zm-3.3381874 9.7428571-1.2510549 13.6604396-.447236.0340659-3.4903885-13.3538461 5.1395529-.8175824zm-19.9125226 11.2417583h1.2620862l1.4787975-14.7846154h-.8868714zm44.3928159-18.73626375-3.036847 15.90879125h-3.88859l.296148-14.27362642c.027869-.2498181-.050392-.46556685-.234787-.64725274l-.610003-.64725275.038004-.34065934zm-5.250967 18.32747255c.454808 0 .882421.0908416 1.282849.2725274.400429.1816859.742086.4315003 1.024982.7494506s.491866.6869942.626918 1.1071429c.135053.4201486.177242.8573237.126571 1.3115384-.053205.4769255-.19357.9197782-.421097 1.3285714-.227528.4087933-.517572.766482-.870141 1.073077-.352569.3065949-.743012.5450541-1.171341.7153846s-.881261.2554945-1.35881.2554945c-.477548 0-.911479-.085164-1.301804-.2554945s-.721879-.4087897-.994672-.7153846c-.272792-.306595-.471659-.6642837-.596608-1.073077-.124948-.4087932-.16082-.8516459-.107615-1.3285714.053205-.4769254.19357-.9197782.421097-1.3285714.227528-.4087933.51252-.7721596.854986-1.0901099.342465-.3179503.72849-.5677647 1.158086-.7494506.429596-.1816858.871791-.2725274 1.326599-.2725274z" fill="#4e2e09"/></svg>