<?xml version="1.0" encoding="UTF-8"?>
<svg width="68px" height="32px" viewBox="0 0 68 32" version="1.1" xmlns="http://www.w3.org/2000/svg" xmlns:xlink="http://www.w3.org/1999/xlink">
    <title>word_notifi_lose_normal_zh-tw</title>
    <g id="word_notifi_lose_normal_zh-tw" stroke="none" stroke-width="1" fill="none" fill-rule="evenodd">
        <path d="M28.5346535,30.8019802 L31.3729373,25.9174917 C31.5049505,25.6754675 31.5929593,25.3949395 31.6369637,25.0759076 C31.6809681,24.7568757 31.6809681,24.5533553 31.6369637,24.4653465 L31.6369637,24.4653465 L31.2739274,24.3663366 C31.2079208,24.8063806 30.9658966,25.070407 30.5478548,25.1584158 C30.1738174,25.2464246 29.6787679,25.1639164 29.0627063,24.9108911 C28.4466447,24.6578658 27.7590759,24.2563256 27,23.7062706 C26.2409241,23.1562156 25.4323432,22.479648 24.5742574,21.6765677 C23.7161716,20.8734873 22.8580858,19.9768977 22,18.9867987 L22,18.9867987 L31.3069307,18.9867987 L31.3069307,13.5082508 L30.9108911,13.5082508 L30.3168317,14.0363036 C30.0748075,14.2563256 29.7777778,14.3663366 29.4257426,14.3663366 L29.4257426,14.3663366 L19.9867987,14.3663366 L20.0528053,10.6369637 L29.7227723,10.6369637 L29.7227723,5.22442244 L29.359736,5.22442244 L28.7326733,5.75247525 C28.4466447,5.97249725 28.149615,6.08250825 27.8415842,6.08250825 L27.8415842,6.08250825 L20.1188119,6.08250825 L20.1848185,1.52805281 L13.6831683,1.52805281 L13.6831683,1.92409241 L14.2772277,2.51815182 C14.4532453,2.69416942 14.5412541,2.90319032 14.5412541,3.14521452 L14.5412541,3.14521452 L14.5742574,6.08250825 L11.1749175,6.08250825 C11.4169417,5.68646865 11.6479648,5.29592959 11.8679868,4.91089109 C12.0880088,4.52585259 12.2970297,4.14631463 12.4950495,3.77227723 L12.4950495,3.77227723 L6.38943894,1.72607261 L6.25742574,2.08910891 L6.55445545,2.91419142 C6.62046205,3.26622662 6.60946095,3.60726073 6.52145215,3.93729373 L6.52145215,3.93729373 L3.55115512,12.6831683 L5.76237624,13.8712871 C6.13641364,13.4092409 6.53245325,12.9031903 6.95049505,12.3531353 C7.36853685,11.8030803 7.78657866,11.2310231 8.20462046,10.6369637 L8.20462046,10.6369637 L14.640264,10.6369637 L14.6732673,14.3663366 L2.59405941,14.3663366 L2.59405941,18.9867987 L12.0660066,18.9867987 C11.5379538,19.6028603 10.9768977,20.2134213 10.3828383,20.8184818 C9.78877888,21.4235424 9.17821782,21.990099 8.55115512,22.5181518 C7.92409241,23.0462046 7.2860286,23.5247525 6.6369637,23.9537954 C5.98789879,24.3828383 5.35533553,24.7293729 4.73927393,24.9933993 C4.32123212,25.1474147 3.89218922,25.180418 3.45214521,25.0924092 L3.45214521,25.0924092 L2.2970297,24.7293729 L2,24.960396 L5.92739274,30.8019802 C7.00550055,30.2079208 8.06710671,29.5148515 9.11221122,28.7227723 C10.1573157,27.9306931 11.1584158,27.0891089 12.1155116,26.1980198 C13.0726073,25.3069307 13.9691969,24.3883388 14.8052805,23.4422442 C15.6413641,22.4961496 16.40044,21.5830583 17.0825083,20.7029703 C17.8085809,21.6270627 18.6171617,22.5786579 19.5082508,23.5577558 C20.3993399,24.5368537 21.339934,25.4829483 22.330033,26.3960396 C23.320132,27.3091309 24.3432343,28.1452145 25.3993399,28.9042904 C26.4554455,29.6633663 27.5005501,30.2959296 28.5346535,30.8019802 L28.5346535,30.8019802 Z M62.1265127,31 L65.5258526,27.2376238 C65.679868,27.0616062 65.8173817,26.8635864 65.9383938,26.6435644 C66.0594059,26.4235424 66.1419142,26.1815182 66.1859186,25.9174917 L66.1859186,25.9174917 L65.8558856,25.7194719 C65.7238724,25.9174917 65.5423542,26.0440044 65.3113311,26.0990099 C65.080308,26.1540154 64.8437844,26.1155116 64.6017602,25.9834983 C64.1617162,25.7414741 63.5951595,25.2024202 62.9020902,24.3663366 C62.2090209,23.530253 61.4664466,22.4851485 60.6743674,21.2310231 C61.5544554,19.4708471 62.2915292,17.6391639 62.8855886,15.7359736 C63.479648,13.8327833 63.9526953,11.8470847 64.3047305,9.77887789 L64.3047305,9.77887789 L65.6908691,9.77887789 L65.6908691,4.59735974 L65.3278328,4.59735974 L64.7007701,5.09240924 C64.4587459,5.31243124 64.1507151,5.42244224 63.7766777,5.42244224 L63.7766777,5.42244224 L57.7370737,5.42244224 C57.9350935,4.93839384 58.1331133,4.45984598 58.3311331,3.98679868 C58.5291529,3.51375138 58.7161716,3.02420242 58.8921892,2.51815182 L58.8921892,2.51815182 L53.149615,1 L53.0506051,1.3630363 L53.3146315,2.02310231 C53.4246425,2.41914191 53.4356436,2.78217822 53.3476348,3.11221122 L53.3476348,3.11221122 L49.8162816,15.0924092 L50.0143014,1.3630363 L49.6182618,1.3630363 L48.9911991,1.89108911 C48.7051705,2.11111111 48.3861386,2.22112211 48.0341034,2.22112211 L48.0341034,2.22112211 L37.5390539,2.22112211 L37.8360836,22.8811881 L49.7172717,22.8811881 L49.8162816,15.2244224 L52.159516,16.3465347 L52.9185919,15.1584158 C53.3146315,16.2145215 53.7326733,17.2431243 54.1727173,18.2442244 C54.6127613,19.2453245 55.0858086,20.2519252 55.5918592,21.2640264 C54.6017602,22.7381738 53.4906491,24.1463146 52.2585259,25.4884488 C51.8844884,25.9284928 51.3564356,26.1155116 50.6743674,26.049505 L50.6743674,26.049505 L49.9152915,25.950495 L49.6842684,26.2475248 L50.7073707,27.4686469 C50.5753575,27.5126513 50.4268427,27.5181518 50.2618262,27.4851485 C50.0968097,27.4521452 49.9262926,27.3586359 49.750275,27.2046205 L49.750275,27.2046205 L45.0968097,23.1452145 L44.7667767,23.310231 L45.8228823,30.9339934 L50.4763476,28.4917492 C50.5863586,28.4257426 50.6963696,28.3487349 50.8063806,28.2607261 C50.9163916,28.1727173 51.0264026,28.0737074 51.1364136,27.9636964 L51.1364136,27.9636964 L53.6116612,30.9339934 C54.4477448,30.0979098 55.2453245,29.2453245 56.0044004,28.3762376 C56.7634763,27.5071507 57.4620462,26.5885589 58.10011,25.620462 C58.6721672,26.5005501 59.2937294,27.3806381 59.9647965,28.2607261 C60.6358636,29.1408141 61.3564356,30.0539054 62.1265127,31 L62.1265127,31 Z M45.8228823,18.8877888 L41.6644664,18.8877888 L41.6974697,17.1386139 L45.0968097,17.1386139 L45.0968097,12.5841584 L44.7007701,12.5841584 L44.0737074,13.0792079 C43.8316832,13.2992299 43.5126513,13.4092409 43.1166117,13.4092409 L43.1166117,13.4092409 L41.7634763,13.4092409 L41.7964796,11.660066 L45.0968097,11.660066 L45.0968097,7.10561056 L44.7007701,7.10561056 L44.0737074,7.63366337 C43.8316832,7.85368537 43.5126513,7.96369637 43.1166117,7.96369637 L43.1166117,7.96369637 L41.8294829,7.96369637 L41.8624862,6.21452145 L45.6248625,6.21452145 L45.8228823,18.8877888 Z M58.0671067,16.4785479 C57.0770077,14.520352 56.229923,12.4851485 55.5258526,10.3729373 L55.5258526,10.3729373 L55.8228823,9.77887789 L59.9482948,9.77887789 C59.530253,12.2211221 58.9031903,14.4543454 58.0671067,16.4785479 Z M41.6974697,30.9669967 L42.4235424,23.3432343 L42.0935094,23.1782178 L37.5060506,27.5016502 C37.3960396,27.6116612 37.269527,27.69967 37.1265127,27.7656766 C36.9834983,27.8316832 36.8239824,27.8756876 36.6479648,27.8976898 L36.6479648,27.8976898 L36.2189219,27.9636964 L36.0539054,28.3267327 L41.6974697,30.9669967 Z" id="失敗" fill="#4E2E09" fill-rule="nonzero"></path>
    </g>
</svg>