<?xml version="1.0" encoding="UTF-8"?>
<svg width="83px" height="32px" viewBox="0 0 83 32" version="1.1" xmlns="http://www.w3.org/2000/svg" xmlns:xlink="http://www.w3.org/1999/xlink">
    <title>word_notifi_redcard_normal_en-us</title>
    <g id="word_notifi_redcard_normal_en-us" stroke="none" stroke-width="1" fill="none" fill-rule="evenodd">
        <path d="M7.69,22.232 L8.208,18.522 L9.398,18.522 L10.63,22.232 L13.122,22.232 L11.764,18.522 C12.1186667,18.522 12.4406667,18.396 12.73,18.144 C13.0193333,17.892 13.1873333,17.5886667 13.234,17.234 L13.71,13.846 C13.7193333,13.7993333 13.724,13.7386667 13.724,13.664 C13.724,13.3653333 13.6283333,13.111 13.437,12.901 C13.2456667,12.691 12.996,12.5766667 12.688,12.558 L8.222,12.292 C7.84866667,12.2733333 7.508,12.39 7.2,12.642 C6.892,12.894 6.71466667,13.2066667 6.668,13.58 L5.45,22.232 L7.69,22.232 Z M11.26,16.632 L8.474,16.632 L8.81,14.238 L11.596,14.322 L11.26,16.632 Z M21.956,22.134 L22.25,20.076 L17.434,20.174 L17.7,18.102 L21.83,18.102 L22.096,16.184 L17.938,16.184 L18.19,14.182 L22.782,14.28 L23.076,12.222 L17.462,12.222 C17.0793333,12.222 16.7293333,12.3596667 16.412,12.635 C16.0946667,12.9103333 15.9126667,13.2393333 15.866,13.622 L14.858,20.734 C14.8486667,20.7713333 14.844,20.832 14.844,20.916 C14.844,21.2613333 14.9583333,21.5506667 15.187,21.784 C15.4156667,22.0173333 15.7073333,22.134 16.062,22.134 L21.956,22.134 Z M24.196,22.26 L31.014,21.784 C31.3873333,21.7653333 31.7186667,21.6206667 32.008,21.35 C32.2973333,21.0793333 32.4653333,20.7573333 32.512,20.384 L33.436,13.818 C33.4453333,13.7806667 33.45,13.72 33.45,13.636 C33.45,13.3093333 33.3426667,13.0293333 33.128,12.796 C32.9133333,12.5626667 32.6333333,12.4366667 32.288,12.418 L25.624,12.11 L24.196,22.26 Z M26.954,19.572 L27.668,14.518 L31.14,14.602 L30.454,19.46 L26.954,19.572 Z M46.344,22.092 L46.694,19.642 L41.22,19.838 L41.99,14.378 L47.114,14.672 L47.464,12.222 L41.374,12.222 C40.982,12.222 40.6296667,12.3596667 40.317,12.635 C40.0043333,12.9103333 39.82,13.2393333 39.764,13.622 L38.784,20.692 C38.7746667,20.7386667 38.77,20.8086667 38.77,20.902 C38.77,21.238 38.882,21.5203333 39.106,21.749 C39.33,21.9776667 39.6193333,22.092 39.974,22.092 L46.344,22.092 Z M50.88,22.134 L51.706,20.202 L54.688,20.202 L55.01,22.134 L57.782,22.134 L55.64,12.236 L53.078,12.236 L48.584,22.134 L50.88,22.134 Z M54.366,18.312 L52.518,18.312 L53.834,15.232 L54.366,18.312 Z M61.142,22.232 L61.66,18.522 L62.85,18.522 L64.082,22.232 L66.574,22.232 L65.216,18.522 C65.5706667,18.522 65.8926667,18.396 66.182,18.144 C66.4713333,17.892 66.6393333,17.5886667 66.686,17.234 L67.162,13.846 C67.1713333,13.7993333 67.176,13.7386667 67.176,13.664 C67.176,13.3653333 67.0803333,13.111 66.889,12.901 C66.6976667,12.691 66.448,12.5766667 66.14,12.558 L61.674,12.292 C61.3006667,12.2733333 60.96,12.39 60.652,12.642 C60.344,12.894 60.1666667,13.2066667 60.12,13.58 L58.902,22.232 L61.142,22.232 Z M64.712,16.632 L61.926,16.632 L62.262,14.238 L65.048,14.322 L64.712,16.632 Z M68.296,22.26 L75.114,21.784 C75.4873333,21.7653333 75.8186667,21.6206667 76.108,21.35 C76.3973333,21.0793333 76.5653333,20.7573333 76.612,20.384 L77.536,13.818 C77.5453333,13.7806667 77.55,13.72 77.55,13.636 C77.55,13.3093333 77.4426667,13.0293333 77.228,12.796 C77.0133333,12.5626667 76.7333333,12.4366667 76.388,12.418 L69.724,12.11 L68.296,22.26 Z M71.054,19.572 L71.768,14.518 L75.24,14.602 L74.554,19.46 L71.054,19.572 Z" id="REDCARD" fill="#4E2E09" fill-rule="nonzero"></path>
    </g>
</svg>