<?xml version="1.0" encoding="UTF-8"?>
<svg width="83px" height="32px" viewBox="0 0 83 32" version="1.1" xmlns="http://www.w3.org/2000/svg" xmlns:xlink="http://www.w3.org/1999/xlink">
    <title>word_notifi_start_normal_zh-tw</title>
    <g id="word_notifi_start_normal_zh-tw" stroke="none" stroke-width="1" fill="none" fill-rule="evenodd">
        <path d="M29.3178808,30.5033113 L29.6490066,1.33112583 L29.2847682,1.33112583 L28.6556291,1.86092715 C28.4128035,2.0816777 28.1147903,2.19205298 27.7615894,2.19205298 L27.7615894,2.19205298 L16.7682119,2.19205298 L16.9668874,12.5231788 L25.2119205,12.5231788 L25.410596,25.0066225 C25.4547461,25.7792494 25.1236203,26.3532009 24.4172185,26.7284768 L24.4172185,26.7284768 L21.2715232,27.8874172 L21.3377483,22.7549669 L24.2847682,22.7549669 L24.2847682,18.2516556 L23.8874172,18.2516556 L23.2913907,18.781457 C23.004415,19.0022075 22.7064018,19.1125828 22.397351,19.1125828 L22.397351,19.1125828 L21.4039735,19.1125828 L21.4370861,17.3245033 L23.4238411,17.3245033 L23.4238411,12.9205298 L23.0596026,12.9205298 L22.4635762,13.4503311 C22.1766004,13.6710817 21.8675497,13.781457 21.5364238,13.781457 L21.5364238,13.781457 L8.32450331,13.781457 L8.32450331,17.3245033 L10.4768212,17.3245033 L10.410596,19.1125828 L7.56291391,19.1125828 L7.56291391,22.7549669 L10.0463576,22.7549669 C10.0022075,23.1081678 9.95253863,23.4337748 9.89735099,23.7317881 C9.84216336,24.0298013 9.78145695,24.3222958 9.71523179,24.6092715 C9.62693157,24.9845475 9.45584989,25.2935982 9.20198675,25.5364238 C8.94812362,25.7792494 8.64459161,25.9337748 8.29139073,26 L8.29139073,26 L7.79470199,26.0993377 L7.62913907,26.4304636 L12.794702,29.1788079 C13.2362031,28.2516556 13.5838852,27.2803532 13.8377483,26.2649007 C14.0916115,25.2494481 14.2847682,24.0794702 14.4172185,22.7549669 L14.4172185,22.7549669 L17.3311258,22.7549669 L17.4304636,28.384106 L19.9801325,28.384106 L19.9139073,28.4172185 L19.9139073,28.781457 C21.3487859,29.2229581 22.8995585,29.5927152 24.5662252,29.8907285 C26.2328918,30.1887417 27.816777,30.392936 29.3178808,30.5033113 L29.3178808,30.5033113 Z M6.47019868,30.4039735 L6.70198675,12.5231788 L14.615894,12.5231788 L14.781457,1.36423841 L14.384106,1.36423841 L13.7880795,1.89403974 C13.5452539,2.11479029 13.2362031,2.22516556 12.8609272,2.22516556 L12.8609272,2.22516556 L6.83443709,2.22516556 L6.83443709,2.19205298 L2,2.19205298 L2.39735099,30.4039735 L6.47019868,30.4039735 Z M25.1788079,9.70860927 L21.4370861,9.70860927 L21.4701987,8.84768212 L24.4172185,8.84768212 L24.4172185,5.40397351 L24.0198675,5.40397351 L23.4569536,5.90066225 C23.3245033,6.01103753 23.1810155,6.08278146 23.0264901,6.11589404 C22.8719647,6.14900662 22.7064018,6.16556291 22.5298013,6.16556291 L22.5298013,6.16556291 L21.5033113,6.16556291 L21.5033113,5.20529801 L25.1125828,5.20529801 L25.1788079,9.70860927 Z M10.4437086,9.74172185 L6.73509934,9.74172185 L6.73509934,8.8807947 L9.78145695,8.8807947 L9.78145695,5.40397351 L9.38410596,5.40397351 L8.78807947,5.93377483 C8.54525386,6.15452539 8.23620309,6.26490066 7.86092715,6.26490066 L7.86092715,6.26490066 L6.76821192,6.26490066 L6.8013245,5.20529801 L10.3774834,5.20529801 L10.4437086,9.74172185 Z M17.2649007,19.1125828 L14.6490066,19.1125828 C14.6490066,18.8256071 14.6545254,18.5331126 14.6655629,18.2350993 C14.6766004,17.9370861 14.6821192,17.6335541 14.6821192,17.3245033 L14.6821192,17.3245033 L17.2317881,17.3245033 L17.2649007,19.1125828 Z M60.7693157,26.0993377 L60.901766,19.3443709 C61.2770419,19.5209713 61.6357616,19.692053 61.9779249,19.8576159 C62.3200883,20.0231788 62.6788079,20.183223 63.0540839,20.3377483 L63.0540839,20.3377483 L64.9083885,16.7284768 C65.0408389,16.4856512 65.1291391,16.209713 65.1732892,15.9006623 C65.2174393,15.5916115 65.2174393,15.3818985 65.1732892,15.2715232 L65.1732892,15.2715232 L64.7759382,15.205298 C64.7317881,15.4039735 64.6655629,15.5695364 64.5772627,15.7019868 C64.4889625,15.8344371 64.3233996,15.9337748 64.080574,16 C63.6611479,16.1103753 63.1037528,16.0551876 62.4083885,15.8344371 C61.7130243,15.6136865 60.9459161,15.2715232 60.107064,14.807947 L60.107064,14.807947 L64.2461369,14.807947 L64.2461369,11.4635762 L63.8818985,11.4635762 L63.285872,11.9933775 C62.9988962,12.214128 62.6898455,12.3245033 62.3587196,12.3245033 L62.3587196,12.3245033 L56.5971302,12.3245033 L56.5971302,11.6622517 L59.4779249,11.6622517 L59.4779249,8.58278146 L59.4448124,8.58278146 L59.4448124,5.73509934 L60.0739514,5.73509934 L60.1732892,10.6688742 L64.0474614,10.6688742 L64.2792494,1.92715232 L63.915011,1.92715232 L63.285872,2.42384106 C63.0430464,2.64459161 62.7450331,2.75496689 62.3918322,2.75496689 L62.3918322,2.75496689 L52.888521,2.75496689 L53.7825607,1.13245033 L53.4514349,1 L52.7229581,1.39735099 C52.4359823,1.55187638 52.1379691,1.62913907 51.8289183,1.62913907 L51.8289183,1.62913907 L46.9613687,1.62913907 L46.7958057,1.9602649 L47.7891832,2.75496689 L35.9348786,2.75496689 L36.1666667,10.6688742 L40.0408389,10.6688742 L40.2064018,5.73509934 L43.4514349,5.73509934 L43.4845475,6.46357616 L40.7693157,6.46357616 L40.7693157,8.74834437 L43.51766,8.74834437 L43.51766,9.41059603 L40.6368653,9.41059603 L40.6368653,11.6622517 L43.5507726,11.6622517 L43.5838852,12.3245033 L36.0011038,12.3245033 L36.0011038,14.807947 L40.0739514,14.807947 C39.6766004,15.0507726 39.2792494,15.2549669 38.8818985,15.4205298 C38.4845475,15.5860927 38.1203091,15.7240618 37.7891832,15.8344371 C37.303532,16.0110375 36.8399558,16.0220751 36.3984547,15.8675497 L36.3984547,15.8675497 L35.3719647,15.4370861 L35.0408389,15.6357616 L37.6236203,20.4039735 C38.2196468,20.1390728 38.7825607,19.8410596 39.312362,19.5099338 L39.312362,19.5099338 L39.4779249,26.0993377 L60.7693157,26.0993377 Z M52.4249448,6.46357616 L47.7229581,6.46357616 L47.7229581,5.73509934 L52.3918322,5.73509934 L52.4249448,6.46357616 Z M57.5573951,6.46357616 L56.696468,6.46357616 L56.696468,5.73509934 L58.9481236,5.73509934 L58.4845475,6.13245033 C58.2417219,6.35320088 57.9326711,6.46357616 57.5573951,6.46357616 L57.5573951,6.46357616 Z M52.49117,9.41059603 L47.6567329,9.41059603 L47.6898455,8.74834437 L52.4580574,8.74834437 L52.49117,9.41059603 Z M57.5905077,9.41059603 L56.6302428,9.41059603 L56.6633554,8.74834437 L58.8818985,8.74834437 L58.4845475,9.0794702 C58.2417219,9.30022075 57.9437086,9.41059603 57.5905077,9.41059603 L57.5905077,9.41059603 Z M52.5573951,12.3245033 L47.6236203,12.3245033 L47.6236203,11.6622517 L52.5242826,11.6622517 L52.5573951,12.3245033 Z M55.4381898,15.7019868 L44.709713,15.7019868 L45.7362031,14.807947 L54.3454746,14.807947 C54.6986755,15.1390728 55.0629139,15.4370861 55.4381898,15.7019868 L55.4381898,15.7019868 Z M56.299117,23.8807947 L43.9481236,23.8807947 L43.9812362,23.218543 L55.3719647,23.218543 L55.3719647,17.986755 L56.1666667,17.986755 L56.299117,23.8807947 Z M53.4845475,18.6490066 L44.0474614,18.6490066 L44.080574,17.986755 L54.7759382,17.986755 L54.3785872,18.3178808 C54.0916115,18.5386313 53.7935982,18.6490066 53.4845475,18.6490066 L53.4845475,18.6490066 Z M53.4845475,21.2649007 L44.0143488,21.2649007 L44.0143488,20.6357616 L54.7428256,20.6357616 L54.3785872,20.9337748 C54.1357616,21.1545254 53.8377483,21.2649007 53.4845475,21.2649007 L53.4845475,21.2649007 Z M61.6633554,30.8675497 L62.888521,27.4900662 C62.9988962,27.2472406 63.0871965,26.9713024 63.1534216,26.6622517 C63.2196468,26.3532009 63.2306843,26.0662252 63.1865342,25.8013245 L63.1865342,25.8013245 L62.7891832,25.7682119 C62.7229581,26.0110375 62.607064,26.2041943 62.4415011,26.3476821 C62.2759382,26.49117 61.9944812,26.5629139 61.5971302,26.5629139 L61.5971302,26.5629139 L52.9216336,26.4966887 L52.7891832,26.8940397 L61.6633554,30.8675497 Z M38.4514349,31 L47.6898455,26.8609272 L47.5905077,26.4635762 L39.0143488,26.5960265 C38.7494481,26.5960265 38.5452539,26.5794702 38.401766,26.5463576 C38.2582781,26.513245 38.1203091,26.4525386 37.9878587,26.3642384 L37.9878587,26.3642384 L37.3918322,26 L37.0607064,26.1655629 L38.4514349,31 Z M79.6710817,19.7086093 L80.8962472,4.24503311 L73.6777042,4.24503311 L73.6777042,4.57615894 L74.3399558,5.20529801 C74.5386313,5.38189845 74.6379691,5.59161148 74.6379691,5.83443709 L74.6379691,5.83443709 L75.8962472,19.7086093 L79.6710817,19.7086093 Z M77.7836645,28.6821192 C78.2472406,28.6821192 78.6777042,28.5993377 79.0750552,28.4337748 C79.4724062,28.2682119 79.8256071,28.0364238 80.1346578,27.7384106 C80.4437086,27.4403974 80.6865342,27.0927152 80.8631347,26.6953642 C81.0397351,26.2980132 81.1280353,25.8675497 81.1280353,25.4039735 C81.1280353,24.9624724 81.0397351,24.5375276 80.8631347,24.1291391 C80.6865342,23.7207506 80.4437086,23.3620309 80.1346578,23.0529801 C79.8256071,22.7439294 79.4668874,22.5011038 79.0584989,22.3245033 C78.6501104,22.1479029 78.2251656,22.0596026 77.7836645,22.0596026 C77.3421634,22.0596026 76.9227373,22.1479029 76.5253863,22.3245033 C76.1280353,22.5011038 75.7803532,22.7439294 75.48234,23.0529801 C75.1843267,23.3620309 74.9470199,23.7152318 74.7704194,24.1125828 C74.593819,24.5099338 74.5055188,24.9403974 74.5055188,25.4039735 C74.5055188,25.8675497 74.5883002,26.2980132 74.7538631,26.6953642 C74.919426,27.0927152 75.1512141,27.4403974 75.4492274,27.7384106 C75.7472406,28.0364238 76.0949227,28.2682119 76.4922737,28.4337748 C76.8896247,28.5993377 77.3200883,28.6821192 77.7836645,28.6821192 Z" id="開賽！" fill="#4E2E09" fill-rule="nonzero"></path>
    </g>
</svg>