<?xml version="1.0" encoding="UTF-8"?>
<svg width="68px" height="33px" viewBox="0 0 68 33" version="1.1" xmlns="http://www.w3.org/2000/svg" xmlns:xlink="http://www.w3.org/1999/xlink">
    <title>word_notifi_lose_normal_en-us</title>
    <g id="word_notifi_lose_normal_en-us" stroke="none" stroke-width="1" fill="none" fill-rule="evenodd" transform="translate(0.000000, 0.000000)">
        <path d="M19.346,23.12 L19.808,19.508 L23.784,19.592 L24.078,17.45 L20.046,17.548 L20.354,15.196 L24.806,15.28 L25.1,13.222 L19.626,13.222 C19.234,13.222 18.8816667,13.3596667 18.569,13.635 C18.2563333,13.9103333 18.0766667,14.2393333 18.03,14.622 L16.826,23.12 L19.346,23.12 Z M32.94,23.498 L33.136,22.028 L32.408,22.028 L33.332,16.274 L31.26,16.274 L31.232,16.54 L31.218,16.54 L28.376,16.428 C27.9746667,16.4093333 27.6083333,16.5423333 27.277,16.827 C26.9456667,17.1116667 26.7613333,17.4546667 26.724,17.856 L26.724,17.856 L26.234,21.902 C26.2246667,21.9393333 26.22,22 26.22,22.084 C26.22,22.4293333 26.3366667,22.7163333 26.57,22.945 C26.8033333,23.1736667 27.0973333,23.288 27.452,23.288 L27.452,23.288 L27.62,23.274 L30.336,22.938 C30.4106667,23.106 30.525,23.2413333 30.679,23.344 C30.833,23.4466667 31.008,23.498 31.204,23.498 L31.204,23.498 L32.94,23.498 Z M28.404,21.23 L28.712,18.444 L30.924,18.43 L30.91,18.528 L30.532,20.922 L30.518,20.922 L28.404,21.23 Z M37.826,15.574 L38.134,13.446 L35.754,13.446 L35.446,15.574 L37.826,15.574 Z M36.776,23.176 L37.798,16.47 L35.264,16.47 L34.452,23.176 L36.776,23.176 Z M40.556,23.148 L45.26,22.994 L45.386,20.796 L41.62,21.118 L42.88,12.942 L40.416,12.942 L39.268,21.902 C39.2213333,22.2566667 39.324,22.5553333 39.576,22.798 C39.828,23.0406667 40.1546667,23.1573333 40.556,23.148 Z M48.886,20.684 L50.174,13.054 L47.766,12.83 L47.038,20.684 L48.886,20.684 Z M48.62,23.54 L48.802,21.538 L46.8,21.454 L46.506,23.54 L48.62,23.54 Z" id="Fail!" fill="#4E2E09" fill-rule="nonzero"></path>
    </g>
</svg>