<?xml version="1.0" encoding="UTF-8"?>
<svg width="83px" height="32px" viewBox="0 0 83 32" version="1.1" xmlns="http://www.w3.org/2000/svg" xmlns:xlink="http://www.w3.org/1999/xlink">
    <title>word_notifi_start_normal_en-us</title>
    <g id="word_notifi_start_normal_en-us" stroke="none" stroke-width="1" fill="none" fill-rule="evenodd">
        <path d="M15.922,22.134 L21.606,22.12 C21.9886667,22.12 22.3386667,21.9823333 22.656,21.707 C22.9733333,21.4316667 23.1553333,21.1026667 23.202,20.72 L23.538,18.396 C23.5473333,18.3586667 23.552,18.298 23.552,18.214 C23.552,17.9713333 23.489,17.7496667 23.363,17.549 C23.237,17.3483333 23.0666667,17.2013333 22.852,17.108 L19.03,15.414 L19.114,14.238 L23.958,14.588 L24.378,12.222 L18.764,12.222 C18.3813333,12.222 18.0336667,12.3573333 17.721,12.628 C17.4083333,12.8986667 17.224,13.23 17.168,13.622 L16.888,15.568 C16.8786667,15.6146667 16.874,15.68 16.874,15.764 C16.874,15.988 16.9276667,16.1933333 17.035,16.38 C17.1423333,16.5666667 17.2893333,16.7113333 17.476,16.814 L21.466,18.998 L21.228,20.146 L16.328,19.908 L15.922,22.134 Z M29.474,22.19 L30.482,14.28 L33.198,14.28 L33.478,12.278 L25.778,12.278 L25.498,14.28 L28.046,14.28 L26.814,22.19 L29.474,22.19 Z M36.894,22.134 L37.72,20.202 L40.702,20.202 L41.024,22.134 L43.796,22.134 L41.654,12.236 L39.092,12.236 L34.598,22.134 L36.894,22.134 Z M40.38,18.312 L38.532,18.312 L39.848,15.232 L40.38,18.312 Z M47.156,22.232 L47.674,18.522 L48.864,18.522 L50.096,22.232 L52.588,22.232 L51.23,18.522 C51.5846667,18.522 51.9066667,18.396 52.196,18.144 C52.4853333,17.892 52.6533333,17.5886667 52.7,17.234 L53.176,13.846 C53.1853333,13.7993333 53.19,13.7386667 53.19,13.664 C53.19,13.3653333 53.0943333,13.111 52.903,12.901 C52.7116667,12.691 52.462,12.5766667 52.154,12.558 L47.688,12.292 C47.3146667,12.2733333 46.974,12.39 46.666,12.642 C46.358,12.894 46.1806667,13.2066667 46.134,13.58 L44.916,22.232 L47.156,22.232 Z M50.726,16.632 L47.94,16.632 L48.276,14.238 L51.062,14.322 L50.726,16.632 Z M58.286,22.19 L59.294,14.28 L62.01,14.28 L62.29,12.278 L54.59,12.278 L54.31,14.28 L56.858,14.28 L55.626,22.19 L58.286,22.19 Z M65.79,19.684 L67.078,12.054 L64.67,11.83 L63.942,19.684 L65.79,19.684 Z M65.524,22.54 L65.706,20.538 L63.704,20.454 L63.41,22.54 L65.524,22.54 Z" id="START!" fill="#4E2E09" fill-rule="nonzero"></path>
    </g>
</svg>