<?xml version="1.0" encoding="UTF-8"?>
<svg width="83px" height="32px" viewBox="0 0 83 32" version="1.1" xmlns="http://www.w3.org/2000/svg" xmlns:xlink="http://www.w3.org/1999/xlink">
    <title>word_notifi_goal_normal_en-us</title>
    <g id="word_notifi_goal_normal_en-us" stroke="none" stroke-width="1" fill="none" fill-rule="evenodd">
        <path d="M17.567,22.092 C17.9496667,22.092 18.2996667,21.9543333 18.617,21.679 C18.9343333,21.4036667 19.121,21.0746667 19.177,20.692 L19.653,17.29 C19.6623333,17.2526667 19.667,17.192 19.667,17.108 C19.667,16.7626667 19.5526667,16.4733333 19.324,16.24 C19.0953333,16.0066667 18.8036667,15.89 18.449,15.89 L14.935,15.89 L14.641,17.92 L17.217,17.92 L16.951,19.88 L13.003,19.824 L13.773,14.336 L19.751,14.532 L20.087,12.222 L13.157,12.222 C12.765,12.222 12.4126667,12.3596667 12.1,12.635 C11.7873333,12.9103333 11.603,13.2393333 11.547,13.622 L10.567,20.692 C10.5576667,20.7386667 10.553,20.8086667 10.553,20.902 C10.553,21.238 10.665,21.5203333 10.889,21.749 C11.113,21.9776667 11.4023333,22.092 11.757,22.092 L17.567,22.092 Z M25.967,22.106 C26.3403333,22.106 26.6786667,21.973 26.982,21.707 C27.2853333,21.441 27.4603333,21.1213333 27.507,20.748 L28.095,16.632 C28.1043333,16.5946667 28.109,16.534 28.109,16.45 C28.109,16.114 27.997,15.834 27.773,15.61 C27.549,15.386 27.2643333,15.274 26.919,15.274 L23.349,15.274 C22.9756667,15.274 22.6373333,15.407 22.334,15.673 C22.0306667,15.939 21.8556667,16.2586667 21.809,16.632 L21.221,20.748 C21.2116667,20.7853333 21.207,20.846 21.207,20.93 C21.207,21.266 21.319,21.546 21.543,21.77 C21.767,21.994 22.0516667,22.106 22.397,22.106 L25.967,22.106 Z M23.433,20.104 L23.825,17.276 L25.883,17.206 L25.477,20.048 L23.433,20.104 Z M33.989,22.106 C34.3623333,22.106 34.7006667,21.973 35.004,21.707 C35.3073333,21.441 35.4823333,21.1213333 35.529,20.748 L36.117,16.632 C36.1263333,16.5946667 36.131,16.534 36.131,16.45 C36.131,16.114 36.019,15.834 35.795,15.61 C35.571,15.386 35.2863333,15.274 34.941,15.274 L31.371,15.274 C30.9976667,15.274 30.6593333,15.407 30.356,15.673 C30.0526667,15.939 29.8776667,16.2586667 29.831,16.632 L29.243,20.748 C29.2336667,20.7853333 29.229,20.846 29.229,20.93 C29.229,21.266 29.341,21.546 29.565,21.77 C29.789,21.994 30.0736667,22.106 30.419,22.106 L33.989,22.106 Z M31.455,20.104 L31.847,17.276 L33.905,17.206 L33.499,20.048 L31.455,20.104 Z M42.011,22.106 C42.3843333,22.106 42.7226667,21.973 43.026,21.707 C43.3293333,21.441 43.5043333,21.1213333 43.551,20.748 L44.139,16.632 C44.1483333,16.5946667 44.153,16.534 44.153,16.45 C44.153,16.114 44.041,15.834 43.817,15.61 C43.593,15.386 43.3083333,15.274 42.963,15.274 L39.393,15.274 C39.0196667,15.274 38.6813333,15.407 38.378,15.673 C38.0746667,15.939 37.8996667,16.2586667 37.853,16.632 L37.265,20.748 C37.2556667,20.7853333 37.251,20.846 37.251,20.93 C37.251,21.266 37.363,21.546 37.587,21.77 C37.811,21.994 38.0956667,22.106 38.441,22.106 L42.011,22.106 Z M39.477,20.104 L39.869,17.276 L41.927,17.206 L41.521,20.048 L39.477,20.104 Z M50.033,22.106 C50.4063333,22.106 50.7446667,21.973 51.048,21.707 C51.3513333,21.441 51.5263333,21.1213333 51.573,20.748 L52.161,16.632 C52.1703333,16.5946667 52.175,16.534 52.175,16.45 C52.175,16.114 52.063,15.834 51.839,15.61 C51.615,15.386 51.3303333,15.274 50.985,15.274 L47.415,15.274 C47.0416667,15.274 46.7033333,15.407 46.4,15.673 C46.0966667,15.939 45.9216667,16.2586667 45.875,16.632 L45.287,20.748 C45.2776667,20.7853333 45.273,20.846 45.273,20.93 C45.273,21.266 45.385,21.546 45.609,21.77 C45.833,21.994 46.1176667,22.106 46.463,22.106 L50.033,22.106 Z M47.499,20.104 L47.891,17.276 L49.949,17.206 L49.543,20.048 L47.499,20.104 Z M60.015,22.498 L60.211,21.028 L59.483,21.028 L60.407,15.274 L58.335,15.274 L58.307,15.54 L58.293,15.54 L55.451,15.428 C55.0496667,15.4093333 54.6833333,15.5423333 54.352,15.827 C54.0206667,16.1116667 53.8363333,16.4546667 53.799,16.856 L53.799,16.856 L53.309,20.902 C53.2996667,20.9393333 53.295,21 53.295,21.084 C53.295,21.4293333 53.4116667,21.7163333 53.645,21.945 C53.8783333,22.1736667 54.1723333,22.288 54.527,22.288 L54.527,22.288 L54.695,22.274 L57.411,21.938 C57.4856667,22.106 57.6,22.2413333 57.754,22.344 C57.908,22.4466667 58.083,22.498 58.279,22.498 L58.279,22.498 L60.015,22.498 Z M55.479,20.23 L55.787,17.444 L57.999,17.43 L57.985,17.528 L57.607,19.922 L57.593,19.922 L55.479,20.23 Z M62.829,22.148 L67.533,21.994 L67.659,19.796 L63.893,20.118 L65.153,11.942 L62.689,11.942 L61.541,20.902 C61.4943333,21.2566667 61.597,21.5553333 61.849,21.798 C62.101,22.0406667 62.4276667,22.1573333 62.829,22.148 Z M71.159,19.684 L72.447,12.054 L70.039,11.83 L69.311,19.684 L71.159,19.684 Z M70.893,22.54 L71.075,20.538 L69.073,20.454 L68.779,22.54 L70.893,22.54 Z" id="Gooooal!" fill="#4E2E09" fill-rule="nonzero"></path>
    </g>
</svg>