<?xml version="1.0" encoding="UTF-8"?>
<svg width="83px" height="32px" viewBox="0 0 83 32" version="1.1" xmlns="http://www.w3.org/2000/svg" xmlns:xlink="http://www.w3.org/1999/xlink">
    <title>word_notifi_redcard_normal_zh-tw</title>
    <g id="word_notifi_redcard_normal_zh-tw" stroke="none" stroke-width="1" fill="none" fill-rule="evenodd">
        <path d="M10.8127753,22.5748899 L10.8127753,17.9493392 L10.4493392,17.9493392 L9.8215859,18.4449339 C9.60132159,18.6651982 9.30396476,18.7753304 8.92951542,18.7753304 L8.92951542,18.7753304 L7.27753304,18.7753304 L14.9096916,8.5660793 L10.185022,5.7246696 L10.0198238,6.05506608 L10.2180617,6.88105727 C10.284141,7.14537445 10.2621145,7.37665198 10.1519824,7.57488987 L10.1519824,7.57488987 L7.64096916,11.1431718 L6.18722467,9.8876652 C6.98017621,8.74229075 7.76211454,7.57488987 8.53303965,6.38546256 C9.30396476,5.19603524 9.96475771,4.1277533 10.5154185,3.18061674 L10.5154185,3.18061674 L5.69162996,1.0660793 L5.49339207,1.39647577 L5.65859031,2.25550661 C5.68061674,2.58590308 5.63656388,2.88325991 5.52643172,3.14757709 L5.52643172,3.14757709 L1.49559471,12.0022026 L4.93171806,14.9757709 L2.25550661,18.7753304 L2.25550661,22.5748899 L10.8127753,22.5748899 Z M12.0682819,29.4801762 L14.9757709,27.5638767 L14.9757709,29.4471366 L30.9339207,29.4471366 L30.9339207,23.8634361 L30.5704846,23.8634361 L29.9427313,24.3920705 C29.6784141,24.5903084 29.3810573,24.6894273 29.0506608,24.6894273 L29.0506608,24.6894273 L25.0198238,24.6894273 L25.2511013,7.90528634 L30.4052863,7.90528634 L30.4052863,2.35462555 L30.0418502,2.35462555 L29.4140969,2.85022026 C29.1718062,3.07048458 28.8744493,3.18061674 28.5220264,3.18061674 L28.5220264,3.18061674 L15.0088106,3.18061674 L15.0088106,7.90528634 L19.9977974,7.90528634 L20.2290749,24.6894273 L14.9757709,24.6894273 L14.9757709,25.845815 C14.9317181,25.8017621 14.9096916,25.7797357 14.9096916,25.7797357 L14.9096916,25.7797357 L10.9449339,22.938326 L10.6475771,23.1696035 L12.0682819,29.4801762 Z M11.7048458,22.938326 L15.9669604,21.0550661 C16.2092511,20.9229075 16.4295154,20.7411894 16.6277533,20.5099119 C16.8259912,20.2786344 16.9471366,20.1079295 16.9911894,19.9977974 L16.9911894,19.9977974 L16.7268722,19.7334802 C16.5726872,19.8656388 16.3689427,19.9757709 16.1156388,20.0638767 C15.8623348,20.1519824 15.592511,20.030837 15.3061674,19.7004405 L15.3061674,19.7004405 L11.4405286,15.2070485 L11.1101322,15.3722467 L11.7048458,22.938326 Z M6.61674009,29.8436123 L11.3414097,29.2488987 L11.30837,28.8854626 L8.07048458,23.2026432 L7.70704846,23.2687225 L6.61674009,29.8436123 Z M6.05506608,29.9427313 L5.0969163,23.3017621 L4.73348018,23.2356828 L2.18942731,27.7951542 C2.01321586,28.1255507 1.77092511,28.3348018 1.46255507,28.4229075 L1.46255507,28.4229075 L1.09911894,28.5881057 L1,28.9515419 L6.05506608,29.9427313 Z M60.7301762,31 L60.7962555,26.1431718 L65.3226872,26.1431718 L65.3226872,20.8237885 L64.9592511,20.8237885 L64.3314978,21.3524229 C64.0451542,21.5726872 63.7477974,21.6828194 63.4394273,21.6828194 L63.4394273,21.6828194 L60.8623348,21.6828194 L60.9284141,18.9405286 L56.0055066,18.9405286 C56.0936123,18.80837 56.1707048,18.6651982 56.2367841,18.5110132 C56.3028634,18.3568282 56.3799559,18.2026432 56.4680617,18.0484581 L56.4680617,18.0484581 L64.5297357,18.0484581 L64.7279736,2.88325991 L64.3645374,2.88325991 L63.7367841,3.41189427 C63.472467,3.63215859 63.1751101,3.74229075 62.8447137,3.74229075 L62.8447137,3.74229075 L58.4174009,3.74229075 L59.6068282,1.13215859 L59.2764317,1 L58.5495595,1.36343612 C58.2632159,1.51762115 57.965859,1.59471366 57.657489,1.59471366 L57.657489,1.59471366 L52.404185,1.59471366 L52.2720264,1.92511013 L54.188326,3.74229075 L48.1090308,3.74229075 L48.2742291,18.0484581 L51.0825991,18.0484581 L50.5870044,18.5110132 C50.3447137,18.7092511 50.1134361,18.8854626 49.8931718,19.0396476 C49.6729075,19.1938326 49.4085903,19.2709251 49.1002203,19.2709251 L49.1002203,19.2709251 L48.4063877,19.2709251 L48.1751101,19.5682819 L50.7852423,21.6828194 L47.6464758,21.6828194 L47.6464758,26.1431718 L56.3689427,26.1431718 L56.4680617,31 L60.7301762,31 Z M39.3865639,30.8678414 C40.003304,29.7004405 40.4438326,28.3292952 40.7081498,26.7544053 C40.972467,25.1795154 41.1596916,23.2907489 41.2698238,21.0881057 L41.2698238,21.0881057 L42.6905286,21.0881057 L42.8226872,30.6696035 L46.9856828,30.6696035 L47.1508811,16.2312775 L46.7874449,16.2312775 L46.1596916,16.7599119 C45.8953744,16.9801762 45.5980176,17.0903084 45.2676211,17.0903084 L45.2676211,17.0903084 L41.4019824,17.0903084 L41.4019824,17.0903084 L41.4019824,15.6035242 C41.4019824,15.0969163 41.4129956,14.5792952 41.435022,14.0506608 L41.435022,14.0506608 L47.6134361,14.0506608 L47.6134361,9.39207048 L47.25,9.39207048 L46.6222467,9.8876652 L46.589207,9.92070485 L46.7544053,1.46255507 L41.6332599,1.46255507 L41.6332599,1.79295154 L42.2279736,2.42070485 C42.404185,2.5969163 42.4922907,2.8061674 42.4922907,3.04845815 L42.4922907,3.04845815 L42.6244493,10.2180617 L41.435022,10.2180617 L41.435022,2.18942731 L36.4790749,2.18942731 L36.4790749,2.58590308 L37.0737885,3.18061674 C37.2940529,3.35682819 37.3821586,3.5660793 37.3381057,3.80837004 L37.3381057,3.80837004 L37.3381057,13.6211454 C37.3160793,17.1894273 37.1894273,20.05837 36.9581498,22.2279736 C36.7268722,24.3975771 36.5231278,25.7026432 36.3469163,26.1431718 C36.2367841,26.4295154 36.1321586,26.6552863 36.0330396,26.8204846 C35.9339207,26.9856828 35.7632159,27.1013216 35.5209251,27.1674009 L35.5209251,27.1674009 L35.157489,27.2004405 L34.9922907,27.5638767 L39.3865639,30.8678414 Z M54.3865639,9.02863436 L52.3711454,9.02863436 L52.404185,7.44273128 L54.4196035,7.44273128 L54.4196035,7.44273128 L54.4196035,8.26872247 C54.4196035,8.53303965 54.4085903,8.78634361 54.3865639,9.02863436 L54.3865639,9.02863436 Z M60.564978,9.02863436 L58.5825991,9.02863436 C58.6046256,8.78634361 58.6211454,8.53303965 58.6321586,8.26872247 C58.6431718,8.00440529 58.6486784,7.72907489 58.6486784,7.44273128 L58.6486784,7.44273128 L60.564978,7.44273128 L60.564978,9.02863436 Z M60.6310573,14.3480176 L57.8226872,14.3480176 C57.8887665,14.1057269 57.9493392,13.8469163 58.0044053,13.5715859 C58.0594714,13.2962555 58.1090308,13.0154185 58.1530837,12.7290749 L58.1530837,12.7290749 L60.6310573,12.7290749 L60.6310573,14.3480176 Z M53.4284141,14.3480176 L52.3050661,14.3480176 L52.3381057,12.7290749 L53.9240088,12.7290749 C53.7698238,13.345815 53.6046256,13.8854626 53.4284141,14.3480176 L53.4284141,14.3480176 Z M56.3028634,21.6828194 L54.0561674,21.6828194 C54.342511,21.3303965 54.6178414,20.9779736 54.8821586,20.6255507 C55.1464758,20.2731278 55.3997797,19.9096916 55.6420705,19.5352423 L55.6420705,19.5352423 L56.0055066,19.8656388 C56.0936123,19.9757709 56.1651982,20.0803965 56.2202643,20.1795154 C56.2753304,20.2786344 56.3028634,20.3942731 56.3028634,20.5264317 L56.3028634,20.5264317 L56.3028634,21.6828194 Z M80.0859031,19.7995595 L81.30837,4.37004405 L74.1057269,4.37004405 L74.1057269,4.70044053 L74.7665198,5.32819383 C74.9647577,5.50440529 75.0638767,5.71365639 75.0638767,5.95594714 L75.0638767,5.95594714 L76.3193833,19.7995595 L80.0859031,19.7995595 Z M78.2026432,28.753304 C78.6651982,28.753304 79.0947137,28.6707048 79.4911894,28.5055066 C79.8876652,28.3403084 80.2400881,28.1090308 80.5484581,27.811674 C80.8568282,27.5143172 81.0991189,27.1674009 81.2753304,26.7709251 C81.4515419,26.3744493 81.5396476,25.9449339 81.5396476,25.4823789 C81.5396476,25.0418502 81.4515419,24.6178414 81.2753304,24.2103524 C81.0991189,23.8028634 80.8568282,23.4449339 80.5484581,23.1365639 C80.2400881,22.8281938 79.8821586,22.5859031 79.4746696,22.4096916 C79.0671806,22.2334802 78.6431718,22.1453744 78.2026432,22.1453744 C77.7621145,22.1453744 77.3436123,22.2334802 76.9471366,22.4096916 C76.5506608,22.5859031 76.2037445,22.8281938 75.9063877,23.1365639 C75.6090308,23.4449339 75.3722467,23.7973568 75.1960352,24.1938326 C75.0198238,24.5903084 74.9317181,25.0198238 74.9317181,25.4823789 C74.9317181,25.9449339 75.0143172,26.3744493 75.1795154,26.7709251 C75.3447137,27.1674009 75.5759912,27.5143172 75.873348,27.811674 C76.1707048,28.1090308 76.5176211,28.3403084 76.9140969,28.5055066 C77.3105727,28.6707048 77.7400881,28.753304 78.2026432,28.753304 Z" id="紅牌！" fill="#4E2E09" fill-rule="nonzero"></path>
    </g>
</svg>