<?xml version="1.0" encoding="UTF-8"?>
<svg width="66px" height="30px" viewBox="0 0 66 30" version="1.1" xmlns="http://www.w3.org/2000/svg" xmlns:xlink="http://www.w3.org/1999/xlink">
    <!-- Generator: Sketch 56.2 (81672) - https://sketch.com -->
    <title>tag_notifi_result_draw</title>
    <desc>Created with Sketch.</desc>
    <defs>
        <linearGradient x1="100%" y1="50%" x2="0%" y2="50%" id="linearGradient-1">
            <stop stop-color="#0E5D04" offset="0%"></stop>
            <stop stop-color="#249612" offset="26.7419764%"></stop>
            <stop stop-color="#199611" offset="55.4080448%"></stop>
            <stop stop-color="#4BCE16" offset="80.4423564%"></stop>
            <stop stop-color="#115704" offset="100%"></stop>
        </linearGradient>
    </defs>
    <g id="tag_notifi_result_draw" stroke="none" stroke-width="1" fill="none" fill-rule="evenodd">
        <g id="ico/进入备份-8" transform="translate(18.000000, 0.000000)">
            <rect id="矩形" fill="#D8D8D8" fill-rule="evenodd" opacity="0" x="0" y="0" width="30" height="30"></rect>
            <path d="M4.25,0.5 L4.25,25.88924 L15.0371221,29.4729535 L25.75,25.8900028 L25.75,0.5 L4.25,0.5 Z" id="矩形" stroke="#48D231" stroke-width="1" fill="url(#linearGradient-1)" fill-rule="evenodd"></path>
            <rect id="矩形" fill="#2F8E0D" fill-rule="evenodd" x="1.875" y="0" width="26.25" height="1.875"></rect>
            <path d="M10.4325,9.915 L19.59,9.915 L19.59,10.96125 L15.495,10.96125 L15.495,14.94375 L20.0175,14.94375 L20.0175,15.9675 L15.495,15.9675 L15.495,19.86 L14.415,19.86 L14.415,15.9675 L9.9825,15.9675 L9.9825,14.94375 L14.415,14.94375 L14.415,10.96125 L10.4325,10.96125 L10.4325,9.915 Z M12.0075,11.49 C12.4125,12.255 12.80625,13.0875 13.18875,14.01 L12.1875,14.505 C11.81625,13.56 11.4225,12.71625 11.00625,11.97375 L12.0075,11.49 Z M18.0825,11.445 L19.06125,11.90625 C18.735,12.7725 18.3075,13.61625 17.79,14.44875 L16.8225,13.95375 C17.35125,13.09875 17.7675,12.26625 18.0825,11.445 Z" id="平" fill="#D3FFB8" fill-rule="nonzero"></path>
        </g>
    </g>
</svg>