<?xml version="1.0" encoding="UTF-8"?>
<svg width="68px" height="33px" viewBox="0 0 68 33" version="1.1" xmlns="http://www.w3.org/2000/svg" xmlns:xlink="http://www.w3.org/1999/xlink">
    <title>word_notifi_win_normal_en-us</title>
    <g id="word_notifi_win_normal_en-us" stroke="none" stroke-width="1" fill="none" fill-rule="evenodd" transform="translate(0.000000, 0.000000)">
        <path d="M6.858,23.092 L7.208,20.642 L1.734,20.838 L2.504,15.378 L7.628,15.672 L7.978,13.222 L1.888,13.222 C1.496,13.222 1.14366667,13.3596667 0.831,13.635 C0.518333333,13.9103333 0.334,14.2393333 0.278,14.622 L-0.702,21.692 C-0.711333333,21.7386667 -0.716,21.8086667 -0.716,21.902 C-0.716,22.238 -0.604,22.5203333 -0.38,22.749 C-0.156,22.9776667 0.133333333,23.092 0.488,23.092 L6.858,23.092 Z M13.858,23.106 C14.2313333,23.106 14.5696667,22.973 14.873,22.707 C15.1763333,22.441 15.3513333,22.1213333 15.398,21.748 L15.986,17.632 C15.9953333,17.5946667 16,17.534 16,17.45 C16,17.114 15.888,16.834 15.664,16.61 C15.44,16.386 15.1553333,16.274 14.81,16.274 L11.24,16.274 C10.8666667,16.274 10.5283333,16.407 10.225,16.673 C9.92166667,16.939 9.74666667,17.2586667 9.7,17.632 L9.112,21.748 C9.10266667,21.7853333 9.098,21.846 9.098,21.93 C9.098,22.266 9.21,22.546 9.434,22.77 C9.658,22.994 9.94266667,23.106 10.288,23.106 L13.858,23.106 Z M11.324,21.104 L11.716,18.276 L13.774,18.206 L13.368,21.048 L11.324,21.104 Z M19.584,23.162 L20.284,18.094 L21.642,17.94 L20.802,23.162 L23.28,23.162 L23.98,18.108 L25.352,17.954 L24.876,21.356 L24.82,21.776 C24.8106667,21.8133333 24.806,21.874 24.806,21.958 C24.806,22.3033333 24.9203333,22.5903333 25.149,22.819 C25.3776667,23.0476667 25.6693333,23.162 26.024,23.162 L27.886,23.162 L28.138,21.356 L27.368,21.356 L27.9,17.548 C27.9093333,17.5013333 27.914,17.436 27.914,17.352 C27.914,16.9973333 27.788,16.7033333 27.536,16.47 C27.284,16.2366667 26.9713333,16.134 26.598,16.162 L23.56,16.358 C23.3266667,16.218 23.0606667,16.1526667 22.762,16.162 L20.536,16.302 L20.592,15.91 L18.128,15.91 L17.12,23.162 L19.584,23.162 Z M31.722,26.41 L32.142,23.12 L35.292,23.05 C35.6746667,23.0406667 36.0176667,22.9006667 36.321,22.63 C36.6243333,22.3593333 36.804,22.0326667 36.86,21.65 L37.434,17.576 C37.4433333,17.5293333 37.448,17.464 37.448,17.38 C37.448,17.0253333 37.322,16.729 37.07,16.491 C36.818,16.253 36.51,16.148 36.146,16.176 L32.996,16.372 L33.038,16.092 L30.854,16.092 L29.258,26.41 L31.722,26.41 Z M34.886,21.09 L32.408,21.034 L32.73,18.444 L35.264,18.346 L34.886,21.09 Z M39.87,23.148 L44.574,22.994 L44.7,20.796 L40.934,21.118 L42.194,12.942 L39.73,12.942 L38.582,21.902 C38.5353333,22.2566667 38.638,22.5553333 38.89,22.798 C39.142,23.0406667 39.4686667,23.1573333 39.87,23.148 Z M47.038,23.12 L52.204,23.022 L52.47,21.16 L47.906,21.342 L48.004,20.418 L51.056,20.46 C51.4386667,20.4693333 51.7816667,20.3386667 52.085,20.068 C52.3883333,19.7973333 52.5633333,19.4706667 52.61,19.088 L52.82,17.618 C52.8293333,17.5713333 52.834,17.5013333 52.834,17.408 C52.834,17.0813333 52.7266667,16.8083333 52.512,16.589 C52.2973333,16.3696667 52.0266667,16.2553333 51.7,16.246 L47.948,16.148 C47.5653333,16.1293333 47.2153333,16.2553333 46.898,16.526 C46.5806667,16.7966667 46.3986667,17.1326667 46.352,17.534 L45.834,21.776 C45.7966667,22.1493333 45.8946667,22.469 46.128,22.735 C46.3613333,23.001 46.6646667,23.1293333 47.038,23.12 Z M50.678,18.906 L48.214,18.78 L48.312,17.814 L50.888,17.8 L50.678,18.906 Z M58.378,23.134 L58.63,21.328 L56.978,21.328 L57.496,17.8 L59.316,17.842 L59.582,15.896 L57.776,15.938 L58.042,14.132 L55.648,14.132 L55.424,15.98 L54.192,16.008 L53.954,17.73 L55.186,17.758 L54.696,21.762 C54.6866667,21.7993333 54.682,21.86 54.682,21.944 C54.682,22.2893333 54.7963333,22.574 55.025,22.798 C55.2536667,23.022 55.5453333,23.134 55.9,23.134 L58.378,23.134 Z M61.92,23.12 L67.086,23.022 L67.352,21.16 L62.788,21.342 L62.886,20.418 L65.938,20.46 C66.3206667,20.4693333 66.6636667,20.3386667 66.967,20.068 C67.2703333,19.7973333 67.4453333,19.4706667 67.492,19.088 L67.702,17.618 C67.7113333,17.5713333 67.716,17.5013333 67.716,17.408 C67.716,17.0813333 67.6086667,16.8083333 67.394,16.589 C67.1793333,16.3696667 66.9086667,16.2553333 66.582,16.246 L62.83,16.148 C62.4473333,16.1293333 62.0973333,16.2553333 61.78,16.526 C61.4626667,16.7966667 61.2806667,17.1326667 61.234,17.534 L60.716,21.776 C60.6786667,22.1493333 60.7766667,22.469 61.01,22.735 C61.2433333,23.001 61.5466667,23.1293333 61.92,23.12 Z M65.56,18.906 L63.096,18.78 L63.194,17.814 L65.77,17.8 L65.56,18.906 Z" id="Complete" fill="#4E2E09" fill-rule="nonzero"></path>
    </g>
</svg>