<?xml version="1.0" encoding="UTF-8"?>
<svg width="83px" height="32px" viewBox="0 0 83 32" version="1.1" xmlns="http://www.w3.org/2000/svg" xmlns:xlink="http://www.w3.org/1999/xlink">
    <title>word_notifi_goal_normal_zh-tw</title>
    <g id="word_notifi_goal_normal_zh-tw" stroke="none" stroke-width="1" fill="none" fill-rule="evenodd">
        <path d="M23.5302027,30.9993175 C23.866016,30.9965873 24.3492594,30.9856665 24.9799331,30.9665552 C25.7157191,30.9442586 26.4849498,30.8940914 27.2876254,30.8160535 C28.090301,30.7380156 28.8483835,30.632107 29.5618729,30.4983278 C30.2753623,30.3645485 30.7770346,30.1861761 31.0668896,29.9632107 L31.0668896,29.9632107 L31.0668896,21.4682274 L30.3311037,21.4682274 C30.1973244,22.5830546 29.9855072,23.4637681 29.6956522,24.1103679 L29.6956522,24.1103679 L29.6956522,20.1304348 L29.2943144,20.1304348 L28.6923077,20.632107 C28.4470457,20.8550725 28.1460424,20.9665552 27.7892977,20.9665552 L27.7892977,20.9665552 L24.277592,20.9665552 L24.3110368,19.2274247 L29.1939799,19.2274247 L29.1939799,14.6120401 L28.826087,14.6120401 L28.1906355,15.1471572 C27.9007804,15.3701226 27.599777,15.4816054 27.2876254,15.4816054 L27.2876254,15.4816054 L24.3779264,15.4816054 L24.3779264,14.0769231 L29.1939799,14.0769231 L29.1939799,9.39464883 L28.826087,9.39464883 L28.1906355,9.89632107 C27.9453735,10.1192865 27.6443701,10.2307692 27.2876254,10.2307692 L27.2876254,10.2307692 L24.4448161,10.2307692 L24.4782609,8.82608696 L29.7959866,8.82608696 L29.7959866,4.11036789 L29.4280936,4.11036789 L28.826087,4.64548495 C28.580825,4.86845039 28.2686734,4.97993311 27.8896321,4.97993311 L27.8896321,4.97993311 L23.6755853,4.97993311 L24.9464883,1.63545151 L24.5785953,1.50167224 L23.8428094,1.90301003 C23.5975474,2.05908584 23.296544,2.13712375 22.9397993,2.13712375 L22.9397993,2.13712375 L18.2909699,2.13712375 L18.1237458,2.47157191 L20.5317726,4.97993311 L16.5852843,4.97993311 C16.7636566,4.66778149 16.9308807,4.35562988 17.0869565,4.04347826 C17.2430323,3.73132664 17.4102564,3.39687848 17.5886288,3.04013378 L17.5886288,3.04013378 L12.3377926,1 L12.2040134,1.36789298 L12.3712375,2.10367893 C12.4381271,2.46042363 12.4046823,2.80602007 12.270903,3.14046823 L12.270903,3.14046823 L8.62541806,13.3076923 L8.65886288,10.5986622 L8.2909699,10.5986622 L7.68896321,11.1003344 C7.44370123,11.3232999 7.13154961,11.4347826 6.75250836,11.4347826 L6.75250836,11.4347826 L1.46822742,11.4347826 L1.46822742,15.8494983 L3.54180602,15.8494983 L3.74247492,31 L23.5302027,30.9993175 Z M6.31772575,8.85953177 L8.95986622,2.33779264 L8.59197324,2.20401338 L7.85618729,2.60535117 C7.56633222,2.76142698 7.26532887,2.83946488 6.95317726,2.83946488 L6.95317726,2.83946488 L1.16722408,2.83946488 L1,3.17391304 L6.31772575,8.85953177 Z M19.5618729,10.2307692 L15.5819398,10.2307692 L15.6153846,8.82608696 L19.5618729,8.82608696 L19.5618729,10.2307692 Z M25.0144017,26.3535595 L24.5117057,26.3511706 L8.45819398,26.3511706 L8.62541806,13.4080268 L10.6989967,14.4448161 L10.8327759,14.277592 L10.9331104,24.812709 L29.2943144,24.812709 C28.8483835,25.4370123 28.2408027,25.8550725 27.4715719,26.0668896 C26.7023411,26.2787068 25.7157191,26.3734671 24.5117057,26.3511706 L25.0144017,26.3535595 Z M19.6622074,15.4816054 L15.548495,15.4816054 L15.548495,14.0769231 L19.6287625,14.0769231 L19.6622074,15.4816054 Z M19.7625418,20.9665552 L15.4816054,20.9665552 L15.4816054,19.2274247 L19.729097,19.2274247 L19.7625418,20.9665552 Z M58.0847269,31 L58.1850613,23.1404682 C58.7201784,24.2329989 59.2998885,25.2697882 59.9241918,26.2508361 C60.548495,27.2318841 61.1950948,28.0791527 61.8639911,28.7926421 L61.8639911,28.7926421 L65.877369,25.3478261 C66.0780379,25.1694537 66.2508361,24.93534 66.3957637,24.6454849 C66.5406912,24.3556299 66.613155,24.154961 66.613155,24.0434783 L66.613155,24.0434783 L66.2787068,23.8428094 C66.1672241,24.0211817 66.0055741,24.1661093 65.793757,24.277592 C65.5819398,24.3890747 65.342252,24.4225195 65.0746934,24.3779264 C64.7625418,24.3110368 64.400223,24.0880713 63.9877369,23.7090301 C63.5752508,23.3299889 63.1516165,22.8394649 62.7168339,22.2374582 C62.2820513,21.6354515 61.8416945,20.9554069 61.3957637,20.1973244 C60.9498328,19.4392419 60.5261984,18.6365663 60.1248606,17.7892977 L60.1248606,17.7892977 L65.9442586,15.3812709 L61.8974359,11.1003344 L61.6298774,11.367893 L61.5964326,11.8695652 C61.5964326,12.1594203 61.5295429,12.4381271 61.3957637,12.7056856 L61.3957637,12.7056856 L59.5897436,16.5852843 C59.3444816,16.0278707 59.115942,15.4704571 58.9041249,14.9130435 C58.6923077,14.3556299 58.5083612,13.8093645 58.3522854,13.2742475 L58.3522854,13.2742475 L58.3857302,10.632107 L65.2419175,10.632107 L65.2419175,5.44816054 L64.8740245,5.44816054 L64.238573,5.98327759 C63.9710145,6.18394649 63.7257525,6.29542921 63.5027871,6.31772575 L63.5027871,6.31772575 L65.2419175,2.0367893 L64.8740245,1.90301003 L64.1382386,2.30434783 C63.8483835,2.46042363 63.5473802,2.53846154 63.2352285,2.53846154 L63.2352285,2.53846154 L58.9877369,2.53846154 L58.8205128,2.8729097 L62.0981048,6.31772575 L58.4526198,6.31772575 L58.5195095,1.76923077 L52.5663322,1.76923077 L52.5663322,2.17056856 L53.1348941,2.73913043 C53.335563,2.93979933 53.4358974,3.16276477 53.4358974,3.40802676 L53.4358974,3.40802676 L53.4693423,6.31772575 L47.2486065,6.31772575 L47.2486065,10.632107 L53.5362319,10.632107 L53.6365663,18.4247492 L46.1783724,21.4013378 C45.8439242,21.5351171 45.5206243,21.5351171 45.2084727,21.4013378 L45.2084727,21.4013378 L44.8405797,21.2675585 L44.5061315,21.4682274 L46.2118172,23.8762542 L43.6031215,23.909699 L43.703456,17.5217391 L46.2118172,17.5217391 L46.2118172,12.0702341 L45.8439242,12.0702341 L45.2419175,12.6053512 C44.9520624,12.8283166 44.6399108,12.9397993 44.3054627,12.9397993 L44.3054627,12.9397993 L43.7703456,12.9397993 L43.8372352,7.68896321 L46.613155,7.68896321 L46.613155,2.23745819 L46.2118172,2.23745819 L45.6098105,2.73913043 C45.3645485,2.96209588 45.0635452,3.0735786 44.7068004,3.0735786 L44.7068004,3.0735786 L36.4459309,3.0735786 L36.4459309,7.68896321 L38.8205128,7.68896321 L38.9208473,12.9397993 L36.7134894,12.9397993 L36.7134894,17.5217391 L38.9877369,17.5217391 L39.0880713,23.9765886 L37.3154961,24.0100334 C37.0033445,24.0100334 36.7134894,23.8985507 36.4459309,23.6755853 L36.4459309,23.6755853 L36.1114827,23.4080268 L35.7435897,23.5083612 L37.5830546,30.5317726 L46.7469342,24.6454849 L48.7536232,27.4548495 L53.6700111,21.3010033 L53.7369008,24.812709 C53.7369008,25.2140468 53.6365663,25.5819398 53.4358974,25.916388 C53.2352285,26.2508361 52.9453735,26.4960981 52.5663322,26.6521739 L52.5663322,26.6521739 L48.4526198,28.1237458 L48.4860647,28.4916388 C49.2441472,28.7814939 50.0356745,29.0602007 50.8606466,29.3277592 C51.6856187,29.5953177 52.5105909,29.8461538 53.335563,30.0802676 C54.1605351,30.3143813 54.9799331,30.509476 55.793757,30.6655518 C56.6075808,30.8216276 57.3712375,30.9331104 58.0847269,31 L58.0847269,31 Z M52.3991081,18.2909699 L52.7001115,18.090301 L51.4960981,11.5685619 L51.2619844,11.2675585 L46.5462653,14.7792642 L52.3991081,18.2909699 Z M80.8216276,20.0635452 L82.0590858,4.44481605 L74.7681159,4.44481605 L74.7681159,4.77926421 L75.4370123,5.41471572 C75.6376812,5.59308807 75.7380156,5.80490524 75.7380156,6.05016722 L75.7380156,6.05016722 L77.0089186,20.0635452 L80.8216276,20.0635452 Z M78.9152731,29.1270903 C79.3835006,29.1270903 79.8182832,29.0434783 80.219621,28.8762542 C80.6209588,28.7090301 80.9777035,28.4749164 81.2898551,28.173913 C81.6020067,27.8729097 81.8472687,27.5217391 82.025641,27.1204013 C82.2040134,26.7190635 82.2931996,26.2842809 82.2931996,25.8160535 C82.2931996,25.3701226 82.2040134,24.9409142 82.025641,24.5284281 C81.8472687,24.115942 81.6020067,23.7536232 81.2898551,23.4414716 C80.9777035,23.12932 80.6153846,22.884058 80.2028986,22.7056856 C79.7904125,22.5273133 79.361204,22.4381271 78.9152731,22.4381271 C78.4693423,22.4381271 78.0457079,22.5273133 77.6443701,22.7056856 C77.2430323,22.884058 76.8918618,23.12932 76.5908584,23.4414716 C76.2898551,23.7536232 76.0501672,24.1103679 75.8717949,24.5117057 C75.6934225,24.9130435 75.6042363,25.3478261 75.6042363,25.8160535 C75.6042363,26.2842809 75.6878484,26.7190635 75.8550725,27.1204013 C76.0222965,27.5217391 76.2564103,27.8729097 76.5574136,28.173913 C76.8584169,28.4749164 77.2095875,28.7090301 77.6109253,28.8762542 C78.0122631,29.0434783 78.4470457,29.1270903 78.9152731,29.1270903 Z" id="進球！" fill="#4E2E09" fill-rule="nonzero"></path>
    </g>
</svg>