<?xml version="1.0" encoding="UTF-8"?>
<svg width="68px" height="32px" viewBox="0 0 68 32" version="1.1" xmlns="http://www.w3.org/2000/svg" xmlns:xlink="http://www.w3.org/1999/xlink">
    <title>word_notifi_win_normal_zh-tw</title>
    <g id="word_notifi_win_normal_zh-tw" stroke="none" stroke-width="1" fill="none" fill-rule="evenodd">
        <path d="M31.4935491,4.60674157 L31.8685789,4.60674157 L31.5538123,10 L23.2690644,10 C23.2891584,11.2134892 23.3433452,12.4269602 23.4316267,13.6404494 C23.5199082,14.8539387 23.6676335,16.0224663 23.8748071,17.1460674 C24.8823397,15.4606657 25.6232294,13.8651761 26.0974984,12.3595506 C26.1560721,12.1348303 26.1565113,11.9325852 26.098816,11.752809 L25.8149313,10.7752809 L25.9690114,10.4719101 L30.8109357,12.7977528 C30.0586703,14.3932664 29.2672965,15.9775202 28.4367905,17.5505618 C27.6062845,19.1236034 26.7159097,20.651678 25.7656392,22.1348315 C26.1887462,22.67416 26.6585078,23.0955041 27.174938,23.3988764 C27.6913682,23.7022472 28.2911679,23.8426967 28.9743551,23.8202247 C29.4289389,23.8202247 29.8777254,23.7247201 30.320728,23.5337079 C30.7637306,23.3426957 31.0405227,23.0786534 31.1511124,22.741573 L31.5563012,22.8089888 C31.5952019,22.9213489 31.5884247,23.1348299 31.5359695,23.4494382 C31.4835142,23.7640465 31.3818871,24.0449426 31.2310851,24.2921348 L27.3318867,30.9325843 C26.2749855,30.3483117 25.3413611,29.6966328 24.5309857,28.9775281 C23.7206102,28.2584234 23.0094675,27.4943861 22.3975362,26.6853933 C21.7632967,27.42697 21.1089608,28.1235922 20.4345091,28.7752809 C19.7600573,29.4269696 19.0648541,30.0449409 18.3488785,30.6292135 L15.8745021,27.4606742 L15.6692542,30.3932584 C15.1491059,30.3483144 14.4734702,30.2415739 13.6423267,30.0730337 C12.8111832,29.9044935 11.9589627,29.7078663 11.0856397,29.4831461 C10.2123167,29.2584258 9.37408369,29.0168552 8.57091553,28.758427 C7.76774738,28.4999987 7.13341824,28.2696639 6.66790908,28.0674157 L6.65348837,27.7303371 L10.4765755,26.4831461 C10.8468002,26.370786 11.1497082,26.1460691 11.3853085,25.8089888 C11.6209088,25.4719084 11.7384906,25.1123615 11.7380575,24.7303371 L11.974169,17.1797753 L8.36024607,17.1797753 C8.23521724,18.932593 8.05315161,20.4943752 7.81404372,21.8651685 C7.57493583,23.2359619 7.29321646,24.4606688 6.96887716,25.5393258 C6.64453786,26.6179829 6.2990057,27.5730296 5.9322703,28.4044944 C5.5655349,29.2359592 5.18066646,29.9887607 4.77765342,30.6629213 L0,26.6516854 L0.256360908,26.3483146 L0.460922583,26.3483146 C0.779131226,26.3483146 1.05679558,26.2640458 1.29392397,26.0955056 C1.53105236,25.9269654 1.71430598,25.7078665 1.84369033,25.4382022 C2.0237792,25.0786499 2.21042293,24.6067445 2.40362713,24.0224719 C2.59683134,23.4381993 2.78293064,22.7809025 2.96193062,22.0505618 C3.14093061,21.3202211 3.30648794,20.5280942 3.45860757,19.6741573 C3.61072721,18.8202204 3.71301617,17.9438247 3.76547753,17.0449438 L4.44222564,5.4494382 L18.4206068,5.4494382 C18.4468375,4.99999775 18.4670577,4.55618197 18.481268,4.11797753 C18.4954783,3.67977309 18.5036783,3.24719315 18.5058683,2.82022472 C18.5202952,2.57303247 18.4418392,2.35955146 18.2704979,2.17977528 L17.6922241,1.57303371 L17.7138643,1.20224719 L23.6461529,1.20224719 C23.5985046,1.62921562 23.5476865,2.20786152 23.493697,2.93820225 C23.4397076,3.66854298 23.3851715,4.50561326 23.330087,5.4494382 L27.0121972,5.4494382 L24.0624775,2.24719101 L24.2185249,1.91011236 L29.0939115,1.91011236 C29.3666617,1.91011236 29.666727,1.83146146 29.9941164,1.6741573 L30.7677834,1.26966292 L31.134944,1.40449438 L29.1941884,5.4494382 L29.8760607,5.4494382 C30.2624569,5.4494382 30.5872183,5.33707978 30.8503547,5.11235955 L31.4935491,4.60674157 Z M16.7211052,11.7865169 L17.096135,11.7865169 L16.0226986,25.505618 C16.2714081,25.52809 16.5006639,25.4943825 16.7104727,25.4044944 C16.9202816,25.3146063 17.1313988,25.2022479 17.3438307,25.0674157 C18.1467884,24.5505592 19.0603221,23.6966352 20.0844593,22.505618 C19.3348536,20.550552 18.8515591,18.5112466 18.6345612,16.3876404 C18.4175633,14.2640343 18.3145408,12.1348421 18.3254906,10 L8.77927906,10 L8.62583036,12.6292135 L15.1036168,12.6292135 C15.490013,12.6292135 15.80341,12.5168551 16.0438172,12.2921348 L16.7211052,11.7865169 Z M60.4210461,10.2696629 L57.3185273,10.2696629 C56.7410803,13.9326026 55.9214936,17.4606572 54.8597428,20.8539326 C53.797992,24.247208 52.3505225,27.6291966 50.5172908,31 L44.8427174,26.5842697 L45.066952,26.247191 L46.234004,26.1123596 C46.5307949,26.0898875 46.8017934,26.0224725 47.0470076,25.9101124 C47.2922218,25.7977522 47.4908826,25.6067429 47.6429962,25.3370787 C48.7318317,23.4269567 49.6528105,21.1797882 50.4059604,18.5955056 C51.1591103,16.011223 51.7813415,13.2359699 52.2726726,10.2696629 L49.1360603,10.2696629 L49.4134483,5.51685393 L52.9250904,5.51685393 L53.194591,2.65168539 C53.2103294,2.38202112 53.1325291,2.15730427 52.9611879,1.97752809 L52.3829141,1.37078652 L52.4045543,1 L58.3709365,1 C58.3023037,1.78652079 58.2406655,2.55055809 58.1860203,3.29213483 C58.1313751,4.03371157 58.0596841,4.77527719 57.9709451,5.51685393 L64.0055145,5.51685393 C64.3464523,5.51685393 64.6712138,5.40449551 64.9798086,5.17977528 L65.6249703,4.64044944 L66,4.64044944 L63.9377208,30.6292135 C63.2156329,30.5393254 62.4330188,30.4157311 61.5898549,30.258427 C60.7466911,30.1011228 59.8938149,29.9157314 59.0312007,29.7022472 C58.1685865,29.488763 57.3183333,29.2584282 56.4804156,29.011236 C55.6424979,28.7640437 54.8791173,28.5056193 54.1902508,28.2359551 L54.211891,27.8651685 L58.1130019,26.4494382 C58.7411168,26.202246 59.1770108,25.9382037 59.4206969,25.6573034 C59.6643829,25.3764031 59.8052411,24.9101156 59.8432756,24.258427 L60.4210461,10.2696629 Z M39.6559589,20.8202247 L40.1989678,8.01123596 L37.0282618,8.01123596 L37.3017153,3.3258427 L46.7797396,3.3258427 C47.1434066,3.3258427 47.4568036,3.21348427 47.7199401,2.98876404 L48.3972281,2.48314607 L48.7722578,2.48314607 L48.4496221,8.01123596 L45.4152905,8.01123596 L44.5228267,20.3820225 L48.7399485,19.9775281 L48.8566501,20.3146067 L37.6548487,28.2359551 L35.2296911,20.7191011 L35.5784964,20.5842697 L35.9056615,20.8202247 C36.2120663,21.0224729 36.5250242,21.1123597 36.8445443,21.0898876 L39.6559589,20.8202247 Z" id="成功" fill="#4E2E09" fill-rule="nonzero"></path>
    </g>
</svg>