<svg height="32" viewBox="0 0 83 32" width="83" xmlns="http://www.w3.org/2000/svg"><path d="m29.5084977 5.65170058-.3435978 5.27085082h-3.0545339l-.2835974 3.8239506h1.9562745c.3889688 0 .7167769-.1148322.9834343-.3445l.6514569-.5167501h.4118473l-.3435978 5.2708508h-4.0155108l-.5492291 7.3723012h-4.4959992l.4119466-7.3723012h-4.1184727c-.3673905 1.4239407-.8153361 2.7674775-1.3438503 4.0306507s-1.141324 2.5033609-1.8384478 3.7206006l-5.58361483-4.3751507.26045588-.3100501.96771415-.10335c.68940987-.0459336 1.2129851-.3559805 1.5707415-.9301501.2025073-.2985683.3832543-.6143568.5422463-.9473752s.308413-.6947398.4482674-1.0851752h-3.43206054l.2874544-4.4096007h4.22143444c.2151357-1.1942728.3668677-2.4689103.4552005-3.8239506h-3.63798417l.2874544-4.40960068h3.67230477l.1841505-2.82490045c.0164688-.25263464-.0608291-.47081582-.2318959-.65455011l-.5773476-.62010009.0269489-.41340007h5.6285792l-.2941916 4.51295072h3.1918163l.1498298-2.82490045c-.0262978-.29856821-.1150358-.51674939-.2662164-.65455011l-.5773476-.62010009.0269488-.41340007h5.9374647l-.3628328 4.51295072h1.0639388c.3660883 0 .6824563-.11483221.9491137-.34450006l.6857776-.51675008zm-21.77474107 6.02875092-1.23222564 15.7436525h16.16500501c.9838623 0 1.8394116-.1377986 2.5666737-.4134.727262-.2756014 1.3433751-.6889974 1.8483577-1.2402002.5049826-.5512029.9152311-1.2287129 1.2307578-2.0325503.3155268-.8038375.564174-1.7224951.745949-2.7560005h.7893739l-.6624925 10.1627516c-.3124184.2296679-.8048792.4133994-1.4773972.5512001s-1.3946349.2468913-2.1663723.3272751c-.7717375.0803837-1.5473119.1320582-2.3267467.155025s-1.4437084.03445-1.9928409.03445h-19.87163035l.77770937-15.0891024h-2.12787752l.29868308-4.5818507h5.42265562c.34320777 0 .65882727-.103349.94686798-.3100501l.68802329-.5512001zm-1.2607801-7.51010116c.29744673 0 .61082052-.06889932.94013076-.20670003l.78200217-.41340006.3342231.13780002-3.14924661 6.71775103-5.03863452-5.8909509.1940604-.34450006zm11.53772667 6.75220106c-.0434178.6660368-.1032465 1.3205803-.1794879 1.9636503-.0762415.64307-.1567046 1.2631639-.241392 1.8603003h3.4663811l.2149563-3.8239506zm19.1535387 14.2623023.3304656-6.6488511h-2.3338012l.307666-4.7196507h2.26516l.2496189-5.40865088h-2.4367629l.3099117-4.75410076h8.4771895c.3660883 0 .6824564-.1148322.9491137-.34450005l.651457-.51675008h.4118472l-.3660552 5.61535089h-2.8486102l-.421222 5.40865088h.5491297c.3432078 0 .6710159-.1148322.9834343-.3445001l.6537027-.5512001h.3775267l-.3660552 5.6153509h-2.5740454l-.5318977 6.5799511 2.679253-.03445-1.5886578-2.4804004.3566805-.2067001.3685437.1378001c.3113442.1378007.6431068.1378007.9952975 0l7.8533656-3.0660505.420295-8.0268513h-6.4522738l.2897002-4.44405071h6.3836325l.1610586-2.99715047c.0164688-.25263464-.0715205-.48229905-.2639707-.68900011l-.5452728-.58565009.0269489-.41340007h6.1090677l-.3740615 4.68520074h3.740946l-3.1321084-3.54835056.1940604-.34450005h4.3587169c.3203272 0 .6344496-.08038255.9423765-.24115004l.7820022-.41340007.3685437.13780002-2.0721259 4.4096007c.2303023-.02296678.48947-.13779898.7775107-.34450005l.6880233-.55120009h.3775266l-.3480893 5.33975085h-7.035724l-.2117339 2.7215504c.1242317.5512029.2763131 1.1138807.4562489 1.6880503.1799357.5741696.3770289 1.1483306.5912855 1.7225003l2.1138182-3.9962007c.1552491-.2756014.2426039-.5626819.2620671-.8612501l.0680067-.5167501.2925307-.2756 3.8653388 4.4096007-6.1334784 2.4804004c.3549571.8727378.7357832 1.6995297 1.1424899 2.4804004.4067068.7808707.8129273 1.4813471 1.218674 2.1014503.4057466.6201032.8075327 1.1253649 1.2053705 1.5158002.3978378.3904354.7546692.6200998 1.0705049.6890002.2715719.0459335.5197795.0114839.7446302-.1033501.2248508-.1148339.4004635-.2641158.5268434-.44785l.3297316.2067c-.0074858.1148339-.0953207.3215319-.2635072.6201001s-.3612279.5397158-.5791298.7234501l-4.3497836 3.5483506c-.6385063-.7349371-1.2451399-1.6076619-1.8199191-2.6182004-.5747792-1.0105386-1.1000466-2.0784781-1.5758179-3.2038505l-.6307101 8.0957512c-.7276851-.0689003-1.5038453-.1837325-2.3285041-.3445-.8246587-.1607675-1.6524051-.3617239-2.483264-.6028751-.830859-.2411513-1.6605826-.4995237-2.4891957-.7751251-.8286132-.2756015-1.6221451-.562682-2.3806196-.8612502l-.0096174-.37895 4.3202468-1.5158003c.399449-.1607675.7133598-.4133983.941742-.7579001.2283821-.3445018.3560458-.723448.3829948-1.1368502l.1671612-3.6172506-5.4583447 6.3388011-1.8705943-2.8938005-9.7990956 6.063201-1.4160284-7.2345012.3842638-.10335.3252402.2756c.2595945.2296679.5495511.3445001.8698783.3445001zm13.5661132-12.780952.7976229 6.717751-.3223598.2067001-5.7703035-3.6172506 5.0750078-3.6172506zm31.2696449-7.33785121-2.3186218 16.08815251h-3.912549l-.363219-14.43455225c.0164688-.25263464-.0722691-.47081582-.2662164-.6545501l-.6437431-.65455011.0224574-.34450005zm-4.4343436 18.53410291c.4576103 0 .8920651.0918658 1.3033774.2756001.4113122.1837343.7666465.4363651 1.0660134.7579001s.5267203.6947397.6820669 1.1196252c.1553465.4248855.2180472.8669895.1881039 1.3263252-.0314405.4823025-.1521555.9301481-.3621486 1.3435502s-.485255.7751236-.825794 1.0851752-.7223418.5511992-1.1454199.7234501-.8748557.258375-1.3553466.258375-.92104-.0861241-1.3216606-.258375-.7452633-.4133985-1.0339386-.7234501c-.2886752-.3100516-.505337-.6717731-.6499919-1.0851752s-.2012613-.8612477-.1698208-1.3435502.1521554-.9301481.3621486-1.3435502c.2099931-.4134022.4799093-.7808652.8097566-1.1024002s.7066786-.5741658 1.1305053-.7579001c.4238266-.1837343.8645385-.2756001 1.3221489-.2756001z" fill="#4e2e09"/></svg>