<?xml version="1.0" encoding="UTF-8"?>
<svg width="66px" height="30px" viewBox="0 0 66 30" version="1.1" xmlns="http://www.w3.org/2000/svg" xmlns:xlink="http://www.w3.org/1999/xlink">
    <title>word_notifi_result_lose_en-us</title>
    <defs>
        <linearGradient x1="100%" y1="50%" x2="0%" y2="50%" id="linearGradient-1">
            <stop stop-color="#2A57A5" offset="0%"></stop>
            <stop stop-color="#4168AB" offset="26.7419764%"></stop>
            <stop stop-color="#2D4D8E" offset="57.2687922%"></stop>
            <stop stop-color="#5576B7" offset="80.4423564%"></stop>
            <stop stop-color="#4C6FA4" offset="100%"></stop>
        </linearGradient>
    </defs>
    <g id="word_notifi_result_lose_en-us" stroke="none" stroke-width="1" fill="none" fill-rule="evenodd">
        <g transform="translate(18.000000, 0.000000)" fill-rule="nonzero">
            <rect id="矩形" fill="#D8D8D8" opacity="0" x="0" y="0" width="30" height="30"></rect>
            <polygon id="矩形" stroke="#6585C0" fill="url(#linearGradient-1)" points="4.25 0.5 4.25 25.88924 15.0371221 29.4729535 25.75 25.8900028 25.75 0.5"></polygon>
            <rect id="矩形" fill="#254583" x="1.875" y="0" width="26.25" height="1.875"></rect>
            <path d="M6.395,16.82 L9.755,16.71 L9.845,15.14 L7.155,15.37 L8.055,9.53 L6.295,9.53 L5.475,15.93 C5.44166667,16.1833333 5.515,16.3966667 5.695,16.57 C5.875,16.7433333 6.10833333,16.8266667 6.395,16.82 Z M13.445,16.79 C13.7116667,16.79 13.9533333,16.695 14.17,16.505 C14.3866667,16.315 14.5116667,16.0866667 14.545,15.82 L14.965,12.88 C14.9716667,12.8533333 14.975,12.81 14.975,12.75 C14.975,12.51 14.895,12.31 14.735,12.15 C14.575,11.99 14.3716667,11.91 14.125,11.91 L11.575,11.91 C11.3083333,11.91 11.0666667,12.005 10.85,12.195 C10.6333333,12.385 10.5083333,12.6133333 10.475,12.88 L10.055,15.82 C10.0483333,15.8466667 10.045,15.89 10.045,15.95 C10.045,16.19 10.125,16.39 10.285,16.55 C10.445,16.71 10.6483333,16.79 10.895,16.79 L13.445,16.79 Z M11.635,15.36 L11.915,13.34 L13.385,13.29 L13.095,15.32 L11.635,15.36 Z M15.175,16.84 L18.225,16.83 C18.4983333,16.83 18.7483333,16.7316667 18.975,16.535 C19.2016667,16.3383333 19.3316667,16.1033333 19.365,15.83 L19.495,14.94 C19.5016667,14.9133333 19.505,14.87 19.505,14.81 C19.505,14.61 19.45,14.435 19.34,14.285 C19.23,14.135 19.0816667,14.0333333 18.895,13.98 L17.155,13.46 L17.185,13.06 L19.665,13.29 L19.925,11.76 L16.915,11.76 C16.635,11.76 16.3833333,11.8583333 16.16,12.055 C15.9366667,12.2516667 15.8083333,12.4866667 15.775,12.76 L15.655,13.58 C15.6483333,13.6133333 15.645,13.66 15.645,13.72 C15.645,13.9066667 15.6933333,14.0733333 15.79,14.22 C15.8866667,14.3666667 16.0183333,14.47 16.185,14.53 L18.025,15.21 L17.955,15.57 L15.435,15.39 L15.175,16.84 Z M20.995,16.8 L24.685,16.73 L24.875,15.4 L21.615,15.53 L21.685,14.87 L23.865,14.9 C24.1383333,14.9066667 24.3833333,14.8133333 24.6,14.62 C24.8166667,14.4266667 24.9416667,14.1933333 24.975,13.92 L25.125,12.87 C25.1316667,12.8366667 25.135,12.7866667 25.135,12.72 C25.135,12.4866667 25.0583333,12.2916667 24.905,12.135 C24.7516667,11.9783333 24.5583333,11.8966667 24.325,11.89 L21.645,11.82 C21.3716667,11.8066667 21.1216667,11.8966667 20.895,12.09 C20.6683333,12.2833333 20.5383333,12.5233333 20.505,12.81 L20.135,15.84 C20.1083333,16.1066667 20.1783333,16.335 20.345,16.525 C20.5116667,16.715 20.7283333,16.8066667 20.995,16.8 Z M23.595,13.79 L21.835,13.7 L21.905,13.01 L23.745,13 L23.595,13.79 Z" id="lose" fill="#B9CFEF"></path>
        </g>
    </g>
</svg>