<?xml version="1.0" encoding="UTF-8"?>
<svg width="68px" height="33px" viewBox="0 0 68 33" version="1.1" xmlns="http://www.w3.org/2000/svg" xmlns:xlink="http://www.w3.org/1999/xlink">
    <!-- Generator: Sketch 55.2 (78181) - https://sketchapp.com -->
    <title>word_notifi_lose_normal</title>
    <desc>Created with Sketch.</desc>
    <g id="word_notifi_lose_normal" stroke="none" stroke-width="1" fill="none" fill-rule="evenodd" transform="translate(0.000000, 0.000000)">
        <path d="M13.0760828,1.92409241 L13.1014449,1.52805281 L19.5572889,1.52805281 L19.2000838,6.08250825 L26.8684468,6.08250825 C27.174309,6.08250825 27.476288,5.97249835 27.774393,5.75247525 L28.4308539,5.22442244 L28.7913325,5.22442244 L28.4447178,10.6369637 L18.8428786,10.6369637 L18.5385111,14.3663366 L27.9109548,14.3663366 C28.2605115,14.3663366 28.5624906,14.2563267 28.8169009,14.0363036 L29.4405911,13.5082508 L29.8338405,13.5082508 L29.4829988,18.9867987 L20.2416382,18.9867987 C21.0302774,19.9769026 21.8248929,20.8734833 22.6255086,21.6765677 C23.4261244,22.479652 24.1856741,23.1562129 24.9041806,23.7062706 C25.6226871,24.2563284 26.2796909,24.6578645 26.8752116,24.9108911 C27.4707323,25.1639177 27.9570054,25.2464251 28.3340455,25.1584158 C28.7547802,25.0704066 29.0120047,24.8063828 29.1057268,24.3663366 L29.4598649,24.4653465 C29.4979235,24.5533558 29.4848903,24.7568741 29.4207651,25.0759076 C29.3566398,25.3949411 29.2512873,25.6754663 29.1047045,25.9174917 L25.9736186,30.8019802 C24.9792028,30.2959271 23.9819802,29.6633701 22.9819208,28.9042904 C21.9818613,28.1452107 21.0195188,27.3091355 20.0948643,26.3960396 C19.1702099,25.4829437 18.2968384,24.5368586 17.4747238,23.5577558 C16.6526092,22.578653 15.9106719,21.6270673 15.2488895,20.7029703 C14.5152629,21.5830627 13.7030694,22.4961449 12.8122847,23.4422442 C11.9214999,24.3883436 10.9724106,25.3069262 9.96498831,26.1980198 C8.95756598,27.0891134 7.90963504,27.9306891 6.82116406,28.7227723 C5.73269309,29.5148554 4.63419366,30.2079178 3.52563282,30.8019802 L0,24.960396 L0.309731569,24.7293729 L1.4334604,25.0924092 C1.8647703,25.1804185 2.29289969,25.1474155 2.71786141,24.9933993 C3.34649385,24.7293716 3.9967858,24.3828404 4.66875677,23.9537954 C5.34072773,23.5247503 6.00493535,23.0462073 6.66139956,22.5181518 C7.31786377,21.9900964 7.96039864,21.4235454 8.58902344,20.8184818 C9.21764823,20.2134183 9.8138454,19.6028634 10.3776328,18.9867987 L0.972418342,18.9867987 L1.26830893,14.3663366 L13.2624152,14.3663366 L13.4684704,10.6369637 L7.07816787,10.6369637 C6.62502595,11.2310261 6.17329983,11.8030776 5.72297593,12.3531353 C5.27265203,12.9031931 4.84699984,13.4092386 4.44600658,13.8712871 L2.32645033,12.6831683 L5.83589934,3.93729373 C5.94442368,3.60725908 5.97718649,3.26622838 5.93418875,2.91419142 L5.69208932,2.08910891 L5.84642099,1.72607261 L11.7779784,3.77227723 C11.5573996,4.1463165 11.3255483,4.52585066 11.0824177,4.91089109 C10.839287,5.29593152 10.5848843,5.68646667 10.3192018,6.08250825 L13.6945924,6.08250825 L13.8499235,3.14521452 C13.8654226,2.90318911 13.7914201,2.6941703 13.6279138,2.51815182 L13.0760828,1.92409241 Z M34.1008473,26.2805281 C34.3601968,26.3245327 34.601218,26.3135317 34.823918,26.2475248 C35.046618,26.1815178 35.2858741,26.027504 35.5416935,25.7854785 C35.8905381,25.4554439 36.2825411,25.0484073 36.7177143,24.5643564 C37.1528876,24.0803056 37.567264,23.5797606 37.9608562,23.0627063 C38.3544483,22.545652 38.6865464,22.0506074 38.9571604,21.5775578 C39.2277743,21.1045081 39.3729422,20.7139729 39.3926684,20.4059406 L40.0943518,9.44884488 C40.1112599,9.18481716 40.0379619,8.96479736 39.8744556,8.78877888 L39.3226246,8.19471947 L39.3458731,7.83168317 L43.8682411,7.83168317 L42.8103519,20.7689769 C42.7370681,21.2310254 42.6070545,21.72607 42.4203072,22.2541254 L46.8729524,24.3663366 C47.2563407,24.5203528 47.5563843,24.5258533 47.7730922,24.3828383 C47.9898001,24.2398233 48.1365588,24.0803089 48.2133728,23.9042904 L48.5653974,24.0363036 C48.5583523,24.1463152 48.4907017,24.3498335 48.3624436,24.6468647 C48.2341855,24.9438959 48.0763291,25.1914182 47.8888696,25.3894389 L47.3243805,26.0165017 L47.7155164,26.049505 C48.3885556,26.1155119 48.9248593,25.928495 49.3244435,25.4884488 C49.9784381,24.8283795 50.6010615,24.1463182 51.1923322,23.4422442 C51.783603,22.7381703 52.3435034,22.012105 52.8720503,21.2640264 C52.4329679,20.2739224 52.0328287,19.2728323 51.6716209,18.2607261 C51.3104131,17.2486198 50.9670049,16.2145267 50.641386,15.1584158 L49.8115718,16.3465347 L47.7163323,15.290429 L47.2058867,21.7260726 L43.8304961,21.7260726 L44.5627451,6.70957096 L39.3849615,6.70957096 L38.1939216,21.7260726 L34.9168434,21.7260726 L35.8435118,2.65016502 L46.8217238,2.65016502 C47.1931278,2.65016502 47.5060304,2.54015512 47.7604407,2.32013201 L48.3820174,1.82508251 L48.7752668,1.82508251 L47.7670564,14.4983498 L51.8388352,3.11221122 C51.9473595,2.78217657 51.9596843,2.41914389 51.87581,2.02310231 L51.6559139,1.3630363 L51.7774748,1 L57.3823697,2.51815182 C57.175184,3.02420495 56.9581348,3.51374901 56.7312154,3.98679868 C56.504296,4.45984835 56.2770278,4.93839142 56.0494039,5.42244224 L62.046457,5.42244224 C62.4178611,5.42244224 62.7307636,5.31243234 62.985174,5.09240924 L63.6395214,4.59735974 L64,4.59735974 L63.6681798,9.77887789 L62.291807,9.77887789 C61.8098033,11.847095 61.2129322,13.8327738 60.5011758,15.7359736 C59.7894195,17.6391734 58.9402477,19.4708383 57.953635,21.2310231 C58.6598241,22.4851548 59.3302324,23.5302488 59.9648799,24.3663366 C60.5995274,25.2024244 61.1275666,25.7414729 61.5490135,25.9834983 C61.7808797,26.1155122 62.0132689,26.1540157 62.246188,26.0990099 C62.4791072,26.0440041 62.6674463,25.9174927 62.8112112,25.7194719 L63.126238,25.9174917 C63.0656353,26.1815195 62.9682103,26.4235413 62.83396,26.6435644 C62.6997098,26.8635875 62.5504854,27.0616053 62.3862822,27.2376238 L58.7699522,31 C58.0658842,30.0539007 57.4088689,29.1408185 56.7988868,28.2607261 C56.1889046,27.3806337 55.6280873,26.5005545 55.1164179,25.620462 C54.4208499,26.5885637 53.6683833,27.5071464 52.8589957,28.3762376 C52.049608,29.2453289 51.2030571,30.0979056 50.3193174,30.9339934 L46.8687713,26.4785479 L44.1964305,29.3168317 L41.7659827,23.7722772 C41.1888174,24.9383997 40.4449904,26.1485086 39.5344795,27.4026403 C38.6239687,28.6567719 37.674709,29.8338779 36.686672,30.9339934 L33.004617,26.5115512 L33.2879183,26.1815182 L34.1008473,26.2805281 Z M55.6690878,16.4785479 C56.628914,14.4543353 57.394565,12.2211343 57.9660637,9.77887789 L53.869716,9.77887789 L53.5367359,10.3729373 C54.1005844,12.4851591 54.8113613,14.5203422 55.6690878,16.4785479 Z" id="失败" fill="#4E2E09" fill-rule="nonzero"></path>
    </g>
</svg>