<?xml version="1.0" encoding="UTF-8"?>
<svg width="66px" height="30px" viewBox="0 0 66 30" version="1.1" xmlns="http://www.w3.org/2000/svg" xmlns:xlink="http://www.w3.org/1999/xlink">
    <title>word_notifi_result_win_en-us</title>
    <defs>
        <linearGradient x1="100%" y1="50%" x2="0%" y2="50%" id="linearGradient-1">
            <stop stop-color="#B01415" offset="0%"></stop>
            <stop stop-color="#C6191C" offset="26.7419764%"></stop>
            <stop stop-color="#B7171B" offset="55.4080448%"></stop>
            <stop stop-color="#F61F21" offset="80.4423564%"></stop>
            <stop stop-color="#BE1619" offset="100%"></stop>
        </linearGradient>
    </defs>
    <g id="word_notifi_result_win_en-us" stroke="none" stroke-width="1" fill="none" fill-rule="evenodd">
        <g transform="translate(18.000000, 0.000000)" fill-rule="nonzero">
            <rect id="矩形" fill="#D8D8D8" opacity="0" x="0" y="0" width="30" height="30"></rect>
            <polygon id="矩形" stroke="#FF4A48" fill="url(#linearGradient-1)" points="4.25 0.5 4.25 25.88924 15.0371221 29.4729535 25.75 25.8900028 25.75 0.5"></polygon>
            <rect id="矩形" fill="#8E0D16" x="1.875" y="0" width="26.25" height="1.875"></rect>
            <path d="M7.97,17.87 C8.18333333,17.87 8.38166667,17.8066667 8.565,17.68 C8.74833333,17.5533333 8.88,17.3866667 8.96,17.18 L9.84,15.09 L10.14,17.19 C10.1733333,17.39 10.265,17.5533333 10.415,17.68 C10.565,17.8066667 10.7433333,17.87 10.95,17.87 C11.15,17.87 11.3383333,17.8133333 11.515,17.7 C11.6916667,17.5866667 11.8266667,17.4333333 11.92,17.24 L13.99,13.05 L12.31,12.74 L11.24,15.7 L10.9,13.42 C10.8666667,13.2333333 10.7816667,13.0833333 10.645,12.97 C10.5083333,12.8566667 10.3433333,12.8 10.15,12.8 C9.96333333,12.8 9.785,12.8566667 9.615,12.97 C9.445,13.0833333 9.32,13.23 9.24,13.41 L8.27,15.56 L8.06,12.71 L6.5,12.96 L7.14,17.19 C7.17333333,17.39 7.265,17.5533333 7.415,17.68 C7.565,17.8066667 7.74333333,17.87 7.95,17.87 L7.97,17.87 Z M17.2,12.41 L17.42,10.89 L15.72,10.89 L15.5,12.41 L17.2,12.41 Z M16.45,17.84 L17.18,13.05 L15.37,13.05 L14.79,17.84 L16.45,17.84 Z M19.88,17.84 L20.36,14.43 L21.59,14.29 L21.24,16.84 C21.2333333,16.8733333 21.23,16.92 21.23,16.98 C21.23,17.2266667 21.3133333,17.4316667 21.48,17.595 C21.6466667,17.7583333 21.8533333,17.84 22.1,17.84 L23.32,17.84 L23.5,16.55 L22.95,16.55 L23.33,13.83 C23.3366667,13.7966667 23.34,13.75 23.34,13.69 C23.34,13.43 23.25,13.2166667 23.07,13.05 C22.89,12.8833333 22.6666667,12.81 22.4,12.83 L20.56,12.95 L20.6,12.66 L18.94,12.66 L18.22,17.84 L19.88,17.84 Z" id="win" fill="#FFE9B8"></path>
        </g>
    </g>
</svg>