<?xml version="1.0" encoding="UTF-8"?>
<svg width="119px" height="32px" viewBox="0 0 119 32" version="1.1" xmlns="http://www.w3.org/2000/svg" xmlns:xlink="http://www.w3.org/1999/xlink">
    <title>word_notifi_video_normal_zh-tw</title>
    <g id="word_notifi_video_normal_zh-tw" stroke="none" stroke-width="1" fill="none" fill-rule="evenodd">
        <path d="M30.4086379,31 L30.7408638,1.73089701 L30.3754153,1.73089701 L29.744186,2.26245847 C29.5005537,2.48394241 29.2015504,2.59468439 28.8471761,2.59468439 L28.8471761,2.59468439 L17.8172757,2.59468439 L18.0166113,12.9601329 L26.2890365,12.9601329 L26.4883721,25.4850498 C26.5326689,26.2602436 26.200443,26.8361019 25.4916944,27.2126246 L25.4916944,27.2126246 L22.3355482,28.3754153 L22.4019934,23.2259136 L25.358804,23.2259136 L25.358804,18.7076412 L24.9601329,18.7076412 L24.3621262,19.2392027 C24.0741971,19.4606866 23.7751938,19.5714286 23.4651163,19.5714286 L23.4651163,19.5714286 L22.4684385,19.5714286 L22.5016611,17.7774086 L24.4950166,17.7774086 L24.4950166,13.358804 L24.1295681,13.358804 L23.5315615,13.8903654 C23.2436323,14.1118494 22.9335548,14.2225914 22.6013289,14.2225914 L22.6013289,14.2225914 L9.34551495,14.2225914 L9.34551495,17.7774086 L11.5049834,17.7774086 L11.4385382,19.5714286 L8.58139535,19.5714286 L8.58139535,23.2259136 L11.0730897,23.2259136 C11.0287929,23.5802879 10.978959,23.9069767 10.923588,24.2059801 C10.8682171,24.5049834 10.807309,24.7984496 10.7408638,25.0863787 C10.6522702,25.4629014 10.4806202,25.772979 10.2259136,26.0166113 C9.97120709,26.2602436 9.66666667,26.4152824 9.31229236,26.4817276 L9.31229236,26.4817276 L8.81395349,26.5813953 L8.64784053,26.9136213 L13.8305648,29.6710963 C14.2735327,28.7408638 14.6223699,27.7663344 14.8770764,26.7475083 C15.1317829,25.7286822 15.3255814,24.5548173 15.4584718,23.2259136 L15.4584718,23.2259136 L18.3820598,23.2259136 L18.4817276,28.8737542 L21.0398671,28.8737542 L20.9734219,28.9069767 L20.9734219,29.2724252 C22.4130676,29.7153931 23.9689922,30.0863787 25.641196,30.3853821 C27.3133998,30.6843854 28.9025471,30.889258 30.4086379,31 L30.4086379,31 Z M7.48504983,30.9003322 L7.71760797,12.9601329 L15.6578073,12.9601329 L15.8239203,1.7641196 L15.4252492,1.7641196 L14.8272425,2.29568106 C14.5836102,2.51716501 14.2735327,2.62790698 13.89701,2.62790698 L13.89701,2.62790698 L7.85049834,2.62790698 L7.85049834,2.59468439 L3,2.59468439 L3.3986711,30.9003322 L7.48504983,30.9003322 Z M26.255814,10.1362126 L22.5016611,10.1362126 L22.5348837,9.27242525 L25.4916944,9.27242525 L25.4916944,5.81727575 L25.0930233,5.81727575 L24.5282392,6.31561462 C24.3953488,6.42635659 24.2513843,6.49833887 24.0963455,6.53156146 C23.9413068,6.56478405 23.7751938,6.58139535 23.5980066,6.58139535 L23.5980066,6.58139535 L22.5681063,6.58139535 L22.5681063,5.6179402 L26.1893688,5.6179402 L26.255814,10.1362126 Z M11.4717608,10.1694352 L7.75083056,10.1694352 L7.75083056,9.30564784 L10.807309,9.30564784 L10.807309,5.81727575 L10.4086379,5.81727575 L9.81063123,6.34883721 C9.56699889,6.57032115 9.25692137,6.68106312 8.88039867,6.68106312 L8.88039867,6.68106312 L7.78405316,6.68106312 L7.81727575,5.6179402 L11.4053156,5.6179402 L11.4717608,10.1694352 Z M18.3156146,19.5714286 L15.6910299,19.5714286 C15.6910299,19.2834994 15.696567,18.9900332 15.7076412,18.6910299 C15.7187154,18.3920266 15.7242525,18.0874862 15.7242525,17.7774086 L15.7242525,17.7774086 L18.282392,17.7774086 L18.3156146,19.5714286 Z M64.4230343,30.9003322 L64.6555925,18.4750831 L64.854928,18.5415282 L66.3499446,14.8538206 C66.4606866,14.6101883 66.5105205,14.3277962 66.4994463,14.0066445 C66.4883721,13.6854928 66.4606866,13.469546 66.4163898,13.358804 L66.4163898,13.358804 L66.0509413,13.358804 C66.0066445,13.5581395 65.9457364,13.7297896 65.8682171,13.8737542 C65.7906977,14.0177187 65.641196,14.1339978 65.4197121,14.2225914 C65.1982281,14.3111849 64.7663344,14.2059801 64.124031,13.9069767 C63.4817276,13.6079734 62.7397564,13.2037652 61.8981174,12.6943522 L61.8981174,12.6943522 L65.6854928,12.6943522 L65.6854928,8.27574751 L65.3200443,8.27574751 L64.6888151,8.77408638 C64.4451827,8.99557032 64.1461794,9.10631229 63.7918051,9.10631229 L63.7918051,9.10631229 L61.5991141,9.10631229 L63.8582503,7.64451827 L60.8349945,5.9833887 C61.6323367,5.93909192 62.3964563,5.89479513 63.1273533,5.85049834 C63.8582503,5.80620155 64.5448505,5.76190476 65.1871539,5.71760797 L65.1871539,5.71760797 L63.4595792,1 L63.0941307,1.09966777 L62.6954596,1.63122924 C62.4518272,1.91915836 62.1417497,2.10741971 61.765227,2.19601329 L61.765227,2.19601329 L46.0177187,3.62458472 L46.1838317,6.18272425 C46.648948,6.20487265 47.158361,6.21594684 47.7120709,6.21594684 L47.7120709,6.21594684 L49.406423,6.21594684 L46.9147287,7.67774086 L49.3067553,9.10631229 L45.6190476,9.10631229 L45.6190476,12.6943522 L49.2735327,12.6943522 C48.7419712,13.0265781 48.2325581,13.3200443 47.7452935,13.5747508 C47.2580288,13.8294574 46.8150609,14.0121816 46.4163898,14.1229236 C46.1727575,14.2115172 45.9568106,14.255814 45.7685493,14.255814 C45.5802879,14.255814 45.3643411,14.200443 45.1207087,14.089701 L45.1207087,14.089701 L44.1572536,13.6578073 L43.8250277,13.8239203 L44.6888151,15.5847176 L43.3599114,15.6843854 L43.4263566,11.0664452 L45.2535991,11.0664452 L45.2535991,5.9833887 L44.8881506,5.9833887 L44.2569214,6.51495017 C43.9911406,6.73643411 43.7364341,6.84717608 43.4928018,6.84717608 L43.4928018,6.84717608 L43.559247,1.79734219 L38.2436323,1.79734219 L38.2436323,2.19601329 L38.841639,2.79401993 C39.0188261,2.97120709 39.1074197,3.18161683 39.1074197,3.42524917 L39.1074197,3.42524917 L39.1406423,6.84717608 L36.4496124,6.84717608 L36.4496124,11.0664452 L39.2070875,11.0664452 L39.2735327,15.9501661 L37.5127353,16.0830565 C37.3355482,16.1052049 37.1805094,16.0775194 37.047619,16 C36.9147287,15.9224806 36.7818383,15.8283499 36.648948,15.717608 L36.648948,15.717608 L36.3499446,15.4518272 L35.9844961,15.5182724 L37.5459579,22.5614618 L39.3399779,21.0664452 L39.406423,25.3853821 C39.406423,25.6954596 39.3233666,25.9612403 39.1572536,26.1827243 C38.9911406,26.4042082 38.786268,26.5813953 38.5426357,26.7142857 L38.5426357,26.7142857 L36.0177187,28.0099668 L36.0509413,28.3754153 C36.5825028,28.641196 37.1528239,28.9014396 37.7619048,29.1561462 C38.3709856,29.4108527 38.9856035,29.648948 39.6057586,29.8704319 C40.2259136,30.0919158 40.8405316,30.2857143 41.4496124,30.4518272 C42.0586932,30.6179402 42.6290144,30.7452935 43.1605759,30.833887 L43.1605759,30.833887 L43.3266888,17.7109635 L45.021041,16.282392 L46.1173865,18.4750831 L46.5492802,18.3089701 L46.7486157,30.9003322 L64.4230343,30.9003322 Z M58.8748616,9.10631229 L57.6456257,9.10631229 L57.7120709,6.11627907 L59.2403101,6.04983389 C59.2624585,6.29346622 59.2403101,6.54817276 59.1738649,6.81395349 L59.1738649,6.81395349 L58.8748616,9.10631229 Z M53.393134,9.10631229 L52.0642303,9.10631229 L51.6655592,6.21594684 L53.3266888,6.21594684 L53.393134,9.10631229 Z M62.6290144,17.4119601 L48.4429679,17.4119601 C49.3732004,16.9468439 50.2425249,16.4540421 51.0509413,15.9335548 C51.8593577,15.4130676 52.6733112,14.8316722 53.4928018,14.1893688 L53.4928018,14.1893688 L53.559247,16.8803987 L57.5127353,16.8803987 L57.5459579,14.1229236 C58.4540421,14.765227 59.3344408,15.3632337 60.1871539,15.9169435 C61.0398671,16.4706534 61.8538206,16.9689922 62.6290144,17.4119601 L62.6290144,17.4119601 Z M60.13732,22.5282392 L57.8781838,22.5282392 L57.9114064,20.9003322 L60.1040975,20.9003322 L60.13732,22.5282392 Z M53.3266888,22.5282392 L51.1339978,22.5282392 L51.1672204,20.9003322 L53.2934662,20.9003322 L53.3266888,22.5282392 Z M60.2037652,27.4119601 L57.7785161,27.4119601 L57.8117386,25.7508306 L60.1705426,25.7508306 L60.2037652,27.4119601 Z M53.4263566,27.4119601 L51.0675526,27.4119601 L51.1007752,25.7508306 L53.393134,25.7508306 L53.4263566,27.4119601 Z M100.231451,10.4684385 L100.231451,5.31893688 L99.8660022,5.31893688 L99.234773,5.81727575 C98.9911406,6.03875969 98.6921373,6.14950166 98.337763,6.14950166 L98.337763,6.14950166 L95.8460687,6.14950166 L97.5404208,1.93023256 L97.2414175,1.79734219 L96.2779623,2.22923588 C95.9678848,2.38427464 95.6024363,2.46179402 95.1816168,2.46179402 L95.1816168,2.46179402 L90.6301218,2.46179402 L90.4972315,2.79401993 L93.952381,6.14950166 L88.5370986,6.14950166 L88.5370986,10.4684385 L100.231451,10.4684385 Z M86.145072,30.9335548 L86.3444075,17.2126246 L88.503876,15.2857143 L88.3709856,14.9202658 L86.3776301,15.1528239 L86.4440753,10.5348837 L87.8394241,10.5348837 L87.8394241,5.41860465 L87.5071982,5.41860465 L86.9091916,5.9833887 C86.7320044,6.11627907 86.5991141,6.20487265 86.5105205,6.24916944 L86.5105205,6.24916944 L86.5769657,1.83056478 L81.1616833,1.83056478 L81.1616833,2.22923588 L81.7596899,2.79401993 C81.9368771,2.99335548 82.0365449,3.21483942 82.0586932,3.45847176 L82.0586932,3.45847176 L82.0919158,6.28239203 L80.0321152,6.28239203 L80.0321152,10.5348837 L82.1251384,10.5348837 L82.1915836,15.5847176 L80.7297896,15.717608 C80.4418605,15.7840532 80.1317829,15.717608 79.799557,15.5182724 L79.799557,15.5182724 L79.4673311,15.2857143 L79.4341085,15.3189369 L79.6002215,3.25913621 L79.234773,3.25913621 L78.6367663,3.79069767 C78.3488372,4.01218162 78.0387597,4.12292359 77.7065338,4.12292359 L77.7065338,4.12292359 L71.2613511,4.12292359 L71.593577,27.345515 L79.3012182,27.345515 L79.4341085,16.3156146 L81.5271318,21.5315615 L82.2580288,20.8671096 L82.324474,26.0498339 C82.324474,26.6256921 82.0697674,27.0354374 81.5603544,27.2790698 L81.5603544,27.2790698 L78.8361019,28.3421927 L78.8361019,28.7408638 C79.96567,29.2502769 81.1838317,29.6987818 82.4905869,30.0863787 C83.7973422,30.4739756 85.0155039,30.7563677 86.145072,30.9335548 L86.145072,30.9335548 Z M76.0454042,22.9269103 L74.8161683,22.9269103 L75.0155039,8.50830565 L75.8792913,8.50830565 L76.0454042,22.9269103 Z M100.497231,30.1694352 L100.497231,24.820598 L100.131783,24.820598 L99.5005537,25.3521595 C99.2126246,25.5736434 98.9136213,25.6843854 98.6035437,25.6843854 L98.6035437,25.6843854 L96.7430786,25.6843854 C97.1196013,24.5548173 97.4850498,23.3975637 97.8394241,22.2126246 C98.1937984,21.0276855 98.5204873,19.8482835 98.8194906,18.6744186 C99.1184939,17.5005537 99.3953488,16.3543743 99.6500554,15.2358804 C99.9047619,14.1173865 100.131783,13.0708749 100.331118,12.0963455 L100.331118,12.0963455 L95.1151717,11.1328904 L95.0487265,11.5647841 L95.6135105,12.3289037 C95.7685493,12.5503876 95.8349945,12.8050941 95.8128461,13.0930233 L95.8128461,13.0930233 L94.1849391,25.6843854 L87.8062016,25.6843854 L87.8062016,30.1694352 L100.497231,30.1694352 Z M92.8228128,25.3189369 L93.2547065,25.2857143 L92.9889258,11.9634551 L92.889258,11.4983389 L87.9723145,12.2956811 L92.8228128,25.3189369 Z M115.342193,20.1694352 L116.571429,4.65448505 L109.328904,4.65448505 L109.328904,4.98671096 L109.993355,5.6179402 C110.192691,5.79512735 110.292359,6.0055371 110.292359,6.24916944 L110.292359,6.24916944 L111.554817,20.1694352 L115.342193,20.1694352 Z M113.448505,29.1727575 C113.913621,29.1727575 114.345515,29.089701 114.744186,28.923588 C115.142857,28.7574751 115.497231,28.5249169 115.807309,28.2259136 C116.117386,27.9269103 116.361019,27.5780731 116.538206,27.179402 C116.715393,26.7807309 116.803987,26.3488372 116.803987,25.8837209 C116.803987,25.440753 116.715393,25.0143965 116.538206,24.6046512 C116.361019,24.1949059 116.117386,23.8349945 115.807309,23.5249169 C115.497231,23.2148394 115.13732,22.9712071 114.727575,22.7940199 C114.317829,22.6168328 113.891473,22.5282392 113.448505,22.5282392 C113.005537,22.5282392 112.584718,22.6168328 112.186047,22.7940199 C111.787375,22.9712071 111.438538,23.2148394 111.139535,23.5249169 C110.840532,23.8349945 110.602436,24.1893688 110.425249,24.5880399 C110.248062,24.986711 110.159468,25.4186047 110.159468,25.8837209 C110.159468,26.3488372 110.242525,26.7807309 110.408638,27.179402 C110.574751,27.5780731 110.807309,27.9269103 111.106312,28.2259136 C111.405316,28.5249169 111.754153,28.7574751 112.152824,28.923588 C112.551495,29.089701 112.983389,29.1727575 113.448505,29.1727575 Z" id="開播啦！" fill="#4E2E09" fill-rule="nonzero"></path>
    </g>
</svg>