<svg height="32" viewBox="0 0 83 32" width="83" xmlns="http://www.w3.org/2000/svg"><path d="m18.0502171 19.2913459h-6.8549489c-.4254205 2.6409483-1.0628226 5.012025-1.91222546 7.1133012-.84940289 2.1012763-1.87933973 3.9786179-3.08984144 5.6320811l-6.18075721-4.5125542.26141491-.3100229 1.31574723-.1033409c.41637117-.0459295.78208699-.1951983 1.09715844-.4478107.63164556-.5281897 1.22728344-1.3836144 1.78693151-2.5663.55964807-1.1826855 1.00892467-2.784454 1.3478433-4.8053536h-5.82153948l.32683096-4.9948119h6.02822135l.43502328-6.64826702h-4.68478917l.31781493-4.85702406h24.31956725c.3444716 0 .6620046-.11482212.9526085-.3444698l.6905568-.55115166h.3789167l-.3764191 5.75264552h-4.2369784l-.5039172 6.64826702h3.7202737c.3215067 0 .6390397-.1148222.9526085-.3444698l.6561097-.5511517h.4133638l-.3854351 5.8904334h-5.7526456l-.9559923 12.5042535h-4.891471zm-6.2525421-4.9948119h6.5449261l.3661293-6.64826702h-6.4760321zm50.2240426 17.9813231c-2.206545-.3215068-4.4032896-.7922774-6.5902997-1.4123262-2.1870102-.6200487-4.3564947-1.3319458-6.5085186-2.1357127-1.3770369.6889431-3.1490624 1.3606524-5.3161297 2.0151483-2.1670674.6544959-4.8486539 1.1884187-8.04484 1.6017845l-1.3288781-4.960365.3557398-.1722349 1.0984322.5855987c.1547427.0918591.3289603.1492701.5226582.1722349.1936978.0229648.3709208.034447.5316741.034447 1.2400975 0 2.4819485-.1148222 3.7255904-.3444698 1.2436418-.2296477 2.3582249-.5052208 3.3437826-.8267275h-4.0991905l.1349469-4.1680845c-.5492272.3215067-1.1041872.6430087-1.6648967.9645154-.5607096.3215068-1.1501162.6430087-1.7682377.9645154l-2.2521844-5.0637059.3579938-.2066819.8363804.3789168c.4917008.2066829.9854359.2066829 1.4812201 0 .9196688-.3674363 1.7964003-.7807959 2.6302207-1.2400913h-4.5125543l.1960986-2.9968872h7.8539113l.0563501-.8611744h-3.0313341l.1713045-2.6179704h2.9624402l.0128871-.7233866h-2.3079476l.1825746-2.79020532h2.2390536c-.0798376-.18371814-.1519485-.31002247-.2163348-.37891677l-.5794735-.62004563.0270481-.41336375h5.7870925l-.1268613 1.41232615h3.9269557c-.0798377-.18371814-.1519485-.31002247-.2163348-.37891677l-.5794735-.62004563.0270481-.41336375h5.8215394l-.1268612 1.41232615h.8267275c.390401 0 .7194162-.11482212.9870555-.34446979l.6538557-.51670469h.3789168l-.2299087 3.5135919h.2066819l-.2276547 3.4791449h-3.1002281l-.0907972.8611744h6.1315623c.3444715 0 .6734867-.1148221.9870555-.3444697l.6561097-.5511517h.3789168l-.2547027 3.8925086h-4.6158952c.862567.5052249 1.6759746.8841379 2.4402472 1.1367503.7642726.2526125 1.3935403.2870591 1.8878218.103341.1637588-.0459295.3194138-.1435283.4669698-.2927993s.2410798-.3502097.280574-.6028222l.3744088.068894c.0293999.2526124.0236017.5167033-.0173952.7922805s-.1386529.5396681-.292971.7922805l-2.4338785 4.0302966c-1.1810684-.5511544-2.368342-1.1826761-3.5618564-1.8945839l-.4127767 4.2025315h-3.4102509c.8117048.2296477 1.5965703.4305864 2.3546199.6028221.7580496.1722358 1.472413.3100223 2.1431116.4133638.6706986.1033414 1.2640169.1607525 1.7799729.1722349.5159559.0114824.936935-.0172232 1.2629497-.0861175.4668088-.1148238.7334804-.505219.8000228-1.1711973h.3789168c.0568729.1837182.0877752.4133624.0927078.6889396s-.0605308.5741147-.1963921.8956215zm-9.6048201-30.6233645c.3215067 0 .6367857-.08037548.9458464-.24112885l.7848817-.41336375.3354537.13778792-1.1596337 1.92903083h9.7829421c.3674363 0 .6849692-.11482212.9526085-.34446979l.6883027-.51670469h.3789167l-.9556489 10.91969243h-3.9614026l.3294283-6.61382003h-20.2203767l-.6050042 6.61382003h-3.9614026l.4170411-10.05851795h11.9186548l-1.2046641-1.06785635.194775-.3444698zm-6.4876013 22.2871955.0270481-.4133637h6.1315623l-.2199124 2.3079476 2.0584396.6544926.1333298-3.6169328h-9.5073663l-.3902367 3.8580616c.4238846-.1607533.8133162-.3215043 1.1683065-.4822577.3549902-.1607533.6640463-.3215043.9271775-.4822577.1208346-.0918591.2175759-.1664934.2902269-.2239053.072651-.057412.135697-.1435286.1891399-.2583524.0259702-.0459295.0358436-.1090817.0296206-.1894584-.0062231-.0803767-.0193141-.1435288-.0392735-.1894584-.0154514-.1148238-.0875622-.2411281-.2163348-.3789167zm-.3649995-5.4770697c-.2676392.2296477-.5291577.4535508-.7845632.6717161s-.5276548.4305862-.8167561.6372691h11.0574803c-.2390883-.2066829-.472432-.4133627-.7000379-.6200456-.227606-.2066829-.459447-.4363271-.69553-.6889396zm2.0217885-2.9968872h4.2369784l.0563502-.8611744h-4.2025315zm.2965486-3.4791448h4.0991905l.0128872-.7233866h-4.0302966zm11.3803903-.7233866h-2.4457355l-.0817811.7233866h1.1023033c.3674363 0 .6849693-.1148222.9526085-.3444698zm22.7369759-6.7860549-2.3271593 16.0867393h-3.9269556l-.3645565-14.4332843c.0165295-.25261245-.0725352-.47077447-.2671967-.65449261l-.6461134-.6544926.02254-.34446979zm-4.4506716 18.5324748c.4592954 0 .8953499.0918577 1.3081766.2755758.4128268.1837182.7694695.4363268 1.0699387.7578336.3004693.3215067.5286598.6946786.6845783 1.1195268.1559186.4248482.2188502.8669133.1887966 1.3262087-.0315562.4822601-.1527157.9300664-.3634821 1.3434322-.2107663.4133658-.4870418.7750554-.8288347 1.0850798s-.7250016.5511508-1.1496375.7233866c-.4246359.1722357-.8780771.2583523-1.3603372.2583523s-.9244314-.0861166-1.3265272-.2583523c-.4020957-.1722358-.7480075-.4133622-1.0377457-.7233866s-.5071978-.671714-.6523853-1.0850798c-.1451876-.4133658-.2020024-.8611721-.1704461-1.3434322.0315562-.4822601.1527157-.9300664.3634821-1.3434322.2107663-.4133658.4816764-.7807966.8127383-1.1023033.3310618-.3215068.7092807-.5741154 1.1346679-.7578336.4253873-.1837181.8677219-.2755758 1.3270173-.2755758z" fill="#4e2e09"/></svg>