<?xml version="1.0" encoding="UTF-8"?>
<svg width="66px" height="30px" viewBox="0 0 66 30" version="1.1" xmlns="http://www.w3.org/2000/svg" xmlns:xlink="http://www.w3.org/1999/xlink">
    <!-- Generator: Sketch 56.2 (81672) - https://sketch.com -->
    <title>tag_notifi_result_win</title>
    <desc>Created with Sketch.</desc>
    <defs>
        <linearGradient x1="100%" y1="50%" x2="0%" y2="50%" id="linearGradient-1">
            <stop stop-color="#B01415" offset="0%"></stop>
            <stop stop-color="#C6191C" offset="26.7419764%"></stop>
            <stop stop-color="#B7171B" offset="55.4080448%"></stop>
            <stop stop-color="#F61F21" offset="80.4423564%"></stop>
            <stop stop-color="#BE1619" offset="100%"></stop>
        </linearGradient>
    </defs>
    <g id="tag_notifi_result_win" stroke="none" stroke-width="1" fill="none" fill-rule="evenodd">
        <g id="ico/赢" transform="translate(18.000000, 0.000000)">
            <rect id="矩形" fill="#D8D8D8" fill-rule="evenodd" opacity="0" x="0" y="0" width="30" height="30"></rect>
            <path d="M4.25,0.5 L4.25,25.88924 L15.0371221,29.4729535 L25.75,25.8900028 L25.75,0.5 L4.25,0.5 Z" id="矩形" stroke="#FF4A48" stroke-width="1" fill="url(#linearGradient-1)" fill-rule="evenodd"></path>
            <rect id="矩形" fill="#8E0D16" fill-rule="evenodd" x="1.875" y="0" width="26.25" height="1.875"></rect>
            <path d="M16.3725,14.6175 L16.3725,17.98125 L15.63,17.98125 L15.63,15.405 L14.22375,15.405 L14.22375,17.95875 L13.47,17.95875 L13.47,14.6175 L16.3725,14.6175 Z M14.94375,18.56625 C14.92125,18.63375 14.8875,18.69 14.865,18.74625 C14.62875,19.19625 14.235,19.53375 13.695,19.78125 L13.2675,19.10625 C13.7625,18.88125 14.1,18.58875 14.29125,18.25125 C14.46,17.89125 14.55,17.4075 14.5725,16.8225 L14.5725,15.855 L15.27,15.855 L15.27,16.8225 C15.2475,17.19375 15.21375,17.53125 15.1575,17.84625 C15.5625,18.18375 15.91125,18.5325 16.1925,18.88125 L15.64125,19.4325 C15.46125,19.15125 15.225,18.85875 14.94375,18.56625 Z M9.99375,10.1175 L14.51625,10.1175 C14.415,9.915 14.31375,9.72375 14.20125,9.555 L15.27,9.375 C15.36,9.6 15.43875,9.8475 15.52875,10.1175 L20.00625,10.1175 L20.00625,10.86 L11.895,10.86 L11.895,11.2875 L19.28625,11.2875 L19.28625,12.01875 L10.91625,12.01875 L10.91625,10.86 L9.99375,10.86 L9.99375,10.1175 Z M11.23125,12.4125 L18.735,12.4125 L18.735,14.19 L11.23125,14.19 L11.23125,12.4125 Z M17.7,13.515 L17.7,13.07625 L12.26625,13.07625 L12.26625,13.515 L17.7,13.515 Z M11.265,16.74375 C11.25375,16.96875 11.2425,17.19375 11.22,17.39625 L12.26625,17.39625 L12.26625,16.74375 L11.265,16.74375 Z M12.26625,16.08 L12.26625,15.4275 L11.27625,15.4275 L11.27625,16.08 L12.26625,16.08 Z M11.13,18.06 C10.98375,18.78 10.7475,19.3875 10.42125,19.905 L9.76875,19.30875 C10.2075,18.58875 10.4325,17.68875 10.44375,16.58625 L10.44375,14.64 L13.0875,14.64 L13.0875,19.03875 C13.0875,19.5675 12.78375,19.8375 12.1875,19.8375 L11.76,19.8375 L11.535,19.06125 C11.67,19.08375 11.805,19.095 11.92875,19.095 C12.15375,19.095 12.26625,18.97125 12.26625,18.74625 L12.26625,18.06 L11.13,18.06 Z M19.5675,19.725 L19.12875,19.725 C18.67875,19.725 18.465,19.48875 18.465,19.03875 L18.465,17.77875 L17.97,18.00375 C17.84625,17.53125 17.71125,17.10375 17.565,16.7325 C17.55375,17.48625 17.4975,18.07125 17.4075,18.47625 C17.28375,18.92625 17.025,19.41 16.63125,19.91625 L15.97875,19.3425 C16.31625,18.96 16.53,18.6 16.63125,18.2625 C16.7325,17.9025 16.78875,17.32875 16.78875,16.53 L16.78875,14.62875 L19.2525,14.62875 L19.2525,18.79125 C19.2525,18.90375 19.2975,18.97125 19.41,18.97125 L19.44375,18.97125 C19.48875,18.97125 19.5225,18.915 19.55625,18.81375 C19.57875,18.72375 19.60125,18.375 19.62375,17.77875 L20.2875,18.015 C20.22,18.78 20.1525,19.26375 20.0625,19.455 C19.9725,19.635 19.80375,19.725 19.5675,19.725 Z M17.565,16.51875 L18.015,16.3725 C18.18375,16.76625 18.33,17.1825 18.465,17.62125 L18.465,15.45 L17.565,15.45 L17.565,16.51875 Z" id="赢" fill="#FFE9B8" fill-rule="nonzero"></path>
        </g>
    </g>
</svg>