<?xml version="1.0" encoding="UTF-8"?>
<svg width="83px" height="32px" viewBox="0 0 83 32" version="1.1" xmlns="http://www.w3.org/2000/svg" xmlns:xlink="http://www.w3.org/1999/xlink">
    <title>word_notifi_video_normal_en-us</title>
    <g id="word_notifi_video_normal_en-us" stroke="none" stroke-width="1" fill="none" fill-rule="evenodd">
        <path d="M6.248,22.134 L6.528,20.132 L2.944,20.132 L4.176,12.222 L1.656,12.222 L0.452,20.734 C0.442666667,20.7713333 0.438,20.832 0.438,20.916 C0.438,21.2613333 0.552333333,21.5506667 0.781,21.784 C1.00966667,22.0173333 1.30133333,22.134 1.656,22.134 L6.248,22.134 Z M10.028,22.246 L11.428,12.348 L9.048,12.348 L7.648,22.246 L10.028,22.246 Z M15.656,22.274 C16.0573333,22.274 16.4353333,22.1573333 16.79,21.924 C17.1446667,21.6906667 17.4153333,21.3826667 17.602,21 L21.522,12.768 L18.68,12.222 L15.992,18.55 L15.222,12.152 L12.548,12.656 L14.06,20.986 C14.1253333,21.3686667 14.305,21.679 14.599,21.917 C14.893,22.155 15.2453333,22.274 15.656,22.274 Z M29.754,22.134 L30.048,20.076 L25.232,20.174 L25.498,18.102 L29.628,18.102 L29.894,16.184 L25.736,16.184 L25.988,14.182 L30.58,14.28 L30.874,12.222 L25.26,12.222 C24.8773333,12.222 24.5273333,12.3596667 24.21,12.635 C23.8926667,12.9103333 23.7106667,13.2393333 23.664,13.622 L22.656,20.734 C22.6466667,20.7713333 22.642,20.832 22.642,20.916 C22.642,21.2613333 22.7563333,21.5506667 22.985,21.784 C23.2136667,22.0173333 23.5053333,22.134 23.86,22.134 L29.754,22.134 Z M36.194,22.134 L41.878,22.12 C42.2606667,22.12 42.6106667,21.9823333 42.928,21.707 C43.2453333,21.4316667 43.4273333,21.1026667 43.474,20.72 L43.81,18.396 C43.8193333,18.3586667 43.824,18.298 43.824,18.214 C43.824,17.9713333 43.761,17.7496667 43.635,17.549 C43.509,17.3483333 43.3386667,17.2013333 43.124,17.108 L39.302,15.414 L39.386,14.238 L44.23,14.588 L44.65,12.222 L39.036,12.222 C38.6533333,12.222 38.3056667,12.3573333 37.993,12.628 C37.6803333,12.8986667 37.496,13.23 37.44,13.622 L37.16,15.568 C37.1506667,15.6146667 37.146,15.68 37.146,15.764 C37.146,15.988 37.1996667,16.1933333 37.307,16.38 C37.4143333,16.5666667 37.5613333,16.7113333 37.748,16.814 L41.738,18.998 L41.5,20.146 L36.6,19.908 L36.194,22.134 Z M49.746,22.19 L50.754,14.28 L53.47,14.28 L53.75,12.278 L46.05,12.278 L45.77,14.28 L48.318,14.28 L47.086,22.19 L49.746,22.19 Z M57.166,22.134 L57.992,20.202 L60.974,20.202 L61.296,22.134 L64.068,22.134 L61.926,12.236 L59.364,12.236 L54.87,22.134 L57.166,22.134 Z M60.652,18.312 L58.804,18.312 L60.12,15.232 L60.652,18.312 Z M67.428,22.232 L67.946,18.522 L69.136,18.522 L70.368,22.232 L72.86,22.232 L71.502,18.522 C71.8566667,18.522 72.1786667,18.396 72.468,18.144 C72.7573333,17.892 72.9253333,17.5886667 72.972,17.234 L73.448,13.846 C73.4573333,13.7993333 73.462,13.7386667 73.462,13.664 C73.462,13.3653333 73.3663333,13.111 73.175,12.901 C72.9836667,12.691 72.734,12.5766667 72.426,12.558 L67.96,12.292 C67.5866667,12.2733333 67.246,12.39 66.938,12.642 C66.63,12.894 66.4526667,13.2066667 66.406,13.58 L65.188,22.232 L67.428,22.232 Z M70.998,16.632 L68.212,16.632 L68.548,14.238 L71.334,14.322 L70.998,16.632 Z M78.558,22.19 L79.566,14.28 L82.282,14.28 L82.562,12.278 L74.862,12.278 L74.582,14.28 L77.13,14.28 L75.898,22.19 L78.558,22.19 Z" id="LIVESTART" fill="#4E2E09" fill-rule="nonzero"></path>
    </g>
</svg>