<?xml version="1.0" encoding="UTF-8"?>
<svg width="12px" height="12px" viewBox="0 0 12 12" version="1.1" xmlns="http://www.w3.org/2000/svg" xmlns:xlink="http://www.w3.org/1999/xlink">
    <title>icon_rank_rule</title>
    <g id="icon_rank_anchor_rule" stroke="none" stroke-width="1" fill="none" fill-rule="evenodd">
        <g id="帮助疑问" transform="translate(-0.000000, -0.000000)" fill="#666666" fill-rule="nonzero">
            <g id="icon/帮助">
                <path d="M6.00000375,3.75178752e-06 C7.61224387,3.75178752e-06 9.12498297,0.639891851 10.2421448,1.75786267 C11.3691601,2.88171491 12.0017851,4.40839953 12.0000038,6.00000375 C12.0000038,7.61224387 11.3601157,9.12498297 10.2421448,10.2421448 C9.11829259,11.3691601 7.59160798,12.0017851 6.00000375,12.0000038 C4.40839953,12.0017851 2.88171491,11.3691601 1.75786267,10.2421448 C0.630847432,9.11829259 -0.00177760046,7.59160798 3.75178718e-06,6.00000375 C3.75178718e-06,4.38776363 0.639891851,2.87502454 1.75786267,1.75786267 C2.88171491,0.630847432 4.40839953,-0.00177760046 6.00000375,3.75178752e-06 Z M6.00000375,1.00000438 C4.67336896,0.998520214 3.40192292,1.5253804 2.46471349,2.46522533 C1.52572362,3.40353575 1.00000375,4.66532218 1.00000375,6.00112911 C0.998520214,7.32663938 1.52538099,8.59808517 2.4659624,9.5360324 C3.40192206,10.4746262 4.6733692,11.0014885 6.00112437,11.0000044 C7.32663913,11.0014885 8.59808603,10.4746257 9.53529402,9.53478218 C10.474287,8.59646868 11.0000038,7.33468113 11.0000038,5.99889067 C11.0014885,4.6733692 10.4746262,3.40192206 9.53478218,2.46471349 C8.65902633,1.58832349 7.50148664,1.07193984 6.2658971,1.00698376 L6.00000375,1.00000438 Z M6.00000375,8.32573899 C6.37238781,8.32573899 6.67426473,8.62761592 6.67426473,8.99999998 C6.67426473,9.37238403 6.37238781,9.67426096 6.00000375,9.67426096 C5.62761969,9.67426096 5.32574277,9.37238403 5.32574277,8.99999998 C5.32574277,8.62761592 5.62761969,8.32573899 6.00000375,8.32573899 Z M6.00000375,2.3257435 C7.10241291,2.32393467 8.03987369,3.12977514 8.20360396,4.21995936 C8.36733423,5.31014358 7.70794342,6.3558086 6.65363647,6.67790502 L6.60671729,6.69003929 L6.60671729,7.24740679 C6.60670451,7.55059027 6.38288334,7.80722472 6.08251679,7.84845767 L6.00000375,7.85412033 C5.69655187,7.85405227 5.43981772,7.62979862 5.39895287,7.32911088 L5.39329021,7.24740679 L5.39329021,6.16826564 C5.393303,5.86508216 5.61712416,5.60844771 5.91749071,5.56721476 L6.00000375,5.5615521 C6.54495298,5.56130322 6.99168641,5.12926082 7.01015057,4.58462443 C7.02861473,4.03998804 6.61216742,3.57868226 6.06848627,3.54152683 C5.52480511,3.50437141 5.04947109,3.90473244 4.99366822,4.44681709 L4.98881452,4.55036286 C4.98881452,4.8854415 4.71717961,5.1570764 4.38210097,5.1570764 C4.04702234,5.1570764 3.77538743,4.8854415 3.77538743,4.55036286 C3.77538743,3.3217412 4.77138208,2.3257435 6.00000375,2.3257435 Z" id="形状结合"></path>
            </g>
        </g>
    </g>
</svg>