<svg height="32" viewBox="0 0 32 32" width="32" xmlns="http://www.w3.org/2000/svg"><path d="m16.28125 0c5.4929943 0 9.9459459 4.45295167 9.9459459 9.94594594l-.0003387 1.29705406.8980685.0002433c2.0120546.1306704 3.5420049 1.8598772 3.4265946 3.8728648v13.011027c.1154103 2.0129876-1.41454 3.7421944-3.4265946 3.8728649h-21.68735139c-2.01205464-.1306705-3.54200493-1.8598773-3.42659459-3.8728649v-13.011027c-.11541032-2.0129876 1.41453996-3.7421944 3.42659459-3.8728648l.89728286-.0002433.00044689-1.29705406c0-5.49299427 4.45295164-9.94594594 9.94594594-9.94594594zm10.8108108 13.8378378h-21.62162161c-.47765167 0-.86486488.3872132-.86486488.8648649v13.8378378c0 .2293765.09111943.4493582.25331306.6115518.16219363.1621937.38217539.2533131.61155182.2533131h21.62162161c.4776517 0 .8648649-.3872132.8648649-.8648649v-13.8378378c0-.4776517-.3872132-.8648649-.8648649-.8648649zm-10.8108108 4.3243244c.8648649 0 1.2972973.4324324 1.2972973 1.2972973v5.1891892c0 .8108108-.3800676 1.241554-1.1402027 1.2922297l-.1570946.0050675c-.8648649 0-1.2972973-.4324324-1.2972973-1.2972972v-5.1891892c0-.8108109.3800676-1.2415541 1.1402027-1.2922298zm0-15.56756761c-4.0600392 0-7.35135134 3.29131211-7.35135134 7.35135135v1.29729736h14.70270264v-1.29729736c0-4.06003924-3.2913121-7.35135135-7.3513513-7.35135135z" fill="#524b77"/></svg>