<?xml version="1.0" encoding="UTF-8"?>
<svg width="20px" height="20px" viewBox="0 0 20 20" version="1.1" xmlns="http://www.w3.org/2000/svg" xmlns:xlink="http://www.w3.org/1999/xlink">
    <title>icon_search_league_add</title>
    <g id="icon_search_league_add" stroke="none" stroke-width="1" fill="none" fill-rule="evenodd">
        <g id="编组" fill="#222222">
            <path d="M10,0 C15.5228475,0 20,4.4771525 20,10 C20,15.5228475 15.5228475,20 10,20 C4.4771525,20 0,15.5228475 0,10 C0,4.4771525 4.4771525,0 10,0 Z M10,1 C5.02943725,1 1,5.02943725 1,10 C1,14.9705627 5.02943725,19 10,19 C14.9705627,19 19,14.9705627 19,10 C19,5.02943725 14.9705627,1 10,1 Z" id="椭圆形" fill-rule="nonzero"></path>
            <path d="M10,5 C10.2761424,5 10.5,5.22385763 10.5,5.5 L10.5,9.5 L14.5,9.5 C14.7761424,9.5 15,9.72385763 15,10 C15,10.2761424 14.7761424,10.5 14.5,10.5 L10.499,10.5 L10.5,14.5 C10.5,14.7761424 10.2761424,15 10,15 C9.72385763,15 9.5,14.7761424 9.5,14.5 L9.499,10.5 L5.5,10.5 C5.22385763,10.5 5,10.2761424 5,10 C5,9.72385763 5.22385763,9.5 5.5,9.5 L9.5,9.5 L9.5,5.5 C9.5,5.22385763 9.72385763,5 10,5 Z" id="形状结合"></path>
        </g>
    </g>
</svg>