<?xml version="1.0" encoding="UTF-8"?>
<svg width="20px" height="20px" viewBox="0 0 20 20" version="1.1" xmlns="http://www.w3.org/2000/svg" xmlns:xlink="http://www.w3.org/1999/xlink">
    <!-- Generator: Sketch 55.2 (78181) - https://sketchapp.com -->
    <title>icon_betlist_screen_selected</title>
    <desc>Created with Sketch.</desc>
    <g id="icon_betlist_screen_selected" stroke="none" stroke-width="1" fill="none" fill-rule="evenodd">
        <g id="ico/选择联赛" fill="#5078FF">
            <path d="M11.6609375,9.28146307 L11.6609375,18.2814631 C11.6609375,18.3814631 11.6609375,18.4814631 11.6109375,18.5814631 C11.5109375,18.8314631 11.2109375,18.9814631 10.9609375,18.9814631 C10.8609375,18.9814631 10.7609375,18.9814631 10.6609375,18.9314631 L6.2609375,16.9814631 C5.9609375,16.8814631 5.7609375,16.6314631 5.7609375,16.2814631 L5.7609375,9.23146307 L0.2109375,3.03146307 C0.1109375,2.88146307 0.0109375,2.73146307 0.0109375,2.53146307 C0.0109375,2.13146307 0.3109375,1.83146307 0.7109375,1.83146307 L16.7109375,1.83146307 C16.9109375,1.83146307 17.0609375,1.93146307 17.2109375,2.03146307 C17.5109375,2.28146307 17.5109375,2.73146307 17.2609375,3.03146307 L11.6609375,9.28146307 Z M10.6609375,8.28146307 L15.1109375,3.23146307 L2.2609375,3.23146307 L6.7109375,8.23146307 L10.6609375,8.28146307 Z M7.1609375,9.68146307 L7.1609375,15.8814631 L10.2609375,17.2314631 L10.2609375,9.68146307 L7.1609375,9.68146307 Z M13.2609375,10.9314631 C13.2609375,10.5314631 13.5609375,10.2314631 13.9609375,10.2314631 L19.2109375,10.2314631 C19.6109375,10.2314631 19.9109375,10.5314631 19.9109375,10.9314631 C19.9109375,11.3314631 19.6109375,11.6314631 19.2109375,11.6314631 L13.9609375,11.6314631 C13.5609375,11.6314631 13.2609375,11.3314631 13.2609375,10.9314631 Z M19.2109375,13.5314631 C19.6109375,13.5314631 19.9109375,13.8814631 19.9109375,14.2314631 C19.9109375,14.6314631 19.6109375,14.9314631 19.2109375,14.9314631 L13.9609375,14.9314631 C13.5609375,14.9314631 13.2609375,14.6314631 13.2609375,14.2314631 C13.2609375,13.8314631 13.5609375,13.5314631 13.9609375,13.5314631 L19.2109375,13.5314631 Z M19.2109375,16.8814631 C19.6109375,16.8814631 19.9109375,17.1814631 19.9109375,17.5814631 C19.9109375,17.9814631 19.6109375,18.2814631 19.2109375,18.2814631 L13.9609375,18.2814631 C13.5609375,18.2814631 13.2609375,17.9814631 13.2609375,17.5814631 C13.2609375,17.1814631 13.5609375,16.8814631 13.9609375,16.8814631 L19.2109375,16.8814631 Z" id="形状结合"></path>
        </g>
    </g>
</svg>