<?xml version="1.0" encoding="UTF-8"?>
<svg width="22px" height="22px" viewBox="0 0 22 22" version="1.1" xmlns="http://www.w3.org/2000/svg" xmlns:xlink="http://www.w3.org/1999/xlink">
    <!-- Generator: Sketch 55.2 (78181) - https://sketchapp.com -->
    <title>search_clearhistory</title>
    <desc>Created with Sketch.</desc>
    <g id="search_clearhistory" stroke="none" stroke-width="1" fill="none" fill-rule="evenodd">
        <g id="ico/清空" transform="translate(1.000000, 1.000000)">
            <path d="M10.1404628,1 C12.1068439,1 13.7058789,2.4567426 13.7645382,4.29134241 L18.0739199,4.29134241 C18.5863459,4.29134241 19,4.68075977 19,5.15672245 C19,5.63556143 18.5832679,6.0221208 18.0739199,6.0221208 L17.1478399,6.0221208 L17.1478399,15.6971158 C17.1478399,17.5230867 15.8266328,19 14.1997778,19 L5.89591609,19 C4.26598302,19 2.94785403,17.5144212 2.94785403,15.6971158 L2.94785403,6.01634989 L1.92608007,6.01634989 C1.41365406,6.01634989 1,5.62691422 1,5.15095154 C1,4.67211256 1.41673211,4.2855715 1.92606046,4.2855715 L6.51019208,4.2855715 C6.57810514,2.45672428 8.17406207,1 10.1404628,1 Z M8.24507278,4.2855715 L12.0327552,4.2855715 C11.9740958,3.35095887 11.1560415,2.62116774 10.1435408,2.62116774 C9.13104023,2.62116774 8.31298585,3.34808257 8.24507278,4.2855715 Z M5.89281844,17.3817269 L5.89281844,17.3903924 L14.1966998,17.3903924 C14.7739608,17.3903924 15.4098811,16.6951901 15.4098811,15.705763 L15.4098811,6.0221208 L4.67963708,6.0221208 L4.67963708,15.6971158 C4.67963708,16.6894192 5.31555742,17.3817269 5.89281844,17.3817269 Z M7.13685867,15.3019275 C6.70467752,15.3019275 6.36511221,14.9038446 6.36511221,14.4105875 L6.36511221,9.32500504 C6.36511221,8.82885333 6.71393126,8.43364675 7.13685867,8.43364675 C7.56284452,8.43364675 7.90858553,8.82885333 7.90858553,9.32500504 L7.90858553,14.4105875 C7.90858553,14.9067392 7.55974687,15.3019275 7.13685867,15.3019275 Z M9.93054792,15.3019275 C9.50764011,15.3019275 9.15880146,14.9038446 9.15880146,14.4105875 L9.15880146,9.32500504 C9.15880146,8.82885333 9.50764011,8.43364675 9.93054792,8.43364675 C10.3565338,8.43364675 10.7022748,8.82885333 10.7022748,9.32500504 L10.7022748,14.4105875 C10.7022748,14.9067392 10.3534557,15.3019275 9.93054792,15.3019275 Z M12.869317,15.3019275 C12.4340578,15.3019275 12.0975902,14.9038446 12.0975902,14.4105875 L12.0975902,9.32500504 C12.0975902,8.82885333 12.4464092,8.43364675 12.869317,8.43364675 C13.2953225,8.43364675 13.6410635,8.82885333 13.6410635,9.32500504 L13.6410635,14.4105875 C13.6410635,14.9067392 13.2922248,15.3019275 12.869317,15.3019275 Z" id="形状结合" fill="#19263B" opacity="0.400000006"></path>
            <rect id="矩形" fill="#D8D8D8" opacity="0" x="0" y="0" width="20" height="20"></rect>
        </g>
    </g>
</svg>