<?xml version="1.0" encoding="UTF-8"?>
<svg width="14px" height="10px" viewBox="0 0 14 10" version="1.1" xmlns="http://www.w3.org/2000/svg" xmlns:xlink="http://www.w3.org/1999/xlink">
    <title>icon_share_details_eyes</title>
    <g id="icon_share_details_eyes" stroke="none" stroke-width="1" fill="none" fill-rule="evenodd" opacity="0.699999988">
        <g id="icon/C直播/眼睛" fill="#222222">
            <path d="M13.8906819,4.5 C13.774076,4.30555556 11.4711088,0 7.0109318,0 C2.55075482,0 0.247787608,4.30555556 0.131181673,4.5 C-0.0437272242,4.80555556 -0.0437272242,5.19444444 0.131181673,5.5 C0.247787608,5.69444444 2.55075481,10 7.0109318,10 C11.4711088,10 13.774076,5.69444444 13.8906819,5.5 C14.0364394,5.19444444 14.0364394,4.80555556 13.8906819,4.5 Z M7,9 C3.1,9 1,5 1,5 C1,5 3.1,1 7,1 C10.9,1 13,5 13,5 C13,5 10.9,9 7,9 Z" id="形状"></path>
            <path d="M7.0109318,2.71590017 C5.72826653,2.71590017 4.67881312,3.76535358 4.67881312,5.04801886 C4.67881312,6.33068414 5.72826653,7.38013754 7.0109318,7.38013754 C8.29359708,7.38013754 9.34305049,6.33068414 9.34305049,5.04801886 C9.34305049,3.76535358 8.29359708,2.71590017 7.0109318,2.71590017 Z M7.0109318,6.2140782 C6.36959916,6.2140782 5.84487246,5.6893515 5.84487246,5.04801886 C5.84487246,4.40668622 6.36959916,3.88195952 7.0109318,3.88195952 C7.65226444,3.88195952 8.17699115,4.40668622 8.17699115,5.04801886 C8.17699115,5.6893515 7.65226444,6.2140782 7.0109318,6.2140782 Z" id="形状"></path>
        </g>
    </g>
</svg>