<?xml version="1.0" encoding="UTF-8"?>
<svg width="23px" height="12px" viewBox="0 0 23 12" version="1.1" xmlns="http://www.w3.org/2000/svg" xmlns:xlink="http://www.w3.org/1999/xlink">
    <title>icon_share_tag_red_tw</title>
    <g id="icon_share_tag_red_tw" stroke="none" stroke-width="1" fill="none" fill-rule="evenodd">
        <g id="编组" transform="translate(0.000000, 1.000000)">
            <polygon id="矩形" fill="#F9544E" points="2.15789474 0 23 0 20.8421053 10 0 10"></polygon>
            <path d="M7.85776782,8.01813272 L8.01826124,7.27143708 L10.3222612,7.27143708 L10.4917711,6.48279225 L8.18777114,6.48279225 L8.2689195,6.10524952 L10.1679195,6.10524952 L10.833336,3.00939907 L8.93433604,3.00939907 L9.01187781,2.64863601 L11.2348778,2.64863601 L11.4025844,1.86838102 L9.17958441,1.86838102 L9.29499541,1.33143134 L8.40399541,1.33143134 L8.28858441,1.86838102 L6.12858441,1.86838102 L5.96087781,2.64863601 L8.12087781,2.64863601 L8.04333604,3.00939907 L6.17133604,3.00939907 L5.5059195,6.10524952 L7.3779195,6.10524952 L7.29677114,6.48279225 L4.99277114,6.48279225 L4.82326124,7.27143708 L7.12726124,7.27143708 L6.96676782,8.01813272 L7.85776782,8.01813272 Z M4.68441735,3.31143326 L5.46225473,2.70736488 C5.15102616,2.27109327 4.7516009,1.82643182 4.27117563,1.38177038 L3.51135474,1.94388956 C4.03676352,2.4305002 4.4325822,2.89194133 4.68441735,3.31143326 Z M7.78546459,4.20914599 L6.79546459,4.20914599 L6.89464592,3.74770487 L7.88464592,3.74770487 L7.78546459,4.20914599 Z M9.70246459,4.20914599 L8.67646459,4.20914599 L8.77564592,3.74770487 L9.80164592,3.74770487 L9.70246459,4.20914599 Z M2.51673263,9.12559142 C3.12902935,8.37050594 3.51617771,7.99296321 3.69617771,7.99296321 C3.79517771,7.99296321 3.88875133,8.06008191 3.98409529,8.20270917 C4.1927832,8.48796368 4.46630737,8.68092997 4.80466781,8.78160804 C5.16463484,8.86550642 5.63081506,8.91584545 6.21401176,8.92423529 C6.78820846,8.93262513 7.32640516,8.94101497 7.82140516,8.94101497 L9.88240516,8.94101497 L10.2931447,8.07686159 C10.0465381,8.09364127 9.69193155,8.11042095 9.22932496,8.12720062 C8.76132496,8.12720062 8.30952166,8.13559046 7.85952166,8.13559046 C7.15752166,8.13559046 6.55632496,8.12720062 6.03612826,8.11881078 C5.50873485,8.10203111 5.12716123,8.0349124 4.88421068,7.90906482 C4.70065354,7.79999692 4.52971947,7.63220015 4.36960519,7.41406434 L4.29044146,7.32177612 L4.97569426,4.13363744 L2.91469426,4.13363744 L2.74157776,4.93906195 L3.92957776,4.93906195 L3.43367113,7.24626757 C3.0358019,7.42245418 2.54783376,7.85033595 1.96257001,8.52152304 L2.51673263,9.12559142 Z M9.45360962,5.36694372 L8.42760962,5.36694372 L8.52859425,4.89711276 L9.55459425,4.89711276 L9.45360962,5.36694372 Z M7.53660962,5.36694372 L6.54660962,5.36694372 L6.64759425,4.89711276 L7.63759425,4.89711276 L7.53660962,5.36694372 Z M11.654558,6.51635161 C12.4537876,6.44084306 13.314247,6.28982597 14.2341327,6.07169016 C14.2538865,6.1891479 14.2718371,6.31499548 14.286181,6.45762274 L15.0890997,6.15558855 C15.0047239,5.58507952 14.8681349,5.04812985 14.6883327,4.54473953 L13.9772338,4.79643469 C14.025758,4.98940098 14.0778723,5.20753679 14.1335767,5.4508421 C13.7015437,5.53474049 13.289314,5.61024904 12.8914942,5.66058807 C13.5649217,5.08168921 14.4490877,4.15041712 15.5331888,2.87516165 L14.8043042,2.5815173 C14.5467789,2.90033117 14.3036635,3.19397552 14.0641547,3.47084019 C13.7113349,3.52117922 13.3585152,3.57151825 13.009302,3.60507761 C13.5531064,3.08490762 14.1293701,2.41372053 14.7254866,1.60829602 L13.9300119,1.28948215 C13.4455185,2.03617779 12.9286481,2.72414455 12.3614009,3.35338245 C12.2191382,3.51278938 12.0696954,3.62185729 11.9148756,3.67219632 L11.9667756,4.43567163 C12.467202,4.36855292 12.938825,4.30982405 13.3942514,4.24270534 C12.8288074,4.8635534 12.3768393,5.29143517 12.0365437,5.53474049 C11.9087074,5.62702872 11.7574778,5.70253726 11.5918547,5.76126613 L11.654558,6.51635161 Z M19.1110612,8.79838771 L19.2913909,7.95940385 L17.4283909,7.95940385 L18.5861075,2.57312746 L20.1971075,2.57312746 L20.3756339,1.74253344 L16.1906339,1.74253344 L16.0121075,2.57312746 L17.6501075,2.57312746 L16.4923909,7.95940385 L14.7733909,7.95940385 C14.7249821,7.47279321 14.6459667,7.00296225 14.5237382,6.56669064 L13.8126393,6.8183858 C13.8952612,7.27143708 13.9526535,7.79999692 13.9812096,8.42084497 L14.5374887,8.21948885 L14.4130612,8.79838771 L19.1110612,8.79838771 Z M12.4744876,8.731269 L13.2863239,8.63898078 C13.4036206,7.8838953 13.4434579,7.27982692 13.4112294,6.84355532 L12.6911964,6.9274537 C12.6910316,7.34694563 12.6151942,7.95101401 12.4744876,8.731269 Z M11.6337986,8.95779465 C11.9022261,8.37889578 12.1454898,7.70770869 12.3527865,6.95262322 L11.6436228,6.86033499 C11.4381458,7.56508144 11.1877019,8.18592949 10.8832909,8.72287917 L11.6337986,8.95779465 Z" id="連紅" fill="#FFFFFF" fill-rule="nonzero"></path>
        </g>
    </g>
</svg>