<?xml version="1.0" encoding="UTF-8"?>
<svg width="16px" height="16px" viewBox="0 0 16 16" version="1.1" xmlns="http://www.w3.org/2000/svg" xmlns:xlink="http://www.w3.org/1999/xlink">
    <title>icon_details_news_lock</title>
    <g id="icon_details_news_lock" stroke="none" stroke-width="1" fill="none" fill-rule="evenodd" opacity="0.699999988">
        <g id="编组" fill="#FFFFFF" fill-rule="nonzero">
            <g id="icon/购物车">
                <path d="M7.98435646,1.00002165 C10.1937246,0.993207532 11.999969,2.59554631 11.999969,4.52737624 L11.999969,4.52737624 L11.999969,6.14065249 C11.999969,6.20080857 12.0562188,6.25002716 12.1249686,6.25002716 L12.1249686,6.25002716 L12.4999675,6.25002716 C13.3280899,6.25002716 13.9999628,6.83791595 13.9999628,7.56252308 L13.9999628,7.56252308 L13.9999628,13.6875041 C13.9999628,14.4121112 13.3280899,15 12.4999675,15 L12.4999675,15 L3.5,15 C2.67187291,15 2,14.4121112 2,13.6875041 L2,13.6875041 L2,7.56252308 C2,6.83791595 2.67187291,6.25002716 3.5,6.25002716 L3.5,6.25002716 L3.87499419,6.25002716 C3.94374398,6.25002716 4,6.20080855 4,6.14065249 L4,6.14065249 L4,4.50003258 C4,2.57093701 5.78280077,1.00687936 7.98435646,1.00002165 Z M7.97810647,8.87501901 C7.162484,8.8845893 6.49998606,9.47384528 6.49998606,10.1875149 C6.49998606,10.6154433 6.73436033,10.9968874 7.09685921,11.2361445 C7.34998343,11.4029409 7.49998606,11.6613385 7.49998606,11.9375095 L7.49998606,11.9375095 L7.49998606,12.8029365 C7.49998606,13.0476623 7.72810725,13.2527398 8.00623138,13.2500325 C8.27810554,13.2472711 8.49998606,13.0517639 8.49998606,12.8125068 L8.49998606,12.8125068 L8.49998606,11.9306736 C8.49998606,11.6558697 8.65154188,11.4015737 8.90154111,11.2361445 C9.26560248,10.9968874 9.49998606,10.6154433 9.49998606,10.1875149 C9.49998606,9.4560719 8.81716638,8.86408154 7.97810647,8.87501901 Z M7.99998296,9.7500163 C8.27612292,9.7500163 8.49998296,9.94589111 8.49998296,10.1875149 C8.49998296,10.4291388 8.27612292,10.6250136 7.99998296,10.6250136 C7.72383989,10.6250136 7.49998296,10.4291388 7.49998296,10.1875149 C7.49998296,9.94589111 7.72383989,9.7500163 7.99998296,9.7500163 Z M7.9999907,1.87504074 C7.1984214,1.87504074 6.44529872,2.14847739 5.87811299,2.64339772 C5.31248974,3.13968523 4.9999907,3.79866757 4.9999907,4.50003258 L4.9999907,4.50003258 L4.9999907,6.14065249 C4.9999907,6.20080857 5.05624054,6.25002716 5.12499032,6.25002716 L5.12499032,6.25002716 L10.8749725,6.25002716 C10.9437223,6.25002716 10.9999721,6.20080855 10.9999721,6.14065249 L10.9999721,6.14065249 L10.9999721,4.50003258 C10.9999721,3.79866757 10.6874731,3.13968524 10.1218498,2.64339772 C9.5546641,2.14847739 8.80154142,1.87504074 7.9999907,1.87504074 Z" id="形状结合"></path>
            </g>
        </g>
    </g>
</svg>