<?xml version="1.0" encoding="UTF-8"?>
<svg width="74px" height="18px" viewBox="0 0 74 18" version="1.1" xmlns="http://www.w3.org/2000/svg" xmlns:xlink="http://www.w3.org/1999/xlink">
    <title>icon_share_match_title</title>
    <defs>
        <linearGradient x1="6.98491691%" y1="48.0912187%" x2="70.2092921%" y2="51.3909128%" id="linearGradient-1">
            <stop stop-color="#FEB911" offset="0%"></stop>
            <stop stop-color="#FF8570" offset="47.7787397%"></stop>
            <stop stop-color="#FD5B59" offset="100%"></stop>
        </linearGradient>
    </defs>
    <g id="icon_share_match_title" stroke="none" stroke-width="1" fill="none" fill-rule="evenodd">
        <g id="编组-7" transform="translate(-0.000000, -0.000000)" fill-rule="nonzero">
            <g id="编组-4">
                <path d="M13.2498563,0.0733786998 L12.9717489,1.1006805 L18.5980661,1.1006805 L18.3399405,3.08190539 L12.7857556,3.08190539 L12.6423524,4.18258589 L18.1244051,4.18258589 L17.8567193,6.23718948 L12.3746666,6.23718948 L12.2121431,7.48462738 L17.6220635,7.48462738 L17.3734981,9.39247358 L11.9635777,9.39247358 L11.8106144,10.5665328 L17.270138,10.5665328 L17.0201432,12.474379 L1.6077955,12.474379 L2.64029793,4.54947939 L1.63044613,4.54947939 L1.95549319,2.0546036 L2.38828682,2.0546036 C3.01343317,2.0546036 3.4572368,1.78554836 3.71969772,1.2474379 L3.71969772,1.2474379 L4.22376219,0.1467574 L7.39758214,0.1467574 L7.05690262,1.1006805 L10.3028548,1.1006805 L10.5809623,0.0733786998 L13.2498563,0.0733786998 Z M9.22255137,9.39247358 L4.606086,9.39247358 L4.45312267,10.5665328 L9.06958805,10.5665328 L9.22255137,9.39247358 Z M9.6336403,6.23718948 L5.01717493,6.23718948 L4.8546514,7.48462738 L9.47111677,7.48462738 L9.6336403,6.23718948 Z M10.0447292,3.08190539 L5.42826386,3.08190539 L5.28486074,4.18258589 L9.90132612,4.18258589 L10.0447292,3.08190539 Z" id="形状结合" fill="#222222"></path>
                <path d="M31.4447489,17.0734935 L31.2478841,14.43352 C29.4493231,15.2198249 27.774681,15.4990909 26.2239577,15.2713178 C23.8978727,14.9296582 20.6363899,12.9061298 18.0823887,12.8130378 C12.6942501,12.8130378 8.95049876,16.4844733 8.61346025,14.713575 C8.43970294,13.749991 8.35083235,13.2237285 8.34684848,13.1347873 L5.57069889,13.1347873 C5.77049931,14.5292395 5.90902321,15.4221422 5.98627058,15.8134952 C6.10214164,16.4005248 6.83136544,18 9.13356484,18 C11.9482521,18 14.8305747,15.2713178 17.6182301,15.2713178 C20.5343997,15.2713178 21.8584894,16.8475424 25.1479846,17.5644184 C26.8146209,17.9276267 28.9135424,17.763985 31.4447489,17.0734935 Z" id="路径" fill="url(#linearGradient-1)"></path>
                <path d="M1.82496588,16.847789 C2.7701111,16.9016006 3.36058997,16.6325425 3.59640248,16.0406147 L5.16518587,13.1347873 L2.38806388,13.1347873 L1.57451535,14.5069836 C1.42665487,14.8298533 1.19403194,14.9912881 0.876646569,14.9912881 L0.241875828,14.9912881 L0,16.847789 L1.82496588,16.847789 Z" id="路径" fill="#222222"></path>
                <path d="M26.3683696,0.1467574 L26.2536471,1.0273018 L37.2898846,1.0273018 L37.0030784,3.22866279 L25.9668408,3.22866279 L25.7756367,4.69623679 L36.7397419,4.69623679 L35.9749253,10.5665328 C35.8891706,11.5938346 35.2964659,12.0830259 34.1968112,12.0341068 L34.1968112,12.0341068 L19.8424892,12.0341068 L20.7985099,4.69623679 L22.8903458,4.69623679 L23.4830787,0.1467574 L26.3683696,0.1467574 Z M33.4138201,6.97097648 L23.5316989,6.97097648 L23.168411,9.75936708 L32.7620031,9.75936708 L32.8355087,9.76933208 C33.0194783,9.77899512 33.1070865,9.65337562 33.0983333,9.39247358 L33.0983333,9.39247358 L33.4138201,6.97097648 Z" id="形状结合" fill="#222222"></path>
                <path d="M45.0635493,16.6569649 L45.3312351,14.6023613 L40.9311665,14.6023613 C40.5400876,14.6512804 40.4036464,14.4066847 40.5218427,13.8685743 L41.5352247,6.09043209 L44.5647801,6.09043209 C45.4848291,6.04151295 46.1079513,5.50340249 46.434147,4.47610069 L47.344951,0.807165698 L44.6039247,0.807165698 L44.0285893,3.00852669 C43.9040195,3.59555629 43.5804363,3.86461152 43.0578398,3.81569239 L41.8315912,3.81569239 L42.2904811,0.293514799 L39.4773226,0.293514799 L37.5366004,15.1893909 C37.409131,16.1677735 37.7781899,16.6569649 38.6437771,16.6569649 L45.0635493,16.6569649 Z" id="路径" fill="#222222"></path>
                <path d="M53.4308928,16.6569649 L53.7081388,14.5289826 L49.3802025,14.5289826 C48.8448591,14.5779017 48.6539561,14.3822252 48.8074937,13.941953 L49.830436,6.09043209 L52.7878591,6.09043209 C53.707908,6.04151295 54.3405905,5.43002379 54.6859065,4.25596459 L55.5489095,0.953923098 L52.8078832,0.953923098 L52.3333608,2.93514799 C52.2215379,3.42433933 51.9764604,3.64447542 51.5981285,3.59555629 L50.155483,3.59555629 L50.5856924,0.293514799 L47.7004015,0.293514799 L45.7501191,15.2627696 C45.7379465,16.0943948 46.1582803,16.5591266 47.0111206,16.6569649 L53.4308928,16.6569649 Z" id="路径" fill="#222222"></path>
                <path d="M67.7192816,0 L67.6523601,0.513650899 L74,0.513650899 L73.7036336,2.78839059 L71.6117977,2.78839059 L71.5257558,3.44879889 L73.6175917,3.44879889 L73.445508,4.76961549 L71.3536721,4.76961549 L71.2676302,5.43002379 L73.2873338,5.43002379 L73.1056899,6.82421908 L71.0859863,6.82421908 L70.9999444,7.48462738 L73.019648,7.48462738 L72.8380041,8.87882268 L70.962565,8.87882268 L71.2710759,9.83274578 L72.7858536,9.83274578 L72.5850893,11.3736985 L71.9358988,11.3736985 L71.5630507,14.2354678 L69.1105535,14.2354678 L69.4738414,11.4470772 L59.3031911,11.4470772 L58.930343,14.3088465 L56.4778458,14.3088465 L56.8506939,11.4470772 L56.2736357,11.4470772 L56.4839603,9.83274578 L58.0708702,9.83274578 L58.9164756,8.87882268 L56.6803752,8.87882268 L56.8620192,7.48462738 L59.3866487,7.48462738 L59.4726905,6.82421908 L57.0201933,6.82421908 L57.2018373,5.43002379 L59.6543345,5.43002379 L59.7403764,4.76961549 L57.2878791,4.76961549 L57.4599629,3.44879889 L59.9124601,3.44879889 L59.9793816,2.93514799 L57.6711489,2.93514799 L57.9866357,0.513650899 L64.2621433,0.513650899 L64.3290648,0 L67.7192816,0 Z M68.4379355,8.87882268 L61.5132374,8.87882268 L60.7397643,9.83274578 L68.7464464,9.83274578 L68.4379355,8.87882268 Z M68.633489,6.82421908 L61.8530555,6.82421908 L61.7670136,7.48462738 L68.5474472,7.48462738 L68.633489,6.82421908 Z M68.9011748,4.76961549 L62.1207413,4.76961549 L62.0346995,5.43002379 L68.815133,5.43002379 L68.9011748,4.76961549 Z M71.2650459,2.12798229 L60.3009407,2.12798229 L60.2053386,2.86176929 L62.3693067,2.86176929 L62.2928251,3.44879889 L69.0732586,3.44879889 L69.1593005,2.78839059 L71.1790041,2.78839059 L71.2650459,2.12798229 Z" id="形状结合" fill="#222222"></path>
                <path d="M60.7692641,16.8037223 C61.388037,16.8526414 61.9088965,16.7303436 62.3318428,16.4368288 L64.0525957,15.409527 L65.9914682,16.5835862 C66.171074,16.6814244 66.5253619,16.7303436 67.0543319,16.7303436 L71.8871941,16.7303436 L72.1070789,15.0426335 L68.3562008,15.0426335 C68.1157599,15.0426335 67.7918895,14.9447952 67.3845898,14.7491187 L65.5178495,13.5750595 L65.7186139,12.0341068 L62.9775875,12.0341068 L62.7481426,13.7951956 L61.0273897,14.8224974 C60.6108169,15.067093 60.2614527,15.1649313 59.979297,15.1160122 L55.8677576,15.1160122 L55.6478728,16.8037223 L60.7692641,16.8037223 Z" id="路径" fill="#222222"></path>
                <path d="M33.0642186,17.0726441 L33.2605812,17.0681845 L35.2332965,17.0681845 L35.4542008,15.2843593 L34.796629,15.2843593 C34.5530839,15.2843593 34.4435838,15.1852579 34.4681287,14.987055 L34.2598561,13.1289037 L31.9948865,13.1289037 L32.2020167,16.1762719 C32.2196638,16.820431 32.5725186,17.1177352 33.2605812,17.0681845 L33.0642186,17.0726441 Z" id="路径" fill="#222222"></path>
            </g>
        </g>
    </g>
</svg>