<?xml version="1.0" encoding="UTF-8"?>
<svg width="14px" height="14px" viewBox="0 0 14 14" version="1.1" xmlns="http://www.w3.org/2000/svg" xmlns:xlink="http://www.w3.org/1999/xlink">
    <title>icon_share_enter_unfold</title>
    <g id="icon_share_enter_unfold" stroke="none" stroke-width="1" fill="none" fill-rule="evenodd" opacity="0.400000006">
        <g id="icon/C投注单/展开" fill="#222222">
            <path d="M0.678400112,7.875 C1.05307015,7.875 1.35680022,8.17873008 1.35680022,8.55340011 L1.35680022,8.55340011 L1.35680022,12.6565157 L5.43209877,12.6556035 L5.43209877,12.6556035 L5.52851779,12.6626674 C5.84267839,12.7092001 6.08373984,12.9799979 6.08373984,13.3070988 C6.08373984,13.6669902 5.79199019,13.9587398 5.43209875,13.9587398 L5.43209875,13.9587398 L1,13.9587398 C0.44771525,13.9587398 -2.33356242e-13,13.5110246 -2.33423877e-13,12.9587398 L-2.33423877e-13,12.9587398 L-2.34502874e-13,8.55340011 C-2.34548758e-13,8.17873008 0.303730076,7.875 0.678400112,7.875 Z M12.9587398,-2.3456724e-13 C13.5110246,-2.35045147e-13 13.9587398,0.44771525 13.9587398,1 L13.9587398,1 L13.9587398,5.40533973 C13.9587398,5.78000977 13.6550098,6.08373984 13.2803397,6.08373984 C12.9056697,6.08373984 12.6019396,5.78000977 12.6019396,5.40533973 L12.6019396,5.40533973 L12.6019396,1.30222414 L8.52664107,1.30313632 L8.52664107,1.30313632 L8.43022205,1.29607246 C8.11606145,1.24953979 7.875,0.978741899 7.875,0.65164109 C7.875,0.291749653 8.16674965,-2.32531217e-13 8.52664109,-2.33481689e-13 L8.52664109,-2.33481689e-13 Z" id="形状结合"></path>
        </g>
    </g>
</svg>