<?xml version="1.0" encoding="UTF-8"?>
<svg width="28px" height="14px" viewBox="0 0 28 14" version="1.1" xmlns="http://www.w3.org/2000/svg" xmlns:xlink="http://www.w3.org/1999/xlink">
    <title>icon_share_tag_10</title>
    <defs>
        <linearGradient x1="44.9177953%" y1="36.9983363%" x2="57.9020625%" y2="63.0016637%" id="linearGradient-1">
            <stop stop-color="#FE3765" offset="0%"></stop>
            <stop stop-color="#FC624B" offset="100%"></stop>
        </linearGradient>
    </defs>
    <g id="C-直播页" stroke="none" stroke-width="1" fill="none" fill-rule="evenodd">
        <g id="2.0.2爆料-筛选" transform="translate(-240.000000, -58.000000)" fill-rule="nonzero">
            <g id="icon_share_tag_10" transform="translate(240.083195, 58.000000)">
                <path d="M20.8976357,0 L7.41597448,0 C3.76644934,0 0.729299725,2.80388103 0.438267532,6.44178344 L0.00259552215,11.8995236 L0,12 C0,13.1045695 0.8954305,14 2,14 L19.9376357,14 C23.8582338,14 27.1209714,10.9878573 27.4336204,7.07974522 C27.447536,6.90579961 27.4545022,6.7313678 27.4545022,6.55686645 C27.4545022,2.9356091 24.5188931,0 20.8976357,0 Z" id="路径" fill="url(#linearGradient-1)"></path>
                <path d="M7.98606867,6.27755841 L7.619402,5.17755841 L5.84162422,5.17755841 L5.90829089,4.73311396 L10.9749576,4.73311396 L10.8749576,5.39978063 L12.7527353,5.39978063 L12.9971798,3.71089174 L9.79717978,3.71089174 L9.88606867,3.07755841 L7.10829089,3.07755841 L7.46384645,3.47755841 L7.43051311,3.71089174 L4.16384645,3.71089174 L3.919402,5.39978063 L5.74162422,5.39978063 L6.04162422,6.27755841 L7.98606867,6.27755841 Z M5.76384645,11.0664473 L8.08606867,9.42200285 L9.53051311,11.0664473 L11.919402,11.0664473 L10.2305131,9.13311396 L8.48606867,9.13311396 L8.87495756,8.85533619 L12.2860687,8.85533619 L12.4305131,7.82200285 L9.87495756,7.82200285 L10.2416242,5.17755841 L8.16384645,5.17755841 L7.79717978,7.82200285 L3.57495756,7.82200285 L3.43051311,8.85533619 L6.24162422,8.85533619 L3.13051311,11.0664473 L5.76384645,11.0664473 Z M7.15273533,7.57755841 L6.74162422,6.47755841 L4.80829089,6.47755841 L5.219402,7.57755841 L7.15273533,7.57755841 Z M18.8749576,11.0775584 L19.1082909,9.41089174 L22.7082909,9.41089174 L22.8527353,8.35533619 L19.2527353,8.35533619 L19.3305131,7.83311396 L22.6082909,7.83311396 L23.1416242,4.01089174 L21.819402,4.01089174 L22.3416242,3.07755841 L19.7971798,3.07755841 L20.0527353,3.38866952 L19.6971798,4.01089174 L18.1527353,4.01089174 L17.8971798,3.07755841 L15.5749576,3.07755841 L15.8749576,3.43311396 L16.0305131,4.01089174 L14.4971798,4.01089174 L13.9638464,7.83311396 L17.219402,7.83311396 L17.1416242,8.35533619 L13.5638464,8.35533619 L13.419402,9.41089174 L16.9971798,9.41089174 L16.7638464,11.0775584 L18.8749576,11.0775584 Z M21.0527353,5.45533619 L19.6638464,5.45533619 L19.7305131,4.9664473 L21.119402,4.9664473 L21.0527353,5.45533619 Z M17.5527353,5.45533619 L16.1971798,5.45533619 L16.2638464,4.9664473 L17.619402,4.9664473 L17.5527353,5.45533619 Z M20.8527353,6.87755841 L19.4638464,6.87755841 L19.5305131,6.39978063 L20.919402,6.39978063 L20.8527353,6.87755841 Z M17.3527353,6.87755841 L15.9971798,6.87755841 L16.0638464,6.39978063 L17.419402,6.39978063 L17.3527353,6.87755841 Z" id="实单" fill="#FFFFFF"></path>
            </g>
        </g>
    </g>
</svg>