<?xml version="1.0" encoding="UTF-8"?>
<svg width="10px" height="10px" viewBox="0 0 10 10" version="1.1" xmlns="http://www.w3.org/2000/svg" xmlns:xlink="http://www.w3.org/1999/xlink">
    <title>icon_share_recommend_+</title>
    <g id="icon_share_recommend_+" stroke="none" stroke-width="1" fill="none" fill-rule="evenodd">
        <g id="编组" transform="translate(1.000000, 1.000000)" fill="#222222">
            <g id="icon/x" transform="translate(4.000000, 4.000000) rotate(-315.000000) translate(-4.000000, -4.000000) ">
                <path d="M6.69355028,0.604852306 C6.88969588,0.452339861 7.17331141,0.466204629 7.35355339,0.646446609 C7.54881554,0.841708755 7.54881554,1.15829124 7.35355339,1.35355339 L7.35355339,1.35355339 L4.707,4 L7.35355339,6.64644661 C7.54881554,6.84170876 7.54881554,7.15829124 7.35355339,7.35355339 C7.17331141,7.53379537 6.88969588,7.54766014 6.69355028,7.39514769 L6.64644661,7.35355339 L4,4.707 L1.35355339,7.35355339 L1.30644972,7.39514769 C1.11030412,7.54766014 0.82668859,7.53379537 0.646446609,7.35355339 C0.451184464,7.15829124 0.451184464,6.84170876 0.646446609,6.64644661 L0.646446609,6.64644661 L3.293,4 L0.646446609,1.35355339 C0.451184464,1.15829124 0.451184464,0.841708755 0.646446609,0.646446609 C0.82668859,0.466204629 1.11030412,0.452339861 1.30644972,0.604852306 L1.35355339,0.646446609 L4,3.293 L6.64644661,0.646446609 Z" id="形状结合"></path>
            </g>
        </g>
    </g>
</svg>