<?xml version="1.0" encoding="UTF-8"?>
<svg width="14px" height="14px" viewBox="0 0 14 14" version="1.1" xmlns="http://www.w3.org/2000/svg" xmlns:xlink="http://www.w3.org/1999/xlink">
    <title>icon_share_release</title>
    <g id="icon_share_release" stroke="none" stroke-width="1" fill="none" fill-rule="evenodd">
        <path d="M6.28599797,0.283121243 C6.6725973,0.283121243 6.98599797,0.596521918 6.98599797,0.983121243 C6.98599797,1.33750396 6.72265435,1.63037947 6.38098382,1.67673107 L6.28599797,1.68312124 L2.03182641,1.68312124 C1.88981033,1.68312124 1.77084223,1.78180134 1.73974963,1.914334 L1.73182641,1.98312124 L1.73182641,11.9831212 C1.73182641,12.1251373 1.83050651,12.2441054 1.96303916,12.275198 L2.03182641,12.2831212 L12.0318264,12.2831212 C12.1738425,12.2831212 12.2928106,12.1844411 12.3239032,12.0519085 L12.3318264,11.9831212 L12.3318264,8.07403973 C12.3318264,7.6874404 12.6452271,7.37403973 13.0318264,7.37403973 C13.3862091,7.37403973 13.6790846,7.63738335 13.7254362,7.97905388 L13.7318264,8.07403973 L13.7318264,11.9831212 C13.7318264,12.8725904 13.0487196,13.6025113 12.1785089,13.6768812 L12.0318264,13.6831212 L2.03182641,13.6831212 C1.14235729,13.6831212 0.41243631,13.0000144 0.338066426,12.1298038 L0.331826411,11.9831212 L0.331826411,1.98312124 C0.331826411,1.09365212 1.01493323,0.363731141 1.8851439,0.289361257 L2.03182641,0.283121243 L6.28599797,0.283121243 Z M12.2242377,1.65207202 C12.4976047,1.92543902 12.4976047,2.36865451 12.2242377,2.64202151 L8.26443973,6.60181948 C7.99107273,6.87518649 7.54785724,6.87518649 7.27449024,6.60181948 C7.00112323,6.32845248 7.00112323,5.88523699 7.27449024,5.61186999 L11.2342882,1.65207202 C11.5076552,1.37870501 11.9508707,1.37870501 12.2242377,1.65207202 Z" id="形状结合" fill="#FFFFFF" fill-rule="nonzero"></path>
    </g>
</svg>