<?xml version="1.0" encoding="UTF-8"?>
<svg width="79px" height="16px" viewBox="0 0 79 16" version="1.1" xmlns="http://www.w3.org/2000/svg" xmlns:xlink="http://www.w3.org/1999/xlink">
    <title>icon_share_recommend_title</title>
    <g id="icon_share_recommend_title" stroke="none" stroke-width="1" fill="none" fill-rule="evenodd">
        <g id="编组" transform="translate(-0.000000, 0.000000)" fill-rule="nonzero">
            <path d="M11.2591988,0.412017167 L10.764383,1.78540773 L12.5497907,1.78540773 L12.8310245,0.480686695 L15.0971189,0.480686695 L14.8158851,1.78540773 L16.6699624,1.78540773 L16.4503336,3.77682403 L14.5962563,3.77682403 L14.3463339,6.04291845 L16.2690806,6.04291845 L16.0570252,7.96566524 L14.0656089,7.96566524 L13.8459801,9.95708155 L15.8373964,9.95708155 L15.6177676,11.9484979 L13.6263513,11.9484979 L13.4142959,13.8712446 L15.3370427,13.8712446 L15.1477075,15.5879828 L8.28075469,15.5879828 L8.23531424,16 L5.96921982,16 L7.23397887,4.53218884 L6.95930076,4.53218884 L7.19407639,2.40343348 L7.60609356,2.40343348 C7.88077167,2.40343348 8.05362291,2.28898426 8.12464729,2.06008584 L8.12464729,2.06008584 L8.78709577,0.412017167 L11.2591988,0.412017167 Z M11.2991608,11.8798283 L8.68971869,11.8798283 L8.47008987,13.8712446 L11.0795319,13.8712446 L11.2991608,11.8798283 Z M11.7995145,7.96566524 L9.19007245,7.96566524 L8.97044363,9.95708155 L11.5798857,9.95708155 L11.7995145,7.96566524 Z M12.2614924,3.77682403 L9.72071983,3.77682403 L9.47079738,6.04291845 L12.0115699,6.04291845 L12.2614924,3.77682403 Z" id="形状结合" fill="#222222"></path>
            <path d="M2.81799495,15.9313305 C3.9523892,16.0228898 4.56738162,15.4277539 4.66297221,14.1459227 L5.48090022,6.72961373 L6.30493455,6.72961373 L6.54728359,4.53218884 L5.72324926,4.53218884 L5.82170355,3.63948498 L6.85174647,3.63948498 L7.07137529,1.64806867 L6.04133237,1.64806867 L6.17765371,0.412017167 L3.7055507,0.412017167 L3.56165596,1.7167382 L1.15822248,1.7167382 L0.931020259,3.77682403 L3.47179279,3.77682403 L3.30517783,5.28755365 L1.0507277,10.1630901 C0.812070636,10.6666667 0.578292891,10.9184549 0.349394465,10.9184549 L0.212055409,10.9184549 L0,12.8412017 L0.892703863,12.8412017 C1.44710902,12.795422 1.85895657,12.5894134 2.1282465,12.223176 L2.55490163,11.4678112 L2.30497918,13.7339056 C2.31036736,14.1001431 2.13246718,14.260372 1.77127863,14.2145923 L0.329218546,14.2145923 L0.139883359,15.9313305 L2.81799495,15.9313305 Z" id="路径" fill="#222222"></path>
            <polygon id="路径" fill="#222222" points="33.9832745 2.9527897 34.2104768 0.892703863 33.1117643 0.892703863 33.4010804 0.137339056 30.3109516 0.137339056 30.0903051 0.892703863 22.8800047 0.892703863 22.688634 0.137339056 19.7358443 0.137339056 19.7898759 0.892703863 18.5538244 0.892703863 18.3266222 2.9527897"></polygon>
            <path d="M20.4201143,15.7253219 L21.2077487,8.58369099 L22.5255811,5.97424893 L33.5813751,5.97424893 L33.8010039,3.98283262 L23.5005747,3.98283262 L23.8358401,3.43347639 L20.8143809,3.43347639 L20.4791155,3.98283262 L18.1443515,3.98283262 L17.9247227,5.97424893 L19.6414609,5.97424893 L18.8871138,7.21030043 C18.8312363,7.3018598 18.805822,7.32474964 18.8108709,7.27896996 C18.6482872,7.50786838 18.4754359,7.6223176 18.2923172,7.6223176 L17.7429609,7.6223176 L17.5157587,9.68240343 L18.3397931,9.68240343 L17.6733332,15.7253219 L20.4201143,15.7253219 Z" id="路径" fill="#222222"></path>
            <path d="M29.6829272,15.7939914 C30.5934719,15.8397711 31.0839173,15.3361946 31.1542632,14.2832618 L31.373892,12.2918455 L32.8846216,12.2918455 L33.096677,10.3690987 L31.5859474,10.3690987 L31.6010942,10.2317597 L33.2935856,8.58369099 L33.4753474,6.93562232 L22.625562,6.93562232 L22.4135066,8.8583691 L30.1731632,8.8583691 L28.7704967,10.3690987 L22.1782221,10.3690987 L21.9661667,12.2918455 L28.6957804,12.2918455 L28.5367388,13.7339056 C28.5522249,14.0085837 28.4226289,14.1459227 28.1479508,14.1459227 L25.8818563,14.1459227 L25.7000946,15.7939914 L29.6829272,15.7939914 Z" id="路径" fill="#222222"></path>
            <path d="M47.4876954,12.3724177 L47.6409967,12.360515 L50.3191083,12.360515 L50.5463105,10.3004292 L49.1729199,10.3004292 C48.9440215,10.3004292 48.7989394,10.1630901 48.7376737,9.88841202 L47.5278449,4.6695279 L46.0857848,4.6695279 L46.3751009,3.91416309 L51.3193069,3.91416309 L51.5843762,1.51072961 L47.0521873,1.51072961 L47.5470031,0.137339056 L44.9375611,0.137339056 L44.4427453,1.51072961 L40.4599127,1.51072961 L40.1948434,3.91416309 L43.6969893,3.91416309 L41.0926359,10.0944206 C41.0266604,10.2775393 40.8563337,10.3690987 40.5816555,10.3690987 L39.4142736,10.3690987 L39.1946448,12.360515 L41.5294087,12.360515 C42.4857332,12.4062947 43.1212606,12.0400572 43.4359909,11.2618026 L45.3167998,6.66094421 L46.259015,11.193133 C46.3919836,12.0629471 46.8526442,12.4520744 47.6409967,12.360515 L47.4876954,12.3724177 Z" id="路径" fill="#F9544E"></path>
            <polygon id="路径" fill="#222222" points="39.5227861 3.15879828 39.8408692 0.274678112 36.7507404 0.274678112 36.4326573 3.15879828"></polygon>
            <path d="M35.2603057,15.6566524 C36.2674588,15.6566524 37.0302274,15.3819742 37.5486115,14.832618 C37.5655544,14.8173581 37.5796735,14.8046416 37.5909687,14.7944683 L37.6248545,14.7639485 C37.6706341,14.7639485 37.7571446,14.8097282 37.8843858,14.9012876 C38.5155427,15.4048641 39.2202485,15.6566524 39.9985032,15.6566524 L52.0481976,15.7939914 L52.2829732,13.6652361 L40.6301492,13.6652361 C39.4957549,13.5736767 38.7629407,13.1616595 38.4317065,12.4291845 L39.2420611,5.08154506 L35.4652371,5.08154506 L35.2153147,7.34763948 L36.3826966,7.34763948 L35.7541038,13.0472103 C35.7086634,13.4592275 35.5028244,13.6652361 35.1365869,13.6652361 L34.5185612,13.6652361 L34.2989324,15.6566524 L35.2603057,15.6566524 Z" id="路径" fill="#222222"></path>
            <path d="M51.8461023,15.81776 C52.5658214,15.8168298 53.041684,15.482451 53.2787587,14.9708873 L58.4669053,5.08154506 L59.1486508,5.15021459 L60.6978158,14.7639485 C60.6883964,15.6795422 61.1261672,16.0686695 62.011128,15.9313305 L65.2385958,15.9313305 L65.465798,13.8712446 L63.8863989,13.8712446 C63.4693328,13.9170243 63.2427892,13.6881259 63.2067682,13.1845494 L61.7797954,3.70815451 L59.1486508,3.70815451 L60.8153688,0 L57.7252401,0 L51.0798072,13.1168101 C50.9020767,13.4830476 50.6529825,13.6661663 50.3325247,13.6661663 L49.0278037,13.6661663 L48.8054951,15.750717 L51.8461023,15.81776 Z" id="路径" fill="#222222"></path>
        </g>
    </g>
</svg>