<?xml version="1.0" encoding="UTF-8"?>
<svg width="12px" height="12px" viewBox="0 0 12 12" version="1.1" xmlns="http://www.w3.org/2000/svg" xmlns:xlink="http://www.w3.org/1999/xlink">
    <title>img_share_details_note</title>
    <g id="img_share_details_note" stroke="none" stroke-width="1" fill="none" fill-rule="evenodd">
        <g id="icon/提示" fill="#FF4000">
            <path d="M6,4.70035791 C5.77926349,4.70083159 5.60057266,4.87990723 5.60057266,5.10064424 L5.60057266,8.69978525 C5.61047702,8.91342002 5.78656527,9.08153376 6.0004295,9.08153376 C6.21429373,9.08153376 6.39038198,8.91342002 6.40028633,8.69978525 L6.40028633,5.10064424 C6.40028633,4.9944817 6.35811344,4.89266731 6.28304519,4.81759906 C6.20797693,4.74253081 6.10616254,4.70035791 6,4.70035791 Z M6,0 C2.6862915,0 0,2.6862915 0,6 C0,9.3137085 2.6862915,12 6,12 C9.3137085,12 12,9.3137085 12,6 C12,2.6862915 9.3137085,0 6,0 L6,0 Z M6,11.2011453 C3.12772396,11.2011453 0.79928418,8.87270553 0.79928418,6.00042949 C0.79928418,3.12815346 3.12772396,0.799713672 6,0.799713672 C8.87203883,0.799713672 11.2002863,3.12796117 11.2002863,6 C11.2002863,8.87203883 8.87203883,11.2002863 6,11.2002863 L6,11.2011453 Z M6,2.89992842 C5.72389716,2.89992842 5.50007158,3.123754 5.50007158,3.39985684 C5.50007158,3.67595968 5.72389716,3.89978526 6,3.89978526 C6.27610284,3.89978526 6.49992842,3.67595968 6.49992842,3.39985684 C6.49992842,3.123754 6.27610284,2.89992842 6,2.89992842 L6,2.89992842 Z" id="形状"></path>
        </g>
    </g>
</svg>