<?xml version="1.0" encoding="UTF-8"?>
<svg width="32px" height="40px" viewBox="0 0 32 40" version="1.1" xmlns="http://www.w3.org/2000/svg" xmlns:xlink="http://www.w3.org/1999/xlink">
    <title>icon_share_match_tag</title>
    <defs>
        <linearGradient x1="25.8040158%" y1="2.50380243%" x2="61.3677268%" y2="84.6100779%" id="linearGradient-1">
            <stop stop-color="#FEB911" offset="0%"></stop>
            <stop stop-color="#FF8570" offset="47.7787397%"></stop>
            <stop stop-color="#FD5B59" offset="100%"></stop>
        </linearGradient>
        <path d="M4.5,0.5 L20.5,0.5 C22.709139,0.5 24.5,2.290861 24.5,4.5 L24.5,23.2038173 C24.5,24.6257882 23.7450894,25.9408587 22.517171,26.6579483 L14.5283635,31.3233158 C13.2832673,32.050437 11.743198,32.0511884 10.4973929,31.3252825 L2.48620045,26.6573196 C1.25637874,25.9407269 0.5,24.6245864 0.5,23.2012219 L0.5,4.5 C0.5,2.290861 2.290861,0.5 4.5,0.5 Z" id="path-2"></path>
        <filter x="-41.7%" y="-25.0%" width="183.3%" height="160.5%" filterUnits="objectBoundingBox" id="filter-3">
            <feOffset dx="0" dy="2" in="SourceAlpha" result="shadowOffsetOuter1"></feOffset>
            <feGaussianBlur stdDeviation="3" in="shadowOffsetOuter1" result="shadowBlurOuter1"></feGaussianBlur>
            <feColorMatrix values="0 0 0 0 0.897268986   0 0 0 0 0   0 0 0 0 0  0 0 0 0.197098312 0" type="matrix" in="shadowBlurOuter1"></feColorMatrix>
        </filter>
        <linearGradient x1="50%" y1="0%" x2="50%" y2="100%" id="linearGradient-4">
            <stop stop-color="#FEE4C8" offset="0%"></stop>
            <stop stop-color="#FFFFFF" offset="100%"></stop>
        </linearGradient>
        <linearGradient x1="7.53964283%" y1="41.6264598%" x2="96.1142514%" y2="56.0165645%" id="linearGradient-5">
            <stop stop-color="#F0933B" offset="0%"></stop>
            <stop stop-color="#F57A75" offset="54.2635385%"></stop>
            <stop stop-color="#F77B6C" offset="100%"></stop>
        </linearGradient>
    </defs>
    <g id="icon_share_match_tag" stroke="none" stroke-width="1" fill="none" fill-rule="evenodd">
        <g id="编组" transform="translate(3.500000, 0.500000)">
            <g id="矩形">
                <use fill="black" fill-opacity="1" filter="url(#filter-3)" xlink:href="#path-2"></use>
                <use fill="url(#linearGradient-1)" fill-rule="evenodd" xlink:href="#path-2"></use>
            </g>
            <path d="M20.5,0 L4.5,0 C2.01471863,0 0,2.01471863 0,4.5 L0,23.2012219 C0,24.802507 0.850926086,26.283165 2.2344755,27.0893318 L10.245668,31.7572947 C11.6471987,32.5739388 13.3797767,32.5730935 14.7805099,31.7550822 L22.7693174,27.0897147 C24.1507256,26.2829889 25,24.8035345 25,23.2038173 L25,4.5 C25,2.01471863 22.9852814,0 20.5,0 Z M20.5,0.5 C22.709139,0.5 24.5,2.290861 24.5,4.5 L24.5,23.2038173 C24.5,24.6257882 23.7450894,25.9408587 22.517171,26.6579483 L14.5283635,31.3233158 C13.2832673,32.050437 11.743198,32.0511884 10.4973929,31.3252825 L2.48620045,26.6573196 C1.25637874,25.9407269 0.5,24.6245864 0.5,23.2012219 L0.5,4.5 C0.5,2.290861 2.290861,0.5 4.5,0.5 L20.5,0.5 Z" id="矩形" fill="url(#linearGradient-4)" fill-rule="nonzero"></path>
            <path d="M18.0909524,3.40000661 C18.65131,3.4064475 19.1174461,3.54031477 19.4905738,3.79764443 C19.859303,4.05094538 20.1249337,4.34009879 20.289619,4.66327596 C20.4090308,4.83677746 20.4929036,5.06280644 20.5386218,5.3436862 C20.5791727,5.61194625 20.6,6.14218645 20.5999992,6.93493721 C20.5964804,7.80055463 20.5758279,8.26425233 20.5385031,8.51687025 C20.4929304,8.80332719 20.408849,9.03266169 20.2893262,9.20626972 C20.1244351,9.52964155 19.858579,9.815752 19.4907246,10.0620432 C19.117747,10.3192691 18.6519813,10.4561642 18.0874781,10.4690344 C17.5336846,10.4561555 17.072448,10.3192001 16.7045849,10.063255 C16.3270924,9.81481975 16.0539647,9.52684191 15.8830619,9.20115914 C15.5987547,8.24576464 15.574971,7.71692081 15.574971,6.93453071 C15.574971,6.14105129 15.5991279,5.61008732 15.6461829,5.34034189 C15.6983239,5.06008434 15.7792461,4.83412372 15.8830619,4.66790228 C16.0537609,4.34260779 16.3265662,4.05177138 16.7024532,3.797979 C17.072753,3.54037913 17.5343646,3.40645183 18.0909524,3.40000661 Z M18.0872722,4.62430169 C17.8683984,4.63004363 17.6756333,4.67347711 17.5146992,4.75681798 C17.3527108,4.84207751 17.2211051,4.94862579 17.1212295,5.07703717 C16.9948521,5.21564375 16.915773,5.38672313 16.8763567,5.59506657 C16.8273515,5.83402527 16.8039397,6.28010509 16.8039397,6.93453071 C16.8039397,7.58862897 16.8272698,8.03146016 16.8759546,8.26271297 C16.9158757,8.47925021 16.9947813,8.65334022 17.1160749,8.78591696 C17.2204781,8.91962948 17.3512542,9.02265957 17.5128042,9.10201745 C17.6783781,9.19925366 17.8687531,9.24472769 18.089803,9.24472769 C18.3146764,9.24472769 18.5100824,9.19888511 19.0520362,8.79428194 C19.180765,8.65271149 19.2630007,8.47782012 19.3082864,8.26271297 C19.3537932,8.0321038 19.3756589,7.58812998 19.3750917,6.75866084 C19.3713229,6.19913051 19.3494277,5.81109448 19.3079407,5.59536214 C19.2631229,5.38820451 19.1807181,5.21629865 19.0588962,5.08314445 C18.9583237,4.94698974 18.8330202,4.840958 18.676912,4.7558081 C18.5127708,4.67380874 18.3149937,4.63006679 18.0872722,4.62430169 Z M7.11970192,3.45562426 C7.81653119,3.46210639 8.33678385,3.64215863 8.6859278,3.98483696 C9.04106128,4.33345423 9.22108922,4.79372955 9.22106454,5.36568099 C9.22763367,5.66129196 9.15728081,5.94385299 9.00945117,6.21323144 C8.68674576,6.55453163 8.50922815,6.70630309 8.36421151,6.80070196 C8.65380153,6.92644253 8.87988785,7.11120061 9.04508069,7.36590694 C9.23033464,7.68116366 9.3230591,8.02402817 9.3230535,8.39561202 C9.3165448,9.01068429 9.12188043,9.49553502 8.74684046,9.85112783 C8.41418394,10.1837843 8.00846197,10.3693487 7.52910012,10.4064784 L7.34588644,10.4134415 L4.4,10.4134415 L4.4,3.45561977 L7.11970192,3.45562426 Z M7.09860595,7.41458701 L5.62433372,7.41460023 L5.62433372,9.24472769 L7.10023175,9.24472769 L7.24169721,9.23726448 C7.51393593,9.21211984 7.72170676,9.12520636 7.85934474,8.96825077 C8.01935677,8.78858368 8.09872538,8.57581496 8.09872538,8.32966396 C8.09872538,8.07766122 8.01957271,7.86171671 7.85985419,7.68238363 C7.69958165,7.50524487 7.44322213,7.42019053 7.09860595,7.41458701 L7.09860595,7.41458701 Z M7.0012442,4.56870013 L5.62433372,4.56871379 L5.62433372,6.30150637 L7.00289687,6.30150637 L7.14246788,6.29645182 C7.411094,6.27615589 7.61637291,6.19427284 7.75377226,6.04241041 C7.91770791,5.87829831 7.9967555,5.67595407 7.9967555,5.43279258 C7.9967555,5.188197 7.91679365,4.98076777 7.75545557,4.81108461 C7.59585051,4.65152448 7.34166433,4.57432691 7.0012442,4.56870013 L7.0012442,4.56870013 Z M12.9686604,3.45561993 L15.4979097,10.4134415 L14.2040282,10.4134415 L13.6802739,8.90243337 L11.2596779,8.90243337 L10.7405585,10.4134415 L9.44183538,10.4134415 L11.9710846,3.45561993 L12.9686604,3.45561993 Z M12.4638106,5.25682158 L11.6234035,7.79397451 L13.3201495,7.79397451 L12.4638106,5.25682158 Z" id="BAO" stroke-opacity="0.154430043" stroke="#FFFFFF" stroke-width="0.2" fill="url(#linearGradient-5)" fill-rule="nonzero" opacity="0.800000012"></path>
        </g>
    </g>
</svg>