<?xml version="1.0" encoding="UTF-8"?>
<svg width="12px" height="12px" viewBox="0 0 12 12" version="1.1" xmlns="http://www.w3.org/2000/svg" xmlns:xlink="http://www.w3.org/1999/xlink">
    <title>icon_share_refresh</title>
    <g id="icon_share_refresh" stroke="none" stroke-width="1" fill="none" fill-rule="evenodd" opacity="0.699999988">
        <g id="编组" fill="#222222" fill-rule="nonzero">
            <g id="icon/刷新">
                <path d="M10.124052,1.88954522 C11.0915179,2.97531729 11.6275259,4.38210863 11.6275259,5.83700544 C11.6275259,9.03491559 9.10515098,11.6405589 6.00505188,11.6405589 C5.58276735,11.6405589 5.30173216,11.2161544 5.42921998,10.8198587 L5.45797657,10.7459931 L5.49639908,10.6762022 L7.10971361,8.14563606 C7.29402028,7.85654166 7.67299187,7.77595395 7.95433689,7.96735805 C8.1825205,8.12259548 8.27752115,8.411306 8.19585824,8.6774153 L8.16601597,8.75641397 L8.12701922,8.82782781 L7.24551375,10.2089278 L7.39367919,10.1620136 C9.05842816,9.58914258 10.2611034,8.02544126 10.3988636,6.18998032 L10.4088506,6.01153084 L10.4120705,5.83700544 C10.4120705,4.69368544 9.98977519,3.58674018 9.22678688,2.73045022 C9.00158929,2.47771446 9.01730286,2.08582042 9.26222007,1.85294322 C9.50965571,1.61767139 9.89655217,1.63422571 10.124052,1.88954522 Z M6,0.390558906 C6.42228453,0.390558906 6.70331972,0.81496337 6.57583191,1.21125912 L6.54707531,1.2851247 L6.5086528,1.35491566 L4.89533827,3.88548175 C4.7110316,4.17457615 4.33206001,4.25516386 4.05071499,4.06375976 C3.82253139,3.90852234 3.72753073,3.61981181 3.80919364,3.35370252 L3.83903591,3.27470384 L3.87803266,3.20329 L4.75885216,1.82150403 L4.61137269,1.86910424 C2.94662372,2.44197523 1.74394851,4.00567656 1.60618831,5.8411375 L1.59620131,6.01958698 L1.59298135,6.19411237 C1.59298135,7.33743237 2.0152767,8.44437763 2.778265,9.30066759 C3.00346259,9.55340336 2.98774903,9.94529739 2.74283181,10.1781746 C2.49539617,10.4134464 2.10849971,10.3968921 1.88099991,10.1415726 C0.913533947,9.05580052 0.37752594,7.64900918 0.37752594,6.19411237 C0.37752594,2.99620222 2.8999009,0.390558906 6,0.390558906 Z" id="形状结合"></path>
            </g>
        </g>
    </g>
</svg>