<?xml version="1.0" encoding="UTF-8"?>
<svg width="14px" height="14px" viewBox="0 0 14 14" version="1.1" xmlns="http://www.w3.org/2000/svg" xmlns:xlink="http://www.w3.org/1999/xlink">
    <title>icon_share_enter_put_way</title>
    <g id="icon_share_enter_put_way" stroke="none" stroke-width="1" fill="none" fill-rule="evenodd" opacity="0.400000006">
        <g id="icon/C投注单/展开" fill="#222222">
            <path d="M13.9587398,0.65164109 C13.9587398,1.01145198 13.6670555,1.30313634 13.3072446,1.30313634 C13.307196,1.30313634 13.3071474,1.30313633 13.3070988,1.30313632 L9.23180022,1.30222414 L9.23180022,1.30222414 L9.23180022,5.40533973 C9.23180022,5.78000977 8.92807015,6.08373984 8.55340011,6.08373984 C8.17873008,6.08373984 7.875,5.78000977 7.875,5.40533973 L7.875,1 C7.875,0.44771525 8.32271525,-2.32656804e-13 8.875,-2.32758257e-13 L13.3070988,-2.32758257e-13 C13.6669902,-2.33641782e-13 13.9587398,0.291749653 13.9587398,0.65164109 Z" id="路径备份-3" transform="translate(10.916870, 3.041870) scale(1, -1) rotate(-360.000000) translate(-10.916870, -3.041870) "></path>
            <path d="M6.08373984,8.52664109 C6.08373984,8.88645198 5.79205549,9.17813634 5.4322446,9.17813634 C5.43219599,9.17813634 5.43214738,9.17813633 5.43209877,9.17813632 L1.35680022,9.17722414 L1.35680022,9.17722414 L1.35680022,13.2803397 C1.35680022,13.6550098 1.05307015,13.9587398 0.678400112,13.9587398 C0.303730076,13.9587398 -1.02752104e-12,13.6550098 -1.02856612e-12,13.2803397 L-1.02856612e-12,8.875 C-1.02863376e-12,8.32271525 0.44771525,7.875 1,7.875 L5.43209875,7.875 C5.79199019,7.875 6.08373984,8.16674965 6.08373984,8.52664109 Z" id="路径备份-3" transform="translate(3.041870, 10.916870) scale(-1, 1) rotate(-360.000000) translate(-3.041870, -10.916870) "></path>
        </g>
    </g>
</svg>