<?xml version="1.0" encoding="UTF-8"?>
<svg width="42px" height="42px" viewBox="0 0 42 42" version="1.1" xmlns="http://www.w3.org/2000/svg" xmlns:xlink="http://www.w3.org/1999/xlink">
    <title>img_share_black</title>
    <g id="img_share_black" stroke="none" stroke-width="1" fill="none" fill-rule="evenodd">
        <g id="印章备份" transform="translate(21.045484, 20.952286) rotate(-360.000000) translate(-21.045484, -20.952286) translate(0.090968, 0.000000)" fill="#7DACFF" fill-rule="nonzero">
            <path d="M20.9547617,0 C32.5092665,0 41.9095234,9.39923381 41.9090323,20.9523061 C41.9090323,32.5053784 32.5093483,41.9045712 20.9547617,41.9045712 C9.40017514,41.9045712 0,32.5053784 0,20.9523061 C0,9.39923381 9.40017514,0 20.9547617,0 Z M20.9547617,1.39099509 C10.1675614,1.39099509 1.39152715,10.1665383 1.39152715,20.9522652 C1.39152715,31.7379921 10.1675614,40.5135352 20.9547617,40.5135352 C31.741962,40.5135352 40.5179963,31.7379921 40.5179963,20.9522652 C40.5179963,10.1660471 31.741962,1.39099509 20.9547617,1.39099509 Z M20.9547617,3.38267971 C30.6438425,3.38267971 38.5263117,11.2642076 38.5263117,20.9523061 C38.5263117,30.6404046 30.6438425,38.5218915 20.9547617,38.5218915 C11.265681,38.5218915 3.38321176,30.6404046 3.38321176,20.9523061 C3.38321176,11.2642076 11.2656401,3.38267971 20.9547617,3.38267971 Z M20.9552529,4.1775282 C11.7042167,4.1775282 4.17846953,11.7027433 4.17846953,20.9523061 C4.17846953,30.201828 11.7042167,37.727084 20.9552529,37.7265928 C26.7612362,37.7265928 31.8876631,34.7614941 34.9006468,30.2666977 L34.9006468,30.2666977 L33.9262504,30.1893451 L33.1404468,30.8235132 L32.9548416,29.8700715 L32.1356005,29.3546744 L33.0052231,28.8437384 L33.2846336,27.891279 L34.0075728,28.5289668 L34.9999363,28.4561162 L34.5778534,29.3611409 L34.9076453,30.2572025 C36.7525131,27.504995 37.7357814,24.2656382 37.7320468,20.9523061 C37.7320468,11.7027433 30.2057979,4.1775282 20.9552529,4.1775282 Z M20.4448898,34.1668208 L21.3389869,34.6342921 L22.2894409,34.3639266 L22.1392378,35.3183505 L22.7309643,36.1230624 L21.7435939,36.2458443 L21.158866,37.0136807 L20.6988435,36.134563 L19.745893,35.8047711 L20.4489007,35.1382296 L20.4448898,34.1668208 Z M28.4251343,32.6530439 L28.661612,33.590524 L29.5202661,34.0949526 L28.661612,34.5998314 L28.4251343,35.5373114 L27.6577889,34.9116562 L26.6529426,34.9860211 L27.0376589,34.0944205 L26.6529426,33.203352 L27.6577889,33.278208 L28.4251343,32.6530439 Z M14.1693479,32.5472879 L14.8788222,33.2647429 L15.8661925,33.2961751 L15.43265,34.1602725 L15.7509413,35.1062654 L14.7730661,34.9231158 L13.9822694,35.4764525 L13.8121347,34.4990684 L13.0048853,33.8949001 L13.8774956,33.4737585 L14.1693479,32.5472879 Z M31.3237482,15.9904067 L31.6405427,17.1726999 L30.1687545,18.4491197 L32.8796648,23.002642 L31.5873857,23.3483956 C30.4784464,28.2942178 26.0625006,31.8482911 20.9552938,31.8482911 C18.4367566,31.8469182 15.9961645,30.9747452 14.04718,29.3795991 L14.04718,29.3795991 L14.4882532,28.8417739 C16.3048101,30.3320585 18.6008298,31.152773 20.9547617,31.152773 C25.8461843,31.152773 30.0600968,27.6713358 30.9751487,22.8746599 L30.9751487,22.8746599 L31.129,22.903 L27.2908144,16.4250157 L28.7397032,16.0367871 L29.5994522,17.4835655 L31.3237482,15.9904067 Z M18.4739769,17.9302715 L18.7535014,18.9734714 L14.8472974,20.0201356 L15.2137852,21.3878866 L19.5952247,20.2138834 L19.8747493,21.2570833 L15.4817186,22.4341923 L15.8326772,23.7439877 L19.599788,22.7345935 L19.8762067,23.7662022 L16.109096,24.7755965 L16.5004304,26.2360764 L20.997781,25.0310149 L21.2866231,26.1089881 L15.3056104,27.7115957 L12.4681655,27.2295553 L12.3931359,28.4795675 L10.9094739,28.8771136 L11.1692763,24.4220698 L12.6529383,24.0245238 L12.5431952,25.9795431 L15.0219248,26.4210444 L14.0560121,22.8162092 L9.58184367,24.0150591 L9.3023191,22.9718592 L13.7996697,21.7667977 L13.433182,20.3990467 L9.55016016,21.4394993 L9.27063559,20.3962994 L13.1536574,19.3558468 L12.9020853,18.4169669 L14.3162007,18.0380558 L14.5677728,18.9769357 L18.4739769,17.9302715 Z M24.0517383,17.5041199 L24.3436862,18.5936842 L24.3370168,25.2916376 L22.8881281,25.6798662 L22.8939652,18.9324425 L21.074161,19.4200576 L20.7946364,18.3768577 L24.0517383,17.5041199 Z M26.071518,14.8882281 L28.5561808,24.161116 L25.4497634,24.993478 L25.1702388,23.9502782 L26.8625408,23.4968272 L24.6574026,15.2671391 L26.071518,14.8882281 Z M20.9548027,10.0562802 C23.4731572,10.0577758 25.9135413,10.9299416 27.8623843,12.5249721 L27.8623843,12.5249721 L27.4213112,13.0627974 C25.6047543,11.5725127 23.3082025,10.7517982 20.9548027,10.7517982 C16.0638712,10.7517982 11.8494676,14.2332354 10.9349068,19.0299113 L10.9349068,19.0299113 L10.2514214,18.8996808 C11.2288055,13.7752593 15.7300684,10.0562802 20.9548027,10.0562802 Z M10.4858528,11.4203861 L10.6051149,12.3872928 L11.3923918,12.9600699 L10.4813508,13.4095741 L10.1326095,14.342061 L9.45059754,13.6530504 L8.44722461,13.6565702 L8.93671475,12.7809313 L8.66626735,11.8504907 L9.65065003,11.9986475 L10.4858528,11.4203861 Z M13.6889437,7.14111268 L14.4622644,7.76828215 L15.4755827,7.69342617 L15.0879196,8.58703216 L15.4756236,9.48006517 L14.4622644,9.40525012 L13.6889437,10.0323787 L13.4504605,9.09240208 L12.5843167,8.58650011 L13.4504605,8.08059814 L13.6889437,7.14111268 Z M28.6780648,6.74947964 L28.8522103,7.72985144 L29.6669495,8.33700748 L28.7883638,8.75814907 L28.4959794,9.68711622 L27.7795066,8.96667351 L26.7846875,8.93376798 L27.2197444,8.06713306 L26.8969101,7.11766135 L27.882807,7.30326652 L28.6780648,6.74947964 Z M21.0226191,5.17934589 L21.4860795,6.06046907 L22.4470518,6.39124325 L21.7380687,7.05929906 L21.7420387,8.03320436 L20.8404928,7.56470991 L19.8825901,7.83613956 L20.0342256,6.87868703 L19.4380381,6.07241983 L20.4333892,5.94869669 L21.0226191,5.17934589 Z" id="形状结合"></path>
        </g>
    </g>
</svg>