<?xml version="1.0" encoding="UTF-8"?>
<svg width="60px" height="40px" viewBox="0 0 60 40" version="1.1" xmlns="http://www.w3.org/2000/svg" xmlns:xlink="http://www.w3.org/1999/xlink">
    <title>img_picture_empty</title>
    <g id="img_picture_empty" stroke="none" stroke-width="1" fill="none" fill-rule="evenodd">
        <path d="M44.3173184,-1.84741111e-13 C46.9598883,-1.84741111e-13 49.1083799,2.10642202 49.1083799,4.69724771 C49.1083799,7.28807339 46.9598883,9.39449541 44.3173184,9.39449541 C41.6747486,9.39449541 39.526257,7.28807339 39.526257,4.69724771 C39.526257,2.10642202 41.6747486,-1.84741111e-13 44.3173184,-1.84741111e-13 Z M59.843352,23.6917431 C59.7984358,23.6697248 54.7678212,21.3211009 49.812067,22.5541284 C47.6635754,23.0825688 45.784581,24.3082569 44.22,26.1798165 C43.2917318,27.2954128 42.7227933,28.359633 42.4532961,28.946789 C45.5150838,33.746789 46.3310615,37.9009174 46.5107263,39.0825688 L46.6454749,40 L43.0147486,40 L42.9548603,39.5963303 C42.6329609,37.4678899 41.4801117,33.959633 39.2043575,30.4954128 C36.3746369,26.1944954 32.5417877,22.9137615 27.8031285,20.7559633 C21.9565363,18.0844037 15.7281564,17.8788991 9.30513966,20.1394495 C4.40927374,21.8642202 1.2277095,24.4477064 1.19776536,24.4697248 L-3.90798505e-14,25.4458716 L-3.90798505e-14,20.9394495 C1.4522905,19.9266055 4.24458101,18.1944954 7.95765363,16.866055 C11.176648,15.7137615 14.4330726,15.1119266 17.637095,15.0678899 C21.657095,15.0165138 25.5872626,15.853211 29.3153073,17.5559633 C32.167486,18.8550459 34.7726257,20.5504587 37.0558659,22.5908257 C38.1488268,23.5669725 39.1744134,24.6311927 40.1176536,25.7614679 C40.4021229,25.3137615 40.7389944,24.8146789 41.1432402,24.3009174 C42.5880447,22.466055 45.118324,20.0733945 48.9212291,19.133945 C53.3529609,18.0330275 57.627486,19.1192661 59.8358659,19.8899083 L59.8358659,23.6917431 L59.843352,23.6917431 Z" id="形状" fill="#E8EAF1" fill-rule="nonzero"></path>
    </g>
</svg>