<?xml version="1.0" encoding="UTF-8"?>
<svg width="42px" height="42px" viewBox="0 0 42 42" version="1.1" xmlns="http://www.w3.org/2000/svg" xmlns:xlink="http://www.w3.org/1999/xlink">
    <title>img_share_blue</title>
    <g id="img_share_blue" stroke="none" stroke-width="1" fill="none" fill-rule="evenodd">
        <g id="印章备份-2" transform="translate(0.090968, -0.000000)" fill="#CCCCCC" fill-rule="nonzero">
            <path d="M20.9547617,0 C32.5092665,0 41.9095234,9.39923381 41.9090323,20.9523061 C41.9090323,32.5053784 32.5093483,41.9045712 20.9547617,41.9045712 C9.40017514,41.9045712 0,32.5053784 0,20.9523061 C0,9.39923381 9.40017514,0 20.9547617,0 Z M20.9547617,1.39099509 C10.1675614,1.39099509 1.39152715,10.1665383 1.39152715,20.9522652 C1.39152715,31.7379921 10.1675614,40.5135352 20.9547617,40.5135352 C31.741962,40.5135352 40.5179963,31.7379921 40.5179963,20.9522652 C40.5179963,10.1660471 31.741962,1.39099509 20.9547617,1.39099509 Z M20.9547617,3.38267971 C30.6438425,3.38267971 38.5263117,11.2642076 38.5263117,20.9523061 C38.5263117,30.6404046 30.6438425,38.5218915 20.9547617,38.5218915 C11.265681,38.5218915 3.38321176,30.6404046 3.38321176,20.9523061 C3.38321176,11.2642076 11.2656401,3.38267971 20.9547617,3.38267971 Z M20.9552529,4.1775282 C11.7042167,4.1775282 4.17846953,11.7027433 4.17846953,20.9523061 C4.17846953,30.201828 11.7042167,37.727084 20.9552529,37.7265928 C26.7612362,37.7265928 31.8876631,34.7614941 34.9006468,30.2666977 L34.9006468,30.2666977 L33.9262504,30.1893451 L33.1404468,30.8235132 L32.9548416,29.8700715 L32.1356005,29.3546744 L33.0052231,28.8437384 L33.2846336,27.891279 L34.0075728,28.5289668 L34.9999363,28.4561162 L34.5778534,29.3611409 L34.9076453,30.2572025 C36.7525131,27.504995 37.7357814,24.2656382 37.7320468,20.9523061 C37.7320468,11.7027433 30.2057979,4.1775282 20.9552529,4.1775282 Z M20.4448898,34.1668208 L21.3389869,34.6342921 L22.2894409,34.3639266 L22.1392378,35.3183505 L22.7309643,36.1230624 L21.7435939,36.2458443 L21.158866,37.0136807 L20.6988435,36.134563 L19.745893,35.8047711 L20.4489007,35.1382296 L20.4448898,34.1668208 Z M28.4251343,32.6530439 L28.661612,33.590524 L29.5202661,34.0949526 L28.661612,34.5998314 L28.4251343,35.5373114 L27.6577889,34.9116562 L26.6529426,34.9860211 L27.0376589,34.0944205 L26.6529426,33.203352 L27.6577889,33.278208 L28.4251343,32.6530439 Z M14.1693479,32.5472879 L14.8788222,33.2647429 L15.8661925,33.2961751 L15.43265,34.1602725 L15.7509413,35.1062654 L14.7730661,34.9231158 L13.9822694,35.4764525 L13.8121347,34.4990684 L13.0048853,33.8949001 L13.8774956,33.4737585 L14.1693479,32.5472879 Z M30.9751487,22.8746599 L31.6586341,23.0048905 C30.68125,28.1288209 26.1799871,31.8482911 20.9552938,31.8482911 C18.4367566,31.8469182 15.9961645,30.9747452 14.04718,29.3795991 L14.04718,29.3795991 L14.4882532,28.8417739 C16.3048101,30.3320585 18.6008298,31.152773 20.9547617,31.152773 C25.8461843,31.152773 30.0600968,27.6713358 30.9751487,22.8746599 L30.9751487,22.8746599 Z M13.3399646,26.6488983 L12.9147649,28.5393642 L11.3615561,28.9555452 L11.7867559,27.0650794 L13.3399646,26.6488983 Z M15.2872711,26.1271191 L16.5543734,27.564134 L15.1518491,27.9399393 L13.8847468,26.5029244 L15.2872711,26.1271191 Z M17.7677686,25.4624718 L19.0348709,26.8994867 L17.6207555,27.2783978 L16.3536532,25.8413829 L17.7677686,25.4624718 Z M18.5757695,17.2577776 L19.612284,21.0797381 L15.7640355,22.1108732 L15.9379619,22.7599753 L19.960077,21.6822528 L20.2271783,22.6790883 L16.2050632,23.7568108 L16.3758837,24.3943218 L20.7457322,23.2234245 L21.0190451,24.2434421 L10.8768239,26.9610421 L10.603511,25.9410244 L14.9617683,24.7732329 L14.7909477,24.1357219 L10.7804237,25.2103385 L10.5133225,24.2135031 L14.5238465,23.1388864 L14.3499201,22.4897842 L10.4900805,23.5240251 L9.46515707,19.6989589 L18.5757695,17.2577776 Z M20.340995,24.7729779 L21.6544617,26.1975695 L20.1360263,26.604433 L18.8225596,25.1798414 L20.340995,24.7729779 Z M28.8618986,14.3276912 L28.8005108,15.3504285 L30.6782706,14.8472843 L32.0230943,19.8662349 L28.1168903,20.9128991 L28.321875,21.6779124 L32.8887723,20.4542159 L33.165191,21.4858247 L28.5982937,22.7095211 L29.0051573,24.2279565 L27.5794507,24.6099735 L27.1725872,23.0915381 L22.617281,24.3121287 L22.3408623,23.2805199 L26.8961685,22.0599293 L26.6911838,21.294916 L22.8081619,22.3353686 L21.4633382,17.316418 L23.3295069,16.8163796 L22.7649748,15.9613571 L24.2022724,15.5762343 L24.7668045,16.4312568 L27.3632131,15.7355513 L27.424601,14.712814 L28.8618986,14.3276912 Z M13.6438418,19.6228421 L11.128571,20.2968069 L11.6317152,22.1745667 L14.146986,21.5006019 L13.6438418,19.6228421 Z M12.7563196,20.1588125 L13.3972789,21.5772521 L12.562719,21.8008718 L11.9217597,20.3824321 L12.7563196,20.1588125 Z M17.4457259,18.6041303 L14.930455,19.2780951 L15.4335992,21.1558549 L17.9488701,20.4818901 L17.4457259,18.6041303 Z M26.1569813,19.3012451 L23.6880748,19.9627866 L23.9458586,20.9248487 L26.414765,20.2633072 L26.1569813,19.3012451 Z M16.8363903,19.0655608 L16.9441586,20.6268686 L16.1095987,20.8504883 L16.0018304,19.2891805 L16.8363903,19.0655608 Z M30.0747764,18.2514751 L27.5826878,18.9192282 L27.8404716,19.8812903 L30.3325602,19.2135372 L30.0747764,18.2514751 Z M20.9548027,10.0562802 C23.4731572,10.0577758 25.9135413,10.9299416 27.8623843,12.5249721 L27.8623843,12.5249721 L27.4213112,13.0627974 C25.6047543,11.5725127 23.3082025,10.7517982 20.9548027,10.7517982 C16.0638712,10.7517982 11.8494676,14.2332354 10.9349068,19.0299113 L10.9349068,19.0299113 L10.2514214,18.8996808 C11.2288055,13.7752593 15.7300684,10.0562802 20.9548027,10.0562802 Z M25.6258846,17.3191653 L23.1569782,17.9807068 L23.4116561,18.9311778 L25.8805625,18.2696363 L25.6258846,17.3191653 Z M29.5436797,16.2693953 L27.0515911,16.9371484 L27.306269,17.8876194 L29.7983577,17.2198663 L29.5436797,16.2693953 Z M10.4858528,11.4203861 L10.6051149,12.3872928 L11.3923918,12.9600699 L10.4813508,13.4095741 L10.1326095,14.342061 L9.45059754,13.6530504 L8.44722461,13.6565702 L8.93671475,12.7809313 L8.66626735,11.8504907 L9.65065003,11.9986475 L10.4858528,11.4203861 Z M13.6889437,7.14111268 L14.4622644,7.76828215 L15.4755827,7.69342617 L15.0879196,8.58703216 L15.4756236,9.48006517 L14.4622644,9.40525012 L13.6889437,10.0323787 L13.4504605,9.09240208 L12.5843167,8.58650011 L13.4504605,8.08059814 L13.6889437,7.14111268 Z M28.6780648,6.74947964 L28.8522103,7.72985144 L29.6669495,8.33700748 L28.7883638,8.75814907 L28.4959794,9.68711622 L27.7795066,8.96667351 L26.7846875,8.93376798 L27.2197444,8.06713306 L26.8969101,7.11766135 L27.882807,7.30326652 L28.6780648,6.74947964 Z M21.0226191,5.17934589 L21.4860795,6.06046907 L22.4470518,6.39124325 L21.7380687,7.05929906 L21.7420387,8.03320436 L20.8404928,7.56470991 L19.8825901,7.83613956 L20.0342256,6.87868703 L19.4380381,6.07241983 L20.4333892,5.94869669 L21.0226191,5.17934589 Z" id="形状结合"></path>
        </g>
    </g>
</svg>