<?xml version="1.0" encoding="UTF-8"?>
<svg width="30px" height="30px" viewBox="0 0 30 30" version="1.1" xmlns="http://www.w3.org/2000/svg" xmlns:xlink="http://www.w3.org/1999/xlink">
    <title>icon_sdk_personal_star </title>
    <defs>
        <linearGradient x1="24.3106771%" y1="6.51212786%" x2="82.188061%" y2="92.6959541%" id="linearGradient-1">
            <stop stop-color="#FF5E5A" offset="0%"></stop>
            <stop stop-color="#FF1752" offset="100%"></stop>
        </linearGradient>
    </defs>
    <g id="icon_sdk_personal_star-" stroke="none" stroke-width="1" fill="none" fill-rule="evenodd">
        <g id="编组" fill="url(#linearGradient-1)" fill-rule="nonzero">
            <g id="形状结合">
                <path d="M15,4 C21.0751322,4 26,8.92486775 26,15 C26,21.0751322 21.0751322,26 15,26 C8.92486775,26 4,21.0751322 4,15 C4,8.92486775 8.92486775,4 15,4 Z M15.712407,9.75951724 C15.4209939,9.16904981 14.5790061,9.16904981 14.287593,9.75951724 L14.287593,9.75951724 L13.1351597,12.0946021 C13.0728488,12.2208579 12.9524013,12.3083681 12.8130697,12.3286142 L12.8130697,12.3286142 L10.2361506,12.7030625 C9.58453109,12.7977483 9.32434256,13.5985263 9.79585885,14.0581411 L9.79585885,14.0581411 L11.660535,15.8757511 C11.7613563,15.9740276 11.8073632,16.1156221 11.7835625,16.2543907 L11.7835625,16.2543907 L11.3433722,18.8208973 C11.2320623,19.4698838 11.9132447,19.9647918 12.4960709,19.6583819 L12.4960709,19.6583819 L14.8009374,18.4466419 C14.9255594,18.3811243 15.0744406,18.3811243 15.1990626,18.4466419 L15.1990626,18.4466419 L17.5039291,19.6583819 C18.0867553,19.9647918 18.7679377,19.4698838 18.6566278,18.8208973 L18.6566278,18.8208973 L18.2164375,16.2543907 C18.1926368,16.1156221 18.2386437,15.9740276 18.339465,15.8757511 L18.339465,15.8757511 L20.2041411,14.0581411 C20.6756574,13.5985263 20.4154689,12.7977483 19.7638494,12.7030625 L19.7638494,12.7030625 L17.1869303,12.3286142 C17.0475987,12.3083681 16.9271512,12.2208579 16.8648403,12.0946021 L16.8648403,12.0946021 Z"></path>
            </g>
        </g>
    </g>
</svg>