<?xml version="1.0" encoding="UTF-8"?>
<svg width="30px" height="30px" viewBox="0 0 30 30" version="1.1" xmlns="http://www.w3.org/2000/svg" xmlns:xlink="http://www.w3.org/1999/xlink">
    <title>icon_sdk_personal_team </title>
    <defs>
        <linearGradient x1="8.67768595%" y1="0%" x2="98.8958228%" y2="115.761676%" id="linearGradient-1">
            <stop stop-color="#6DD400" offset="0%"></stop>
            <stop stop-color="#599A14" offset="100%"></stop>
        </linearGradient>
    </defs>
    <g id="icon_sdk_personal_team-" stroke="none" stroke-width="1" fill="none" fill-rule="evenodd">
        <g id="编组" fill="url(#linearGradient-1)" fill-rule="nonzero">
            <g id="球衣" transform="translate(5.000000, 4.000000)">
                <path d="M6.4125,0 C6.60623825,0.00472459032 6.79065392,0.0810422395 6.9275,0.213125 C7.06035714,0.3416875 7.14678571,0.53075 7.14678571,0.7115625 L7.14678571,0.7115625 L7.14678571,1.3990625 C7.14678571,2.916375 8.57535714,4.1463125 10.0039283,4.1490625 C11.4325,4.1463125 12.8610714,2.916375 12.8610714,1.3990625 L12.8610714,1.3990625 L12.8610714,0.7115625 C12.8580426,0.526865213 12.9294688,0.348219821 13.0603571,0.213125 C13.1894696,0.0817201671 13.3675239,0.00505789317 13.5553571,0 L13.5553571,0 L16.4125,0 C16.8154928,0.010214197 17.1389086,0.323621559 17.1467857,0.7115625 L17.1467857,0.7115625 L17.1467857,4.004 C17.1467857,6.2363125 18.4639286,8.4789375 19.8475,10.137875 C19.9488334,10.2595808 20.0039283,10.4109101 20.0039283,10.566875 L20.0039283,10.566875 L20.0039283,21.3365625 C19.9996122,21.5165346 19.9206463,21.6873594 19.7846429,21.8109375 C19.6517857,21.9388125 19.4575,22 19.2696429,22 L19.2696429,22 L0.698214286,22 C0.510357143,22 0.336071429,21.9388125 0.203214286,21.81025 C0.0703571429,21.682375 0.00392834686,21.517375 0.00392834686,21.3365625 L0.00392834686,21.3365625 L0.00392834686,10.566875 C0.00392834686,10.3836409 0.0796287865,10.20793 0.214642857,10.07875 C1.88607143,8.482375 2.86107143,6.3085 2.86107143,4.004 L2.86107143,4.004 L2.86107143,0.7115625 C2.85804261,0.526865213 2.92946877,0.348219821 3.06035714,0.213125 C3.18946955,0.0817201671 3.36752387,0.00505789317 3.55535714,0 L3.55535714,0 Z M18.5553571,17.8990625 L1.4125,17.8990625 L1.4125,19.2740625 L18.5553571,19.2740625 L18.5553571,17.8990625 Z M7.33607143,8.4755 L5.9075,9.8505 C5.63680556,10.1202605 5.64067688,10.5490583 5.91620102,10.8142503 C6.19172516,11.0794423 6.63722937,11.0831684 6.9175,10.822625 L7.12678571,10.6211875 L7.12678571,14.4615625 C7.12678571,14.8412583 7.44658232,15.1490625 7.84107143,15.1490625 C8.23556054,15.1490625 8.55535714,14.8412583 8.55535714,14.4615625 L8.55535714,8.9615625 C8.5539156,8.68418805 8.37977466,8.43470252 8.11352313,8.32856261 C7.84727159,8.22242269 7.54085299,8.28033542 7.33607143,8.4755 Z M12.1267857,8.32663296 C10.9644778,8.32663296 10.0139317,9.21821395 9.98392857,10.3365625 L9.98392857,13.0865625 C10.0139317,14.204911 10.9644778,15.096492 12.1267857,15.096492 C13.2890936,15.096492 14.2396397,14.204911 14.2696429,13.0865625 L14.2696429,10.3365625 C14.2396397,9.21821395 13.2890936,8.32663296 12.1267857,8.32663296 Z M12.1267857,9.6490625 C12.5210714,9.64975 12.8403571,9.9570625 12.8410714,10.3365625 L12.8410714,13.0865625 C12.8402855,13.4659445 12.5209488,13.773306 12.1267857,13.7740625 C11.7326226,13.773306 11.413286,13.4659445 11.4125,13.0865625 L11.4125,10.3365625 C11.413286,9.95718053 11.7326226,9.649819 12.1267857,9.6490625 Z" id="形状结合"></path>
            </g>
        </g>
    </g>
</svg>