<?xml version="1.0" encoding="UTF-8"?>
<svg width="30px" height="30px" viewBox="0 0 30 30" version="1.1" xmlns="http://www.w3.org/2000/svg" xmlns:xlink="http://www.w3.org/1999/xlink">
    <title>icon_sdk_personal_match</title>
    <defs>
        <linearGradient x1="7.11265924%" y1="13.1810973%" x2="93.5713564%" y2="92.0138889%" id="linearGradient-1">
            <stop stop-color="#67E2FC" offset="0%"></stop>
            <stop stop-color="#3AC4F9" offset="100%"></stop>
        </linearGradient>
    </defs>
    <g id="icon_sdk_personal_match" stroke="none" stroke-width="1" fill="none" fill-rule="evenodd">
        <g id="编组" fill="url(#linearGradient-1)" fill-rule="nonzero">
            <g id="形状">
                <path d="M24.0506445,6.43035293 L21.3413178,6.43035293 L21.3413178,5.09611765 C21.3435321,4.49339443 20.8423036,4.0028527 20.2213205,4 L19.0146568,4 C18.3959917,4 17.8946596,4.49176471 17.8946596,5.09611765 L17.8946596,6.43035293 L12.1066738,6.43035293 L12.1066738,5.09611765 C12.108888,4.49339442 11.6076595,4.00285269 10.9866765,4 L9.77867945,4 C9.16134762,4 8.65868219,4.49176471 8.65868219,5.09611765 L8.65868219,6.43035293 L5.9493555,6.43035293 C5.16479127,6.43240908 4.41322242,6.73697226 3.86007752,7.27700475 C3.30693263,7.81703725 2.99755044,8.54827506 3.00001461,9.3097647 L3.00001461,23.1205882 C3.00001461,24.7110588 4.32002616,26 5.9493555,26 L24.0506445,26 C24.8352087,25.9979439 25.5867776,25.6933807 26.1399225,25.1533482 C26.6930674,24.6133157 27.0024496,23.8820779 26.9999854,23.1205882 L26.9999854,9.3097647 C26.9999854,7.71929413 25.6799738,6.43035293 24.0506445,6.43035293 Z M9.8080127,7.55235294 L9.8080127,5.12200001 L10.9573432,5.12200001 L10.9573432,8.73647058 L9.8080127,8.73647058 L9.8080127,7.55235294 Z M11.061343,20.5012941 C10.6440107,21.0163529 10.0613454,21.2738824 9.31201393,21.2738824 C8.60069843,21.2926817 7.923645,20.9776005 7.49335171,20.4275294 C7.03201949,19.862 6.80268674,18.8564706 6.80268674,17.4083529 C6.80268674,15.9874118 7.05601946,14.9637647 7.56268489,14.34 C7.98001719,13.8249412 8.56268245,13.5674118 9.31201393,13.5674118 C10.0613454,13.5674118 10.645344,13.8288236 11.0680096,14.3503529 C11.570675,14.9676471 11.8213411,15.9925882 11.8213411,17.4238823 C11.8213411,18.8512941 11.5680084,19.8775294 11.061343,20.5012941 L11.061343,20.5012941 Z M15.5813319,24.8715294 L14.4333347,24.8715294 L14.4333347,7.55364706 L15.5826652,7.55364706 L15.5826652,24.8715294 L15.5813319,24.8715294 Z M19.0426568,7.55235294 L19.0426568,5.12200001 L20.1919873,5.12200001 L20.1919873,8.73647058 L19.0426568,8.73647058 L19.0426568,7.55235294 L19.0426568,7.55235294 Z M22.2306489,13.5674118 L22.2306489,21.1457647 L20.7493193,21.1457647 L20.7493193,15.6936471 C20.201873,16.1911817 19.5481336,16.5654384 18.8346573,16.7897647 L18.8346573,15.4788235 C19.221323,15.3545882 19.641322,15.1203529 20.0959875,14.7761177 C20.5493197,14.4305882 20.8599856,14.0281176 21.0293186,13.5687059 L22.2306489,13.5687059 L22.2306489,13.5674118 Z M9.31201393,14.7670588 C9.49068016,14.7670588 9.65067977,14.8227059 9.78934609,14.9352941 C9.92801241,15.0452941 10.0426788,15.2665882 10.1346786,15.5978823 C10.225345,15.9291765 10.2720116,16.5374118 10.2720116,17.4225882 C10.2720116,18.3090588 10.221345,18.9367059 10.1186786,19.3068235 C10.0413455,19.5954118 9.93201243,19.796 9.79201276,19.9072941 C9.65774658,20.0170407 9.48754521,20.0766947 9.31201393,20.0755618 C9.13767436,20.0771427 8.96844592,20.0184159 8.83468177,19.9098824 C8.69601546,19.7998823 8.58134906,19.5798823 8.48934927,19.2485882 C8.39868283,18.9172941 8.35201628,18.3090588 8.35201628,17.4238823 C8.35201628,16.5374118 8.40268283,15.9084706 8.50534924,15.5344706 C8.58268239,15.2458824 8.69201543,15.0452941 8.83201511,14.934 C8.96628129,14.8242534 9.13648266,14.7645994 9.31201393,14.765748 L9.31201393,14.7670588 Z"></path>
            </g>
        </g>
    </g>
</svg>