<?xml version="1.0" encoding="UTF-8"?>
<svg width="30px" height="30px" viewBox="0 0 30 30" version="1.1" xmlns="http://www.w3.org/2000/svg" xmlns:xlink="http://www.w3.org/1999/xlink">
    <title>icon_sdk_personal_league</title>
    <defs>
        <linearGradient x1="17.4964041%" y1="7.98611111%" x2="81.9696222%" y2="92.0138889%" id="linearGradient-1">
            <stop stop-color="#FEC900" offset="0%"></stop>
            <stop stop-color="#ED5C18" offset="100%"></stop>
        </linearGradient>
    </defs>
    <g id="icon_sdk_personal_league" stroke="none" stroke-width="1" fill="none" fill-rule="evenodd">
        <g id="编组" fill="url(#linearGradient-1)" fill-rule="nonzero">
            <g id="形状">
                <path d="M26.1466667,8.36754763 C26.6266667,8.36754763 27,8.75968039 27,9.24646589 C27,12.8838353 24.88,15.4124155 21.8533333,15.4124155 C21.8133333,15.4124155 21.7733333,15.3988937 21.7333333,15.3853719 C20.3333333,18.3196066 18.2533333,20.2937923 15.84,20.6724032 C15.84,20.685925 15.8533333,20.6994468 15.8533333,20.7129687 L15.8533333,24.2421635 L19.28,24.2421635 C19.76,24.2421635 20.1333333,24.6342963 20.1333333,25.1210817 C20.1333333,25.6078672 19.7466667,26 19.28,26 L10.72,26 C10.2533333,26 9.86666667,25.6078672 9.86666667,25.1210817 C9.86666667,24.6342963 10.2533333,24.2421635 10.72,24.2421635 L14.1466667,24.2421635 L14.1466667,20.7129687 C14.1466667,20.6994468 14.1466667,20.685925 14.16,20.6724032 C11.7466667,20.2937923 9.66666667,18.3196066 8.28,15.3853719 C8.24,15.3853719 8.2,15.4124155 8.16,15.4124155 C5.12,15.4259373 3,12.8838353 3,9.25998771 C3,8.77320221 3.38666667,8.38106945 3.85333333,8.38106945 L6.50666667,8.38106945 C6.46666667,7.77258758 6.42666667,7.16410572 6.42666667,6.54210203 C6.42666667,6.01475108 6.45333333,5.46035648 6.49333333,4.81130916 C6.53333333,4.3515673 6.89333333,4 7.34666667,4 L22.64,4 C23.0933333,4 23.4666667,4.3515673 23.4933333,4.81130916 C23.5466667,5.44683467 23.56,6.01475108 23.56,6.54210203 C23.56,7.16410572 23.5333333,7.7861094 23.48,8.38106945 L26.1466667,8.36754763 L26.1466667,8.36754763 Z M22.4666667,13.6004917 C23.9466667,13.3165335 24.9866667,12.0319607 25.2266667,10.138906 L23.2933333,10.138906 C23.1066667,11.3693915 22.8266667,12.5187462 22.4666667,13.6004917 Z M15,12.9920098 L16.4666667,13.7627535 C16.96,14.0196681 17.28,13.7762754 17.1866667,13.2354026 L16.9066667,11.6127843 L18.0933333,10.4634296 C18.4933333,10.0712969 18.3733333,9.69268593 17.8266667,9.61155501 L16.1866667,9.36816226 L15.4533333,7.89428396 C15.2,7.39397664 14.8,7.39397664 14.56,7.89428396 L13.8266667,9.36816226 L12.1866667,9.61155501 C11.64,9.69268593 11.52,10.0712969 11.92,10.4634296 L13.1066667,11.6127843 L12.8266667,13.2354026 C12.7333333,13.7897972 13.0533333,14.0196681 13.5466667,13.7627535 L15,12.9920098 L15,12.9920098 Z M4.77333333,10.138906 C5.01333333,12.0319607 6.05333333,13.3165335 7.53333333,13.6004917 C7.17333333,12.532268 6.89333333,11.3693915 6.70666667,10.138906 L4.77333333,10.138906 Z"></path>
            </g>
        </g>
    </g>
</svg>