<?xml version="1.0" encoding="UTF-8"?>
<svg width="18px" height="18px" viewBox="0 0 18 18" version="1.1" xmlns="http://www.w3.org/2000/svg" xmlns:xlink="http://www.w3.org/1999/xlink">
    <title>ico/半场</title>
    <defs>
        <path d="M15.9164199,4.82787868 C15.9408406,4.98828272 15.8533488,5.1440807 15.7110628,5.22739383 L11.4629252,8.86779779 C11.6081867,9.68404019 11.5702002,10.5462624 11.341354,11.4018583 C10.9437663,12.888323 10.0163563,14.1723633 8.73455179,15.0219795 C7.76231168,15.6649694 6.67136642,16.0001613 5.58615469,16 C5.23980293,16 4.89416322,15.9668683 4.55159835,15.8966461 C3.73882959,15.7326865 3.00557874,15.3826259 2.3918234,14.877737 C2.24196179,15.4281209 1.73800086,15.8454138 1.17316421,15.8454138 C0.533908092,15.8454138 0.0574178238,15.3073936 0.112149284,14.6471916 C0.162325371,14.0419391 0.642108289,13.5406058 1.21408461,13.4610906 C0.520192387,12.220929 0.354166563,10.7357573 0.746113205,9.27014121 C1.1437076,7.78359579 2.07104605,6.49947461 3.35268975,5.65179786 C3.4943732,5.55781806 3.63892827,5.47167665 3.78521891,5.39103019 L3.78268225,5.3791514 L14.5831054,0.097131311 C14.631838,0.0586666654 14.6890855,0.0298181812 14.7529167,0.0140606058 L14.7816277,0 L14.7837838,0.00703030288 C15.0029825,-0.0298989892 15.2012805,0.10222222 15.2327619,0.304888882 L15.9164199,4.82787868 Z M1.22443894,15.2269088 C1.53338534,15.2269088 1.80746374,14.9659795 1.833905,14.64703 C1.86034626,14.3280805 1.63216433,14.0674744 1.3205573,14.0674744 C1.01176741,14.0674744 0.737637548,14.3280805 0.711196291,14.64703 C0.684755033,14.9659795 0.915570796,15.2269088 1.22443894,15.2269088 Z M8.21002142,14.107232 C10.3421592,12.6947068 11.1043655,9.85422201 9.90889689,7.77357559 C9.16603408,6.47563622 7.83214382,5.77680795 6.41621775,5.77680795 C5.90310692,5.77680795 5.38005415,5.8703029 4.87018697,6.05866653 L4.0175084,6.4724039 C3.97066862,6.50125238 3.92401,6.53074733 3.87764217,6.5614544 C1.74565417,7.97406043 0.983298096,10.8144644 2.1787533,12.8952724 C2.75708729,13.9029492 3.70427181,14.5844845 4.84249191,14.8136562 C5.9826035,15.0426663 7.1790953,14.7926461 8.21002142,14.107232 Z M11.1918859,7.88759579 L14.8578011,4.82787868 L14.2850054,1.27934814 L11.6229178,2.68824366 L12.0094495,3.84791911 C12.0876083,4.05107062 11.9859708,4.29632314 11.7832922,4.39450495 C11.7243901,4.42254536 11.6643842,4.43652516 11.6056938,4.43652516 C11.4584982,4.43652516 11.3253125,4.35248475 11.2696276,4.20767668 L10.8173564,3.06385765 C8.56509771,4.1918178 7.47127297,4.76226252 7.53588223,4.77519181 C8.94958873,5.06060595 10.124972,5.9062625 10.8441883,7.15717156 C10.9794153,7.39216145 11.0953325,7.63636347 11.1918859,7.88759579 Z M6.24179201,7.00007055 C7.3645826,7.00007055 8.4237177,7.53658516 9.01558718,8.53269327 C9.96785252,10.1299136 9.36945541,12.3102845 7.68169978,13.3943484 C6.86572519,13.9205532 5.91735061,14.1124935 5.01284751,13.9365818 C4.10978816,13.7607506 3.35718934,13.2376871 2.896506,12.4641267 C1.94432124,10.8669063 2.54279224,8.68661602 4.23048734,7.60231041 C4.86522091,7.19491049 5.56444324,7.00007055 6.24179201,7.00007055 Z M7.2017164,12.5892141 C8.41991669,11.806713 8.85192561,10.2327704 8.16458392,9.08000099 C7.73725894,8.36088939 6.97275084,7.97370643 6.16228523,7.97370643 C5.67333064,7.97370643 5.16860122,8.11441969 4.71047116,8.40841133 C3.49226419,9.19099291 3.06026195,10.764855 3.74759029,11.9177855 C4.08009924,12.4762085 4.62332566,12.8538066 5.27525717,12.9805854 C5.9281356,13.1076059 6.61269198,12.9691479 7.2017164,12.5892141 Z" id="path-1"></path>
        <filter x="-44.3%" y="-37.5%" width="213.8%" height="212.5%" filterUnits="objectBoundingBox" id="filter-2">
            <feOffset dx="2" dy="3" in="SourceAlpha" result="shadowOffsetOuter1"></feOffset>
            <feGaussianBlur stdDeviation="2.5" in="shadowOffsetOuter1" result="shadowBlurOuter1"></feGaussianBlur>
            <feColorMatrix values="0 0 0 0 0   0 0 0 0 0   0 0 0 0 0  0 0 0 0.2 0" type="matrix" in="shadowBlurOuter1"></feColorMatrix>
        </filter>
    </defs>
    <g id="ico/半场" stroke="none" stroke-width="1" fill="none" fill-rule="evenodd">
        <g id="编组" transform="translate(1.000000, 1.000000)" fill-rule="nonzero">
            <g id="形状结合">
                <use fill="black" fill-opacity="1" filter="url(#filter-2)" xlink:href="#path-1"></use>
                <use fill="#FFFFFF" xlink:href="#path-1"></use>
            </g>
        </g>
    </g>
</svg>