<?xml version="1.0" encoding="UTF-8"?>
<svg width="24px" height="24px" viewBox="0 0 24 24" version="1.1" xmlns="http://www.w3.org/2000/svg" xmlns:xlink="http://www.w3.org/1999/xlink">
    <title>icon_detail_betlist_white</title>
    <g id="icon_detail_betlist_white" stroke="none" stroke-width="1" fill="none" fill-rule="evenodd">
        <path d="M20.2766809,6.22944823 L6.67790044,6.09853913 L6.14009556,3.56763004 C6.06326629,3.22944823 5.76692483,2.98944823 5.41570531,3.00035732 L3.69253458,3.06581186 C3.29741263,3.07672095 2.97911995,3.40399368 3.00107117,3.79672095 C3.01204678,4.18944823 3.34131507,4.49490277 3.73643702,4.48399368 L4.85594922,4.45126641 L6.96326629,14.2585391 L7.05107117,14.6512664 C7.05107117,14.6621755 7.05107117,14.6621755 7.06204678,14.6730846 L7.47911995,16.6258119 C6.54619312,16.876721 5.8547297,17.716721 5.8547297,18.7203573 C5.8547297,19.9203573 6.83155897,20.8912664 8.03887605,20.8912664 C9.24619312,20.8912664 10.2230224,19.9203573 10.2230224,18.7203573 C10.2230224,18.4585391 10.1681443,18.20763 10.0913151,17.96763 L15.7218029,17.956721 C15.633998,18.196721 15.5791199,18.44763 15.5791199,18.7203573 C15.5791199,19.9203573 16.5559492,20.8912664 17.7632663,20.8912664 C18.9705834,20.8912664 19.9474126,19.9203573 19.9474126,18.7203573 C19.9474126,17.836721 19.5852175,17.3239937 19.2779004,17.0621755 C18.9486321,16.7785391 18.5205834,16.6039937 18.0266809,16.5603573 C17.9608273,16.5385391 17.8949736,16.5385391 17.8291199,16.5385391 L8.89497361,16.5494482 L8.60960775,15.196721 L19.2559492,14.9021755 C19.6071687,14.8912664 19.9035102,14.6294482 19.9474126,14.2912664 L20.9571687,7.04763004 C20.9571687,7.01490277 20.9681443,6.9821755 20.9681443,6.96035732 C20.9900956,6.55672095 20.6718029,6.22944823 20.2766809,6.22944823 Z M8.03887605,19.4730846 C7.62180288,19.4730846 7.28155897,19.1349028 7.28155897,18.7203573 C7.28155897,18.3058119 7.62180288,17.96763 8.03887605,17.96763 C8.45594922,17.96763 8.79619312,18.3058119 8.79619312,18.7203573 C8.79619312,19.1349028 8.45594922,19.4730846 8.03887605,19.4730846 Z M17.7742419,19.4730846 C17.3571687,19.4730846 17.0169248,19.1349028 17.0169248,18.7203573 C17.0169248,18.3058119 17.3571687,17.96763 17.7742419,17.96763 C18.3998517,17.96763 18.531559,18.2512664 18.531559,18.7203573 C18.531559,19.1458119 18.1913151,19.4730846 17.7742419,19.4730846 Z M18.6303395,13.4949028 L8.3242419,13.7785391 L7.00716873,7.52763004 L19.4535102,7.64763004 L18.6303395,13.4949028 L18.6303395,13.4949028 Z" id="形状" fill="#FFFFFF" fill-rule="nonzero"></path>
    </g>
</svg>