<?xml version="1.0" encoding="UTF-8"?>
<svg width="32px" height="18px" viewBox="0 0 32 18" version="1.1" xmlns="http://www.w3.org/2000/svg" xmlns:xlink="http://www.w3.org/1999/xlink">
    <title>icon_detail_red_jyed</title>
    <defs>
        <linearGradient x1="50%" y1="100%" x2="50%" y2="-2.48949813e-15%" id="linearGradient-1">
            <stop stop-color="#FF1551" offset="0%"></stop>
            <stop stop-color="#FF615B" offset="100%"></stop>
        </linearGradient>
    </defs>
    <g id="icon_detail_red_jyed" stroke="none" stroke-width="1" fill="none" fill-rule="evenodd">
        <g id="编组-6">
            <path d="M11.3333864,0 L32,0 L32,0 L32,18 L0,18 L7.74313652,2.23645078 C8.41560747,0.867428174 9.80811918,2.80187042e-16 11.3333864,0 Z" id="矩形" fill="url(#linearGradient-1)" transform="translate(16.000000, 9.000000) scale(-1, 1) translate(-16.000000, -9.000000) "></path>
            <g id="编组" transform="translate(7.000000, 3.000000)" fill="#FFFFFF" fill-rule="nonzero" opacity="0.200000003">
                <g id="icon/小礼物红">
                    <path d="M7.06705916,1.50291301 C7.06705916,1.50291301 8.63103193,1.67757972 7.70506089,5.09742107 L7.70506089,5.09742107 L10.102386,5.09697069 C10.17213,5.09376796 10.6952096,5.08916244 10.6952096,5.67161233 C10.6952096,5.67161233 10.6952096,6.57032414 9.80692039,9.59080541 C9.80692039,9.59080541 9.5317481,10.4769874 9.19383435,10.4769874 L9.19383435,10.4769874 L5.60335555,10.4769874 C5.35307839,10.4769874 4.71507667,10.3083749 4.71507667,9.84021916 L4.71507667,9.84021916 L4.71507667,5.09742107 C4.71507667,5.09742107 6.49146999,3.78690161 6.49146999,2.11444696 C6.54159943,2.02706734 6.40418288,1.50291301 7.06705916,1.50291301 Z M3.7446061,5.0992296 C3.8035244,5.10178354 4.09811589,5.13108498 4.09811589,5.46172036 L4.09811589,5.46172036 L4.09771,10.2842392 C4.09461927,10.3227868 4.06814657,10.4769772 3.84239063,10.4769772 L3.84239063,10.4769772 L2.60391489,10.4769772 C2.60391489,10.4769772 2.29894451,10.4769772 2.29894451,10.172531 L2.29894451,10.172531 L2.00343059,5.38924492 C2.00343059,5.38924492 2.00798407,5.09899228 2.303498,5.09899228 L2.303498,5.09899228 Z" id="形状结合"></path>
                </g>
            </g>
        </g>
    </g>
</svg>