<?xml version="1.0" encoding="UTF-8"?>
<svg width="24px" height="24px" viewBox="0 0 24 24" version="1.1" xmlns="http://www.w3.org/2000/svg" xmlns:xlink="http://www.w3.org/1999/xlink">
    <title>icon_detail_x_white</title>
    <g id="icon_detail_x_white" stroke="none" stroke-width="1" fill="none" fill-rule="evenodd">
        <path d="M19.0000005,5 C19.4418283,5 19.8000005,5.3581722 19.8000005,5.8 C19.8000005,6.1166398 19.6160433,6.39031409 19.3491718,6.51997993 C19.3217979,6.54154386 19.2840927,6.5727716 19.2378952,6.61254101 C19.0898258,6.7400077 18.8735625,6.9384516 18.5923108,7.20532488 C18.0187649,7.74954938 17.1833636,8.57021231 16.0878905,9.66568542 C15.3504729,10.403103 14.4956999,11.2645487 13.523607,12.2499878 C15.233027,13.9905649 17.2501284,16.0545457 19.5733554,18.44209 C19.8814806,18.7587455 19.8745654,19.2652303 19.55791,19.5733554 C19.2412545,19.8814806 18.7347697,19.8745654 18.4266446,19.55791 C16.1131506,17.1803681 14.1038357,15.1243214 12.3988476,13.389915 C10.6961648,15.1243214 8.68684988,17.1803681 6.3733559,19.55791 C6.06523073,19.8745654 5.55874595,19.8814806 5.24209049,19.5733554 C4.92543502,19.2652303 4.91851986,18.7587455 5.22664504,18.44209 C7.54987205,16.0545457 9.56697343,13.9905649 11.2780984,12.2500014 C10.3043006,11.2645487 9.44952761,10.403103 8.71211001,9.66568542 C7.6166369,8.57021231 6.78123557,7.74954938 6.20768966,7.20532488 C5.92643794,6.9384516 5.71017464,6.7400077 5.56210523,6.61254101 C5.51590779,6.5727716 5.47820256,6.54154386 5.45082867,6.51997993 C5.18395721,6.39031409 5,6.1166398 5,5.8 C5,5.3581722 5.3581722,5 5.8,5 C6.05778946,5 6.15953979,5.05627283 6.36329163,5.20422552 C6.43160441,5.25383027 6.51082111,5.31805298 6.60596577,5.39995899 C6.77734522,5.5474923 7.01062264,5.7615484 7.30900349,6.04467512 C7.89472273,6.60045062 8.73895397,7.42978769 9.84348086,8.53431458 L10.3141326,9.00581257 C10.9359994,9.62984723 11.6309046,10.3310853 12.3988654,11.109544 C13.1690959,10.3310853 13.864001,9.62984723 14.4858678,9.00581257 L14.9565196,8.53431458 C16.0610465,7.42978769 16.9052777,6.60045062 17.490997,6.04467512 C17.7893778,5.7615484 18.0226552,5.5474923 18.1940347,5.39995899 C18.2891794,5.31805298 18.3683961,5.25383027 18.4367088,5.20422552 C18.6404607,5.05627283 18.742211,5 19.0000005,5 Z" id="形状结合" fill="#FFFFFF" fill-rule="nonzero"></path>
    </g>
</svg>