<?xml version="1.0" encoding="UTF-8"?>
<svg width="18px" height="18px" viewBox="0 0 18 18" version="1.1" xmlns="http://www.w3.org/2000/svg" xmlns:xlink="http://www.w3.org/1999/xlink">
    <!-- Generator: Sketch 55.2 (78181) - https://sketchapp.com -->
    <title>ico/选择联赛/我喜欢的_slice</title>
    <desc>Created with Sketch.</desc>
    <g id="切图" stroke="none" stroke-width="1" fill="none" fill-rule="evenodd">
        <g id="画板" transform="translate(-77.000000, -58.000000)">
            <g id="个人主页/喜好/联赛logo/德甲备份" transform="translate(77.000000, 58.000000)">
                <rect id="矩形" fill="#D8D8D8" opacity="0" x="0" y="0" width="18" height="18"></rect>
                <g id="编组" stroke-width="1" fill="#F24343">
                    <circle id="椭圆形" cx="9" cy="9" r="9"></circle>
                </g>
                <path d="M10.9659322,5.4 C10.1903801,5.4 9.47345404,5.77553057 9,6.3955855 C8.52656653,5.77553057 7.80511814,5.4 7.02955572,5.4 C5.63175912,5.4 4.5,6.60081396 4.5,8.08107865 C4.5,8.9631261 4.90580894,9.58318103 5.23497432,10.0765993 C6.18637391,11.5219376 8.57165641,13.3165993 8.67535183,13.3908315 C8.77455573,13.4650637 8.88728558,13.5 9,13.5 C9.11273498,13.5 9.22995635,13.4650637 9.32464818,13.3908315 C9.42384181,13.3165993 11.8136261,11.5175681 12.765036,10.0765993 C13.0941808,9.57881149 13.5,8.9631261 13.5,8.08107865 C13.5,6.60080401 12.3637391,5.4 10.9659322,5.4 Z" id="形状备份" fill="#FFFFFF"></path>
            </g>
        </g>
    </g>
</svg>