<?xml version="1.0" encoding="UTF-8"?>
<svg width="8px" height="8px" viewBox="0 0 8 8" version="1.1" xmlns="http://www.w3.org/2000/svg" xmlns:xlink="http://www.w3.org/1999/xlink">
    <title>icon_detail_gift_thb</title>
    <defs>
        <filter id="filter-1">
            <feColorMatrix in="SourceGraphic" type="matrix" values="0 0 0 0 0.133333 0 0 0 0 0.133333 0 0 0 0 0.133333 0 0 0 1.000000 0"></feColorMatrix>
        </filter>
    </defs>
    <g id="icon_detail_gift_thb" stroke="none" stroke-width="1" fill="none" fill-rule="evenodd">
        <g id="icon/usdt">
            <path d="M4,0 C6.2092,0 8,1.7908 8,4 C8,6.2092 6.2092,8 4,8 C1.7908,8 0,6.2092 0,4 C0,1.7908 1.7908,0 4,0 Z" id="路径" fill="#F6DA98" fill-rule="nonzero"></path>
            <g filter="url(#filter-1)" id="泰铢">
                <g transform="translate(2.285714, 1.428571)">
                    <path d="M3.41614907,3.375 C3.41614907,4.17384044 2.79046005,4.82142857 2.01863354,4.82142857 L1.86335404,4.82142857 L1.86335404,5.14285714 L1.24223602,5.14285714 L1.24223602,4.82142857 L0,4.82142857 L0,0.321428571 L1.24223602,0.321428571 L1.24223602,0 L1.86335404,0 L1.86335404,0.321428571 L2.01863354,0.321428571 C2.61894305,0.321428571 3.10559006,0.825108228 3.10559006,1.44642857 C3.10559006,1.73571429 2.99720497,1.99671429 2.82391304,2.196 C3.19490908,2.46585854 3.41583855,2.90567617 3.41614907,3.375 Z M0.621118012,4.17857143 L1.24223602,4.17857143 L1.24223602,2.57142857 L0.621118012,2.57142857 L0.621118012,4.17857143 Z M0.621118012,0.964285714 L0.621118012,1.92857143 L1.24223602,1.92857143 L1.24223602,0.964285714 L0.621118012,0.964285714 Z M2.01863354,0.964285714 L1.86335404,0.964285714 L1.86335404,1.92857143 L2.01863354,1.92857143 C2.27590904,1.92857143 2.48447205,1.71270872 2.48447205,1.44642857 C2.48447205,1.18014842 2.27590904,0.964285714 2.01863354,0.964285714 Z M2.01863354,2.57142857 L1.86335404,2.57142857 L1.86335404,4.17857143 L2.01863354,4.17857143 C2.44742605,4.17857143 2.79503106,3.81880025 2.79503106,3.375 C2.79503106,2.93119975 2.44742605,2.57142857 2.01863354,2.57142857 Z" id="形状" fill="#FF2525" fill-rule="nonzero"></path>
                </g>
            </g>
        </g>
    </g>
</svg>