<?xml version="1.0" encoding="UTF-8"?>
<svg width="10px" height="10px" viewBox="0 0 10 10" version="1.1" xmlns="http://www.w3.org/2000/svg" xmlns:xlink="http://www.w3.org/1999/xlink">
    <title>icon_tabsdk_bet_change</title>
    <g id="icon_tabsdk_bet_change" stroke="none" stroke-width="1" fill="none" fill-rule="evenodd">
        <g id="icon/关注/互相关注" fill="#222222">
            <path d="M8.92928087,5.71428571 C9.12652543,5.71428571 9.28642373,5.87418402 9.28642373,6.07142857 C9.28642373,6.26867312 9.12652543,6.42857143 8.92928087,6.42857143 L8.92928087,6.42857143 L2.07264081,6.42857143 L3.91734199,7.93787239 C4.07000085,8.0627751 4.09250166,8.28778321 3.96759896,8.44044207 C3.84269625,8.59310093 3.61768814,8.61560174 3.46502928,8.49069904 L3.46502928,8.49069904 L0.845981663,6.34784189 C0.586212727,6.13530367 0.73650072,5.71428571 1.07213802,5.71428571 L1.07213802,5.71428571 Z M6.03311049,1.55956869 C6.15801319,1.40690983 6.3830213,1.38440902 6.53568016,1.50931172 L6.53568016,1.50931172 L9.15472778,3.65216886 C9.41449672,3.86470708 9.26420873,4.28572504 8.92857143,4.28572504 L8.92857143,4.28572504 L1.07142857,4.28572504 C0.874184018,4.28572504 0.714285714,4.12582674 0.714285714,3.92858219 C0.714285714,3.73133763 0.874184018,3.57143933 1.07142857,3.57143933 L1.07142857,3.57143933 L7.92806863,3.57143933 L6.08336746,2.06213836 C5.93070859,1.93723566 5.90820778,1.71222755 6.03311049,1.55956869 Z" id="形状结合"></path>
        </g>
    </g>
</svg>