<?xml version="1.0" encoding="UTF-8"?>
<svg width="12px" height="12px" viewBox="0 0 12 12" version="1.1" xmlns="http://www.w3.org/2000/svg" xmlns:xlink="http://www.w3.org/1999/xlink">
    <title>icon_wallet_type_cny</title>
    <g id="icon_wallet_type_cny" stroke="none" stroke-width="1" fill="none" fill-rule="evenodd">
        <g id="编组" fill-rule="nonzero">
            <g id="icon/usdt备份">
                <path d="M6,12 C2.6862915,12 0,9.3137085 0,6 C0,2.6862915 2.6862915,0 6,0 C9.3137085,0 12,2.6862915 12,6 C12,9.3137085 9.3137085,12 6,12 Z" id="路径" fill="#222222"></path>
                <path d="M7.85804085,2.57142857 L8.57142857,3.46472434 L7.08557143,4.73342857 L8.46431996,4.73342886 L8.46431996,5.8920587 L6.55957143,5.89142857 L6.55957143,7.05042857 L8.46431996,7.05068854 L8.46431996,8.20931839 L6.55957143,8.20842857 L6.56009671,9.42857143 L5.43990329,9.42857143 L5.43957143,8.20842857 L3.47303549,8.20931839 L3.47303549,7.05068854 L5.43957143,7.05042857 L5.43957143,5.89142857 L3.47303549,5.8920587 L3.47303549,4.73342886 L4.91357143,4.73342857 L3.42857143,3.46472434 L4.14195915,2.57142857 L6,4.15871514 L7.85804085,2.57142857 Z" id="形状结合" fill="#F6DA98"></path>
            </g>
        </g>
    </g>
</svg>