<?xml version="1.0" encoding="UTF-8"?>
<svg width="12px" height="12px" viewBox="0 0 12 12" version="1.1" xmlns="http://www.w3.org/2000/svg" xmlns:xlink="http://www.w3.org/1999/xlink">
    <title>icon_wallet_type_vnd</title>
    <defs>
        <filter id="filter-1">
            <feColorMatrix in="SourceGraphic" type="matrix" values="0 0 0 0 0.964706 0 0 0 0 0.854902 0 0 0 0 0.596078 0 0 0 1.000000 0"></feColorMatrix>
        </filter>
    </defs>
    <g id="icon_wallet_type_vnd" stroke="none" stroke-width="1" fill="none" fill-rule="evenodd">
        <g id="icon/usdt备份">
            <path d="M6,0 C9.3138,0 12,2.6862 12,6 C12,9.3138 9.3138,12 6,12 C2.6862,12 0,9.3138 0,6 C0,2.6862 2.6862,0 6,0 Z" id="路径" fill="#222222" fill-rule="nonzero"></path>
            <g filter="url(#filter-1)" id="越南盾KRW">
                <g transform="translate(3.428571, 2.142857)">
                    <path d="M0.0766650579,6.88984186 L4.53844112,6.88984186 L4.53844112,7.67434549 L0.0766650579,7.67434549 L0.0766650579,6.88984186 Z M4.48284266,0.666113045 L4.48284266,0.0123600182 L3.5168195,0.0123600182 L3.5168195,0.666113045 L1.97396236,0.666113045 L1.97396236,1.43754162 L3.5168195,1.43754162 L3.5168195,2.30703314 C3.23187741,1.93439392 2.75929054,1.75134307 2.07125965,1.75134307 C0.695197876,1.75134307 0.000217181467,2.56853435 0.000217181467,4.17022927 C0.000217181467,5.29468447 0.236510618,6.58911547 2.07125965,6.58911547 C2.75234073,6.58911547 3.28052606,6.37337697 3.56546815,5.98112515 L3.64886583,6.50412757 L4.48979247,6.50412757 L4.48979247,1.43754162 L5.13612452,1.43754162 L5.13612452,0.666113045 L4.48284266,0.666113045 Z M3.54461873,4.1767668 C3.54461873,5.34044719 3.16237934,5.7980743 2.18245656,5.7980743 C1.20948359,5.7980743 1.014889,5.20315905 1.014889,4.1767668 C1.014889,3.16998714 1.20948359,2.54892176 2.18245656,2.54892176 C3.14152992,2.54892176 3.54461873,3.032699 3.54461873,4.1767668 Z" id="形状" fill="#000000" fill-rule="nonzero"></path>
                </g>
            </g>
        </g>
    </g>
</svg>