<?xml version="1.0" encoding="UTF-8"?>
<svg width="8px" height="8px" viewBox="0 0 8 8" version="1.1" xmlns="http://www.w3.org/2000/svg" xmlns:xlink="http://www.w3.org/1999/xlink">
    <title>icon_detail_gift_cny</title>
    <g id="icon_detail_gift_cny" stroke="none" stroke-width="1" fill="none" fill-rule="evenodd">
        <g id="编组" fill-rule="nonzero">
            <g id="icon/usdt备份">
                <path d="M4,8 C1.790861,8 0,6.209139 0,4 C0,1.790861 1.790861,0 4,0 C6.209139,0 8,1.790861 8,4 C8,6.209139 6.209139,8 4,8 Z" id="路径" fill="#F6DA98"></path>
                <path d="M5.2386939,1.71428571 L5.71428571,2.30981623 L4.72371429,3.15528571 L5.64287997,3.15561924 L5.64287997,4.15561924 L4.62571429,4.15528571 L4.62571429,4.70028571 L5.64287997,4.70045903 L5.64287997,5.70045903 L4.62571429,5.70028571 L4.62660219,6.28571429 L3.62660219,6.28571429 L3.62571429,5.70028571 L2.315357,5.70045903 L2.315357,4.70045903 L3.62571429,4.70028571 L3.62571429,4.15528571 L2.315357,4.15561924 L2.315357,3.15561924 L3.27571429,3.15528571 L2.28571429,2.30981623 L2.7613061,1.71428571 L4,2.77247676 L5.2386939,1.71428571 Z" id="形状结合" fill="#222222"></path>
            </g>
        </g>
    </g>
</svg>