<?xml version="1.0" encoding="UTF-8"?>
<svg width="8px" height="8px" viewBox="0 0 8 8" version="1.1" xmlns="http://www.w3.org/2000/svg" xmlns:xlink="http://www.w3.org/1999/xlink">
    <title>icon_detail_gift_vnd</title>
    <defs>
        <filter id="filter-1">
            <feColorMatrix in="SourceGraphic" type="matrix" values="0 0 0 0 0.133333 0 0 0 0 0.133333 0 0 0 0 0.133333 0 0 0 1.000000 0"></feColorMatrix>
        </filter>
    </defs>
    <g id="icon_detail_gift_vnd" stroke="none" stroke-width="1" fill="none" fill-rule="evenodd">
        <g id="icon/usdt">
            <path d="M4,0 C6.2092,0 8,1.7908 8,4 C8,6.2092 6.2092,8 4,8 C1.7908,8 0,6.2092 0,4 C0,1.7908 1.7908,0 4,0 Z" id="路径" fill="#F6DA98" fill-rule="nonzero"></path>
            <g filter="url(#filter-1)" id="越南盾KRW">
                <g transform="translate(2.285714, 1.428571)">
                    <path d="M0.0511100386,4.59322791 L3.02562741,4.59322791 L3.02562741,5.11623033 L0.0511100386,5.11623033 L0.0511100386,4.59322791 Z M2.98856178,0.444075363 L2.98856178,0.00824001211 L2.34454633,0.00824001211 L2.34454633,0.444075363 L1.3159749,0.444075363 L1.3159749,0.958361077 L2.34454633,0.958361077 L2.34454633,1.53802209 C2.15458494,1.28959594 1.83952703,1.16756205 1.38083977,1.16756205 C0.463465251,1.16756205 0.000144787645,1.71235623 0.000144787645,2.78015285 C0.000144787645,3.52978965 0.157673745,4.39274364 1.38083977,4.39274364 C1.83489382,4.39274364 2.18701737,4.24891798 2.37697876,3.98741677 L2.43257722,4.33608505 L2.99319498,4.33608505 L2.99319498,0.958361077 L3.42408301,0.958361077 L3.42408301,0.444075363 L2.98856178,0.444075363 Z M2.36307915,2.7845112 C2.36307915,3.56029812 2.1082529,3.86538287 1.45497104,3.86538287 C0.806322394,3.86538287 0.676592664,3.4687727 0.676592664,2.7845112 C0.676592664,2.11332476 0.806322394,1.69928117 1.45497104,1.69928117 C2.09435328,1.69928117 2.36307915,2.02179933 2.36307915,2.7845112 Z" id="形状" fill="#000000" fill-rule="nonzero"></path>
                </g>
            </g>
        </g>
    </g>
</svg>