<?xml version="1.0" encoding="UTF-8"?>
<svg width="26px" height="16px" viewBox="0 0 26 16" version="1.1" xmlns="http://www.w3.org/2000/svg" xmlns:xlink="http://www.w3.org/1999/xlink">
    <title>icon_language_normal</title>
    <g id="icon_language_normal" stroke="none" stroke-width="1" fill="none" fill-rule="evenodd">
        <path d="M0,0 L24,0 C25.1045695,-2.02906125e-16 26,0.8954305 26,2 L26,16 L26,16 L2,16 C0.8954305,16 1.3527075e-16,15.1045695 0,14 L0,0 L0,0 Z" id="矩形备份" fill="#5078FF"></path>
        <path d="M8.83333333,3 C9.26069653,3 9.61292263,3.32170016 9.66106022,3.73614906 L9.66666667,3.83333333 L9.66666667,7.44416667 L17.1666667,7.44444444 C17.5940299,7.44444444 17.946256,7.7661446 17.9943936,8.18059351 L18,8.27777778 C18,8.70514098 17.6782998,9.05736708 17.2638509,9.10550467 L17.1666667,9.11111111 L9,9.11111111 C8.44771525,9.11111111 8,8.66339586 8,8.11111111 L8,3.83333333 L8,3.83333333 C8,3.37309604 8.37309604,3 8.83333333,3 Z" id="路径备份" fill="#000000" fill-rule="nonzero" transform="translate(13.000000, 6.055556) rotate(-45.000000) translate(-13.000000, -6.055556) "></path>
    </g>
</svg>