<?xml version="1.0" encoding="UTF-8"?>
<svg width="12px" height="12px" viewBox="0 0 12 12" version="1.1" xmlns="http://www.w3.org/2000/svg" xmlns:xlink="http://www.w3.org/1999/xlink">
    <title>icon_wallet_type_money</title>
    <defs>
        <filter id="filter-1">
            <feColorMatrix in="SourceGraphic" type="matrix" values="0 0 0 0 0.964706 0 0 0 0 0.854902 0 0 0 0 0.596078 0 0 0 1.000000 0"></feColorMatrix>
        </filter>
    </defs>
    <g id="icon_wallet_type_money" stroke="none" stroke-width="1" fill="none" fill-rule="evenodd">
        <g id="icon/usdt备份">
            <path d="M6,0 C9.3138,0 12,2.6862 12,6 C12,9.3138 9.3138,12 6,12 C2.6862,12 0,9.3138 0,6 C0,2.6862 2.6862,0 6,0 Z" id="路径" fill="#222222" fill-rule="nonzero"></path>
            <g filter="url(#filter-1)" id="金币-2">
                <g transform="translate(2.571429, 2.571429)">
                    <path d="M1.74210006,2.91793313 C2.79542462,3.17846288 4.11208031,3.17846288 5.16540487,2.91793313 C6.21872944,2.65740338 6.85072416,2.1363439 6.85072416,1.56317846 C6.85072416,0.677377332 5.32340356,0 3.42741935,0 C1.53143515,0 0.00411455213,0.729483283 0.00411455213,1.56317846 C0.00411455213,2.1363439 0.636109289,2.65740338 1.74210006,2.91793313 Z M3.42741935,5.67954842 C1.95276498,5.67954842 0.741441741,5.26270082 0.214779457,4.68953539 C0.0567807748,4.84585323 0.00411455213,5.05427703 0.00411455213,5.26270082 C0.00411455213,6.096396 1.53143516,6.82587929 3.42741935,6.82587929 C5.32340355,6.82587929 6.85072416,6.14850196 6.85072416,5.26270082 C6.85072416,5.05427703 6.74539171,4.89795918 6.64005925,4.68953539 C6.11339698,5.26270082 4.90207373,5.67954842 3.42741935,5.67954842 Z" id="形状" fill="#FECA01" fill-rule="nonzero"></path>
                    <path d="M3.42741935,3.80373426 C1.95276498,3.80373426 0.741441741,3.38688667 0.214779457,2.81372124 C0.0567807748,3.02214503 0.00411455213,3.17846288 0.00411455213,3.38688667 C0.00411455213,4.22058184 1.53143516,4.95006513 3.42741935,4.95006513 C5.32340355,4.95006513 6.85072416,4.2726878 6.85072416,3.38688667 C6.85072416,3.17846287 6.74539171,3.02214503 6.64005925,2.81372124 C6.11339698,3.38688667 4.90207373,3.80373427 3.42741935,3.80373426 Z" id="路径" fill="#FECA01" fill-rule="nonzero"></path>
                </g>
            </g>
        </g>
    </g>
</svg>