<?xml version="1.0" encoding="UTF-8"?>
<svg width="8px" height="8px" viewBox="0 0 8 8" version="1.1" xmlns="http://www.w3.org/2000/svg" xmlns:xlink="http://www.w3.org/1999/xlink">
    <title>icon_detail_gift_usdt</title>
    <g id="icon_detail_gift_usdt" stroke="none" stroke-width="1" fill="none" fill-rule="evenodd">
        <g id="编组" fill-rule="nonzero">
            <g id="icon/usdt">
                <path d="M0,4 C0,6.209139 1.790861,8 4,8 C6.209139,8 8,6.209139 8,4 C8,1.790861 6.209139,0 4,0 C1.790861,0 0,1.790861 0,4 Z" id="路径" fill="#F6DA98"></path>
                <path d="M4.4805,4.34575 L4.4805,4.34525 C4.453,4.34725 4.31125,4.35575 3.995,4.35575 C3.7425,4.35575 3.56475,4.34825 3.50225,4.34525 L3.50225,4.346 C2.53025,4.30325 1.80475,4.134 1.80475,3.9315 C1.80475,3.72925 2.53025,3.56 3.50225,3.5165 L3.50225,4.1775 C3.56575,4.182 3.74775,4.19275 3.99925,4.19275 C4.301,4.19275 4.45225,4.18025 4.4805,4.17775 L4.4805,3.517 C5.4505,3.56025 6.17425,3.7295 6.17425,3.9315 C6.17425,4.134 5.4505,4.30275 4.4805,4.34575 M4.4805,3.44825 L4.4805,2.85675 L5.834,2.85675 L5.834,1.95475 L2.14875,1.95475 L2.14875,2.85675 L3.50225,2.85675 L3.50225,3.448 C2.40225,3.4985 1.575,3.7165 1.575,3.9775 C1.575,4.2385 2.40225,4.45625 3.50225,4.507 L3.50225,6.4025 L4.4805,6.4025 L4.4805,4.5065 C5.57875,4.456 6.404,4.23825 6.404,3.9775 C6.404,3.71675 5.57875,3.499 4.4805,3.44825" id="形状" fill="#222222"></path>
            </g>
        </g>
    </g>
</svg>