<?xml version="1.0" encoding="UTF-8"?>
<svg width="12px" height="12px" viewBox="0 0 12 12" version="1.1" xmlns="http://www.w3.org/2000/svg" xmlns:xlink="http://www.w3.org/1999/xlink">
    <title>icon_wallet_type_thb</title>
    <g id="icon_wallet_type_thb" stroke="none" stroke-width="1" fill="none" fill-rule="evenodd">
        <g id="icon/usdt备份" fill-rule="nonzero">
            <path d="M6,0 C9.3138,0 12,2.6862 12,6 C12,9.3138 9.3138,12 6,12 C2.6862,12 0,9.3138 0,6 C0,2.6862 2.6862,0 6,0 Z" id="路径" fill="#222222"></path>
            <path d="M8.55279503,7.20535714 C8.55279503,8.40361781 7.61426151,9.375 6.45652174,9.375 L6.22360248,9.375 L6.22360248,9.85714286 L5.29192547,9.85714286 L5.29192547,9.375 L3.42857143,9.375 L3.42857143,2.625 L5.29192547,2.625 L5.29192547,2.14285714 L6.22360248,2.14285714 L6.22360248,2.625 L6.45652174,2.625 C7.35698601,2.625 8.08695652,3.38051948 8.08695652,4.3125 C8.08695652,4.74642857 7.92437888,5.13792857 7.66444099,5.43685714 C8.22093505,5.84164496 8.55232925,6.5013714 8.55279503,7.20535714 Z M4.36024845,8.41071429 L5.29192547,8.41071429 L5.29192547,6 L4.36024845,6 L4.36024845,8.41071429 Z M4.36024845,3.58928571 L4.36024845,5.03571429 L5.29192547,5.03571429 L5.29192547,3.58928571 L4.36024845,3.58928571 Z M6.45652174,3.58928571 L6.22360248,3.58928571 L6.22360248,5.03571429 L6.45652174,5.03571429 C6.842435,5.03571429 7.1552795,4.71192022 7.1552795,4.3125 C7.1552795,3.91307978 6.842435,3.58928571 6.45652174,3.58928571 Z M6.45652174,6 L6.22360248,6 L6.22360248,8.41071429 L6.45652174,8.41071429 C7.0997105,8.41071429 7.62111801,7.87105751 7.62111801,7.20535714 C7.62111801,6.53965677 7.0997105,6 6.45652174,6 Z" id="形状" fill="#F6DA98"></path>
        </g>
    </g>
</svg>