<?xml version="1.0" encoding="UTF-8"?>
<svg width="12px" height="12px" viewBox="0 0 12 12" version="1.1" xmlns="http://www.w3.org/2000/svg" xmlns:xlink="http://www.w3.org/1999/xlink">
    <title>icon_wallet_type_usdt</title>
    <g id="icon_wallet_type_usdt" stroke="none" stroke-width="1" fill="none" fill-rule="evenodd">
        <g id="编组" fill-rule="nonzero">
            <g id="icon/usdt备份-2">
                <path d="M0,6 C0,9.3137085 2.6862915,12 6,12 C9.3137085,12 12,9.3137085 12,6 C12,2.6862915 9.3137085,0 6,0 C2.6862915,0 0,2.6862915 0,6 Z" id="路径" fill="#222222"></path>
                <path d="M6.72075,6.518625 L6.72075,6.517875 C6.6795,6.520875 6.466875,6.533625 5.9925,6.533625 C5.61375,6.533625 5.347125,6.522375 5.253375,6.517875 L5.253375,6.519 C3.795375,6.454875 2.707125,6.201 2.707125,5.89725 C2.707125,5.593875 3.795375,5.34 5.253375,5.27475 L5.253375,6.26625 C5.348625,6.273 5.621625,6.289125 5.998875,6.289125 C6.4515,6.289125 6.678375,6.270375 6.72075,6.266625 L6.72075,5.2755 C8.17575,5.340375 9.261375,5.59425 9.261375,5.89725 C9.261375,6.201 8.17575,6.454125 6.72075,6.518625 M6.72075,5.172375 L6.72075,4.285125 L8.751,4.285125 L8.751,2.932125 L3.223125,2.932125 L3.223125,4.285125 L5.253375,4.285125 L5.253375,5.172 C3.603375,5.24775 2.3625,5.57475 2.3625,5.96625 C2.3625,6.35775 3.603375,6.684375 5.253375,6.7605 L5.253375,9.60375 L6.72075,9.60375 L6.72075,6.75975 C8.368125,6.684 9.606,6.357375 9.606,5.96625 C9.606,5.575125 8.368125,5.2485 6.72075,5.172375" id="形状" fill="#F6DA98"></path>
            </g>
        </g>
    </g>
</svg>