<?xml version="1.0" encoding="UTF-8"?>
<svg width="8px" height="8px" viewBox="0 0 8 8" version="1.1" xmlns="http://www.w3.org/2000/svg" xmlns:xlink="http://www.w3.org/1999/xlink">
    <title>icon_detail_gift_money</title>
    <defs>
        <filter id="filter-1">
            <feColorMatrix in="SourceGraphic" type="matrix" values="0 0 0 0 0.133333 0 0 0 0 0.133333 0 0 0 0 0.133333 0 0 0 1.000000 0"></feColorMatrix>
        </filter>
    </defs>
    <g id="icon_detail_gift_money" stroke="none" stroke-width="1" fill="none" fill-rule="evenodd">
        <g id="icon/usdt">
            <path d="M4,0 C6.2092,0 8,1.7908 8,4 C8,6.2092 6.2092,8 4,8 C1.7908,8 0,6.2092 0,4 C0,1.7908 1.7908,0 4,0 Z" id="路径" fill="#F6DA98" fill-rule="nonzero"></path>
            <g filter="url(#filter-1)" id="金币-2">
                <g transform="translate(1.714286, 1.714286)">
                    <path d="M1.16140004,1.94528875 C1.86361641,2.11897525 2.74138688,2.11897525 3.44360325,1.94528875 C4.14581962,1.77160226 4.56714944,1.42422926 4.56714944,1.04211897 C4.56714944,0.451584888 3.5489357,0 2.28494624,0 C1.02095677,0 0.00274303475,0.486322188 0.00274303475,1.04211897 C0.00274303475,1.42422926 0.424072859,1.77160226 1.16140004,1.94528875 Z M2.28494624,3.78636561 C1.30184332,3.78636561 0.494294494,3.50846722 0.143186305,3.12635692 C0.0378538498,3.23056882 0.00274303475,3.36951802 0.00274303475,3.50846722 C0.00274303475,4.064264 1.02095677,4.55058619 2.28494624,4.55058619 C3.5489357,4.55058619 4.56714944,4.09900131 4.56714944,3.50846722 C4.56714944,3.36951802 4.4969278,3.26530612 4.42670617,3.12635692 C4.07559798,3.50846722 3.26804916,3.78636561 2.28494624,3.78636561 Z" id="形状" fill="#FECA01" fill-rule="nonzero"></path>
                    <path d="M2.28494624,2.53582284 C1.30184332,2.53582284 0.494294494,2.25792444 0.143186305,1.87581416 C0.0378538498,2.01476335 0.00274303475,2.11897525 0.00274303475,2.25792444 C0.00274303475,2.81372123 1.02095677,3.30004342 2.28494624,3.30004342 C3.5489357,3.30004342 4.56714944,2.84845853 4.56714944,2.25792444 C4.56714944,2.11897525 4.4969278,2.01476335 4.42670617,1.87581416 C4.07559798,2.25792445 3.26804916,2.53582284 2.28494624,2.53582284 Z" id="路径" fill="#FECA01" fill-rule="nonzero"></path>
                </g>
            </g>
        </g>
    </g>
</svg>