<?xml version="1.0" encoding="UTF-8"?>
<svg width="28px" height="28px" viewBox="0 0 28 28" version="1.1" xmlns="http://www.w3.org/2000/svg" xmlns:xlink="http://www.w3.org/1999/xlink">
    <!-- Generator: Sketch 55.2 (78181) - https://sketchapp.com -->
    <title>icon_personal_day_normal</title>
    <desc>Created with Sketch.</desc>
    <g id="icon_personal_day_normal" stroke="none" stroke-width="1" fill="none" fill-rule="evenodd">
        <g id="ico-/个人中心/浅色" fill="#5078FF">
            <path d="M14,28 C6.2680135,28 0,21.7319865 0,14 C0,6.2680135 6.2680135,0 14,0 C21.7319865,0 28,6.2680135 28,14 C28,21.7319865 21.7319865,28 14,28 Z M5.81245996,19.38754 C7.565182,22.0458078 10.5777342,23.8 14,23.8 C19.4123905,23.8 23.8,19.4123905 23.8,14 C23.8,10.5777342 22.0458078,7.565182 19.38754,5.81245996 C20.4067875,7.35830266 21,9.20987522 21,11.2 C21,16.6123905 16.6123905,21 11.2,21 C9.20987522,21 7.35830266,20.4067875 5.81245996,19.38754 Z M7,16.8 C7.77319865,16.8 8.4,16.1731986 8.4,15.4 C8.4,14.6268014 7.77319865,14 7,14 C6.22680135,14 5.6,14.6268014 5.6,15.4 C5.6,16.1731986 6.22680135,16.8 7,16.8 Z" id="形状结合"></path>
        </g>
    </g>
</svg>