<?xml version="1.0" encoding="UTF-8"?>
<svg width="28px" height="28px" viewBox="0 0 28 28" version="1.1" xmlns="http://www.w3.org/2000/svg" xmlns:xlink="http://www.w3.org/1999/xlink">
    <!-- Generator: Sketch 55.2 (78181) - https://sketchapp.com -->
    <title>icon_personal_leader_normal</title>
    <desc>Created with Sketch.</desc>
    <g id="icon_personal_leader_normal" stroke="none" stroke-width="1" fill="none" fill-rule="evenodd">
        <g id="ico-/个人中心/新手教程" fill-rule="nonzero">
            <path d="M23.69913,19.8917543 L23.699354,19.8917543 L23.688154,19.8917543 C23.6892695,20.2495259 23.4046221,20.5405438 23.052218,20.5419228 L7.092218,20.5419228 C6.21324374,20.5493866 5.50456879,21.2748964 5.50456879,22.1672873 C5.50456879,23.0596782 6.21324374,23.785188 7.092218,23.7926518 L23.052218,23.7926518 C23.40591,23.7926518 23.692634,24.0837421 23.692634,24.4428203 C23.692634,24.8018985 23.40591,25.0929888 23.052218,25.0929888 L7.092218,25.0929888 C5.50708279,25.0854073 4.22710754,23.7766316 4.230954,22.1673442 L4.21146033,22.1673442 L4.21146033,4.75572183 C4.20892244,3.68284886 5.0622786,2.81034263 6.11905,2.80532995 L23.69913,2.80532995 L23.69913,19.8917543 Z M22.427482,4.10566701 L6.118938,4.10566701 C5.76666535,4.10717126 5.48217224,4.39808305 5.48322308,4.75572183 L5.48322308,19.7495086 C5.95635283,19.4183584 6.51754928,19.2412409 7.092218,19.2416995 L22.427482,19.2416995 L22.427482,4.10566701 Z" id="形状结合" fill="#353535"></path>
            <path d="M23.051882,22.8175127 L7.126154,22.8175127 C6.77579557,22.8128085 6.49420697,22.523126 6.49420697,22.167401 C6.49420697,21.8116761 6.77579557,21.5219935 7.126154,21.5172893 L23.051882,21.5172893 C23.4022404,21.5219935 23.683829,21.8116761 23.683829,22.167401 C23.683829,22.523126 23.4022404,22.8128085 23.051882,22.8175127 L23.051882,22.8175127 Z" id="路径" fill="#353535"></path>
            <path d="M14.61705,17.2552635 C14.5688481,17.2552635 14.5207116,17.2516627 14.473018,17.2445746 C14.0381756,17.1830235 13.7022996,16.8256425 13.662138,16.3817766 L13.21705,12.0664223 L8.996666,11.6116 C8.56221559,11.561716 8.21552758,11.2206958 8.1526935,10.7814252 C8.08985942,10.3421545 8.32668154,9.91510651 8.72921,9.74182538 L18.191418,5.70482234 C18.5482804,5.55169336 18.9610476,5.63505336 19.233018,5.91517766 C19.5073142,6.19540406 19.5885769,6.61566615 19.438986,6.98037157 L15.49065,16.6546701 C15.348154,17.0176668 15.0019503,17.255679 14.61705,17.2552635 Z M10.367658,10.4521442 L13.606474,10.8008792 C14.0547442,10.8523432 14.4075906,11.2131158 14.455098,11.6685665 L14.79625,14.9801279 L17.967642,7.20937462 L10.367658,10.4521442 Z" id="形状结合" fill="#5078FF"></path>
        </g>
    </g>
</svg>