<?xml version="1.0" encoding="UTF-8"?>
<svg width="14px" height="14px" viewBox="0 0 14 14" version="1.1" xmlns="http://www.w3.org/2000/svg" xmlns:xlink="http://www.w3.org/1999/xlink">
    <!-- Generator: Sketch 55.2 (78181) - https://sketchapp.com -->
    <title>icon_personal_edit_normal</title>
    <desc>Created with Sketch.</desc>
    <g id="icon_personal_edit_normal" stroke="none" stroke-width="1" fill="none" fill-rule="evenodd">
        <path d="M4.72759779,9.1459938 L4.72839779,9.14679379 C4.84665336,9.2648495 5.00696533,9.33108924 5.17406252,9.33093946 C5.3411597,9.33078918 5.50135247,9.26426167 5.61939586,9.1459938 L12.517181,2.24919904 C12.7636034,2.00245471 12.7636034,1.60274407 12.517181,1.35599973 L12.515181,1.35379973 C12.3967582,1.23584158 12.2363138,1.16977862 12.0691675,1.17015213 C11.9020212,1.17052883 11.741875,1.23731125 11.6239829,1.35579973 L4.72759779,8.25279448 C4.48104218,8.49956177 4.48104218,8.89942649 4.72759779,9.14619379 L4.72759779,9.1459938 Z M12.3685813,6.05239615 L12.3657813,6.05239615 C12.0186616,6.05250655 11.737293,6.33387548 11.7371826,6.68099567 L11.7371826,11.7369918 L2.26340311,11.7369918 L2.26340311,2.26099903 L7.31879219,2.26339903 L7.31939219,2.26339903 C7.48647848,2.26286944 7.64651087,2.19598624 7.76428364,2.07746316 C7.88205641,1.95894008 7.9479221,1.79848604 7.94739083,1.63139952 L7.94739083,1.62879952 C7.9473909,1.28167928 7.66611186,1.00022081 7.31899218,1 L1.62740449,1 C1.46020486,1 1.30000519,1.06679995 1.18200545,1.18519986 C1.0649729,1.30279352 0.999497217,1.46209393 1.00000291,1.62799952 L1.00000291,12.3723913 C1.00075255,12.5394577 1.06720621,12.6995215 1.18500544,12.817991 C1.30268453,12.9351407 1.46215636,13.0006279 1.62820449,13 L12.3725813,13 C12.5396474,12.9992442 12.6997109,12.9327904 12.8181803,12.814991 C12.9352917,12.6970574 13.0006973,12.5373928 12.9999857,12.3711913 L12.9999857,6.68119567 C12.9992075,6.333224 12.7165527,6.05173271 12.3685813,6.05239615 L12.3685813,6.05239615 Z" id="形状" fill="#4E2E09"></path>
    </g>
</svg>