<?xml version="1.0" encoding="UTF-8"?>
<svg width="32px" height="32px" viewBox="0 0 32 32" version="1.1" xmlns="http://www.w3.org/2000/svg" xmlns:xlink="http://www.w3.org/1999/xlink">
    <!-- Generator: Sketch 55.2 (78181) - https://sketchapp.com -->
    <title>icon_personal_wallet_normal</title>
    <desc>Created with Sketch.</desc>
    <g id="icon_personal_wallet_normal" stroke="none" stroke-width="1" fill="none" fill-rule="evenodd">
        <g id="ico/个人中心/钱包">
            <circle id="椭圆形" fill="#5078FF" fill-rule="evenodd" cx="8.8" cy="23.2" r="5.6"></circle>
            <path d="M23.160232,17.2981593 L28,17.2981593 C28.4418278,17.2981593 28.8,16.9399871 28.8,16.4981593 L28.8,12.8 C28.8,11.0326888 27.3673112,9.6 25.6,9.6 L6.4,9.6 C4.6326888,9.6 3.2,11.0326888 3.2,12.8 L3.2,25.6 C3.2,27.3673112 4.6326888,28.8 6.4,28.8 L25.6,28.8 C27.3673112,28.8 28.8,27.3673112 28.8,25.6 L28.8,21.8471133 C28.8,21.4052855 28.4418278,21.0471133 28,21.0471133 L23.160232,21.0471133 C22.1249869,21.0471133 21.285755,20.2078813 21.285755,19.1726363 C21.285755,18.1373913 22.1249869,17.2981593 23.160232,17.2981593 Z M27.2,25.6 C27.2,26.4836556 26.4836556,27.2 25.6,27.2 L6.4,27.2 C5.5163444,27.2 4.8,26.4836556 4.8,25.6 L4.8,12.8 C4.8,11.9163444 5.5163444,11.2 6.4,11.2 L25.6,11.2 C26.4836556,11.2 27.2,11.9163444 27.2,12.8 L27.2,15.6981593 L23.160232,15.6981593 C21.2413313,15.6981593 19.685755,17.2537357 19.685755,19.1726363 C19.685755,21.0915369 21.2413313,22.6471133 23.160232,22.6471133 L27.2,22.6471133 L27.2,25.6 Z" id="路径-22" fill="#353535" fill-rule="nonzero"></path>
            <path d="M8.39871671,8.93301564 L11.1757193,5.02415257 C11.3952553,4.70569996 11.8111832,4.58992139 12.1636849,4.74914038 L20.9442708,8.93301564 L24.6073623,8.93301564 L12.8223085,3.29098574 C11.7648035,2.81332875 10.5170197,3.16066448 9.85841165,4.1160223 L6.4,8.93301564 L8.39871671,8.93301564 Z" id="路径-25" fill="#353535" fill-rule="nonzero"></path>
            <circle id="椭圆形" fill="#353535" fill-rule="evenodd" cx="23.2" cy="19.2" r="1"></circle>
        </g>
    </g>
</svg>