<?xml version="1.0" encoding="UTF-8"?>
<svg width="16px" height="16px" viewBox="0 0 16 16" version="1.1" xmlns="http://www.w3.org/2000/svg" xmlns:xlink="http://www.w3.org/1999/xlink">
    <!-- Generator: Sketch 55.2 (78181) - https://sketchapp.com -->
    <title>icon_personal_refresh_normal</title>
    <desc>Created with Sketch.</desc>
    <g id="icon_personal_refresh_normal" stroke="none" stroke-width="1" fill="none" fill-rule="evenodd">
        <g id="ico/个人中心/刷新" fill="#222222">
            <path d="M10.3257386,10.8677953 L9.08673634,12.7491272 C11.4702997,12.2462311 13.2677798,10.1241599 13.2677798,7.59431045 C13.2677798,6.27362836 12.7639711,4.99495578 11.8534668,4.00576599 C11.6494515,3.78411975 11.6637442,3.43905291 11.8853905,3.23503763 C12.1070367,3.03102234 12.4521036,3.04531505 12.6561188,3.26696129 C13.751119,4.4565911 14.3586889,5.99861068 14.3586889,7.59431045 C14.3586889,11.0990199 11.5047094,13.9529994 8,13.9529994 C7.56573561,13.9529994 7.30560916,13.4702153 7.54446075,13.1075371 L9.41466013,10.2677798 C9.58034984,10.0161924 9.91861976,9.94655855 10.1702071,10.1122483 C10.4217945,10.277938 10.4914283,10.6162079 10.3257386,10.8677953 Z M5.66840509,4.72156483 L6.90740738,2.84023289 C4.523844,3.34312899 2.72636388,5.46520019 2.72636388,7.99504965 C2.72636388,9.31573174 3.23017266,10.5944043 4.1406769,11.5835941 C4.34469219,11.8052403 4.33039948,12.1503072 4.10875324,12.3543225 C3.88710701,12.5583378 3.54204017,12.544045 3.33802488,12.3223988 C2.24302472,11.132769 1.63545479,9.59074942 1.63545479,7.99504965 C1.63545479,4.49034022 4.48943429,1.63636072 7.99414372,1.63636072 C8.42840811,1.63636072 8.68853456,2.11914482 8.44968297,2.48182302 L6.57948358,5.32158035 C6.41379388,5.57316773 6.07552396,5.64280155 5.82393658,5.47711184 C5.5723492,5.31142213 5.50271538,4.97315221 5.66840509,4.72156483 Z" id="形状结合"></path>
        </g>
    </g>
</svg>