<?xml version="1.0" encoding="UTF-8"?>
<svg width="28px" height="28px" viewBox="0 0 28 28" version="1.1" xmlns="http://www.w3.org/2000/svg" xmlns:xlink="http://www.w3.org/1999/xlink">
    <!-- Generator: Sketch 55.2 (78181) - https://sketchapp.com -->
    <title>icon_personal_setting_normal</title>
    <desc>Created with Sketch.</desc>
    <g id="icon_personal_setting_normal" stroke="none" stroke-width="1" fill="none" fill-rule="evenodd">
        <g id="ico/个人主页/设置" fill-rule="nonzero">
            <path d="M19.2700993,23.6250003 L8.73016799,23.6250003 C8.55676018,23.6251975 8.39645205,23.530965 8.3097482,23.3778685 L3.03995568,14.0719552 C2.95334854,13.9190297 2.95334854,13.7306177 3.03995568,13.5776922 L8.31009449,4.27213186 C8.39673655,4.11914469 8.55688387,4.02499998 8.73016799,4.02499998 L19.2700993,4.02499998 C19.4430405,4.0255428 19.6027023,4.11962786 19.6894802,4.27213186 L24.9603117,13.5787513 C25.0465632,13.7317737 25.0465632,13.9199919 24.9603117,14.0730143 L19.6901728,23.3778685 C19.6032187,23.5305371 19.443269,23.6246363 19.2700993,23.6250003 Z M23.4913318,13.8258727 L18.7334757,5.42499998 L9.26610673,5.42499998 L4.5089125,13.8248466 L9.26578738,22.225 L18.7341809,22.225 L23.4913318,13.8258727 Z" id="路径" fill="#353535" transform="translate(14.000000, 13.825000) rotate(90.000000) translate(-14.000000, -13.825000) "></path>
            <path d="M14,18.41875 C16.5370581,18.41875 18.59375,16.3620581 18.59375,13.825 C18.59375,11.2879419 16.5370581,9.23125 14,9.23125 C11.4629419,9.23125 9.40625,11.2879419 9.40625,13.825 C9.40625,16.3620581 11.4629419,18.41875 14,18.41875 Z M14,17.01875 C12.2361406,17.01875 10.80625,15.5888594 10.80625,13.825 C10.80625,12.0611406 12.2361406,10.63125 14,10.63125 C15.7638594,10.63125 17.19375,12.0611406 17.19375,13.825 C17.19375,15.5888594 15.7638594,17.01875 14,17.01875 Z" id="路径" fill="#5078FF" transform="translate(14.000000, 13.825000) rotate(90.000000) translate(-14.000000, -13.825000) "></path>
        </g>
    </g>
</svg>