<?xml version="1.0" encoding="UTF-8"?>
<svg width="32px" height="32px" viewBox="0 0 32 32" version="1.1" xmlns="http://www.w3.org/2000/svg" xmlns:xlink="http://www.w3.org/1999/xlink">
    <!-- Generator: Sketch 55.2 (78181) - https://sketchapp.com -->
    <title>icon_personal_fellow_normal</title>
    <desc>Created with Sketch.</desc>
    <g id="icon_personal_fellow_normal" stroke="none" stroke-width="1" fill="none" fill-rule="evenodd">
        <g id="ico-/个人中心/关注">
            <circle id="椭圆形" fill="#5078FF" fill-rule="evenodd" cx="18.4" cy="16.8" r="5.6"></circle>
            <path d="M4.59236154,16.8762477 C3.17760525,15.4533893 2.4,13.5613803 2.4,11.5455465 C2.4,9.52952056 3.17774029,7.63756785 4.59291017,6.21429396 C6.01594152,4.78311358 7.89527069,4 9.90898591,4 C11.9041422,4 13.7592093,4.76587533 15.1883254,6.17727808 L15.9962685,6.97520694 L16.8077902,6.18109666 C18.2366426,4.78290065 20.1078441,4.01486868 22.0910141,4.01486868 C24.1047293,4.01486868 25.9840585,4.79798226 27.4045381,6.22660786 C28.8212359,7.63861435 29.6,9.52781564 29.6,11.5455465 C29.6,13.5571774 28.8253324,15.4355662 27.4070898,16.8619304 L17.1339534,27.1938962 C16.5109011,27.8205165 15.4978413,27.8234088 14.871221,27.2003565 L4.59236154,16.8762477 Z M5.7265871,15.7477389 L15.9993571,26.0657601 L26.2724934,15.7337943 C27.3926061,14.6072673 28,13.1344783 28,11.5455465 C28,9.95163222 27.389497,8.47061485 26.2724934,7.35729872 C25.1494983,6.22787275 23.6784008,5.61486868 22.0910141,5.61486868 C20.5274543,5.61486868 19.0575794,6.21817673 17.9268267,7.32466882 L17.115305,8.1187791 C16.4913417,8.72935513 15.4931181,8.7270554 14.8719747,8.11361086 L14.0640317,7.315682 C12.9335826,6.19924448 11.4821209,5.6 9.90898591,5.6 C8.32159918,5.6 6.85050167,6.21300408 5.72750656,7.34243005 C4.61093023,8.46540048 4,9.95156639 4,11.5455465 C4,13.1393754 4.61082443,14.6255862 5.7265871,15.7477389 Z" id="路径" fill="#353535" fill-rule="nonzero"></path>
            <path d="M17.3306806,21.7823448 L22.2759458,17.3986638 C22.6065737,17.105582 22.6370109,16.5999653 22.343929,16.2693373 C22.0508472,15.9387094 21.5452305,15.9082723 21.2146026,16.2013541 L16.2693373,20.5850351 C15.9387094,20.8781169 15.9082723,21.3837336 16.2013541,21.7143616 C16.494436,22.0449895 17.0000526,22.0754266 17.3306806,21.7823448 Z" id="路径-26" fill="#353535" fill-rule="nonzero" transform="translate(19.272642, 18.991849) rotate(-3.000000) translate(-19.272642, -18.991849) "></path>
        </g>
    </g>
</svg>