<?xml version="1.0" encoding="UTF-8"?>
<svg width="28px" height="28px" viewBox="0 0 28 28" version="1.1" xmlns="http://www.w3.org/2000/svg" xmlns:xlink="http://www.w3.org/1999/xlink">
    <!-- Generator: Sketch 55.2 (78181) - https://sketchapp.com -->
    <title>icon_personal_betsetting_normal</title>
    <desc>Created with Sketch.</desc>
    <g id="icon_personal_betsetting_normal" stroke="none" stroke-width="1" fill="none" fill-rule="evenodd">
        <g id="ico/个人主页/投注设置">
            <g id="编组" transform="translate(2.100000, 2.100000)">
                <path d="M15.0555911,9.70191083 L11.1015974,13.6433121 C10.9495208,13.7949045 10.7974441,13.8707006 10.5693291,13.8707006 C10.1891374,13.8707006 9.80894569,13.5675159 9.80894569,13.1127389 C9.80894569,12.8853503 9.88498403,12.733758 10.0370607,12.5821656 L13.9910543,8.64076433 L13.8389776,3.8656051 L17.5648562,0.151592357 C17.7169329,0.0757961783 17.8690096,1.7408297e-13 18.0210863,1.7408297e-13 C18.3252396,1.7408297e-13 18.4773163,0.227388535 18.5533546,0.45477707 L18.7054313,5.07834395 L23.34377,5.22993631 C23.6479233,5.22993631 23.8,5.45732484 23.8,5.76050955 C23.8,5.91210191 23.7239617,5.98789809 23.6479233,6.13949045 L19.8460064,9.85350318 L15.0555911,9.70191083 Z M15.3597444,4.47197452 L15.4357827,8.18598726 L19.1616613,8.33757962 L20.8345048,6.67006369 L17.1086262,6.59426752 L17.0325879,2.88025478 L15.3597444,4.47197452 Z" id="形状结合" fill="#5078FF" fill-rule="nonzero"></path>
                <path d="M15.3597444,12.6579618 L15.3597444,12.4305732 C15.3597444,12.0515924 15.6638978,11.6726115 16.1201278,11.6726115 C16.5003195,11.6726115 16.8044728,11.9757962 16.8805112,12.3547771 C16.9565495,12.6579618 16.9565495,13.0369427 16.9565495,13.3401274 C16.9565495,16.9025478 14.0670927,19.7828025 10.4932907,19.7828025 C6.91948882,19.7828025 4.03003195,16.9025478 4.03003195,13.3401274 C4.03003195,9.77770701 6.91948882,6.97324841 10.4172524,6.97324841 L11.1776358,6.97324841 C11.4817891,7.04904459 11.7099042,7.3522293 11.7099042,7.65541401 C11.7099042,8.0343949 11.4057508,8.4133758 10.9495208,8.4133758 L10.4172524,8.4133758 C7.6798722,8.4133758 5.47476038,10.611465 5.47476038,13.3401274 C5.47476038,16.0687898 7.6798722,18.266879 10.4172524,18.266879 C13.1546326,18.266879 15.3597444,16.0687898 15.3597444,13.3401274 C15.4357827,13.1127389 15.3597444,12.8853503 15.3597444,12.6579618 Z" id="路径" fill="#353535" fill-rule="nonzero"></path>
                <path d="M19.2376997,11.8242038 L19.2376997,11.7484076 C19.2376997,11.3694268 19.541853,10.9904459 19.9980831,10.9904459 C20.3022364,10.9904459 20.6063898,11.2178344 20.6824281,11.5210191 L20.6824281,11.6726115 C20.7584665,12.2789809 20.8345048,12.8095541 20.8345048,13.4159236 C20.8345048,19.1764331 16.1961661,23.8 10.4172524,23.8 C4.63833866,23.8 1.67599268e-12,19.1006369 1.67599268e-12,13.4159236 C1.67599268e-12,7.73121019 4.714377,2.95605096 10.4172524,2.95605096 C10.9495208,2.95605096 11.4817891,3.03184713 12.0140575,3.10764331 L12.1661342,3.10764331 C12.4702875,3.25923567 12.6984026,3.4866242 12.6984026,3.8656051 C12.6984026,4.24458599 12.3942492,4.62356688 11.9380192,4.62356688 L11.7859425,4.62356688 C11.3297125,4.5477707 10.8734824,4.47197452 10.4172524,4.47197452 C5.47476038,4.47197452 1.44472843,8.48917197 1.44472843,13.4159236 C1.44472843,18.3426752 5.55079872,22.2840764 10.4172524,22.2840764 C15.2837061,22.2840764 19.3897764,18.266879 19.3897764,13.3401274 C19.3897764,12.8095541 19.313738,12.2789809 19.2376997,11.8242038 Z" id="路径" fill="#353535" fill-rule="nonzero"></path>
            </g>
        </g>
    </g>
</svg>