<?xml version="1.0" encoding="UTF-8"?>
<svg width="24px" height="24px" viewBox="0 0 24 24" version="1.1" xmlns="http://www.w3.org/2000/svg" xmlns:xlink="http://www.w3.org/1999/xlink">
    <title>icon_mine_clearcookie_normal</title>
    <g id="icon_mine_clearcookie_normal" stroke="none" stroke-width="1" fill="none" fill-rule="evenodd">
        <g id="编组" fill-rule="nonzero">
            <g id="/钱包">
                <path d="M11.2767646,12.3636439 C11.4944854,12.1138353 11.8734927,12.087823 12.1233013,12.3055438 C12.3731099,12.5232645 12.3991222,12.9022719 12.1814014,13.1520805 C11.1142832,14.3764711 9.74007736,15.3624459 8.06506375,16.1101135 C7.76246933,16.2451811 7.40767416,16.1093738 7.27260657,15.8067793 C7.13753897,15.5041849 7.2733463,15.1493898 7.57594072,15.0143222 C9.09681278,14.3354579 10.3283274,13.4518623 11.2767646,12.3636439 Z" id="路径-33" fill="#5078FF"></path>
                <path d="M14.9254958,14.6219236 C15.1432166,14.3721151 15.522224,14.3461027 15.7720325,14.5638235 C16.0218411,14.7815443 16.0478534,15.1605516 15.8301326,15.4103602 C14.7630145,16.6347508 13.3888086,17.6207256 11.713795,18.3683932 C11.4112005,18.5034608 11.0564054,18.3676535 10.9213378,18.0650591 C10.7862702,17.7624646 10.9220775,17.4076695 11.2246719,17.2726019 C12.745544,16.5937376 13.9770586,15.710142 14.9254958,14.6219236 Z" id="路径-33备份" fill="#5078FF"></path>
                <path d="M21.1845764,8.93895846 L19.5112344,8.13528842 L17.7674802,7.36466414 L19.9148256,3.32060504 C20.0545943,3.05271502 19.984895,2.73089861 19.5539415,2.52512802 C19.122988,2.31935744 18.7789457,2.4702503 18.639177,2.7381403 L16.4889122,6.73732787 L15.0153411,5.98440339 L12.8411613,4.94390307 L12.1229055,4.94390307 L12.1073756,5.01766988 L12.0801984,5.01766988 L12.0530211,5.04096466 L12.0297264,5.06037697 L11.9947842,5.11861394 L11.9714894,5.11861394 L11.9481946,5.14579118 L11.9287823,5.17296843 L11.90937,5.20402813 C11.9086314,5.21307217 11.9086314,5.22216136 11.90937,5.2312054 C11.3793985,6.21529483 10.7271508,7.12844166 9.96813799,7.94893015 L9.93707828,7.98775479 C9.42583026,8.53295366 8.87566155,9.04030264 8.29091356,9.5057982 C6.65840582,10.7961645 4.82290583,11.8064111 2.85934651,12.4952954 C2.57248038,12.5923385 2.38524607,12.8684297 2.40121575,13.1708442 C2.38575787,13.4264739 2.51870784,13.6682011 2.74287258,13.7920384 L14.9571042,20.9008299 C15.0434821,20.9494465 15.1383693,20.9810755 15.2366416,20.994009 C15.352409,21.0693187 15.486822,21.1109867 15.624888,21.1143654 C15.8096177,21.1175019 15.9881513,21.0477622 16.1218434,20.9202422 C17.785831,19.4011989 19.1524503,17.5856227 20.1518409,15.5663244 C21.0801236,13.7055786 21.5752117,11.6588604 21.6,9.57956502 C21.5993012,9.44048386 21.5559359,9.30496747 21.4757611,9.19131861 C21.4047521,9.08115094 21.3037182,8.99358823 21.1845764,8.93895846 Z M15.624888,19.937231 L12.9339527,18.3880824 L11.5366103,17.5900722 L8.29091356,15.6653003 L6.93414413,14.8562614 L4.26591066,13.2832174 C5.92110972,12.5823982 7.65447854,11.5500326 9.05986472,10.4294429 C9.55400246,10.0326555 10.1552408,9.48271788 10.6025259,9.03377649 L19.6490024,13.9749956 C19.5208811,14.3166525 19.2565781,14.7890577 19.0935146,15.1229496 C18.2444387,16.847753 17.0057764,18.5996871 15.624888,19.937231 Z M11.3603139,8.23284692 C11.8247861,7.67434316 12.462972,6.95724068 12.8411613,6.33705231 L20.4051145,9.94834453 C20.3677253,10.867385 20.1586465,11.9827465 19.9148256,12.8696426 L11.3603139,8.23284692 Z" id="形状" fill="#353535"></path>
            </g>
        </g>
    </g>
</svg>