<?xml version="1.0" encoding="UTF-8"?>
<svg width="10px" height="10px" viewBox="0 0 10 10" version="1.1" xmlns="http://www.w3.org/2000/svg" xmlns:xlink="http://www.w3.org/1999/xlink">
    <title>icon_detail_rank_i</title>
    <g id="icon_detail_rank_i" stroke="none" stroke-width="1" fill="none" fill-rule="evenodd">
        <g id="icon/提示" fill="#CCCCCC">
            <path d="M4.9889606,0.00707654339 C7.74037919,0.00707654339 9.97084465,2.23754201 9.97084465,4.9889606 C9.97084465,7.74037919 7.74037919,9.97084465 4.9889606,9.97084465 C2.23754201,9.97084465 0.00707654339,7.74037919 0.00707654339,4.9889606 C0.00707654339,2.23754201 2.23754201,0.00707654339 4.9889606,0.00707654339 Z M4.9889606,4.0831635 L4.89390781,4.08875484 C4.65534397,4.11857532 4.53606204,4.26767772 4.53606204,4.53606204 L4.53606204,4.53606204 L4.53606204,7.25345335 C4.53606204,7.55538572 4.68702823,7.7063519 4.9889606,7.7063519 L4.9889606,7.7063519 L5.08401338,7.70076056 C5.32257723,7.67094008 5.44185915,7.52183768 5.44185915,7.25345335 L5.44185915,7.25345335 L5.44185915,4.53606204 C5.44185915,4.23412968 5.29089297,4.0831635 4.9889606,4.0831635 L4.9889606,4.0831635 Z M4.9889606,2.27156929 C4.73883163,2.27156929 4.53606204,2.47433888 4.53606204,2.72446785 C4.53606204,2.97459681 4.73883163,3.1773664 4.9889606,3.1773664 C5.23908956,3.1773664 5.44185915,2.97459681 5.44185915,2.72446785 C5.44185915,2.47433888 5.23908956,2.27156929 4.9889606,2.27156929 Z" id="形状结合"></path>
        </g>
    </g>
</svg>