<?xml version="1.0" encoding="UTF-8"?>
<svg width="16px" height="16px" viewBox="0 0 16 16" version="1.1" xmlns="http://www.w3.org/2000/svg" xmlns:xlink="http://www.w3.org/1999/xlink">
    <!-- Generator: Sketch 55.2 (78181) - https://sketchapp.com -->
    <title>icon_sort_league_selected</title>
    <desc>Created with Sketch.</desc>
    <g id="icon_sort_league_selected" stroke="none" stroke-width="1" fill="none" fill-rule="evenodd">
        <g id="ico/个人主页/联赛排序" fill="#68CA89">
            <path d="M13.8242879,3.89692227 C14.1377311,3.89692227 14.3936032,4.16400626 14.4,4.48450704 L14.4,7.20208659 C14.4,7.98998435 14.1057471,8.72446531 13.5748126,9.28534168 L13.5428286,9.31205008 C13.1398301,9.72603026 12.4361819,10.046531 11.7453273,10.1400104 C11.0224888,11.2751174 9.83268366,12.0429838 8.53413293,12.2165884 L8.53413293,13.3183099 L10.5235382,13.3183099 C10.8561719,13.3183099 11.0928536,13.5453312 11.0928536,13.8591549 C11.0928536,14.1663015 10.8497751,14.4 10.5235382,14.4 L5.47646177,14.4 C5.15022489,14.4 4.90714643,14.1663015 4.90714643,13.8591549 C4.90714643,13.5453312 5.15022489,13.3183099 5.47646177,13.3183099 L7.46586707,13.3183099 L7.46586707,12.2165884 C6.16731634,12.0429838 4.97111444,11.2751174 4.25467266,10.1400104 C3.56381809,10.046531 2.86656672,9.72603026 2.45077461,9.31205008 L2.4187906,9.28534168 C1.89425287,8.73114241 1.6,7.98998435 1.6,7.20208659 L1.6,4.48450704 C1.6,4.15732916 1.84947526,3.89692227 2.16291854,3.89692227 L3.51904048,3.89692227 L3.51904048,2.18758477 C3.51904048,1.86040689 3.77491254,1.6 4.08195902,1.6 L11.9052474,1.6 C12.2250875,1.6 12.4745627,1.86040689 12.4745627,2.18758477 L12.4745627,3.89692227 L13.8242879,3.89692227 Z M13.3637181,4.97193532 L12.4745627,4.97193532 L12.4745627,7.66280647 C12.4681659,8.05675535 12.4233883,8.47073552 12.3466267,8.80459051 C12.5641179,8.68440271 12.7752124,8.55753782 12.851974,8.47741262 L12.8711644,8.45738132 C13.1910045,8.11017214 13.3637181,7.67616067 13.3637181,7.20876369 L13.3637181,4.97193532 Z M3.65337331,8.79791341 C3.57661169,8.45738132 3.52543728,8.05007825 3.51904048,7.66280647 L3.51904048,4.97193532 L2.63628186,4.97193532 L2.63628186,7.20208659 C2.63628186,7.66948357 2.8089955,8.10349504 3.13523238,8.45070423 C3.1992004,8.53082942 3.39110445,8.65101721 3.65337331,8.79791341 Z M10.1986696,5.91087797 L8.82621818,5.71840943 L8.21028877,4.52510454 C8.12325526,4.35829849 7.87554452,4.35829849 7.78851102,4.52510454 L7.1725816,5.71840943 L5.80013019,5.91087797 C5.60597852,5.93654044 5.53233479,6.16750267 5.67292737,6.29581503 L6.66377035,7.22607959 L6.42944937,8.5348656 C6.39597495,8.72091851 6.5968215,8.8620621 6.77088851,8.77224345 L7.99605245,8.15634416 L9.2212164,8.77224345 C9.39528341,8.8620621 9.59612995,8.72091851 9.56265553,8.5348656 L9.32833456,7.22607959 L10.3191775,6.29581503 C10.4731599,6.16108706 10.3928213,5.93654044 10.1986696,5.91087797 Z" id="形状结合"></path>
        </g>
    </g>
</svg>