<?xml version="1.0" encoding="UTF-8"?>
<svg width="16px" height="16px" viewBox="0 0 16 16" version="1.1" xmlns="http://www.w3.org/2000/svg" xmlns:xlink="http://www.w3.org/1999/xlink">
    <title>icon_setting_better_selected</title>
    <g id="icon_setting_better_selected" stroke="none" stroke-width="1" fill="none" fill-rule="evenodd">
        <g id="编组" transform="translate(0.000000, 0.000000)" fill="#68CA89" fill-rule="nonzero">
            <g id="ico/个人主页/小白版" transform="translate(0.000000, 0.000000)">
                <path d="M9.62863185,8.92015117 C9.86177716,8.92015117 10.0544574,9.09286794 10.0849517,9.31695627 L10.0891558,9.37925378 L10.0891558,12.5844022 C10.0891558,12.8379575 9.88297218,13.0435048 9.62863185,13.0435048 C9.39548654,13.0435048 9.20280629,12.870788 9.17231198,12.6466997 L9.16810794,12.5844022 L9.167,10.521 L6.43937187,13.3229522 C6.28117976,13.4853415 6.03115772,13.5065357 5.84909914,13.3821736 L5.79668027,13.3404939 L4.52786898,12.1736584 L2.41001344,14.2670109 C2.24577244,14.4292565 1.98986245,14.4429091 1.81018832,14.3087331 L1.75874107,14.2640462 C1.59599316,14.1003121 1.58229826,13.8451919 1.71688967,13.6660723 L1.76171491,13.6147838 L4.19328118,11.212759 C4.35076694,11.0571865 4.59368082,11.0376045 4.77266319,11.1566592 L4.82975126,11.2014824 L6.09119416,12.3615844 L8.549,9.838 L6.34724546,9.83835639 C6.11410015,9.83835639 5.9214199,9.66563961 5.89092558,9.44155128 L5.88672154,9.37925378 C5.88672154,9.14682802 6.05997302,8.95474243 6.28475509,8.92434223 L6.34724546,8.92015117 L9.62863185,8.92015117 Z M8.04442959,1.6 C8.30460903,1.6 8.54666419,1.7256437 8.69473393,1.93111199 L8.74050551,2.00249503 L10.5588902,5.1451034 L13.7531104,5.78978058 C14.0112148,5.84049897 14.2260064,6.01360379 14.3311369,6.2501013 L14.3620279,6.33120076 C14.4419702,6.58105721 14.3934818,6.85212869 14.237354,7.05700324 L14.1813533,7.12272312 L11.7943223,9.65410321 L12.3070212,13.1344392 C12.348798,13.4167799 12.2363685,13.697523 12.0165936,13.8738263 L11.9474877,13.9234812 C11.7091201,14.0763242 11.4098495,14.0912619 11.1609669,13.9692993 L11.080025,13.9235761 L10.4045899,13.4926317 C10.1903663,13.3559518 10.1278478,13.0720242 10.2649509,12.8584618 C10.3895901,12.6643141 10.6362982,12.5951556 10.8410735,12.6868755 L10.9010842,12.7192537 L11.3571316,13.0104494 L10.8505345,9.56841723 C10.8335035,9.4528571 10.8613764,9.33610901 10.9268666,9.24130282 L10.9706165,9.18723717 L13.3644018,6.64789929 L10.1734494,6.00460889 C10.065524,5.98284165 9.96974705,5.92343562 9.902603,5.83821079 L9.86588439,5.78407219 L8.04688571,2.64146381 L6.36055968,5.70918108 C6.30420762,5.81167344 6.21126912,5.88808117 6.1015903,5.92431173 L6.03393293,5.94111607 L2.6427911,6.51567774 L5.04348434,9.00479031 C5.1127942,9.07667667 5.1562672,9.16856555 5.16846214,9.26621376 L5.1716587,9.34030725 L5.12990453,10.439705 C5.12028161,10.6930788 4.90644474,10.890702 4.65228652,10.8811088 C4.41930814,10.872315 4.23332078,10.6924544 4.21135289,10.4673763 L4.20951617,10.4049649 L4.24357222,9.49984473 L1.82680412,6.99354267 C1.63959834,6.80146938 1.56264213,6.53041243 1.61713786,6.27206499 L1.64020078,6.18654569 C1.72416982,5.93215461 1.92943944,5.73855271 2.18284936,5.66721257 L2.26900195,5.64804507 L5.65952975,5.07287126 L7.34635043,2.00599139 C7.47440088,1.78020325 7.70324314,1.63198074 7.95847643,1.60459411 L8.04442959,1.6 Z" id="形状结合"></path>
            </g>
        </g>
    </g>
</svg>