<?xml version="1.0" encoding="UTF-8"?>
<svg width="16px" height="16px" viewBox="0 0 16 16" version="1.1" xmlns="http://www.w3.org/2000/svg" xmlns:xlink="http://www.w3.org/1999/xlink">
    <!-- Generator: Sketch 55.2 (78181) - https://sketchapp.com -->
    <title>icon_language_chinese_selected</title>
    <desc>Created with Sketch.</desc>
    <g id="icon_language_chinese_selected" stroke="none" stroke-width="1" fill="none" fill-rule="evenodd">
        <g id="ico/个人主页/簡中">
            <circle id="椭圆形" fill="#ED5565" fill-rule="evenodd" cx="8" cy="8" r="6.4"></circle>
            <path d="M4.08001406,8.54219718 C3.9137042,8.66185915 3.81635209,8.59492958 3.86299998,8.39414085 L4.04350702,7.64777465 C4.08265644,7.42374608 4.00642678,7.19505714 3.84069012,7.03932394 L3.29511265,6.56676056 C3.13894364,6.43290141 3.17950702,6.31729577 3.38435209,6.31121127 L4.14897181,6.28890141 C4.37374674,6.27774989 4.56901391,6.13069684 4.64181688,5.91774648 L4.88114082,5.10647887 C4.93995772,4.90366197 5.04339434,4.90366197 5.11235209,5.10647887 L5.40035209,5.91774648 C5.48459239,6.12245124 5.67834153,6.26106852 5.89928167,6.27470423 L6.67809857,6.27470423 C6.88091547,6.27470423 6.92350702,6.39030986 6.76936617,6.52416901 L6.17511265,7.04338028 C6.01387516,7.20134621 5.94695345,7.43211072 5.99866195,7.65183099 L6.18728167,8.30895775 C6.2440704,8.51177465 6.14874646,8.58073239 5.97432392,8.47323944 L5.33545068,8.06760563 C5.14043765,7.96035101 4.90242528,7.96812918 4.71483096,8.08788732 L4.08001406,8.54219718 Z" id="Shape_2_copy_9" fill="#F6D660" fill-rule="nonzero"></path>
            <path d="M7.55629575,5.3863662 C7.49950702,5.42692958 7.46705631,5.40461972 7.48328167,5.3336338 L7.54412674,5.07402817 C7.55541883,4.99999161 7.53140166,4.92493793 7.47922533,4.87121127 L7.29466195,4.70692958 C7.24192955,4.66028169 7.25612674,4.61971831 7.32508448,4.61769014 L7.58266195,4.61769014 C7.65806296,4.61132477 7.72215392,4.56005201 7.74491547,4.48788732 L7.82604223,4.20394366 C7.84632392,4.13498592 7.88080279,4.13498592 7.90514082,4.20394366 L8.00249293,4.48383099 C8.03141761,4.55302081 8.09616088,4.60060321 8.17083096,4.6075493 L8.43449293,4.6075493 C8.50345068,4.6075493 8.51764786,4.64811268 8.46491547,4.69476056 L8.26209857,4.87526761 C8.20962024,4.92870777 8.18685792,5.00458217 8.2012535,5.07808451 L8.26615491,5.30726761 C8.2864366,5.37622535 8.25398589,5.40259155 8.19516899,5.36405634 L7.98018307,5.22816901 C7.9174313,5.19193927 7.84011795,5.19193927 7.77736617,5.22816901 L7.55629575,5.3863662 Z" id="Shape_2_copy_10" fill="#F6D660" fill-rule="nonzero"></path>
            <path d="M7.55629575,9.392 C7.49950702,9.43256338 7.46705631,9.41025352 7.48328167,9.33926761 L7.54412674,9.07966197 C7.55541883,9.00562541 7.53140166,8.93057173 7.47922533,8.87684507 L7.29466195,8.71256338 C7.24192955,8.66591549 7.25612674,8.62535211 7.32508448,8.62332394 L7.58266195,8.62332394 C7.6575355,8.61727497 7.72148107,8.56691785 7.74491547,8.4955493 L7.82604223,8.21160563 C7.84632392,8.14264789 7.88080279,8.14264789 7.90514082,8.21160563 L8.00249293,8.49149296 C8.03141761,8.56068279 8.09616088,8.60826517 8.17083096,8.61521127 L8.43449293,8.61521127 C8.50345068,8.61521127 8.51764786,8.65577465 8.46491547,8.70242254 L8.26209857,8.88292958 C8.20962024,8.93636974 8.18685792,9.01224413 8.2012535,9.08574648 L8.26615491,9.31492958 C8.2864366,9.38388732 8.25398589,9.41025352 8.19516899,9.37171831 L7.98221124,9.23583099 C7.91945947,9.19960123 7.84214611,9.19960123 7.77939434,9.23583099 L7.55629575,9.392 Z" id="Shape_2_copy_11" fill="#F6D660" fill-rule="nonzero"></path>
            <path d="M8.96181688,8.31707042 C8.90502815,8.3576338 8.87257744,8.33532394 8.88880279,8.2663662 L8.94964786,8.00676056 C8.96093996,7.932724 8.93692279,7.85767033 8.88474646,7.80394366 L8.70018307,7.63966197 C8.64745068,7.59301408 8.66164786,7.5524507 8.73060561,7.55042254 L8.98818307,7.55042254 C9.06305663,7.54437356 9.1270022,7.49401644 9.1504366,7.42264789 L9.23156336,7.13870423 C9.25184505,7.06974648 9.28632392,7.06974648 9.31066195,7.13870423 L9.40801406,7.41859155 C9.43693873,7.48778138 9.501682,7.53536377 9.57635209,7.54230986 L9.84001406,7.54230986 C9.90897181,7.54230986 9.92316899,7.58287324 9.8704366,7.62952113 L9.66761969,7.81002817 C9.61587112,7.86385766 9.5938822,7.93968151 9.60880279,8.01284507 L9.6737042,8.24202817 C9.69398589,8.31098592 9.65950702,8.33735211 9.60271829,8.2988169 L9.38976054,8.16292958 C9.32700877,8.12669983 9.24969541,8.12669983 9.18694364,8.16292958 L8.96181688,8.31707042 Z" id="Shape_2_copy_12" fill="#F6D660" fill-rule="nonzero"></path>
            <path d="M8.96181688,6.46332394 C8.90502815,6.50388732 8.87257744,6.48157746 8.88880279,6.41059155 L8.94964786,6.15098592 C8.96093996,6.07694935 8.93692279,6.00189568 8.88474646,5.94816901 L8.69815491,5.77577465 C8.64542251,5.72912676 8.65961969,5.68856338 8.72857744,5.68653521 L8.98615491,5.68653521 C9.06102846,5.68048624 9.12497403,5.63012911 9.14840843,5.55876056 L9.22953519,5.2748169 C9.24981688,5.20585915 9.28429575,5.20585915 9.30863378,5.2748169 L9.40598589,5.55470423 C9.43491056,5.62389406 9.49965384,5.67147644 9.57432392,5.67842254 L9.83798589,5.67842254 C9.90694364,5.67842254 9.92114082,5.71898592 9.86840843,5.7656338 L9.66559153,5.94614085 C9.61415187,6.00014837 9.59221028,6.07580905 9.60677462,6.14895775 L9.67167603,6.37814085 C9.69195772,6.44709859 9.65747885,6.47346479 9.60069012,6.43492958 L9.38773237,6.29904225 C9.3249806,6.2628125 9.24766724,6.2628125 9.18491547,6.29904225 L8.96181688,6.46332394 Z" id="Shape_2_copy_13" fill="#F6D660" fill-rule="nonzero"></path>
        </g>
    </g>
</svg>