<?xml version="1.0" encoding="UTF-8"?>
<svg width="16px" height="16px" viewBox="0 0 16 16" version="1.1" xmlns="http://www.w3.org/2000/svg" xmlns:xlink="http://www.w3.org/1999/xlink">
    <!-- Generator: Sketch 55.2 (78181) - https://sketchapp.com -->
    <title>icon_layout_killer_selected</title>
    <desc>Created with Sketch.</desc>
    <g id="icon_layout_killer_selected" stroke="none" stroke-width="1" fill="none" fill-rule="evenodd">
        <g id="ico/个人主页/老鸟版">
            <g id="资源-3" transform="translate(0.000000, 1.600000)">
                <g id="编组" opacity="0.7" fill-rule="nonzero">
                    <path d="M1.99489362,0.364255319 C1.39234043,1.25957447 -0.452765957,4.4493617 1.14723404,8.07489362 C1.61721644,9.12386358 2.65991826,9.798553 3.8093617,9.79744817 L3.96255319,9.79744817 C3.96255319,9.79744817 3.76510638,1.99829787 2.72340426,0.37106383 C2.64400022,0.247602908 2.50777104,0.172418489 2.36098644,0.171027577 C2.21420184,0.169674852 2.07659127,0.242300021 1.99489362,0.364255319 Z" id="路径" fill="#BF6350"></path>
                    <path d="M4.13617021,9.96768838 L3.79574468,9.96768838 C2.57808994,9.97292256 1.47289245,9.2566156 0.980425532,8.14297872 C-0.643404255,4.44255319 1.23574468,1.1812766 1.85191489,0.26893617 L1.85191489,0.26893617 C1.97547222,0.0992045834 2.17303942,-0.000845476549 2.38297872,-5.31594195e-06 C2.58148657,0.00660934057 2.76381725,0.111162597 2.86978723,0.279148936 C3.92170213,1.92680851 4.12595745,9.4706383 4.13276596,9.7906383 L4.13617021,9.96768838 Z M2.35914894,0.340405653 C2.26902159,0.33998417 2.18466511,0.384718665 2.13446809,0.459574468 L2.13446809,0.459574468 C1.54553191,1.33446809 -0.248510638,4.46638298 1.30382979,8.00340426 C1.73846375,8.98826272 2.7124389,9.6246821 3.78893617,9.62723404 C3.74468085,8.46638298 3.49957447,1.89957447 2.58382979,0.462978723 C2.53691162,0.385893896 2.4527869,0.339301746 2.36255319,0.340405653 L2.35914894,0.340405653 Z" id="形状" fill="#000000"></path>
                </g>
                <g id="编组" opacity="0.7" transform="translate(11.914894, 0.000000)" fill-rule="nonzero">
                    <path d="M2.3012766,0.364255319 C2.90382979,1.25957447 4.74553191,4.4493617 3.14553191,8.07489362 C2.67624,9.12445547 1.63310469,9.79942538 0.483404255,9.79745115 L0.340425532,9.79745115 C0.340425532,9.79745115 0.527659574,1.99829787 1.56595745,0.37106383 C1.64589849,0.246155489 1.78348153,0.170031037 1.93177441,0.168639066 C2.0800673,0.167284872 2.21903634,0.240848657 2.3012766,0.364255319 Z" id="路径" fill="#BF6350"></path>
                    <path d="M0.483404255,9.96766469 L0.142978723,9.96766469 L0.142978723,9.7906383 C0.142978723,9.4706383 0.354042553,1.92680851 1.40595745,0.279148936 C1.51889491,0.101507204 1.71634995,-0.00431837058 1.92680851,2.71050543e-20 C2.13213349,-0.00106986194 2.32465187,0.0996516778 2.44085106,0.26893617 C3.06382979,1.1812766 4.93617021,4.44255319 3.30212766,8.14297872 C2.80567339,9.25476703 1.70099827,9.96987073 0.483404255,9.96766469 Z M1.93361702,0.340384393 L1.93361702,0.340384393 C1.843555,0.339978247 1.75974096,0.386398328 1.71234043,0.462978723 C0.796595745,1.89957447 0.548085106,8.46638298 0.510638298,9.62723404 C1.58589957,9.62333915 2.55820789,8.98713741 2.99234043,8.00340426 C4.55829787,4.46638298 2.75404255,1.33446809 2.16170213,0.459574468 L2.16170213,0.459574468 C2.11084143,0.383701248 2.02494616,0.338830583 1.93361702,0.340384393 Z" id="形状" fill="#000000"></path>
                </g>
                <path d="M2.96510638,3.5506383 L2.54638298,7.63574468 C2.5006586,8.02755901 2.6245328,8.4202402 2.88680851,8.71489362 L5.35148936,11.4382979 C5.53257891,11.6381709 5.78986642,11.7519712 6.05957447,11.7515666 L10.4034043,11.7515666 C10.6903005,11.755126 10.9637844,11.6302475 11.1489362,11.4110638 L13.3991489,8.62978723 C13.6229321,8.35155314 13.7324701,7.99859736 13.7055319,7.64255319 L13.3889362,3.53021277 C13.3828274,3.35370218 13.3083675,3.18647241 13.1812766,3.06382979 C12.2757447,2.22297872 8.25531915,-1.0212766 3.21361702,3.08425532 C3.07136544,3.19991623 2.98177118,3.36805889 2.96510638,3.5506383 Z" id="路径" fill="#FF4000" fill-rule="nonzero"></path>
                <path d="M10.4034043,11.9148936 L6.07659574,11.9148936 C5.76341788,11.921906 5.46137673,11.7986239 5.24255319,11.5744681 L2.77787234,8.85106383 C2.47925577,8.51926987 2.33569564,8.0762136 2.38297872,7.63234043 L2.80170213,3.54723404 C2.82508624,3.32021366 2.93625357,3.1113168 3.11148936,2.96510638 C5.29702128,1.1812766 7.53702128,0.541276596 9.79404255,1.06212766 C11.1075967,1.38737863 12.3159331,2.04370101 13.3038298,2.96851064 C13.4577179,3.11404545 13.5512807,3.31210698 13.5659574,3.52340426 L13.8825532,7.63574468 C13.9145546,8.03448283 13.7927492,8.43035043 13.5421277,8.74212766 L11.2919149,11.5234043 C11.0697416,11.7809495 10.7433947,11.9247422 10.4034043,11.9148936 Z M8.29957447,1.20510638 C6.8493617,1.20510638 5.16085106,1.71574468 3.31914894,3.21702128 C3.21724748,3.30334529 3.1516113,3.42489377 3.13531915,3.55744681 L2.72340426,7.66638298 C2.6893031,8.01296655 2.80302816,8.35785017 3.03659574,8.61617021 L5.5012766,11.3395745 C5.65064155,11.5033703 5.86173391,11.5971892 6.08340426,11.5983075 L10.4034043,11.5983075 C10.6416668,11.5994785 10.8673873,11.4916343 11.0161702,11.3055319 L13.2765957,8.5106383 C13.4733432,8.26731476 13.5695635,7.95794848 13.5455319,7.64595745 L13.2289362,3.53361702 C13.2224459,3.40422921 13.1663648,3.28231361 13.0723404,3.19319149 C12.4051064,2.58042553 10.6791489,1.20510638 8.29957447,1.20510638 Z" id="形状" fill="#000000" fill-rule="nonzero"></path>
                <path d="M4.88851064,4.40167496 C4.03824433,4.39696521 3.31119691,5.01218397 3.17516811,5.85151191 C3.03913931,6.69083986 3.53465903,7.5041985 4.342898,7.7682534 C5.15113698,8.03230831 6.03127971,7.66838408 6.41702128,6.9106383 L9.84851064,6.9106383 C10.2352806,7.66440606 11.1127431,8.02502381 11.9177778,7.76106152 C12.7228124,7.49709923 13.2163873,6.68693295 13.0817457,5.85049494 C12.9471042,5.01405694 12.2242243,4.39970353 11.3770213,4.40167496 L4.88851064,4.40167496 Z" id="路径" fill="#FFFFFF" fill-rule="nonzero"></path>
                <circle id="椭圆形" fill="#000000" fill-rule="nonzero" cx="5.67829787" cy="6.00170213" r="1"></circle>
                <circle id="椭圆形" fill="#000000" fill-rule="nonzero" cx="10.5702128" cy="6.00170213" r="1"></circle>
                <rect id="矩形" fill="#000000" fill-rule="nonzero" x="6.04595745" y="5.60340426" width="4.16340426" height="1"></rect>
            </g>
        </g>
    </g>
</svg>