<?xml version="1.0" encoding="UTF-8"?>
<svg width="16px" height="16px" viewBox="0 0 16 16" version="1.1" xmlns="http://www.w3.org/2000/svg" xmlns:xlink="http://www.w3.org/1999/xlink">
    <!-- Generator: Sketch 55.2 (78181) - https://sketchapp.com -->
    <title>icon_port_HK_selected</title>
    <desc>Created with Sketch.</desc>
    <g id="icon_port_HK_selected" stroke="none" stroke-width="1" fill="none" fill-rule="evenodd">
        <g id="ico/个人主页/亚洲盘" fill="#42AEFF">
            <path d="M2.1,3.2 L13.9,3.2 C14.1761424,3.2 14.4,3.42385763 14.4,3.7 L14.4,13.9 C14.4,14.1761424 14.1761424,14.4 13.9,14.4 L2.1,14.4 C1.82385763,14.4 1.6,14.1761424 1.6,13.9 L1.6,3.7 C1.6,3.42385763 1.82385763,3.2 2.1,3.2 Z M2.9,4 C2.62385763,4 2.4,4.22385763 2.4,4.5 L2.4,9.9 C2.4,10.1761424 2.62385763,10.4 2.9,10.4 L13.1,10.4 C13.3761424,10.4 13.6,10.1761424 13.6,9.9 L13.6,4.5 C13.6,4.22385763 13.3761424,4 13.1,4 L2.9,4 Z M3.6,4.8 L4.33586659,4.8 L4.33586659,6.80336134 L6.61265039,6.80336134 L6.61265039,4.8 L7.34851698,4.8 L7.34851698,9.6 L6.61265039,9.6 L6.61265039,7.47563025 L4.33586659,7.47563025 L4.33586659,9.6 L3.6,9.6 L3.6,4.8 Z M11.1735557,4.8 L12.1043955,4.8 L10.1295057,6.85714286 L12.4,9.6 L11.4062656,9.6 L9.63263847,7.37478992 L9.08545562,7.94621849 L9.08545562,9.6 L8.34958903,9.6 L8.34958903,4.8 L9.08545562,4.8 L9.08545562,7.06554622 L11.1735557,4.8 Z" id="形状结合"></path>
        </g>
    </g>
</svg>