<?xml version="1.0" encoding="UTF-8"?>
<svg width="16px" height="16px" viewBox="0 0 16 16" version="1.1" xmlns="http://www.w3.org/2000/svg" xmlns:xlink="http://www.w3.org/1999/xlink">
    <!-- Generator: Sketch 55.2 (78181) - https://sketchapp.com -->
    <title>icon_language_English_normal</title>
    <desc>Created with Sketch.</desc>
    <defs>
        <circle id="path-1" cx="8" cy="8" r="6.4"></circle>
    </defs>
    <g id="icon_language_English_normal" stroke="none" stroke-width="1" fill="none" fill-rule="evenodd" opacity="0.5">
        <g id="ico/个人主页/english">
            <mask id="mask-2" fill="white">
                <use xlink:href="#path-1"></use>
            </mask>
            <use id="蒙版" fill="#4658A9" fill-rule="evenodd" xlink:href="#path-1"></use>
            <g id="编组" stroke-width="1" fill-rule="evenodd" mask="url(#mask-2)">
                <g transform="translate(0.000000, 1.600000)" fill-rule="nonzero" id="Shape">
                    <path d="M6.80112676,-9.9475983e-14 L6.09577465,-9.9475983e-14 L6.09577465,3.8724507 L0.461971831,0.492169014 C0.200217323,0.795600173 0.0399237782,1.20338695 0.0112676056,1.63876056 L4.33802817,4.2348169 L2.76056338,4.2348169 L0.00450704225,2.58253521 L0.00450704225,3.0611831 L1.97183099,4.24022535 L0.00450704225,4.24022535 L0.00450704225,5.08664789 L6.80788732,5.08664789 L6.80112676,-9.9475983e-14 Z" fill="#FFFFFF"></path>
                    <path d="M15.2878873,12.2258028 C15.557165,11.9308549 15.7271139,11.5277872 15.7656338,11.0927324 L11.3892958,8.4696338 L12.9667606,8.4696338 L15.7746479,10.1543662 L15.7746479,9.68112676 L13.7464789,8.4696338 L15.7746479,8.4696338 L15.7746479,7.62321127 L8.92619718,7.62321127 L8.92619718,12.7044507 L9.6315493,12.7044507 L9.6315493,8.832 L15.2878873,12.2258028 Z" fill="#FFFFFF"></path>
                    <path d="M9.62478873,-7.54951657e-15 L8.92619718,-7.54951657e-15 L8.92619718,5.08123944 L15.7814085,5.08123944 L15.7814085,4.2348169 L13.7532394,4.2348169 L15.7814085,3.02332394 L15.7814085,1.78749296 C15.7814085,1.72529577 15.7814085,1.66580282 15.7814085,1.60630986 L11.4028169,4.23211268 L9.82535211,4.23211268 L15.5425352,0.800450704 C15.4786859,0.679237021 15.403036,0.567577763 15.3171831,0.467830986 L9.62478873,3.8724507 L9.62478873,-7.54951657e-15 Z" fill="#FFFFFF"></path>
                    <path d="M-6.3504757e-13,7.62050704 L-6.3504757e-13,8.4696338 L1.96732394,8.4696338 L-6.3504757e-13,9.64867606 L-6.3504757e-13,10.9034366 C-6.3504757e-13,10.9575211 -6.3504757e-13,11.0089014 -6.3504757e-13,11.0629859 L4.32676056,8.46692958 L5.90422535,8.46692958 L0.229859155,11.8715493 C0.293526281,11.9937405 0.369184714,12.1063202 0.455211268,12.2068732 L6.08901408,8.82929577 L6.08901408,12.7017465 L6.7943662,12.7017465 L6.7943662,7.62050704 L-6.3504757e-13,7.62050704 Z" fill="#FFFFFF"></path>
                    <polygon fill="#EC5565" points="15.7746479 7.62050704 15.7746479 5.08123944 8.91943662 5.08123944 8.91943662 3.55271368e-15 6.80112676 3.55271368e-15 6.80112676 5.08123944 -3.58646446e-12 5.08123944 -3.58646446e-12 7.62050704 6.80112676 7.62050704 6.80112676 12.7017465 8.91943662 12.7017465 8.91943662 7.62050704"></polygon>
                    <path d="M4.33126761,4.2348169 L0.00450704225,1.63876056 C0.00450704225,1.68743662 0.00450704225,1.7388169 0.00450704225,1.78749296 L0.00450704225,2.57983099 L2.76056338,4.23211268 L4.33126761,4.2348169 Z" fill="#EC5565"></path>
                    <path d="M11.3892958,4.2348169 L15.7678873,1.60901408 C15.7445866,1.3192619 15.6625793,1.04074653 15.5290141,0.797746479 L9.81183099,4.22940845 L11.3892958,4.2348169 Z" fill="#EC5565"></path>
                    <path d="M11.3892958,8.4696338 L15.7656338,11.0954366 C15.7683743,11.0323809 15.7683743,10.9691966 15.7656338,10.9061408 L15.7656338,10.1543662 L12.9667606,8.4696338 L11.3892958,8.4696338 Z" fill="#EC5565"></path>
                    <path d="M4.33126761,8.4696338 L0.00450704225,11.0656901 C0.0237300654,11.3540309 0.101067177,11.6324445 0.229859155,11.8769577 L5.91098592,8.4696338 L4.33126761,8.4696338 Z" fill="#EC5565"></path>
                </g>
            </g>
        </g>
    </g>
</svg>