<?xml version="1.0" encoding="UTF-8"?>
<svg width="20px" height="20px" viewBox="0 0 20 20" version="1.1" xmlns="http://www.w3.org/2000/svg" xmlns:xlink="http://www.w3.org/1999/xlink">
    <title>icon_top_simple_normal</title>
    <g id="icon_top_simple_normal" stroke="none" stroke-width="1" fill="none" fill-rule="evenodd" opacity="0.5">
        <g id="编组" transform="translate(0.000000, 0.000000)" fill-rule="nonzero">
            <g id="ico/个人主页/小白版" transform="translate(0.000000, 0.000000)">
                <g id="编组" transform="translate(1.017756, 3.017756)">
                    <polygon id="路径" fill="#FFB8AF" points="3.83722479 -9.19264664e-15 3.83722479 5.12162642 3.67705866e-14 5.12162642"></polygon>
                    <polygon id="路径" fill="#FF653D" points="14.066495 -9.19264664e-15 14.066495 5.12162642 9.01078658 -9.19264664e-15"></polygon>
                    <polygon id="路径" fill="#FFB8AF" points="17.9057173 5.12162642 14.066495 5.12162642 14.066495 -9.19264664e-15"></polygon>
                    <path d="M17.9057173,5.12162642 L8.93687855,15.3488991 L14.066495,5.12162642 L17.9057173,5.12162642 Z M8.93687855,15.3488991 L1.11910481e-13,5.12162642 L3.83722479,5.12162642 L8.93687855,15.3488991 Z" id="形状" fill="#FF653D"></path>
                    <polygon id="路径" fill="#FFB8AF" points="14.066495 5.12162642 8.93687855 15.3488991 3.83722479 5.12162642"></polygon>
                    <polygon id="路径" fill="#FF653D" points="9.01078658 -9.19264664e-15 3.83722479 5.12162642 3.83722479 -9.19264664e-15"></polygon>
                    <polygon id="路径" fill="#FFE5E2" points="14.066495 5.12162642 3.83722479 5.12162642 9.01078658 -9.19264664e-15"></polygon>
                </g>
            </g>
        </g>
    </g>
</svg>