<?xml version="1.0" encoding="UTF-8"?>
<svg width="16px" height="16px" viewBox="0 0 16 16" version="1.1" xmlns="http://www.w3.org/2000/svg" xmlns:xlink="http://www.w3.org/1999/xlink">
    <!-- Generator: Sketch 55.2 (78181) - https://sketchapp.com -->
    <title>icon_port_EU_selected</title>
    <desc>Created with Sketch.</desc>
    <g id="icon_port_EU_selected" stroke="none" stroke-width="1" fill="none" fill-rule="evenodd">
        <g id="ico/个人主页/欧洲盘" fill="#42AEFF">
            <path d="M2.1,3.2 L13.9,3.2 C14.1761424,3.2 14.4,3.42385763 14.4,3.7 L14.4,13.9 C14.4,14.1761424 14.1761424,14.4 13.9,14.4 L2.1,14.4 C1.82385763,14.4 1.6,14.1761424 1.6,13.9 L1.6,3.7 C1.6,3.42385763 1.82385763,3.2 2.1,3.2 Z M2.9,4 C2.62385763,4 2.4,4.22385763 2.4,4.5 L2.4,9.9 C2.4,10.1761424 2.62385763,10.4 2.9,10.4 L13.1,10.4 C13.3761424,10.4 13.6,10.1761424 13.6,9.9 L13.6,4.5 C13.6,4.22385763 13.3761424,4 13.1,4 L2.9,4 Z M3.6,4.8 L7.21067588,4.8 L7.21067588,5.45934066 L4.42028947,5.45934066 L4.42028947,6.76483516 L7.04241137,6.76483516 L7.04241137,7.42417582 L4.42028947,7.42417582 L4.42028947,8.84835165 L7.32986324,8.84835165 L7.32986324,9.50769231 L3.6,9.50769231 L3.6,4.8 Z M8.23545345,4.8 L9.05574292,4.8 L9.05574292,7.73406593 C9.05574292,8.14285714 9.15389722,8.43956044 9.35721683,8.63736264 C9.55352542,8.82857143 9.87603239,8.92747253 10.3177267,8.92747253 C10.75241,8.92747253 11.074917,8.82857143 11.2782366,8.63736264 C11.4745452,8.43956044 11.5797105,8.14285714 11.5797105,7.73406593 L11.5797105,4.8 L12.4,4.8 L12.4,7.72087912 C12.4,8.33406593 12.2177135,8.8021978 11.8531404,9.12527473 C11.4885673,9.44175824 10.9767627,9.6 10.3177267,9.6 C9.65167972,9.6 9.13987518,9.44175824 8.78932412,9.13186813 C8.41774,8.8021978 8.23545345,8.33406593 8.23545345,7.72087912 L8.23545345,4.8 Z" id="形状结合"></path>
        </g>
    </g>
</svg>