<?xml version="1.0" encoding="UTF-8"?>
<svg width="16px" height="16px" viewBox="0 0 16 16" version="1.1" xmlns="http://www.w3.org/2000/svg" xmlns:xlink="http://www.w3.org/1999/xlink">
    <!-- Generator: Sketch 55.2 (78181) - https://sketchapp.com -->
    <title>icon_language_HK_normal</title>
    <desc>Created with Sketch.</desc>
    <g id="icon_language_HK_normal" stroke="none" stroke-width="1" fill="none" fill-rule="evenodd" opacity="0.5">
        <g id="ico/个人主页/繁中">
            <circle id="椭圆形备份" fill="#ED5565" cx="8" cy="8" r="6.4"></circle>
            <g id="_ffffffff" stroke-width="1" transform="translate(4.960000, 4.800000)" fill="#FFFFFF">
                <path d="M3.42857143,0.228571429 C3.56616514,0.207413022 3.70565191,0.201281735 3.84457143,0.210285714 C3.71969118,0.270059445 3.61833547,0.369806347 3.55657143,0.493714286 C3.49125134,0.639095159 3.49125134,0.80547627 3.55657143,0.950857143 C3.59085714,1.03542857 3.65257143,1.10628571 3.68,1.19314286 C3.73351527,1.36822558 3.72462905,1.55645199 3.65485714,1.72571429 C3.60182039,1.87353405 3.51028914,2.0045184 3.38971429,2.10514286 C3.32571429,2.15771429 3.24342857,2.18285714 3.17485714,2.23085714 C2.98028439,2.34998347 2.85195618,2.55260697 2.82742857,2.77942857 C2.81181479,2.95868238 2.87237963,3.13622862 2.99428571,3.26857143 C2.76409083,3.09056713 2.61239065,2.82980683 2.57142857,2.54171429 C2.52440889,2.2451384 2.58609881,1.94155911 2.74514286,1.68685714 L2.70628571,1.66171429 C2.42212939,2.11518267 2.44946517,2.69743463 2.77485714,3.12228571 C2.82141845,3.18054206 2.87431509,3.2334387 2.93257143,3.28 C2.70940706,3.16854496 2.51113397,3.01303664 2.34971429,2.82285714 C2.15157578,2.58260695 2.03473665,2.28570752 2.016,1.97485714 C1.96920581,1.1165977 2.57948009,0.362148594 3.42857143,0.228571429 Z M2.81371429,1.19771429 C2.81371429,1.2632381 2.81752382,1.3287619 2.82514286,1.39428571 L2.65142857,1.49257143 L2.84342857,1.54057143 L2.88228571,1.73485714 L2.98742857,1.568 L3.184,1.59085714 L3.05828571,1.43771429 L3.14057143,1.25942857 L2.95771429,1.33257143 L2.81371429,1.19771429 Z" id="Shape" fill-rule="nonzero"></path>
                <path d="M0.265142857,2.74285714 C0.17304186,2.38377141 0.199500408,2.00453221 0.340571429,1.66171429 C0.358906448,1.7988322 0.422449541,1.92591838 0.521142857,2.02285714 C0.637264542,2.12261272 0.789535079,2.16978349 0.941714286,2.15314286 C1.04,2.15314286 1.13371429,2.10742857 1.23428571,2.10971429 C1.43140015,2.11981778 1.61817217,2.20102301 1.76,2.33828571 C1.85913287,2.42563653 1.93726571,2.53424117 1.98857143,2.656 C2.02971429,2.74971429 2.02285714,2.85714286 2.05714286,2.95314286 C2.123578,3.18688139 2.30309207,3.37154898 2.53485714,3.44457143 C2.67998272,3.48581349 2.83485328,3.47613408 2.97371429,3.41714286 C2.72997214,3.58004009 2.43234128,3.64153406 2.144,3.58857143 C1.85217715,3.53889166 1.58737968,3.38746313 1.39657143,3.16114286 L1.36228571,3.19085714 C1.54699162,3.41047049 1.79947161,3.56244094 2.08,3.62285714 C2.3556339,3.68556503 2.64454949,3.64914709 2.896,3.52 C2.91657143,3.50628571 2.95314286,3.504 2.95542857,3.472 L2.95542857,3.49028571 C2.89828571,3.52914286 2.85257143,3.57942857 2.79771429,3.62057143 C2.59341118,3.78972784 2.35100603,3.90661577 2.09142857,3.96114286 C1.80171287,4.01769138 1.50171902,3.98665753 1.22971429,3.872 C0.747867163,3.66896583 0.386808464,3.25476064 0.251428571,2.74971429 L0.265142857,2.74285714 Z M1.10857143,2.66057143 C1.10857143,2.72685714 1.10857143,2.79085714 1.12,2.85714286 L0.948571429,2.95542857 L1.136,3.00114286 C1.15428571,3.06514286 1.16342857,3.13142857 1.17714286,3.19771429 L1.28228571,3.03085714 L1.47885714,3.05371429 L1.35314286,2.90057143 L1.43542857,2.72228571 L1.25257143,2.79314286 L1.10857143,2.66057143 Z" id="Shape" fill-rule="nonzero"></path>
                <path d="M4.21942857,1.84685714 C4.76347623,1.69890645 5.34547543,1.83176341 5.77142857,2.20114286 C6.0354107,2.43445275 6.22132469,2.74324551 6.304,3.08571429 C6.20567289,2.98142501 6.0737757,2.91507182 5.93142857,2.89828571 C5.77948752,2.8905973 5.63095762,2.94505826 5.52,3.04914286 C5.44685714,3.11085714 5.39657143,3.19542857 5.31657143,3.25028571 C5.14091314,3.36437506 4.92884747,3.40841947 4.72228571,3.37371429 C4.54948592,3.35769109 4.38774923,3.28167486 4.26514286,3.15885714 C4.16199783,3.04820411 4.02967083,2.96896638 3.88342857,2.93028571 C3.69627497,2.87945095 3.49628471,2.91194937 3.33485714,3.01942857 C3.25626032,3.07441029 3.19007282,3.14526983 3.14057143,3.22742857 C3.23036018,2.97861851 3.40632713,2.77021527 3.63657143,2.64 C3.91653115,2.4758893 4.24948075,2.42750501 4.56457143,2.50514286 L4.57828571,2.46171429 C3.98283902,2.30636043 3.36231691,2.60405641 3.11085714,3.16571429 C3.15284192,2.88312754 3.26263785,2.61491179 3.43085714,2.384 C3.62750658,2.12359669 3.90476137,1.93554561 4.21942857,1.84914286 L4.21942857,1.84685714 Z M4.71771429,2.34971429 C4.71771429,2.416 4.71771429,2.48228571 4.72914286,2.54628571 L4.55771429,2.64228571 L4.74971429,2.69257143 C4.76342857,2.75657143 4.77485714,2.82057143 4.78857143,2.88685714 L4.896,2.72 L5.09257143,2.74285714 L4.96685714,2.58971429 L5.04914286,2.41142857 L4.86628571,2.48457143 L4.71771429,2.34971429 Z" id="Shape" fill-rule="nonzero"></path>
                <path d="M3.25714286,3.30514286 C3.55768409,3.25342624 3.8665176,3.28100066 4.15314286,3.38514286 C4.46404779,3.50459157 4.72570958,3.72519257 4.896,4.01142857 C5.19629815,4.51761035 5.2118805,5.14350197 4.93714286,5.664 C4.79216811,5.9301971 4.58023237,6.15395083 4.32228571,6.31314286 C4.39947017,6.17360651 4.41757936,6.00897751 4.37257143,5.856 C4.3044309,5.68548 4.16488686,5.5534563 3.99085714,5.49485714 C3.81843643,5.42101115 3.68379209,5.27974895 3.61828571,5.104 C3.54152379,4.92614743 3.52234171,4.72873205 3.56342857,4.53942857 C3.5946357,4.45337904 3.63128101,4.36940021 3.67314286,4.288 C3.74943653,4.09764667 3.74364594,3.88422208 3.65714286,3.69828571 C3.57087966,3.51457941 3.40009584,3.38478368 3.2,3.35085714 C3.4351104,3.35258064 3.66285906,3.43305719 3.84685714,3.57942857 C4.13650709,3.79793371 4.31672695,4.13167419 4.34057143,4.49371429 L4.38628571,4.49371429 C4.35042633,3.98341259 4.01571221,3.54281035 3.53371429,3.37142857 C3.4437059,3.34084313 3.34982345,3.32314398 3.25485714,3.31885714 L3.25714286,3.30514286 Z M4.20342857,4.53028571 C4.20342857,4.59657143 4.20342857,4.66285714 4.20342857,4.73142857 C4.14628571,4.76114286 4.08914286,4.79314286 4.03428571,4.82514286 L4.224,4.87314286 C4.23771429,4.93714286 4.24914286,5.00342857 4.26285714,5.06742857 L4.368,4.90057143 L4.56457143,4.92342857 L4.43885714,4.77028571 L4.52114286,4.592 L4.33828571,4.66514286 L4.20342857,4.53028571 Z" id="Shape" fill-rule="nonzero"></path>
                <path d="M3.11314286,3.44685714 C3.23566405,3.89014937 3.09039273,4.3642864 2.74057143,4.66285714 C2.63623963,4.75851872 2.51644773,4.83580382 2.38628571,4.89142857 L2.40228571,4.93485714 C2.84832846,4.75384562 3.15667657,4.33977817 3.20228571,3.86057143 C3.21213161,3.73937557 3.20209445,3.61738523 3.17257143,3.49942857 C3.3134083,3.76996702 3.38191042,4.07232126 3.37142857,4.37714286 C3.35085001,4.74103797 3.19803225,5.08487794 2.94171429,5.344 C2.5506613,5.74142183 1.98906425,5.92092773 1.44,5.824 C1.14403722,5.76835721 0.86759072,5.63682853 0.637714286,5.44228571 C0.778657653,5.46806482 0.924178843,5.44381129 1.04914286,5.37371429 C1.17695425,5.29008697 1.2652455,5.15806267 1.29371429,5.008 C1.31657143,4.91657143 1.30742857,4.81828571 1.33942857,4.72914286 C1.40555063,4.55162907 1.53169512,4.40284327 1.696,4.30857143 C1.81826581,4.23042487 1.95812082,4.18406843 2.10285714,4.17371429 C2.18971429,4.17371429 2.27428571,4.19885714 2.36114286,4.20114286 C2.58665303,4.21626491 2.80660709,4.1269349 2.95771429,3.95885714 C3.07670674,3.82094075 3.13154254,3.63898562 3.10857143,3.45828571 L3.11314286,3.44685714 Z M1.97942857,4.71314286 C1.97942857,4.77942857 1.97942857,4.84342857 1.99085714,4.90971429 L1.81942857,5.00571429 C1.88342857,5.02171429 1.94971429,5.03771429 2.01142857,5.05828571 C2.01142857,5.12228571 2.03657143,5.18628571 2.048,5.25028571 L2.15314286,5.08342857 L2.34971429,5.10628571 C2.30857143,5.056 2.26742857,5.00571429 2.224,4.95542857 C2.24914286,4.89371429 2.27885714,4.83428571 2.30628571,4.77485714 L2.12342857,4.848 L1.97942857,4.71314286 Z" id="Shape" fill-rule="nonzero"></path>
            </g>
        </g>
    </g>
</svg>