<?xml version="1.0" encoding="UTF-8"?>
<svg width="16px" height="16px" viewBox="0 0 16 16" version="1.1" xmlns="http://www.w3.org/2000/svg" xmlns:xlink="http://www.w3.org/1999/xlink">
    <!-- Generator: Sketch 55.2 (78181) - https://sketchapp.com -->
    <title>icon_sort_smart_selected</title>
    <desc>Created with Sketch.</desc>
    <g id="icon_sort_smart_selected" stroke="none" stroke-width="1" fill="none" fill-rule="evenodd">
        <g id="ico/个人主页/智能排序" fill="#68CA89">
            <path d="M2.9,2 L13.1,2 C13.3761424,2 13.6,2.22385763 13.6,2.5 L13.6,11.1 C13.6,11.3761424 13.3761424,11.6 13.1,11.6 L2.9,11.6 C2.62385763,11.6 2.4,11.3761424 2.4,11.1 L2.4,2.5 C2.4,2.22385763 2.62385763,2 2.9,2 Z M5.36467025,4.40006897 C4.81889951,4.40006897 4.37649732,4.84252822 4.37649732,5.38810682 C4.37649732,5.93383685 4.81889951,6.37606897 5.36467025,6.37606897 C5.91051671,6.37606897 6.3529189,5.93368543 6.3529189,5.38810682 C6.3529189,4.84252822 5.91051671,4.40006897 5.36467025,4.40006897 Z M10.9646702,9.99986211 C11.1394019,9.99991698 11.3069942,9.93672777 11.4305482,9.82420698 C11.5541021,9.71168618 11.623427,9.55905947 11.623427,9.39993104 C11.623427,9.24081383 11.554049,9.08820839 11.4305038,8.97569553 C11.3069586,8.86318267 11.1393895,8.79998171 10.9646702,8.8 L5.03532975,8.8 C4.67150847,8.8 4.37657304,9.06859828 4.37657304,9.39993104 C4.37657304,9.7312638 4.67150847,9.99986211 5.03532975,9.99986211 L10.9646702,9.99986211 Z M10.6353298,6.37606897 C11.1811762,6.37606897 11.6235027,5.93368543 11.6235027,5.38810682 C11.6235027,4.84252822 11.1811762,4.40006897 10.6353298,4.40006897 C10.089559,4.40006897 9.64700537,4.84245251 9.64700537,5.38810682 C9.64700537,5.93383685 10.089559,6.37606897 10.6353298,6.37606897 Z" id="形状结合"></path>
            <path d="M11.1999567,12.500069 L4.80004327,12.500069 C4.35832263,12.500069 4.00012982,12.8357241 4.00012982,13.25 C4.00012982,13.6642759 4.3582469,14 4.80004327,14 L11.1999567,14 C11.6419046,14 11.9999459,13.6642759 11.9999459,13.25 C11.9999459,12.8357241 11.6419046,12.500069 11.1999567,12.500069 L11.1999567,12.500069 Z" id="路径"></path>
        </g>
    </g>
</svg>