<?xml version="1.0" encoding="UTF-8"?>
<svg width="16px" height="16px" viewBox="0 0 16 16" version="1.1" xmlns="http://www.w3.org/2000/svg" xmlns:xlink="http://www.w3.org/1999/xlink">
    <title>icon_setting_either_selected</title>
    <g id="icon_setting_either_selected" stroke="none" stroke-width="1" fill="none" fill-rule="evenodd">
        <g id="编组" transform="translate(0.000000, 0.000000)" fill="#FF4000" fill-rule="nonzero">
            <g id="ico/个人主页/小白版" transform="translate(0.000000, 0.000000)">
                <path d="M9.40233101,9.20901013 C9.64250407,9.20901013 9.84099233,9.380789 9.87240584,9.60366045 L9.87673661,9.66561966 L9.87673661,12.6706273 C9.87673661,12.9228058 9.66433799,13.1272368 9.40233101,13.1272368 C9.16215795,13.1272368 8.96366969,12.9554579 8.93225618,12.7325865 L8.92792542,12.6706273 L8.927,10.801 L6.32455302,13.3815953 C6.16168218,13.5430139 5.90429649,13.5641704 5.7167583,13.4406729 L5.66275663,13.3992796 L4.4468155,12.3207782 L2.40849602,14.2675706 C2.239389,14.4290175 1.97577222,14.4427242 1.7906121,14.3093668 L1.73759073,14.2649483 C1.56985161,14.1021849 1.55561069,13.848457 1.69416558,13.6702427 L1.74031522,13.6192103 L4.10100519,11.3654546 C4.26312596,11.2106775 4.51329424,11.1910544 4.69772975,11.30931 L4.75656275,11.3538389 L5.96554594,12.4261028 L8.29,10.121 L6.21575759,10.1222292 C5.97558453,10.1222292 5.77709627,9.95045032 5.74568276,9.72757887 L5.741352,9.66561966 C5.741352,9.43445605 5.91982584,9.24341355 6.15138356,9.21317843 L6.21575759,9.20901013 L9.40233101,9.20901013 Z M12.9350117,1.6 C13.7103903,1.6 14.3450759,2.17978158 14.3966202,2.91349367 L14.4,3.0100332 L14.4,12.35818 C14.4,13.1044723 13.7976218,13.7153494 13.0353138,13.7649602 L12.9350117,13.7682132 L11.0708065,13.7682132 C10.8087996,13.7682132 10.5964009,13.5637822 10.5964009,13.3116037 C10.5964009,13.0804401 10.7748748,12.8893976 11.0064325,12.8591625 L11.0708065,12.8549941 L12.9350117,12.8549941 C13.1981594,12.8549941 13.4153155,12.6654669 13.4471671,12.4204993 L13.4511888,12.35818 L13.4511888,3.0100332 C13.4511888,2.7567567 13.2542749,2.54774666 12.9997598,2.51708995 L12.9350117,2.51321906 L3.59489046,2.51321906 C3.33174267,2.51321906 3.1145866,2.70274629 3.08273506,2.94771389 L3.07871331,3.0100332 L3.07871331,10.3065961 C3.07871331,10.5587745 2.86631469,10.7632056 2.60430771,10.7632056 C2.36413465,10.7632056 2.16564639,10.5914267 2.13423289,10.3685553 L2.12990212,10.3065961 L2.12990212,3.0100332 C2.12990212,2.26374086 2.73228032,1.65286376 3.49458837,1.60325299 L3.59489046,1.6 L12.9350117,1.6 Z M12.2141539,6.89781925 C12.4761608,6.89781925 12.6885594,7.12167687 12.6885594,7.39781925 C12.6885594,7.65094976 12.5100856,7.86014656 12.2785279,7.89325484 L12.2141539,7.89781925 L4.17730538,7.89781925 C3.91529841,7.89781925 3.70289979,7.67396162 3.70289979,7.39781925 C3.70289979,7.14468874 3.88137363,6.93549194 4.11293135,6.90238366 L4.17730538,6.89781925 L12.2141539,6.89781925 Z M12.2141539,4.09038858 C12.4761608,4.09038858 12.6885594,4.31424621 12.6885594,4.59038858 C12.6885594,4.84351909 12.5100856,5.05271589 12.2785279,5.08582417 L12.2141539,5.09038858 L4.17730538,5.09038858 C3.91529841,5.09038858 3.70289979,4.86653096 3.70289979,4.59038858 C3.70289979,4.33725807 3.88137363,4.12806127 4.11293135,4.09495299 L4.17730538,4.09038858 L12.2141539,4.09038858 Z" id="形状结合"></path>
            </g>
        </g>
    </g>
</svg>