<?xml version="1.0" encoding="UTF-8"?>
<svg width="16px" height="16px" viewBox="0 0 16 16" version="1.1" xmlns="http://www.w3.org/2000/svg" xmlns:xlink="http://www.w3.org/1999/xlink">
    <!-- Generator: Sketch 55.2 (78181) - https://sketchapp.com -->
    <title>icon_layout_novice_normal</title>
    <desc>Created with Sketch.</desc>
    <g id="icon_layout_novice_normal" stroke="none" stroke-width="1" fill="none" fill-rule="evenodd" opacity="0.5">
        <g id="ico/个人主页/小白版">
            <g id="资源-4" transform="translate(0.000000, 1.600000)">
                <path d="M15.5268085,6.5293617 C15.5268085,10.0391489 11.8434043,11.5302128 7.60510638,11.5302128 C3.36680851,11.5302128 0.170212766,10.0391489 0.170212766,6.5293617 C0.170212766,3.01957447 3.60851064,0.170212766 7.85021277,0.170212766 C12.0919149,0.170212766 15.5268085,3.01617021 15.5268085,6.5293617 Z" id="路径" fill="#FFFFFF" fill-rule="nonzero"></path>
                <path d="M7.60510638,11.7004255 C2.77106383,11.7004255 0,9.81446809 0,6.5293617 C0,2.92765957 3.52,0 7.85021277,0 C12.1804255,0 15.6970213,2.92765957 15.6970213,6.5293617 C15.6970213,10.3421277 11.5165957,11.7004255 7.60510638,11.7004255 Z M7.85021277,0.340425532 C3.7106383,0.340425532 0.340425532,3.11489362 0.340425532,6.5293617 C0.340425532,10.893617 5.41957447,11.36 7.60510638,11.36 C12.4595745,11.36 15.3565957,9.55234043 15.3565957,6.5293617 C15.3565957,3.11489362 11.9897872,0.340425532 7.85021277,0.340425532 Z" id="形状" fill="#000000" fill-rule="nonzero"></path>
                <path d="M11.0740426,5.00085106 C10.606453,5.00025513 10.1927447,5.30364117 10.052766,5.74978723 L5.62723404,5.74978723 C5.46035409,5.25130758 4.95673576,4.94729039 4.4379065,5.03183081 C3.91907724,5.11637124 3.53802369,5.56454093 3.53802369,6.09021277 C3.53802369,6.61588461 3.91907724,7.0640543 4.4379065,7.14859472 C4.95673576,7.23313514 5.46035409,6.92911795 5.62723404,6.4306383 L10.052766,6.4306383 C10.2402123,6.93870806 10.7770548,7.22728199 11.3042279,7.10334818 C11.8314009,6.97941438 12.1834347,6.48187335 12.1248723,5.9435041 C12.0663099,5.40513484 11.615533,4.99492144 11.0740426,4.98723404 L11.0740426,5.00085106 Z" id="路径" fill="#000000" fill-rule="nonzero"></path>
            </g>
        </g>
    </g>
</svg>