<?xml version="1.0" encoding="UTF-8"?>
<svg width="16px" height="16px" viewBox="0 0 16 16" version="1.1" xmlns="http://www.w3.org/2000/svg" xmlns:xlink="http://www.w3.org/1999/xlink">
    <!-- Generator: Sketch 55.2 (78181) - https://sketchapp.com -->
    <title>icon_sort_time_normal</title>
    <desc>Created with Sketch.</desc>
    <g id="icon_sort_time_normal" stroke="none" stroke-width="1" fill="none" fill-rule="evenodd">
        <g id="ico/个人主页/时间排序" fill="#E5E6E8" fill-rule="nonzero">
            <path d="M8,14.4 C4.4653776,14.4 1.6,11.5346224 1.6,8 C1.6,4.4653776 4.4653776,1.6 8,1.6 C11.5346224,1.6 14.4,4.4653776 14.4,8 C14.4,11.5346224 11.5346224,14.4 8,14.4 Z M7.6,4.13753866 L7.6,7.60007356 C7.6,8.04190136 7.9581722,8.40007356 8.4,8.40007356 L12.4387558,8.40007356 C12.6596697,8.40007356 12.8387558,8.22098746 12.8387558,8.00007356 C12.8387558,7.77915966 12.6596697,7.60007356 12.4387558,7.60007356 L8.9,7.60007356 C8.62385763,7.60007356 8.4,7.37621593 8.4,7.10007356 L8.4,4.13753866 C8.4,3.91662476 8.2209139,3.73753866 8,3.73753866 C7.7790861,3.73753866 7.6,3.91662476 7.6,4.13753866 Z" id="形状结合"></path>
        </g>
    </g>
</svg>