<?xml version="1.0" encoding="UTF-8"?>
<svg width="12px" height="12px" viewBox="0 0 12 12" version="1.1" xmlns="http://www.w3.org/2000/svg" xmlns:xlink="http://www.w3.org/1999/xlink">
    <title>icon_league_ending_highlight</title>
    <g id="icon_league_ending_highlight" stroke="none" stroke-width="1" fill="none" fill-rule="evenodd">
        <g id="未选中集锦ICON" fill-rule="nonzero">
            <path d="M10.2200521,11.9664352 L1.73668981,11.9664352 C0.777922454,11.9664352 0.000578703704,11.1890914 0.000578703704,10.2303241 L0.000578703704,1.74696181 C0.000578703704,0.788194444 0.777922454,0.0108506944 1.73668981,0.0108506944 L10.2200521,0.0108506944 C11.1788194,0.0108506944 11.9561632,0.788194444 11.9561632,1.74696181 L11.9561632,10.2303241 C11.9561632,11.1890914 11.1788194,11.9664352 10.2200521,11.9664352 Z" id="路径" fill="#FFDADA"></path>
            <path d="M8.92708333,4.72468171 L10.2239583,4.01678241 C10.4515336,3.88816551 10.65625,3.99537037 10.65625,4.20978009 L10.65625,7.74913194 C10.65625,8.00651042 10.4742477,8.09230324 10.2239583,7.94212963 L8.92708333,7.23423032 C8.6995081,7.10561343 8.49479167,6.95543981 8.49479167,6.74088542 L8.49479167,5.17505787 C8.49479167,4.98206019 8.6995081,4.85329861 8.92708333,4.72468171 M7.07942708,2.80295139 L2.21050347,2.80295139 C1.70992477,2.80295139 1.3004919,3.25810185 1.3004919,3.81423611 L1.3004919,8.16290509 C1.3004919,8.71918403 1.71006944,9.17418981 2.21050347,9.17418981 L7.07928241,9.17418981 C7.57986111,9.17418981 7.98943866,8.71903935 7.98943866,8.16290509 L7.98943866,3.81423611 C7.98943866,3.25810185 7.57986111,2.80295139 7.07942708,2.80295139 L7.07942708,2.80295139 Z M4.14438657,4.88368056 C4.07609954,5.20543981 3.80309606,5.44140625 3.50737847,5.50578704 C2.91579861,5.6129919 2.41521991,5.11964699 2.52907986,4.58347801 C2.5973669,4.26171875 2.87037037,4.02575231 3.16608796,3.98292824 C3.75766782,3.83260995 4.25824653,4.30439815 4.14438657,4.88368056 L4.14438657,4.88368056 Z" id="形状" fill="#F75757"></path>
        </g>
    </g>
</svg>