<?xml version="1.0" encoding="UTF-8"?>
<svg width="14px" height="14px" viewBox="0 0 14 14" version="1.1" xmlns="http://www.w3.org/2000/svg" xmlns:xlink="http://www.w3.org/1999/xlink">
    <title>icon_+_blank</title>
    <g id="icon_+_blank" stroke="none" stroke-width="1" fill="none" fill-rule="evenodd">
        <g id="icon/关注" fill="#0C172E">
            <path d="M10.6072072,2.95555556 C10.8486867,2.95555556 11.0444444,3.15131333 11.0444444,3.39279278 C11.0444444,3.56585116 10.9439033,3.7154269 10.7980456,3.78629531 C10.7830845,3.798081 10.7624768,3.81514841 10.7372278,3.83688425 C10.656301,3.90655073 10.538103,4.01500955 10.3843859,4.16086821 C10.0709163,4.45831223 9.61433063,4.9068427 9.0156036,5.50556973 C8.61276093,5.90841241 8.14583866,6.3789782 7.61485611,6.91724815 C8.54776274,7.86868501 9.65046469,8.99701323 10.9205724,10.3022832 C11.0889771,10.4753501 11.0851977,10.7521676 10.9121307,10.9205724 C10.7390638,11.0889771 10.4622463,11.0851977 10.2938415,10.9121307 C9.02950904,9.61279583 7.93139836,8.48914534 6.99959027,7.54125851 C6.06860164,8.48914534 4.97049096,9.61279583 3.70615846,10.9121307 C3.53775371,11.0851977 3.26093621,11.0889771 3.08786927,10.9205724 C2.91480233,10.7521676 2.91102287,10.4753501 3.07942761,10.3022832 C4.34953531,8.99701323 5.45223726,7.86868501 6.38761511,6.91721845 C5.85416134,6.3789782 5.38723907,5.90841241 4.9843964,5.50556973 C4.38566937,4.9068427 3.92908367,4.45831223 3.61561415,4.16086821 C3.461897,4.01500955 3.34369904,3.90655073 3.26277222,3.83688425 C3.23752317,3.81514841 3.2169155,3.798081 3.2019544,3.78629531 C3.05609673,3.7154269 2.95555556,3.56585116 2.95555556,3.39279278 C2.95555556,3.15131333 3.15131333,2.95555556 3.39279278,2.95555556 C3.53368671,2.95555556 3.589298,2.98631127 3.70065786,3.0671743 C3.73799398,3.09428561 3.78128959,3.12938631 3.83329057,3.17415175 C3.92695742,3.25478557 4.05445438,3.37177719 4.2175334,3.52651912 C4.53765621,3.83027629 4.99906787,4.28354758 5.60274321,4.88722292 C6.00478043,5.28926014 6.47017841,5.75827169 6.99895618,6.29427626 C7.52982159,5.75827169 7.99521957,5.28926014 8.39725679,4.88722292 C9.00093213,4.28354758 9.46234379,3.83027629 9.7824666,3.52651912 C9.94554562,3.37177719 10.0730426,3.25478557 10.1667094,3.17415175 C10.2187104,3.12938631 10.262006,3.09428561 10.2993421,3.0671743 C10.410702,2.98631127 10.4663133,2.95555556 10.6072072,2.95555556 Z" id="形状结合" transform="translate(7.000000, 7.000000) rotate(-45.000000) translate(-7.000000, -7.000000) "></path>
        </g>
    </g>
</svg>