<?xml version="1.0" encoding="UTF-8"?>
<svg width="220px" height="35px" viewBox="0 0 220 35" version="1.1" xmlns="http://www.w3.org/2000/svg" xmlns:xlink="http://www.w3.org/1999/xlink">
    <title>text_sharebet_detail</title>
    <defs>
        <linearGradient x1="50%" y1="0%" x2="50%" y2="100%" id="linearGradient-1">
            <stop stop-color="#FFFFFF" offset="0%"></stop>
            <stop stop-color="#FFFFFF" stop-opacity="0.32145979" offset="100%"></stop>
        </linearGradient>
        <linearGradient x1="50%" y1="0%" x2="50%" y2="100%" id="linearGradient-2">
            <stop stop-color="#FFFFFF" offset="0%"></stop>
            <stop stop-color="#FFFFFF" stop-opacity="0.32145979" offset="100%"></stop>
        </linearGradient>
    </defs>
    <g id="text_sharebet_detail" stroke="none" stroke-width="1" fill="none" fill-rule="evenodd">
        <g fill-rule="nonzero">
            <path d="M7.884,10.984 L9.306,0.868 L8.712,0.202 L12.87,0.202 L12.348,3.91 L15.768,3.91 L15.534,5.62 L12.114,5.62 L11.358,10.984 L15.12,10.984 L14.868,12.856 L5.562,12.856 L5.814,10.984 L7.884,10.984 Z M0.792,12.658 L1.818,5.332 L0.846,5.332 L1.098,3.622 L5.256,3.622 L4.32,10.264 L5.598,10.03 L5.346,11.776 L0.792,12.658 Z M4.698,0.544 L5.292,2.938 L2.664,2.938 L2.052,0.544 L4.698,0.544 Z M21.765,13.162 L23.367,11.506 L24.897,0.706 L24.465,0.202 L28.389,0.202 L26.733,11.974 C26.6729997,12.3220017 26.5110013,12.6069989 26.247,12.829 C25.9829986,13.0510011 25.6770017,13.162 25.329,13.162 L21.765,13.162 Z M21.081,10.804 L17.661,10.804 L20.523,2.596 L23.943,2.596 L21.081,10.804 Z M28.731,2.596 L32.151,2.596 L32.709,10.804 L29.289,10.804 L28.731,2.596 Z M45.7259999,6.034 L48.5159999,13.126 L45.1139999,13.126 L44.0339999,9.4 L41.8019999,13.126 L38.4719999,13.126 L42.6839999,6.178 L43.4399999,0.832 L42.9719999,0.292 L46.5359999,0.292 L45.7259999,6.034 Z M39.1739999,2.416 L37.6799999,13.144 L34.4579999,13.144 L35.8619999,3.046 L35.1779999,3.172 L35.4839999,0.994 L39.4799999,0.238 L39.1739999,2.416 Z M39.7679999,2.938 L39.4799999,2.596 L42.1439999,2.596 L41.8559999,6.97 L39.4799999,6.97 L39.7679999,2.938 Z M46.3379999,6.97 L47.3099999,2.938 L47.0039999,2.596 L49.7219999,2.596 L48.6419999,6.97 L46.3379999,6.97 Z M58.9229999,9.418 L55.5749999,9.418 L55.8089999,7.708 L59.1569999,7.708 L59.3549999,6.34 L56.3669999,6.34 L56.6009999,4.648 L59.5889999,4.648 L60.1289999,0.85 L59.6789999,0.256 L63.3689999,0.256 L62.7569999,4.648 L66.1229999,4.648 L65.8889999,6.34 L62.5229999,6.34 L62.3249999,7.708 L66.0329999,7.708 L65.7989999,9.418 L62.0909999,9.418 L61.5689999,13.126 L58.4009999,13.126 L58.9229999,9.418 Z M55.9349999,2.254 L54.3869999,13.144 L51.3089999,13.144 L52.7669999,2.902 L51.7049999,3.118 L51.9929999,1.066 L56.2229999,0.202 L55.9349999,2.254 Z M64.2689999,1.588 L63.9269999,1.228 L66.6809999,1.228 L65.6009999,4.09 L63.3509999,4.09 L64.2689999,1.588 Z M59.2109999,4.09 L57.0509999,4.09 L56.7089999,1.21 L58.9049999,1.21 L59.2109999,4.09 Z M83.9459998,0.544 L82.9379998,7.726 L79.5179998,7.726 L80.2919998,2.254 L73.4519998,2.254 L73.0379998,5.206 L71.1479998,7.726 L69.2579998,7.726 L70.1759998,1.228 L69.5819998,0.544 L83.9459998,0.544 Z M78.7799998,3.28 L71.6159998,12.838 L67.8539998,12.838 L75.0179998,3.28 L78.7799998,3.28 Z M74.9279998,12.856 L76.2599998,8.068 L79.6799998,8.068 L78.9059998,10.804 L82.0739998,10.804 L82.8479998,10.12 L82.4699998,12.856 L74.9279998,12.856 Z M89.8709998,11.056 L90.8249998,4.27 L93.6329998,4.27 L92.6789998,11.056 L93.6869998,11.056 L94.9109998,2.308 L90.7349998,2.308 L90.9869998,0.58 L100.635,0.58 L100.383,2.308 L97.9169998,2.308 L97.4849998,5.386 L99.4649998,5.386 L99.2309998,7.06 L97.2509998,7.06 L96.6929998,11.056 L99.1949998,11.056 L98.9429998,12.856 L88.9529998,12.856 L89.2049998,11.056 L89.8709998,11.056 Z M84.9569998,12.838 L86.0189998,5.332 L84.9749998,5.332 L85.2089998,3.622 L89.1689998,3.622 L88.2329998,10.3 L89.0789998,9.994 L88.8269998,11.776 L84.9569998,12.838 Z M88.7729998,0.544 L89.2589998,2.938 L86.5949998,2.938 L86.1089998,0.544 L88.7729998,0.544 Z M106.686,2.254 L105.138,13.162 L101.88,13.162 L103.338,2.92 L102.276,3.118 L102.564,1.066 L106.974,0.202 L106.686,2.254 Z M112.5,11.974 C112.439999,12.3220017 112.275001,12.6069989 112.005,12.829 C111.734998,13.0510011 111.426001,13.162 111.078,13.162 L107.694,13.162 L109.314,11.488 L110.358,3.964 L113.616,3.964 L112.5,11.974 Z M108.018,0.652 L107.658,0.202 L110.898,0.202 L110.484,1.57 L117.54,1.57 L116.82,4.306 L114.084,4.306 L114.354,3.28 L109.98,3.28 L109.584,4.648 L106.848,4.648 L108.018,0.652 Z M116.334,5.332 L116.1,11.848 L113.886,11.848 L114.102,5.332 L116.334,5.332 Z M109.494,5.332 L107.892,11.83 L105.678,11.83 L107.28,5.332 L109.494,5.332 Z M131.079,1.912 L134.553,1.912 L133.185,11.632 C133.136999,11.9800017 132.981001,12.2709988 132.717,12.505 C132.452998,12.7390012 132.147001,12.856 131.799,12.856 L128.757,12.856 L130.359,11.146 L130.521,9.958 L127.767,9.958 L126.975,5.854 L130.053,5.854 L130.665,9.022 L131.421,3.622 L130.107,3.622 L129.333,4.99 L126.597,4.99 L125.499,12.856 L118.659,12.856 L120.243,1.57 L121.395,1.57 L121.881,0.688 L121.449,0.202 L125.553,0.202 L124.815,1.57 L127.083,1.57 L126.831,3.388 L128.379,0.688 L127.947,0.202 L132.051,0.202 L131.079,1.912 Z M122.457,6.358 L123.501,6.358 L123.933,3.28 L122.889,3.28 L122.457,6.358 Z M122.835,11.146 L123.267,8.068 L122.223,8.068 L121.791,11.146 L122.835,11.146 Z M145.356,5.98 L145.212,6.97 L150.864,6.97 L150.612,8.68 L148.452,8.68 L150.378,12.856 L147.138,12.856 L145.212,8.68 L144.96,8.68 L144.33,13.162 L141.09,13.162 L141.72,8.68 L141.468,8.68 L138.57,12.856 L135.33,12.856 L138.228,8.68 L136.248,8.68 L136.5,6.97 L141.972,6.97 L142.116,5.98 L145.356,5.98 Z M149.244,1.048 L151.692,1.048 L151.458,2.758 L149.01,2.758 L148.938,3.262 L145.698,3.262 L145.77,2.758 L142.692,2.758 L142.62,3.262 L139.38,3.262 L139.452,2.758 L137.094,2.758 L137.328,1.048 L139.686,1.048 L139.704,0.886 L139.128,0.202 L143.052,0.202 L142.926,1.048 L146.004,1.048 L146.022,0.886 L145.446,0.202 L149.37,0.202 L149.244,1.048 Z M150.918,6.538 L147.498,6.538 L147.642,5.512 L140.118,5.512 L139.974,6.538 L136.554,6.538 L136.95,3.802 L151.314,3.802 L150.918,6.538 Z M159.399,5.854 L160.101,0.904 L159.507,0.22 L163.611,0.22 L162.819,5.854 L167.949,5.854 L167.715,7.546 L165.645,7.546 L165.177,10.984 L166.887,10.984 L167.661,10.3 L167.283,13 L161.433,13.018 L162.225,7.546 L159.129,7.546 L155.997,13 L152.577,13 L155.709,7.546 L153.351,7.546 L153.585,5.854 L159.399,5.854 Z M165.141,1.588 L164.673,1.066 L168.273,1.066 L166.473,5.332 L163.575,5.332 L165.141,1.588 Z M158.787,5.332 L155.889,5.332 L155.349,1.57 L154.917,1.066 L158.193,1.066 L158.787,5.332 Z M174.9,9.4 L172.164,9.4 L173.28,1.732 L176.016,1.732 L174.9,9.4 Z M174.576,11.92 L171.84,11.92 L172.074,10.21 L174.81,10.21 L174.576,11.92 Z" id="让小伙伴见证你的荣光！" fill="url(#linearGradient-1)"></path>
            <path d="M8.874,30.364 L5.274,30.364 L6.264,23.362 L9.864,23.362 L10.062,21.922 L9.468,21.238 L13.212,21.238 L12.906,23.362 L16.506,23.362 L15.516,30.364 L11.934,30.364 L11.412,34.144 L8.352,34.144 L8.874,30.364 Z M0.036,33.766 L1.944,27.286 L5.022,27.286 L3.114,33.766 L0.036,33.766 Z M2.124,25.972 L1.998,21.904 L5.058,21.904 L5.184,25.972 L2.124,25.972 Z M9.108,28.69 L9.63,25.036 L8.676,25.036 L8.154,28.69 L9.108,28.69 Z M12.672,25.036 L12.168,28.69 L13.122,28.69 L13.644,25.036 L12.672,25.036 Z M24.303,22.948 L24.465,21.85 L23.871,21.22 L27.921,21.22 L27.669,22.948 L32.619,22.948 L32.385,24.622 L27.435,24.622 L27.165,26.584 L32.835,26.584 L32.619,28.24 L26.931,28.24 L26.391,32.038 L28.659,32.038 L29.073,29.05 L32.133,29.05 L31.467,33.856 L17.517,33.856 L18.201,28.978 L21.261,28.978 L20.829,32.038 L23.025,32.038 L23.565,28.24 L17.607,28.24 L17.823,26.584 L23.799,26.584 L24.069,24.622 L19.119,24.622 L19.353,22.948 L24.303,22.948 Z M36.4919999,23.524 L36.7439999,21.76 L36.2939999,21.238 L39.8399999,21.238 L39.5159999,23.524 L40.4699999,23.524 L40.2359999,25.126 L39.2999999,25.126 L39.0119999,27.16 L39.8219999,26.926 L39.5519999,28.798 L38.7419999,29.032 L38.2019999,32.956 C38.1539997,33.3040017 37.9950013,33.5889989 37.7249999,33.811 C37.4549986,34.0330011 37.1520016,34.144 36.8159999,34.144 L34.0259999,34.144 L35.2319999,32.524 L35.5919999,29.968 L34.5839999,30.256 L34.8539999,28.366 L35.8439999,28.078 L36.2579999,25.126 L35.3399999,25.126 L35.5739999,23.524 L36.4919999,23.524 Z M41.8379999,26.62 L42.1259999,24.586 L40.6319999,24.586 L40.8839999,22.876 L42.3599999,22.876 L42.5039999,21.94 L42.0359999,21.22 L45.4019999,21.22 L43.5659999,34.162 L40.7759999,34.162 L41.1179999,31.75 L39.6239999,31.75 L39.8759999,30.04 L41.3519999,30.04 L41.6039999,28.33 L40.1279999,28.33 L40.3619999,26.62 L41.8379999,26.62 Z M46.1579999,21.202 L48.9479999,21.202 L48.7139999,22.858 L50.1539999,22.858 L49.9019999,24.568 L48.4619999,24.568 L48.1739999,26.62 L49.6499999,26.62 L49.4159999,28.33 L47.9399999,28.33 L47.6879999,30.022 L49.1999999,30.022 L48.9479999,31.732 L47.4539999,31.732 L47.1119999,34.162 L44.3219999,34.162 L46.1579999,21.202 Z M66.0509999,28.726 L65.3309999,33.856 L50.9669999,33.856 L51.6869999,28.726 L66.0509999,28.726 Z M59.4449999,24.622 L60.0749999,26.17 L61.4069999,26.17 L63.3149999,23.866 L63.3509999,23.596 L56.1869999,23.596 L55.3229999,24.622 L51.9029999,24.622 L54.4409999,21.616 L54.0809999,21.202 L58.2029999,21.202 L57.6269999,21.886 L67.0049999,21.886 L66.6449999,24.46 L63.7649999,27.88 L51.7949999,27.88 L52.0469999,26.17 L56.6549999,26.17 L56.0249999,24.622 L59.4449999,24.622 Z M62.1449999,32.146 L62.3789999,30.436 L54.8549999,30.436 L54.6209999,32.146 L62.1449999,32.146 Z M83.0099998,24.622 L82.6319998,27.34 L69.6179998,27.34 L69.9959998,24.622 L83.0099998,24.622 Z M70.2119998,23.002 L69.5999998,23.002 L69.7619998,21.778 L75.7739998,21.778 L75.8099998,21.526 L75.5399998,21.22 L79.5359998,21.22 L79.4459998,21.778 L84.0899998,21.778 L83.9279998,23.002 L73.2359998,23.002 L73.1819998,23.416 L83.2079998,23.416 L83.0819998,24.316 L70.0319998,24.316 L70.2119998,23.002 Z M69.9239998,34.144 L70.5539998,33.514 L70.7159998,32.326 L69.7439998,32.326 L69.3839998,34.144 L67.6919998,34.144 L68.9159998,27.7 L73.2179998,27.7 L72.4259998,33.388 C72.3899996,33.6040011 72.2820007,33.7839993 72.1019998,33.928 C71.9219989,34.0720007 71.718001,34.144 71.4899998,34.144 L69.9239998,34.144 Z M80.3279998,34.144 L80.6159998,32.056 L79.9679998,32.056 L79.8959998,31.084 L79.2839998,34.144 L77.7359998,34.144 L78.9599998,27.7 L82.9379998,27.7 L82.1819998,33.028 L82.4699998,33.028 L82.9559998,32.56 L82.7219998,34.144 L80.3279998,34.144 Z M73.5959998,27.682 L78.4559998,27.682 L77.7899998,32.47 L76.7999998,32.47 L76.4759998,31.894 L76.9079998,28.816 L74.8919998,28.816 L74.4599998,31.93 L73.9199998,32.488 L72.9299998,32.488 L73.5959998,27.682 Z M76.5839998,29.176 L76.2059998,31.93 L77.6639998,34.144 L75.9359998,34.144 L75.3059998,33.208 L74.3879998,34.144 L72.4979998,34.144 L74.7299998,31.876 L75.1079998,29.176 L76.5839998,29.176 Z M79.7159998,26.368 L79.8239998,25.594 L72.8939998,25.594 L72.7859998,26.368 L79.7159998,26.368 Z M80.0219998,30.4 L80.6879998,30.4 L80.7419998,31.156 L81.0839998,28.816 L80.3459998,28.816 L80.0219998,30.4 Z M69.9419998,31.318 L70.8599998,31.318 L70.9499998,30.562 L70.0859998,30.562 L69.9419998,31.318 Z M70.2839998,29.572 L71.0939998,29.572 L71.2019998,28.816 L70.4459998,28.816 L70.2839998,29.572 Z M96.9269998,21.544 L94.4609998,25.306 L100.689,25.306 L100.455,27.016 L97.2509998,27.016 L99.9509998,34.162 L96.1889998,34.162 L93.5069998,27.016 L93.3449998,27.016 L88.6649998,34.162 L84.9029998,34.162 L89.5829998,27.016 L86.4329998,27.016 L86.6669998,25.306 L90.6989998,25.306 L92.8769998,21.994 L92.4809998,21.544 L96.9269998,21.544 Z M105.336,30.778 L102.348,30.778 L102.582,29.068 L107.28,29.068 L108.054,28.384 L112.302,28.384 L111.528,29.068 L116.946,29.068 L116.712,30.778 L113.4,30.778 L116.568,34.162 L112.14,34.162 L109.35,30.994 L105.768,34.162 L101.52,34.162 L105.336,30.778 Z M114.228,21.202 L113.796,21.886 L117.9,21.886 L117.576,24.28 L114.696,28.024 L108.81,28.024 L109.062,26.314 L109.8,26.314 L109.386,24.604 L112.176,24.604 L112.59,26.314 L112.806,26.314 L114.642,23.596 L112.752,23.596 L112.338,24.262 L109.152,24.262 L110.844,21.652 L110.466,21.202 L114.228,21.202 Z M105.246,27.142 L102.744,28.042 L103.032,26.044 L105.534,25.144 L105.606,24.532 L103.302,24.1 L103.572,22.21 L105.876,22.642 L105.984,21.922 L105.48,21.202 L109.296,21.202 L108.342,28.006 L105.138,28.006 L105.246,27.142 Z M124.185,30.4 L121.449,30.4 L122.565,22.732 L125.301,22.732 L124.185,30.4 Z M123.861,32.92 L121.125,32.92 L121.359,31.21 L124.095,31.21 L123.861,32.92 Z" id="冲击排名赢大奖！" fill="url(#linearGradient-2)"></path>
        </g>
    </g>
</svg>