<?xml version="1.0" encoding="UTF-8"?>
<svg width="220px" height="35px" viewBox="0 0 220 35" version="1.1" xmlns="http://www.w3.org/2000/svg" xmlns:xlink="http://www.w3.org/1999/xlink">
    <title>text_sharebet_detail_ue</title>
    <defs>
        <linearGradient x1="50%" y1="0%" x2="50%" y2="100%" id="linearGradient-1">
            <stop stop-color="#FFFFFF" offset="0%"></stop>
            <stop stop-color="#FFFFFF" stop-opacity="0.32145979" offset="100%"></stop>
        </linearGradient>
        <linearGradient x1="50%" y1="0%" x2="50%" y2="100%" id="linearGradient-2">
            <stop stop-color="#FFFFFF" offset="0%"></stop>
            <stop stop-color="#FFFFFF" stop-opacity="0.32145979" offset="100%"></stop>
        </linearGradient>
    </defs>
    <g id="text_sharebet_detail_ue" stroke="none" stroke-width="1" fill="none" fill-rule="evenodd">
        <g id="text_sharebet_detail" transform="translate(0.000000, 1.000000)" fill-rule="nonzero">
            <path d="M192.199512,3.94509353 L191.2328,14.106964 C191.199321,14.4546859 191.090514,14.7424556 190.906378,14.9702734 C190.748548,15.1655457 190.569195,15.2771299 190.36832,15.305026 L190.266089,15.312 L184.842458,15.312 L185.080997,12.9019281 L185.570631,13.5853813 L188.822298,13.5853813 L189.060837,11.5350216 L185.206544,11.5350216 L185.922162,3.94509353 L192.199512,3.94509353 Z M214.948629,3.94509353 L215.601473,7.75804317 L216.756505,4.28682014 L216.517966,3.94509353 L219.28,3.94509353 L215.237387,14.6285468 C215.170428,14.7964125 215.059528,14.9522878 214.904687,15.0961727 C214.749846,15.2400576 214.580357,15.312 214.396222,15.312 L214.396222,15.312 L212.161485,15.312 L213.128197,13.9271079 L214.0698,11.3731511 L212.651118,4.46667626 L212.299587,3.94509353 L214.948629,3.94509353 Z M156.375374,3.94509353 L157.028218,7.75804317 L158.18325,4.28682014 L157.944711,3.94509353 L160.706745,3.94509353 L156.664132,14.6285468 C156.597173,14.7964125 156.486274,14.9522878 156.331432,15.0961727 C156.176591,15.2400576 156.007102,15.312 155.822967,15.312 L155.822967,15.312 L153.58823,15.312 L154.554942,13.9271079 L155.496545,11.3731511 L154.077864,4.46667626 L153.726332,3.94509353 L156.375374,3.94509353 Z M22.7222235,3.94509353 L23.3750679,7.75804317 L24.5301003,4.28682014 L24.291561,3.94509353 L27.053595,3.94509353 L23.0109816,14.6285468 C22.9440232,14.7964125 22.8331234,14.9522878 22.6782821,15.0961727 C22.5234408,15.2400576 22.3539523,15.312 22.1698167,15.312 L22.1698167,15.312 L19.9350802,15.312 L20.9017921,13.9271079 L21.8433945,11.3731511 L20.4247135,4.46667626 L20.0731819,3.94509353 L22.7222235,3.94509353 Z M172.357507,3.94509353 L171.8051,9.34077698 L173.311664,9.12494964 L173.801297,4.44869065 L173.437211,3.94509353 L176.2118,3.94509353 L175.483627,11.5350216 L173.073125,11.5350216 L173.148453,10.8515683 L169.218832,11.5350216 L169.947004,4.44869065 L169.582918,3.94509353 L172.357507,3.94509353 Z M99.6267352,3.94509353 L99.3881959,6.17530935 L97.3041157,6.17530935 L97.3417798,5.67171223 L95.8979893,5.67171223 L95.7724423,6.8767482 L99.2752036,6.8767482 L99.0241096,10.3299856 C98.965521,10.6777074 98.8316042,10.9654772 98.6223592,11.193295 C98.4131142,11.4211127 98.1871296,11.5350216 97.9444054,11.5350216 L97.9444054,11.5350216 L93.1234007,11.5350216 L93.36194,9.12494964 L93.7260263,9.80840288 L96.8647012,9.80840288 L96.9776935,8.60336691 L93.36194,8.60336691 L93.8515733,3.94509353 L99.6267352,3.94509353 Z M208.231864,3.94509353 L207.993325,6.35516547 L209.688209,3.94509353 L212.098712,3.94509353 L207.993325,9.12494964 L207.754785,11.5350216 L205.344283,11.5350216 L206.047346,4.44869065 L205.796252,3.94509353 L208.231864,3.94509353 Z M127.994777,3.94509353 L127.266604,11.5350216 L124.856102,11.5350216 L125.458728,5.67171223 L124.014937,5.67171223 L123.412312,11.5350216 L121.001809,11.5350216 L121.729982,4.44869065 L121.365896,3.94509353 L127.994777,3.94509353 Z M67.8507898,3.94509353 L67.1226172,11.5350216 L64.7121148,11.5350216 L65.4402874,4.44869065 L65.0762011,3.94509353 L67.8507898,3.94509353 Z M38.7043565,3.94509353 L38.1519497,9.34077698 L39.6585137,9.12494964 L40.148147,4.44869065 L39.7840607,3.94509353 L42.5586494,3.94509353 L41.8304768,11.5350216 L39.4199744,11.5350216 L39.4953026,10.8515683 L35.5656815,11.5350216 L36.2938541,4.44869065 L35.9297678,3.94509353 L38.7043565,3.94509353 Z M11.5290111,3.94509353 L11.0519325,8.42351079 L7.19763964,8.42351079 L7.07209264,9.80840288 L10.4493069,9.80840288 L11.0519325,9.12494964 L10.6878462,11.5350216 L5.38976286,11.5350216 L5.28945337,11.5280476 C5.09626472,11.5001515 4.94765807,11.3885673 4.84363341,11.193295 C4.74654373,11.0110408 4.68828992,10.7904173 4.66887199,10.5314245 L4.66159026,10.3299856 L5.26421586,3.94509353 L11.5290111,3.94509353 Z M75.9611259,3.94509353 L75.4840473,8.42351079 L71.6297544,8.42351079 L71.5042074,9.80840288 L74.8814217,9.80840288 L75.4840473,9.12494964 L75.119961,11.5350216 L69.8218777,11.5350216 C69.5791535,11.5350216 69.3971103,11.4211127 69.2757482,11.193295 C69.1786585,11.0110408 69.1204047,10.7904173 69.1009868,10.5314245 L69.0937051,10.3299856 L69.6963307,3.94509353 L75.9611259,3.94509353 Z M203.611735,3.94509353 C203.854459,3.94509353 204.036502,4.08598082 204.157864,4.3677554 C204.254954,4.59317506 204.313207,4.83969784 204.332625,5.10732374 L204.339907,5.312 L203.737282,11.5350216 L198.313651,11.5350216 C198.070927,11.5350216 197.888884,11.4211127 197.767522,11.193295 C197.670432,11.0110408 197.612178,10.7904173 197.59276,10.5314245 L197.585479,10.3299856 L198.188104,3.94509353 L203.611735,3.94509353 Z M167.486283,3.94509353 C167.729007,3.94509353 167.91105,4.08598082 168.032413,4.3677554 C168.129502,4.59317506 168.187756,4.83969784 168.207174,5.10732374 L168.214456,5.312 L167.61183,11.5350216 L162.1882,11.5350216 C161.945476,11.5350216 161.763432,11.4211127 161.64207,11.193295 C161.544981,11.0110408 161.486727,10.7904173 161.467309,10.5314245 L161.460027,10.3299856 L162.062653,3.94509353 L167.486283,3.94509353 Z M33.8331329,3.94509353 C34.0758571,3.94509353 34.2579003,4.08598082 34.3792624,4.3677554 C34.4763521,4.59317506 34.5346059,4.83969784 34.5540238,5.10732374 L34.5613055,5.312 L33.9586799,11.5350216 L28.5350496,11.5350216 C28.2923254,11.5350216 28.1102822,11.4211127 27.9889201,11.193295 C27.8918305,11.0110408 27.8335767,10.7904173 27.8141587,10.5314245 L27.806877,10.3299856 L28.4095026,3.94509353 L33.8331329,3.94509353 Z M83.9584697,3.94509353 L83.2302971,11.5350216 L80.8197948,11.5350216 L81.4224204,5.67171223 L79.9786299,5.67171223 L79.3760043,11.5350216 L76.9655019,11.5350216 L77.6936745,4.44869065 L77.3295882,3.94509353 L83.9584697,3.94509353 Z M92.1943529,0.312 L91.1146487,11.5350216 L85.6910183,11.5350216 C85.4482941,11.5350216 85.266251,11.4211127 85.1448889,11.193295 C85.0477992,11.0110408 84.9895454,10.7904173 84.9701275,10.5314245 L84.9628457,10.3299856 L85.5654713,3.94509353 L89.4197642,3.94509353 L89.7838505,0.312 L92.1943529,0.312 Z M118.917729,2.38034532 L118.754518,3.94509353 L120.248527,3.94509353 L119.997433,5.67171223 L118.603862,5.67171223 L118.189556,9.80840288 L119.394808,9.80840288 L119.156268,11.5350216 L116.507227,11.5350216 C116.264502,11.5350216 116.067812,11.4211127 115.917156,11.193295 C115.766499,10.9654772 115.720465,10.6777074 115.779054,10.3299856 L115.779054,10.3299856 L116.268687,5.67171223 L115.301976,5.67171223 L115.427523,3.94509353 L116.406789,3.94509353 L116.507227,2.90192806 L116.268687,2.38034532 L118.917729,2.38034532 Z M104.379387,3.94509353 L104.617926,7.74005755 L105.584638,3.94509353 L107.028428,3.94509353 L107.279522,7.74005755 L108.233679,3.94509353 L110.167103,3.94509353 L108.233679,11.5350216 L106.31281,11.5350216 L105.948724,7.74005755 L104.86902,11.5350216 L102.935596,11.5350216 L102.57151,4.44869065 L102.332971,3.94509353 L104.379387,3.94509353 Z M196.581103,0.312 L195.614391,9.80840288 L196.455556,11.5350216 L193.932061,11.5350216 C193.689337,11.5350216 193.507294,11.4211127 193.385931,11.193295 C193.264569,10.9654772 193.203888,10.6777074 193.203888,10.3299856 L193.203888,10.3299856 L194.1706,0.833582734 L193.806514,0.312 L196.581103,0.312 Z M114.05906,3.94509353 L113.330888,11.5350216 L110.920385,11.5350216 L111.648558,4.44869065 L111.284472,3.94509353 L114.05906,3.94509353 Z M16.1491407,2.38034532 L15.9859296,3.94509353 L17.4799389,3.94509353 L17.2288449,5.67171223 L15.8352732,5.67171223 L15.4209681,9.80840288 L16.6262193,9.80840288 L16.38768,11.5350216 L13.7386383,11.5350216 L13.637432,11.5280476 C13.4406563,11.5001515 13.2777014,11.3885673 13.1485674,11.193295 C12.997911,10.9654772 12.9518771,10.6777074 13.0104657,10.3299856 L13.0104657,10.3299856 L13.500099,5.67171223 L12.5333871,5.67171223 L12.6589341,3.94509353 L13.6382007,3.94509353 L13.7386383,2.90192806 L13.500099,2.38034532 L16.1491407,2.38034532 Z M143.374284,3.94509353 L143.135745,6.17530935 L141.051665,6.17530935 L141.089329,5.67171223 L139.645539,5.67171223 L139.519992,6.8767482 L143.022753,6.8767482 L142.771659,10.3299856 C142.71307,10.6777074 142.579153,10.9654772 142.369908,11.193295 C142.160663,11.4211127 141.934679,11.5350216 141.691955,11.5350216 L141.691955,11.5350216 L136.87095,11.5350216 L137.109489,9.12494964 L137.473576,9.80840288 L140.61225,9.80840288 L140.725243,8.60336691 L137.109489,8.60336691 L137.599123,3.94509353 L143.374284,3.94509353 Z M60.5313997,3.94509353 L60.2928604,6.35516547 L61.9877449,3.94509353 L64.3982473,3.94509353 L60.2928604,9.12494964 L60.0543211,11.5350216 L57.6438188,11.5350216 L58.346882,4.44869065 L58.095788,3.94509353 L60.5313997,3.94509353 Z M3.65721427,0.312 L2.69050238,9.80840288 L3.53166727,11.5350216 L1.00817259,11.5350216 L0.907863104,11.5280476 C0.714674456,11.5001515 0.566067805,11.3885673 0.462043148,11.193295 C0.340681049,10.9654772 0.28,10.6777074 0.28,10.3299856 L0.28,10.3299856 L1.24671189,0.833582734 L0.882625595,0.312 L3.65721427,0.312 Z M46.4506063,3.94509353 L46.212067,6.35516547 L47.9069515,3.94509353 L50.3174539,3.94509353 L46.212067,9.12494964 L45.9735277,11.5350216 L43.5630254,11.5350216 L44.2660886,4.44869065 L44.0149946,3.94509353 L46.4506063,3.94509353 Z M135.866574,3.94509353 L135.389495,8.42351079 L131.535202,8.42351079 L131.409655,9.80840288 L134.78687,9.80840288 L135.389495,9.12494964 L135.025409,11.5350216 L129.727326,11.5350216 C129.484601,11.5350216 129.302558,11.4211127 129.181196,11.193295 C129.084107,11.0110408 129.025853,10.7904173 129.006435,10.5314245 L128.999153,10.3299856 L129.601779,3.94509353 L135.866574,3.94509353 Z M150.881995,3.94509353 L150.643456,6.17530935 L148.559376,6.17530935 L148.59704,5.67171223 L147.153249,5.67171223 L147.027702,6.8767482 L150.530463,6.8767482 L150.279369,10.3299856 C150.220781,10.6777074 150.086864,10.9654772 149.877619,11.193295 C149.668374,11.4211127 149.442389,11.5350216 149.199665,11.5350216 L149.199665,11.5350216 L144.37866,11.5350216 L144.6172,9.12494964 L144.981286,9.80840288 L148.119961,9.80840288 L148.232953,8.60336691 L144.6172,8.60336691 L145.106833,3.94509353 L150.881995,3.94509353 Z M57.1416308,0.312 L56.9282009,2.03861871 L56.3255753,2.03861871 L56.0744813,3.94509353 L57.0411932,3.94509353 L56.8026539,5.67171223 L55.961489,5.67171223 L55.3588634,11.5350216 L52.948361,11.5350216 L53.5509866,5.67171223 L52.5842747,5.67171223 L52.7098217,3.94509353 L53.6639789,3.94509353 L54.0280652,0.312 L57.1416308,0.312 Z M180.103756,3.94509353 L179.865217,6.35516547 L181.560102,3.94509353 L183.970604,3.94509353 L179.865217,9.12494964 L179.626678,11.5350216 L177.216175,11.5350216 L177.919239,4.44869065 L177.668145,3.94509353 L180.103756,3.94509353 Z M201.929405,5.67171223 L200.47306,5.67171223 L199.995981,9.80840288 L201.439771,9.80840288 L201.929405,5.67171223 Z M89.3067719,5.67171223 L87.7876532,5.67171223 L87.3231293,9.80840288 L88.8548027,9.80840288 L89.3067719,5.67171223 Z M165.803953,5.67171223 L164.347608,5.67171223 L163.87053,9.80840288 L165.31432,9.80840288 L165.803953,5.67171223 Z M32.1508032,5.67171223 L30.694458,5.67171223 L30.2173794,9.80840288 L31.6611699,9.80840288 L32.1508032,5.67171223 Z M189.663463,5.67171223 L188.219672,5.67171223 L187.767703,9.79041727 L189.186384,9.79041727 L189.663463,5.67171223 Z M9.00551642,5.67171223 L7.54917124,5.67171223 L7.43617894,6.69689209 L8.87996943,6.69689209 L9.00551642,5.67171223 Z M73.4376312,5.67171223 L71.981286,5.67171223 L71.8682937,6.69689209 L73.3120842,6.69689209 L73.4376312,5.67171223 Z M133.343079,5.67171223 L131.886734,5.67171223 L131.773742,6.69689209 L133.217532,6.69689209 L133.343079,5.67171223 Z M68.0893291,1.35516547 L67.8507898,3.42351079 L65.5532797,3.42351079 L65.6788267,1.35516547 L68.0893291,1.35516547 Z M114.2976,1.35516547 L114.05906,3.42351079 L111.76155,3.42351079 L111.887097,1.35516547 L114.2976,1.35516547 Z" id="形状结合" fill="url(#linearGradient-1)"></path>
            <path d="M92.863141,20.9450935 L91.8990665,31.106964 C91.8656787,31.4546859 91.7571681,31.7424556 91.5735349,31.9702734 C91.416135,32.1655457 91.2372715,32.2771299 91.0369443,32.305026 L90.9349921,32.312 L85.526159,32.312 L85.7640475,29.9019281 L86.2523449,30.5853813 L89.4951407,30.5853813 L89.7330292,28.5350216 L85.889252,28.5350216 L86.6029175,20.9450935 L92.863141,20.9450935 Z M148.650079,20.9450935 L148.049098,27.3299856 C148.032404,27.5098417 147.990669,27.6717122 147.923893,27.8155971 C147.857118,27.959482 147.775735,28.0853813 147.679745,28.193295 C147.583755,28.3012086 147.483591,28.3851415 147.379254,28.4450935 C147.309696,28.4850616 147.24292,28.5117069 147.178927,28.5250296 L147.085023,28.5350216 L144.092637,28.5350216 L143.679462,32.312 L141.275536,32.312 L142.389856,21.4666763 L142.039283,20.9450935 L148.650079,20.9450935 Z M3.76068427,17.312 L3.41011175,20.9450935 L7.25388898,20.9450935 L6.52770306,28.5350216 L4.12377723,28.5350216 L4.72475869,22.6717122 L3.28490728,22.6717122 L2.68392583,28.5350216 L0.28,28.5350216 L1.35675844,17.8335827 L1.11886995,17.312 L3.76068427,17.312 Z M11.3856365,20.9450935 L10.6594506,28.5350216 L8.25552474,28.5350216 L8.98171067,21.4486906 L8.61861771,20.9450935 L11.3856365,20.9450935 Z M16.2310495,19.3803453 L16.0682837,20.9450935 L17.5582169,20.9450935 L17.3078079,22.6717122 L15.9180383,22.6717122 L15.5048636,26.8084029 L16.7068265,26.8084029 L16.468938,28.5350216 L13.8271237,28.5350216 L13.7261935,28.5280476 C13.5299547,28.5001515 13.3674444,28.3885673 13.2386627,28.193295 C13.0884173,27.9654772 13.042509,27.6777074 13.1009377,27.3299856 L13.1009377,27.3299856 L13.5892352,22.6717122 L12.6251607,22.6717122 L12.7503652,20.9450935 L13.7269601,20.9450935 L13.8271237,19.9019281 L13.5892352,19.3803453 L16.2310495,19.3803453 Z M23.8629575,19.3803453 L23.7001917,20.9450935 L25.1901249,20.9450935 L24.939716,22.6717122 L23.5499463,22.6717122 L23.1367716,26.8084029 L24.3387345,26.8084029 L24.100846,28.5350216 L21.4590317,28.5350216 C21.2169697,28.5350216 21.020816,28.4211127 20.8705707,28.193295 C20.7203253,27.9654772 20.674417,27.6777074 20.7328458,27.3299856 L20.7328458,27.3299856 L21.2211432,22.6717122 L20.2570688,22.6717122 L20.3822732,20.9450935 L21.3588681,20.9450935 L21.4590317,19.9019281 L21.2211432,19.3803453 L23.8629575,19.3803453 Z M29.422036,17.312 L29.0714635,20.9450935 L32.9152407,20.9450935 L32.1890548,28.5350216 L29.7851289,28.5350216 L30.3861104,22.6717122 L28.946259,22.6717122 L28.3452775,28.5350216 L25.9413517,28.5350216 L27.0181102,17.8335827 L26.7802217,17.312 L29.422036,17.312 Z M114.993727,20.9450935 C115.235789,20.9450935 115.417335,21.0859808 115.538366,21.3677554 C115.635191,21.5931751 115.693286,21.8396978 115.712651,22.1073237 L115.719913,22.312 L115.118931,28.5350216 L109.710098,28.5350216 C109.468036,28.5350216 109.28649,28.4211127 109.165459,28.193295 C109.068634,28.0110408 109.010539,27.7904173 108.991174,27.5314245 L108.983912,27.3299856 L109.584894,20.9450935 L114.993727,20.9450935 Z M138.326275,20.9450935 L137.600089,28.5350216 L135.196163,28.5350216 L135.797145,22.6717122 L134.357294,22.6717122 L133.756312,28.5350216 L131.352386,28.5350216 L132.078572,21.4486906 L131.715479,20.9450935 L138.326275,20.9450935 Z M106.905518,19.3803453 L106.742752,20.9450935 L108.232685,20.9450935 L107.982276,22.6717122 L106.592507,22.6717122 L106.179332,26.8084029 L107.381295,26.8084029 L107.143406,28.5350216 L104.501592,28.5350216 C104.25953,28.5350216 104.063376,28.4211127 103.913131,28.193295 C103.762886,27.9654772 103.716977,27.6777074 103.775406,27.3299856 L103.775406,27.3299856 L104.263704,22.6717122 L103.299629,22.6717122 L103.424834,20.9450935 L104.401428,20.9450935 L104.501592,19.9019281 L104.263704,19.3803453 L106.905518,19.3803453 Z M182.28,20.9450935 L182.042112,23.1753094 L179.963717,23.1753094 L180.001279,22.6717122 L178.561427,22.6717122 L178.436223,23.8767482 L181.929427,23.8767482 L181.679019,27.3299856 C181.62059,27.6777074 181.487038,27.9654772 181.278364,28.193295 C181.06969,28.4211127 180.844322,28.5350216 180.60226,28.5350216 L180.60226,28.5350216 L175.794408,28.5350216 L176.032297,26.1249496 L176.39539,26.8084029 L179.525502,26.8084029 L179.638186,25.6033669 L176.032297,25.6033669 L176.520594,20.9450935 L182.28,20.9450935 Z M174.792773,20.9450935 L174.316996,25.4235108 L170.473218,25.4235108 L170.348014,26.8084029 L173.716014,26.8084029 L174.316996,26.1249496 L173.953903,28.5350216 L168.670274,28.5350216 C168.428212,28.5350216 168.246666,28.4211127 168.125635,28.193295 C168.02881,28.0110408 167.970715,27.7904173 167.95135,27.5314245 L167.944088,27.3299856 L168.54507,20.9450935 L174.792773,20.9450935 Z M45.8989442,20.9450935 L45.6610558,23.3551655 L47.3513161,20.9450935 L49.7552419,20.9450935 L45.6610558,26.1249496 L45.4231673,28.5350216 L43.0192414,28.5350216 L43.7203865,21.4486906 L43.4699775,20.9450935 L45.8989442,20.9450935 Z M167.192861,20.9450935 L167.067657,22.6717122 L163.699657,26.8084029 L166.704564,26.8084029 L166.466675,28.5350216 L160.819954,28.5350216 L160.945158,26.8084029 L164.425843,22.6717122 L161.295731,22.6717122 L161.54614,20.9450935 L167.192861,20.9450935 Z M40.765561,20.9450935 L40.289784,25.4235108 L36.4460068,25.4235108 L36.3208023,26.8084029 L39.6888025,26.8084029 L40.289784,26.1249496 L39.926691,28.5350216 L34.6430624,28.5350216 C34.4010004,28.5350216 34.2194539,28.4211127 34.0984229,28.193295 C34.0015982,28.0110408 33.9435033,27.7904173 33.9241383,27.5314245 L33.9168765,27.3299856 L34.5178579,20.9450935 L40.765561,20.9450935 Z M159.830839,20.9450935 L159.104653,28.5350216 L156.700727,28.5350216 L157.426913,21.4486906 L157.06382,20.9450935 L159.830839,20.9450935 Z M69.0742917,17.312 L68.5985147,22.312 L70.1635705,20.7652374 L72.8053849,20.7652374 L69.4373846,24.0386187 L72.0791989,28.5350216 L69.4373846,28.5350216 L68.2354217,26.2868201 L67.9975332,28.5350216 L65.5936074,28.5350216 L66.6703658,17.8335827 L66.3197933,17.312 L69.0742917,17.312 Z M130.112862,20.9450935 L129.386676,28.5350216 L126.98275,28.5350216 L127.708936,21.4486906 L127.345843,20.9450935 L130.112862,20.9450935 Z M64.5919716,20.9450935 L63.8657857,28.5350216 L61.4618599,28.5350216 L62.0628413,22.6717122 L60.6229899,22.6717122 L60.0220085,28.5350216 L57.6180826,28.5350216 L58.3442686,21.4486906 L57.9811756,20.9450935 L64.5919716,20.9450935 Z M56.6790491,20.9450935 L55.9528632,27.6717122 L56.4411606,28.5350216 L50.794439,28.5350216 C50.5523771,28.5350216 50.3708306,28.4211127 50.2497996,28.193295 C50.1529748,28.0110408 50.0948799,27.7904173 50.075515,27.5314245 L50.0682531,27.3299856 L50.4313461,24.0386187 L54.0372348,24.0386187 L54.2250415,22.6717122 L52.9479559,22.6717122 L52.8352719,23.3551655 L50.4313461,23.3551655 L50.794439,20.9450935 L56.6790491,20.9450935 Z M120.459597,20.9450935 L120.697486,24.7400576 L121.66156,20.9450935 L123.101412,20.9450935 L123.351821,24.7400576 L124.303375,20.9450935 L126.231523,20.9450935 L124.303375,28.5350216 L122.387746,28.5350216 L122.024653,24.7400576 L120.947895,28.5350216 L119.019746,28.5350216 L118.656653,21.4486906 L118.418764,20.9450935 L120.459597,20.9450935 Z M84.5245233,20.9450935 L83.7983373,28.5350216 L81.3944115,28.5350216 L81.995393,22.6717122 L80.5555416,22.6717122 L79.9545601,28.5350216 L77.5506343,28.5350216 L78.2768202,21.4486906 L77.9137272,20.9450935 L84.5245233,20.9450935 Z M152.531418,20.9450935 L152.293529,23.3551655 L153.98379,20.9450935 L156.387716,20.9450935 L152.293529,26.1249496 L152.055641,28.5350216 L149.651715,28.5350216 L150.35286,21.4486906 L150.102451,20.9450935 L152.531418,20.9450935 Z M76.31111,20.9450935 L75.5849241,28.5350216 L73.1809983,28.5350216 L73.9071842,21.4486906 L73.5440912,20.9450935 L76.31111,20.9450935 Z M100.350368,20.9450935 L100.11248,23.1753094 L98.0340856,23.1753094 L98.0716469,22.6717122 L96.6317955,22.6717122 L96.506591,23.8767482 L99.9997958,23.8767482 L99.7493868,27.3299856 C99.6909581,27.6777074 99.5574066,27.9654772 99.3487325,28.193295 C99.1400584,28.4211127 98.9146904,28.5350216 98.6726284,28.5350216 L98.6726284,28.5350216 L93.8647767,28.5350216 L94.1026652,26.1249496 L94.4657582,26.8084029 L97.5958699,26.8084029 L97.708554,25.6033669 L94.1026652,25.6033669 L94.5909627,20.9450935 L100.350368,20.9450935 Z M146.120949,22.6717122 L144.681098,22.6717122 L144.230362,26.9702734 L145.682733,26.9702734 L146.120949,22.6717122 Z M113.315987,22.6717122 L111.863615,22.6717122 L111.387838,26.8084029 L112.827689,26.8084029 L113.315987,22.6717122 Z M53.7993463,25.7652374 L52.5973834,25.7652374 L52.4721789,26.8084029 L53.6741418,26.8084029 L53.7993463,25.7652374 Z M90.3340107,22.6717122 L88.8941593,22.6717122 L88.4434232,26.7904173 L89.8582337,26.7904173 L90.3340107,22.6717122 Z M172.276163,22.6717122 L170.823791,22.6717122 L170.711107,23.6968921 L172.150958,23.6968921 L172.276163,22.6717122 Z M38.2489511,22.6717122 L36.7965793,22.6717122 L36.6838953,23.6968921 L38.1237467,23.6968921 L38.2489511,22.6717122 Z M11.623525,18.3551655 L11.3856365,20.4235108 L9.09439469,20.4235108 L9.21959916,18.3551655 L11.623525,18.3551655 Z M76.5489985,18.3551655 L76.31111,20.4235108 L74.0198682,20.4235108 L74.1450727,18.3551655 L76.5489985,18.3551655 Z M130.35075,18.3551655 L130.112862,20.4235108 L127.82162,20.4235108 L127.946825,18.3551655 L130.35075,18.3551655 Z M160.068727,18.3551655 L159.830839,20.4235108 L157.539597,20.4235108 L157.664801,18.3551655 L160.068727,18.3551655 Z" id="形状结合" fill="url(#linearGradient-2)"></path>
        </g>
    </g>
</svg>