<?xml version="1.0" encoding="UTF-8"?>
<svg width="30px" height="30px" viewBox="0 0 30 30" version="1.1" xmlns="http://www.w3.org/2000/svg" xmlns:xlink="http://www.w3.org/1999/xlink">
    <title>icon_popup_idot</title>
    <defs>
        <linearGradient x1="100%" y1="0%" x2="0%" y2="100%" id="linearGradient-1">
            <stop stop-color="#FFECD0" offset="0%"></stop>
            <stop stop-color="#E73B4E" stop-opacity="0" offset="100%"></stop>
        </linearGradient>
    </defs>
    <g id="icon_popup_idot" stroke="none" stroke-width="1" fill="none" fill-rule="evenodd">
        <path d="M26.669291,7.57145933 L13.5714593,20.669291 C12.8095136,21.4312367 12.8095136,22.6665949 13.5714593,23.4285407 C14.3334051,24.1904864 15.5687633,24.1904864 16.330709,23.4285407 L29.4285407,10.330709 C30.1904864,9.56876327 30.1904864,8.33340509 29.4285407,7.57145933 C28.6665949,6.80951356 27.4312367,6.80951356 26.669291,7.57145933 Z" id="直线-3" fill="url(#linearGradient-1)" fill-rule="nonzero"></path>
        <path d="M14.4173371,7.61468778 L9.61468778,12.4173371 C8.79510407,13.2369208 8.79510407,14.5657285 9.61468778,15.3853122 C10.4342715,16.2048959 11.7630792,16.2048959 12.5826629,15.3853122 L17.3853122,10.5826629 C18.2048959,9.76307921 18.2048959,8.43427148 17.3853122,7.61468778 C16.5657285,6.79510407 15.2369208,6.79510407 14.4173371,7.61468778 Z" id="直线-3备份" fill="url(#linearGradient-1)" fill-rule="nonzero"></path>
        <path d="M2.43404102,7.61182184 L1.61182184,8.43404102 C0.796059388,9.24980346 0.796059388,10.5724157 1.61182184,11.3881782 C2.42758428,12.2039406 3.75019654,12.2039406 4.56595898,11.3881782 L5.38817816,10.565959 C6.20394061,9.75019654 6.20394061,8.42758428 5.38817816,7.61182184 C4.57241572,6.79605939 3.24980346,6.79605939 2.43404102,7.61182184 Z" id="直线-3备份-2" fill="url(#linearGradient-1)" fill-rule="nonzero"></path>
    </g>
</svg>