<?xml version="1.0" encoding="UTF-8"?>
<svg width="43px" height="33px" viewBox="0 0 43 33" version="1.1" xmlns="http://www.w3.org/2000/svg" xmlns:xlink="http://www.w3.org/1999/xlink">
    <!-- Generator: Sketch 55.2 (78181) - https://sketchapp.com -->
    <title>投注单/无法串关_slice</title>
    <desc>Created with Sketch.</desc>
    <g id="切图" stroke="none" stroke-width="1" fill="none" fill-rule="evenodd">
        <g id="画板" transform="translate(-40.000000, -828.000000)">
            <g id="ico/盘口暂停备份" transform="translate(40.000000, 828.000000)">
                <rect id="矩形" stroke="#19263B" stroke-width="2" fill="#FFFFFF" x="1" y="1" width="38" height="28" rx="8"></rect>
                <rect id="矩形" fill="#19263B" x="8" y="8" width="24" height="2" rx="1"></rect>
                <rect id="矩形备份" fill="#19263B" x="8" y="16" width="16" height="2" rx="1"></rect>
                <circle id="椭圆形" fill="#F05050" cx="34.5" cy="24.5" r="8.5"></circle>
                <g id="形状-2" stroke-width="1" transform="translate(30.000000, 20.000000)" fill="#FFFFFF">
                    <path d="M4.23638664,2.39912284 C4.01849625,2.60760461 3.67297492,2.60048118 3.46386411,2.38319615 C3.24655727,2.17410632 3.23943311,1.82861966 3.44793581,1.61075113 L4.29611776,0.761857961 C5.34181063,-0.283729976 7.07162396,-0.24869123 8.16032324,0.8398988 C9.24902252,1.92848883 9.28326836,3.65892491 8.2383719,4.70371651 L7.38939354,5.55260968 C7.17150315,5.76109144 6.82598182,5.75396801 6.61687101,5.53668298 C6.39956417,5.32759315 6.39244001,4.98210649 6.60094271,4.76423797 L7.44992107,3.9153448 C8.07749608,3.28783277 8.05599287,2.25020819 7.4029326,1.59721344 C6.74987232,0.944218696 5.71214359,0.923513981 5.08456859,1.55022967 L4.23638664,2.39912284 Z M4.13683477,5.65135523 C3.91894438,5.859837 3.57342305,5.85271356 3.36431224,5.63542853 C3.1470054,5.4263387 3.13988125,5.08085204 3.34838394,4.86298352 L4.94519597,3.26712806 C5.16308636,3.05864629 5.50860768,3.06576973 5.7177185,3.28305476 C5.93502534,3.49214458 5.94214949,3.83763125 5.7336468,4.05549977 L4.13683477,5.65135523 L4.13683477,5.65135523 Z M4.71742129,6.64757039 C4.93531168,6.43908862 5.280833,6.44621205 5.48994382,6.66349708 C5.70725066,6.87258691 5.71437481,7.21807357 5.50587212,7.4359421 L4.70388223,8.2378515 C3.65818936,9.28343943 1.92837603,9.24919702 0.839676761,8.15981067 C-0.249022517,7.07122064 -0.283268358,5.34158089 0.76162809,4.29599295 L1.56361798,3.49408355 C1.78150836,3.28560178 2.12702969,3.29272522 2.3361405,3.51001025 C2.55344735,3.71910007 2.5605715,4.06458674 2.3520688,4.28245526 L1.55007892,5.08436466 C0.923300334,5.71187669 0.944007117,6.74950127 1.59706741,7.40249603 C2.25012768,8.05549077 3.28785641,8.07699182 3.9154314,7.44947979 L4.71742129,6.64757039 L4.71742129,6.64757039 Z" id="形状" fill-rule="nonzero"></path>
                </g>
            </g>
        </g>
    </g>
</svg>