<?xml version="1.0" encoding="UTF-8"?>
<svg width="14px" height="13px" viewBox="0 0 14 13" version="1.1" xmlns="http://www.w3.org/2000/svg" xmlns:xlink="http://www.w3.org/1999/xlink">
    <!-- Generator: Sketch 55.2 (78181) - https://sketchapp.com -->
    <title>联赛详情/已收藏_slice</title>
    <desc>Created with Sketch.</desc>
    <g id="切图" stroke="none" stroke-width="1" fill="none" fill-rule="evenodd">
        <g id="画板" transform="translate(-195.000000, -2757.000000)" fill="#5078FF">
            <path d="M208.965197,2762.03093 C208.881196,2761.78077 208.657192,2761.58621 208.391187,2761.55146 L204.415118,2760.97471 L202.637087,2757.39608 C202.518085,2757.15982 202.273081,2757 202.000076,2757 C201.734071,2757 201.482067,2757.15287 201.363065,2757.38913 L199.585034,2760.98166 L195.608964,2761.55146 C195.33596,2761.59316 195.118956,2761.77382 195.034954,2762.03093 C194.950953,2762.28804 195.020954,2762.55904 195.216958,2762.75361 L198.094008,2765.54007 L197.414996,2769.47309 C197.365995,2769.73715 197.477997,2770.0012 197.695001,2770.16797 C197.821003,2770.25831 197.968006,2770.3 198.108008,2770.3 C198.22001,2770.3 198.332012,2770.2722 198.437014,2770.21661 L201.993076,2768.36129 L205.542138,2770.21661 C205.773142,2770.34169 206.074147,2770.3278 206.298151,2770.16102 C206.515155,2770.0012 206.620157,2769.73715 206.578156,2769.47309 L205.899144,2765.54007 L208.776194,2762.75361 C208.979198,2762.56599 209.049199,2762.28804 208.965197,2762.03093 Z" id="联赛详情/已收藏"></path>
        </g>
    </g>
</svg>