<?xml version="1.0" encoding="UTF-8"?>
<svg width="12px" height="12px" viewBox="0 0 12 12" version="1.1" xmlns="http://www.w3.org/2000/svg" xmlns:xlink="http://www.w3.org/1999/xlink">
    <!-- Generator: Sketch 55.2 (78181) - https://sketchapp.com -->
    <title>形状备份</title>
    <desc>Created with Sketch.</desc>
    <g id="E投注单" stroke="none" stroke-width="1" fill="none" fill-rule="evenodd">
        <g id="E投注单/投注单-注单状态-串关详情" transform="translate(-171.000000, -230.000000)" fill="#A3A8B1" fill-rule="nonzero">
            <path d="M182.142857,239.428571 L174.428571,239.428571 C174.201243,239.428571 173.983225,239.338266 173.82248,239.17752 C173.661734,239.016775 173.571429,238.798757 173.571429,238.571429 L173.571429,230.857143 C173.571429,230.629814 173.661734,230.411797 173.82248,230.251051 C173.983225,230.090306 174.201243,230 174.428571,230 L182.142857,230 C182.616244,230 183,230.383756 183,230.857143 L183,238.571429 C183,238.798757 182.909694,239.016775 182.748949,239.17752 C182.588203,239.338266 182.370186,239.428571 182.142857,239.428571 Z M182.142857,230.857143 L174.428571,230.857143 L174.428571,238.571429 L182.142857,238.571429 L182.142857,230.857143 Z M176.142857,234.285714 L177.857143,234.285714 L177.857143,232.571429 C177.857182,232.334763 178.049048,232.142928 178.285714,232.142928 C178.52238,232.142928 178.714247,232.334763 178.714286,232.571429 L178.714286,234.285714 L180.428571,234.285714 C180.665237,234.285753 180.857072,234.47762 180.857072,234.714286 C180.857072,234.950952 180.665237,235.142818 180.428571,235.142857 L178.714286,235.142857 L178.714286,236.857143 C178.714247,237.093809 178.52238,237.285643 178.285714,237.285643 C178.049048,237.285643 177.857182,237.093809 177.857143,236.857143 L177.857143,235.142857 L176.142857,235.142857 C175.906191,235.142818 175.714357,234.950952 175.714357,234.714286 C175.714357,234.47762 175.906191,234.285753 176.142857,234.285714 Z M171.857143,241.142857 L179.571429,241.142857 L179.571429,240.285714 L180.428571,240.285714 L180.428571,241.142857 C180.428571,241.370186 180.338266,241.588203 180.17752,241.748949 C180.016775,241.909694 179.798757,242 179.571429,242 L171.857143,242 C171.383756,242 171,241.616244 171,241.142857 L171,233.428571 C171,233.201243 171.090306,232.983225 171.251051,232.82248 C171.411797,232.661734 171.629814,232.571429 171.857143,232.571429 L172.714286,232.571429 L172.714286,233.428571 L171.857143,233.428571 L171.857143,241.142857 L171.857143,241.142857 Z" id="形状备份"></path>
        </g>
    </g>
</svg>