<?xml version="1.0" encoding="UTF-8"?>
<svg width="30px" height="30px" viewBox="0 0 30 30" version="1.1" xmlns="http://www.w3.org/2000/svg" xmlns:xlink="http://www.w3.org/1999/xlink">
    <title>icon_early_result_draw</title>
    <defs>
        <linearGradient x1="100%" y1="50%" x2="0%" y2="50%" id="linearGradient-1">
            <stop stop-color="#0E5D04" offset="0%"></stop>
            <stop stop-color="#249612" offset="26.7419764%"></stop>
            <stop stop-color="#199611" offset="55.4080448%"></stop>
            <stop stop-color="#4BCE16" offset="80.4423564%"></stop>
            <stop stop-color="#115704" offset="100%"></stop>
        </linearGradient>
    </defs>
    <g id="icon_early_result_draw" stroke="none" stroke-width="1" fill="none" fill-rule="evenodd">
        <g id="编组">
            <rect id="矩形" fill="#D8D8D8" opacity="0" x="0" y="0" width="30" height="30"></rect>
            <path d="M25.75,0.5 L25.75,25.8900028 L15.0371221,29.4729535 L4.25,25.88924 L4.25,0.5 L25.75,0.5 Z" id="矩形" stroke="#48D231" fill="url(#linearGradient-1)"></path>
            <rect id="矩形" fill="#2F8E0D" x="1.875" y="0" width="26.25" height="1.875"></rect>
            <path d="M9.76317701,16.8438797 C10.0949888,16.8438797 10.3635984,16.7090249 10.5690057,16.4393154 C10.774413,16.1696058 10.8771166,15.8169087 10.8771166,15.3812241 L10.8771166,10.8584025 C10.8771166,10.4227178 10.774413,10.0700207 10.5690057,9.8003112 C10.3635984,9.53060166 10.0949888,9.39574689 9.76317701,9.39574689 L6.80057167,9.375 L6.80057167,16.8438797 L9.76317701,16.8438797 Z M9.47876689,15.4538382 L7.93821212,15.4538382 L7.93821212,10.8065353 L9.47876689,10.8065353 C9.66047335,10.8065353 9.74737644,10.9206432 9.74737644,11.1592324 L9.74737644,15.1011411 C9.74737644,15.3397303 9.66047335,15.4538382 9.47876689,15.4538382 Z M12.5045745,16.8438797 L12.5045745,12.9330913 L12.6625801,12.80861 C12.8995885,12.621888 13.1602978,12.528527 13.4526082,12.528527 L14.0767304,12.528527 L14.0767304,11.2007261 L13.5632121,11.2007261 C13.2709017,11.2007261 12.9706911,11.3874481 12.6625801,11.7712656 L12.5045745,11.968361 L12.5045745,11.2422199 L11.4143357,11.2422199 L11.4143357,16.8438797 L12.5045745,16.8438797 Z M15.5303821,16.875 C15.6330857,16.875 15.7357894,16.8542531 15.838493,16.8231328 C15.9885984,16.7505187 16.1703048,16.5845436 16.3836124,16.314834 L16.541618,16.1177386 L16.541618,16.8438797 L17.6318568,16.8438797 L17.6318568,12.6945021 C17.6318568,12.2795643 17.5212528,11.9268672 17.300045,11.6364108 C17.0788371,11.3459544 16.8102276,11.2007261 16.4942163,11.2007261 L15.388177,11.2007261 C15.0721658,11.2007261 14.8035562,11.3459544 14.5823484,11.6364108 C14.3611405,11.9268672 14.2505366,12.2795643 14.2505366,12.6945021 L14.2505366,12.9745851 L15.3407753,12.9745851 L15.3407753,12.7359959 C15.3407753,12.6426349 15.3644762,12.5700207 15.4039776,12.5181535 C15.443479,12.4662863 15.4987809,12.435166 15.5698835,12.435166 L16.3125099,12.435166 C16.3836124,12.435166 16.4389144,12.4662863 16.4784158,12.5181535 C16.5179172,12.5700207 16.541618,12.6426349 16.541618,12.7359959 L16.541618,13.6177386 C16.146604,13.4932573 15.7594902,13.4310166 15.388177,13.4310166 L15.1985703,13.4310166 C14.8588582,13.4310166 14.5902486,13.5658714 14.3927416,13.8252075 C14.1952346,14.0845436 14.0925309,14.4372407 14.0925309,14.8832988 L14.0925309,15.4330913 C14.0925309,15.848029 14.1952346,16.1903527 14.4085422,16.4704357 C14.6218498,16.7505187 14.882559,16.875 15.1985703,16.875 L15.5303821,16.875 Z M15.640986,15.5990664 L15.4355787,15.5990664 C15.2696728,15.5990664 15.1827697,15.4849585 15.1827697,15.2671162 L15.1827697,14.7380705 C15.1827697,14.6447095 15.2064705,14.5720954 15.245972,14.5098548 C15.2854734,14.4476141 15.3407753,14.4164938 15.4118778,14.4164938 L16.541618,14.4268672 L16.541618,15.1945021 L16.3836124,15.3189834 C16.146604,15.5057054 15.9016953,15.5990664 15.640986,15.5990664 Z M20.112545,16.8438797 L20.7287669,13.2857884 L21.3449888,16.8438797 L22.4510281,16.8438797 L23.6755717,11.2422199 L22.616934,11.2422199 L21.8980085,15.4227178 L21.210684,11.2422199 L20.2468498,11.2422199 L19.5595253,15.4227178 L18.8405998,11.2422199 L17.7029593,11.2422199 L19.0065057,16.8438797 L20.112545,16.8438797 Z" id="Draw" fill="#D3FFB8" fill-rule="nonzero"></path>
        </g>
    </g>
</svg>