<?xml version="1.0" encoding="UTF-8"?>
<svg width="16px" height="16px" viewBox="0 0 16 16" version="1.1" xmlns="http://www.w3.org/2000/svg" xmlns:xlink="http://www.w3.org/1999/xlink">
    <!-- Generator: Sketch 55.2 (78181) - https://sketchapp.com -->
    <title>ico/投注单/竞彩删除_slice</title>
    <desc>Created with Sketch.</desc>
    <g id="切图" stroke="none" stroke-width="1" fill="none" fill-rule="evenodd">
        <g id="画板" transform="translate(-350.000000, -54.000000)">
            <g id="ico/清空" transform="translate(350.000000, 54.000000)">
                <rect id="矩形" fill="#D8D8D8" opacity="0" x="0" y="0" width="16" height="16"></rect>
                <g id="ico/投注单/删除" stroke-width="1" transform="translate(1.600000, 0.800000)" fill="#CCCCCC">
                    <path d="M12.1532892,1.88407835 L0.657430876,1.88407835 C0.293823855,1.88407835 0,2.17338021 0,2.53139126 L0,3.94173782 C0,4.29974887 0.293823855,4.58905073 0.657430876,4.58905073 L1.28547937,4.58905073 L1.28547937,11.3550979 C1.28547937,13.036665 2.67012428,14.4 4.37797544,14.4 L8.36296148,14.4 C10.0708126,14.4 11.4554576,13.036665 11.4554576,11.3550979 L11.4554576,4.59085886 L12.1422708,4.59085886 C12.5058778,4.59085886 12.7997017,4.30155701 12.7997017,3.94354596 L12.7997017,2.5331994 C12.8107201,2.17338021 12.5150598,1.88407835 12.1532892,1.88407835 Z M4.73790966,11.0748368 C4.73790966,11.5196384 4.37430264,11.8866901 3.91336647,11.8866901 C3.46161229,11.8866901 3.08882328,11.5196384 3.08882328,11.0748368 L3.08882328,6.4839779 C3.08882328,6.03917629 3.46161229,5.67212456 3.91336647,5.67212456 C4.36512065,5.67212456 4.73790966,6.03013561 4.73790966,6.4839779 L4.73790966,11.0748368 Z M7.22439404,11.0748368 C7.22439404,11.5196384 6.86078702,11.8866901 6.39985084,11.8866901 C5.93891467,11.8866901 5.57530765,11.5196384 5.57530765,11.0748368 L5.57530765,6.4839779 C5.57530765,6.03917629 5.94809667,5.67212456 6.39985084,5.67212456 C6.85160502,5.67212456 7.22439404,6.03013561 7.22439404,6.4839779 L7.22439404,11.0748368 Z M9.71087841,11.0748368 C9.71087841,11.5196384 9.34727139,11.8866901 8.88633522,11.8866901 C8.42539904,11.8866901 8.06179202,11.5196384 8.06179202,11.0748368 L8.06179202,6.4839779 C8.06179202,6.03917629 8.43458104,5.67212456 8.88633522,5.67212456 C9.33808939,5.67212456 9.71087841,6.03013561 9.71087841,6.4839779 L9.71087841,11.0748368 Z M7.18582966,0 L5.61570843,0 C4.8701304,0 4.2604459,0.580411853 4.22188152,1.30547464 L8.57965657,1.30547464 C8.55027418,0.578603717 7.94242608,0 7.18582966,0 L7.18582966,0 Z" id="形状"></path>
                </g>
            </g>
        </g>
    </g>
</svg>