<?xml version="1.0" encoding="UTF-8"?>
<svg width="25px" height="26px" viewBox="0 0 25 26" version="1.1" xmlns="http://www.w3.org/2000/svg" xmlns:xlink="http://www.w3.org/1999/xlink">
    <!-- Generator: Sketch 55.2 (78181) - https://sketchapp.com -->
    <title>ico/选中_多选备份_slice</title>
    <desc>Created with Sketch.</desc>
    <g id="Symbols" stroke="none" stroke-width="1" fill="none" fill-rule="evenodd">
        <g id="画板" transform="translate(-221.000000, -6.000000)">
            <g id="ico/支持备份" transform="translate(221.000000, 6.000000)">
                <rect id="矩形" fill="#D8D8D8" opacity="0" x="0" y="0" width="25" height="26"></rect>
                <path d="M10.6459299,18.720482 L4.5942691,22.0520225 C4.49750608,22.1052921 4.37588057,22.0700338 4.32261091,21.9732708 C4.30073525,21.9335342 4.29301708,21.8875416 4.30072302,21.8428408 L5.50458963,14.8594223 C5.51007734,14.8275891 5.49984994,14.7950655 5.47713082,14.7721022 L0.61703354,9.85977207 C0.539347256,9.78125087 0.540024091,9.65461968 0.618545292,9.57693339 C0.648328393,9.54746698 0.686613112,9.52809768 0.727996093,9.52155919 L7.49691156,8.4520756 C7.52933024,8.44695347 7.55717172,8.42624938 7.57140808,8.39667687 L10.6343053,2.03426715 C10.6822171,1.93474229 10.8017381,1.89290162 10.9012629,1.94081341 C10.9426607,1.9607425 10.9759346,1.99431722 10.9954902,2.03589268 L13.9639977,8.34695532 C13.9783185,8.37740158 14.0069903,8.39860517 14.0402959,8.40338001 L20.7842886,9.3702284 C20.8936276,9.38590372 20.969557,9.48724787 20.9538817,9.5965869 C20.9477983,9.63902004 20.9282422,9.67837586 20.8980964,9.70885225 L15.9662541,14.6947801 C15.9438786,14.7174011 15.9336033,14.7493201 15.9385803,14.7807462 L17.0433843,21.7568221 C17.060662,21.8659194 16.9862276,21.9683666 16.8771303,21.9856444 C16.8338092,21.9925052 16.7894339,21.9849348 16.7508378,21.9640989 L10.7416607,18.7200882 C10.7117564,18.7039446 10.6757003,18.7040929 10.6459299,18.720482 Z" id="星形" fill="#EAC581" opacity="0.300000012" transform="translate(10.759983, 11.954043) rotate(-11.000000) translate(-10.759983, -11.954043) "></path>
                <g id="竞彩单关" stroke-width="1" transform="translate(3.125000, 8.125000)" fill="#4E2E09" opacity="0.600000024">
                    <g id="形状结合-2">
                        <path d="M15.9875859,6.38131809 L16.9240698,8.33116044 L21.0377942,7.68099768 L21.0377942,9.15888044 L16.6650559,11.375 L14.9533905,7.12601367 L14.8546999,11.375 L13.49976,11.375 L13.49976,8.71657254 L11.8741062,11.375 L10.2231924,11.375 L13.1543918,6.64759536 L10.2231924,6.64759536 L10.863996,5.68711835 L14.2879631,5.40569239 L14.4109838,4.13560567 L11.8984851,4.01805615 L12.5639615,2.03856224 L11.9480752,1.97943521 L12.2925623,0.915676713 L18.4757545,-7.10542736e-15 L18.3036334,1.44752658 L14.2139452,1.88995194 L13.647747,3.01277883 L15.3844766,3.01277883 L15.4012677,5.08169726 L17.7368477,5.08169726 L17.2688016,6.2334124 L15.9875859,6.38131809 Z M16.5049773,2.60000504 L21.875,1.88995194 L21.7029278,3.27976066 L16.3819567,3.63334866 L16.5049773,2.60000504 Z M18.5497235,6.76520357 L18.5497235,4.9929186 L21.5799072,4.75623425 L21.4319203,6.58770502 L18.5497235,6.76520357 Z M7.14395705,7.91844534 L6.15876429,9.63148588 L10.0020197,9.54276593 L8.89316987,11.375 L3.64597199,11.375 L5.59227234,8.035349 L4.08968816,8.09518064 L1.97097298,11.375 L6.75015599e-14,11.375 L2.36509904,8.09518064 L0.961107535,8.09518064 L2.58710394,5.43598981 L9.68171576,5.43598981 L8.08044093,7.91844534 L7.14395705,7.91844534 Z M3.32557017,7.32664637 L6.79951899,7.32664637 L7.36625573,6.0565597 L4.13873971,6.0565597 L3.32557017,7.32664637 Z M11.0366067,3.33818314 L10.6554044,4.37240758 L1.8722333,4.57879445 L2.41464007,3.63346617 L3.9906548,3.45596756 L3.89255161,2.40812111 L3.35053649,2.21547376 L3.84359794,1.24061131 L6.3807202,1.24061131 L6.47882339,0.974275346 L8.27743048,0.236038548 L8.27743048,1.2116643 L11.3813385,1.09258817 L10.6554533,2.24494917 L9.31196861,2.24494917 L9.21332695,3.45585011 L11.0366067,3.33818314 Z M7.76038178,3.51503584 L8.20351044,2.21535625 L4.80416705,2.37770612 L5.34593742,3.51503584 L7.76038178,3.51503584 Z" id="形状结合"></path>
                    </g>
                </g>
            </g>
        </g>
    </g>
</svg>