<?xml version="1.0" encoding="UTF-8"?>
<svg width="20px" height="20px" viewBox="0 0 20 20" version="1.1" xmlns="http://www.w3.org/2000/svg" xmlns:xlink="http://www.w3.org/1999/xlink">
    <!-- Generator: Sketch 55.2 (78181) - https://sketchapp.com -->
    <title>手动补款</title>
    <desc>Created with Sketch.</desc>
    <g id="手动补款" stroke="none" stroke-width="1" fill="none" fill-rule="evenodd">
        <g id="ico/转账/优惠活动" transform="translate(4.000000, 4.000000)" fill="#FFFFFF" fill-rule="nonzero">
            <path d="M11.2150585,5.66577469 L6.32375841,0.774474581 C6.17086844,0.621634211 5.96152903,0.538903389 5.74545929,0.545931085 L1.47820611,0.683760997 C1.06608668,0.697050706 0.735093081,1.0280443 0.721803372,1.44016373 L0.583777953,5.70741691 C0.576820888,5.92347439 0.65954102,6.13278674 0.81232146,6.28571604 L5.70362155,11.1770161 C6.00950893,11.4812482 6.50369702,11.4812482 6.8095844,11.1770161 L11.214863,6.77173754 C11.5192562,6.46594813 11.5193435,5.97167169 11.2150585,5.66577469 L11.2150585,5.66577469 Z M3.43871442,3.40067205 C3.24111826,3.59823328 2.95313422,3.6753711 2.68324309,3.60302842 C2.41335196,3.53068575 2.20255663,3.31985316 2.13026166,3.04994925 C2.05796669,2.78004533 2.1351554,2.49207493 2.33275156,2.29451369 C2.63820876,1.98911048 3.13340896,1.98915424 3.43881217,2.29461144 C3.74421538,2.60006863 3.74417162,3.09526884 3.43871442,3.40067205 L3.43871442,3.40067205 Z M9.7308393,6.15904431 C9.57792906,6.31114903 9.33086585,6.31114903 9.17795561,6.15904431 L6.41295073,3.39423493 C6.26084603,3.2413247 6.26084603,2.99426149 6.41295073,2.84135126 C6.56586096,2.68924655 6.81292417,2.68924655 6.9658344,2.84135126 L9.7308393,5.60616064 C9.88274545,5.75826231 9.88274545,6.00694266 9.7308393,6.15904431 L9.7308393,6.15904431 Z" id="形状" transform="translate(6.013294, 5.975354) scale(-1, 1) translate(-6.013294, -5.975354) "></path>
        </g>
        <g id="icon_message_handincome_normal" fill-rule="nonzero">
            <circle id="椭圆形" fill="#FF4000" cx="10" cy="10" r="10"></circle>
            <g id="ico/转账/手动扣款备份" transform="translate(4.000000, 5.000000)" fill="#FFFFFF">
                <path d="M12,1.76270507 C11.890182,1.73954466 11.7710863,1.72727273 11.6494364,1.72727273 L-1.59268154e-11,1.72727273 L-1.59268154e-11,1.24677733 C0.000496298395,0.60861326 0.52199169,0.091401925 1.16544166,0.0909090895 L10.6851652,0.0909090895 C11.0339541,0.090672685 11.3685262,0.227985355 11.6151572,0.47259036 C11.8617883,0.717195365 12.0002383,1.04901896 12,1.3949426 L12,1.76270507 Z M12,2.5845265 L12,8.6050574 C12.0002383,8.95098105 11.8617883,9.28280465 11.6151572,9.52740965 C11.3685262,9.77201465 11.0339541,9.9093273 10.6851652,9.90909091 L1.16544166,9.90909091 C0.52199169,9.9085981 0.000496298395,9.39138675 -1.59268154e-11,8.7532227 L-1.59268154e-11,2.6198346 L11.6494364,2.6198346 C11.7738407,2.6198346 11.8923236,2.60725745 12,2.5845265 Z M4.87518465,7.29674655 L4.87968442,8.226796 C4.80769234,8.2906627 4.97602671,8.6080548 5.06987775,8.58540295 C5.16372885,8.56275105 5.2300099,8.4796814 5.23066685,8.3838869 L7.27896435,6.5925152 C7.3245676,6.55239995 7.350594,6.4947855 7.35042433,6.4343303 C7.3502496,6.3738751 7.32389545,6.3164074 7.2780644,6.2765483 L5.2135677,4.504813 C5.1505962,4.45163355 5.0622249,4.43954615 4.98709044,4.4738356 C4.91195599,4.508125 4.8637253,4.582554 4.86348523,4.66458155 L4.86528514,5.2563501 C4.86530208,5.36410545 4.78266131,5.45418615 4.67449469,5.464317 C4.29921348,5.5375071 3.65304581,5.7668955 3.25166591,5.97396985 C2.76659019,6.22388715 2.39580874,6.48897805 2.13842162,6.78352345 C1.86236782,7.09838575 1.62992671,7.44838555 1.44725622,7.8242506 C1.25466586,8.226796 1.14217149,8.49010175 1.09447388,8.6454075 L1.09357392,8.6480852 C1.08491368,8.6756086 1.09794711,8.7052632 1.12417239,8.71770505 C1.15067946,8.7302785 1.18248017,8.72104745 1.19796869,8.69628355 C1.56155049,8.1661018 1.99262891,7.81800265 2.48220441,7.63324235 C3.07977451,7.4288457 3.87263483,7.30120935 4.87518465,7.29674655 Z" id="形状结合"></path>
            </g>
        </g>
    </g>
</svg>