<?xml version="1.0" encoding="UTF-8"?>
<svg width="14px" height="14px" viewBox="0 0 14 14" version="1.1" xmlns="http://www.w3.org/2000/svg" xmlns:xlink="http://www.w3.org/1999/xlink">
    <title>icon_bet_status_failure</title>
    <g id="切图" stroke="none" stroke-width="1" fill="none" fill-rule="evenodd">
        <g id="icon_bet_status_failure" fill="#FF4000" fill-rule="nonzero">
            <g id="ico/成功">
                <path d="M6.98784722,13.9729324 C3.13072128,13.9729324 0.00276199495,10.8449732 0.00276199495,6.98784722 C0.00276199495,3.13072128 3.13072128,0.00276199495 6.98784722,0.00276199495 C10.8463542,0.00276199495 13.9729324,3.13072128 13.9729324,6.98784722 C13.9729324,10.8449732 10.8463542,13.9729324 6.98784722,13.9729324 Z M6.98784722,0.778882576 C3.56435448,0.778882576 0.778882576,3.56435448 0.778882576,6.98784722 C0.778882576,10.41134 3.56435448,13.1968119 6.98784722,13.1968119 C10.41134,13.1968119 13.1968119,10.41134 13.1968119,6.98784722 C13.1968119,3.56435448 10.41134,0.778882576 6.98784722,0.778882576 Z M10.2124763,10.6488715 C10.0122317,10.7248264 9.7885101,10.6226326 9.71255524,10.4223879 C9.28858902,9.295494 8.19345802,8.53732639 6.98784722,8.53732639 C5.78361742,8.53732639 4.68848643,9.29411301 4.2631392,10.4210069 C4.18718434,10.6212516 3.96622475,10.7234454 3.76321812,10.6474905 C3.56297348,10.5715357 3.46077967,10.3478141 3.53673453,10.1475694 C4.07532355,8.72099905 5.46184501,7.76258681 6.98646622,7.76258681 C8.51246843,7.76258681 9.9003709,8.72238005 10.4375789,10.1489504 C10.5135338,10.3505761 10.412721,10.5742977 10.2124763,10.6488715 L10.2124763,10.6488715 Z M9.26096907,5.60546875 C8.83285985,5.60546875 8.48484848,5.25745739 8.48484848,4.82934817 C8.48484848,4.40123895 8.83285985,4.05322759 9.26096907,4.05322759 C9.68907828,4.05322759 10.0370896,4.40123895 10.0370896,4.82934817 C10.0370896,5.25745739 9.68907828,5.60546875 9.26096907,5.60546875 Z M4.58905461,5.60546875 C4.16094539,5.60546875 3.81293403,5.25745739 3.81293403,4.82934817 C3.81293403,4.40123895 4.16094539,4.05322759 4.58905461,4.05322759 C5.01716383,4.05322759 5.36517519,4.40123895 5.36517519,4.82934817 C5.36517519,5.25745739 5.01578283,5.60546875 4.58905461,5.60546875 Z" id="形状"></path>
            </g>
        </g>
    </g>
</svg>