<?xml version="1.0" encoding="UTF-8"?>
<svg width="40px" height="40px" viewBox="0 0 40 40" version="1.1" xmlns="http://www.w3.org/2000/svg" xmlns:xlink="http://www.w3.org/1999/xlink">
    <title>icon_message_betting_normal_en-us</title>
    <g id="icon_message_betting_normal_en-us" stroke="none" stroke-width="1" fill="none" fill-rule="evenodd">
        <circle id="椭圆形" fill="#4E64E8" cx="20" cy="20" r="20"></circle>
        <path d="M25.5778107,9.53134045 C28.3392345,9.53134045 30.5778107,11.7699167 30.5778107,14.5313405 L30.5778107,25.5313405 C30.5778107,28.2927642 28.3392345,30.5313405 25.5778107,30.5313405 L14.5778107,30.5313405 C11.816387,30.5313405 9.57781071,28.2927642 9.57781071,25.5313405 L9.57781071,14.5313405 C9.57781071,11.7699167 11.816387,9.53134045 14.5778107,9.53134045 L25.5778107,9.53134045 Z M17.9778107,24.2313405 L12.7278107,24.2313405 L12.7278107,25.8063405 L17.9778107,25.8063405 L17.9778107,24.2313405 Z M30.5778107,16.8813405 L26.3778107,16.8813405 C24.6381137,16.8813405 23.2278107,18.2916435 23.2278107,20.0313405 C23.2278107,21.7110479 24.5425284,23.0836865 26.1990614,23.176354 L26.3778107,23.1813405 L30.5778107,23.1813405 L30.5778107,16.8813405 Z M26.3778107,18.9813405 C26.9577097,18.9813405 27.4278107,19.4514415 27.4278107,20.0313405 C27.4278107,20.6112394 26.9577097,21.0813405 26.3778107,21.0813405 C25.7979117,21.0813405 25.3278107,20.6112394 25.3278107,20.0313405 C25.3278107,19.4514415 25.7979117,18.9813405 26.3778107,18.9813405 Z M15.2622718,12.7656616 L11.7991892,15.7376526 C11.7223101,15.8045141 11.6781024,15.9009131 11.677784,16.0023235 C11.6775247,16.1037338 11.7211826,16.200379 11.7976796,16.2676702 L15.2335889,19.2726002 C15.2346909,19.4332903 15.3458738,19.5726352 15.5033039,19.6106325 C15.6607341,19.6486298 15.943106,19.1162216 15.8223431,19.0090886 L15.8298912,17.4489805 C17.5116148,17.4564666 18.8415955,17.6705697 19.8439873,18.0134342 C20.665224,18.3233597 21.388335,18.9072773 21.998224,19.7966288 C22.0242051,19.838169 22.0775491,19.8536536 22.1220133,19.8325622 C22.1660048,19.8116917 22.1878677,19.7619477 22.1733406,19.7157787 L22.171831,19.711287 C22.0918208,19.4507699 21.9031175,19.0090886 21.5800575,18.3338403 C21.2736375,17.7033468 20.88373,17.1162408 20.4206646,16.5880763 C19.9889115,16.0939921 19.3669455,15.6493164 18.5532569,15.2300934 C17.8799636,14.8827373 16.796052,14.4979506 16.1665379,14.3751781 C15.9850942,14.3581842 15.8464687,14.2070786 15.8464971,14.0263248 L15.8495164,13.0336648 C15.8491137,12.8960679 15.7682093,12.7712173 15.6421753,12.7136986 C15.5161412,12.6561799 15.3679031,12.6764559 15.2622718,12.7656616 Z" id="形状结合" fill="#FFFFFF"></path>
    </g>
</svg>