<?xml version="1.0" encoding="UTF-8"?>
<svg width="40px" height="40px" viewBox="0 0 40 40" version="1.1" xmlns="http://www.w3.org/2000/svg" xmlns:xlink="http://www.w3.org/1999/xlink">
    <title>icon_message_back_normal</title>
    <g id="icon_message_back_normal" stroke="none" stroke-width="1" fill="none" fill-rule="evenodd">
        <circle id="椭圆形" fill="#FF4000" cx="19.5" cy="20" r="20"></circle>
        <g id="ico/转账/撤单" transform="translate(7.500000, 8.000000)" fill="#FFFFFF" fill-rule="nonzero">
            <path d="M21.3703304,2.18181879 C22.0679082,2.18134537 22.7370524,2.45597071 23.2303145,2.94518072 C23.7235767,3.43439073 24.0004767,4.09803792 24,4.78988519 L24,4.78988519 L24,19.2101148 C24.0004767,19.9019621 23.7235767,20.5656093 23.2303145,21.0548193 C22.7370524,21.5440293 22.0679082,21.8186546 21.3703304,21.8181812 L21.3703304,21.8181812 L2.33088333,21.8181812 C1.04398338,21.8171962 0.000992596813,20.7827735 -7.14483018e-12,19.5064454 L-7.14483018e-12,19.5064454 L-7.14483018e-12,4.49355465 C0.000992596813,3.21722652 1.04398338,2.18280385 2.33088333,2.18181879 L2.33088333,2.18181879 Z M15.7852099,17.4553382 L3.93640297,17.4553382 C3.69836263,17.4553382 3.47009799,17.549244 3.30194696,17.7163486 C3.13379593,17.8834532 3.03956984,18.1100305 3.04004602,18.3461149 L3.04004602,18.3514703 C3.04004602,18.8423793 3.44142775,19.2404619 3.93640297,19.2404619 L15.7852099,19.2404619 C16.2802532,19.2404619 16.6815669,18.8424468 16.6815669,18.3514703 L16.6815669,18.3461149 C16.682043,18.1100305 16.587817,17.8834532 16.4196659,17.7163486 C16.2515149,17.549244 16.0232503,17.4553382 15.7852099,17.4553382 Z M10.3854802,12.9925288 L3.93640297,12.9925288 C3.69836263,12.9925288 3.47009799,13.0864347 3.30194696,13.2535392 C3.13379593,13.4206438 3.03956984,13.6472212 3.04004602,13.8833055 L3.04004602,13.8886609 C3.04004602,14.37957 3.44142775,14.7776526 3.93640297,14.7776526 L10.3854802,14.7776526 C10.8805235,14.7776526 11.2818371,14.3796374 11.2818371,13.8886609 L11.2818371,13.8833055 C11.2823133,13.6472212 11.1880872,13.4206438 11.0199362,13.2535392 C10.8517852,13.0864347 10.6235205,12.9925288 10.3854802,12.9925288 Z M12.7145636,4.86129015 L8.58557027,8.40476078 C8.49390817,8.48447893 8.44119982,8.59941433 8.44085374,8.72032476 C8.44051105,8.84123519 8.49256384,8.9564641 8.58377036,9.03669459 L12.6803653,12.6194379 C12.6816792,12.8110269 12.8142414,12.9771663 13.0019435,13.02247 C13.1896456,13.0677738 13.3843582,12.9806253 13.4742903,12.8110595 C13.5642225,12.6414936 13.5263143,12.4329895 13.3823302,12.3052562 L13.3913297,10.4451572 C15.3964294,10.4540828 16.98215,10.7093555 18.1772902,11.1181489 C19.1564412,11.4876695 20.018598,12.1838678 20.7457616,13.2442313 C20.7767387,13.2937591 20.8403401,13.3122212 20.8933542,13.2870742 C20.9458048,13.2621906 20.9718717,13.2028814 20.9545512,13.1478346 L20.9527513,13.1424792 C20.857356,12.8318677 20.6323673,12.3052562 20.2471866,11.5001653 C19.8818456,10.7484353 19.4169634,10.0484356 18.8648558,9.41871106 C18.3500815,8.82962022 17.6085187,8.29943847 16.6383672,7.79960383 C15.8356074,7.38545512 14.5432721,6.92667831 13.7927096,6.78029817 C13.5763764,6.76003649 13.4110949,6.579875 13.4111287,6.36436434 L13.4147286,5.18082729 C13.4142484,5.01677213 13.317787,4.86791414 13.1675181,4.79933531 C13.0172492,4.73075648 12.8405066,4.75493123 12.7145636,4.86129015 Z M4.98575045,8.52436407 L3.93640297,8.52436407 C3.4413597,8.52436407 3.04004783,8.92237918 3.04004783,9.4133557 L3.04004783,9.42049618 C3.04004783,9.91140521 3.44142775,10.3094878 3.93640297,10.3094878 L4.98575045,10.3094878 C5.22347862,10.3094878 5.45147005,10.2158265 5.61956925,10.0491082 C5.78766845,9.88238992 5.88210559,9.65627142 5.88210559,9.42049618 L5.88210559,9.4133557 C5.88210559,9.17758046 5.78766845,8.95146196 5.61956925,8.78474369 C5.45147005,8.61802542 5.22347862,8.52436407 4.98575045,8.52436407 Z" id="形状结合"></path>
        </g>
    </g>
</svg>