<?xml version="1.0" encoding="UTF-8"?>
<svg width="40px" height="40px" viewBox="0 0 40 40" version="1.1" xmlns="http://www.w3.org/2000/svg" xmlns:xlink="http://www.w3.org/1999/xlink">
    <title>icon_message_betback_normal_en-us</title>
    <g id="icon_message_betback_normal_en-us" stroke="none" stroke-width="1" fill="none" fill-rule="evenodd">
        <circle id="椭圆形" fill="#5078FF" cx="20" cy="20" r="20"></circle>
        <path d="M25.5778107,9.53134045 C28.3392345,9.53134045 30.5778107,11.7699167 30.5778107,14.5313405 L30.5778107,16.8813405 L26.3778107,16.8813405 C24.6381137,16.8813405 23.2278107,18.2916435 23.2278107,20.0313405 C23.2278107,21.7110479 24.5425284,23.0836865 26.1990614,23.176354 L26.3778107,23.1813405 L30.5778107,23.1813405 L30.5778107,25.5313405 C30.5778107,28.2927642 28.3392345,30.5313405 25.5778107,30.5313405 L14.5778107,30.5313405 C11.816387,30.5313405 9.57781071,28.2927642 9.57781071,25.5313405 L9.57781071,14.5313405 C9.57781071,11.7699167 11.816387,9.53134045 14.5778107,9.53134045 L25.5778107,9.53134045 Z M17.9778107,24.2313405 L12.7278107,24.2313405 L12.7278107,25.8063405 L17.9778107,25.8063405 L17.9778107,24.2313405 Z M26.3778107,18.9813405 C26.9577097,18.9813405 27.4278107,19.4514415 27.4278107,20.0313405 C27.4278107,20.6112394 26.9577097,21.0813405 26.3778107,21.0813405 C25.7979117,21.0813405 25.3278107,20.6112394 25.3278107,20.0313405 C25.3278107,19.4514415 25.7979117,18.9813405 26.3778107,18.9813405 Z M19.6433496,12.7656616 C19.5377183,12.6764559 19.3894802,12.6561799 19.2634462,12.7136986 C19.1374121,12.7712173 19.0565077,12.8960679 19.056105,13.0336648 L19.056105,13.0336648 L19.0591243,14.0263248 C19.0591527,14.2070786 18.9205273,14.3581842 18.7390835,14.3751781 C18.1095694,14.4979506 17.0256578,14.8827373 16.3523645,15.2300934 C15.538676,15.6493164 14.91671,16.0939921 14.4849569,16.5880763 C14.0218914,17.1162408 13.6319839,17.7033468 13.3255639,18.3338403 C13.0025039,19.0090886 12.8138006,19.4507699 12.7337905,19.711287 L12.7337905,19.711287 C12.7177537,19.7619477 12.7396166,19.8116917 12.7836081,19.8325622 C12.8280723,19.8536536 12.8814163,19.838169 12.9073975,19.7966288 C13.5172864,18.9072773 14.2403974,18.3233597 15.0616341,18.0134342 C16.0640259,17.6705697 17.3940066,17.4564666 19.0757302,17.4489805 L19.0757302,17.4489805 L19.0832783,19.0090886 C18.9625155,19.1162216 19.2448873,19.6486298 19.4023175,19.6106325 C19.5597476,19.5726352 19.6709305,19.4332903 19.6720325,19.2726002 L19.6720325,19.2726002 L23.1079418,16.2676702 C23.1844388,16.200379 23.2280967,16.1037338 23.2278374,16.0023235 C23.227519,15.9009131 23.1833113,15.8045141 23.1064322,15.7376526 L23.1064322,15.7376526 Z" id="形状结合" fill="#FFFFFF"></path>
    </g>
</svg>