<?xml version="1.0" encoding="UTF-8"?>
<svg width="30px" height="32px" viewBox="0 0 30 32" version="1.1" xmlns="http://www.w3.org/2000/svg" xmlns:xlink="http://www.w3.org/1999/xlink">
    <!-- Generator: Sketch 55.2 (78181) - https://sketchapp.com -->
    <title>icon_free_game</title>
    <desc>Created with Sketch.</desc>
    <g id="icon_free_game" stroke="none" stroke-width="1" fill="none" fill-rule="evenodd">
        <g id="icon/tag/免费" fill="#E4C978" fill-rule="nonzero">
            <path d="M4.93354577,20.4491267 L4.08335025,20.4491267 L4.93354577,22.7627735 L3.21921711,22.7627735 L2.07633134,19.6268064 L2.92652685,19.6268064 L2.07633134,17.3131596 L3.79066,17.3131596 L4.93354577,20.4491267 Z M3.21921711,23.4178421 L4.93354577,23.4178421 L3.79066,27.4179423 L2.07633134,27.4179423 L3.21921711,23.4178421 Z M8.30645256,18.2330433 L9.76990385,18.2330433 L9.76990385,19.6546817 L7.3029431,19.6546817 L7.23325494,20.7278793 L9.76990385,20.7278793 L9.76990385,25.84299 C9.76990385,26.0567014 9.73041429,26.2564721 9.65143398,26.4423082 C9.57245368,26.6281442 9.46327666,26.7907482 9.32389965,26.9301253 C9.18452263,27.0695023 9.02191856,27.1786793 8.83608255,27.2576596 C8.65024653,27.3366399 8.45047582,27.3761295 8.2367644,27.3761295 L6.96843995,27.3761295 L7.41444415,26.1635555 L7.56775809,26.1635555 C7.6885515,26.1635555 7.79075978,26.1217431 7.87438598,26.0381168 C7.95801219,25.9544906 7.99982467,25.8522824 7.99982467,25.731489 L7.99982467,22.1495177 L7.14962915,22.1495177 L6.84300126,27.3761295 L5.1704855,27.3761295 L5.63042733,19.6546817 L5.25411129,19.6546817 L5.25411129,18.2330433 L6.77331311,18.2330433 L6.68968732,17.299222 L8.22282677,17.299222 L8.30645256,18.2330433 Z M12.4598667,18.1633551 L14.3135717,18.1633551 L14.3135717,19.5849935 L10.1740952,19.5849935 L10.7316004,17.3131596 L12.6549935,17.3131596 L12.4598667,18.1633551 Z M13.2682493,22.6094595 L13.2682493,23.2924035 L14.3135717,23.2924035 L14.3135717,24.7140419 L13.2682493,24.7140419 L13.2682493,25.84299 C13.2682493,26.0567014 13.2287598,26.2564721 13.1497795,26.4423082 C13.0707991,26.6281442 12.9616221,26.7907482 12.8222451,26.9301253 C12.6828681,27.0695023 12.520264,27.1786793 12.334428,27.2576596 C12.148592,27.3366399 11.9488213,27.3761295 11.7351099,27.3761295 L10.1740952,27.3761295 L10.6061617,26.1635555 L11.1079165,26.1635555 C11.2287099,26.1635555 11.3332411,26.1217431 11.4215132,26.0381168 C11.5097853,25.9544906 11.5539207,25.8522824 11.5539207,25.731489 L11.5539207,24.7140419 L10.1740952,24.7140419 L10.1740952,23.2924035 L11.5539207,23.2924035 L11.5539207,22.6094595 L12.0556754,21.494449 L10.1740952,21.494449 L10.1740952,20.0728106 L14.3135717,20.0728106 L13.2682493,22.6094595 Z M26.3440704,23.6687195 L27.9190228,27.3482542 L25.9259415,27.3482542 L25.0896836,25.3691105 L23.6262323,27.3482542 L21.4519618,27.3482542 L24.3091763,23.5154056 L22.9154131,20.2818751 L21.5355876,20.2818751 L21.5355876,18.7487356 L22.2742821,18.7487356 L21.633151,17.2295338 L23.6262323,17.2295338 L24.2394881,18.7487356 L25.4938749,18.7487356 L25.0060578,17.2295338 L26.9433886,17.2295338 L27.946898,20.2818751 L24.9084944,20.2818751 L25.5635631,21.8150145 L25.6890018,21.6338253 L27.835397,21.6338253 L26.3440704,23.6687195 Z M21.2428974,18.888112 C21.1964384,19.399161 21.124428,19.8869732 21.0268641,20.3515632 C20.9293002,20.8161533 20.8108315,21.2714447 20.6714545,21.7174511 C20.3927005,22.5722968 20.021034,23.362088 19.556444,24.0868485 C19.8073226,24.4027697 20.0674891,24.6768737 20.3369513,24.9091687 C20.4856201,25.0299621 20.6319638,25.141462 20.7759867,25.2436719 C20.9200096,25.3458817 21.075645,25.4527358 21.2428974,25.5642374 L21.2428974,27.4876305 C20.9734351,27.3854207 20.7109457,27.2692749 20.4554212,27.1391897 C20.1998967,27.0091045 19.9559906,26.8604379 19.7236955,26.6931855 C19.2498137,26.3679725 18.8131056,25.9916602 18.4135582,25.5642374 C17.6237551,26.4097912 16.7317557,27.0369784 15.737533,27.4458176 L15.737533,25.5224245 C16.0441624,25.3180049 16.3322039,25.1042967 16.6016661,24.8812934 C16.8711283,24.6582902 17.1220032,24.4120612 17.3542982,24.142599 C16.6016624,22.8510387 16.0720377,21.2621646 15.7654082,19.3759291 L17.5773003,19.3759291 C17.6237593,19.6732667 17.6795093,19.9566623 17.7445519,20.2261246 C17.8095945,20.4955868 17.8839278,20.7557533 17.967554,21.0066319 C18.0418884,21.2575105 18.1231904,21.4990937 18.2114625,21.7313888 C18.2997346,21.9636838 18.3949742,22.1866836 18.497184,22.4003951 C18.7201872,21.9265132 18.9199579,21.3922427 19.0965021,20.7975675 C19.2637545,20.2028922 19.3845461,19.5664134 19.4588805,18.888112 L15.737533,18.888112 L15.737533,17.4525359 L21.2428974,17.4525359 L21.2428974,18.888112 Z" id="游戏"></path>
            <path d="M4.60368849,14.5753393 L2.05310195,14.5753393 L5.42600874,11.7320625 L2.17854063,11.7320625 L2.17854063,7.38352155 L10.8756226,7.38352155 L11.1961881,6.40788736 L2.63848247,6.40788736 L3.46080272,4.55418239 L5.50963453,4.55418239 L5.30057006,5.04199949 L13.4401468,5.04199949 L12.826891,7.35564629 L14.0812778,7.35564629 L14.0812778,10.1989231 C14.0812778,10.4126345 14.0417883,10.6124052 13.9628079,10.7982412 C13.8838276,10.9840773 13.7746506,11.1466813 13.6352736,11.2860583 C13.4958966,11.4254353 13.3332925,11.5346124 13.1474565,11.6135927 C12.9616205,11.692573 12.7618498,11.7320625 12.5481384,11.7320625 L11.1822505,11.7320625 L11.1822505,12.8610107 C11.1822505,12.9818041 11.224063,13.0840124 11.3076892,13.1676386 C11.3913154,13.2512648 11.4935237,13.2930773 11.6143171,13.2930773 L14.2903423,13.2930773 L13.6770865,14.5614017 L10.7780592,14.5614017 C10.5643478,14.5614017 10.364577,14.5219121 10.178741,14.4429318 C9.99290502,14.3639515 9.83030095,14.2547745 9.69092394,14.1153975 C9.55154693,13.9760205 9.44236991,13.8134164 9.3633896,13.6275804 C9.28440929,13.4417444 9.24491973,13.2419737 9.24491973,13.0282623 L9.24491973,11.7320625 L7.97659528,11.7320625 L4.60368849,14.5753393 Z M11.7118805,10.4637381 C11.8326739,10.4637381 11.9348822,10.4219256 12.0185084,10.3382994 C12.1021346,10.2546732 12.1439471,10.1524649 12.1439471,10.0316715 L12.1439471,8.63790838 L9.09160579,8.63790838 L9.09160579,10.4637381 L11.7118805,10.4637381 Z M4.11587139,10.4637381 L7.15427503,10.4637381 L7.15427503,8.63790838 L4.11587139,8.63790838 L4.11587139,10.4637381 Z M23.8399427,7.67621181 L27.380101,7.67621181 L27.380101,8.77728469 C27.380101,9.09320591 27.2778928,9.36963284 27.0734731,9.60657376 C26.8690535,9.84351467 26.6135328,9.99450417 26.3069034,10.0595468 C26.5484902,10.1710484 26.7436151,10.3313295 26.8922839,10.5403951 C27.0409528,10.7494606 27.115286,10.984075 27.115286,11.2442454 L27.115286,12.5822581 L25.1918929,12.5822581 L25.1918929,11.3836218 C25.1918929,11.2721201 25.1500804,11.1792035 25.0664542,11.1048691 C24.982828,11.0305347 24.8806198,10.9933681 24.7598263,10.9933681 L17.3589441,10.9933681 L17.3589441,12.5822581 L15.435551,12.5822581 L15.435551,9.8922952 L24.1883835,9.8922952 L24.5507619,9.05603732 L25.0525166,9.05603732 C25.1547264,9.05603732 25.2406743,9.02119359 25.3103628,8.95150508 C25.3800513,8.88181658 25.414895,8.79586871 25.414895,8.6936589 L23.8399427,8.6936589 L23.8399427,9.50204152 L21.9165495,9.50204152 L21.9165495,8.6936589 L19.6725909,8.6936589 L19.5332146,9.50204152 L17.6098215,9.50204152 L17.7491978,8.6936589 L15.3379875,8.6936589 L15.3379875,6.22669815 L18.1812643,6.22669815 L18.2648901,5.75281868 L15.3240499,5.75281868 L15.3240499,4.83293502 L18.4182041,4.83293502 L18.4739546,4.52630713 L20.3973477,4.52630713 L20.3415972,4.83293502 L21.9165495,4.83293502 L21.9165495,4.51236949 L23.8399427,4.51236949 L23.8399427,4.83293502 L27.3382881,4.83293502 L27.3382881,5.82250684 C27.3382881,6.00834286 27.3034444,6.18023859 27.2337559,6.3381992 C27.1640674,6.49615981 27.0711508,6.63553473 26.9550033,6.75632814 C26.8388558,6.87712155 26.6994809,6.97236108 26.5368743,7.04204959 C26.3742678,7.11173809 26.204695,7.14658182 26.0281508,7.14658182 L23.8399427,7.14658182 L23.8399427,7.67621181 Z M23.8399427,5.75281868 L23.8399427,6.22669815 L25.3452069,6.22669815 C25.4102495,6.22669815 25.4636765,6.20579191 25.5054896,6.16397881 C25.5473027,6.12216571 25.568209,6.07338448 25.568209,6.01763368 L25.568209,5.75281868 L23.8399427,5.75281868 Z M20.1046575,6.22669815 L21.9165495,6.22669815 L21.9165495,5.75281868 L20.1882833,5.75281868 L20.1046575,6.22669815 Z M17.930387,7.67621181 L18.0140128,7.14658182 L17.2613807,7.14658182 L17.2613807,7.67621181 L17.930387,7.67621181 Z M21.9165495,7.67621181 L21.9165495,7.14658182 L19.9513435,7.14658182 L19.8537801,7.67621181 L21.9165495,7.67621181 Z M22.1674269,12.5683204 L27.2964753,13.2233891 L27.2964753,14.6171522 L21.2057303,13.8366449 L15.1289231,14.6171522 L15.1289231,13.2233891 L20.2440338,12.5683204 L20.2440338,11.3418089 L22.1674269,11.3418089 L22.1674269,12.5683204 Z" id="免费"></path>
        </g>
    </g>
</svg>