<?xml version="1.0" encoding="UTF-8"?>
<svg width="20px" height="20px" viewBox="0 0 20 20" version="1.1" xmlns="http://www.w3.org/2000/svg" xmlns:xlink="http://www.w3.org/1999/xlink">
    <!-- Generator: Sketch 55.2 (78181) - https://sketchapp.com -->
    <title>手动扣款</title>
    <desc>Created with Sketch.</desc>
    <g id="手动扣款" stroke="none" stroke-width="1" fill="none" fill-rule="evenodd">
        <g id="ico/转账/优惠活动" transform="translate(4.000000, 4.000000)" fill="#FFFFFF" fill-rule="nonzero">
            <path d="M11.2150585,5.66577469 L6.32375841,0.774474581 C6.17086844,0.621634211 5.96152903,0.538903389 5.74545929,0.545931085 L1.47820611,0.683760997 C1.06608668,0.697050706 0.735093081,1.0280443 0.721803372,1.44016373 L0.583777953,5.70741691 C0.576820888,5.92347439 0.65954102,6.13278674 0.81232146,6.28571604 L5.70362155,11.1770161 C6.00950893,11.4812482 6.50369702,11.4812482 6.8095844,11.1770161 L11.214863,6.77173754 C11.5192562,6.46594813 11.5193435,5.97167169 11.2150585,5.66577469 L11.2150585,5.66577469 Z M3.43871442,3.40067205 C3.24111826,3.59823328 2.95313422,3.6753711 2.68324309,3.60302842 C2.41335196,3.53068575 2.20255663,3.31985316 2.13026166,3.04994925 C2.05796669,2.78004533 2.1351554,2.49207493 2.33275156,2.29451369 C2.63820876,1.98911048 3.13340896,1.98915424 3.43881217,2.29461144 C3.74421538,2.60006863 3.74417162,3.09526884 3.43871442,3.40067205 L3.43871442,3.40067205 Z M9.7308393,6.15904431 C9.57792906,6.31114903 9.33086585,6.31114903 9.17795561,6.15904431 L6.41295073,3.39423493 C6.26084603,3.2413247 6.26084603,2.99426149 6.41295073,2.84135126 C6.56586096,2.68924655 6.81292417,2.68924655 6.9658344,2.84135126 L9.7308393,5.60616064 C9.88274545,5.75826231 9.88274545,6.00694266 9.7308393,6.15904431 L9.7308393,6.15904431 Z" id="形状" transform="translate(6.013294, 5.975354) scale(-1, 1) translate(-6.013294, -5.975354) "></path>
        </g>
        <g id="icon_message_handcost_normal" fill-rule="nonzero">
            <circle id="椭圆形" fill="#33C759" cx="10" cy="10" r="10"></circle>
            <g id="ico/转账/手动扣款" transform="translate(4.000000, 5.000000)" fill="#FFFFFF">
                <path d="M12,1.76270507 C11.890182,1.73954466 11.7710863,1.72727273 11.6494364,1.72727273 L-1.59268154e-11,1.72727273 L-1.59268154e-11,1.24677733 C0.000496298395,0.60861326 0.52199169,0.091401925 1.16544166,0.0909090895 L10.6851652,0.0909090895 C11.0339541,0.090672685 11.3685262,0.227985355 11.6151572,0.47259036 C11.8617883,0.717195365 12.0002383,1.04901896 12,1.3949426 L12,1.76270507 Z M12,2.5845265 L12,8.6050574 C12.0002383,8.95098105 11.8617883,9.28280465 11.6151572,9.52740965 C11.3685262,9.77201465 11.0339541,9.9093273 10.6851652,9.90909091 L1.16544166,9.90909091 C0.52199169,9.9085981 0.000496298395,9.39138675 -1.59268154e-11,8.7532227 L-1.59268154e-11,2.6198346 L11.6494364,2.6198346 C11.7738407,2.6198346 11.8923236,2.60725745 12,2.5845265 Z M3.56614792,7.29674655 C4.56869775,7.30120935 5.36155805,7.4288457 5.95912815,7.63324235 C6.44870365,7.81800265 6.8797821,8.1661018 7.2433639,8.69628355 C7.2588524,8.72104745 7.2906531,8.7302785 7.3171602,8.71770505 C7.34338545,8.7052632 7.3564189,8.6756086 7.34775865,8.6480852 L7.3468587,8.6454075 C7.2991611,8.49010175 7.1866667,8.226796 6.99407635,7.8242506 C6.81140585,7.44838555 6.57896475,7.09838575 6.30291095,6.78352345 C6.04552385,6.48897805 5.6747424,6.22388715 5.18966665,5.97396985 C4.78828676,5.7668955 4.1421191,5.5375071 3.76683788,5.464317 C3.65867126,5.45418615 3.57603049,5.36410545 3.57604743,5.2563501 L3.57784734,4.66458155 C3.57760727,4.582554 3.52937658,4.508125 3.45424213,4.4738356 C3.37910768,4.43954615 3.29073636,4.45163355 3.22776487,4.504813 L1.16326819,6.2765483 C1.11743715,6.3164074 1.09108297,6.3738751 1.09090826,6.4343303 C1.09073859,6.4947855 1.11676498,6.55239995 1.16236824,6.5925152 L3.21066572,8.3838869 C3.21132267,8.4796814 3.27760374,8.56275105 3.3714548,8.58540295 C3.46530586,8.6080548 3.63364023,8.2906627 3.56164815,8.226796 L3.56614792,7.29674655 Z" id="形状结合"></path>
            </g>
        </g>
    </g>
</svg>