<?xml version="1.0" encoding="UTF-8"?>
<svg width="18px" height="18px" viewBox="0 0 18 18" version="1.1" xmlns="http://www.w3.org/2000/svg" xmlns:xlink="http://www.w3.org/1999/xlink">
    <!-- Generator: Sketch 55.2 (78181) - https://sketchapp.com -->
    <title>icon_advance_slider_normal</title>
    <desc>Created with Sketch.</desc>
    <g id="icon_advance_slider_normal" stroke="none" stroke-width="1" fill="none" fill-rule="evenodd">
        <circle id="椭圆形" fill="#5078FF" cx="9" cy="9" r="8"></circle>
        <path d="M5.5,6 L5.64285714,6 C5.91899952,6 6.14285714,6.22385763 6.14285714,6.5 L6.14285714,11.5 C6.14285714,11.7761424 5.91899952,12 5.64285714,12 L5.5,12 C5.22385763,12 5,11.7761424 5,11.5 L5,6.5 C5,6.22385763 5.22385763,6 5.5,6 Z M8.92857143,6 L9.07142857,6 C9.34757095,6 9.57142857,6.22385763 9.57142857,6.5 L9.57142857,11.5 C9.57142857,11.7761424 9.34757095,12 9.07142857,12 L8.92857143,12 C8.65242905,12 8.42857143,11.7761424 8.42857143,11.5 L8.42857143,6.5 C8.42857143,6.22385763 8.65242905,6 8.92857143,6 Z M12.3571429,6 L12.5,6 C12.7761424,6 13,6.22385763 13,6.5 L13,11.5 C13,11.7761424 12.7761424,12 12.5,12 L12.3571429,12 C12.0810005,12 11.8571429,11.7761424 11.8571429,11.5 L11.8571429,6.5 C11.8571429,6.22385763 12.0810005,6 12.3571429,6 Z" id="形状结合" fill="#000000" opacity="0.400000006"></path>
    </g>
</svg>