<?xml version="1.0" encoding="UTF-8"?>
<svg width="40px" height="40px" viewBox="0 0 40 40" version="1.1" xmlns="http://www.w3.org/2000/svg" xmlns:xlink="http://www.w3.org/1999/xlink">
    <title>icon_message_normal</title>
    <g id="icon_message_normal" stroke="none" stroke-width="1" fill="none" fill-rule="evenodd">
        <circle id="椭圆形" fill="#5078FF" cx="20" cy="20" r="20"></circle>
        <g id="ico/转账/手动转账" transform="translate(7.000000, 7.000000)" fill="#FFFFFF">
            <g id="编组" transform="translate(1.227273, 1.227273)">
                <polygon id="路径" fill-rule="nonzero" opacity="0.400000006" points="1.22727273 5.35581818 13.1936727 0 15.9545455 5.35581818 5.82905455 9.81818182"></polygon>
                <polygon id="路径备份" fill-rule="nonzero" opacity="0.400000006" points="6.13636364 6.58309091 18.1027636 1.22727273 20.8636364 6.58309091 10.7381455 11.0454545"></polygon>
                <path d="M20.6181818,4.90909091 C21.1389706,4.90909091 21.6384292,5.11597343 22.0066824,5.48422668 C22.3749357,5.85247994 22.5818182,6.35193853 22.5818182,6.87272727 L22.5818182,9.81818182 L18.6545455,9.81818182 C18.1337567,9.81818182 17.6342981,10.0250643 17.2660449,10.3933176 C16.8977916,10.7615708 16.6909091,11.2610294 16.6909091,11.7818182 L16.6909091,17.6727273 C16.6909091,18.7572137 17.570059,19.6363636 18.6545455,19.6363636 L22.5818182,19.6363636 L22.5818182,22.5818182 C22.5818182,23.6663046 21.7026682,24.5454545 20.6181818,24.5454545 L1.96363636,24.5454545 C0.879149946,24.5454545 -7.14450721e-12,23.6663046 -7.14450721e-12,22.5818182 L-7.14450721e-12,6.87272727 C-7.14450721e-12,5.78824085 0.879149946,4.90909091 1.96363636,4.90909091 L20.6181818,4.90909091 Z M13.5011789,15.7923086 L4.91026984,15.7923086 C4.38812781,15.7923086 4.10455725,16.4029269 4.44143704,16.8018559 L6.89598249,19.7084987 C7.11463801,19.9674279 7.50179693,20.0000762 7.76072613,19.7814207 C8.01965534,19.5627652 8.05230361,19.1756062 7.83364809,18.916677 L6.2316255,17.0195814 L13.5011789,17.0195814 C13.8400809,17.0195814 14.1148153,16.744847 14.1148153,16.405945 C14.1148153,16.067043 13.8400809,15.7923086 13.5011789,15.7923086 Z M10.6495437,10.5766217 C10.3906145,10.7952773 10.3579662,11.1824362 10.5766217,11.4413654 L12.1786443,13.338461 L4.90909091,13.338461 C4.5701889,13.338461 4.29545455,13.6131954 4.29545455,13.9520974 C4.29545455,14.2909994 4.5701889,14.5657338 4.90909091,14.5657338 L13.5,14.5657338 C14.022142,14.5657338 14.3057126,13.9551155 13.9688328,13.5561866 L11.5142873,10.6495437 C11.2956318,10.3906145 10.9084729,10.3579662 10.6495437,10.5766217 Z" id="形状结合" fill-rule="nonzero"></path>
                <path d="M18.6545455,10.8 L23.5636364,10.8 C24.1058796,10.8 24.5454545,11.239575 24.5454545,11.7818182 L24.5454545,17.6727273 C24.5454545,18.2149705 24.1058796,18.6545455 23.5636364,18.6545455 L18.6545455,18.6545455 C18.1123022,18.6545455 17.6727273,18.2149705 17.6727273,17.6727273 L17.6727273,11.7818182 C17.6727273,11.239575 18.1123022,10.8 18.6545455,10.8 Z M20.6181818,15.7090909 C20.9689517,15.7090909 21.2930764,15.5219574 21.4684613,15.2181818 C21.6438463,14.9144062 21.6438463,14.5401392 21.4684613,14.2363636 C21.2930764,13.932588 20.9689517,13.7454545 20.6181818,13.7454545 C20.0759386,13.7454545 19.6363637,14.1850295 19.6363637,14.7272727 C19.6363637,15.2695159 20.0759386,15.7090909 20.6181818,15.7090909 Z" id="形状" fill-rule="nonzero"></path>
            </g>
        </g>
    </g>
</svg>