<?xml version="1.0" encoding="UTF-8"?>
<svg width="40px" height="40px" viewBox="0 0 40 40" version="1.1" xmlns="http://www.w3.org/2000/svg" xmlns:xlink="http://www.w3.org/1999/xlink">
    <!-- Generator: Sketch 55.2 (78181) - https://sketchapp.com -->
    <title>icon_message_prefer_normal</title>
    <desc>Created with Sketch.</desc>
    <g id="icon_message_prefer_normal" stroke="none" stroke-width="1" fill="none" fill-rule="evenodd">
        <circle id="椭圆形" fill="#5078FF" cx="20" cy="20" r="20"></circle>
        <g id="ico/转账/优惠活动" transform="translate(8.000000, 8.000000)" fill="#FFFFFF" fill-rule="nonzero">
            <path d="M22.430117,11.3315494 L12.6475168,1.54894916 C12.3417369,1.24326842 11.9230581,1.07780678 11.4909186,1.09186217 L2.95641221,1.36752199 C2.13217336,1.39410141 1.47018616,2.0560886 1.44360674,2.88032746 L1.16755591,11.4148338 C1.15364178,11.8469488 1.31908204,12.2655735 1.62464292,12.5714321 L11.4072431,22.3540323 C12.0190179,22.9624964 13.007394,22.9624964 13.6191688,22.3540323 L22.429726,13.5434751 C23.0385123,12.9318963 23.0386871,11.9433434 22.430117,11.3315494 L22.430117,11.3315494 Z M6.87742884,6.80134409 C6.48223653,7.19646657 5.90626843,7.3507422 5.36648618,7.20605685 C4.82670392,7.0613715 4.40511325,6.63970632 4.26052331,6.09989849 C4.11593337,5.56009067 4.2703108,4.98414985 4.66550312,4.58902738 C5.27641751,3.97822096 6.26681792,3.97830848 6.87762434,4.58922287 C7.48843076,5.20013727 7.48834324,6.19053767 6.87742884,6.80134409 L6.87742884,6.80134409 Z M19.4616786,12.3180886 C19.1558581,12.6222981 18.6617317,12.6222981 18.3559112,12.3180886 L12.8259015,6.78846986 C12.5216921,6.48264939 12.5216921,5.98852298 12.8259015,5.68270251 C13.1317219,5.3784931 13.6258483,5.3784931 13.9316688,5.68270251 L19.4616786,11.2123213 C19.7654909,11.5165246 19.7654909,12.0138853 19.4616786,12.3180886 L19.4616786,12.3180886 Z" id="形状" transform="translate(12.026587, 11.950707) scale(-1, 1) translate(-12.026587, -11.950707) "></path>
        </g>
    </g>
</svg>