<?xml version="1.0" encoding="UTF-8"?>
<svg width="40px" height="40px" viewBox="0 0 40 40" version="1.1" xmlns="http://www.w3.org/2000/svg" xmlns:xlink="http://www.w3.org/1999/xlink">
    <title>icon_message_handcost_normal</title>
    <g id="icon_message_handcost_normal" stroke="none" stroke-width="1" fill="none" fill-rule="evenodd">
        <circle id="椭圆形" fill="#11D664" cx="20" cy="20" r="20"></circle>
        <g id="ico/转账/手动扣款" transform="translate(8.000000, 8.000000)" fill="#FFFFFF" fill-rule="nonzero">
            <path d="M24.0012344,7.16879213 L24,19.2101148 C24.0004767,19.9019621 23.7235767,20.5656093 23.2303145,21.0548193 C22.7863786,21.4951083 22.1999782,21.7615837 21.5786033,21.8101308 L21.3703304,21.8181812 L2.33088333,21.8181812 C1.09760422,21.8172372 0.0883319492,20.8671812 0.00549341636,19.6646692 L-1.73740618e-11,19.5064454 L-1.73740618e-11,7.23881818 L23.2988729,7.2396692 C23.5481569,7.2396692 23.7855528,7.21441867 24.0012344,7.16879213 Z M6.45552974,11.009626 L2.32653639,14.5530966 C2.2348743,14.6328148 2.18216595,14.7477502 2.18181818,14.8686606 C2.18147718,14.989571 2.23352996,15.1047999 2.32473648,15.1850304 L6.42133144,18.7677738 C6.42264534,18.9593628 6.55520749,19.1255021 6.74290961,19.1708059 C6.93061173,19.2161096 7.26728047,18.5813254 7.12329631,18.453592 L7.13229585,16.5934931 C9.1373955,16.6024187 10.7231161,16.8576914 11.9182563,17.2664847 C12.8974073,17.6360053 13.7595642,18.3322036 14.4867278,19.3925671 C14.5177048,19.4420949 14.5813062,19.460557 14.6343204,19.4354101 C14.6867709,19.4105264 14.7128378,19.3512172 14.6955173,19.2961704 L14.6937174,19.290815 C14.5983222,18.9802035 14.3733334,18.453592 13.9881527,17.6485012 C13.6228117,16.8967711 13.1579295,16.1967715 12.6058219,15.5670469 C12.0910477,14.9779561 11.3494848,14.4477743 10.3793333,13.9479397 C9.57657352,13.533791 8.2842382,13.0750142 7.53367577,12.928634 C7.31734252,12.9083723 7.15206098,12.7282109 7.15209486,12.5127002 L7.15569469,11.3291631 C7.15521455,11.165108 7.05875317,11.01625 6.90848427,10.9476712 C6.75821537,10.8790923 6.58147273,10.9032671 6.45552974,11.009626 Z M21.3703304,2.18181879 C22.0679082,2.18134537 22.7370524,2.45597071 23.2303145,2.94518072 C23.6742504,3.38546973 23.9429331,3.96705286 23.9918827,4.58332325 L24,4.78988519 L24.0015232,5.52573178 C23.7814655,5.47920295 23.5427351,5.45454545 23.2988729,5.45454545 L-1.73740618e-11,5.45381818 L-1.73740618e-11,4.49355465 C0.000951238602,3.27040686 0.95887651,2.26942571 2.17134893,2.18726715 L2.33088333,2.18181879 L21.3703304,2.18181879 Z" id="形状结合"></path>
        </g>
    </g>
</svg>