<?xml version="1.0" encoding="UTF-8"?>
<svg width="40px" height="40px" viewBox="0 0 40 40" version="1.1" xmlns="http://www.w3.org/2000/svg" xmlns:xlink="http://www.w3.org/1999/xlink">
    <title>icon_message_reward_normal</title>
    <g id="icon_message_reward_normal" stroke="none" stroke-width="1" fill="none" fill-rule="evenodd">
        <circle id="椭圆形" fill="#11D664" cx="20" cy="20" r="20"></circle>
        <g id="icon/礼物" transform="translate(8.000000, 8.000000)" fill="#FFFFFF" fill-rule="nonzero">
            <path d="M22,5.3 C22.9388841,5.3 23.7,6.06111593 23.7,7 L23.7,10 C23.7,10.9388841 22.9388841,11.7 22,11.7 L21.699,11.6998171 L21.7,20 C21.7,21.4911688 20.4911688,22.7 19,22.7 L5,22.7 C3.50883118,22.7 2.3,21.4911688 2.3,20 L2.299,11.6998171 L2,11.7 C1.06111593,11.7 0.3,10.9388841 0.3,10 L0.3,7 C0.3,6.06111593 1.06111593,5.3 2,5.3 L22,5.3 Z M11.299,11.6998171 L3.7,11.7 L3.7,20 C3.7,20.7179702 4.28202983,21.3 5,21.3 L11.299,21.2998171 L11.299,11.6998171 Z M20.3,11.7 L12.699,11.6998171 L12.699,21.2998171 L19,21.3 C19.7179702,21.3 20.3,20.7179702 20.3,20 L20.3,11.7 Z M11.299,6.69981709 L2,6.7 C1.83431458,6.7 1.7,6.83431458 1.7,7 L1.7,10 C1.7,10.1656854 1.83431458,10.3 2,10.3 L11.299,10.2998171 L11.299,6.69981709 Z M22,6.7 L12.699,6.69981709 L12.699,10.2998171 L22,10.3 C22.1656854,10.3 22.3,10.1656854 22.3,10 L22.3,7 C22.3,6.83431458 22.1656854,6.7 22,6.7 Z M18.6464429,1.23146411 C18.7812686,1.55602828 18.6536952,1.92408781 18.3611509,2.09975158 L18.2685359,2.14644294 L12.1478599,4.68900478 C12.0077447,4.74720937 11.8535331,4.75793825 11.7083272,4.7213584 L11.6014723,4.68505573 L5.72214825,2.1424939 C5.36730867,1.98904061 5.20405282,1.57698783 5.3575061,1.22214825 C5.49700909,0.899566814 5.85023067,0.735319039 6.17989608,0.823413493 L6.27785175,0.857506105 L11.8848189,3.28228501 L17.7314641,0.853557058 C18.0884847,0.705248783 18.4981347,0.874443535 18.6464429,1.23146411 Z" id="形状结合"></path>
        </g>
    </g>
</svg>