<?xml version="1.0" encoding="UTF-8"?>
<svg width="12px" height="12px" viewBox="0 0 12 12" version="1.1" xmlns="http://www.w3.org/2000/svg" xmlns:xlink="http://www.w3.org/1999/xlink">
    <!-- Generator: Sketch 55.2 (78181) - https://sketchapp.com -->
    <title>icon_copy</title>
    <desc>Created with Sketch.</desc>
    <g id="icon_copy" stroke="none" stroke-width="1" fill="none" fill-rule="evenodd">
        <path d="M8.30097738,11.9991 L0.754743393,11.9991 C0.337562473,11.9971198 0.000325349568,11.6585423 -8.8817842e-16,11.2413568 L-8.8817842e-16,3.66572505 C-8.8817842e-16,3.24935628 0.339574529,2.90858184 0.754743393,2.90858184 L1.88685847,2.90858184 C2.11304151,2.90858184 2.26363021,3.0597705 2.26363022,3.28715344 C2.26363023,3.51453637 2.11304152,3.66572505 1.88685847,3.66572505 L0.754743393,3.66572505 L0.754743393,11.2419568 L8.30097738,11.2419568 L8.30097738,10.105642 C8.30097738,9.87825907 8.45156608,9.72707041 8.67834907,9.72707041 C8.9045321,9.72707041 9.05572076,9.87825907 9.05572076,10.105642 L9.05572076,11.2419568 C9.05572076,11.6589255 8.71614623,11.9996999 8.30097738,11.9996999 L8.30097738,11.9991 Z M11.2491562,8.999325 L3.74971875,8.999325 C3.33694971,8.999325 2.999775,8.66215029 2.999775,8.24938125 L2.999775,0.749943748 C2.999775,0.337174706 3.33694971,-2.2470914e-13 3.74971875,-2.2470914e-13 L11.2491562,-2.2470914e-13 C11.6619253,-2.2470914e-13 11.9991,0.337174706 11.9991,0.749943748 L11.9991,8.24938125 C11.9991,8.66215029 11.6619253,8.999325 11.2491562,8.999325 Z M3.74971875,8.24938125 L11.2491562,8.24938125 L11.2491562,0.749943748 L3.74971875,0.749943748 L3.74971875,8.24938125 Z" id="形状" fill="#999999" fill-rule="nonzero"></path>
    </g>
</svg>