<?xml version="1.0" encoding="UTF-8"?>
<svg width="40px" height="40px" viewBox="0 0 40 40" version="1.1" xmlns="http://www.w3.org/2000/svg" xmlns:xlink="http://www.w3.org/1999/xlink">
    <!-- Generator: Sketch 55.2 (78181) - https://sketchapp.com -->
    <title>icon_message_moneyback_normal</title>
    <desc>Created with Sketch.</desc>
    <g id="icon_message_moneyback_normal" stroke="none" stroke-width="1" fill="none" fill-rule="evenodd">
        <circle id="椭圆形" fill="#33C759" cx="20" cy="20" r="20"></circle>
        <g id="ico/转账/抢红包" transform="translate(8.000000, 8.000000)" fill="#FFFFFF" fill-rule="nonzero">
            <path d="M24,5.52541013 C23.780364,5.47908932 23.5421726,5.45454545 23.2988729,5.45454545 L-5.53690427e-12,5.45454545 L-5.53690427e-12,4.49355465 C0.000992596815,3.21722652 1.04398338,2.18280385 2.33088333,2.18181879 L21.3703304,2.18181879 C22.0679082,2.18134537 22.7370524,2.45597071 23.2303145,2.94518072 C23.7235767,3.43439073 24.0004767,4.09803792 24,4.78988519 L24,5.52541013 Z M24,7.16905299 L24,19.2101148 C24.0004767,19.9019621 23.7235767,20.5656093 23.2303145,21.0548193 C22.7370524,21.5440293 22.0679082,21.8186546 21.3703304,21.8181812 L2.33088333,21.8181812 C1.04398338,21.8171962 0.000992596815,20.7827735 -5.53690427e-12,19.5064454 L-5.53690427e-12,7.2396692 L23.2988729,7.2396692 C23.5476815,7.2396692 23.7846472,7.2145149 24,7.16905299 Z M11.2759322,13.5553549 L11.2759322,10.9090909 L6.54545455,15.6725031 L18.334335,15.6725031 L18.334335,13.5553763 L11.2759322,13.5553763 L11.2759322,13.5553549 Z" id="形状结合"></path>
        </g>
    </g>
</svg>