<?xml version="1.0" encoding="UTF-8"?>
<svg width="40px" height="40px" viewBox="0 0 40 40" version="1.1" xmlns="http://www.w3.org/2000/svg" xmlns:xlink="http://www.w3.org/1999/xlink">
    <!-- Generator: Sketch 55.2 (78181) - https://sketchapp.com -->
    <title>icon_message_transferbet_normal</title>
    <desc>Created with Sketch.</desc>
    <g id="icon_message_transferbet_normal" stroke="none" stroke-width="1" fill="none" fill-rule="evenodd">
        <circle id="椭圆形" fill="#5078FF" cx="20" cy="20" r="20"></circle>
        <g id="ico/转账/转入备份-7" transform="translate(7.000000, 7.000000)" fill="#FFFFFF" fill-rule="nonzero">
            <path d="M27,5.38862084 L27,21.6113792 C27.0005363,22.3897073 26.6890237,23.1363104 26.1341038,23.6866717 C25.5791839,24.2370329 24.8263967,24.5459865 24.0416217,24.5454539 L2.62224375,24.5454539 C1.17448131,24.5443457 0.00111667142,23.3806202 0,21.944751 L0,5.05524898 C0.00111667142,3.61937984 1.17448131,2.45565433 2.62224375,2.45454614 L24.0416217,2.45454614 C24.8263967,2.45401354 25.5791839,2.76296705 26.1341038,3.31332831 C26.6890237,3.86368957 27.0005363,4.61029267 27,5.38862084 Z M18.7667627,20.6393793 C18.7672984,20.3737843 18.6612941,20.1188848 18.4721242,19.9308922 C18.2829543,19.7428995 18.0261565,19.6372554 17.7583612,19.6372554 L4.42845335,19.6372554 C4.16065795,19.6372554 3.90386024,19.7428995 3.71469033,19.9308922 C3.52552042,20.1188848 3.41951607,20.3737843 3.42005178,20.6393793 L3.42005178,20.6454041 C3.42005178,21.1976767 3.87160622,21.6455196 4.42845335,21.6455196 L17.7583612,21.6455196 C18.3152848,21.6455196 18.7667627,21.1977527 18.7667627,20.6454041 L18.7667627,20.6393793 Z M12.6920668,15.6187187 C12.6926025,15.3531238 12.5865981,15.0982243 12.3974282,14.9102316 C12.2082583,14.722239 11.9514606,14.6165949 11.6836652,14.6165949 L4.42845335,14.6165949 C4.16065795,14.6165949 3.90386024,14.722239 3.71469033,14.9102316 C3.52552042,15.0982243 3.41951607,15.3531238 3.42005178,15.6187187 L3.42005178,15.6247435 C3.42005178,16.1770162 3.87160622,16.6248591 4.42845335,16.6248591 L11.6836652,16.6248591 C12.2405889,16.6248591 12.6920668,16.1770921 12.6920668,15.6247435 L12.6920668,15.6187187 Z M6.61736879,10.5900252 C6.61736879,10.324778 6.511127,10.0703947 6.32201541,9.88283665 C6.13290381,9.6952786 5.87641344,9.58990958 5.60896926,9.58990958 L4.42845335,9.58990958 C3.87152966,9.58990958 3.42005381,10.0376766 3.42005381,10.5900252 L3.42005381,10.5980582 C3.42005381,11.1503309 3.87160622,11.5981738 4.42845335,11.5981738 L5.60896926,11.5981738 C5.87641344,11.5981738 6.13290381,11.4928048 6.32201541,11.3052467 C6.511127,11.1176887 6.61736879,10.8633053 6.61736879,10.5980582 L6.61736879,10.5900252 Z M15.3409091,7.81574707 C15.0020071,7.81574707 14.7272727,8.09048143 14.7272727,8.42938343 C14.7272727,8.76828544 15.0020071,9.0430198 15.3409091,9.0430198 L23.9318182,9.0430198 C24.4539602,9.0430198 24.7375308,8.43240154 24.400651,8.03347259 L21.9461055,5.12682974 C21.72745,4.86790053 21.3402911,4.83525226 21.0813619,5.05390778 C20.8224327,5.2725633 20.7897844,5.65972221 21.0084399,5.91865142 L22.6104625,7.81574707 L15.3409091,7.81574707 Z M23.9329971,11.4968674 C24.2718991,11.4968674 24.5466335,11.222133 24.5466335,10.883231 C24.5466335,10.544329 24.2718991,10.2695947 23.9329971,10.2695947 L15.342088,10.2695947 C14.819946,10.2695947 14.5363754,10.8802129 14.8732552,11.2791419 L17.3278007,14.1857847 C17.5464562,14.4447139 17.9336151,14.4773622 18.1925443,14.2587067 C18.4514735,14.0400512 18.4841218,13.6528923 18.2654663,13.3939631 L16.6634437,11.4968674 L23.9329971,11.4968674 Z" id="形状结合"></path>
        </g>
    </g>
</svg>