<?xml version="1.0" encoding="UTF-8"?>
<svg width="24px" height="24px" viewBox="0 0 24 24" version="1.1" xmlns="http://www.w3.org/2000/svg" xmlns:xlink="http://www.w3.org/1999/xlink">
    <!-- Generator: Sketch 55.2 (78181) - https://sketchapp.com -->
    <title>icon_advance_begin_selected</title>
    <desc>Created with Sketch.</desc>
    <g id="icon_advance_begin_selected" stroke="none" stroke-width="1" fill="none" fill-rule="evenodd" opacity="0.400000006">
        <g id="编组-5备份" transform="translate(1.000000, 8.500000)" fill="#000000">
            <path d="M4.38194675,2.5 C4.14442678,2.76537825 4,3.11582278 4,3.5 C4,3.88417722 4.14442678,4.23462175 4.38194675,4.5 L1,4.5 C0.44771525,4.5 6.76353751e-17,4.05228475 0,3.5 C-6.76353751e-17,2.94771525 0.44771525,2.5 1,2.5 L4.38194675,2.5 Z M6.61805325,2.5 L21,2.5 C21.5522847,2.5 22,2.94771525 22,3.5 C22,4.05228475 21.5522847,4.5 21,4.5 L6.61805325,4.5 C6.85557322,4.23462175 7,3.88417722 7,3.5 C7,3.11582278 6.85557322,2.76537825 6.61805325,2.5 Z" id="形状结合"></path>
            <path d="M5.5,7 C7.43299662,7 9,5.43299662 9,3.5 C9,1.56700338 7.43299662,0 5.5,0 C3.56700338,0 2,1.56700338 2,3.5 C2,5.43299662 3.56700338,7 5.5,7 Z M5.5,5 C4.67157288,5 4,4.32842712 4,3.5 C4,2.67157288 4.67157288,2 5.5,2 C6.32842712,2 7,2.67157288 7,3.5 C7,4.32842712 6.32842712,5 5.5,5 Z" id="椭圆形备份" fill-rule="nonzero"></path>
        </g>
    </g>
</svg>