<?xml version="1.0" encoding="UTF-8"?>
<svg width="24px" height="24px" viewBox="0 0 24 24" version="1.1" xmlns="http://www.w3.org/2000/svg" xmlns:xlink="http://www.w3.org/1999/xlink">
    <title>icon_wallet_gift_normal</title>
    <g id="icon_wallet_gift_normal" stroke="none" stroke-width="1" fill="none" fill-rule="evenodd">
        <g id="编组">
            <circle id="椭圆形" fill="#FF4000" cx="12" cy="12" r="12"></circle>
            <g transform="translate(5.000000, 5.000000)" fill="#FFFFFF" fill-rule="nonzero" id="ico/转账/转入">
                <g>
                    <path d="M12.8333333,3.09166667 C13.3810157,3.09166667 13.825,3.53565096 13.825,4.08333333 L13.825,5.83333333 C13.825,6.38101571 13.3810157,6.825 12.8333333,6.825 L12.658,6.82455997 L12.6583333,11.6666667 C12.6583333,12.5365151 11.9531818,13.2416667 11.0833333,13.2416667 L2.91666667,13.2416667 C2.04681819,13.2416667 1.34166667,12.5365151 1.34166667,11.6666667 L1.341,6.82455997 L1.16666667,6.825 C0.61898429,6.825 0.175,6.38101571 0.175,5.83333333 L0.175,4.08333333 C0.175,3.53565096 0.61898429,3.09166667 1.16666667,3.09166667 L12.8333333,3.09166667 Z M6.591,6.82455997 L2.15833333,6.825 L2.15833333,11.6666667 C2.15833333,12.0854826 2.49785073,12.425 2.91666667,12.425 L6.591,12.42456 L6.591,6.82455997 Z M11.8416667,6.825 L7.591,6.82455997 L7.591,12.42456 L11.0833333,12.425 C11.5021493,12.425 11.8416667,12.0854826 11.8416667,11.6666667 L11.8416667,6.825 Z M6.591,3.90755997 L1.16666667,3.90833333 C1.07001684,3.90833333 0.991666667,3.9866835 0.991666667,4.08333333 L0.991666667,5.83333333 C0.991666667,5.92998316 1.07001684,6.00833333 1.16666667,6.00833333 L6.591,6.00755997 L6.591,3.90755997 Z M12.8333333,3.90833333 L7.591,3.90755997 L7.591,6.00755997 L12.8333333,6.00833333 C12.9299832,6.00833333 13.0083333,5.92998316 13.0083333,5.83333333 L13.0083333,4.08333333 C13.0083333,3.9866835 12.9299832,3.90833333 12.8333333,3.90833333 Z M10.8770917,0.718354066 C10.9527907,0.90058332 10.8866883,1.10631763 10.7294606,1.21286093 L10.6566459,1.25209172 L7.0862516,2.73525279 C7.00962613,2.76708342 6.92577345,2.77457348 6.84579768,2.75780323 L6.76752548,2.73294918 L3.33791981,1.24978811 C3.13093006,1.16027369 3.03569748,0.919909568 3.12521189,0.712919813 C3.20353701,0.531803777 3.39735643,0.436251829 3.58325442,0.475161446 L3.66208019,0.500211894 L6.93281105,1.91466626 L10.3433541,0.497908284 C10.5516161,0.411395123 10.7905786,0.510092062 10.8770917,0.718354066 Z" id="形状结合"></path>
                </g>
            </g>
        </g>
    </g>
</svg>