<?xml version="1.0" encoding="UTF-8"?>
<svg width="30px" height="30px" viewBox="0 0 30 30" version="1.1" xmlns="http://www.w3.org/2000/svg" xmlns:xlink="http://www.w3.org/1999/xlink">
    <title>icon_early_result_cancel</title>
    <defs>
        <linearGradient x1="100%" y1="50%" x2="2.2537765%" y2="50%" id="linearGradient-1">
            <stop stop-color="#DADADA" offset="0%"></stop>
            <stop stop-color="#DFDFDF" offset="9.51662206%"></stop>
            <stop stop-color="#CDCDCD" offset="30.2450386%"></stop>
            <stop stop-color="#FFFFFF" offset="80.7533531%"></stop>
            <stop stop-color="#BCBCBC" offset="100%"></stop>
        </linearGradient>
    </defs>
    <g id="icon_early_result_cancel" stroke="none" stroke-width="1" fill="none" fill-rule="evenodd">
        <g id="编组">
            <rect id="矩形" fill="#D8D8D8" opacity="0" x="0" y="0" width="30" height="30"></rect>
            <path d="M25.75,0.5 L25.75,25.8900028 L15.0371221,29.4729535 L4.25,25.88924 L4.25,0.5 L25.75,0.5 Z" id="矩形" stroke="#ECECEC" fill="url(#linearGradient-1)"></path>
            <rect id="矩形" fill="#878787" x="1.875" y="0" width="26.25" height="1.875"></rect>
        </g>
        <path d="M19,14.03 L19.7,13.21 C19.04,12.59 18.48,11.9 18.03,11.15 C18.67,9.88 19.1,8.36 19.31,6.6 L19.31,5.65 L15.37,5.65 L15.37,5.09 L10.53,5.09 L10.53,6.07 L11.22,6.07 L11.22,11.92 C10.95,11.96 10.68,11.99 10.4,12.02 L10.66,13.05 C11.7,12.89 12.72,12.72 13.7,12.52 L13.7,14.01 L14.72,14.01 L14.72,12.31 C14.98,12.25 15.25,12.18 15.53,12.12 L15.53,11.08 C15.27,11.14 15,11.21 14.72,11.28 L14.72,6.07 L15.26,6.07 L15.26,6.65 L15.66,6.65 C15.8,8.25 16.21,9.72 16.89,11.08 C16.39,11.91 15.75,12.62 14.99,13.21 L15.7,14.03 C16.38,13.49 16.97,12.85 17.47,12.1 C17.9,12.78 18.41,13.42 19,14.03 Z M13.7,7.3 L12.24,7.3 L12.24,6.07 L13.7,6.07 L13.7,7.3 Z M17.44,10.01 C17,8.99 16.72,7.87 16.62,6.65 L18.33,6.65 C18.17,7.9 17.87,9.02 17.44,10.01 Z M13.7,9.47 L12.24,9.47 L12.24,8.24 L13.7,8.24 L13.7,9.47 Z M12.24,11.77 L12.24,10.41 L13.7,10.41 L13.7,11.5 C13.22,11.6 12.74,11.69 12.24,11.77 Z M14.78,24.98 L14.78,22.89 L17.91,22.89 L17.91,23.54 C17.91,23.83 17.76,23.98 17.48,23.98 L16.47,23.95 L16.74,24.96 L17.83,24.96 C18.57,24.96 18.95,24.56 18.95,23.77 L18.95,18.47 L16.86,18.47 L16.86,15.82 L15.8,15.82 L15.8,18.47 L13.73,18.47 L13.73,24.98 L14.78,24.98 Z M12.47,18.1 L13.21,17.35 C12.73,16.86 12.15,16.37 11.46,15.87 L10.72,16.59 C11.48,17.13 12.06,17.63 12.47,18.1 Z M14.31,18.11 L15.13,17.7 C14.79,17.1 14.45,16.54 14.09,16.04 L13.23,16.45 C13.62,16.95 13.98,17.5 14.31,18.11 Z M18.25,18.23 C18.7,17.65 19.07,17.06 19.35,16.44 L18.5,16.04 C18.24,16.62 17.89,17.21 17.45,17.81 L18.25,18.23 Z M12.09,20.45 L12.83,19.71 C12.38,19.21 11.83,18.71 11.18,18.21 L10.44,18.93 C11.15,19.48 11.7,19.99 12.09,20.45 Z M17.91,20.31 L14.78,20.31 L14.78,19.48 L17.91,19.48 L17.91,20.31 Z M11.5,24.94 C12.08,23.81 12.6,22.6 13.08,21.32 L12.16,20.96 C11.7,22.17 11.16,23.35 10.54,24.51 L11.5,24.94 Z M17.91,22.01 L14.78,22.01 L14.78,21.19 L17.91,21.19 L17.91,22.01 Z" id="取消" fill="#878787" fill-rule="nonzero"></path>
    </g>
</svg>