<?xml version="1.0" encoding="UTF-8"?>
<svg width="40px" height="40px" viewBox="0 0 40 40" version="1.1" xmlns="http://www.w3.org/2000/svg" xmlns:xlink="http://www.w3.org/1999/xlink">
    <title>icon_message_reincome_normal_en-us</title>
    <g id="icon_message_reincome_normal_en-us" stroke="none" stroke-width="1" fill="none" fill-rule="evenodd">
        <circle id="椭圆形" fill="#FF4000" cx="20" cy="20" r="20"></circle>
        <path d="M25.5778107,9.53134045 C28.3392345,9.53134045 30.5778107,11.7699167 30.5778107,14.5313405 L30.5778107,25.5313405 C30.5778107,28.2927642 28.3392345,30.5313405 25.5778107,30.5313405 L14.5778107,30.5313405 C11.816387,30.5313405 9.57781071,28.2927642 9.57781071,25.5313405 L9.57781071,14.5313405 C9.57781071,11.7699167 11.816387,9.53134045 14.5778107,9.53134045 L25.5778107,9.53134045 Z M17.9778107,24.2313405 L12.7278107,24.2313405 L12.7278107,25.8063405 L17.9778107,25.8063405 L17.9778107,24.2313405 Z M30.5778107,16.8813405 L26.3778107,16.8813405 C24.6381137,16.8813405 23.2278107,18.2916435 23.2278107,20.0313405 C23.2278107,21.7110479 24.5425284,23.0836865 26.1990614,23.176354 L26.3778107,23.1813405 L30.5778107,23.1813405 L30.5778107,16.8813405 Z M26.3778107,18.9813405 C26.9577097,18.9813405 27.4278107,19.4514415 27.4278107,20.0313405 C27.4278107,20.6112394 26.9577097,21.0813405 26.3778107,21.0813405 C25.7979117,21.0813405 25.3278107,20.6112394 25.3278107,20.0313405 C25.3278107,19.4514415 25.7979117,18.9813405 26.3778107,18.9813405 Z M15.4472061,11.6343017 C15.356945,11.6462104 15.2752974,11.6933431 15.2205525,11.7651421 C15.1052713,11.9154589 15.1334144,12.1300204 15.2841126,12.2441067 L16.0076047,12.797314 C15.5991041,12.8154293 15.2023924,12.9041741 14.8265498,13.063499 C14.4177111,13.2360573 14.0468142,13.4854627 13.7345393,13.7978091 C13.4201811,14.1106093 13.1701704,14.4804938 12.9983051,14.887049 C12.8186109,15.3097871 12.7278107,15.7589556 12.7278107,16.2216363 C12.7278107,16.6842675 12.8186109,17.1333371 12.9983051,17.5561742 C13.1703894,17.9626136 13.4203736,18.3324589 13.7345393,18.6454141 C14.0504337,18.9605002 14.4180993,19.207679 14.8265498,19.3797242 C15.2505015,19.5589461 15.7007401,19.6495223 16.164674,19.6495223 C16.6286079,19.6495223 17.0787964,19.5589461 17.5027481,19.3797242 C17.9111986,19.2085699 18.2788642,18.9613911 18.5938557,18.6471959 C18.9082084,18.3344103 19.1582189,17.964543 19.3300899,17.5580055 C19.5097338,17.1351684 19.6005534,16.6860989 19.6005534,16.2234676 C19.601437,16.0342477 19.4471268,15.8803177 19.2583025,15.8803177 C19.0685752,15.8803177 18.915168,16.0333568 18.915168,16.2225767 C18.915168,16.955897 18.6292226,17.6449685 18.1090527,18.1628363 C17.5898361,18.6816445 16.8990521,18.9668356 16.1637209,18.9668356 C15.4284398,18.9668356 14.7376057,18.6816445 14.218389,18.1628363 C13.698169,17.6440281 13.4122236,16.955006 13.4122236,16.2225272 C13.4122236,15.4899989 13.698169,14.800086 14.218389,14.2822182 C14.7384585,13.76341 15.4293428,13.4782189 16.1636707,13.4782189 C16.1663797,13.4782189 15.5709109,14.2595494 15.5709109,14.2595494 C15.4556297,14.4098662 15.4837226,14.6244772 15.6344209,14.7385635 C15.6937457,14.7844038 15.7669551,14.8092592 15.8423082,14.8091436 C15.949372,14.8091246 16.0502157,14.7595143 16.1146587,14.6751602 L17.1921713,13.2726655 C17.3074524,13.1223487 17.2793094,12.9077872 17.1286111,12.7937009 L15.7007401,11.7017883 C15.628798,11.6467038 15.5374673,11.6223931 15.4472061,11.6343017 Z" id="形状结合" fill="#FFFFFF"></path>
    </g>
</svg>