<?xml version="1.0" encoding="UTF-8"?>
<svg width="14px" height="14px" viewBox="0 0 14 14" version="1.1" xmlns="http://www.w3.org/2000/svg" xmlns:xlink="http://www.w3.org/1999/xlink">
    <title>icon_bet_status_success</title>
    <g id="切图" stroke="none" stroke-width="1" fill="none" fill-rule="evenodd">
        <g id="icon_bet_status_success" fill="#11D664" fill-rule="nonzero">
            <g id="ico/成功">
                <path d="M6.96556277,0.016587534 C10.8015154,0.016587534 13.9223913,3.1370953 13.9223913,6.97304791 C13.9219005,10.8088165 10.801454,13.9298764 6.96556277,13.9298764 C3.1296715,13.9298764 0.0091023947,10.8088778 0.0091023947,6.97304791 C0.0091023947,3.13758612 3.12961016,0.016587534 6.96556277,0.016587534 Z M6.96556277,0.74816841 C3.53350119,0.74816841 0.740683254,3.54098635 0.740683254,6.97304791 C0.740683254,10.4054776 3.53350119,13.1982956 6.96556277,13.1982956 C10.3981152,13.1982956 13.1908104,10.4054776 13.1908104,6.97304791 C13.1903196,3.54098633 10.3981152,0.74816841 6.96556277,0.74816841 Z M10.4683038,8.91900149 C10.6219333,9.05023694 10.6409529,9.2808653 10.509288,9.43449482 C9.62064178,10.4757275 8.32920888,11.0731893 6.96556277,11.0731893 C5.6018553,11.0731893 4.31079054,10.4757275 3.42226703,9.43449482 C3.29060211,9.28135611 3.30962174,9.05017558 3.46325127,8.91900149 C3.61540832,8.78733657 3.84707969,8.8063562 3.9787446,8.95998573 C4.72781126,9.83789504 5.81696118,10.3416698 6.96556277,10.3416698 C8.1146552,10.3416698 9.2036824,9.83789504 9.95281041,8.95998573 C10.0849662,8.8063562 10.3156559,8.78733658 10.4683038,8.91900149 Z M4.77180183,4.63584215 C5.09605584,4.63584215 5.35993787,4.89972418 5.35993787,5.2241009 L5.35993787,6.27803381 C5.35993787,6.60290138 5.09605584,6.86678341 4.77180183,6.86678341 L4.6830231,6.86678341 C4.35815554,6.86678341 4.09427352,6.60290138 4.09427352,6.27803381 L4.09427352,5.2241009 C4.09427352,4.89972418 4.35815555,4.63584215 4.6830231,4.63584215 L4.77180183,4.63584215 Z M9.24810245,4.63584215 C9.57235645,4.63584215 9.83623849,4.89972418 9.83623849,5.2241009 L9.83623849,6.27803381 C9.83623849,6.60290138 9.57235645,6.86678341 9.24810245,6.86678341 L9.15932373,6.86678341 C8.83494701,6.86678341 8.57106496,6.60290138 8.57106496,6.27803381 L8.57106496,5.2241009 C8.57106496,4.89972418 8.83494699,4.63584215 9.15932373,4.63584215 L9.24810245,4.63584215 Z" id="形状结合"></path>
            </g>
        </g>
    </g>
</svg>