<?xml version="1.0" encoding="UTF-8"?>
<svg width="40px" height="40px" viewBox="0 0 40 40" version="1.1" xmlns="http://www.w3.org/2000/svg" xmlns:xlink="http://www.w3.org/1999/xlink">
    <title>icon_message_handincome_normal</title>
    <g id="icon_message_handincome_normal" stroke="none" stroke-width="1" fill="none" fill-rule="evenodd">
        <circle id="椭圆形" fill="#FF4000" cx="20" cy="20" r="20"></circle>
        <g id="ico/转账/手动扣款备份" transform="translate(8.000000, 8.000000)" fill="#FFFFFF" fill-rule="nonzero">
            <path d="M24.0012344,7.16879213 L24,19.2101148 C24.0004767,19.9019621 23.7235767,20.5656093 23.2303145,21.0548193 C22.7863786,21.4951083 22.1999782,21.7615837 21.5786033,21.8101308 L21.3703304,21.8181812 L2.33088333,21.8181812 C1.09760422,21.8172372 0.0883319492,20.8671812 0.00549341636,19.6646692 L-1.73740618e-11,19.5064454 L-1.73740618e-11,7.23881818 L23.2988729,7.2396692 C23.5481569,7.2396692 23.7855528,7.21441867 24.0012344,7.16879213 Z M10.4271354,11.009626 C10.3011924,10.9032671 10.1244498,10.8790923 9.97418089,10.9476712 C9.82391199,11.01625 9.7274506,11.165108 9.72697047,11.3291631 L9.72697047,11.3291631 L9.73057029,12.5127002 C9.73060417,12.7282109 9.56532263,12.9083723 9.34898939,12.928634 C8.59842696,13.0750142 7.30609163,13.533791 6.50333182,13.9479397 C5.53318038,14.4477743 4.79161749,14.9779561 4.27684325,15.5670469 C3.72473564,16.1967715 3.25985342,16.8967711 2.89451244,17.6485012 C2.50933173,18.453592 2.28434299,18.9802035 2.18894777,19.290815 L2.18894777,19.290815 C2.16982736,19.3512172 2.19589422,19.4105264 2.24834479,19.4354101 C2.30135892,19.460557 2.36496034,19.4420949 2.39593739,19.3925671 C3.12310099,18.3322036 3.98525783,17.6360053 4.96440883,17.2664847 C6.15954902,16.8576914 7.74526966,16.6024187 9.7503693,16.5934931 L9.7503693,16.5934931 L9.75936884,18.453592 C9.61538469,18.5813254 9.95205342,19.2161096 10.1397555,19.1708059 C10.3274577,19.1255021 10.4600198,18.9593628 10.4613337,18.7677738 L10.4613337,18.7677738 L14.5579287,15.1850304 C14.6491352,15.1047999 14.701188,14.989571 14.700847,14.8686606 C14.7004992,14.7477502 14.6477909,14.6328148 14.5561288,14.5530966 L14.5561288,14.5530966 Z M21.3703304,2.18181879 C22.0679082,2.18134537 22.7370524,2.45597071 23.2303145,2.94518072 C23.6742504,3.38546973 23.9429331,3.96705286 23.9918827,4.58332325 L24,4.78988519 L24.0015232,5.52573178 C23.7814655,5.47920295 23.5427351,5.45454545 23.2988729,5.45454545 L-1.73740618e-11,5.45381818 L-1.73740618e-11,4.49355465 C0.000951238602,3.27040686 0.95887651,2.26942571 2.17134893,2.18726715 L2.33088333,2.18181879 L21.3703304,2.18181879 Z" id="形状结合"></path>
        </g>
    </g>
</svg>