<?xml version="1.0" encoding="UTF-8"?>
<svg width="40px" height="40px" viewBox="0 0 40 40" version="1.1" xmlns="http://www.w3.org/2000/svg" xmlns:xlink="http://www.w3.org/1999/xlink">
    <title>icon_message_costred_normal</title>
    <g id="icon_message_costred_normal" stroke="none" stroke-width="1" fill="none" fill-rule="evenodd">
        <circle id="椭圆形" fill="#FF4000" cx="20" cy="20" r="20"></circle>
        <g id="ico/转账/发红包" transform="translate(8.000000, 8.000000)" fill="#FFFFFF" fill-rule="nonzero">
            <path d="M19.7392599,1.09320138 L3.79285661,1.09320138 C2.91303678,1.09577964 2.20044245,1.80837398 2.19786421,2.6881938 L2.19786421,4.17168932 C4.07661316,6.53642453 6.76465372,8.12148626 9.74326984,8.62100226 C10.0298043,7.74923985 10.843719,7.16000838 11.7613636,7.16000838 C12.6790083,7.16000838 13.492923,7.74923985 13.7794574,8.62100226 C16.7599436,8.12227619 19.4498531,6.53668058 21.3295577,4.17051568 L21.3295577,2.6881938 C21.3269961,1.81019651 20.6172458,1.09835099 19.7392599,1.09320138 L19.7392599,1.09320138 Z" id="路径"></path>
            <path d="M11.7654714,11.4131192 C10.7843635,11.4123472 9.93126159,10.7401475 9.7010184,9.78643821 C7.00234684,9.45331545 4.42628882,8.46447665 2.19786421,6.90629736 L2.19786421,21.2917441 C2.20044245,22.1715639 2.91303678,22.8841583 3.79285661,22.8867365 L19.7392599,22.8867365 C20.6190797,22.8841583 21.331674,22.1715639 21.3342523,21.2917441 L21.3342523,6.90629736 C19.1057151,8.46405982 16.5296652,9.45249256 13.8310981,9.78526455 C13.6008549,10.7389738 12.7477529,11.4111735 11.7666451,11.4119456 L11.7654714,11.4131192 Z" id="路径"></path>
        </g>
    </g>
</svg>