<?xml version="1.0" encoding="UTF-8"?>
<svg width="40px" height="40px" viewBox="0 0 40 40" version="1.1" xmlns="http://www.w3.org/2000/svg" xmlns:xlink="http://www.w3.org/1999/xlink">
    <!-- Generator: Sketch 55.2 (78181) - https://sketchapp.com -->
    <title>icon_message_joinmatch_normal</title>
    <desc>Created with Sketch.</desc>
    <g id="icon_message_joinmatch_normal" stroke="none" stroke-width="1" fill="none" fill-rule="evenodd">
        <circle id="椭圆形" fill="#FF4000" cx="20" cy="20" r="20"></circle>
        <g id="ico/转账/参赛" transform="translate(8.000000, 8.000000)" fill="#FFFFFF" fill-rule="nonzero">
            <path d="M19.5844525,4.1763504 L19.5844525,2.52286005 C19.5844525,1.75170944 18.973319,1.11326847 18.2041337,1.11326847 L6.09736795,1.11326847 C5.3422317,1.11326847 4.71704915,1.73736244 4.71704915,2.52286005 L4.71704915,4.11537568 C2.67993742,4.4597034 1.1099565,6.28177085 1.1099565,8.46251302 C1.1099565,10.8620467 3.00306551,12.8204106 5.34223172,12.870625 C6.49425352,15.5535118 9.10737615,17.4257937 12.152507,17.4257937 C15.2081745,17.4257937 17.8248094,15.5391648 18.973319,12.8598648 C21.1790192,12.6769407 22.9281319,10.7652046 22.9281319,8.46609977 C22.9316378,6.37861302 21.4916105,4.62828052 19.5844525,4.1763504 Z M3.03116358,8.45892627 C3.03116358,7.35779494 3.75117721,6.42524074 4.72056141,6.12036725 L4.72056141,9.95101302 C4.72056141,10.2451263 4.74514725,10.5248925 4.78026985,10.8082455 C3.77225078,10.5392395 3.03116358,9.58516482 3.03116358,8.45892627 Z M15.6998912,8.42305881 L14.3090356,9.89362506 L14.6321636,11.9631781 C14.7410437,12.673354 14.368744,12.94236 13.7821963,12.6123793 L12.0682127,11.5722226 L10.354229,12.5514046 C9.76768133,12.8813853 9.3953816,12.601619 9.50426171,11.9022034 L9.82738977,9.83265036 L8.43653417,8.36208411 C7.95535433,7.87069978 8.11340611,7.3829022 8.75966225,7.27171302 L10.6773571,7.00270699 L11.5273244,5.20216003 C11.790744,4.55295883 12.2719238,4.55295883 12.5950519,5.20216003 L13.4450192,7.04933471 L15.362714,7.31834073 C16.0265315,7.44387687 16.181071,7.93167447 15.6998912,8.42305881 L15.6998912,8.42305881 Z M19.5387931,10.7257504 C19.5633789,10.4675046 19.5879648,10.2236058 19.5879647,9.96536 L19.5879647,6.23155641 C20.4273953,6.61175159 21.0139429,7.46898412 21.0139429,8.47327327 C21.0139429,9.47397567 20.4028094,10.3563154 19.5387931,10.7257504 L19.5387931,10.7257504 Z M15.6191091,22.9314503 L8.4259974,22.9314503 C7.89915816,22.9314503 7.46714999,22.4902804 7.46714999,21.9522684 C7.46714999,21.4142563 7.89915816,20.9730864 8.4259974,20.9730864 L15.6191091,20.9730864 C16.1459484,20.9730864 16.5779566,21.4142563 16.5779566,21.9522684 C16.5779566,22.4902804 16.1459484,22.9314503 15.6191091,22.9314503 L15.6191091,22.9314503 Z" id="形状"></path>
            <polygon id="路径" points="11.0373749 17.072504 12.9499968 17.072504 12.9499968 21.4692537 11.0373749 21.4692537"></polygon>
        </g>
    </g>
</svg>