<?xml version="1.0" encoding="UTF-8"?>
<svg width="24px" height="24px" viewBox="0 0 24 24" version="1.1" xmlns="http://www.w3.org/2000/svg" xmlns:xlink="http://www.w3.org/1999/xlink">
    <title>icon_pop_start_close</title>
    <defs>
        <path d="M9.36000028,0.96 C9.62509696,0.96 9.84000028,1.17490332 9.84000028,1.44 C9.84000028,1.62998388 9.72962596,1.79418846 9.56950308,1.87198796 C9.55307875,1.88492631 9.5304556,1.90366296 9.50273714,1.92752461 C9.4138955,2.00400462 9.28413752,2.12307096 9.11538648,2.28319493 C8.77125894,2.60972963 8.27001814,3.10212739 7.61273428,3.75941125 C7.17016673,4.2019788 6.65714872,4.71900257 6.07370151,5.31046172 C7.09947636,6.35399119 8.30988133,7.59252626 9.70401326,9.02525401 C9.88888836,9.21524729 9.88473927,9.51913815 9.69474599,9.70401326 C9.50475271,9.88888836 9.20086185,9.88473927 9.01598674,9.69474599 C7.62767207,8.26799654 6.42192223,7.03420488 5.39882598,5.99345808 C4.37807805,7.03420488 3.17232822,8.26799654 1.78401354,9.69474599 C1.59913844,9.88473927 1.29524757,9.88888836 1.10525429,9.70401326 C0.915261015,9.51913815 0.911111916,9.21524729 1.09598702,9.02525401 C2.49011895,7.59252626 3.70052392,6.35399119 4.72729151,5.30956092 C4.14285156,4.71900257 3.62983355,4.2019788 3.18726601,3.75941125 C2.52998214,3.10212739 2.02874134,2.60972963 1.6846138,2.28319493 C1.51586276,2.12307096 1.38610478,2.00400462 1.29726314,1.92752461 C1.26954468,1.90366296 1.24692154,1.88492631 1.2304972,1.87198796 C1.07037432,1.79418846 0.96,1.62998388 0.96,1.44 C0.96,1.17490332 1.17490332,0.96 1.44,0.96 C1.59467368,0.96 1.65572388,0.993763695 1.77797498,1.08253531 C1.81896264,1.11229816 1.86649267,1.15083179 1.92357946,1.19997539 C2.02640713,1.28849538 2.16637358,1.41692904 2.34540209,1.58680507 C2.69683364,1.92027037 3.20337238,2.41787261 3.86608852,3.08058875 C4.30793784,3.52243807 4.81949991,4.03797598 5.40079567,4.62722303 C5.98050038,4.03797598 6.49206244,3.52243807 6.93391177,3.08058875 C7.5966279,2.41787261 8.10316665,1.92027037 8.45459819,1.58680507 C8.6336267,1.41692904 8.77359315,1.28849538 8.87642082,1.19997539 C8.93350761,1.15083179 8.98103764,1.11229816 9.0220253,1.08253531 C9.14427641,0.993763695 9.20532661,0.96 9.36000028,0.96 Z" id="path-1"></path>
        <filter x="-50.7%" y="-50.7%" width="201.4%" height="201.4%" filterUnits="objectBoundingBox" id="filter-2">
            <feOffset dx="0" dy="0" in="SourceAlpha" result="shadowOffsetOuter1"></feOffset>
            <feGaussianBlur stdDeviation="1.5" in="shadowOffsetOuter1" result="shadowBlurOuter1"></feGaussianBlur>
            <feColorMatrix values="0 0 0 0 0.789572011   0 0 0 0 0.789572011   0 0 0 0 0.789572011  0 0 0 0.1 0" type="matrix" in="shadowBlurOuter1"></feColorMatrix>
        </filter>
    </defs>
    <g id="icon_pop_start_close" stroke="none" stroke-width="1" fill="none" fill-rule="evenodd">
        <g id="编组-9">
            <path d="M12,0 C18.627417,0 24,5.372583 24,12 C24,18.627417 18.627417,24 12,24 C5.372583,24 0,18.627417 0,12 C0,5.372583 5.372583,0 12,0 Z M12,1 C5.92486775,1 1,5.92486775 1,12 C1,18.0751322 5.92486775,23 12,23 C18.0751322,23 23,18.0751322 23,12 C23,5.92486775 18.0751322,1 12,1 Z" id="椭圆形" fill="#FFFFFF" fill-rule="nonzero"></path>
            <g id="形状结合" transform="translate(6.600000, 6.600000)">
                <use fill="black" fill-opacity="1" filter="url(#filter-2)" xlink:href="#path-1"></use>
                <use fill="#FFFFFF" fill-rule="evenodd" xlink:href="#path-1"></use>
            </g>
        </g>
    </g>
</svg>