<?xml version="1.0" encoding="UTF-8"?>
<svg width="12px" height="12px" viewBox="0 0 12 12" version="1.1" xmlns="http://www.w3.org/2000/svg" xmlns:xlink="http://www.w3.org/1999/xlink">
    <!-- Generator: Sketch 56.2 (81672) - https://sketch.com -->
    <title>icon_finger_up_selected</title>
    <desc>Created with Sketch.</desc>
    <g id="icon_finger_up_selected" stroke="none" stroke-width="1" fill="none" fill-rule="evenodd">
        <path d="M7.40772479,4.49343267 C7.69078419,3.95896507 7.9098541,3.04166255 7.9098541,2.34280113 C7.9098541,1.76779807 7.78789766,1.23333048 7.58538973,0.740149001 C7.34222966,0.288253648 6.89580885,7.30157551e-07 6.36808374,7.30157551e-07 C5.63709789,-0.000749194352 5.03183257,0.575755177 4.98892197,1.31515206 L4.98892197,1.520832 C4.98892197,2.75416102 4.12092332,4.1233589 3.02557377,4.49343267 L3.06170902,12.0000007 L9.80093181,12.0000007 C10.1246434,12.0000007 10.4092084,11.7530339 10.5311648,11.4655324 L11.9961478,5.35668791 C12.0368,4.94532802 11.7522349,4.53471879 11.3065669,4.49343267 L7.40697197,4.49343267 L7.40772479,4.49343267 Z M2.23135125,4.49343267 L0.770885181,4.49343267 C0.569463739,4.4886925 0.374827952,4.56613146 0.232006989,4.70783397 C0.089186026,4.84953648 0.0105543725,5.04322496 0.0143035336,5.2440894 L0,11.219317 C0,11.6712124 0.365116517,12 0.770885181,12 L2.27275621,12 L2.27275621,4.49343267 L2.23210406,4.49343267 L2.23135125,4.49343267 Z" id="形状备份" fill="#FF4000" fill-rule="nonzero"></path>
    </g>
</svg>