<?xml version="1.0" encoding="UTF-8"?>
<svg width="268px" height="410px" viewBox="0 0 268 410" version="1.1" xmlns="http://www.w3.org/2000/svg" xmlns:xlink="http://www.w3.org/1999/xlink">
    <title>编组 10</title>
    <g id="3.2" stroke="none" stroke-width="1" fill="none" fill-rule="evenodd">
        <g id="打开app弹出活动" transform="translate(-54.000000, -201.000000)">
            <g id="编组-10" transform="translate(54.000000, 201.000000)">
                <rect id="矩形" fill="#FFFFFF" x="0" y="0" width="268" height="410" rx="8"></rect>
                <g id="编组" transform="translate(104.000000, 184.000000)" fill="#E8EAF1" fill-rule="nonzero">
                    <path d="M44.3173184,0 C46.9598883,0 49.1083799,2.14007989 49.1083799,4.7723036 C49.1083799,7.4045273 46.9598883,9.54460719 44.3173184,9.54460719 C41.6747486,9.54460719 39.526257,7.4045273 39.526257,4.7723036 C39.526257,2.14007989 41.6747486,0 44.3173184,0 Z M59.843352,24.0703063 C59.7984358,24.0479361 54.7678212,21.6617843 49.812067,22.914514 C47.6635754,23.4513981 45.784581,24.6966711 44.22,26.5981358 C43.2917318,27.7315579 42.7227933,28.812783 42.4532961,29.4093209 C45.5150838,34.2860186 46.3310615,38.5065246 46.5107263,39.7070573 L46.6454749,40.6391478 L43.0147486,40.6391478 L42.9548603,40.229028 C42.6329609,38.0665779 41.4801117,34.5022636 39.2043575,30.9826897 C36.3746369,26.6130493 32.5417877,23.2798935 27.8031285,21.0876165 C21.9565363,18.3733688 15.7281564,18.1645806 9.30513966,20.4612517 C4.40927374,22.2135819 1.2277095,24.8383489 1.19776536,24.860719 L0,25.8524634 L0,21.2740346 C1.4522905,20.2450067 4.24458101,18.4852197 7.95765363,17.1355526 C11.176648,15.9648469 14.4330726,15.3533955 17.637095,15.3086551 C21.657095,15.2564581 25.5872626,16.1065246 29.3153073,17.8364847 C32.167486,19.1563249 34.7726257,20.8788282 37.0558659,22.9517976 C38.1488268,23.9435419 39.1744134,25.024767 40.1176536,26.1731025 C40.4021229,25.7182423 40.7389944,25.2111851 41.1432402,24.6892144 C42.5880447,22.8250333 45.118324,20.3941411 48.9212291,19.4396804 C53.3529609,18.3211718 57.627486,19.424767 59.8358659,20.207723 L59.8358659,24.0703063 L59.843352,24.0703063 Z" id="形状"></path>
                </g>
            </g>
        </g>
    </g>
</svg>