<?xml version="1.0" encoding="UTF-8"?>
<svg width="30px" height="30px" viewBox="0 0 30 30" version="1.1" xmlns="http://www.w3.org/2000/svg" xmlns:xlink="http://www.w3.org/1999/xlink">
    <!-- Generator: Sketch 55.2 (78181) - https://sketchapp.com -->
    <title>个人主页/输半_slice</title>
    <desc>Created with Sketch.</desc>
    <defs>
        <linearGradient x1="100%" y1="50%" x2="0%" y2="50%" id="linearGradient-1">
            <stop stop-color="#2A57A5" offset="0%"></stop>
            <stop stop-color="#4168AB" offset="26.7419764%"></stop>
            <stop stop-color="#2D4D8E" offset="57.2687922%"></stop>
            <stop stop-color="#5576B7" offset="80.4423564%"></stop>
            <stop stop-color="#4C6FA4" offset="100%"></stop>
        </linearGradient>
    </defs>
    <g id="切图" stroke="none" stroke-width="1" fill="none" fill-rule="evenodd">
        <g id="画板" transform="translate(-327.000000, -565.000000)">
            <g id="ico/进入备份-10" transform="translate(327.000000, 565.000000)">
                <rect id="矩形" fill="#D8D8D8" opacity="0" x="0" y="0" width="30" height="30"></rect>
                <path d="M4.25,0.5 L4.25,25.88924 L15.0371221,29.4729535 L25.75,25.8900028 L25.75,0.5 L4.25,0.5 Z" id="矩形" stroke="#6585C0" stroke-width="1" fill="url(#linearGradient-1)"></path>
                <rect id="矩形" fill="#254583" x="1.875" y="0" width="26.25" height="1.875"></rect>
                <g id="编组" stroke-width="1" transform="translate(10.312500, 3.750000)" fill="#B9CFEF">
                    <path d="M1.79628633,2.86824324 L2.69442949,2.86824324 L2.69442949,4.26689189 L3.54211518,4.26689189 L3.54211518,5.12837838 L2.69442949,5.12837838 L2.69442949,6.25337838 C2.99717438,6.18243243 3.28982777,6.11148649 3.55220667,6.04054054 L3.55220667,6.94256757 C3.26964478,7.02364865 2.97699139,7.09459459 2.69442949,7.17567568 L2.69442949,9.375 L1.79628633,9.375 L1.79628633,7.37837838 C1.26143703,7.47972973 0.706404736,7.58108108 0.121097955,7.66216216 L0,6.71959459 C0.645855759,6.63851351 1.24125404,6.5472973 1.79628633,6.44594595 L1.79628633,5.12837838 L0.322927879,5.12837838 L0.121097955,4.31756757 C0.363293864,3.77027027 0.595398278,3.09121622 0.807319699,2.27027027 L0.0807319699,2.27027027 L0.0807319699,1.35810811 L1.01924112,1.35810811 C1.11006459,0.922297297 1.20088805,0.466216216 1.28162002,0 L2.1494887,0.202702703 C2.06875673,0.608108108 1.99811625,0.993243243 1.91738428,1.35810811 L3.59257266,1.35810811 L3.59257266,2.27027027 L1.69537137,2.27027027 C1.49354144,3.01013514 1.28162002,3.67905405 1.0596071,4.26689189 L1.79628633,4.26689189 L1.79628633,2.86824324 Z M4.86410118,2.52364865 C4.51089882,2.84797297 4.15769645,3.14189189 3.80449408,3.41554054 L3.27973628,2.61486486 C4.2989774,1.88513514 5.20721206,1.02364865 6.01453175,0.0304054054 L6.72093649,0.0304054054 C7.58880517,1.09459459 8.46676534,1.93581081 9.375,2.56418919 L8.87042519,3.32432432 C8.49703983,3.05067568 8.14383746,2.75675676 7.80072659,2.4527027 L7.80072659,3.04054054 L4.86410118,3.04054054 L4.86410118,2.52364865 Z M7.58880517,2.25 C7.15487083,1.82432432 6.75121098,1.37837838 6.36773412,0.902027027 C5.96407427,1.38851351 5.55032293,1.84459459 5.14666308,2.25 L7.58880517,2.25 Z M5.58059742,9.30405405 L5.13657158,9.30405405 L4.92465016,8.52364865 L5.31821851,8.55405405 C5.50995694,8.55405405 5.61087191,8.44256757 5.61087191,8.22972973 L5.61087191,7.5 L4.70263724,7.5 L4.70263724,9.375 L3.87513455,9.375 L3.87513455,3.68918919 L6.4282831,3.68918919 L6.4282831,8.40202703 C6.4282831,9 6.14572121,9.30405405 5.58059742,9.30405405 Z M4.70263724,6.77027027 L5.61087191,6.77027027 L5.61087191,5.98986486 L4.70263724,5.98986486 L4.70263724,6.77027027 Z M4.70263724,5.26013514 L5.61087191,5.26013514 L5.61087191,4.45945946 L4.70263724,4.45945946 L4.70263724,5.26013514 Z M6.85212594,3.99324324 L7.57871367,3.99324324 L7.57871367,7.6722973 L6.85212594,7.6722973 L6.85212594,3.99324324 Z M8.05301399,9.32432432 L7.18514532,9.32432432 L6.98331539,8.48310811 C7.25578579,8.52364865 7.5080732,8.54391892 7.75026911,8.54391892 C7.93191604,8.54391892 8.032831,8.41216216 8.032831,8.14864865 L8.032831,3.58783784 L8.87042519,3.58783784 L8.87042519,8.35135135 C8.87042519,9 8.59795479,9.32432432 8.05301399,9.32432432 Z" id="输半" fill-rule="nonzero"></path>
                    <path d="M1.76966292,11.5638499 C2.26474719,12.2219222 2.73876404,12.9407397 3.19171348,13.7203024 L2.25421348,14.1657667 C1.82233146,13.3558315 1.35884831,12.637014 0.853230337,11.9890659 L1.76966292,11.5638499 Z M0.663623596,14.4796166 L4.18188202,14.4796166 L4.18188202,11.25 L5.19311798,11.25 L5.19311798,14.4796166 L8.63764045,14.4796166 L8.63764045,15.4110421 L5.19311798,15.4110421 L5.19311798,16.9802916 L9.375,16.9802916 L9.375,17.9117171 L5.19311798,17.9117171 L5.19311798,20.625 L4.18188202,20.625 L4.18188202,17.9117171 L2.00728323e-13,17.9117171 L2.00728323e-13,16.9802916 L4.18188202,16.9802916 L4.18188202,15.4110421 L0.663623596,15.4110421 L0.663623596,14.4796166 Z M7.5,11.6043467 L8.38483146,12.0194384 C8.04775281,12.7686285 7.61587079,13.487446 7.07865169,14.1961393 L6.19382022,13.7506749 C6.74157303,13.0318575 7.17345506,12.31304 7.5,11.6043467 Z" id="形状结合" fill-rule="nonzero"></path>
                </g>
            </g>
        </g>
    </g>
</svg>