<?xml version="1.0" encoding="UTF-8"?>
<svg width="30px" height="30px" viewBox="0 0 30 30" version="1.1" xmlns="http://www.w3.org/2000/svg" xmlns:xlink="http://www.w3.org/1999/xlink">
    <title>icon_early_result_halflose</title>
    <defs>
        <linearGradient x1="100%" y1="50%" x2="0%" y2="50%" id="linearGradient-1">
            <stop stop-color="#2A57A5" offset="0%"></stop>
            <stop stop-color="#4168AB" offset="26.7419764%"></stop>
            <stop stop-color="#2D4D8E" offset="57.2687922%"></stop>
            <stop stop-color="#5576B7" offset="80.4423564%"></stop>
            <stop stop-color="#4C6FA4" offset="100%"></stop>
        </linearGradient>
    </defs>
    <g id="icon_early_result_halflose" stroke="none" stroke-width="1" fill="none" fill-rule="evenodd">
        <g id="编组">
            <rect id="矩形" fill="#D8D8D8" opacity="0" x="0" y="0" width="30" height="30"></rect>
            <path d="M25.75,0.5 L25.75,25.8900028 L15.0371221,29.4729535 L4.25,25.88924 L4.25,0.5 L25.75,0.5 Z" id="矩形" stroke="#6585C0" fill="url(#linearGradient-1)"></path>
            <rect id="矩形" fill="#254583" x="1.875" y="0" width="26.25" height="1.875"></rect>
        </g>
        <path d="M12.7,13.98 L12.7,12.68 L14.05,12.68 L14.05,11.8 L12.7,11.8 L12.7,11.25 L13.89,11.25 L13.89,7.45 L14.34,8.13 C14.66,7.88 14.97,7.61 15.29,7.32 L15.29,7.82 L18.11,7.82 L18.11,7.3 C18.42,7.59 18.75,7.87 19.11,8.13 L19.66,7.31 C18.78,6.69 17.93,5.87 17.09,4.83 L16.33,4.83 C15.61,5.74 14.8,6.54 13.89,7.24 L13.89,7.05 L12.7,7.05 L12.7,6.52 L14.01,6.52 L14.01,5.64 L12.7,5.64 L12.7,4.85 L11.8,4.85 L11.8,5.64 L10.48,5.64 L10.48,6.52 L11.8,6.52 L11.8,7.05 L10.61,7.05 L10.61,11.25 L11.8,11.25 L11.8,11.8 L10.42,11.8 L10.42,12.68 L11.8,12.68 L11.8,13.98 L12.7,13.98 Z M17.76,6.96 L15.66,6.96 C16.02,6.6 16.37,6.2 16.71,5.77 C17.03,6.19 17.38,6.58 17.76,6.96 Z M11.87,8.78 L11.47,8.78 L11.47,7.89 L11.87,7.89 L11.87,8.78 Z M13.02,8.78 L12.61,8.78 L12.61,7.89 L13.02,7.89 L13.02,8.78 Z M18.3,13.98 C18.86,13.98 19.14,13.63 19.14,12.94 L19.14,8.33 L18.28,8.33 L18.28,12.72 C18.28,13.04 18.19,13.2 18.02,13.2 C17.8,13.2 17.57,13.18 17.32,13.15 L17.51,13.98 L18.3,13.98 Z M15.18,14.03 L15.18,12.08 L15.85,12.08 L15.85,12.92 C15.85,13.14 15.78,13.26 15.64,13.26 L15.31,13.22 L15.53,14.01 L15.9,14.01 C16.44,14.01 16.71,13.71 16.71,13.11 L16.71,8.42 L14.32,8.42 L14.32,14.03 L15.18,14.03 Z M17.9,12.36 L17.9,8.69 L17.08,8.69 L17.08,12.36 L17.9,12.36 Z M15.85,9.9 L15.18,9.9 L15.18,9.26 L15.85,9.26 L15.85,9.9 Z M13.02,10.41 L12.61,10.41 L12.61,9.54 L13.02,9.54 L13.02,10.41 Z M11.87,10.41 L11.47,10.41 L11.47,9.54 L11.87,9.54 L11.87,10.41 Z M15.85,11.31 L15.18,11.31 L15.18,10.66 L15.85,10.66 L15.85,11.31 Z M15.53,25.09 L15.53,22.43 L19.46,22.43 L19.46,21.42 L15.53,21.42 L15.53,19.97 L18.77,19.97 L18.77,18.95 L15.53,18.95 L15.53,15.8 L14.47,15.8 L14.47,18.95 L11.16,18.95 L11.16,19.97 L14.47,19.97 L14.47,21.42 L10.54,21.42 L10.54,22.43 L14.47,22.43 L14.47,25.09 L15.53,25.09 Z M12.63,18.71 L13.6,18.22 C13.18,17.45 12.74,16.74 12.28,16.1 L11.33,16.56 C11.79,17.2 12.23,17.91 12.63,18.71 Z M17.32,18.74 C17.82,18.04 18.23,17.33 18.54,16.59 L17.62,16.14 C17.32,16.84 16.91,17.55 16.4,18.25 L17.32,18.74 Z" id="輸半" fill="#B9CFEF" fill-rule="nonzero"></path>
    </g>
</svg>