<?xml version="1.0" encoding="UTF-8"?>
<svg width="30px" height="30px" viewBox="0 0 30 30" version="1.1" xmlns="http://www.w3.org/2000/svg" xmlns:xlink="http://www.w3.org/1999/xlink">
    <title>icon_early_result_lose</title>
    <defs>
        <linearGradient x1="100%" y1="50%" x2="0%" y2="50%" id="linearGradient-1">
            <stop stop-color="#2A57A5" offset="0%"></stop>
            <stop stop-color="#4168AB" offset="26.7419764%"></stop>
            <stop stop-color="#2D4D8E" offset="57.2687922%"></stop>
            <stop stop-color="#5576B7" offset="80.4423564%"></stop>
            <stop stop-color="#4C6FA4" offset="100%"></stop>
        </linearGradient>
    </defs>
    <g id="icon_early_result_lose" stroke="none" stroke-width="1" fill="none" fill-rule="evenodd">
        <g id="编组">
            <rect id="矩形" fill="#D8D8D8" opacity="0" x="0" y="0" width="30" height="30"></rect>
            <path d="M25.75,0.5 L25.75,25.8900028 L15.0371221,29.4729535 L4.25,25.88924 L4.25,0.5 L25.75,0.5 Z" id="矩形" stroke="#6585C0" fill="url(#linearGradient-1)"></path>
            <rect id="矩形" fill="#254583" x="1.875" y="0" width="26.25" height="1.875"></rect>
            <path d="M10.7283457,17.0243785 L10.7283457,15.6155387 L7.89709566,15.6155387 L7.89709566,9.56581492 L6.54709566,9.56581492 L6.54709566,17.0243785 L10.7283457,17.0243785 Z M13.7283457,17.0554558 C14.1033457,17.0554558 14.4127207,16.9311464 14.6658457,16.6514503 C14.9189707,16.3717541 15.0408457,16.0299033 15.0408457,15.6155387 L15.0408457,12.8392956 C15.0408457,12.4249309 14.9189707,12.0830801 14.6658457,11.803384 C14.4127207,11.5236878 14.1033457,11.3890193 13.7283457,11.3890193 L12.1064707,11.3890193 C11.7314707,11.3890193 11.4220957,11.5236878 11.1689707,11.803384 C10.9158457,12.0830801 10.7939707,12.4249309 10.7939707,12.8392956 L10.7939707,15.6155387 C10.7939707,16.0299033 10.9158457,16.3717541 11.1689707,16.6514503 C11.4220957,16.9311464 11.7314707,17.0554558 12.1064707,17.0554558 L13.7283457,17.0554558 Z M13.4564707,15.8330801 L12.3595957,15.8330801 C12.2752207,15.8330801 12.2095957,15.8020028 12.1627207,15.7502072 C12.1158457,15.6984116 12.0877207,15.6258978 12.0877207,15.5326657 L12.0877207,12.9221685 C12.0877207,12.8289365 12.1158457,12.7564227 12.1627207,12.7046271 C12.2095957,12.6528315 12.2752207,12.6217541 12.3595957,12.6217541 L13.4564707,12.6217541 C13.5408457,12.6217541 13.6064707,12.6528315 13.6627207,12.7046271 C13.7189707,12.7564227 13.7470957,12.8289365 13.7470957,12.9221685 L13.7470957,15.5326657 C13.7470957,15.6258978 13.7189707,15.6984116 13.6627207,15.7502072 C13.6064707,15.8020028 13.5408457,15.8330801 13.4564707,15.8330801 Z M18.1720957,17.0658149 C18.5470957,17.0658149 18.8564707,16.9415055 19.1095957,16.6618094 C19.3627207,16.3821133 19.4845957,16.0402624 19.4845957,15.6258978 L19.4845957,14.9421961 C19.4845957,14.2688536 19.1189707,13.8648481 18.3783457,13.7301796 L16.9814707,13.4815608 C16.7939707,13.4504834 16.7002207,13.3468923 16.7002207,13.1707873 L16.7002207,12.8600138 C16.7002207,12.7667818 16.7283457,12.694268 16.7845957,12.6424724 C16.8408457,12.5906768 16.9064707,12.5595994 16.9908457,12.5595994 L17.7970957,12.5595994 C17.8814707,12.5595994 17.9470957,12.5906768 18.0033457,12.6424724 C18.0595957,12.694268 18.0877207,12.7667818 18.0877207,12.8600138 L18.0502207,13.1707873 L19.3439707,13.1707873 L19.3439707,12.8392956 C19.3439707,12.4249309 19.2220957,12.0830801 18.9689707,11.803384 C18.7158457,11.5236878 18.4064707,11.3890193 18.0314707,11.3890193 L16.7002207,11.3890193 C16.3252207,11.3890193 16.0158457,11.5236878 15.7627207,11.803384 C15.5095957,12.0830801 15.3877207,12.4249309 15.3877207,12.8392956 L15.3877207,13.4401243 C15.3877207,14.1134669 15.7533457,14.5174724 16.4939707,14.6521409 L17.8908457,14.9007597 C18.0783457,14.931837 18.1720957,15.0354282 18.1720957,15.2115331 L18.1720957,15.5430249 C18.1720957,15.6362569 18.1439707,15.7087707 18.0970957,15.7605663 C18.0502207,15.8123619 17.9845957,15.8434392 17.9002207,15.8434392 L16.9064707,15.8434392 C16.8220957,15.8434392 16.7564707,15.8123619 16.7095957,15.7605663 C16.6627207,15.7087707 16.6345957,15.6362569 16.6345957,15.5430249 L16.6345957,15.201174 L15.3408457,15.201174 L15.3408457,15.6258978 C15.3408457,16.0402624 15.4627207,16.3821133 15.7158457,16.6618094 C15.9689707,16.9415055 16.2783457,17.0658149 16.6533457,17.0658149 L18.1720957,17.0658149 Z M22.6064707,17.0554558 C22.9814707,17.0554558 23.2908457,16.9311464 23.5439707,16.6514503 C23.7970957,16.3717541 23.9189707,16.0299033 23.9189707,15.6155387 L23.9189707,15.2426105 L22.6252207,15.2426105 L22.6252207,15.553384 C22.6252207,15.646616 22.5970957,15.7191298 22.5408457,15.7709254 C22.4845957,15.822721 22.4189707,15.8537983 22.3345957,15.8537983 L21.3127207,15.8537983 C21.2283457,15.8537983 21.1627207,15.822721 21.1158457,15.7709254 C21.0689707,15.7191298 21.0408457,15.646616 21.0408457,15.553384 L21.0408457,14.6625 L23.9189707,14.6625 L23.9189707,12.8392956 C23.9189707,12.4249309 23.7970957,12.0830801 23.5439707,11.803384 C23.2908457,11.5236878 22.9814707,11.3890193 22.6064707,11.3890193 L21.0595957,11.3890193 C20.6845957,11.3890193 20.3752207,11.5236878 20.1220957,11.803384 C19.8689707,12.0830801 19.7470957,12.4249309 19.7470957,12.8392956 L19.7470957,15.6155387 C19.7470957,16.0299033 19.8689707,16.3717541 20.1220957,16.6514503 C20.3752207,16.9311464 20.6845957,17.0554558 21.0595957,17.0554558 L22.6064707,17.0554558 Z M22.6345957,13.6576657 L21.0502207,13.6576657 L21.0502207,12.8910912 C21.0502207,12.7978591 21.0783457,12.7253453 21.1252207,12.6735497 C21.1720957,12.6217541 21.2377207,12.5906768 21.3220957,12.5906768 L22.3439707,12.5906768 C22.4283457,12.5906768 22.4939707,12.6217541 22.5502207,12.6735497 C22.6064707,12.7253453 22.6345957,12.7978591 22.6345957,12.8910912 L22.6345957,13.6576657 Z" id="Lose" fill="#B9CFEF" fill-rule="nonzero"></path>
        </g>
    </g>
</svg>