<?xml version="1.0" encoding="UTF-8"?>
<svg width="30px" height="30px" viewBox="0 0 30 30" version="1.1" xmlns="http://www.w3.org/2000/svg" xmlns:xlink="http://www.w3.org/1999/xlink">
    <title>icon_early_result_lose</title>
    <defs>
        <linearGradient x1="100%" y1="50%" x2="0%" y2="50%" id="linearGradient-1">
            <stop stop-color="#2A57A5" offset="0%"></stop>
            <stop stop-color="#4168AB" offset="26.7419764%"></stop>
            <stop stop-color="#2D4D8E" offset="57.2687922%"></stop>
            <stop stop-color="#5576B7" offset="80.4423564%"></stop>
            <stop stop-color="#4C6FA4" offset="100%"></stop>
        </linearGradient>
    </defs>
    <g id="icon_early_result_lose" stroke="none" stroke-width="1" fill="none" fill-rule="evenodd">
        <g id="编组">
            <rect id="矩形" fill="#D8D8D8" opacity="0" x="0" y="0" width="30" height="30"></rect>
            <path d="M25.75,0.5 L25.75,25.8900028 L15.0371221,29.4729535 L4.25,25.88924 L4.25,0.5 L25.75,0.5 Z" id="矩形" stroke="#6585C0" fill="url(#linearGradient-1)"></path>
            <rect id="矩形" fill="#254583" x="1.875" y="0" width="26.25" height="1.875"></rect>
        </g>
        <path d="M12.24,19.176 L12.24,17.616 L13.86,17.616 L13.86,16.56 L12.24,16.56 L12.24,15.9 L13.668,15.9 L13.668,11.34 L14.208,12.156 C14.592,11.856 14.964,11.532 15.348,11.184 L15.348,11.784 L18.732,11.784 L18.732,11.16 C19.104,11.508 19.5,11.844 19.932,12.156 L20.592,11.172 C19.536,10.428 18.516,9.444 17.508,8.196 L16.596,8.196 C15.732,9.288 14.76,10.248 13.668,11.088 L13.668,10.86 L12.24,10.86 L12.24,10.224 L13.812,10.224 L13.812,9.168 L12.24,9.168 L12.24,8.22 L11.16,8.22 L11.16,9.168 L9.576,9.168 L9.576,10.224 L11.16,10.224 L11.16,10.86 L9.732,10.86 L9.732,15.9 L11.16,15.9 L11.16,16.56 L9.504,16.56 L9.504,17.616 L11.16,17.616 L11.16,19.176 L12.24,19.176 Z M18.312,10.752 L15.792,10.752 C16.224,10.32 16.644,9.84 17.052,9.324 C17.436,9.828 17.856,10.296 18.312,10.752 Z M11.244,12.936 L10.764,12.936 L10.764,11.868 L11.244,11.868 L11.244,12.936 Z M12.624,12.936 L12.132,12.936 L12.132,11.868 L12.624,11.868 L12.624,12.936 Z M18.96,19.176 C19.632,19.176 19.968,18.756 19.968,17.928 L19.968,12.396 L18.936,12.396 L18.936,17.664 C18.936,18.048 18.828,18.24 18.624,18.24 C18.36,18.24 18.084,18.216 17.784,18.18 L18.012,19.176 L18.96,19.176 Z M15.216,19.236 L15.216,16.896 L16.02,16.896 L16.02,17.904 C16.02,18.168 15.936,18.312 15.768,18.312 L15.372,18.264 L15.636,19.212 L16.08,19.212 C16.728,19.212 17.052,18.852 17.052,18.132 L17.052,12.504 L14.184,12.504 L14.184,19.236 L15.216,19.236 Z M18.48,17.232 L18.48,12.828 L17.496,12.828 L17.496,17.232 L18.48,17.232 Z M16.02,14.28 L15.216,14.28 L15.216,13.512 L16.02,13.512 L16.02,14.28 Z M12.624,14.892 L12.132,14.892 L12.132,13.848 L12.624,13.848 L12.624,14.892 Z M11.244,14.892 L10.764,14.892 L10.764,13.848 L11.244,13.848 L11.244,14.892 Z M16.02,15.972 L15.216,15.972 L15.216,15.192 L16.02,15.192 L16.02,15.972 Z" id="輸" fill="#B9CFEF" fill-rule="nonzero"></path>
    </g>
</svg>