<?xml version="1.0" encoding="UTF-8"?>
<svg width="30px" height="30px" viewBox="0 0 30 30" version="1.1" xmlns="http://www.w3.org/2000/svg" xmlns:xlink="http://www.w3.org/1999/xlink">
    <!-- Generator: Sketch 55.2 (78181) - https://sketchapp.com -->
    <title>个人主页/输_slice</title>
    <desc>Created with Sketch.</desc>
    <defs>
        <linearGradient x1="100%" y1="50%" x2="0%" y2="50%" id="linearGradient-1">
            <stop stop-color="#2A57A5" offset="0%"></stop>
            <stop stop-color="#4168AB" offset="26.7419764%"></stop>
            <stop stop-color="#2D4D8E" offset="57.2687922%"></stop>
            <stop stop-color="#5576B7" offset="80.4423564%"></stop>
            <stop stop-color="#4C6FA4" offset="100%"></stop>
        </linearGradient>
    </defs>
    <g id="切图" stroke="none" stroke-width="1" fill="none" fill-rule="evenodd">
        <g id="画板" transform="translate(-288.000000, -565.000000)">
            <g id="ico/进入备份-7" transform="translate(288.000000, 565.000000)">
                <rect id="矩形" fill="#D8D8D8" fill-rule="evenodd" opacity="0" x="0" y="0" width="30" height="30"></rect>
                <path d="M4.25,0.5 L4.25,25.88924 L15.0371221,29.4729535 L25.75,25.8900028 L25.75,0.5 L4.25,0.5 Z" id="矩形" stroke="#6585C0" stroke-width="1" fill="url(#linearGradient-1)" fill-rule="evenodd"></path>
                <rect id="矩形" fill="#254583" fill-rule="evenodd" x="1.875" y="0" width="26.25" height="1.875"></rect>
                <path d="M11.8275,12.64875 L12.82875,12.64875 L12.82875,14.20125 L13.77375,14.20125 L13.77375,15.1575 L12.82875,15.1575 L12.82875,16.40625 C13.16625,16.3275 13.4925,16.24875 13.785,16.17 L13.785,17.17125 C13.47,17.26125 13.14375,17.34 12.82875,17.43 L12.82875,19.87125 L11.8275,19.87125 L11.8275,17.655 C11.23125,17.7675 10.6125,17.88 9.96,17.97 L9.825,16.92375 C10.545,16.83375 11.20875,16.7325 11.8275,16.62 L11.8275,15.1575 L10.185,15.1575 L9.96,14.2575 C10.23,13.65 10.48875,12.89625 10.725,11.985 L9.915,11.985 L9.915,10.9725 L10.96125,10.9725 C11.0625,10.48875 11.16375,9.9825 11.25375,9.465 L12.22125,9.69 C12.13125,10.14 12.0525,10.5675 11.9625,10.9725 L13.83,10.9725 L13.83,11.985 L11.715,11.985 C11.49,12.80625 11.25375,13.54875 11.00625,14.20125 L11.8275,14.20125 L11.8275,12.64875 Z M15.2475,12.26625 C14.85375,12.62625 14.46,12.9525 14.06625,13.25625 L13.48125,12.3675 C14.6175,11.5575 15.63,10.60125 16.53,9.49875 L17.3175,9.49875 C18.285,10.68 19.26375,11.61375 20.27625,12.31125 L19.71375,13.155 C19.2975,12.85125 18.90375,12.525 18.52125,12.1875 L18.52125,12.84 L15.2475,12.84 L15.2475,12.26625 Z M18.285,11.9625 C17.80125,11.49 17.35125,10.995 16.92375,10.46625 C16.47375,11.00625 16.0125,11.5125 15.5625,11.9625 L18.285,11.9625 Z M16.04625,19.7925 L15.55125,19.7925 L15.315,18.92625 L15.75375,18.96 C15.9675,18.96 16.08,18.83625 16.08,18.6 L16.08,17.79 L15.0675,17.79 L15.0675,19.87125 L14.145,19.87125 L14.145,13.56 L16.99125,13.56 L16.99125,18.79125 C16.99125,19.455 16.67625,19.7925 16.04625,19.7925 Z M15.0675,16.98 L16.08,16.98 L16.08,16.11375 L15.0675,16.11375 L15.0675,16.98 Z M15.0675,15.30375 L16.08,15.30375 L16.08,14.415 L15.0675,14.415 L15.0675,15.30375 Z M17.46375,13.8975 L18.27375,13.8975 L18.27375,17.98125 L17.46375,17.98125 L17.46375,13.8975 Z M18.8025,19.815 L17.835,19.815 L17.61,18.88125 C17.91375,18.92625 18.195,18.94875 18.465,18.94875 C18.6675,18.94875 18.78,18.8025 18.78,18.51 L18.78,13.4475 L19.71375,13.4475 L19.71375,18.735 C19.71375,19.455 19.41,19.815 18.8025,19.815 Z" id="输" fill="#B9CFEF" fill-rule="nonzero"></path>
            </g>
        </g>
    </g>
</svg>