<?xml version="1.0" encoding="UTF-8"?>
<svg width="30px" height="30px" viewBox="0 0 30 30" version="1.1" xmlns="http://www.w3.org/2000/svg" xmlns:xlink="http://www.w3.org/1999/xlink">
    <title>icon_early_result_halflose</title>
    <defs>
        <linearGradient x1="100%" y1="50%" x2="0%" y2="50%" id="linearGradient-1">
            <stop stop-color="#2A57A5" offset="0%"></stop>
            <stop stop-color="#4168AB" offset="26.7419764%"></stop>
            <stop stop-color="#2D4D8E" offset="57.2687922%"></stop>
            <stop stop-color="#5576B7" offset="80.4423564%"></stop>
            <stop stop-color="#4C6FA4" offset="100%"></stop>
        </linearGradient>
    </defs>
    <g id="icon_early_result_halflose" stroke="none" stroke-width="1" fill="none" fill-rule="evenodd">
        <g id="编组">
            <rect id="矩形" fill="#D8D8D8" opacity="0" x="0" y="0" width="30" height="30"></rect>
            <path d="M25.75,0.5 L25.75,25.8900028 L15.0371221,29.4729535 L4.25,25.88924 L4.25,0.5 L25.75,0.5 Z" id="矩形" stroke="#6585C0" fill="url(#linearGradient-1)"></path>
            <rect id="矩形" fill="#254583" x="1.875" y="0" width="26.25" height="1.875"></rect>
            <path d="M17.2389034,16.65 C17.6139034,16.65 17.9232784,16.771875 18.1764034,17.025 C18.4295284,17.278125 18.5514034,17.5875 18.5514034,17.9625 L18.5514034,17.9625 L18.5514034,18.2625 L17.2576534,18.2625 L17.2951534,17.98125 C17.2951534,17.896875 17.2670284,17.83125 17.2107784,17.784375 C17.1545284,17.7375 17.0889034,17.709375 17.0045284,17.709375 L17.0045284,17.709375 L16.1982784,17.709375 C16.1139034,17.709375 16.0482784,17.7375 15.9920284,17.784375 C15.9357784,17.83125 15.9076534,17.896875 15.9076534,17.98125 L15.9076534,17.98125 L15.9076534,18.2625 C15.9076534,18.421875 16.0014034,18.515625 16.1889034,18.54375 L16.1889034,18.54375 L17.5857784,18.76875 C18.3264034,18.890625 18.6920284,19.25625 18.6920284,19.865625 L18.6920284,19.865625 L18.6920284,20.484375 C18.6920284,20.859375 18.5701534,21.16875 18.3170284,21.421875 C18.0639034,21.675 17.7545284,21.7875 17.3795284,21.7875 L17.3795284,21.7875 L15.8607784,21.7875 C15.4857784,21.7875 15.1764034,21.675 14.9232784,21.421875 C14.6701534,21.16875 14.5482784,20.859375 14.5482784,20.484375 L14.5482784,20.484375 L14.5482784,20.1 L15.8420284,20.1 L15.8420284,20.409375 C15.8420284,20.49375 15.8701534,20.559375 15.9170284,20.60625 C15.9639034,20.653125 16.0295284,20.68125 16.1139034,20.68125 L16.1139034,20.68125 L17.1076534,20.68125 C17.1920284,20.68125 17.2576534,20.653125 17.3045284,20.60625 C17.3514034,20.559375 17.3795284,20.49375 17.3795284,20.409375 L17.3795284,20.409375 L17.3795284,20.109375 C17.3795284,19.95 17.2857784,19.85625 17.0982784,19.828125 L17.0982784,19.828125 L15.7014034,19.603125 C14.9607784,19.48125 14.5951534,19.115625 14.5951534,18.50625 L14.5951534,18.50625 L14.5951534,17.9625 C14.5951534,17.5875 14.7170284,17.278125 14.9701534,17.025 C15.2232784,16.771875 15.5326534,16.65 15.9076534,16.65 L15.9076534,16.65 Z M12.9357784,16.65 C13.3107784,16.65 13.6201534,16.771875 13.8732784,17.025 C14.0902427,17.2419643 14.2107784,17.5002551 14.2407894,17.8057762 L14.2482784,17.9625 L14.2482784,20.475 C14.2482784,20.85 14.1264034,21.159375 13.8732784,21.4125 C13.6563141,21.6294643 13.3980233,21.7431122 13.0925022,21.7711552 L12.9357784,21.778125 L11.3139034,21.778125 C10.9389034,21.778125 10.6295284,21.665625 10.3764034,21.4125 C10.1594391,21.1955357 10.0389034,20.9372449 10.0088925,20.6317238 L10.0014034,20.475 L10.0014034,17.9625 C10.0014034,17.5875 10.1232784,17.278125 10.3764034,17.025 C10.5933677,16.8080357 10.8516585,16.6875 11.1571797,16.6574891 L11.3139034,16.65 L12.9357784,16.65 Z M21.8139034,16.65 C22.1889034,16.65 22.4982784,16.771875 22.7514034,17.025 C22.9683677,17.2419643 23.0889034,17.5002551 23.1189144,17.8057762 L23.1264034,17.9625 L23.1264034,19.6125 L20.2482784,19.6125 L20.2482784,20.41875 C20.2482784,20.503125 20.2764034,20.56875 20.3232784,20.615625 C20.3545284,20.646875 20.3941118,20.6697917 20.4420284,20.6815972 L20.5201534,20.690625 L21.5420284,20.690625 C21.6264034,20.690625 21.6920284,20.6625 21.7482784,20.615625 C21.7904659,20.5804687 21.8168331,20.5347656 21.82738,20.4785156 L21.8326534,20.41875 L21.8326534,20.1375 L23.1264034,20.1375 L23.1264034,20.475 C23.1264034,20.85 23.0045284,21.159375 22.7514034,21.4125 C22.5344391,21.6294643 22.2761483,21.7431122 21.9706272,21.7711552 L21.8139034,21.778125 L20.2670284,21.778125 C19.8920284,21.778125 19.5826534,21.665625 19.3295284,21.4125 C19.1125641,21.1955357 18.9920284,20.9372449 18.9620175,20.6317238 L18.9545284,20.475 L18.9545284,17.9625 C18.9545284,17.5875 19.0764034,17.278125 19.3295284,17.025 C19.5464927,16.8080357 19.8047835,16.6875 20.1103047,16.6574891 L20.2670284,16.65 L21.8139034,16.65 Z M7.87710057,15 L7.87710057,20.475 L9.96390342,20.475 L9.96390342,21.75 L6.52710057,21.75 L6.52710057,15 L7.87710057,15 Z M12.6639034,17.765625 L11.5670284,17.765625 C11.4826534,17.765625 11.4170284,17.79375 11.3701534,17.840625 C11.3389034,17.871875 11.3159868,17.9114583 11.3041812,17.959375 L11.2951534,18.0375 L11.2951534,20.4 C11.2951534,20.484375 11.3232784,20.55 11.3701534,20.596875 C11.4014034,20.628125 11.4409868,20.6510417 11.4889034,20.6628472 L11.5670284,20.671875 L12.6639034,20.671875 C12.7482784,20.671875 12.8139034,20.64375 12.8701534,20.596875 C12.9123409,20.5617187 12.9387081,20.5160156 12.949255,20.4597656 L12.9545284,20.4 L12.9545284,18.0375 C12.9545284,17.953125 12.9264034,17.8875 12.8701534,17.840625 C12.8139034,17.79375 12.7482784,17.765625 12.6639034,17.765625 Z M21.5514034,17.7375 L20.5295284,17.7375 C20.4451534,17.7375 20.3795284,17.765625 20.3326534,17.8125 C20.3014034,17.84375 20.2784868,17.8833333 20.2666812,17.93125 L20.2576534,18.009375 L20.2576534,18.703125 L21.8420284,18.703125 L21.8420284,18.009375 C21.8420284,17.925 21.8139034,17.859375 21.7576534,17.8125 C21.7014034,17.765625 21.6357784,17.7375 21.5514034,17.7375 Z" id="形状结合" fill="#B9CFEF" fill-rule="nonzero"></path>
            <path d="M14.878125,8.00943983 C15.253125,8.00943983 15.571875,8.14068983 15.834375,8.40318983 C16.059375,8.62818983 16.1879464,8.89451636 16.2200893,9.20216943 L16.228125,9.35943983 L16.228125,13.1094398 L14.934375,13.1094398 L14.934375,12.4531898 L14.746875,12.6313148 C14.49375,12.8750648 14.278125,13.0250648 14.1,13.0906898 C14.01875,13.1094398 13.9375,13.1240232 13.85625,13.1316621 L13.734375,13.1375648 L13.340625,13.1375648 C12.965625,13.1375648 12.65625,13.0250648 12.403125,12.7719398 C12.1861607,12.5549755 12.065625,12.2966847 12.0356141,11.9911636 L12.028125,11.8344398 L12.028125,11.3375648 C12.028125,10.9344398 12.15,10.6156898 12.384375,10.3813148 C12.5852679,10.180422 12.8481505,10.0621822 13.173023,10.0324992 L13.340625,10.0250648 L13.565625,10.0250648 C13.918125,10.0250648 14.282625,10.0610648 14.654325,10.1330648 L14.934375,10.1938148 L14.934375,9.39693983 C14.934375,9.31256483 14.90625,9.24693983 14.859375,9.20006483 C14.828125,9.16881483 14.7885417,9.14589817 14.740625,9.13409261 L14.6625,9.12506483 L13.78125,9.12506483 C13.696875,9.12506483 13.63125,9.15318983 13.584375,9.20006483 C13.553125,9.23131483 13.5302083,9.27089817 13.5184028,9.31881483 L13.509375,9.39693983 L13.509375,9.61256483 L12.215625,9.61256483 L12.215625,9.35943983 C12.215625,8.98443983 12.346875,8.66568983 12.609375,8.40318983 C12.834375,8.17818983 13.1007015,8.04961841 13.4083546,8.01747555 L13.565625,8.00943983 L14.878125,8.00943983 Z M8.79375,6.02193983 L8.79375,8.70318983 L8.98125,8.52506483 C9.346875,8.17818983 9.703125,8.00943983 10.05,8.00943983 L10.05,8.00943983 L10.36875,8.00943983 C10.74375,8.00943983 11.053125,8.13131483 11.30625,8.38443983 C11.559375,8.63756483 11.68125,8.94693983 11.68125,9.32193983 L11.68125,9.32193983 L11.68125,13.1094398 L10.3875,13.1094398 L10.3875,9.47193983 C10.3875,9.27506483 10.284375,9.17193983 10.0875,9.17193983 L10.0875,9.17193983 L9.91875,9.17193983 C9.571875,9.17193983 9.2625,9.25631483 8.98125,9.42506483 L8.98125,9.42506483 L8.79375,9.53756483 L8.79375,13.1094398 L7.5,13.1094398 L7.5,6.02193983 L8.79375,6.02193983 Z M18.121875,6.02193983 L18.121875,13.1094398 L16.828125,13.1094398 L16.828125,6.02193983 L18.121875,6.02193983 Z M21.684375,6.02193983 L21.684375,7.12818983 L20.79375,7.13756483 C20.709375,7.13756483 20.64375,7.16568983 20.5875,7.21256483 C20.53125,7.25943983 20.503125,7.32506483 20.503125,7.40943983 L20.503125,7.40943983 L20.503125,8.04693983 L21.684375,8.04693983 L21.684375,9.11568983 L20.503125,9.11568983 L20.503125,13.1094398 L19.209375,13.1094398 L19.209375,9.11568983 L18.39375,9.11568983 L18.39375,8.04693983 L19.209375,8.04693983 L19.209375,7.33443983 C19.209375,6.95943983 19.33125,6.65006483 19.584375,6.39693983 C19.8375,6.14381483 20.146875,6.02193983 20.521875,6.02193983 L20.521875,6.02193983 L21.684375,6.02193983 Z M13.59375,10.9156898 C13.509375,10.9156898 13.44375,10.9438148 13.396875,11.0000648 C13.365625,11.0375648 13.3427083,11.0792315 13.3309028,11.1278426 L13.321875,11.2063148 L13.321875,11.6844398 C13.321875,11.8531898 13.3976403,11.9530623 13.5432671,11.9781534 L13.621875,11.9844398 L13.865625,11.9844398 C14.113125,11.9844398 14.348625,11.9304398 14.576925,11.8224398 L14.746875,11.7313148 L14.934375,11.6188148 L14.934375,10.9250648 L13.59375,10.9156898 Z" id="形状结合" fill="#B9CFEF" fill-rule="nonzero"></path>
        </g>
    </g>
</svg>