<?xml version="1.0" encoding="UTF-8"?>
<svg width="42px" height="42px" viewBox="0 0 42 42" version="1.1" xmlns="http://www.w3.org/2000/svg" xmlns:xlink="http://www.w3.org/1999/xlink">
    <!-- Generator: Sketch 55.2 (78181) - https://sketchapp.com -->
    <title>icon_message_active_normal</title>
    <desc>Created with Sketch.</desc>
    <g id="icon_message_active_normal" stroke="none" stroke-width="1" fill="none" fill-rule="evenodd">
        <g id="个人主页/消息/优惠活动">
            <path d="M21,0.5 C9.67816263,0.5 0.5,9.67816263 0.5,21 C0.5,32.3218374 9.67816263,41.5 21,41.5 C32.3218374,41.5 41.5,32.3218374 41.5,21 C41.5,9.67816263 32.3218374,0.5 21,0.5 Z" id="矩形" stroke="#F2F2F2" stroke-width="1"></path>
            <path d="M30.5609406,20.3872536 L21.5935571,11.4198701 C21.3132588,11.1396627 20.9294699,10.9879895 20.533342,11.0008737 L12.7100445,11.2535618 C11.9544922,11.2779263 11.3476706,11.8847479 11.3233062,12.6403002 L11.0702596,20.4635977 C11.057505,20.859703 11.2091585,21.2434424 11.489256,21.5238127 L20.4566395,30.4911962 C21.017433,31.048955 21.9234445,31.048955 22.4842381,30.4911962 L30.5605822,22.4148522 C31.1186363,21.8542382 31.1187965,20.9480648 30.5609406,20.3872536 L30.5609406,20.3872536 Z M16.3043098,16.2345654 C15.9420501,16.596761 15.4140794,16.7381803 14.919279,16.6055521 C14.4244786,16.4729239 14.0380205,16.0863975 13.9054797,15.5915736 C13.7729389,15.0967498 13.9144516,14.568804 14.2767112,14.2066084 C14.8367161,13.6467025 15.7445831,13.6467828 16.304489,14.2067876 C16.8643949,14.7667925 16.8643146,15.6746595 16.3043098,16.2345654 L16.3043098,16.2345654 Z M27.839872,21.2915812 C27.5595366,21.5704399 27.1065874,21.5704399 26.826252,21.2915812 L21.7570763,16.222764 C21.4782177,15.9424286 21.4782177,15.4894794 21.7570763,15.209144 C22.0374118,14.9302853 22.490361,14.9302853 22.7706964,15.209144 L27.839872,20.2779612 C28.1183667,20.5568142 28.1183667,21.0127282 27.839872,21.2915812 L27.839872,21.2915812 Z" id="形状" fill="#5078FF" fill-rule="nonzero" transform="translate(21.024372, 20.954815) scale(-1, 1) translate(-21.024372, -20.954815) "></path>
        </g>
    </g>
</svg>