<?xml version="1.0" encoding="UTF-8"?>
<svg width="42px" height="42px" viewBox="0 0 42 42" version="1.1" xmlns="http://www.w3.org/2000/svg" xmlns:xlink="http://www.w3.org/1999/xlink">
    <!-- Generator: Sketch 63.1 (92452) - https://sketch.com -->
    <title>icon_dynamic_match_normal</title>
    <desc>Created with Sketch.</desc>
    <g id="icon_dynamic_match_normal" stroke="none" stroke-width="1" fill="none" fill-rule="evenodd">
        <g id="个人主页/消息/赛事公告">
            <path d="M21,0.5 C15.3390813,0.5 10.2140813,2.79454066 6.50431099,6.50431099 C2.79454066,10.2140813 0.5,15.3390813 0.5,21 C0.5,26.6609187 2.79454066,31.7859187 6.50431099,35.495689 C10.2140813,39.2054593 15.3390813,41.5 21,41.5 C26.6609187,41.5 31.7859187,39.2054593 35.495689,35.495689 C39.2054593,31.7859187 41.5,26.6609187 41.5,21 C41.5,15.3390813 39.2054593,10.2140813 35.495689,6.50431099 C31.7859187,2.79454066 26.6609187,0.5 21,0.5 Z" id="矩形" stroke="#F2F2F2" stroke-width="1"></path>
            <g id="比赛状态/动画直播" transform="translate(11.139535, 10.139535)" fill="#5078FF" fill-rule="evenodd">
                <path d="M16.5387834,2.62500358 C17.1974353,2.62613934 17.8282874,2.92162816 18.2906299,3.44556571 C18.7529724,3.96950327 19.0083465,4.67830711 18.9997918,5.4138806 L18.9997918,5.4138806 L18.9997918,15.5861177 C19.0008562,16.3261367 18.7381195,17.0361885 18.2696059,17.5594616 C17.8010923,18.0827347 17.1653461,18.3761799 16.5027686,18.3749947 L16.5027686,18.3749947 L2.49702961,18.3749947 C1.83445216,18.3761799 1.19870592,18.0827347 0.73019231,17.5594616 C0.261678697,17.0361885 -0.00105796114,16.3261367 3.20197983e-06,15.5861177 L3.20197983e-06,15.5861177 L3.20197983e-06,5.4138806 C-0.00105796114,4.67386158 0.261678697,3.9638098 0.73019231,3.44053665 C1.19870592,2.91726351 1.83445216,2.62381839 2.49702961,2.62500358 L2.49702961,2.62500358 Z M16.1266145,3.48312206 L2.92120341,3.48312206 C1.74728967,3.49048576 0.798512571,4.55414646 0.796332716,5.8652848 L0.796332716,5.8652848 L0.796332716,15.1391828 C0.807186622,16.4374187 1.74682046,17.4868763 2.90919849,17.4989988 L2.90919849,17.4989988 L16.1146096,17.4989988 C17.2769876,17.4868763 18.2166214,16.4374187 18.2274753,15.1391828 L18.2274753,15.1391828 L18.2395144,15.1347135 L18.2395144,5.8652848 C18.2426721,5.2362782 18.021732,4.63168242 17.6253767,4.18480936 C17.2290214,3.73793629 16.6898018,3.48548561 16.1266145,3.48312206 L16.1266145,3.48312206 Z M9.16376138,4.30101284 L9.16376138,7.81839005 C7.98194128,8.04369969 7.11504472,9.18333466 7.10691855,10.5223459 C7.09037234,11.8450405 7.9398919,12.9836134 9.10773842,13.2039549 L9.10773842,13.2039549 L9.10773842,16.757087 L2.90119522,16.757087 C2.11156081,16.7497102 1.47617397,16.0300647 1.48058999,15.1481215 L1.48058999,15.1481215 L1.48058999,14.0084377 L2.98122801,14.0084377 C3.71184066,14.0059835 4.3035734,13.3450894 4.30577075,12.5290833 L4.30577075,12.5290833 L4.30577075,8.50666973 C4.30577075,7.68717653 3.71096117,7.02284604 2.97722636,7.02284604 L2.97722636,7.02284604 L1.48058999,7.02284604 L1.48058999,5.88763153 C1.48498611,5.01339727 2.1184479,4.30589694 2.90119522,4.30101284 L2.90119522,4.30101284 L9.16376138,4.30101284 Z M16.1146096,4.27866609 C16.4909112,4.27265432 16.8535461,4.43603536 17.1207855,4.73198721 C17.3880249,5.02793906 17.5373807,5.4315574 17.5352154,5.85187674 L17.5352154,5.85187674 L17.5352154,7.01390734 L16.1146096,7.01390734 C15.763319,7.01390734 15.4264163,7.16976744 15.1780164,7.44720019 C14.9296164,7.72463295 14.7900668,8.10091252 14.7900668,8.49326168 L14.7900668,8.49326168 L14.7900668,12.5156753 C14.7900668,13.3327001 15.3830848,13.9950296 16.1146096,13.9950296 L16.1146096,13.9950296 L17.5111818,13.9950296 L17.5111818,15.1570602 C17.5089976,16.0182294 16.8856497,16.7164286 16.1146096,16.7213322 L16.1146096,16.7213322 L9.83603684,16.7213322 L9.83603684,13.2263017 C11.0226389,13.0100674 11.8940333,11.8651616 11.8940333,10.5223459 C11.8940333,9.17953009 11.0226389,8.03462435 9.83603684,7.81839005 L9.83603684,7.81839005 L9.83603684,4.27866609 Z M2.97722636,7.77369657 C3.32926873,7.77860394 3.61171331,8.10005011 3.60949854,8.49326168 L3.60949854,8.49326168 L3.60949854,12.5156753 C3.60965136,12.909449 3.32962656,13.2321002 2.97722636,13.2441791 L2.97722636,13.2441791 L1.48061311,13.2441791 L1.48061311,7.77369657 Z M17.5351917,7.77369657 L17.5351917,13.217363 L16.1146096,13.217363 C15.7656847,13.2124987 15.4845043,12.8964664 15.4823505,12.5067366 L15.4823505,12.5067366 L15.4823505,8.48432298 C15.4845043,8.09459312 15.7656847,7.77856087 16.1146096,7.77369657 L16.1146096,7.77369657 L17.5351917,7.77369657 Z M9.10773842,8.59158734 L9.10773842,12.4084109 C8.30820259,12.2078109 7.73983246,11.4152379 7.73917763,10.4999991 C7.73983246,9.58476033 8.30820259,8.79218739 9.10773842,8.59158734 L9.10773842,8.59158734 Z M9.87205161,8.59158734 C10.6779479,8.78495717 11.2543055,9.57937696 11.2566189,10.4999991 C11.2468684,11.4176441 10.6737985,12.2075324 9.87205161,12.4084109 L9.87205161,12.4084109 Z"></path>
            </g>
        </g>
    </g>
</svg>