<?xml version="1.0" encoding="UTF-8"?>
<svg width="42px" height="42px" viewBox="0 0 42 42" version="1.1" xmlns="http://www.w3.org/2000/svg" xmlns:xlink="http://www.w3.org/1999/xlink">
    <!-- Generator: Sketch 55.2 (78181) - https://sketchapp.com -->
    <title>个人主页/消息已读_slice</title>
    <desc>Created with Sketch.</desc>
    <g id="切图" stroke="none" stroke-width="1" fill="none" fill-rule="evenodd">
        <g id="画板" transform="translate(-308.000000, -579.000000)">
            <g id="个人主页/消息已读" transform="translate(308.000000, 579.000000)">
                <g id="个人主页/系统管理员">
                    <path d="M21,0.5 C9.67816263,0.5 0.5,9.67816263 0.5,21 C0.5,32.3218374 9.67816263,41.5 21,41.5 C32.3218374,41.5 41.5,32.3218374 41.5,21 C41.5,9.67816263 32.3218374,0.5 21,0.5 Z" id="矩形" stroke="#F2F2F2"></path>
                    <g id="形状结合-2" transform="translate(11.139535, 10.139535)" fill="#5078FF">
                        <path d="M16.7857143,14.5714286 L18,14.5714286 C18.5522847,14.5714286 19,15.0191438 19,15.5714286 L19,16 C19,16.5522847 18.5522847,17 18,17 L1,17 C0.44771525,17 6.76353751e-17,16.5522847 0,16 L0,15.5714286 C-6.76353751e-17,15.0191438 0.44771525,14.5714286 1,14.5714286 L2.21428571,14.5714286 L2.21428571,8.5 C2.21428571,4.88993308 4.83991951,1.89311579 8.28571429,1.31502096 L8.28571429,1.21428571 C8.28571429,0.543654232 8.82936852,7.27608081e-12 9.5,7.27595761e-12 C10.1706315,7.27583442e-12 10.7142857,0.543654232 10.7142857,1.21428571 L10.7142857,1.31502096 C14.1600805,1.89311579 16.7857143,4.88993308 16.7857143,8.5 L16.7857143,14.5714286 Z M6.64644661,18.4601551 L11.6464466,18.4601551 C11.6464466,19.5647246 10.7510161,20.4601551 9.64644661,20.4601551 L8.64644661,20.4601551 C7.54187711,20.4601551 6.64644661,19.5647246 6.64644661,18.4601551 Z" id="形状结合"></path>
                    </g>
                </g>
            </g>
        </g>
    </g>
</svg>