<?xml version="1.0" encoding="UTF-8"?>
<svg width="16px" height="16px" viewBox="0 0 16 16" version="1.1" xmlns="http://www.w3.org/2000/svg" xmlns:xlink="http://www.w3.org/1999/xlink">
    <!-- Generator: Sketch 55.2 (78181) - https://sketchapp.com -->
    <title>ico/个人主页/右箭头_slice</title>
    <desc>Created with Sketch.</desc>
    <g id="切图" stroke="none" stroke-width="1" fill="none" fill-rule="evenodd" opacity="0.5">
        <g id="画板" transform="translate(-329.000000, -24.000000)">
            <g id="ico/进入" transform="translate(329.000000, 24.000000)">
                <path d="M12.7656854,4.23431458 C12.9104569,4.3790861 13,4.5790861 13,4.8 L13,11.2 C13,11.6418278 12.6418278,12 12.2,12 C11.7581722,12 11.4,11.6418278 11.4,11.2 L11.4,5.6 L5.8,5.6 C5.3581722,5.6 5,5.2418278 5,4.8 C5,4.3581722 5.3581722,4 5.8,4 L12.2,4 C12.4209139,4 12.6209139,4.08954305 12.7656854,4.23431458 Z" id="形状结合" fill="#19263B" opacity="0.300000012" transform="translate(9.000000, 8.000000) rotate(-315.000000) translate(-9.000000, -8.000000) "></path>
                <rect id="矩形" fill="#D8D8D8" opacity="0" x="0" y="0" width="16" height="16"></rect>
            </g>
        </g>
    </g>
</svg>