<?xml version="1.0" encoding="UTF-8"?>
<svg width="16px" height="16px" viewBox="0 0 16 16" version="1.1" xmlns="http://www.w3.org/2000/svg" xmlns:xlink="http://www.w3.org/1999/xlink">
    <!-- Generator: Sketch 55.2 (78181) - https://sketchapp.com -->
    <title>投注单/提交失败_slice</title>
    <desc>Created with Sketch.</desc>
    <g id="切图" stroke="none" stroke-width="1" fill="none" fill-rule="evenodd">
        <g id="画板" transform="translate(-77.000000, -897.000000)">
            <g id="ico/失败" transform="translate(77.000000, 897.000000)">
                <path d="M8,16 C3.581722,16 0,12.418278 0,8 C0,3.581722 3.581722,0 8,0 C12.418278,0 16,3.581722 16,8 C16,12.418278 12.418278,16 8,16 Z M8,7.15192822 L5.27210766,4.42403589 C5.03791911,4.18984733 4.65822444,4.18984733 4.42403589,4.42403589 C4.18984733,4.65822444 4.18984733,5.03791911 4.42403589,5.27210766 L7.15192822,8 L4.42403589,10.7278923 C4.18984733,10.9620809 4.18984733,11.3417756 4.42403589,11.5759641 C4.65822444,11.8101527 5.03791911,11.8101527 5.27210766,11.5759641 L8,8.84807178 L10.7278923,11.5759641 C10.9620809,11.8101527 11.3417756,11.8101527 11.5759641,11.5759641 C11.8101527,11.3417756 11.8101527,10.9620809 11.5759641,10.7278923 L8.84807178,8 L11.5759641,5.27210766 C11.8101527,5.03791911 11.8101527,4.65822444 11.5759641,4.42403589 C11.3417756,4.18984733 10.9620809,4.18984733 10.7278923,4.42403589 L8,7.15192822 Z" id="形状结合" fill="#F05050"></path>
                <rect id="矩形" fill="#D8D8D8" opacity="0" x="0" y="0" width="16" height="16"></rect>
            </g>
        </g>
    </g>
</svg>