<?xml version="1.0" encoding="UTF-8"?>
<svg width="40px" height="40px" viewBox="0 0 40 40" version="1.1" xmlns="http://www.w3.org/2000/svg" xmlns:xlink="http://www.w3.org/1999/xlink">
    <!-- Generator: Sketch 55.2 (78181) - https://sketchapp.com -->
    <title>个人主页/转入_slice</title>
    <desc>Created with Sketch.</desc>
    <g id="切图" stroke="none" stroke-width="1" fill="none" fill-rule="evenodd">
        <g id="画板" transform="translate(-314.000000, -638.000000)">
            <g id="个人主页/转入" transform="translate(314.000000, 638.000000)">
                <circle id="椭圆形" fill="#FF4000" cx="20" cy="20" r="20"></circle>
                <g id="ico/转账/转入" transform="translate(8.000000, 8.000000)" fill="#FFFFFF">
                    <g id="编组" transform="translate(1.090909, 1.090909)">
                        <polygon id="路径" fill-rule="nonzero" opacity="0.400000006" points="1.09090909 4.76072727 11.7277091 0 14.1818182 4.76072727 5.18138182 8.72727273"></polygon>
                        <polygon id="路径备份" fill-rule="nonzero" opacity="0.400000006" points="5.45454545 5.85163636 16.0913455 1.09090909 18.5454545 5.85163636 9.54501818 9.81818182"></polygon>
                        <path d="M20.0727273,8.72727273 L16.5818182,8.72727273 C16.1188949,8.72727273 15.6749317,8.9111683 15.3475954,9.23850453 C15.0202592,9.56584075 14.8363636,10.0098039 14.8363636,10.4727273 L14.8363636,15.7090909 C14.8363636,16.6730788 15.6178303,17.4545455 16.5818182,17.4545455 L20.0727273,17.4545455 L20.0727273,20.0727273 C20.0727273,21.0367152 19.2912607,21.8181818 18.3272727,21.8181818 L1.74545455,21.8181818 C0.781466618,21.8181818 -2.91144886e-12,21.0367152 -2.91144886e-12,20.0727273 L-2.91144886e-12,6.10909091 C-2.91144886e-12,5.14510298 0.781466618,4.36363636 1.74545455,4.36363636 L18.3272727,4.36363636 C18.7901961,4.36363636 19.2341592,4.54753194 19.5614955,4.87486816 C19.8888317,5.20220439 20.0727273,5.64616758 20.0727273,6.10909091 L20.0727273,8.72727273 Z M7.63636364,13.0909091 L4.36363636,13.0909091 L8.72727273,17.4545455 L13.0909091,13.0909091 L9.81818182,13.0909091 L9.81818182,8.72727273 L7.63636364,8.72727273 L7.63636364,13.0909091 Z" id="形状结合" fill-rule="nonzero"></path>
                        <path d="M16.5818182,9.6 L20.9454545,9.6 C21.4274485,9.6 21.8181818,9.99073331 21.8181818,10.4727273 L21.8181818,15.7090909 C21.8181818,16.1910849 21.4274485,16.5818182 20.9454545,16.5818182 L16.5818182,16.5818182 C16.0998242,16.5818182 15.7090909,16.1910849 15.7090909,15.7090909 L15.7090909,10.4727273 C15.7090909,9.99073331 16.0998242,9.6 16.5818182,9.6 Z M18.3272727,13.9636364 C18.6390682,13.9636364 18.927179,13.7972955 19.0830767,13.5272727 C19.2389745,13.25725 19.2389745,12.9245682 19.0830767,12.6545454 C18.927179,12.3845227 18.6390682,12.2181818 18.3272727,12.2181818 C17.8452788,12.2181818 17.4545455,12.6089151 17.4545455,13.0909091 C17.4545455,13.572903 17.8452788,13.9636364 18.3272727,13.9636364 Z" id="形状" fill-rule="nonzero"></path>
                    </g>
                </g>
            </g>
        </g>
    </g>
</svg>