<?xml version="1.0" encoding="UTF-8"?>
<svg width="40px" height="40px" viewBox="0 0 40 40" version="1.1" xmlns="http://www.w3.org/2000/svg" xmlns:xlink="http://www.w3.org/1999/xlink">
    <!-- Generator: Sketch 55.2 (78181) - https://sketchapp.com -->
    <title>个人主页/转出_slice</title>
    <desc>Created with Sketch.</desc>
    <g id="切图" stroke="none" stroke-width="1" fill="none" fill-rule="evenodd">
        <g id="画板" transform="translate(-199.000000, -638.000000)">
            <g id="个人主页/转出" transform="translate(199.000000, 638.000000)">
                <circle id="椭圆形" fill="#33C759" cx="20" cy="20" r="20"></circle>
                <g id="ico/转账/转入备份" transform="translate(8.000000, 8.000000)" fill="#FFFFFF">
                    <g id="编组" transform="translate(1.090909, 0.000000)">
                        <path d="M6.54545455,5.45454545 L6.54545455,9.81818182 L10.9090909,9.81818182 L10.9090909,5.45454545 L18.3272727,5.45454545 C18.7901961,5.45454545 19.2341592,5.63844103 19.5614955,5.96577725 C19.8888317,6.29311348 20.0727273,6.73707667 20.0727273,7.2 L20.0727273,9.81818182 L16.5818182,9.81818182 C16.1188949,9.81818182 15.6749317,10.0020774 15.3475954,10.3294136 C15.0202592,10.6567498 14.8363636,11.100713 14.8363636,11.5636364 L14.8363636,16.8 C14.8363636,17.7639879 15.6178303,18.5454545 16.5818182,18.5454545 L20.0727273,18.5454545 L20.0727273,21.1636364 C20.0727273,22.1276243 19.2912607,22.9090909 18.3272727,22.9090909 L1.74545455,22.9090909 C0.781466618,22.9090909 -2.91144886e-12,22.1276243 -2.91144886e-12,21.1636364 L-2.91144886e-12,7.2 C-2.91144886e-12,6.23601207 0.781466618,5.45454545 1.74545455,5.45454545 L6.54545455,5.45454545 Z" id="形状结合" fill-rule="nonzero"></path>
                        <path d="M16.5818182,10.6909091 L20.9454545,10.6909091 C21.4274485,10.6909091 21.8181818,11.0816424 21.8181818,11.5636364 L21.8181818,16.8 C21.8181818,17.281994 21.4274485,17.6727273 20.9454545,17.6727273 L16.5818182,17.6727273 C16.0998242,17.6727273 15.7090909,17.281994 15.7090909,16.8 L15.7090909,11.5636364 C15.7090909,11.0816424 16.0998242,10.6909091 16.5818182,10.6909091 Z M18.3272727,15.0545455 C18.6390682,15.0545455 18.927179,14.8882046 19.0830767,14.6181818 C19.2389745,14.3481591 19.2389745,14.0154773 19.0830767,13.7454545 C18.927179,13.4754318 18.6390682,13.3090909 18.3272727,13.3090909 C17.8452788,13.3090909 17.4545455,13.6998242 17.4545455,14.1818182 C17.4545455,14.6638121 17.8452788,15.0545455 18.3272727,15.0545455 Z" id="形状" fill-rule="nonzero"></path>
                        <path d="M7.63636364,4.36363636 L7.63636364,4.4408921e-16 L9.81818182,4.4408921e-16 L9.81818182,4.36363636 L13.0909091,4.36363636 L8.72727273,8.72727273 L4.36363636,4.36363636 L7.63636364,4.36363636 Z" id="形状结合" transform="translate(8.727273, 4.363636) rotate(-180.000000) translate(-8.727273, -4.363636) "></path>
                    </g>
                </g>
            </g>
        </g>
    </g>
</svg>