<?xml version="1.0" encoding="UTF-8"?>
<svg width="14px" height="13px" viewBox="0 0 14 13" version="1.1" xmlns="http://www.w3.org/2000/svg" xmlns:xlink="http://www.w3.org/1999/xlink">
    <!-- Generator: Sketch 55.2 (78181) - https://sketchapp.com -->
    <title>联赛详情/未收藏_slice</title>
    <desc>Created with Sketch.</desc>
    <g id="切图" stroke="none" stroke-width="1" fill="none" fill-rule="evenodd" opacity="0.200000003">
        <g id="画板" transform="translate(-160.000000, -2757.000000)" fill="#000000">
            <path d="M173.965197,2762.03093 C173.881196,2761.78077 173.657192,2761.58621 173.391187,2761.55146 L169.415118,2760.97471 L167.637087,2757.39608 C167.518085,2757.15982 167.273081,2757 167.000076,2757 C166.734071,2757 166.482067,2757.15287 166.363065,2757.38913 L164.585034,2760.98166 L160.608964,2761.55146 C160.33596,2761.59316 160.118956,2761.77382 160.034954,2762.03093 C159.950953,2762.28804 160.020954,2762.55904 160.216958,2762.75361 L163.094008,2765.54007 L162.414996,2769.47309 C162.365995,2769.73715 162.477997,2770.0012 162.695001,2770.16797 C162.821003,2770.25831 162.968006,2770.3 163.108008,2770.3 C163.22001,2770.3 163.332012,2770.2722 163.437014,2770.21661 L166.993076,2768.36129 L170.542138,2770.21661 C170.773142,2770.34169 171.074147,2770.3278 171.298151,2770.16102 C171.515155,2770.0012 171.620157,2769.73715 171.578156,2769.47309 L170.899144,2765.54007 L173.776194,2762.75361 C173.979198,2762.56599 174.049199,2762.28804 173.965197,2762.03093 Z" id="联赛详情/未收藏"></path>
        </g>
    </g>
</svg>