<?xml version="1.0" encoding="UTF-8"?>
<svg width="30px" height="30px" viewBox="0 0 30 30" version="1.1" xmlns="http://www.w3.org/2000/svg" xmlns:xlink="http://www.w3.org/1999/xlink">
    <title>icon_early_result_win</title>
    <defs>
        <linearGradient x1="100%" y1="50%" x2="0%" y2="50%" id="linearGradient-1">
            <stop stop-color="#B01415" offset="0%"></stop>
            <stop stop-color="#C6191C" offset="26.7419764%"></stop>
            <stop stop-color="#B7171B" offset="55.4080448%"></stop>
            <stop stop-color="#F61F21" offset="80.4423564%"></stop>
            <stop stop-color="#BE1619" offset="100%"></stop>
        </linearGradient>
    </defs>
    <g id="icon_early_result_win" stroke="none" stroke-width="1" fill="none" fill-rule="evenodd">
        <g id="编组">
            <rect id="矩形" fill="#D8D8D8" opacity="0" x="0" y="0" width="30" height="30"></rect>
            <path d="M25.75,0.5 L25.75,25.8900028 L15.0371221,29.4729535 L4.25,25.88924 L4.25,0.5 L25.75,0.5 Z" id="矩形" stroke="#FF4A48" fill="url(#linearGradient-1)"></path>
            <rect id="矩形" fill="#8E0D16" x="1.875" y="0" width="26.25" height="1.875"></rect>
            <path d="M10.2017431,18.0714286 L11.4872498,12.6401786 L12.7727566,18.0714286 L14.2543577,18.0714286 L16.2044061,9.82142857 L14.5920755,9.82142857 L13.5244513,15.8485119 L12.108215,9.82142857 L10.8662847,9.82142857 L9.45004842,15.8485119 L8.38242414,9.82142857 L6.70472886,9.82142857 L8.65477728,18.0714286 L10.2017431,18.0714286 Z M18.0019367,11.3110119 L18.0019367,9.82142857 L16.4113944,9.82142857 L16.4113944,11.3110119 L18.0019367,11.3110119 Z M17.9583602,18.0714286 L17.9583602,11.8839286 L16.4549709,11.8839286 L16.4549709,18.0714286 L17.9583602,18.0714286 Z M20.2243383,18.0714286 L20.2243383,13.7058036 L20.4422208,13.5683036 C20.7690445,13.3620536 21.1285507,13.2589286 21.5316333,13.2589286 L21.7277276,13.2589286 C21.9565042,13.2589286 22.0763396,13.3849702 22.0763396,13.6255952 L22.0763396,18.0714286 L23.5797289,18.0714286 L23.5797289,13.4422619 C23.5797289,12.9839286 23.4381052,12.6058036 23.1439638,12.2964286 C22.8498225,11.9870536 22.4903163,11.8380952 22.0545513,11.8380952 L21.6841511,11.8380952 C21.2810684,11.8380952 20.8670917,12.0443452 20.4422208,12.4683036 L20.2243383,12.6860119 L20.2243383,11.8839286 L18.720949,11.8839286 L18.720949,18.0714286 L20.2243383,18.0714286 Z" id="Win" fill="#FFE9B8" fill-rule="nonzero"></path>
        </g>
    </g>
</svg>