<?xml version="1.0" encoding="UTF-8"?>
<svg width="30px" height="30px" viewBox="0 0 30 30" version="1.1" xmlns="http://www.w3.org/2000/svg" xmlns:xlink="http://www.w3.org/1999/xlink">
    <title>icon_early_result_win</title>
    <defs>
        <linearGradient x1="100%" y1="50%" x2="0%" y2="50%" id="linearGradient-1">
            <stop stop-color="#B01415" offset="0%"></stop>
            <stop stop-color="#C6191C" offset="26.7419764%"></stop>
            <stop stop-color="#B7171B" offset="55.4080448%"></stop>
            <stop stop-color="#F61F21" offset="80.4423564%"></stop>
            <stop stop-color="#BE1619" offset="100%"></stop>
        </linearGradient>
    </defs>
    <g id="icon_early_result_win" stroke="none" stroke-width="1" fill="none" fill-rule="evenodd">
        <g id="编组">
            <rect id="矩形" fill="#D8D8D8" opacity="0" x="0" y="0" width="30" height="30"></rect>
            <path d="M25.75,0.5 L25.75,25.8900028 L15.0371221,29.4729535 L4.25,25.88924 L4.25,0.5 L25.75,0.5 Z" id="矩形" stroke="#FF4A48" fill="url(#linearGradient-1)"></path>
            <rect id="矩形" fill="#8E0D16" x="1.875" y="0" width="26.25" height="1.875"></rect>
        </g>
        <path d="M19.644,10.872 L19.644,10.068 L11.664,10.068 L11.664,9.648 L20.364,9.648 L20.364,8.76 L15.624,8.76 C15.516,8.496 15.408,8.268 15.288,8.052 L14.052,8.268 C14.148,8.412 14.256,8.58 14.352,8.76 L9.636,8.76 L9.636,9.648 L10.56,9.648 L10.56,10.872 L19.644,10.872 Z M19.02,13.092 L19.02,11.232 L10.944,11.232 L10.944,13.092 L19.02,13.092 Z M17.856,12.408 L12.108,12.408 L12.108,11.916 L17.856,11.916 L17.856,12.408 Z M10.224,19.26 C10.584,18.732 10.836,18.084 10.956,17.316 L11.976,17.316 L11.976,18.012 C11.976,18.204 11.88,18.312 11.712,18.312 C11.544,18.312 11.376,18.288 11.196,18.264 L11.448,19.2 L12,19.2 C12.6,19.2 12.912,18.912 12.912,18.348 L12.912,13.476 L10.092,13.476 L10.092,16.38 C10.08,17.268 9.876,18 9.468,18.576 L10.224,19.26 Z M16.752,19.26 C17.124,18.756 17.376,18.276 17.496,17.832 C17.592,17.424 17.64,16.86 17.652,16.14 C17.868,16.464 18.06,16.776 18.228,17.064 L18.552,16.836 L18.552,18.384 C18.552,18.816 18.768,19.032 19.224,19.032 L19.848,19.032 C20.112,19.032 20.304,18.924 20.4,18.708 C20.496,18.492 20.58,17.94 20.652,17.028 L19.896,16.776 C19.872,17.484 19.848,17.904 19.824,18.024 C19.788,18.144 19.752,18.204 19.704,18.204 L19.572,18.204 C19.512,18.204 19.488,18.168 19.488,18.108 L19.488,13.488 L16.716,13.488 L16.716,15.864 C16.716,16.644 16.656,17.196 16.56,17.532 C16.5,17.748 16.392,17.976 16.236,18.24 C16.008,17.988 15.756,17.76 15.48,17.556 L14.904,18.084 C15.228,18.348 15.54,18.672 15.828,19.044 L16.128,18.708 L16.752,19.26 Z M16.224,17.496 L16.224,13.488 L13.368,13.488 L13.368,17.496 L16.224,17.496 Z M15.288,14.676 L14.292,14.676 L14.292,14.196 L15.288,14.196 L15.288,14.676 Z M11.976,15.06 L11.028,15.06 L11.028,14.352 L11.976,14.352 L11.976,15.06 Z M18.552,16.152 C18.384,15.888 18.192,15.612 17.952,15.312 L17.652,15.504 L17.652,14.412 L18.552,14.412 L18.552,16.152 Z M15.288,15.732 L14.292,15.732 L14.292,15.264 L15.288,15.264 L15.288,15.732 Z M11.976,16.536 L11.016,16.536 C11.016,16.464 11.028,16.392 11.028,16.32 L11.028,15.84 L11.976,15.84 L11.976,16.536 Z M15.288,16.788 L14.292,16.788 L14.292,16.308 L15.288,16.308 L15.288,16.788 Z M13.584,19.236 C14.016,18.912 14.388,18.54 14.688,18.108 L14.1,17.58 C13.812,17.952 13.464,18.276 13.056,18.552 L13.584,19.236 Z" id="贏" fill="#FFE9B8" fill-rule="nonzero"></path>
    </g>
</svg>