<?xml version="1.0" encoding="UTF-8"?>
<svg width="30px" height="30px" viewBox="0 0 30 30" version="1.1" xmlns="http://www.w3.org/2000/svg" xmlns:xlink="http://www.w3.org/1999/xlink">
    <title>icon_early_result_halfwin</title>
    <defs>
        <linearGradient x1="100%" y1="50%" x2="0%" y2="50%" id="linearGradient-1">
            <stop stop-color="#B01415" offset="0%"></stop>
            <stop stop-color="#C6191C" offset="26.7419764%"></stop>
            <stop stop-color="#B7171B" offset="55.4080448%"></stop>
            <stop stop-color="#F61F21" offset="80.4423564%"></stop>
            <stop stop-color="#BE1619" offset="100%"></stop>
        </linearGradient>
    </defs>
    <g id="icon_early_result_halfwin" stroke="none" stroke-width="1" fill="none" fill-rule="evenodd">
        <g id="编组">
            <rect id="矩形" fill="#D8D8D8" opacity="0" x="0" y="0" width="30" height="30"></rect>
            <path d="M25.75,0.5 L25.75,25.8900028 L15.0371221,29.4729535 L4.25,25.88924 L4.25,0.5 L25.75,0.5 Z" id="矩形" stroke="#FF4A48" fill="url(#linearGradient-1)"></path>
            <rect id="矩形" fill="#8E0D16" x="1.875" y="0" width="26.25" height="1.875"></rect>
            <path d="M8.94375,15.3375 L9.8625,20.26875 L11.08125,15.3375 L12.15,15.3375 L13.36875,20.26875 L14.2875,15.3375 L15.675,15.3375 L13.996875,22.0875 L12.721875,22.0875 L11.615625,17.64375 L10.509375,22.0875 L9.178125,22.0875 L7.5,15.3375 L8.94375,15.3375 Z M17.184375,17.025 L17.184375,22.0875 L15.890625,22.0875 L15.890625,17.025 L17.184375,17.025 Z M20.709375,16.9875 C21.084375,16.9875 21.39375,17.109375 21.646875,17.3625 C21.9,17.615625 22.021875,17.925 22.021875,18.3 L22.021875,18.3 L22.021875,22.0875 L20.728125,22.0875 L20.728125,18.45 C20.728125,18.253125 20.625,18.15 20.428125,18.15 L20.428125,18.15 L20.259375,18.15 C19.9125,18.15 19.603125,18.234375 19.321875,18.403125 L19.321875,18.403125 L19.134375,18.515625 L19.134375,22.0875 L17.840625,22.0875 L17.840625,17.025 L19.134375,17.025 L19.134375,17.68125 L19.321875,17.503125 C19.6875,17.15625 20.04375,16.9875 20.390625,16.9875 L20.390625,16.9875 Z M17.221875,15 L17.221875,16.21875 L15.853125,16.21875 L15.853125,15 L17.221875,15 Z" id="形状结合" fill="#FFE9B8" fill-rule="nonzero"></path>
            <path d="M15.3731185,8.10734406 C15.7481185,8.10734406 16.0668685,8.23859406 16.3293685,8.50109406 C16.5543685,8.72609406 16.6829399,8.99242059 16.7150828,9.30007365 L16.7231185,9.45734406 L16.7231185,13.2073441 L15.4293685,13.2073441 L15.4293685,12.5510941 L15.2418685,12.7292191 C14.9887435,12.9729691 14.7731185,13.1229691 14.5949935,13.1885941 C14.5137435,13.2073441 14.4324935,13.2219274 14.3512435,13.2295663 L14.2293685,13.2354691 L13.8356185,13.2354691 C13.4606185,13.2354691 13.1512435,13.1229691 12.8981185,12.8698441 C12.6811542,12.6528798 12.5606185,12.394589 12.5306076,12.0890678 L12.5231185,11.9323441 L12.5231185,11.4354691 C12.5231185,11.0323441 12.6449935,10.7135941 12.8793685,10.4792191 C13.0802613,10.2783262 13.343144,10.1600864 13.6680164,10.1304035 L13.8356185,10.1229691 L14.0606185,10.1229691 C14.4131185,10.1229691 14.7776185,10.1589691 15.1493185,10.2309691 L15.4293685,10.2917191 L15.4293685,9.49484406 C15.4293685,9.41046906 15.4012435,9.34484406 15.3543685,9.29796906 C15.3231185,9.26671906 15.2835352,9.24380239 15.2356185,9.23199684 L15.1574935,9.22296906 L14.2762435,9.22296906 C14.1918685,9.22296906 14.1262435,9.25109406 14.0793685,9.29796906 C14.0481185,9.32921906 14.0252018,9.36880239 14.0133963,9.41671906 L14.0043685,9.49484406 L14.0043685,9.71046906 L12.7106185,9.71046906 L12.7106185,9.45734406 C12.7106185,9.08234406 12.8418685,8.76359406 13.1043685,8.50109406 C13.3293685,8.27609406 13.595695,8.14752263 13.9033481,8.11537977 L14.0606185,8.10734406 L15.3731185,8.10734406 Z M9.28874348,6.11984406 L9.28874348,8.80109406 L9.47624348,8.62296906 C9.84186848,8.27609406 10.1981185,8.10734406 10.5449935,8.10734406 L10.5449935,8.10734406 L10.8637435,8.10734406 C11.2387435,8.10734406 11.5481185,8.22921906 11.8012435,8.48234406 C12.0543685,8.73546906 12.1762435,9.04484406 12.1762435,9.41984406 L12.1762435,9.41984406 L12.1762435,13.2073441 L10.8824935,13.2073441 L10.8824935,9.56984406 C10.8824935,9.37296906 10.7793685,9.26984406 10.5824935,9.26984406 L10.5824935,9.26984406 L10.4137435,9.26984406 C10.0668685,9.26984406 9.75749348,9.35421906 9.47624348,9.52296906 L9.47624348,9.52296906 L9.28874348,9.63546906 L9.28874348,13.2073441 L7.99499348,13.2073441 L7.99499348,6.11984406 L9.28874348,6.11984406 Z M18.6168685,6.11984406 L18.6168685,13.2073441 L17.3231185,13.2073441 L17.3231185,6.11984406 L18.6168685,6.11984406 Z M22.1793685,6.11984406 L22.1793685,7.22609406 L21.2887435,7.23546906 C21.2043685,7.23546906 21.1387435,7.26359406 21.0824935,7.31046906 C21.0262435,7.35734406 20.9981185,7.42296906 20.9981185,7.50734406 L20.9981185,7.50734406 L20.9981185,8.14484406 L22.1793685,8.14484406 L22.1793685,9.21359406 L20.9981185,9.21359406 L20.9981185,13.2073441 L19.7043685,13.2073441 L19.7043685,9.21359406 L18.8887435,9.21359406 L18.8887435,8.14484406 L19.7043685,8.14484406 L19.7043685,7.43234406 C19.7043685,7.05734406 19.8262435,6.74796906 20.0793685,6.49484406 C20.3324935,6.24171906 20.6418685,6.11984406 21.0168685,6.11984406 L21.0168685,6.11984406 L22.1793685,6.11984406 Z M14.0887435,11.0135941 C14.0043685,11.0135941 13.9387435,11.0417191 13.8918685,11.0979691 C13.8606185,11.1354691 13.8377018,11.1771357 13.8258963,11.2257468 L13.8168685,11.3042191 L13.8168685,11.7823441 C13.8168685,11.9510941 13.8926338,12.0509665 14.0382606,12.0760576 L14.1168685,12.0823441 L14.3606185,12.0823441 C14.6081185,12.0823441 14.8436185,12.0283441 15.0719185,11.9203441 L15.2418685,11.8292191 L15.4293685,11.7167191 L15.4293685,11.0229691 L14.0887435,11.0135941 Z" id="形状结合" fill="#FFE9B8" fill-rule="nonzero"></path>
        </g>
    </g>
</svg>