<?xml version="1.0" encoding="UTF-8"?>
<svg width="30px" height="30px" viewBox="0 0 30 30" version="1.1" xmlns="http://www.w3.org/2000/svg" xmlns:xlink="http://www.w3.org/1999/xlink">
    <!-- Generator: Sketch 55.2 (78181) - https://sketchapp.com -->
    <title>个人主页/赢半_slice</title>
    <desc>Created with Sketch.</desc>
    <defs>
        <linearGradient x1="100%" y1="50%" x2="0%" y2="50%" id="linearGradient-1">
            <stop stop-color="#B01415" offset="0%"></stop>
            <stop stop-color="#C6191C" offset="26.7419764%"></stop>
            <stop stop-color="#B7171B" offset="55.4080448%"></stop>
            <stop stop-color="#F61F21" offset="80.4423564%"></stop>
            <stop stop-color="#BE1619" offset="100%"></stop>
        </linearGradient>
    </defs>
    <g id="切图" stroke="none" stroke-width="1" fill="none" fill-rule="evenodd">
        <g id="画板" transform="translate(-216.000000, -565.000000)">
            <g id="ico/进入备份-9" transform="translate(216.000000, 565.000000)">
                <rect id="矩形" fill="#D8D8D8" fill-rule="evenodd" opacity="0" x="0" y="0" width="30" height="30"></rect>
                <path d="M4.25,0.5 L4.25,25.88924 L15.0371221,29.4729535 L25.75,25.8900028 L25.75,0.5 L4.25,0.5 Z" id="矩形" stroke="#FF4A48" stroke-width="1" fill="url(#linearGradient-1)" fill-rule="evenodd"></path>
                <rect id="矩形" fill="#8E0D16" fill-rule="evenodd" x="1.875" y="0" width="26.25" height="1.875"></rect>
                <path d="M16.1981952,8.42245989 L16.1981952,11.4204545 L15.5364305,11.4204545 L15.5364305,9.12433155 L14.2830882,9.12433155 L14.2830882,11.4004011 L13.6112968,11.4004011 L13.6112968,8.42245989 L16.1981952,8.42245989 Z M14.9247995,11.9418449 C14.904746,12.0020053 14.8746658,12.052139 14.8546123,12.1022727 C14.6440508,12.5033422 14.293115,12.8041444 13.8118316,13.0247326 L13.4308155,12.4231283 C13.871992,12.2225936 14.1727941,11.9618984 14.3432487,11.6610963 C14.4936497,11.3402406 14.5738636,10.9090909 14.5939171,10.3877005 L14.5939171,9.52540107 L15.2155749,9.52540107 L15.2155749,10.3877005 C15.1955214,10.7185829 15.1654412,11.019385 15.1153075,11.3001337 C15.4762701,11.6009358 15.7870989,11.9117647 16.0377674,12.2225936 L15.5464572,12.7139037 C15.3860294,12.4632353 15.1754679,12.2025401 14.9247995,11.9418449 Z M10.5130348,4.41176471 L14.5437834,4.41176471 C14.4535428,4.23128342 14.3633021,4.06082888 14.2630348,3.91042781 L15.2155749,3.75 C15.2957888,3.95053476 15.3659759,4.17112299 15.4461898,4.41176471 L19.4368316,4.41176471 L19.4368316,5.07352941 L12.2075535,5.07352941 L12.2075535,5.45454545 L18.7951203,5.45454545 L18.7951203,6.10628342 L11.3352273,6.10628342 L11.3352273,5.07352941 L10.5130348,5.07352941 L10.5130348,4.41176471 Z M11.6159759,6.45721925 L18.3038102,6.45721925 L18.3038102,8.04144385 L11.6159759,8.04144385 L11.6159759,6.45721925 Z M17.3813503,7.43983957 L17.3813503,7.04879679 L12.5384358,7.04879679 L12.5384358,7.43983957 L17.3813503,7.43983957 Z M11.6460561,10.3175134 C11.6360294,10.5180481 11.6260027,10.7185829 11.6059492,10.8990642 L12.5384358,10.8990642 L12.5384358,10.3175134 L11.6460561,10.3175134 Z M12.5384358,9.72593583 L12.5384358,9.14438503 L11.6560829,9.14438503 L11.6560829,9.72593583 L12.5384358,9.72593583 Z M11.5257353,11.4906417 C11.3953877,12.1323529 11.1848262,12.6737968 10.8940508,13.1350267 L10.3125,12.6036096 C10.7035428,11.9618984 10.9040775,11.1597594 10.9141043,10.177139 L10.9141043,8.44251337 L13.2703877,8.44251337 L13.2703877,12.3629679 C13.2703877,12.8342246 12.9996658,13.0748663 12.4682487,13.0748663 L12.0872326,13.0748663 L11.8866979,12.3830214 C12.0070187,12.4030749 12.1273396,12.4131016 12.2376337,12.4131016 C12.4381684,12.4131016 12.5384358,12.3028075 12.5384358,12.1022727 L12.5384358,11.4906417 L11.5257353,11.4906417 Z M19.0457888,12.9745989 L18.654746,12.9745989 C18.2536765,12.9745989 18.0631684,12.7640374 18.0631684,12.3629679 L18.0631684,11.2399733 L17.621992,11.440508 C17.5116979,11.019385 17.391377,10.638369 17.2610294,10.3074866 C17.2510027,10.9792781 17.200869,11.5006684 17.1206551,11.861631 C17.010361,12.2627005 16.779746,12.6938503 16.4288102,13.1450535 L15.8472594,12.6336898 C16.1480615,12.2927807 16.3385695,11.9719251 16.4288102,11.671123 C16.5190508,11.3502674 16.5691845,10.8389037 16.5691845,10.1270053 L16.5691845,8.43248663 L18.7650401,8.43248663 L18.7650401,12.1423797 C18.7650401,12.2426471 18.8051471,12.3028075 18.9054144,12.3028075 L18.9354947,12.3028075 C18.9756016,12.3028075 19.0056818,12.2526738 19.035762,12.1624332 C19.0558155,12.0822193 19.075869,11.7713904 19.0959225,11.2399733 L19.6875,11.4505348 C19.6273396,12.1323529 19.5671791,12.5635027 19.4869652,12.7339572 C19.4067513,12.894385 19.2563503,12.9745989 19.0457888,12.9745989 Z M17.2610294,10.1169786 L17.6620989,9.98663102 C17.8125,10.3375668 17.9428476,10.7085561 18.0631684,11.0995989 L18.0631684,9.1644385 L17.2610294,9.1644385 L17.2610294,10.1169786 Z" id="赢半" fill="#FFE9B8" fill-rule="nonzero"></path>
                <path d="M12.0821629,15.3138499 C12.5772472,15.9719222 13.051264,16.6907397 13.5042135,17.4703024 L12.5667135,17.9157667 C12.1348315,17.1058315 11.6713483,16.387014 11.1657303,15.7390659 L12.0821629,15.3138499 Z M10.9761236,18.2296166 L14.494382,18.2296166 L14.494382,15 L15.505618,15 L15.505618,18.2296166 L18.9501404,18.2296166 L18.9501404,19.1610421 L15.505618,19.1610421 L15.505618,20.7302916 L19.6875,20.7302916 L19.6875,21.6617171 L15.505618,21.6617171 L15.505618,24.375 L14.494382,24.375 L14.494382,21.6617171 L10.3125,21.6617171 L10.3125,20.7302916 L14.494382,20.7302916 L14.494382,19.1610421 L10.9761236,19.1610421 L10.9761236,18.2296166 Z M17.8125,15.3543467 L18.6973315,15.7694384 C18.3602528,16.5186285 17.9283708,17.237446 17.3911517,17.9461393 L16.5063202,17.5006749 C17.054073,16.7818575 17.4859551,16.06304 17.8125,15.3543467 Z" id="形状结合" fill="#FFE9B8" fill-rule="nonzero"></path>
            </g>
        </g>
    </g>
</svg>