<?xml version="1.0" encoding="UTF-8"?>
<svg width="30px" height="30px" viewBox="0 0 30 30" version="1.1" xmlns="http://www.w3.org/2000/svg" xmlns:xlink="http://www.w3.org/1999/xlink">
    <title>icon_early_result_halfwin</title>
    <defs>
        <linearGradient x1="100%" y1="50%" x2="0%" y2="50%" id="linearGradient-1">
            <stop stop-color="#B01415" offset="0%"></stop>
            <stop stop-color="#C6191C" offset="26.7419764%"></stop>
            <stop stop-color="#B7171B" offset="55.4080448%"></stop>
            <stop stop-color="#F61F21" offset="80.4423564%"></stop>
            <stop stop-color="#BE1619" offset="100%"></stop>
        </linearGradient>
    </defs>
    <g id="icon_early_result_halfwin" stroke="none" stroke-width="1" fill="none" fill-rule="evenodd">
        <g id="编组">
            <rect id="矩形" fill="#D8D8D8" opacity="0" x="0" y="0" width="30" height="30"></rect>
            <path d="M25.75,0.5 L25.75,25.8900028 L15.0371221,29.4729535 L4.25,25.88924 L4.25,0.5 L25.75,0.5 Z" id="矩形" stroke="#FF4A48" fill="url(#linearGradient-1)"></path>
            <rect id="矩形" fill="#8E0D16" x="1.875" y="0" width="26.25" height="1.875"></rect>
        </g>
        <path d="M18.87,7.06 L18.87,6.39 L12.22,6.39 L12.22,6.04 L19.47,6.04 L19.47,5.3 L15.52,5.3 C15.43,5.08 15.34,4.89 15.24,4.71 L14.21,4.89 C14.29,5.01 14.38,5.15 14.46,5.3 L10.53,5.3 L10.53,6.04 L11.3,6.04 L11.3,7.06 L18.87,7.06 Z M18.35,8.91 L18.35,7.36 L11.62,7.36 L11.62,8.91 L18.35,8.91 Z M17.38,8.34 L12.59,8.34 L12.59,7.93 L17.38,7.93 L17.38,8.34 Z M11.02,14.05 C11.32,13.61 11.53,13.07 11.63,12.43 L12.48,12.43 L12.48,13.01 C12.48,13.17 12.4,13.26 12.26,13.26 C12.12,13.26 11.98,13.24 11.83,13.22 L12.04,14 L12.5,14 C13,14 13.26,13.76 13.26,13.29 L13.26,9.23 L10.91,9.23 L10.91,11.65 C10.9,12.39 10.73,13 10.39,13.48 L11.02,14.05 Z M16.46,14.05 C16.77,13.63 16.98,13.23 17.08,12.86 C17.16,12.52 17.2,12.05 17.21,11.45 C17.39,11.72 17.55,11.98 17.69,12.22 L17.96,12.03 L17.96,13.32 C17.96,13.68 18.14,13.86 18.52,13.86 L19.04,13.86 C19.26,13.86 19.42,13.77 19.5,13.59 C19.58,13.41 19.65,12.95 19.71,12.19 L19.08,11.98 C19.06,12.57 19.04,12.92 19.02,13.02 C18.99,13.12 18.96,13.17 18.92,13.17 L18.81,13.17 C18.76,13.17 18.74,13.14 18.74,13.09 L18.74,9.24 L16.43,9.24 L16.43,11.22 C16.43,11.87 16.38,12.33 16.3,12.61 C16.25,12.79 16.16,12.98 16.03,13.2 C15.84,12.99 15.63,12.8 15.4,12.63 L14.92,13.07 C15.19,13.29 15.45,13.56 15.69,13.87 L15.94,13.59 L16.46,14.05 Z M16.02,12.58 L16.02,9.24 L13.64,9.24 L13.64,12.58 L16.02,12.58 Z M15.24,10.23 L14.41,10.23 L14.41,9.83 L15.24,9.83 L15.24,10.23 Z M12.48,10.55 L11.69,10.55 L11.69,9.96 L12.48,9.96 L12.48,10.55 Z M17.96,11.46 C17.82,11.24 17.66,11.01 17.46,10.76 L17.21,10.92 L17.21,10.01 L17.96,10.01 L17.96,11.46 Z M15.24,11.11 L14.41,11.11 L14.41,10.72 L15.24,10.72 L15.24,11.11 Z M12.48,11.78 L11.68,11.78 L11.69,11.6 L11.69,11.6 L11.69,11.2 L12.48,11.2 L12.48,11.78 Z M15.24,11.99 L14.41,11.99 L14.41,11.59 L15.24,11.59 L15.24,11.99 Z M13.82,14.03 C14.18,13.76 14.49,13.45 14.74,13.09 L14.25,12.65 C14.01,12.96 13.72,13.23 13.38,13.46 L13.82,14.03 Z M15.53,25.09 L15.53,22.43 L19.46,22.43 L19.46,21.42 L15.53,21.42 L15.53,19.97 L18.77,19.97 L18.77,18.95 L15.53,18.95 L15.53,15.8 L14.47,15.8 L14.47,18.95 L11.16,18.95 L11.16,19.97 L14.47,19.97 L14.47,21.42 L10.54,21.42 L10.54,22.43 L14.47,22.43 L14.47,25.09 L15.53,25.09 Z M12.63,18.71 L13.6,18.22 C13.18,17.45 12.74,16.74 12.28,16.1 L11.33,16.56 C11.79,17.2 12.23,17.91 12.63,18.71 Z M17.32,18.74 C17.82,18.04 18.23,17.33 18.54,16.59 L17.62,16.14 C17.32,16.84 16.91,17.55 16.4,18.25 L17.32,18.74 Z" id="贏半" fill="#FFE9B8" fill-rule="nonzero"></path>
    </g>
</svg>