<?xml version="1.0" encoding="UTF-8"?>
<svg width="14px" height="14px" viewBox="0 0 14 14" version="1.1" xmlns="http://www.w3.org/2000/svg" xmlns:xlink="http://www.w3.org/1999/xlink">
    <title>icon_early_double_arrow</title>
    <g id="icon_early_double_arrow" stroke="none" stroke-width="1" fill="none" fill-rule="evenodd">
        <g id="编组" fill="#79670B" fill-rule="nonzero">
            <g id="ico/关闭备份-2">
                <path d="M7.37257721,0.216546653 L7.43770535,0.309523609 L11.112636,6.68203488 C11.2097071,6.85036091 11.2258856,7.05369205 11.1611716,7.23368645 L11.112636,7.33841595 L7.44949903,13.6904764 C7.27538792,13.9923937 6.89913674,14.09021 6.6091185,13.9089554 C6.3513245,13.7478402 6.2484397,13.4204565 6.35104285,13.1376475 L6.39925006,13.0340953 L9.87207481,7.00895018 L6.38745638,0.965904679 C6.23269095,0.697533782 6.28973582,0.358232755 6.50801222,0.158844829 L6.59732481,0.0910445872 C6.85511881,-0.0700706374 7.18104747,-0.010685305 7.37257721,0.216546653 Z M3.87257721,0.216546653 L3.93770535,0.309523609 L7.61263603,6.68203488 C7.70970711,6.85036091 7.72588562,7.05369205 7.66117157,7.23368645 L7.61263603,7.33841595 L3.94949903,13.6904764 C3.77538792,13.9923937 3.39913674,14.09021 3.1091185,13.9089554 C2.8513245,13.7478402 2.7484397,13.4204565 2.85104285,13.1376475 L2.89925006,13.0340953 L6.37207481,7.00895018 L2.88745638,0.965904679 C2.73269095,0.697533782 2.78973582,0.358232755 3.00801222,0.158844829 L3.09732481,0.0910445872 C3.35511881,-0.0700706374 3.68104747,-0.010685305 3.87257721,0.216546653 Z" id="形状结合"></path>
            </g>
        </g>
    </g>
</svg>