<?xml version="1.0" encoding="UTF-8"?>
<svg width="12px" height="12px" viewBox="0 0 12 12" version="1.1" xmlns="http://www.w3.org/2000/svg" xmlns:xlink="http://www.w3.org/1999/xlink">
    <title>icon_bk_rule_x</title>
    <g id="icon_bk_rule_x" stroke="none" stroke-width="1" fill="none" fill-rule="evenodd">
        <path d="M2.48305796,2.17564142 C2.71724651,1.94145286 3.09694118,1.94145286 3.33112974,2.17564142 L3.33112974,2.17564142 L6.05841654,4.903 L8.78691441,2.17564142 C9.02110296,1.94145286 9.40079763,1.94145286 9.63498618,2.17564142 C9.86917474,2.40982997 9.86917474,2.78952464 9.63498618,3.02371319 L6.90641654,5.751 L9.63498618,8.47949786 C9.84315379,8.68766547 9.86628352,9.01080086 9.70437539,9.24451687 L9.63498618,9.32756964 C9.40079763,9.56175819 9.02110296,9.56175819 8.78691441,9.32756964 L8.78691441,9.32756964 L6.05841654,6.599 L3.33112974,9.32756964 C3.09694118,9.56175819 2.71724651,9.56175819 2.48305796,9.32756964 C2.24886941,9.09338109 2.24886941,8.71368642 2.48305796,8.47949786 L5.21041654,5.751 L2.48305796,3.02371319 C2.27489036,2.81554559 2.25176062,2.49241019 2.41366876,2.25869419 Z" id="路径-6" fill="#FF4000" fill-rule="nonzero" transform="translate(6.059022, 5.751606) scale(-1, 1) translate(-6.059022, -5.751606) "></path>
    </g>
</svg>