<?xml version="1.0" encoding="UTF-8"?>
<svg width="20px" height="20px" viewBox="0 0 20 20" version="1.1" xmlns="http://www.w3.org/2000/svg" xmlns:xlink="http://www.w3.org/1999/xlink">
    <title>icon_early_part_grey</title>
    <g id="icon_early_part_grey" stroke="none" stroke-width="1" fill="none" fill-rule="evenodd" opacity="0.400000006">
        <g id="编组" fill="#000000" fill-rule="nonzero">
            <g id="ico/关闭备份">
                <path d="M7.5,10 C7.5,10.2922976 7.55016334,10.572879 7.64235074,10.8336048 L1.66666667,10.8333333 C1.20642938,10.8333333 0.833333333,10.4602373 0.833333333,10 C0.833333333,9.53976271 1.20642938,9.16666667 1.66666667,9.16666667 L1.66666667,9.16666667 L7.64245545,9.16609907 C7.55020132,9.42690856 7.5,9.7075917 7.5,10 Z M18.3333333,9.16666667 C18.7935706,9.16666667 19.1666667,9.53976271 19.1666667,10 C19.1666667,10.4602373 18.7935706,10.8333333 18.3333333,10.8333333 L18.3333333,10.8333333 L12.3576493,10.8336048 C12.4498367,10.572879 12.5,10.2922976 12.5,10 C12.5,9.7075917 12.4497987,9.42690856 12.3575445,9.16609907 Z" id="形状结合"></path>
                <path d="M10,13.3333333 C11.8409492,13.3333333 13.3333333,11.8409492 13.3333333,10 C13.3333333,8.15905083 11.8409492,6.66666667 10,6.66666667 C8.15905083,6.66666667 6.66666667,8.15905083 6.66666667,10 C6.66666667,11.8409492 8.15905083,13.3333333 10,13.3333333 Z M10,11.6666667 C9.07952542,11.6666667 8.33333333,10.9204746 8.33333333,10 C8.33333333,9.07952542 9.07952542,8.33333333 10,8.33333333 C10.9204746,8.33333333 11.6666667,9.07952542 11.6666667,10 C11.6666667,10.9204746 10.9204746,11.6666667 10,11.6666667 Z" id="椭圆形"></path>
            </g>
        </g>
    </g>
</svg>