<?xml version="1.0" encoding="UTF-8"?>
<svg width="20px" height="20px" viewBox="0 0 20 20" version="1.1" xmlns="http://www.w3.org/2000/svg" xmlns:xlink="http://www.w3.org/1999/xlink">
    <title>icon_early_close</title>
    <g id="icon_early_close" stroke="none" stroke-width="1" fill="none" fill-rule="evenodd">
        <g id="形状结合-2" fill="#F5F5F5" transform="translate(3.000000, 3.000000)">
            <path d="M1.75413479,0.300961949 L6.859,5.405 L11.9647597,0.300961949 C12.3351744,-0.0694527574 12.9180317,-0.0979461963 13.3211299,0.215481632 L13.4179325,0.300961949 C13.8192151,0.702244547 13.8192151,1.35285219 13.4179325,1.75413479 L13.4179325,1.75413479 L8.299,6.872 L13.3818495,11.9544092 C13.7543081,12.3268678 13.7829588,12.9129413 13.4678015,13.3182638 L13.3818495,13.4156005 C12.9783527,13.8190973 12.324155,13.8190973 11.9206582,13.4156005 L11.9206582,13.4156005 L6.859,8.354 L1.79823625,13.4156005 C1.39473942,13.8190973 0.740541794,13.8190973 0.337044963,13.4156005 C-0.0664518687,13.0121037 -0.0664518687,12.357906 0.337044963,11.9544092 L5.418,6.872 L0.300961949,1.75413479 C-0.10032065,1.35285219 -0.10032065,0.702244547 0.300961949,0.300961949 C0.702244547,-0.10032065 1.35285219,-0.10032065 1.75413479,0.300961949 Z" id="形状结合"></path>
        </g>
    </g>
</svg>