<?xml version="1.0" encoding="UTF-8"?>
<svg width="14px" height="13px" viewBox="0 0 14 13" version="1.1" xmlns="http://www.w3.org/2000/svg" xmlns:xlink="http://www.w3.org/1999/xlink">
    <title>icon_preference_notice</title>
    <g id="3.11" stroke="none" stroke-width="1" fill="none" fill-rule="evenodd">
        <g id="1.2投注偏好备份" transform="translate(-219.000000, -1133.000000)" fill="#FF4000">
            <path d="M226.586641,1133.67319 C226.91053,1133.85393 227.177778,1134.12118 227.358519,1134.44507 L231.961141,1142.69297 C232.499394,1143.65752 232.153813,1144.87578 231.189263,1145.41403 C230.891339,1145.58029 230.55584,1145.66756 230.214668,1145.66756 L221.009425,1145.66756 C219.904856,1145.66756 219.009425,1144.77213 219.009425,1143.66756 C219.009425,1143.32639 219.096701,1142.99089 219.262953,1142.69297 L223.865574,1134.44507 C224.403828,1133.48052 225.622091,1133.13494 226.586641,1133.67319 Z M225.612047,1142.07952 C225.022279,1142.07952 224.544177,1142.5385 224.544177,1143.10467 C224.544177,1143.67085 225.022279,1144.12983 225.612047,1144.12983 C226.201815,1144.12983 226.679917,1143.67085 226.679917,1143.10467 C226.679917,1142.5385 226.201815,1142.07952 225.612047,1142.07952 Z M225.612047,1136.44117 C225.578742,1136.44117 225.54546,1136.44289 225.512335,1136.44635 C224.983671,1136.50141 224.599746,1136.97462 224.654815,1137.50329 L224.654815,1137.50329 L225.022793,1141.03588 C225.054231,1141.33768 225.308614,1141.56694 225.612047,1141.56694 C225.91548,1141.56694 226.169863,1141.33768 226.201301,1141.03588 L226.201301,1141.03588 L226.569279,1137.50329 C226.572729,1137.47016 226.574458,1137.43688 226.574458,1137.40358 C226.574458,1136.87205 226.143572,1136.44117 225.612047,1136.44117 Z" id="icon_preference_notice"></path>
        </g>
    </g>
</svg>