<?xml version="1.0" encoding="UTF-8"?>
<svg width="20px" height="20px" viewBox="0 0 20 20" version="1.1" xmlns="http://www.w3.org/2000/svg" xmlns:xlink="http://www.w3.org/1999/xlink">
    <title>icon_early_refresh</title>
    <g id="icon_early_refresh" stroke="none" stroke-width="1" fill="none" fill-rule="evenodd">
        <g id="ico/关闭" fill="#222222">
            <path d="M14.9367401,4.30458692 C15.2181497,4.04975305 15.6562581,4.06760596 15.9152828,4.34446251 C17.3055319,5.83041964 18.0769231,7.75654404 18.0769231,9.74971993 C18.0769231,14.1274246 14.4534147,17.6923077 10.0037177,17.6923077 C9.45236098,17.6923077 9.12209569,17.0892659 9.42534971,16.6362475 L9.42534971,16.6362475 L11.7998178,13.0891292 C12.010183,12.7748734 12.4396619,12.6878943 12.7590857,12.894856 C13.0785095,13.1018177 13.1669189,13.524348 12.9565537,13.8386038 L12.9565537,13.8386038 L11.3834747,16.1885605 C14.409727,15.560397 16.6918682,12.9097348 16.6918682,9.74971993 C16.6918682,8.10006643 16.0522156,6.50288668 14.8962088,5.26729758 C14.6371841,4.99044103 14.6553306,4.55942079 14.9367401,4.30458692 Z M9.99628233,2.30769231 C10.547639,2.30769231 10.8779043,2.91073409 10.5746503,3.36375254 L10.5746503,3.36375254 L8.20018223,6.91087083 C7.989817,7.22512663 7.56033813,7.31210568 7.24091433,7.10514398 C6.92149053,6.89818229 6.83308108,6.47565202 7.04344631,6.16139623 L7.04344631,6.16139623 L8.61652532,3.81143946 C5.59027304,4.43960297 3.30813181,7.09026523 3.30813181,10.2502801 C3.30813181,11.8999336 3.94778439,13.4971133 5.10379121,14.7327024 C5.36281588,15.009559 5.34466937,15.4405792 5.06325986,15.6954131 C4.78185034,15.9502469 4.34374187,15.932394 4.0847172,15.6555375 C2.69446815,14.1695804 1.92307692,12.243456 1.92307692,10.2502801 C1.92307692,5.8725754 5.54658532,2.30769231 9.99628233,2.30769231 Z" id="形状结合"></path>
        </g>
    </g>
</svg>