<?xml version="1.0" encoding="UTF-8"?>
<svg width="18px" height="18px" viewBox="0 0 18 18" version="1.1" xmlns="http://www.w3.org/2000/svg" xmlns:xlink="http://www.w3.org/1999/xlink">
    <title>icon_betlist_search_black</title>
    <g id="icon_betlist_search_black" stroke="none" stroke-width="1" fill="none" fill-rule="evenodd" opacity="0.400000006">
        <g id="icon/搜索" fill="#000000">
            <path d="M8.70840653,-2.06057393e-13 C13.5179267,-2.06057393e-13 17.4168131,3.90733309 17.4168131,8.72727273 C17.4168131,10.726705 16.745893,12.5690961 15.6173635,14.040673 C15.657777,14.0649588 15.6960978,14.0961893 15.731735,14.1317494 L15.7328827,14.1328971 L17.312414,15.7158504 C17.6045425,16.0086118 17.6045425,16.4826009 17.312414,16.7753623 L17.0524055,17.0359341 C16.7598294,17.329144 16.2849559,17.3296579 15.991746,17.0370818 C15.991363,17.0366996 15.9909804,17.036317 15.9905983,17.0359341 L14.4110669,15.4529808 L14.3469982,15.3783422 C12.8277007,16.6732156 10.859101,17.4545455 8.70840653,17.4545455 C3.89888641,17.4545455 2.13162821e-14,13.5472124 2.13162821e-14,8.72727273 C2.13162821e-14,3.90733309 3.89888641,-2.06057393e-13 8.70840653,-2.06057393e-13 Z M8.70840653,1.87012987 C4.92949786,1.87012987 1.86608711,4.9401773 1.86608711,8.72727273 C1.86608711,12.5143682 4.92949786,15.5844156 8.70840653,15.5844156 C12.4873152,15.5844156 15.550726,12.5143682 15.550726,8.72727273 C15.550726,4.9401773 12.4873152,1.87012987 8.70840653,1.87012987 Z" id="形状结合"></path>
        </g>
    </g>
</svg>