<?xml version="1.0" encoding="UTF-8"?>
<svg width="26px" height="26px" viewBox="0 0 26 26" version="1.1" xmlns="http://www.w3.org/2000/svg" xmlns:xlink="http://www.w3.org/1999/xlink">
    <title>icon_sdk_betlist</title>
    <g id="icon_sdk_betlist" stroke="none" stroke-width="1" fill="none" fill-rule="evenodd">
        <g id="ico/16/左备份">
            <circle id="椭圆形" fill="#5078FF" cx="18.6875" cy="10.5625" r="4.0625"></circle>
            <path d="M4.68341376,1.62545435 C5.09102144,1.61273865 5.44024781,1.86811232 5.57054427,2.24198926 L5.60053104,2.34678141 L6.28142114,5.56500982 L23.4982137,5.73146991 C23.9984595,5.73146991 24.4014353,6.14762013 24.3736438,6.66087208 L24.366696,6.7111569 L24.366696,6.7111569 L24.3597481,6.77184547 L23.0813422,15.9826371 C23.0303913,16.3768239 22.7108863,16.6894182 22.3154856,16.7494646 L22.2059121,16.7594509 L8.72706722,17.1339861 L9.08835584,18.8540737 L20.399469,18.840202 C20.4828433,18.840202 20.5662176,18.840202 20.6495919,18.8679454 C21.2748991,18.923432 21.816832,19.1453788 22.2337035,19.5060424 C22.6227836,19.8389625 23.0813422,20.4909312 23.0813422,21.6145368 C23.0813422,23.140421 21.8446235,24.375 20.3160947,24.375 C18.7875659,24.375 17.5508471,23.140421 17.5508471,21.6145368 C17.5508471,21.3371034 17.5953134,21.0774256 17.6700168,20.8284013 L17.7314914,20.6435196 L10.6029889,20.6573913 C10.7002589,20.9625682 10.7697375,21.2816167 10.7697375,21.6145368 C10.7697375,23.140421 9.53301877,24.375 8.00448997,24.375 C6.47596117,24.375 5.23924241,23.140421 5.23924241,21.6145368 C5.23924241,20.399114 6.03328335,19.3724213 7.12921588,19.0017911 L7.29580843,18.9511754 L6.76777121,16.4681457 L6.75561246,16.454274 L6.75561246,16.454274 L6.75387549,16.4404024 L6.64270976,15.9410221 L3.97473222,3.47038702 L2.55736915,3.51200204 C2.05712336,3.52587371 1.64025187,3.13746684 1.62635616,2.63808657 C1.60054983,2.17437632 1.94617032,1.78243075 2.39620112,1.71769795 L2.50178629,1.7086844 L4.68341376,1.62545435 Z M8.00448997,20.6573913 C7.47645275,20.6573913 7.04568554,21.0874132 7.04568554,21.6145368 C7.04568554,22.1416605 7.47645275,22.5716824 8.00448997,22.5716824 C8.53252719,22.5716824 8.9632944,22.1416605 8.9632944,21.6145368 C8.9632944,21.0874132 8.53252719,20.6573913 8.00448997,20.6573913 Z M20.3299904,20.6573913 C19.8019532,20.6573913 19.371186,21.0874132 19.371186,21.6145368 C19.371186,22.1416605 19.8019532,22.5716824 20.3299904,22.5716824 C20.8580276,22.5716824 21.2887948,22.1555321 21.2887948,21.6145368 C21.2887948,21.0180548 21.1220462,20.6573913 20.3299904,20.6573913 Z M6.69829263,7.38219914 L8.36577859,15.3306684 L21.4138563,14.9700049 L22.456035,7.53478755 L6.69829263,7.38219914 Z" id="形状结合" fill="#222222"></path>
        </g>
    </g>
</svg>