<?xml version="1.0" encoding="UTF-8"?>
<svg width="16px" height="16px" viewBox="0 0 16 16" version="1.1" xmlns="http://www.w3.org/2000/svg" xmlns:xlink="http://www.w3.org/1999/xlink">
    <title>icon_bet_close_red</title>
    <defs>
        <path d="M6.93333354,0.711111111 C7.12970145,0.711111111 7.2888891,0.870298756 7.2888891,1.06666667 C7.2888891,1.20739547 7.20713034,1.32902849 7.0885208,1.38665775 C7.07635463,1.39624171 7.05959674,1.41012071 7.03906455,1.42779601 C6.97325592,1.48444787 6.8771389,1.57264515 6.75213814,1.6912555 C6.49722884,1.93313306 6.12593937,2.29787214 5.63906243,2.78474908 C5.31158042,3.11223108 4.93202294,3.49474954 4.50040566,3.93228907 C5.2588726,4.70666139 6.15546836,5.62409425 7.18815797,6.68537334 C7.32510249,6.8261091 7.32202909,7.05121345 7.18129333,7.18815797 C7.04055756,7.32510249 6.81545322,7.32202909 6.6785087,7.18129333 C5.65008537,6.12439863 4.75690633,5.21044733 3.99903732,4.43950394 C3.24309388,5.21044733 2.34991484,6.12439863 1.32149151,7.18129333 C1.18454699,7.32202909 0.959442644,7.32510249 0.818706883,7.18815797 C0.677971122,7.05121345 0.674897716,6.8261091 0.811842238,6.68537334 C1.84453185,5.62409425 2.74112761,4.70666139 3.50169586,3.93300967 C3.06797727,3.49474954 2.68841978,3.11223108 2.36093778,2.78474908 C1.87406084,2.29787214 1.50277136,1.93313306 1.24786207,1.6912555 C1.12286131,1.57264515 1.02674429,1.48444787 0.960935659,1.42779601 C0.940403464,1.41012071 0.923645582,1.39624171 0.911479409,1.38665775 C0.792869869,1.32902849 0.711111111,1.20739547 0.711111111,1.06666667 C0.711111111,0.870298756 0.870298756,0.711111111 1.06666667,0.711111111 C1.18123976,0.711111111 1.22646213,0.736121256 1.3170185,0.801878007 C1.34737974,0.823924563 1.38258716,0.85246799 1.42487368,0.88887066 C1.44391584,0.905263251 1.46467739,0.923503697 1.48718058,0.943609691 L1.64327763,1.08677378 L1.64327763,1.08677378 L1.73733488,1.17541117 C1.99765454,1.4224225 2.37286843,1.79101675 2.86376927,2.28191759 C3.19074127,2.60888959 3.56925021,2.99033777 3.99931157,3.42627732 C4.35499304,3.0671302 4.67430765,2.74496759 4.95864113,2.45978101 L5.13623094,2.28191759 C5.62713178,1.79101675 6.00234566,1.4224225 6.26266532,1.17541117 C6.39527904,1.04957707 6.49895789,0.954441022 6.57512653,0.88887066 C6.61741305,0.85246799 6.65262047,0.823924563 6.68298171,0.801878007 C6.77353808,0.736121256 6.81876045,0.711111111 6.93333354,0.711111111 Z" id="path-1"></path>
        <filter x="-68.4%" y="-68.4%" width="236.8%" height="236.8%" filterUnits="objectBoundingBox" id="filter-2">
            <feOffset dx="0" dy="0" in="SourceAlpha" result="shadowOffsetOuter1"></feOffset>
            <feGaussianBlur stdDeviation="1.5" in="shadowOffsetOuter1" result="shadowBlurOuter1"></feGaussianBlur>
            <feColorMatrix values="0 0 0 0 0.789572011   0 0 0 0 0.789572011   0 0 0 0 0.789572011  0 0 0 0.1 0" type="matrix" in="shadowBlurOuter1"></feColorMatrix>
        </filter>
    </defs>
    <g id="icon_bet_close_red" stroke="none" stroke-width="1" fill="none" fill-rule="evenodd">
        <circle id="椭圆形" fill="#FF9090" cx="8" cy="8" r="8"></circle>
        <g id="形状结合" transform="translate(4.000000, 4.000000)">
            <use fill="black" fill-opacity="1" filter="url(#filter-2)" xlink:href="#path-1"></use>
            <use fill="#FFFFFF" fill-rule="evenodd" xlink:href="#path-1"></use>
        </g>
    </g>
</svg>