<?xml version="1.0" encoding="UTF-8"?>
<svg width="12px" height="12px" viewBox="0 0 12 12" version="1.1" xmlns="http://www.w3.org/2000/svg" xmlns:xlink="http://www.w3.org/1999/xlink">
    <title>icon_warning_bet_bk</title>
    <g id="icon_warning_bet_bk" stroke="none" stroke-width="1" fill="none" fill-rule="evenodd">
        <g id="编组" fill="#FD8339" fill-rule="nonzero">
            <g id="icon/提示">
                <path d="M5.9814313,0.000756821362 C3.56688438,0.000756821362 1.39008929,1.45524479 0.466082186,3.68599527 C-0.457924919,5.91674575 0.0528233345,8.48445062 1.76016584,10.1917931 C3.46750834,11.8991356 6.03521321,12.4098839 8.26596369,11.4858768 C10.4967142,10.5618697 11.9512021,8.38507458 11.9512021,5.97052766 C11.9462009,2.67558805 9.27637091,0.00575800772 5.9814313,0.000756821362 Z M7.10379059,4.57193024 L5.94661772,8.59214102 C5.89978901,8.73776285 5.86858395,8.88795304 5.85352926,9.04017656 C5.85501235,9.08198025 5.8716964,9.12180669 5.9004519,9.15218545 C5.92748605,9.18672372 5.96860968,9.20728553 6.01246079,9.20818989 C6.08582606,9.20489067 6.15549049,9.17503448 6.20847633,9.12418323 C6.44512184,8.9018615 6.64897708,8.64704245 6.81392976,8.36736644 L7.00994531,8.47937533 C6.44081909,9.46853488 5.83460884,9.96273624 5.20039636,9.96273623 C4.98506562,9.97415701 4.77387139,9.90049725 4.61234972,9.75763889 C4.46751885,9.62361919 4.38915462,9.43255448 4.39817057,9.2354353 C4.40355143,9.0552859 4.43490411,8.87685607 4.49125904,8.70566355 L5.27456441,6.00080034 C5.3365699,5.8102978 5.37420548,5.61271101 5.3865733,5.41275368 C5.38578467,5.32395804 5.34454718,5.24036852 5.27456441,5.18570865 C5.19339709,5.11930686 5.09012277,5.0860536 4.9854604,5.09262018 C4.91697514,5.09158671 4.84848892,5.09461931 4.78036305,5.10170198 L4.85604473,4.87465695 L6.76776393,4.57193024 L7.10379059,4.57193024 L7.10379059,4.57193024 Z M7.33689017,3.38751195 C7.12680134,3.59584328 6.82152781,3.67626832 6.53606317,3.59849172 C6.25059852,3.52071512 6.02831164,3.296553 5.95293583,3.01044507 C5.87756002,2.72433714 5.96054666,2.41974999 6.17063549,2.21141866 C6.40891198,1.97545818 6.7655006,1.90549743 7.07526987,2.03393432 C7.38503914,2.16237121 7.58750577,2.46412808 7.58891016,2.79946531 C7.58888064,3.0214822 7.49778346,3.23376872 7.33689017,3.38675514 L7.33689017,3.38751195 Z" id="形状"></path>
            </g>
        </g>
    </g>
</svg>