<?xml version="1.0" encoding="UTF-8"?>
<svg width="20px" height="20px" viewBox="0 0 20 20" version="1.1" xmlns="http://www.w3.org/2000/svg" xmlns:xlink="http://www.w3.org/1999/xlink">
    <!-- Generator: Sketch 55.2 (78181) - https://sketchapp.com -->
    <title>form_radio_normal_slice</title>
    <desc>Created with Sketch.</desc>
    <g id="切图" stroke="none" stroke-width="1" fill="none" fill-rule="evenodd">
        <g id="画板" transform="translate(-64.000000, -15.000000)">
            <g id="form_radio_normal" transform="translate(64.000000, 15.000000)">
                <rect id="矩形" x="0" y="0" width="20" height="20"></rect>
                <path d="M10,18 C5.581722,18 2,14.418278 2,10 C2,5.581722 5.581722,2 10,2 C14.418278,2 18,5.581722 18,10 C18,14.418278 14.418278,18 10,18 Z M7.09590864,10.0404446 C6.84520438,9.7679234 6.43873246,9.7679234 6.1880282,10.0404446 C5.93732393,10.3129659 5.93732393,10.7548101 6.1880282,11.0273314 L8.7346884,13.7956091 C8.98515692,14.0678741 9.39116329,14.0681675 9.64196471,13.7962649 L14.8113677,8.19193352 C15.0624051,7.91977497 15.0629457,7.47793112 14.8125751,7.20504766 C14.5622045,6.9321642 14.155733,6.93157654 13.9046955,7.20373509 L9.18923197,12.3159348 L7.09590864,10.0404446 Z" id="形状" fill="#F4F5F8" fill-rule="nonzero" opacity="0.100000001"></path>
            </g>
        </g>
    </g>
</svg>