<?xml version="1.0" encoding="UTF-8"?>
<svg width="12px" height="12px" viewBox="0 0 12 12" version="1.1" xmlns="http://www.w3.org/2000/svg" xmlns:xlink="http://www.w3.org/1999/xlink">
    <title>icon_bet_lock</title>
    <g id="icon_bet_lock" stroke="none" stroke-width="1" fill="none" fill-rule="evenodd" fill-opacity="0.18">
        <g id="icon/锁" fill="#3C3C43">
            <path d="M10.125,4.37212821 L9.3,4.37212821 L9.3,3.28121913 C9.3,1.48121913 7.815,0.00849185207 6,0.00849185207 C4.185,0.00849185207 2.7,1.48121913 2.7,3.28121913 L2.7,4.37212821 L1.875,4.37212821 C1.10500001,4.37212821 0.5,4.97212821 0.5,5.73576458 L0.5,10.6448555 C0.5,11.4084919 1.10500001,12.0084919 1.875,12.0084919 L10.125,12.0084919 C10.895,12.0084919 11.5,11.4084919 11.5,10.6448555 L11.5,5.73576458 C11.5,4.97212822 10.895,4.37212821 10.125,4.37212821 Z M6.55,9.28121913 C6.55,9.60849185 6.33,9.82667368 6,9.82667368 C5.67,9.82667368 5.45,9.60849185 5.45,9.28121913 L5.45,7.09940094 C5.45,6.77212821 5.67,6.5539464 6,6.5539464 C6.33,6.5539464 6.55,6.77212822 6.55,7.09940094 L6.55,9.28121913 Z M8.2,4.37212821 L3.8,4.37212821 L3.8,3.28121913 C3.8,2.08121912 4.79,1.09940094 6,1.09940094 C7.21,1.09940094 8.2,2.08121912 8.2,3.28121913 L8.2,4.37212821 Z" id="形状"></path>
        </g>
    </g>
</svg>