<svg height="106" viewBox="0 0 196 106" width="196" xmlns="http://www.w3.org/2000/svg" xmlns:xlink="http://www.w3.org/1999/xlink"><defs><rect id="a" height="106" rx="2" width="195" x=".566987"/><mask id="b" fill="#fff"><use fill="#fff" fill-rule="evenodd" xlink:href="#a"/></mask></defs><g fill="none" fill-rule="evenodd"><use fill="#f9f9f9" xlink:href="#a"/><path d="m9.70096189-3.60159699 2.59807621 1.5-67.5 116.91342999-2.5980762-1.5zm6.00000001 0 2.5980762 1.5-67.5 116.91342999-2.5980762-1.5zm6 0 2.5980762 1.5-67.5 116.91342999-2.5980762-1.5zm6 0 2.5980762 1.5-67.5 116.91342999-2.5980762-1.5zm6 0 2.5980762 1.5-67.5 116.91342999-2.5980762-1.5zm6 0 2.5980762 1.5-67.5 116.91342999-2.5980762-1.5zm6 0 2.5980762 1.5-67.5 116.91342999-2.5980762-1.5zm6 0 2.5980762 1.5-67.5 116.91342999-2.5980762-1.5zm6 0 2.5980762 1.5-67.49999999 116.91342999-2.59807622-1.5zm6 0 2.5980762 1.5-67.49999999 116.91342999-2.59807622-1.5zm6 0 2.5980762 1.5-67.49999999 116.91342999-2.59807622-1.5zm6 0 2.5980762 1.5-67.5 116.91342999-2.59807621-1.5zm6 0 2.5980762 1.5-67.5 116.91342999-2.5980762-1.5zm6 0 2.5980762 1.5-67.5 116.91342999-2.5980762-1.5zm6 0 2.5980762 1.5-67.5 116.91342999-2.5980762-1.5zm6 0 2.5980761 1.5-67.4999999 116.91342999-2.5980762-1.5zm6.0000001 0 2.598076 1.5-67.4999999 116.91342999-2.5980762-1.5zm6 0 2.598076 1.5-67.4999999 116.91342999-2.5980762-1.5zm6 0 2.598076 1.5-67.4999999 116.91342999-2.5980762-1.5zm6 0 2.598076 1.5-67.4999999 116.91342999-2.5980762-1.5zm6 0 2.598076 1.5-67.4999999 116.91342999-2.5980762-1.5zm6 0 2.598076 1.5-67.4999999 116.91342999-2.5980762-1.5zm6 0 2.598076 1.5-67.4999999 116.91342999-2.5980762-1.5zm6 0 2.598076 1.5-67.4999999 116.91342999-2.5980762-1.5zm6 0 2.598076 1.5-67.4999999 116.91342999-2.5980762-1.5zm6 0 2.598076 1.5-67.4999999 116.91342999-2.5980762-1.5zm6 0 2.598076 1.5-67.5 116.91342999-2.5980761-1.5zm6 0 2.598076 1.5-67.5 116.91342999-2.598076-1.5zm6 0 2.598076 1.5-67.5 116.91342999-2.598076-1.5zm6 0 2.598076 1.5-67.5 116.91342999-2.598076-1.5zm6 0 2.598076 1.5-67.5 116.91342999-2.598076-1.5zm6 0 2.598076 1.5-67.5 116.91342999-2.598076-1.5zm6 0 2.598076 1.5-67.5 116.91342999-2.598076-1.5zm6 0 2.598076 1.5-67.5 116.91342999-2.598076-1.5zm6 0 2.598076 1.5-67.5 116.91342999-2.598076-1.5zm6 0 2.598076 1.5-67.5 116.91342999-2.598076-1.5zm6 0 2.598076 1.5-67.5 116.91342999-2.598076-1.5zm6 0 2.598076 1.5-67.5 116.91342999-2.598076-1.5zm6 0 2.598076 1.5-67.5 116.91342999-2.598076-1.5zm6 0 2.598076 1.5-67.5 116.91342999-2.598076-1.5zm6 0 2.598076 1.5-67.5 116.91342999-2.598076-1.5z" fill="#fcfcfc" mask="url(#b)"/></g></svg>