<?xml version="1.0" encoding="UTF-8"?>
<svg width="196px" height="106px" viewBox="0 0 196 106" version="1.1" xmlns="http://www.w3.org/2000/svg" xmlns:xlink="http://www.w3.org/1999/xlink">
    <title>list_empty_lock_blank</title>
    <defs>
        <rect id="path-1" x="0.566987298" y="0" width="195" height="106" rx="2"></rect>
    </defs>
    <g id="list_empty_lock_blank" stroke="none" stroke-width="1" fill="none" fill-rule="evenodd">
        <g id="矩形备份-17">
            <mask id="mask-2" fill="white">
                <use xlink:href="#path-1"></use>
            </mask>
            <use id="蒙版" fill="#111D38" xlink:href="#path-1"></use>
            <path d="M9.70096189,-3.60159699 L12.2990381,-2.10159699 L-55.2009619,114.811833 L-57.7990381,113.311833 L9.70096189,-3.60159699 Z M15.7009619,-3.60159699 L18.2990381,-2.10159699 L-49.2009619,114.811833 L-51.7990381,113.311833 L15.7009619,-3.60159699 Z M21.7009619,-3.60159699 L24.2990381,-2.10159699 L-43.2009619,114.811833 L-45.7990381,113.311833 L21.7009619,-3.60159699 Z M27.7009619,-3.60159699 L30.2990381,-2.10159699 L-37.2009619,114.811833 L-39.7990381,113.311833 L27.7009619,-3.60159699 Z M33.7009619,-3.60159699 L36.2990381,-2.10159699 L-31.2009619,114.811833 L-33.7990381,113.311833 L33.7009619,-3.60159699 Z M39.7009619,-3.60159699 L42.2990381,-2.10159699 L-25.2009619,114.811833 L-27.7990381,113.311833 L39.7009619,-3.60159699 Z M45.7009619,-3.60159699 L48.2990381,-2.10159699 L-19.2009619,114.811833 L-21.7990381,113.311833 L45.7009619,-3.60159699 Z M51.7009619,-3.60159699 L54.2990381,-2.10159699 L-13.2009619,114.811833 L-15.7990381,113.311833 L51.7009619,-3.60159699 Z M57.7009619,-3.60159699 L60.2990381,-2.10159699 L-7.20096189,114.811833 L-9.79903811,113.311833 L57.7009619,-3.60159699 Z M63.7009619,-3.60159699 L66.2990381,-2.10159699 L-1.20096189,114.811833 L-3.79903811,113.311833 L63.7009619,-3.60159699 Z M69.7009619,-3.60159699 L72.2990381,-2.10159699 L4.79903811,114.811833 L2.20096189,113.311833 L69.7009619,-3.60159699 Z M75.7009619,-3.60159699 L78.2990381,-2.10159699 L10.7990381,114.811833 L8.20096189,113.311833 L75.7009619,-3.60159699 Z M81.7009619,-3.60159699 L84.2990381,-2.10159699 L16.7990381,114.811833 L14.2009619,113.311833 L81.7009619,-3.60159699 Z M87.7009619,-3.60159699 L90.2990381,-2.10159699 L22.7990381,114.811833 L20.2009619,113.311833 L87.7009619,-3.60159699 Z M93.7009619,-3.60159699 L96.2990381,-2.10159699 L28.7990381,114.811833 L26.2009619,113.311833 L93.7009619,-3.60159699 Z M99.7009619,-3.60159699 L102.299038,-2.10159699 L34.7990381,114.811833 L32.2009619,113.311833 L99.7009619,-3.60159699 Z M105.700962,-3.60159699 L108.299038,-2.10159699 L40.7990381,114.811833 L38.2009619,113.311833 L105.700962,-3.60159699 Z M111.700962,-3.60159699 L114.299038,-2.10159699 L46.7990381,114.811833 L44.2009619,113.311833 L111.700962,-3.60159699 Z M117.700962,-3.60159699 L120.299038,-2.10159699 L52.7990381,114.811833 L50.2009619,113.311833 L117.700962,-3.60159699 Z M123.700962,-3.60159699 L126.299038,-2.10159699 L58.7990381,114.811833 L56.2009619,113.311833 L123.700962,-3.60159699 Z M129.700962,-3.60159699 L132.299038,-2.10159699 L64.7990381,114.811833 L62.2009619,113.311833 L129.700962,-3.60159699 Z M135.700962,-3.60159699 L138.299038,-2.10159699 L70.7990381,114.811833 L68.2009619,113.311833 L135.700962,-3.60159699 Z M141.700962,-3.60159699 L144.299038,-2.10159699 L76.7990381,114.811833 L74.2009619,113.311833 L141.700962,-3.60159699 Z M147.700962,-3.60159699 L150.299038,-2.10159699 L82.7990381,114.811833 L80.2009619,113.311833 L147.700962,-3.60159699 Z M153.700962,-3.60159699 L156.299038,-2.10159699 L88.7990381,114.811833 L86.2009619,113.311833 L153.700962,-3.60159699 Z M159.700962,-3.60159699 L162.299038,-2.10159699 L94.7990381,114.811833 L92.2009619,113.311833 L159.700962,-3.60159699 Z M165.700962,-3.60159699 L168.299038,-2.10159699 L100.799038,114.811833 L98.2009619,113.311833 L165.700962,-3.60159699 Z M171.700962,-3.60159699 L174.299038,-2.10159699 L106.799038,114.811833 L104.200962,113.311833 L171.700962,-3.60159699 Z M177.700962,-3.60159699 L180.299038,-2.10159699 L112.799038,114.811833 L110.200962,113.311833 L177.700962,-3.60159699 Z M183.700962,-3.60159699 L186.299038,-2.10159699 L118.799038,114.811833 L116.200962,113.311833 L183.700962,-3.60159699 Z M189.700962,-3.60159699 L192.299038,-2.10159699 L124.799038,114.811833 L122.200962,113.311833 L189.700962,-3.60159699 Z M195.700962,-3.60159699 L198.299038,-2.10159699 L130.799038,114.811833 L128.200962,113.311833 L195.700962,-3.60159699 Z M201.700962,-3.60159699 L204.299038,-2.10159699 L136.799038,114.811833 L134.200962,113.311833 L201.700962,-3.60159699 Z M207.700962,-3.60159699 L210.299038,-2.10159699 L142.799038,114.811833 L140.200962,113.311833 L207.700962,-3.60159699 Z M213.700962,-3.60159699 L216.299038,-2.10159699 L148.799038,114.811833 L146.200962,113.311833 L213.700962,-3.60159699 Z M219.700962,-3.60159699 L222.299038,-2.10159699 L154.799038,114.811833 L152.200962,113.311833 L219.700962,-3.60159699 Z M225.700962,-3.60159699 L228.299038,-2.10159699 L160.799038,114.811833 L158.200962,113.311833 L225.700962,-3.60159699 Z M231.700962,-3.60159699 L234.299038,-2.10159699 L166.799038,114.811833 L164.200962,113.311833 L231.700962,-3.60159699 Z M237.700962,-3.60159699 L240.299038,-2.10159699 L172.799038,114.811833 L170.200962,113.311833 L237.700962,-3.60159699 Z M243.700962,-3.60159699 L246.299038,-2.10159699 L178.799038,114.811833 L176.200962,113.311833 L243.700962,-3.60159699 Z M249.700962,-3.60159699 L252.299038,-2.10159699 L184.799038,114.811833 L182.200962,113.311833 L249.700962,-3.60159699 Z" id="形状结合" fill="#FFFFFF" opacity="0.05" mask="url(#mask-2)"></path>
        </g>
    </g>
</svg>