<?xml version="1.0" encoding="UTF-8"?>
<svg width="22px" height="22px" viewBox="0 0 22 22" version="1.1" xmlns="http://www.w3.org/2000/svg" xmlns:xlink="http://www.w3.org/1999/xlink">
    <!-- Generator: Sketch 55.2 (78181) - https://sketchapp.com -->
    <title>ico/首页/搜索_slice</title>
    <desc>Created with Sketch.</desc>
    <g id="切图" stroke="none" stroke-width="1" fill="none" fill-rule="evenodd">
        <g id="画板" transform="translate(-140.000000, -265.000000)" fill="#CCCCCC" fill-rule="nonzero">
            <g id="全局/顶部tab//search" transform="translate(140.000000, 265.000000)">
                <path d="M14.6960774,15.945781 C13.6234331,16.6139825 12.3567961,17 11,17 C7.13400675,17 4,13.8659932 4,10 C4,6.13400675 7.13400675,3 11,3 C14.8659932,3 18,6.13400675 18,10 C18,11.8383272 17.2913637,13.5111436 16.132354,14.7601863 L17.4028797,16.3228565 C17.7324324,16.7281865 17.6864625,17.3206879 17.2983339,17.6703357 C16.93465,17.9979623 16.3742321,17.9687321 16.0466055,17.6050482 C16.0365912,17.5939318 16.02686,17.5825636 16.0174212,17.5709545 L14.6960774,15.945781 Z M11,15 C13.7614237,15 16,12.7614237 16,10 C16,7.23857625 13.7614237,5 11,5 C8.23857625,5 6,7.23857625 6,10 C6,12.7614237 8.23857625,15 11,15 Z" id="形状结合"></path>
            </g>
        </g>
    </g>
</svg>