<?xml version="1.0" encoding="UTF-8"?>
<svg width="12px" height="12px" viewBox="0 0 12 12" version="1.1" xmlns="http://www.w3.org/2000/svg" xmlns:xlink="http://www.w3.org/1999/xlink">
    <title>icon_bet_share</title>
    <g id="icon_bet_share" stroke="none" stroke-width="1" fill="none" fill-rule="evenodd">
        <path d="M6.12534234,1.01663381 C6.50443483,1.01663381 6.8117967,1.32399568 6.8117967,1.70308817 C6.8117967,2.08218066 6.50443483,2.38954253 6.12534234,2.38954253 L6.12534234,2.38954253 L4.12059673,2.38954253 C2.89683757,2.38954253 1.90133413,3.38504597 1.90133413,4.60880513 L1.90133413,4.60880513 L1.90133413,8.40763585 C1.90133413,9.63141106 2.89683757,10.6270752 4.12059673,10.6270752 L4.12059673,10.6270752 L7.91942745,10.6270752 C9.14320271,10.6270752 10.1388668,9.63139501 10.1388668,8.40763585 L10.1388668,8.40763585 L10.1388668,5.37772397 C10.1388668,4.99863148 10.4462287,4.69126961 10.8253212,4.69126961 C11.2044137,4.69126966 11.5117755,4.99863152 11.5117755,5.37774007 L11.5117755,5.37774007 L11.5117755,8.40765191 C11.5117755,10.3884231 9.90021465,12 7.91942745,12 L7.91942745,12 L4.12059673,12 C2.13980953,12 0.528409354,10.3884391 0.528409354,8.40765191 L0.528409354,8.40765191 L0.528409354,4.60882119 C0.528409354,2.62803399 2.13980953,1.01663381 4.12059673,1.01663381 L4.12059673,1.01663381 Z M7.93051484,0.201115713 C8.19831563,-0.0670385711 8.63339142,-0.0670385711 8.90120826,0.201115713 L8.90120826,0.201115713 L11.0689225,2.36884603 C11.1009913,2.40098556 11.1298083,2.43621297 11.1549543,2.47401561 C11.1660255,2.49056634 11.1735939,2.50854721 11.1830744,2.52580498 C11.195126,2.54772268 11.2083184,2.56883694 11.2179596,2.59208832 C11.2273276,2.61471306 11.2327106,2.63835009 11.2395559,2.66168182 C11.2453246,2.68125348 11.2528769,2.69994133 11.256894,2.72017183 C11.2745535,2.80893314 11.2745535,2.90030395 11.256894,2.98906526 C11.2528768,3.00931185 11.2453246,3.02803186 11.2395559,3.04760352 C11.2327106,3.070887 11.2273276,3.09452407 11.2179596,3.11714877 C11.2083184,3.14040015 11.195126,3.1614662 11.1830744,3.18338391 C11.1735939,3.20067383 11.1660256,3.21865469 11.1549382,3.23520542 C11.1046366,3.31051529 11.0399938,3.37517985 10.964701,3.42550691 C10.9477806,3.43681924 10.9294302,3.44458042 10.9117707,3.45425378 C10.8902226,3.46606427 10.8694779,3.47906385 10.8465961,3.48852829 C10.8238268,3.49796063 10.8000934,3.50339182 10.7766331,3.51026923 C10.7571739,3.51597365 10.7385664,3.52350984 10.7184323,3.52749489 C10.6740506,3.53633266 10.6290422,3.5410729 10.5839856,3.5410729 C8.1515397,3.5410729 6.17260038,5.52001222 6.17260038,7.95245809 C6.17260038,8.33155058 5.86523852,8.63891245 5.48614602,8.63891245 C5.10705353,8.63891245 4.79969166,8.33155058 4.79969166,7.95245809 C4.79969166,5.27009593 6.63525004,3.00879764 9.1160948,2.35740514 L9.1160948,2.35740514 L7.93051484,1.17180913 C7.66236056,0.903831572 7.66236056,0.469093228 7.93051484,0.201115713 Z" id="形状结合" fill="#222222"></path>
    </g>
</svg>