<?xml version="1.0" encoding="UTF-8"?>
<svg width="16px" height="16px" viewBox="0 0 16 16" version="1.1" xmlns="http://www.w3.org/2000/svg" xmlns:xlink="http://www.w3.org/1999/xlink">
    <title>icon_sharebet_share_normal</title>
    <g id="icon_sharebet_share_normal" stroke="none" stroke-width="1" fill="none" fill-rule="evenodd">
        <g id="icon/关注备份-5" fill="#071125">
            <path d="M5.89565217,2.82608696 C6.1847343,2.82608696 6.42280193,3.06613595 6.42280193,3.357624 C6.42280193,3.64911206 6.1847343,3.88916105 5.89565217,3.88916105 L5.89565217,3.88916105 L2.23111111,3.88916105 C1.94202899,3.88916105 1.70396135,4.12921004 1.70396135,4.4206981 L1.70396135,4.4206981 L1.70396135,13.4053889 C1.70396135,13.6968769 1.94202899,13.9369259 2.23111111,13.9369259 L2.23111111,13.9369259 L13.7433816,13.9369259 C14.0324638,13.9369259 14.2705314,13.6968769 14.2705314,13.4053889 L14.2705314,13.4053889 L14.2705314,8.12431108 C14.2705314,7.83282303 14.508599,7.59277404 14.7976812,7.59277404 C15.0867633,7.59277404 15.3248309,7.83282303 15.3248309,8.12431108 L15.3248309,8.12431108 L15.3333333,8.12431108 L15.3333333,13.413962 C15.3333333,14.2884262 14.6276329,15 13.7603865,15 L13.7603865,15 L2.23961353,15 C1.37236715,15 0.666666667,14.2884262 0.666666667,13.413962 L0.666666667,13.413962 L0.666666667,4.43784446 C0.666666667,3.56338028 1.37236715,2.85180649 2.23961353,2.83466013 L2.23961353,2.83466013 L5.84463768,2.83466013 C5.86164251,2.83466013 5.87864734,2.82608696 5.89565217,2.82608696 Z M5.61666667,11.4086957 C5.92042328,11.4086957 6.16666667,11.6539657 6.16666667,11.9565217 C6.16666667,12.2590777 5.92042328,12.5043478 5.61666667,12.5043478 C5.31291005,12.5043478 5.06666667,12.2590777 5.06666667,11.9565217 C5.06666667,11.6539657 5.31291005,11.4086957 5.61666667,11.4086957 Z M11.8306095,1.15965788 C12.0341248,0.946780708 12.3648371,0.946780708 12.5683523,1.15965788 L12.5683523,1.15965788 L14.5695858,3.25295003 C14.773101,3.4658272 14.773101,3.81175259 14.5695858,4.02462976 L14.5695858,4.02462976 L13.1280193,6.25984003 C12.8905848,6.5702859 12.5937918,6.47271719 12.3902765,6.25984003 C12.1867612,6.04696286 12.2545997,5.80747604 12.3902765,5.48816029 L12.3902765,5.48816029 L12.9329839,4.18428764 C9.75305787,4.55682268 7.19215747,7.05812941 6.59009148,10.2956363 L6.59009148,10.2956363 C6.53073286,10.5528629 6.3356974,10.7391304 6.08130332,10.7391304 C5.79299003,10.7391304 5.55555556,10.4907737 5.55555556,10.1891978 C5.55555556,10.1093688 5.57251516,10.0295399 5.60643437,9.95858082 C6.352657,6.27757979 9.28666872,3.45695731 12.9329839,3.08442227 L12.9329839,3.08442227 L11.8306095,1.93133761 C11.6270943,1.71846044 11.6270943,1.37253504 11.8306095,1.15965788 Z" id="形状结合"></path>
        </g>
    </g>
</svg>