<?xml version="1.0" encoding="UTF-8"?>
<svg width="20px" height="20px" viewBox="0 0 20 20" version="1.1" xmlns="http://www.w3.org/2000/svg" xmlns:xlink="http://www.w3.org/1999/xlink">
    <title>icon_sharebet_x_white</title>
    <g id="icon_sharebet_x_white" stroke="none" stroke-width="1" fill="none" fill-rule="evenodd">
        <g id="编组" fill="#FFFFFF" fill-rule="nonzero">
            <g id="形状结合-2" transform="translate(-1.875000, -1.875000)">
                <path d="M12,3.75 C12.2761424,3.75 12.5,3.97385763 12.5,4.25 L12.5,11.25 L19.5,11.25 C19.7761424,11.25 20,11.4738576 20,11.75 L20,12 C20,12.2761424 19.7761424,12.5 19.5,12.5 L12.5,12.5 L12.5,19.5 C12.5,19.7761424 12.2761424,20 12,20 L11.75,20 C11.4738576,20 11.25,19.7761424 11.25,19.5 L11.249,12.5 L4.25,12.5 C3.97385763,12.5 3.75,12.2761424 3.75,12 L3.75,11.75 C3.75,11.4738576 3.97385763,11.25 4.25,11.25 L11.25,11.25 L11.25,4.25 C11.25,3.97385763 11.4738576,3.75 11.75,3.75 L12,3.75 Z" id="形状结合" transform="translate(11.875000, 11.875000) rotate(-315.000000) translate(-11.875000, -11.875000) "></path>
            </g>
        </g>
    </g>
</svg>