<?xml version="1.0" encoding="UTF-8"?>
<svg width="75px" height="86px" viewBox="0 0 75 86" version="1.1" xmlns="http://www.w3.org/2000/svg" xmlns:xlink="http://www.w3.org/1999/xlink">
    <title>画板</title>
    <defs>
        <rect id="path-1" x="0" y="0" width="83" height="92" rx="8"></rect>
    </defs>
    <g id="画板" stroke="none" stroke-width="1" fill="none" fill-rule="evenodd">
        <g id="ico/体育项/足球_大">
            <mask id="mask-2" fill="white">
                <use xlink:href="#path-1"></use>
            </mask>
            <g id="蒙版"></g>
            <g id="编组" mask="url(#mask-2)" opacity="0.100000001">
                <g transform="translate(-54.000000, -37.000000)" id="ico/体育项/足球_大">
                    <g id="形状结合-2" transform="translate(7.166667, 7.166667)" fill="#FFFFFF" fill-rule="nonzero">
                        <path d="M57.3333333,3.19744231e-13 L58.0346277,0.00399546647 C69.9295981,0.139754134 80.4458333,3.7306886 89.5833333,10.0964361 L89.5833333,10.0964361 L90.0611111,10.5524871 C91.3351852,11.7079483 92.6092593,12.420219 93.8833333,13.7023061 C95.3166667,14.4234801 96.75,15.8658281 98.1833333,17.3081761 C101.05,20.1928721 103.2,23.0775681 105.35,25.9622642 C111.083333,34.6163522 114.666667,46.1551363 114.666667,57.6939203 C114.666667,62.7421384 113.95,68.5115304 111.8,72.8385744 C109.65,80.0503145 106.783333,87.2620545 101.766667,93.0314465 C91.7333333,105.291405 76.6833333,113.945493 59.4833333,114.666667 L59.4833333,114.666667 L52.3166667,114.666667 C46.5833333,113.945493 41.5666667,112.503145 37.2666667,111.060797 C29.3833333,108.176101 22.2166667,103.849057 16.4833333,98.0796646 C10.75,92.3102725 6.45,85.0985325 3.58333333,77.1656184 L3.58333333,77.1656184 L3.33768573,76.6564077 C2.06568627,73.939051 1.39117647,71.1841164 0.716666667,67.7903564 C0,64.9056604 0,61.2997904 0,57.6939203 L0,55.5303983 C0.716666667,38.2222222 9.31666667,22.3563941 21.5,12.2599581 C27.2333333,7.93291405 34.4,4.32704403 41.5666667,2.16352201 C46.5833333,0.721174004 52.3166667,3.19744231e-13 57.3333333,3.19744231e-13 L57.3333333,3.19744231e-13 Z M40.85,10.8176101 L40.1333333,10.8176101 C37.9833333,11.5387841 36.55,12.2599581 35.1166667,12.9811321 L35.1166667,12.9811321 L34.4,12.9811321 C32.9666667,13.7023061 30.8166667,14.4234801 30.1,15.8658281 C29.3833333,15.8658281 29.3833333,15.8658281 29.3833333,15.8658281 L30.8166667,39.6645702 L30.8166667,43.9916143 L27.2333333,46.1551363 L7.16666667,59.1362683 C7.16666667,61.2997904 7.88333333,64.1844864 7.88333333,66.3480084 L7.88333333,66.3480084 L7.88333333,67.7903564 C8.6,69.2327044 8.6,70.6750524 9.31666667,72.1174004 L9.31666667,72.1174004 L32.25,77.8867925 L36.55,78.6079665 L37.2666667,82.9350105 L43,106.012579 C44.4333333,106.733753 45.8666667,107.454927 47.3,107.454927 L47.3,107.454927 L48.7333333,107.454927 C51.2627451,108.091257 53.2341984,108.166119 55.1400095,108.174926 L55.9,108.176101 L68.8,89.4255765 L70.95,85.8197065 L75.25,85.8197065 L98.9,87.2620545 L98.9,87.2620545 L98.9,86.5408805 C99.6166667,85.0985325 101.05,82.9350105 101.766667,81.4926625 C101.766667,80.7714885 101.766667,80.7714885 101.766667,80.7714885 L102.005556,80.2659742 C102.642593,78.8572612 103.27963,77.0053576 103.916667,75.7232704 L103.916667,75.7232704 L103.916667,75.0020964 L88.8666667,56.2515723 L86,52.6457023 L87.4333333,49.0398323 L96.0333333,26.6834382 C96.0333333,25.9622642 96.0333333,25.9622642 96.0333333,25.9622642 L95.8806568,25.6737945 C95.1255556,24.3276031 93.7877778,22.9814116 92.45,21.6352201 C91.0166667,20.1928721 89.5833333,19.4716981 88.15,18.0293501 C87.4333333,18.0293501 87.4333333,18.0293501 87.4333333,18.0293501 L65.2166667,26.6834382 L61.6333333,28.1257862 L59.4833333,25.9622642 L40.85,10.8176101 L40.85,10.8176101 Z M74.5333333,91.5890985 L64.5,107.454927 C75.25,106.012579 85.2833333,100.964361 93.1666667,93.0314465 L93.1666667,93.0314465 L74.5333333,91.5890985 Z M12.9,79.3291405 C15.05,84.3773585 18.6333333,89.4255765 22.2166667,93.0314465 C25.8,97.3584906 30.1,100.243187 35.1166667,101.685535 L35.1166667,101.685535 L30.8166667,83.6561845 Z M58.7666667,33.8951782 C60.2,33.1740042 62.35,33.8951782 63.0666667,34.6163522 L63.0666667,34.6163522 L79.55,51.9245283 C80.9833333,53.3668763 80.9833333,54.8092243 80.2666667,56.2515723 L80.2666667,56.2515723 L68.8,77.8867925 C68.8,79.3291405 67.3666667,80.0503145 65.9333333,80.0503145 C65.2166667,80.0503145 65.2166667,80.0503145 65.2166667,80.0503145 L41.5666667,76.4444444 C40.1333333,76.4444444 38.7,75.0020964 38.7,73.5597484 L38.7,73.5597484 L35.1166667,49.7610063 C35.1166667,48.3186583 35.8333333,46.1551363 37.2666667,45.4339623 L37.2666667,45.4339623 Z M60.2,41.8280922 L43,51.2033543 L45.15,69.2327044 L63.7833333,72.1174004 L73.1,54.8092243 L60.2,41.8280922 Z M101.766667,34.6163522 L94.6,51.9245283 L106.783333,66.3480084 C107.5,63.4633124 107.5,60.5786164 107.5,57.6939203 C107.5,49.0398323 105.35,41.1069182 101.766667,34.6163522 L101.766667,34.6163522 Z M22.2166667,21.6352201 C14.3333333,29.5681342 9.31666667,39.6645702 7.88333333,50.4821803 L7.88333333,50.4821803 L23.65,40.3857442 Z M57.333,7.211 L56.76,7.21195372 C54.0844444,7.21494526 51.4088889,7.25981831 48.7333333,7.93291405 L48.7333333,7.93291405 L63.0666667,20.1928721 L80.2666667,12.9811321 C73.1,9.37526205 65.2166667,7.21174004 57.3333333,7.21174004 L57.333,7.211 Z" id="形状结合"></path>
                    </g>
                </g>
            </g>
        </g>
    </g>
</svg>