<?xml version="1.0" encoding="UTF-8"?>
<svg width="53px" height="66px" viewBox="0 0 53 66" version="1.1" xmlns="http://www.w3.org/2000/svg" xmlns:xlink="http://www.w3.org/1999/xlink">
    <!-- Generator: Sketch 56.2 (81672) - https://sketch.com -->
    <title>tag_anchor_bet_finshed</title>
    <desc>Created with Sketch.</desc>
    <defs>
        <rect id="path-1" x="0" y="0" width="53" height="66"></rect>
    </defs>
    <g id="tag_anchor_bet_finshed" stroke="none" stroke-width="1" fill="none" fill-rule="evenodd">
        <g id="达成-+-椭圆形-+-椭圆形-蒙版">
            <mask id="mask-2" fill="white">
                <use xlink:href="#path-1"></use>
            </mask>
            <g id="蒙版"></g>
            <path d="M16.4241762,23.2989012 C17.6197809,24.2131871 18.621979,25.1098907 19.4659353,26.0241766 L18.2351657,27.2549462 C17.5318688,26.3758251 16.5472532,25.4263743 15.2813188,24.4065938 L16.4241762,23.2989012 Z M26.991212,39.0527516 C25.989014,39.0527516 24.8989038,39.0351692 23.7208815,39.0175867 C22.5252768,39.0000043 21.5406611,38.8945098 20.8021994,38.7186856 C20.0461552,38.5076965 19.3956056,38.0857184 18.8681329,37.487916 C18.621979,37.1890148 18.3758251,37.0483533 18.164836,37.0483533 C17.7956052,37.0483533 17.1450555,37.8571469 16.2307696,39.4923121 L15,38.3494547 C15.8967035,36.8901136 16.705495,35.9758277 17.4087919,35.6065968 L17.4087919,30.6659361 L15.0175824,30.6659361 L15.0175824,29.0483533 L19.0087923,29.0483533 L19.0087923,35.7296738 C19.0967044,35.8000035 19.1846165,35.8879156 19.2725286,35.9934101 C19.7120892,36.4505531 20.1516497,36.8022015 20.6087927,37.030773 C21.1538478,37.2769269 21.9802217,37.4175863 23.0703319,37.4527512 C24.1076948,37.4703336 25.3384643,37.487916 26.7626405,37.487916 C27.5538495,37.487916 28.362641,37.4703336 29.2065972,37.4703336 C30.0329711,37.4351687 30.6659383,37.4000039 31.1230813,37.364839 L30.7186856,39.0527516 L26.991212,39.0527516 Z M20.3450564,26.9032978 L24.1076948,26.9032978 C24.1956069,26.0593415 24.2483541,25.1978028 24.2659366,24.3186817 L24.2659366,23.1406594 L25.9362667,23.1406594 L25.9362667,23.9494508 C25.9362667,24.9868137 25.8835194,25.9714294 25.7780249,26.9032978 L30.0329711,26.9032978 L30.0329711,28.5208806 L25.531871,28.5208806 C25.4439589,28.9252763 25.3560468,29.3120896 25.2681346,29.6813205 C26.780223,30.9648373 28.5560476,32.7758268 30.5604438,35.114289 L29.364839,36.3098937 C27.9582453,34.4813218 26.4285745,32.7934092 24.7758268,31.2285737 C23.9318705,33.4439589 22.6307713,35.1318714 20.8725291,36.3098937 L19.8527486,34.9384648 C21.909892,33.6197831 23.2461561,31.4747276 23.8615409,28.5208806 L20.3450564,28.5208806 L20.3450564,26.9032978 Z M45.3326089,23 C46.1414003,23.6153848 46.8271148,24.2307696 47.3897523,24.8637368 L46.5809609,25.6725282 L48.6908472,25.6725282 L48.6908472,27.2725286 L43.4512897,27.2725286 C43.5743667,29.3472545 43.7853557,30.9648373 44.0842569,32.1076948 C44.1545866,32.4065959 44.2424987,32.7054971 44.3304108,32.9868159 C45.0688726,31.6857166 45.6842573,30.2087932 46.1765652,28.538463 L47.7062359,29.1890127 C47.002939,31.4395627 46.1238179,33.3736292 45.0337077,34.9560472 C45.2271144,35.3780253 45.420521,35.7296738 45.6139276,36.0285749 C46.1414003,36.8022015 46.5633785,37.2065972 46.8446972,37.2065972 C47.0732687,37.2065972 47.3018402,36.3450586 47.5304117,34.6219812 L49.0425,35.4307726 C48.6029394,37.8571469 47.9523898,39.0879164 47.1084335,39.0879164 C46.334807,39.0879164 45.5260155,38.5604438 44.6820593,37.5230808 C44.4007405,37.1714324 44.1545866,36.7846191 43.9260151,36.362641 C42.7479928,37.6813226 41.3765639,38.6835207 39.8293107,39.3692352 L38.8798599,37.9626414 C40.5677724,37.2065972 41.9919486,36.1164871 43.1523885,34.6747284 C42.9062346,34.0417612 42.6952455,33.3560468 42.5018389,32.617585 C42.1150256,31.1934088 41.8688717,29.4175842 41.7457947,27.2725286 L36.0842547,27.2725286 L36.0842547,29.8395623 L40.3919482,29.8395623 C40.3567834,33.0219807 40.1985416,35.0263769 39.9172228,35.8703331 C39.6359041,36.6087949 39.0381017,36.9780258 38.1238157,36.9956082 C37.7018376,36.9956082 37.2095298,36.9604433 36.6644747,36.9076961 L36.1545844,35.3956077 C36.8578813,35.4307726 37.4381013,35.4659374 37.9304091,35.4659374 C38.2468927,35.448355 38.4402993,35.2549484 38.5457939,34.8681351 C38.6512884,34.4109921 38.7040357,33.2505522 38.7392005,31.4219803 L36.0842547,31.4219803 L36.0842547,31.5274748 C36.0139251,34.780223 35.2930457,37.3824215 33.9567816,39.3516528 L32.6908472,38.2263777 C33.7809574,36.6263773 34.3611774,34.3934097 34.4139246,31.5274748 L34.4139246,25.6725282 L41.6578826,25.6725282 C41.6227178,24.8461543 41.6227178,23.9846157 41.6227178,23.0879121 L43.3106303,23.0879121 C43.3106303,24.0021981 43.3457952,24.8637368 43.38096,25.6725282 L46.088653,25.6725282 C45.6139276,25.1450555 45.0161253,24.582418 44.2776635,24.0197805 L45.3326089,23 Z" id="达成" fill="#5078FF" fill-rule="nonzero" opacity="0.300000012" mask="url(#mask-2)" transform="translate(32.021250, 31.246156) rotate(-30.000000) translate(-32.021250, -31.246156) "></path>
            <path d="M33,66 C51.2253967,66 66,51.2253967 66,33 C66,14.7746033 51.2253967,0 33,0 C14.7746033,0 0,14.7746033 0,33 C0,51.2253967 14.7746033,66 33,66 Z M33,64 C15.8791728,64 2,50.1208272 2,33 C2,15.8791728 15.8791728,2 33,2 C50.1208272,2 64,15.8791728 64,33 C64,50.1208272 50.1208272,64 33,64 Z" id="椭圆形" fill="#5078FF" fill-rule="nonzero" opacity="0.300000012" mask="url(#mask-2)"></path>
            <path d="M33,60.5 C48.1878306,60.5 60.5,48.1878306 60.5,33 C60.5,17.8121694 48.1878306,5.5 33,5.5 C17.8121694,5.5 5.5,17.8121694 5.5,33 C5.5,48.1878306 17.8121694,60.5 33,60.5 Z M33,59.5 C18.3644541,59.5 6.5,47.6355459 6.5,33 C6.5,18.3644541 18.3644541,6.5 33,6.5 C47.6355459,6.5 59.5,18.3644541 59.5,33 C59.5,47.6355459 47.6355459,59.5 33,59.5 Z" id="椭圆形" fill="#5078FF" fill-rule="nonzero" opacity="0.300000012" mask="url(#mask-2)"></path>
        </g>
    </g>
</svg>