<?xml version="1.0" encoding="UTF-8"?>
<svg width="56px" height="56px" viewBox="0 0 56 56" version="1.1" xmlns="http://www.w3.org/2000/svg" xmlns:xlink="http://www.w3.org/1999/xlink">
    <!-- Generator: Sketch 55.2 (78181) - https://sketchapp.com -->
    <title>bg_bet_add_normal</title>
    <desc>Created with Sketch.</desc>
    <defs>
        <linearGradient x1="50%" y1="0%" x2="50%" y2="100%" id="linearGradient-1">
            <stop stop-color="#6185BF" offset="0%"></stop>
            <stop stop-color="#83BBE5" offset="100%"></stop>
        </linearGradient>
    </defs>
    <g id="bg_bet_add_normal" stroke="none" stroke-width="1" fill="none" fill-rule="evenodd">
        <g id="ico/加购" transform="translate(16.000000, 16.000000)">
            <g id="购物车" stroke-width="1" transform="translate(2.571429, 3.255411)" fill="#5078FF">
                <path d="M6,13.8874459 C6.23348694,13.8874459 6.4546851,13.9306891 6.66359447,14.0171756 C6.87250384,14.1036621 7.05683564,14.2241254 7.21658986,14.3785656 C7.37634409,14.5330057 7.49923195,14.7152451 7.58525346,14.9252837 C7.67127496,15.1353223 7.71428571,15.3577162 7.71428571,15.5924652 C7.71428571,15.8272142 7.67127496,16.049608 7.58525346,16.2596467 C7.49923195,16.4696853 7.37634409,16.6519247 7.21658986,16.8063648 C7.05683564,16.960805 6.87250384,17.0843571 6.66359447,17.1770212 C6.4546851,17.2696853 6.23348694,17.3160173 6,17.3160173 C5.75422427,17.3160173 5.52995392,17.2696853 5.32718894,17.1770212 C5.12442396,17.0843571 4.94316436,16.960805 4.78341014,16.8063648 C4.62365591,16.6519247 4.50076805,16.4696853 4.41474654,16.2596467 C4.32872504,16.049608 4.28571429,15.8272142 4.28571429,15.5924652 C4.28571429,15.3577162 4.32872504,15.1353223 4.41474654,14.9252837 C4.50076805,14.7152451 4.62365591,14.5330057 4.78341014,14.3785656 C4.94316436,14.2241254 5.12442396,14.1036621 5.32718894,14.0171756 C5.52995392,13.9306891 5.75422427,13.8874459 6,13.8874459 L6,13.8874459 Z M14.5622613,13.8874459 C14.7944996,13.8874459 15.0175707,13.9306891 15.2314744,14.0171756 C15.4453782,14.1036621 15.6287242,14.2241254 15.7815126,14.3785656 C15.934301,14.5330057 16.0565317,14.7152451 16.1482047,14.9252837 C16.2398778,15.1353223 16.2857143,15.3577162 16.2857143,15.5924652 C16.2857143,15.8272142 16.2398778,16.049608 16.1482047,16.2596467 C16.0565317,16.4696853 15.934301,16.6519247 15.7815126,16.8063648 C15.6287242,16.960805 15.4453782,17.0843571 15.2314744,17.1770212 C15.0175707,17.2696853 14.7944996,17.3160173 14.5622613,17.3160173 C14.3300229,17.3160173 14.1100076,17.2696853 13.9022154,17.1770212 C13.6944232,17.0843571 13.5141329,16.960805 13.3613445,16.8063648 C13.2085561,16.6519247 13.0863254,16.4696853 12.9946524,16.2596467 C12.9029794,16.049608 12.8571429,15.8272142 12.8571429,15.5924652 C12.8571429,15.3577162 12.9029794,15.1353223 12.9946524,14.9252837 C13.0863254,14.7152451 13.2085561,14.5330057 13.3613445,14.3785656 C13.5141329,14.2241254 13.6944232,14.1036621 13.9022154,14.0171756 C14.1100076,13.9306891 14.3300229,13.8874459 14.5622613,13.8874459 Z M17.489773,2.92826221 C17.8465771,2.92826221 18.1237375,2.97511769 18.321254,3.06882864 C18.5187706,3.1625396 18.6589436,3.27811644 18.7417732,3.41555917 C18.8246027,3.55300191 18.8628317,3.69981573 18.8564602,3.85600066 C18.8500887,4.01218558 18.8277884,4.14650461 18.7895594,4.25895776 C18.7513304,4.3714109 18.6716866,4.60256459 18.5506281,4.95241882 C18.4295696,5.30227304 18.2925823,5.68648795 18.1396662,6.10506355 C17.9867502,6.52363914 17.8370199,6.93909104 17.6904753,7.35141923 C17.5439308,7.76374743 17.4324295,8.08861207 17.3559715,8.32601315 C17.1903124,8.8258049 16.9800529,9.17253543 16.7251928,9.36620474 C16.4703327,9.55987404 16.1581291,9.65670869 15.788582,9.65670869 L15.1386888,9.65670869 L13.8962459,9.65670869 L12.2715129,9.65670869 L10.4938638,9.65670869 L5.75346631,9.65670869 L6.0401839,11.3435059 L15.6738949,11.3435059 C16.2855591,11.3435059 16.5913912,11.5996491 16.5913912,12.1119357 C16.5913912,12.3618316 16.530862,12.5773668 16.4098034,12.7585413 C16.2887449,12.9397158 16.0498136,13.030303 15.6930094,13.030303 L14.7755132,13.030303 L12.9978641,13.030303 L10.7996959,13.030303 L8.5632987,13.030303 L6.72830612,13.030303 L5.67700829,13.030303 C5.42214821,13.030303 5.20870289,12.9740765 5.03667234,12.8616233 C4.86464178,12.7491702 4.72128299,12.6023563 4.60659595,12.4211818 C4.49190892,12.2400073 4.39952214,12.0432143 4.32943562,11.8308028 C4.25934909,11.6183913 4.20519133,11.4184746 4.16696231,11.2310527 C4.15421931,11.156084 4.11917605,10.9749094 4.06183253,10.6875292 C4.00448901,10.4001489 3.93440249,10.0409236 3.85157296,9.60985322 C3.76874344,9.17878283 3.67635666,8.69773327 3.57441263,8.16670453 C3.4724686,7.63567579 3.37052456,7.10152336 3.26858053,6.56424722 C3.02646345,5.30227304 2.75248887,3.89660874 2.44665677,2.3472543 L1.01306882,2.3472543 C0.821923759,2.3472543 0.662636209,2.30039882 0.535206169,2.20668787 C0.407776129,2.11297692 0.302646345,2.00052377 0.219816819,1.86932844 C0.136987293,1.7381331 0.0796437751,1.59756667 0.0477862651,1.44762914 C0.015928755,1.29769162 0,1.16024889 0,1.03530095 C0,0.785405071 0.0860152771,0.579240973 0.258045831,0.416808653 C0.430076386,0.254376333 0.662636209,0.173160173 0.955725301,0.173160173 L1.37624443,0.173160173 L1.75853455,0.173160173 L2.23639721,0.173160173 L2.88629041,0.173160173 C3.14115049,0.173160173 3.34503855,0.210644555 3.4979546,0.285613318 C3.65087065,0.360582081 3.77192919,0.454293034 3.86113022,0.566746179 C3.95033125,0.679199324 4.01404627,0.797899865 4.05227528,0.922847803 C4.09050429,1.04779574 4.1223618,1.15400149 4.14784781,1.24146505 C4.17333382,1.3414234 4.19881982,1.48198983 4.22430583,1.66316434 C4.24979184,1.84433885 4.27527785,2.02863706 4.30076386,2.21605897 C4.33899287,2.44096525 4.37722188,2.67836634 4.41545089,2.92826221 L17.489773,2.92826221 L17.489773,2.92826221 Z" id="形状"></path>
            </g>
            <rect id="矩形" fill="#D8D8D8" opacity="0" x="0" y="0" width="24" height="24"></rect>
        </g>
    </g>
</svg>