<?xml version="1.0" encoding="UTF-8"?>
<svg width="20px" height="20px" viewBox="0 0 20 20" version="1.1" xmlns="http://www.w3.org/2000/svg" xmlns:xlink="http://www.w3.org/1999/xlink">
    <!-- Generator: Sketch 55.2 (78181) - https://sketchapp.com -->
    <title>ico/个人主页/老鸟版</title>
    <desc>Created with Sketch.</desc>
    <g id="ico/个人主页/老鸟版" stroke="none" stroke-width="1" fill="none" fill-rule="evenodd">
        <g id="资源-3" transform="translate(0.000000, 2.000000)" fill-rule="nonzero">
            <g id="编组">
                <path d="M2.49361702,0.455319149 C1.74042553,1.57446809 -0.565957447,5.56170213 1.43404255,10.093617 C2.02152055,11.4048295 3.32489783,12.2481912 4.76170213,12.2468102 L4.95319149,12.2468102 C4.95319149,12.2468102 4.70638298,2.49787234 3.40425532,0.463829787 C3.30500027,0.309503635 3.1347138,0.215523112 2.95123305,0.213784471 C2.7677523,0.212093565 2.59573908,0.302875026 2.49361702,0.455319149 Z" id="路径" fill="#651100"></path>
                <path d="M5.17021277,12.4596105 L4.74468085,12.4596105 C3.22261242,12.4661532 1.84111557,11.5707695 1.22553191,10.1787234 C-0.804255319,5.55319149 1.54468085,1.47659574 2.31489362,0.336170213 L2.31489362,0.336170213 C2.46934027,0.124005729 2.71629928,-0.00105684569 2.9787234,-6.64492744e-06 C3.22685821,0.00826167572 3.45477156,0.138953246 3.58723404,0.34893617 C4.90212766,2.40851064 5.15744681,11.8382979 5.16595745,12.2382979 L5.17021277,12.4596105 Z M2.94893617,0.425507067 C2.83627699,0.424980212 2.73083139,0.480898332 2.66808511,0.574468085 L2.66808511,0.574468085 C1.93191489,1.66808511 -0.310638298,5.58297872 1.62978723,10.0042553 C2.17307969,11.2353284 3.39054863,12.0308526 4.73617021,12.0340426 C4.68085106,10.5829787 4.37446809,2.37446809 3.22978723,0.578723404 C3.17113952,0.482367371 3.06598363,0.424127182 2.95319149,0.425507067 L2.94893617,0.425507067 Z" id="形状" fill="#000000"></path>
            </g>
            <g id="编组" transform="translate(14.893617, 0.000000)">
                <path d="M2.87659574,0.455319149 C3.62978723,1.57446809 5.93191489,5.56170213 3.93191489,10.093617 C3.3453,11.4055693 2.04138086,12.2492817 0.604255319,12.2468139 L0.425531915,12.2468139 C0.425531915,12.2468139 0.659574468,2.49787234 1.95744681,0.463829787 C2.05737311,0.307694361 2.22935192,0.212538796 2.41471802,0.210798832 C2.60008412,0.20910609 2.77379542,0.301060821 2.87659574,0.455319149 Z" id="路径" fill="#651100"></path>
                <path d="M0.604255319,12.4595809 L0.178723404,12.4595809 L0.178723404,12.2382979 C0.178723404,11.8382979 0.442553191,2.40851064 1.75744681,0.34893617 C1.89861864,0.126884005 2.14543743,-0.00539796322 2.40851064,0 C2.66516686,-0.00133732743 2.90581484,0.124564597 3.05106383,0.336170213 C3.82978723,1.47659574 6.17021277,5.55319149 4.12765957,10.1787234 C3.50709173,11.5684588 2.12624784,12.4623384 0.604255319,12.4595809 Z M2.41702128,0.425480491 L2.41702128,0.425480491 C2.30444375,0.424972809 2.1996762,0.482997911 2.14042553,0.578723404 C0.995744681,2.37446809 0.685106383,10.5829787 0.638297872,12.0340426 C1.98237447,12.0291739 3.19775986,11.2339218 3.74042553,10.0042553 C5.69787234,5.58297872 3.44255319,1.66808511 2.70212766,0.574468085 L2.70212766,0.574468085 C2.63855179,0.47962656 2.5311827,0.423538228 2.41702128,0.425480491 Z" id="形状" fill="#000000"></path>
            </g>
            <path d="M3.70638298,4.43829787 L3.18297872,9.54468085 C3.12582325,10.0344488 3.280666,10.5253003 3.60851064,10.893617 L6.6893617,14.2978723 C6.91572364,14.5477137 7.23733302,14.689964 7.57446809,14.6894583 L13.0042553,14.6894583 C13.3628756,14.6939075 13.7047304,14.5378094 13.9361702,14.2638298 L16.7489362,10.787234 C17.0286651,10.4394414 17.1655876,9.9982467 17.1319149,9.55319149 L16.7361702,4.41276596 C16.7285343,4.19212772 16.6354593,3.98309052 16.4765957,3.82978723 C15.3446809,2.7787234 10.3191489,-1.27659574 4.01702128,3.85531915 C3.83920681,3.99989528 3.72721397,4.21007361 3.70638298,4.43829787 Z" id="路径" fill="#FF4000"></path>
            <path d="M13.0042553,14.893617 L7.59574468,14.893617 C7.20427235,14.9023824 6.82672091,14.7482798 6.55319149,14.4680851 L3.47234043,11.0638298 C3.09906972,10.6490873 2.91961955,10.095267 2.9787234,9.54042553 L3.50212766,4.43404255 C3.53135779,4.15026708 3.67031696,3.88914601 3.8893617,3.70638298 C6.6212766,1.47659574 9.4212766,0.676595745 12.2425532,1.32765957 C13.8844959,1.73422329 15.3949164,2.55462626 16.6297872,3.7106383 C16.8221474,3.89255681 16.9391009,4.14013372 16.9574468,4.40425532 L17.3531915,9.54468085 C17.3931933,10.0431035 17.2409365,10.537938 16.9276596,10.9276596 L14.1148936,14.4042553 C13.837177,14.7261869 13.4292434,14.9059277 13.0042553,14.893617 Z M10.3744681,1.50638298 C8.56170213,1.50638298 6.45106383,2.14468085 4.14893617,4.0212766 C4.02155935,4.12918161 3.93951412,4.28111721 3.91914894,4.44680851 L3.40425532,9.58297872 C3.36162887,10.0162082 3.5037852,10.4473127 3.79574468,10.7702128 L6.87659574,14.1744681 C7.06330193,14.3792129 7.32716739,14.4964864 7.60425532,14.4978843 L13.0042553,14.4978843 C13.3020835,14.4993481 13.5842341,14.3645428 13.7702128,14.1319149 L16.5957447,10.6382979 C16.8416791,10.3341435 16.9619543,9.94743561 16.9319149,9.55744681 L16.5361702,4.41702128 C16.5280574,4.25528651 16.457956,4.10289201 16.3404255,3.99148936 C15.506383,3.22553191 13.3489362,1.50638298 10.3744681,1.50638298 Z" id="形状" fill="#000000"></path>
            <path d="M6.1106383,5.5020937 C5.04780541,5.49620651 4.13899614,6.26522996 3.96896014,7.31438989 C3.79892414,8.36354982 4.41832378,9.38024812 5.4286225,9.71031675 C6.43892122,10.0403854 7.53909964,9.5854801 8.0212766,8.63829787 L12.3106383,8.63829787 C12.7941008,9.58050757 13.8909289,10.0312798 14.8972222,9.7013269 C15.9035155,9.37137404 16.5204841,8.35866618 16.3521822,7.31311868 C16.1838803,6.26757117 15.2802803,5.49962941 14.2212766,5.5020937 L6.1106383,5.5020937 Z" id="路径" fill="#FFFFFF"></path>
            <circle id="椭圆形" fill="#000000" cx="7.09787234" cy="7.50212766" r="1.08510638"></circle>
            <circle id="椭圆形" fill="#000000" cx="13.212766" cy="7.50212766" r="1.08510638"></circle>
            <rect id="矩形" fill="#000000" x="7.55744681" y="7.00425532" width="5.20425532" height="1"></rect>
        </g>
    </g>
</svg>