<?xml version="1.0" encoding="UTF-8"?>
<svg width="14px" height="14px" viewBox="0 0 14 14" version="1.1" xmlns="http://www.w3.org/2000/svg" xmlns:xlink="http://www.w3.org/1999/xlink">
    <!-- Generator: Sketch 55.2 (78181) - https://sketchapp.com -->
    <title>icon_list_hot_normal</title>
    <desc>Created with Sketch.</desc>
    <g id="icon_list_hot_normal" stroke="none" stroke-width="1" fill="none" fill-rule="evenodd">
        <g id="ico/热度" transform="translate(1.000000, 1.000000)" fill="#CCCCCC">
            <path d="M3.93195262,11.9654326 C3.13981768,10.2977952 3.556751,9.33889795 4.18209617,8.46336813 C4.84917303,7.46273913 5.01590798,6.50385553 5.01590798,6.50385553 C5.01590798,6.50385553 5.55791308,7.1709324 5.34944642,8.25490146 C6.26668053,7.21260928 6.43340178,5.54497193 6.30833,4.91957196 C8.39291437,6.37879746 9.31013478,9.5890552 8.10110765,11.9237557 C14.521582,8.25488776 9.6853501,2.79332442 8.85152458,2.20964243 C9.14339983,2.8349876 9.18507672,3.87726607 8.60139473,4.37760798 C7.64249743,0.70875375 5.26605153,0 5.26605153,0 C5.55792678,1.876104 4.26550476,3.91901148 3.01474592,5.46156335 C2.97306903,4.71114642 2.93135103,4.21081821 2.51445882,3.46038758 C2.43106393,4.8362182 1.38877175,5.92018726 1.0968965,7.29600417 C0.721694885,9.17210817 1.38878545,10.5062619 3.93195262,11.9654326 Z" id="路径"></path>
        </g>
    </g>
</svg>