<?xml version="1.0" encoding="UTF-8"?>
<svg width="20px" height="20px" viewBox="0 0 20 20" version="1.1" xmlns="http://www.w3.org/2000/svg" xmlns:xlink="http://www.w3.org/1999/xlink">
    <!-- Generator: Sketch 55.2 (78181) - https://sketchapp.com -->
    <title>icon_top_novice_normal</title>
    <desc>Created with Sketch.</desc>
    <g id="icon_top_novice_normal" stroke="none" stroke-width="1" fill="none" fill-rule="evenodd">
        <g id="ico/个人主页/小白版">
            <g id="资源-4" transform="translate(0.000000, 2.000000)">
                <path d="M19.4085106,8.16170213 C19.4085106,12.5489362 14.8042553,14.412766 9.50638298,14.412766 C4.20851064,14.412766 0.212765957,12.5489362 0.212765957,8.16170213 C0.212765957,3.77446809 4.5106383,0.212765957 9.81276596,0.212765957 C15.1148936,0.212765957 19.4085106,3.77021277 19.4085106,8.16170213 Z" id="路径" fill="#FFFFFF" fill-rule="nonzero"></path>
                <path d="M9.50638298,14.6255319 C3.46382979,14.6255319 0,12.2680851 0,8.16170213 C0,3.65957447 4.4,0 9.81276596,0 C15.2255319,0 19.6212766,3.65957447 19.6212766,8.16170213 C19.6212766,12.9276596 14.3957447,14.6255319 9.50638298,14.6255319 Z M9.81276596,0.425531915 C4.63829787,0.425531915 0.425531915,3.89361702 0.425531915,8.16170213 C0.425531915,13.6170213 6.77446809,14.2 9.50638298,14.2 C15.5744681,14.2 19.1957447,11.9404255 19.1957447,8.16170213 C19.1957447,3.89361702 14.987234,0.425531915 9.81276596,0.425531915 Z" id="形状" fill="#000000" fill-rule="nonzero"></path>
                <path d="M13.8425532,6.25106383 C13.2580662,6.25031891 12.7409309,6.62955146 12.5659574,7.18723404 L7.03404255,7.18723404 C6.82544262,6.56413447 6.1959197,6.18411299 5.54738312,6.28978852 C4.89884655,6.39546404 4.42252961,6.95567616 4.42252961,7.61276596 C4.42252961,8.26985576 4.89884655,8.83006787 5.54738312,8.9357434 C6.1959197,9.04141893 6.82544262,8.66139744 7.03404255,8.03829787 L12.5659574,8.03829787 C12.8002654,8.67338507 13.4713185,9.03410248 14.1302848,8.87918523 C14.7892512,8.72426797 15.2292933,8.10234169 15.1560903,7.42938012 C15.0828874,6.75641856 14.5194163,6.24365181 13.8425532,6.23404255 L13.8425532,6.25106383 Z" id="路径" fill="#000000" fill-rule="nonzero"></path>
            </g>
        </g>
    </g>
</svg>