<?xml version="1.0" encoding="UTF-8"?>
<svg width="22px" height="22px" viewBox="0 0 22 22" version="1.1" xmlns="http://www.w3.org/2000/svg" xmlns:xlink="http://www.w3.org/1999/xlink">
    <title>icon_home_tab_more</title>
    <g id="icon_home_tab_more" stroke="none" stroke-width="1" fill="none" fill-rule="evenodd">
        <g id="icon/更多" fill="#222222">
            <path d="M18.3333333,16.0416667 C18.8395944,16.0416667 19.25,16.4520723 19.25,16.9583333 C19.25,17.4645944 18.8395944,17.875 18.3333333,17.875 L4.58333333,17.875 C4.07707231,17.875 3.66666667,17.4645944 3.66666667,16.9583333 C3.66666667,16.4520723 4.07707231,16.0416667 4.58333333,16.0416667 L18.3333333,16.0416667 Z M18.3333333,10.0833333 C18.8395944,10.0833333 19.25,10.493739 19.25,11 C19.25,11.506261 18.8395944,11.9166667 18.3333333,11.9166667 L4.58333333,11.9166667 C4.07707231,11.9166667 3.66666667,11.506261 3.66666667,11 C3.66666667,10.493739 4.07707231,10.0833333 4.58333333,10.0833333 L18.3333333,10.0833333 Z M18.3333333,4.125 C18.8395944,4.125 19.25,4.53540565 19.25,5.04166667 C19.25,5.54792769 18.8395944,5.95833333 18.3333333,5.95833333 L4.58333333,5.95833333 C4.07707231,5.95833333 3.66666667,5.54792769 3.66666667,5.04166667 C3.66666667,4.53540565 4.07707231,4.125 4.58333333,4.125 L18.3333333,4.125 Z" id="形状结合"></path>
        </g>
    </g>
</svg>