<?xml version="1.0" encoding="UTF-8"?>
<svg width="24px" height="24px" viewBox="0 0 24 24" version="1.1" xmlns="http://www.w3.org/2000/svg" xmlns:xlink="http://www.w3.org/1999/xlink">
    <!-- Generator: Sketch 55.2 (78181) - https://sketchapp.com -->
    <title>icon_bet_add_selected</title>
    <desc>Created with Sketch.</desc>
    <defs>
        <linearGradient x1="50%" y1="0%" x2="50%" y2="100%" id="linearGradient-1">
            <stop stop-color="#6185BF" offset="0%"></stop>
            <stop stop-color="#83BBE5" offset="100%"></stop>
        </linearGradient>
    </defs>
    <g id="icon_bet_add_selected" stroke="none" stroke-width="1" fill="none" fill-rule="evenodd">
        <g id="ico/加购备份">
            <g id="购物车" stroke-width="1" transform="translate(2.571429, 1.541126)" fill="#FFFFFF">
                <path d="M6,15.6017316 C6.23348694,15.6017316 6.4546851,15.6449748 6.66359447,15.7314613 C6.87250384,15.8179478 7.05683564,15.9384111 7.21658986,16.0928513 C7.37634409,16.2472914 7.49923195,16.4295308 7.58525346,16.6395694 C7.67127496,16.849608 7.71428571,17.0720019 7.71428571,17.3067509 C7.71428571,17.5414999 7.67127496,17.7638938 7.58525346,17.9739324 C7.49923195,18.183971 7.37634409,18.3662104 7.21658986,18.5206505 C7.05683564,18.6750907 6.87250384,18.7986428 6.66359447,18.8913069 C6.4546851,18.983971 6.23348694,19.030303 6,19.030303 C5.75422427,19.030303 5.52995392,18.983971 5.32718894,18.8913069 C5.12442396,18.7986428 4.94316436,18.6750907 4.78341014,18.5206505 C4.62365591,18.3662104 4.50076805,18.183971 4.41474654,17.9739324 C4.32872504,17.7638938 4.28571429,17.5414999 4.28571429,17.3067509 C4.28571429,17.0720019 4.32872504,16.849608 4.41474654,16.6395694 C4.50076805,16.4295308 4.62365591,16.2472914 4.78341014,16.0928513 C4.94316436,15.9384111 5.12442396,15.8179478 5.32718894,15.7314613 C5.52995392,15.6449748 5.75422427,15.6017316 6,15.6017316 Z M14.5622613,15.6017316 C14.7944996,15.6017316 15.0175707,15.6449748 15.2314744,15.7314613 C15.4453782,15.8179478 15.6287242,15.9384111 15.7815126,16.0928513 C15.934301,16.2472914 16.0565317,16.4295308 16.1482047,16.6395694 C16.2398778,16.849608 16.2857143,17.0720019 16.2857143,17.3067509 C16.2857143,17.5414999 16.2398778,17.7638938 16.1482047,17.9739324 C16.0565317,18.183971 15.934301,18.3662104 15.7815126,18.5206505 C15.6287242,18.6750907 15.4453782,18.7986428 15.2314744,18.8913069 C15.0175707,18.983971 14.7944996,19.030303 14.5622613,19.030303 C14.3300229,19.030303 14.1100076,18.983971 13.9022154,18.8913069 C13.6944232,18.7986428 13.5141329,18.6750907 13.3613445,18.5206505 C13.2085561,18.3662104 13.0863254,18.183971 12.9946524,17.9739324 C12.9029794,17.7638938 12.8571429,17.5414999 12.8571429,17.3067509 C12.8571429,17.0720019 12.9029794,16.849608 12.9946524,16.6395694 C13.0863254,16.4295308 13.2085561,16.2472914 13.3613445,16.0928513 C13.5141329,15.9384111 13.6944232,15.8179478 13.9022154,15.7314613 C14.1100076,15.6449748 14.3300229,15.6017316 14.5622613,15.6017316 Z M17.489773,4.64254793 C17.8465771,4.64254793 18.1237375,4.68940341 18.321254,4.78311436 C18.5187706,4.87682531 18.6589436,4.99240216 18.7417732,5.12984489 C18.8246027,5.26728762 18.8628317,5.41410145 18.8564602,5.57028637 C18.8500887,5.72647129 18.8277884,5.86079033 18.7895594,5.97324347 C18.7513304,6.08569662 18.6716866,6.3168503 18.5506281,6.66670453 C18.4295696,7.01655876 18.2925823,7.40077367 18.1396662,7.81934926 C17.9867502,8.23792485 17.8370199,8.65337675 17.6904753,9.06570495 C17.5439308,9.47803314 17.4324295,9.80289778 17.3559715,10.0402989 C17.1903124,10.5400906 16.9800529,10.8868211 16.7251928,11.0804905 C16.4703327,11.2741598 16.1581291,11.3709944 15.788582,11.3709944 L15.1386888,11.3709944 L13.8962459,11.3709944 L12.2715129,11.3709944 L10.4938638,11.3709944 L5.75346631,11.3709944 L6.0401839,13.0577916 L15.6738949,13.0577916 C16.2855591,13.0577916 16.5913912,13.3139349 16.5913912,13.8262214 C16.5913912,14.0761173 16.530862,14.2916525 16.4098034,14.472827 C16.2887449,14.6540015 16.0498136,14.7445887 15.6930094,14.7445887 L14.7755132,14.7445887 L12.9978641,14.7445887 L10.7996959,14.7445887 L8.5632987,14.7445887 L6.72830612,14.7445887 L5.67700829,14.7445887 C5.42214821,14.7445887 5.20870289,14.6883622 5.03667234,14.575909 C4.86464178,14.4634559 4.72128299,14.3166421 4.60659595,14.1354675 C4.49190892,13.954293 4.39952214,13.7575 4.32943562,13.5450885 C4.25934909,13.332677 4.20519133,13.1327603 4.16696231,12.9453384 C4.15421931,12.8703697 4.11917605,12.6891952 4.06183253,12.4018149 C4.00448901,12.1144346 3.93440249,11.7552093 3.85157296,11.3241389 C3.76874344,10.8930685 3.67635666,10.412019 3.57441263,9.88099024 C3.4724686,9.34996151 3.37052456,8.81580907 3.26858053,8.27853293 C3.02646345,7.01655876 2.75248887,5.61089445 2.44665677,4.06154001 L1.01306882,4.06154001 C0.821923759,4.06154001 0.662636209,4.01468454 0.535206169,3.92097358 C0.407776129,3.82726263 0.302646345,3.71480949 0.219816819,3.58361415 C0.136987293,3.45241882 0.0796437751,3.31185238 0.0477862651,3.16191486 C0.015928755,3.01197733 0,2.8745346 0,2.74958666 C0,2.49969079 0.0860152771,2.29352669 0.258045831,2.13109437 C0.430076386,1.96866205 0.662636209,1.88744589 0.955725301,1.88744589 L1.37624443,1.88744589 L1.75853455,1.88744589 L2.23639721,1.88744589 L2.88629041,1.88744589 C3.14115049,1.88744589 3.34503855,1.92493027 3.4979546,1.99989903 C3.65087065,2.07486779 3.77192919,2.16857875 3.86113022,2.28103189 C3.95033125,2.39348504 4.01404627,2.51218558 4.05227528,2.63713352 C4.09050429,2.76208146 4.1223618,2.8682872 4.14784781,2.95575076 C4.17333382,3.05570911 4.19881982,3.19627554 4.22430583,3.37745005 C4.24979184,3.55862456 4.27527785,3.74292277 4.30076386,3.93034468 C4.33899287,4.15525097 4.37722188,4.39265205 4.41545089,4.64254793 L17.489773,4.64254793 Z M13.600437,0.570471129 L15.2122175,2.3613383 C15.5816765,2.77184832 15.5483981,3.40413816 15.137888,3.77359718 C14.9542633,3.93885941 14.7159651,4.03030303 14.4689233,4.03030303 L11.2453624,4.03030303 C10.6930777,4.03030303 10.2453624,3.58258778 10.2453624,3.03030303 C10.2453624,2.78326125 10.336806,2.54496301 10.5020683,2.3613383 L12.1138487,0.570471129 C12.4833077,0.159961108 13.1155976,0.126682695 13.5261076,0.496141715 C13.55217,0.519597929 13.5769808,0.544408669 13.600437,0.570471129 Z" id="形状结合" fill-rule="nonzero"></path>
            </g>
            <rect id="矩形" fill="#D8D8D8" opacity="0" x="0" y="0" width="24" height="24"></rect>
        </g>
    </g>
</svg>