<?xml version="1.0" encoding="UTF-8"?>
<svg width="36px" height="16px" viewBox="0 0 36 16" version="1.1" xmlns="http://www.w3.org/2000/svg" xmlns:xlink="http://www.w3.org/1999/xlink">
    <!-- Generator: Sketch 55.2 (78181) - https://sketchapp.com -->
    <title>icon_push_news_normal</title>
    <desc>Created with Sketch.</desc>
    <g id="icon_push_news_normal" stroke="none" stroke-width="1" fill="none" fill-rule="evenodd">
        <g id="编组-6" fill-rule="nonzero">
            <path d="M10.2067507,6.48847059 L10.6866991,3.08329412 L8.58069914,3.08329412 L8.8409697,1.23670588 L10.9469697,1.23670588 L11.1212793,5.68434189e-14 L13.3532793,5.68434189e-14 L13.1789697,1.23670588 L17.0669697,1.23670588 L16.3267507,6.48847059 L17.2267507,6.48847059 L16.9688679,8.31811765 L12.1448679,8.31811765 L12.0240094,8.79247059 L13.8240094,8.79247059 C13.9104555,9.9670647 14.1052667,11.0964652 14.4084488,12.1807059 C14.7116309,13.2649466 15.1596029,14.343524 15.7523784,15.4164706 L13.1783784,15.4164706 C13.0325418,15.0889395 12.8818709,14.7105904 12.7263612,14.2814118 C12.5708514,13.8522331 12.4291195,13.389179 12.301161,12.8922353 C12.1732026,12.3952916 12.0604297,11.8757674 11.962839,11.3336471 C11.8652482,10.7915267 11.7954545,10.2437675 11.7534559,9.69035294 C11.5506777,10.27765 11.3146886,10.8451737 11.0454816,11.3929412 C10.7762747,11.9407086 10.4964495,12.4574093 10.2059976,12.9430588 C9.91554583,13.4287083 9.61487408,13.8804685 9.30397338,14.2983529 C8.99307268,14.7162374 8.70054279,15.0889395 8.42637836,15.4164706 L5.65437836,15.4164706 C6.10842286,14.9195269 6.55523623,14.3887087 6.99483187,13.824 C7.43442751,13.2592913 7.84080266,12.6748266 8.21396951,12.0705882 C8.58713636,11.4663499 8.92028785,10.8480032 9.21343397,10.2155294 C9.50658009,9.58305566 9.73372247,8.9505914 9.89486793,8.31811765 L7.68086793,8.31811765 L7.93875069,6.48847059 L10.2067507,6.48847059 Z M12.9186991,3.08329412 L12.4387507,6.48847059 L14.1667507,6.48847059 L14.6466991,3.08329412 L12.9186991,3.08329412 Z" id="形状结合" fill="#000000"></path>
            <polygon id="路径" fill="#FF4000" points="4.31727934 5.68434189e-14 6.26127934 5.68434189e-14 4.08837836 15.4164706 2.14437836 15.4164706"></polygon>
            <path d="M1.7408297e-13,12.1129412 C0.107634636,11.6047033 0.22163507,11.0512971 0.342004721,10.4527059 C0.462374371,9.85411465 0.582130026,9.2385914 0.701275277,8.60611765 L1.05870924,6.70870588 C1.1778545,6.07623213 1.29081428,5.46635588 1.397592,4.87905882 C1.50436971,4.29176177 1.5995744,3.74400254 1.68320891,3.23576471 C1.76684343,2.72752687 1.8417215,2.28141368 1.90784537,1.89741176 L3.54584537,1.89741176 C3.49012968,2.29270786 3.42146578,2.75858555 3.3398516,3.29505882 C3.25823742,3.83153209 3.16805302,4.40752633 3.06929567,5.02305882 C2.97053832,5.63859131 2.86559878,6.27670258 2.7544739,6.93741176 C2.64334902,7.59812095 2.52861364,8.24187922 2.41026433,8.86870588 C2.29191501,9.49553255 2.17834304,10.0884678 2.06954498,10.6475294 C1.96074693,11.206591 1.85889962,11.6950567 1.764,12.1129412 L1.7408297e-13,12.1129412 Z" id="路径" fill="#000000"></path>
            <path d="M5.42296328,10.6729412 C5.51847589,9.99529073 5.61594639,9.26118042 5.7153777,8.47058824 C5.81480902,7.67999605 5.91123888,6.88941572 6.00467016,6.09882353 C6.09810145,5.30823134 6.1811538,4.54870952 6.2538297,3.82023529 C6.32650561,3.09176106 6.38384359,2.4508263 6.42584537,1.89741176 L7.97384537,1.89741176 C7.93025171,2.46212047 7.8759137,3.10305524 7.8108297,3.82023529 C7.7457457,4.53741535 7.67028515,5.28564316 7.58444577,6.06494118 C7.49860639,6.84423919 7.40557447,7.63199602 7.30534721,8.42823529 C7.20511996,9.22447457 7.10565964,9.97270238 7.00696328,10.6729412 L5.42296328,10.6729412 Z" id="路径" fill="#000000"></path>
            <path d="M26.7497476,0.372705882 L35.8217476,0.372705882 L35.4970064,2.67670588 C35.4126369,3.27529711 35.2927898,3.76376281 35.1374614,4.14211765 C34.982133,4.52047248 34.7817769,4.85646912 34.5363871,5.15011765 L31.8723871,5.15011765 C32.3025534,4.8225866 32.6063166,4.49788396 32.7836858,4.176 C32.9610549,3.85411604 33.0807793,3.47294338 33.1428625,3.03247059 L33.2622527,2.18541176 L28.7802527,2.18541176 L28.278814,5.74305882 L35.406814,5.74305882 C34.9149303,7.0193005 34.3901772,8.18822999 33.8325387,9.24988235 C33.2749003,10.3115347 32.660026,11.3110541 31.9878975,12.2484706 C32.3018569,12.7454142 32.6416173,13.250821 33.0071891,13.7647059 C33.3727609,14.2785908 33.7781533,14.8291735 34.2233783,15.4164706 L31.6853783,15.4164706 C31.4939903,15.1567046 31.3160132,14.9082365 31.1514417,14.6710588 C30.9868701,14.4338812 30.819301,14.1967071 30.6487294,13.9595294 C30.4457073,14.2080012 30.2370862,14.4536458 30.02286,14.6964706 C29.8086337,14.9392953 29.5888087,15.1792929 29.3633783,15.4164706 L24.6293783,15.4164706 L26.7497476,0.372705882 Z M26.9416442,15.2301176 C27.9529581,14.2701128 28.8502579,13.3101224 29.6335707,12.3501176 C29.2947543,11.7741148 28.9803408,11.195297 28.6903205,10.6136471 C28.4003003,10.0319971 28.121458,9.41365033 27.853785,8.75858824 L26.9416442,15.2301176 Z M28.0257068,7.53882353 L27.9397459,8.14870588 L29.7757459,8.14870588 C29.9552558,8.5778845 30.1435487,8.98729217 30.3406302,9.37694118 C30.5377117,9.76659018 30.7463922,10.1590568 30.9666779,10.5543529 C31.6331738,9.57175979 32.1888446,8.56659337 32.6337068,7.53882353 L28.0257068,7.53882353 Z" id="形状结合" fill="#000000"></path>
            <path d="M21.7844966,2.52423529 L22.1402793,5.68434189e-14 L24.4442793,5.68434189e-14 L24.0884966,2.52423529 L25.8344966,2.52423529 L25.5742261,4.37082353 L23.8282261,4.37082353 L23.3936459,7.45411765 L25.0794019,7.11529412 L24.7952533,9.13129412 L23.1094973,9.47011765 L22.9089218,10.8931765 C22.776796,11.8305929 22.5872138,12.6861138 22.3401696,13.4597647 C22.0931253,14.2334156 21.8001978,14.8856444 21.4613783,15.4164706 L18.7793783,15.4164706 C19.0567276,15.0663512 19.2950732,14.716237 19.4944221,14.3661176 C19.6937711,14.0159982 19.8639132,13.6602371 20.0048537,13.2988235 C20.1457942,12.93741 20.2651206,12.5590608 20.3628365,12.1637647 C20.4605524,11.7684686 20.5412467,11.3449434 20.6049218,10.8931765 L20.7386388,9.94447059 L18.8681071,10.3171765 L19.1546435,8.28423529 L21.0251752,7.91152941 L21.5242261,4.37082353 L19.7062261,4.37082353 L19.9664966,2.52423529 L21.7844966,2.52423529 Z" id="路径" fill="#000000"></path>
        </g>
    </g>
</svg>