<?xml version="1.0" encoding="UTF-8"?>
<svg width="22px" height="22px" viewBox="0 0 22 22" version="1.1" xmlns="http://www.w3.org/2000/svg" xmlns:xlink="http://www.w3.org/1999/xlink">
    <title>icon_homesearch_search_normal</title>
    <g id="icon_homesearch_search_normal" stroke="none" stroke-width="1" fill="none" fill-rule="evenodd">
        <g id="icon/更多备份" fill="#222222">
            <path d="M15.125,11.4583333 C17.1500441,11.4583333 18.7916667,13.0999559 18.7916667,15.125 C18.7916667,15.888988 18.5580104,16.5984027 18.1582604,17.1856814 L18.8991708,17.9262014 C19.1677462,18.1945969 19.1678919,18.6298978 18.8994963,18.8984731 C18.6555004,19.1426325 18.2735661,19.1649493 18.0043554,18.9653395 L17.9272246,18.8987986 L17.1856814,18.1582604 C16.5984027,18.5580104 15.888988,18.7916667 15.125,18.7916667 C13.0999559,18.7916667 11.4583333,17.1500441 11.4583333,15.125 C11.4583333,13.0999559 13.0999559,11.4583333 15.125,11.4583333 Z M6.875,11.4583333 C8.90004408,11.4583333 10.5416667,13.0999559 10.5416667,15.125 C10.5416667,17.1500441 8.90004408,18.7916667 6.875,18.7916667 C4.84995592,18.7916667 3.20833333,17.1500441 3.20833333,15.125 C3.20833333,13.0999559 4.84995592,11.4583333 6.875,11.4583333 Z M6.875,12.8333333 C5.60934745,12.8333333 4.58333333,13.8593474 4.58333333,15.125 C4.58333333,16.3906526 5.60934745,17.4166667 6.875,17.4166667 C8.14065255,17.4166667 9.16666667,16.3906526 9.16666667,15.125 C9.16666667,13.8593474 8.14065255,12.8333333 6.875,12.8333333 Z M15.125,12.8333333 C13.8593474,12.8333333 12.8333333,13.8593474 12.8333333,15.125 C12.8333333,16.3906526 13.8593474,17.4166667 15.125,17.4166667 C16.3906526,17.4166667 17.4166667,16.3906526 17.4166667,15.125 C17.4166667,13.8593474 16.3906526,12.8333333 15.125,12.8333333 Z M6.875,3.20833333 C8.90004408,3.20833333 10.5416667,4.84995592 10.5416667,6.875 C10.5416667,8.90004408 8.90004408,10.5416667 6.875,10.5416667 C4.84995592,10.5416667 3.20833333,8.90004408 3.20833333,6.875 C3.20833333,4.84995592 4.84995592,3.20833333 6.875,3.20833333 Z M15.125,3.20833333 C17.1500441,3.20833333 18.7916667,4.84995592 18.7916667,6.875 C18.7916667,8.90004408 17.1500441,10.5416667 15.125,10.5416667 C13.0999559,10.5416667 11.4583333,8.90004408 11.4583333,6.875 C11.4583333,4.84995592 13.0999559,3.20833333 15.125,3.20833333 Z M6.875,4.58333333 C5.60934745,4.58333333 4.58333333,5.60934745 4.58333333,6.875 C4.58333333,8.14065255 5.60934745,9.16666667 6.875,9.16666667 C8.14065255,9.16666667 9.16666667,8.14065255 9.16666667,6.875 C9.16666667,5.60934745 8.14065255,4.58333333 6.875,4.58333333 Z M15.125,4.58333333 C13.8593474,4.58333333 12.8333333,5.60934745 12.8333333,6.875 C12.8333333,8.14065255 13.8593474,9.16666667 15.125,9.16666667 C16.3906526,9.16666667 17.4166667,8.14065255 17.4166667,6.875 C17.4166667,5.60934745 16.3906526,4.58333333 15.125,4.58333333 Z" id="形状结合"></path>
        </g>
    </g>
</svg>