<?xml version="1.0" encoding="UTF-8"?>
<svg width="14px" height="14px" viewBox="0 0 14 14" version="1.1" xmlns="http://www.w3.org/2000/svg" xmlns:xlink="http://www.w3.org/1999/xlink">
    <title>icon_list_hot_red</title>
    <g id="icon_list_hot_red" stroke="none" stroke-width="1" fill="none" fill-rule="evenodd">
        <g id="编组" fill="#FC6976" fill-rule="nonzero">
            <g id="icon/收藏备份">
                <path d="M13.125,7.87166599 C13.125,11.2554026 10.382659,14 7,14 C3.61734104,14 0.875,11.257403 0.875,7.87166599 C0.875,6.30332459 1.26242775,5.23109119 1.82586705,4.24487651 C2.30534682,3.40469362 2.98815029,2.69553925 3.62037572,2.37847023 C4.43973988,1.96838097 4.3800578,3.94081032 5.16806358,3.36368469 C6.47196532,2.41347785 5.00014451,-0.243100427 6.15433526,0.0179563993 C8.01965318,0.44004828 8.6265896,2.3764698 9.0767341,2.58851596 C10.0276012,3.03761372 9.82933526,0.73911338 11.3992775,2.69553925 C13.125,4.84300671 13.125,6.54237663 13.125,7.87166599 Z M7,10.9493599 C7.80940988,10.9519931 8.58673548,10.6366078 9.16097175,10.0725622 C9.73520802,9.50851655 10.0593158,8.74201496 10.0619942,7.94168123 C10.0619942,7.28853905 10.016474,6.60739078 9.15462428,5.55416152 C8.36965318,4.5939525 8.63771676,6.38134158 8.16127168,6.16129368 C7.93569364,6.05627082 7.48656069,3.98982099 7,3.82578528 C6.63078035,3.70075807 6.825,6.07427473 6.17355491,6.54037619 C5.77904624,6.82243759 5.52413295,5.15007355 5.30968208,5.24609446 C4.98598266,5.38812537 4.65216763,5.75020419 4.41242775,6.16129368 C4.08850123,6.69904019 3.92377254,7.31591067 3.93699422,7.94168123 C3.93940393,8.74227115 4.263565,9.5090794 4.83807872,10.0732112 C5.41259244,10.6373429 6.19033383,10.9525249 7,10.9493599 L7,10.9493599 Z M2.02008671,6.42435178 C2.13777407,6.42401219 2.24241327,6.35022259 2.28106936,6.24031088 L2.33771676,6.08027604 C2.38799702,5.93803175 2.31213775,5.78241683 2.16828035,5.73270038 C2.02442294,5.68298393 1.86704326,5.75799256 1.81676301,5.90023685 L1.76011561,6.0612719 C1.73017056,6.14467348 1.74312462,6.23726539 1.79484345,6.30949658 C1.84656228,6.38172778 1.93058174,6.42457035 2.02008671,6.42435178 Z M2.42774566,5.42013234 C2.52890173,5.42013234 2.625,5.36612058 2.67456647,5.27009968 C3.14696532,4.34389807 3.74277457,3.75577004 3.75390173,3.74476765 C3.82437392,3.67651506 3.85266766,3.57627219 3.82812496,3.48179955 C3.80358226,3.38732691 3.72993175,3.31297714 3.63491686,3.28675709 C3.53990198,3.26053704 3.43795773,3.28643015 3.36748555,3.35468274 C3.34219653,3.3806884 2.70187861,4.00982535 2.18294798,5.02404612 C2.13988043,5.10842173 2.14400233,5.208819 2.193845,5.28946516 C2.24368766,5.37011132 2.33216281,5.41953742 2.42774566,5.42013234 L2.42774566,5.42013234 Z" id="形状"></path>
            </g>
        </g>
    </g>
</svg>