<?xml version="1.0" encoding="UTF-8"?>
<svg width="24px" height="24px" viewBox="0 0 24 24" version="1.1" xmlns="http://www.w3.org/2000/svg" xmlns:xlink="http://www.w3.org/1999/xlink">
    <!-- Generator: Sketch 55.2 (78181) - https://sketchapp.com -->
    <title>icon_loading_basketball_normal</title>
    <desc>Created with Sketch.</desc>
    <g id="icon_loading_basketball_normal" stroke="none" stroke-width="1" fill="none" fill-rule="evenodd">
        <g id="篮球" fill-rule="nonzero">
            <path d="M12.1741114,0 C16.8254926,-0.000400025078 21.0190837,2.90128532 22.7993578,7.35196201 C24.579632,11.8026387 23.5959811,16.9257878 20.3070944,20.3324176 C17.0182077,23.7390474 12.0718006,24.7582541 7.77444773,22.9147683 C3.47709483,21.0712825 0.675119363,16.7281614 0.675119363,11.9106593 C0.675119363,5.33297004 5.823239,0.000546183617 12.1741114,0 L12.1741114,0 Z" id="路径" fill="#F2A759"></path>
            <path d="M22.1910875,6.00032967 C24.7617988,10.6645291 24.0015727,16.5335317 20.3347969,20.3310326 C16.6680212,24.1285335 11.0013518,24.9155534 6.49814324,22.2527473 C14.9284323,21.6876724 21.644985,14.7316661 22.1910875,6.00032967 Z" id="路径" fill="#C6661E" opacity="0.5"></path>
            <path d="M14.3341114,17.4807692 C14.6683289,14.5236264 13.9340053,11.8710989 12.2648276,9.96428571 C8.97126543,13.0406461 6.50739055,16.9517872 5.11543767,21.3131868 C4.75882524,21.0259955 4.41892166,20.7172148 4.09750663,20.3884615 C4.28212202,19.8431868 4.48328912,19.3035165 4.70100796,18.7694505 C6.04200447,15.478544 7.98791343,12.4890255 10.4304509,9.96725275 C10.7290186,9.6567033 11.0342706,9.35472527 11.3462069,9.06131868 C9.83554377,7.82208791 7.92572944,7.16835165 5.78482759,7.16835165 C5.34089519,7.1686224 4.89736524,7.1960327 4.45655172,7.25043956 C3.36989902,7.38519255 2.30405046,7.66166965 1.28435013,8.0732967 C1.46393043,7.52753975 1.68158648,6.99602859 1.93559682,6.48296703 C2.71185943,6.24074393 3.50717355,6.06964617 4.31236074,5.97164835 C7.40435013,5.59681319 10.2070027,6.38901099 12.2944297,8.2078022 C13.2493936,7.3887029 14.2583097,6.63952551 15.3138462,5.96571429 C13.8621554,4.18179376 12.6972243,2.16745003 11.8637666,0 C11.9668966,0 12.0709814,0 12.1750663,0 C12.534748,0 12.8909284,0.0168131868 13.2436074,0.0504395604 C14.0410863,1.95542085 15.1114868,3.72489279 16.4186737,5.29912088 C17.2312295,4.83493817 18.0666379,4.41502559 18.9214854,4.0410989 C19.377931,3.8432967 19.837878,3.65736264 20.3013263,3.4832967 C20.6199198,3.81440997 20.9196311,4.16445272 21.198939,4.53164835 C19.8511161,5.00241246 18.5439972,5.58998624 17.2914589,6.28813187 C19.0997891,8.20352403 21.249897,9.73716111 23.6224934,10.803956 C23.6549602,11.1679121 23.6711936,11.5368132 23.6711936,11.9106593 C23.6711936,12.0184615 23.6711936,12.1252747 23.6711936,12.2320879 C21.0058648,11.1298711 18.5860052,9.47539436 16.56,7.37010989 C16.4269496,7.23296703 16.2967639,7.09450549 16.169443,6.95472527 C15.1344376,7.60393337 14.1452159,8.32839009 13.2092308,9.12263736 C15.109496,11.3083516 15.9459947,14.308022 15.5716711,17.6281319 C15.3100396,19.7928034 14.6087089,21.8755371 13.5138462,23.7392308 C13.0700699,23.7924056 12.6237124,23.8193407 12.1769761,23.8193407 L11.992679,23.8193407 C13.2732095,21.8571429 14.0867905,19.6813187 14.3341114,17.4807692 Z" id="路径" fill="#CA6A29"></path>
        </g>
    </g>
</svg>