<?xml version="1.0" encoding="UTF-8"?>
<svg width="10px" height="10px" viewBox="0 0 10 10" version="1.1" xmlns="http://www.w3.org/2000/svg" xmlns:xlink="http://www.w3.org/1999/xlink">
    <!-- Generator: Sketch 55.2 (78181) - https://sketchapp.com -->
    <title>icon_live_hot_normal</title>
    <desc>Created with Sketch.</desc>
    <g id="icon_live_hot_normal" stroke="none" stroke-width="1" fill="none" fill-rule="evenodd">
        <path d="M5.16480424,0.6 C3.77373153,1.49431416 2.63996707,2.9668487 2.88923443,4.78631545 C2.58368089,4.48564086 2.01277821,4.13870864 1.84391967,3.59132669 C0.903136401,4.62441375 0.653869035,6.1200771 1.58661143,7.59261163 C1.67506114,7.72367491 1.7876335,7.88557661 1.9243285,8.0243495 C2.32637264,8.48692579 3.29127857,9.32727273 5.044191,9.32727273 C6.37897753,9.32727273 7.2313111,8.84156762 7.77005024,8.43295856 C8.30878938,8.05518793 8.67866999,7.39987151 8.84752853,6.85248956 C9.4184312,4.78631546 8.30878938,2.98997752 6.80514431,2.01085769 C6.80514431,2.50427241 6.5799996,3.10562159 6.46742724,3.42942499 C5.81611573,2.69701253 5.16480423,1.95689046 5.16480424,0.6 Z" id="热度" fill="#FFFFFF"></path>
    </g>
</svg>