<?xml version="1.0" encoding="UTF-8"?>
<svg width="24px" height="24px" viewBox="0 0 24 24" version="1.1" xmlns="http://www.w3.org/2000/svg" xmlns:xlink="http://www.w3.org/1999/xlink">
    <!-- Generator: Sketch 55.2 (78181) - https://sketchapp.com -->
    <title>icon_loading_football_normal</title>
    <desc>Created with Sketch.</desc>
    <g id="icon_loading_football_normal" stroke="none" stroke-width="1" fill="none" fill-rule="evenodd">
        <g id="编组-8" fill-rule="nonzero">
            <path d="M22.5795044,16.1326007 C22.5719553,16.1326007 22.5719553,16.1250516 22.5644062,16.1250516 L22.5493079,16.1099533 C22.1718505,15.7928891 21.3263459,15.0681708 20.9715359,14.668066 C20.8745205,14.5545154 20.8116968,14.4157797 20.7903563,14.2679611 L20.7903563,14.2679611 C20.6922174,13.3771617 20.9186919,10.4933871 21.0923223,9.76111973 C21.1450835,9.60273242 21.232807,9.45824664 21.3489933,9.33836744 L21.3489933,9.33836744 C21.741549,8.92316429 22.5191113,8.33433074 22.8437246,8.10030715 L22.8437246,8.10030715 C21.9561201,5.38458619 20.1133493,3.08313445 17.6574599,1.62313808 L17.6574599,1.62313808 C17.6574599,1.62313808 17.4309854,1.47970426 17.257355,1.39666363 L17.257355,1.39666363 C14.5151258,-0.0882887875 11.2897532,-0.40402147 8.31161454,0.520962455 L8.31161454,0.913518156 L8.31161454,0.913518156 C8.31324513,1.07982055 8.22720168,1.23469875 8.0851401,1.32117215 L4.45399986,3.40473703 C4.33054165,3.46093874 4.19054657,3.46901538 4.06144416,3.42738447 L3.60094613,3.28395066 C1.53321308,5.26675272 0.265283438,7.93961289 0.0377482234,10.795353 L0.0151007791,11.1803596 C0.007551631,11.35399 1.24014577e-06,11.5351695 1.24014577e-06,11.7163491 C-0.00118068585,14.2812599 0.842497422,16.7751512 2.40063158,18.8125483 L2.43082817,18.8049992 L3.63114272,18.5332298 L3.64624102,18.5256807 C3.64624102,18.5256807 3.86516631,18.44264 4.06144416,18.6766636 L7.2698321,21.500045 C7.2698321,21.500045 7.40571677,21.5981839 7.40571677,21.854855 L7.40571677,22.5644749 C8.77580806,23.1184876 10.238448,23.4079417 11.7162803,23.417549 C13.2366602,23.4203812 14.7426193,23.1227811 16.1476303,22.5418275 L16.4269487,22.4210411 L16.4873419,22.3983936 L16.4873419,22.3983936 C19.2201335,21.1754317 21.4395831,18.9635313 22.5795044,16.1854448 C22.5865224,16.1737507 22.5916198,16.1610071 22.5946027,16.147699 L22.5870536,16.1401499 C22.5870536,16.1359806 22.5836737,16.1326007 22.5795044,16.1326007 Z M6.22804967,12.4184199 C6.22804967,12.4184199 6.19785307,12.6599926 5.77510078,12.9166636 C5.23911126,13.3998091 3.81232227,14.0943307 3.1253498,14.260412 C2.98462215,14.315218 2.82463997,14.275977 2.72524495,14.1622731 C2.25719776,13.6715784 1.05688322,11.8371355 0.868154514,11.0293766 C0.852735349,10.9010526 0.857831823,10.7710925 0.883252811,10.6443701 C1.1172764,9.94229928 2.25719776,7.78324293 2.98946513,7.09627045 C2.98946513,7.09627045 3.20084128,6.84714856 3.44241402,6.87734515 C4.12183735,6.96793493 5.684511,7.59451422 6.23559881,8.02481567 C6.41513699,8.13898016 6.5487639,8.31269514 6.61305622,8.51551029 C6.8923747,10.1008314 6.38658178,11.814488 6.22804967,12.4184199 Z M16.2231217,2.62717477 C16.4200266,2.69513661 16.587818,2.8283044 16.6987181,3.00463218 C17.1365687,3.74444869 17.7706971,5.62418657 17.8839343,6.25831501 C17.8990326,6.38665053 17.8763852,6.55273179 17.5895176,6.83205027 C16.9251925,7.41333467 15.3776172,8.20599522 14.6302515,8.36452733 C14.4695175,8.39292013 14.3044792,8.38518396 14.147106,8.34187989 C13.2412082,8.092758 11.2708806,6.90754175 10.5990064,6.09223375 C10.478915,5.98582372 10.3835768,5.85441158 10.3196879,5.7072272 C10.168705,5.15613939 10.8783249,3.3216964 11.2104874,2.5214867 C11.2859789,2.332758 11.391667,2.09873441 11.6332397,2.07608696 C12.5995307,1.94775145 15.3549697,2.38560204 16.2231217,2.62717477 Z M15.4304612,20.0581577 C15.3262489,20.136369 15.1983044,20.1763517 15.0681021,20.171395 C14.2829907,20.1562967 11.7540261,19.9449205 10.9991113,19.5901106 C10.87841,19.5367827 10.7853961,19.4355617 10.7424402,19.3107921 C10.4857692,18.6691145 9.91203394,16.4874107 9.91203394,15.5135706 C9.91203394,15.1512115 10.0630169,15.0077777 10.0630169,15.0077777 C10.5537115,14.4566898 12.8486525,13.0978432 13.7998452,12.8487213 C14.0426258,12.8048574 14.2930346,12.8533236 14.501916,12.984606 C15.3096748,13.5356938 16.8647993,14.9851302 17.3177482,15.6192587 C17.3935403,15.7308106 17.4354846,15.8618867 17.4385346,15.9967161 C17.3479448,16.7893766 16.0645896,19.4844225 15.4304612,20.0581577 Z" id="形状" fill="#FFFFFF"></path>
            <path d="M7.2698321,21.500045 L4.06144416,18.6691145 C3.86516631,18.4350909 3.64624102,18.5181315 3.64624102,18.5181315 L3.63114272,18.5256807 L2.43082817,18.79745 L2.40063158,18.8049992 C2.40063158,18.8049992 5.43538911,21.8020109 7.40571677,22.5720241 L7.40571677,21.8624041 C7.40571677,21.5981839 7.2698321,21.500045 7.2698321,21.500045 Z" id="路径" fill="#000000"></path>
            <path d="M3.11780065,14.2679611 C3.80477313,14.0943307 5.23156212,13.3998091 5.76755163,12.9242128 C6.16010733,12.6146977 6.22050052,12.425969 6.22050052,12.425969 C6.38658178,11.8220372 6.79423577,10.2216178 6.59795792,8.53815774 C6.53558156,8.33434794 6.40149152,8.16003088 6.22050052,8.04746311 C5.66941271,7.61716167 4.10673905,6.99058238 3.42731572,6.8999926 C3.18574298,6.86224686 2.97436683,7.11891789 2.97436683,7.11891789 C2.24964862,7.80589037 1.10972725,9.96494673 0.868154514,10.6670175 C0.838576169,10.7932106 0.833451005,10.9239022 0.853056218,11.0520241 C1.04178492,11.8597829 2.24209947,13.6942259 2.71014665,14.1849205 C2.7176958,14.1698222 2.86112961,14.3510018 3.11780065,14.2679611 Z" id="路径" fill="#000000"></path>
            <path d="M22.8739212,8.17579863 L22.8361755,8.10030715 C22.5115621,8.33433074 21.7339999,8.92316429 21.3414442,9.33836744 L21.3414442,9.33836744 C21.2278349,9.4602174 21.1404717,9.60410967 21.0847731,9.76111973 C20.9111427,10.4933871 20.6846683,13.3771617 20.7828072,14.2679611 L20.7828072,14.2679611 C20.8027777,14.4161765 20.8657694,14.5552832 20.9639868,14.668066 C21.3112476,15.0606217 22.1643013,15.7928891 22.5417587,16.1099533 L22.556857,16.1250516 C22.5607754,16.1293586 22.5661586,16.1320503 22.5719553,16.1326007 L22.5795044,16.1401499 L22.5870536,16.147699 C23.1544236,14.7660225 23.4418148,13.2854446 23.4325582,11.7918406 C23.4415976,10.5643252 23.2529723,9.3433585 22.8739212,8.17579863 Z" id="路径" fill="#000000"></path>
            <path d="M14.5094651,12.984606 C14.3022384,12.849188 14.050183,12.8004031 13.8073944,12.8487213 C12.8637508,13.1053923 10.5612607,14.4566898 10.070566,15.0077777 C10.070566,15.0077777 9.91958309,15.1436623 9.91958309,15.5135706 C9.91958309,16.4874107 10.4933183,18.6615653 10.7499894,19.3107921 C10.7929453,19.4355617 10.8859592,19.5367827 11.0066604,19.5901106 C11.7615752,19.9449205 14.2905398,20.1562967 15.0756512,20.171395 C15.2058535,20.1763517 15.3337981,20.136369 15.4380103,20.0581577 C16.0645896,19.4844225 17.355494,16.7818275 17.4536329,15.9967161 C17.4469934,15.8625134 17.4053521,15.7323842 17.3328465,15.6192587 C16.8723485,14.9851302 15.317224,13.5356938 14.5094651,12.984606 Z" id="路径" fill="#000000"></path>
            <path d="M8.31161454,0.513413307 C6.54409048,1.05072495 4.92952699,2.00031598 3.60094613,3.28395066 L4.06144416,3.42738447 C4.19054657,3.46901538 4.33054165,3.46093874 4.45399986,3.40473703 L8.07759095,1.31362301 C8.22260772,1.23002389 8.30969764,1.07326203 8.30406539,0.905969008 L8.30406539,0.905969008 L8.30406539,0.513413307 L8.31161454,0.513413307 Z" id="路径" fill="#000000"></path>
            <path d="M16.6987181,3.00463218 C16.587818,2.8283044 16.4200266,2.69513661 16.2231217,2.62717477 C15.3474206,2.38560204 12.5919815,1.94775145 11.6332397,2.06853782 C11.391667,2.09118526 11.2859789,2.332758 11.2104874,2.51393755 C10.8783249,3.31414725 10.168705,5.15613939 10.3196879,5.69967805 C10.3868173,5.84498813 10.4817024,5.9757757 10.5990064,6.0846846 C11.2708806,6.8999926 13.2412082,8.08520885 14.147106,8.33433074 C14.3050586,8.37384866 14.4692949,8.38154724 14.6302515,8.35697818 C15.3776172,8.19844607 16.9251925,7.40578552 17.5895176,6.82450112 C17.8763852,6.54518264 17.9065818,6.37910138 17.8839343,6.25076586 C17.7782463,5.63173572 17.1441178,3.75199784 16.6987181,3.00463218 Z" id="路径" fill="#000000"></path>
            <path d="M2.40063158,18.8049992 C2.40063158,18.8049992 5.43538911,21.8020109 7.40571677,22.5720241 C8.77580806,23.1260368 10.238448,23.4154909 11.7162803,23.4250981 C13.2366602,23.4279303 14.7426193,23.1303302 16.1476303,22.5493766 L16.4269487,22.4285902 C16.4495962,22.4210411 16.4646945,22.4134919 16.4873419,22.4059428 L16.4873419,22.4059428 C19.2201335,21.1829808 21.4395831,18.9710804 22.5795044,16.1929939 C22.5865224,16.1812999 22.5916198,16.1685562 22.5946027,16.1552482 C23.1619727,14.7735717 23.4493639,13.2929937 23.4401073,11.7993897 C23.4392037,10.5745105 23.2482018,9.35719186 22.8739212,8.19089692 L22.8361755,8.11540544 C21.9485709,5.39968449 20.1058001,3.09823274 17.6499107,1.63823637 C22.2926368,6.94528749 22.1341047,13.5885378 18.6237508,17.8009625 C15.4078138,21.6283805 8.59848217,22.2398615 2.40063158,18.8049992 Z" id="路径" fill="#000000" opacity="0.200000003"></path>
        </g>
    </g>
</svg>