<?xml version="1.0" encoding="UTF-8"?>
<svg width="16px" height="16px" viewBox="0 0 16 16" version="1.1" xmlns="http://www.w3.org/2000/svg" xmlns:xlink="http://www.w3.org/1999/xlink">
    <!-- Generator: Sketch 55.2 (78181) - https://sketchapp.com -->
    <title>icon_list_collect_normal</title>
    <desc>Created with Sketch.</desc>
    <g id="icon_list_collect_normal" stroke="none" stroke-width="1" fill="none" fill-rule="evenodd">
        <g id="ico/收藏">
            <circle id="椭圆形" fill="#5078FF" fill-rule="evenodd" cx="8" cy="8" r="8"></circle>
            <path d="M11.9801128,6.87481714 C11.932112,6.73187043 11.8041097,6.62068966 11.6521071,6.60083595 L9.38006747,6.27126437 L8.36404975,4.22633229 C8.29604856,4.09132706 8.15604612,4 8.0000434,4 C7.84804075,4 7.70403824,4.08735632 7.63603705,4.22236155 L6.62001933,6.27523511 L4.34797971,6.60083595 C4.19197699,6.6246604 4.06797482,6.72789969 4.01997399,6.87481714 C3.97197315,7.02173459 4.01197385,7.17659352 4.1239758,7.28777429 L5.76800447,8.8800418 L5.3799977,11.1274817 C5.35199722,11.2783699 5.41599833,11.4292581 5.5400005,11.5245559 C5.61200175,11.5761755 5.69600322,11.6 5.77600461,11.6 C5.84000573,11.6 5.90400684,11.584117 5.96400789,11.5523511 L7.99604333,10.492163 L10.0240787,11.5523511 C10.156081,11.6238245 10.328084,11.615883 10.4560862,11.5205852 C10.5800884,11.4292581 10.6400894,11.2783699 10.616089,11.1274817 L10.2280823,8.8800418 L11.8721109,7.28777429 C11.9881129,7.18056426 12.0281136,7.02173459 11.9801128,6.87481714 Z" id="路径" fill="#FFFFFF" fill-rule="nonzero"></path>
        </g>
    </g>
</svg>