<?xml version="1.0" encoding="UTF-8"?>
<svg width="24px" height="24px" viewBox="0 0 24 24" version="1.1" xmlns="http://www.w3.org/2000/svg" xmlns:xlink="http://www.w3.org/1999/xlink">
    <title>icon_playground_live_white</title>
    <g id="icon_playground_live_white" stroke="none" stroke-width="1" fill="none" fill-rule="evenodd">
        <g id="icon/直播" fill="#FFFFFF">
            <path d="M23,20 C23.5128358,20 23.9355072,20.3684957 23.9932723,20.8432318 L24,20.9545528 L24,21.7727102 L23.9922651,21.9553826 C23.8993478,23.0480049 22.9802996,23.9176794 21.8321779,23.9944832 L21.6666667,24 L2.33333333,24 L2.14196372,23.9926166 C0.997320517,23.9039221 0.0862399567,23.0266421 0.00577941648,21.9306994 L0,21.7727102 L0,20.9545528 L0.00912882133,20.8250256 C0.0753453854,20.3591077 0.493738979,20 1,20 C1.51283584,20 1.93550716,20.3684957 1.99327227,20.8432318 L2,20.9545528 L2,21.7727102 L2.00880357,21.8456669 C2.03759302,21.9628053 2.13418764,22.0550099 2.25690306,22.082491 L2.33333333,22.0908944 L21.6666667,22.0908944 L21.7430969,22.082491 C21.8658124,22.0550099 21.962407,21.9628053 21.9911964,21.8456669 L22,21.7727102 L22,20.9545528 L22.0091288,20.8250256 C22.0753454,20.3591077 22.493739,20 23,20 Z M6.47045709,8 L6.57056088,8.00531046 C6.66743552,8.01593137 6.7546227,8.04248366 6.83212241,8.08496732 C6.93545536,8.1416122 6.98712183,8.20915033 6.98712183,8.2875817 C6.98712183,8.35729847 7.036328,8.41830065 7.13474033,8.47058824 C7.23315266,8.52287582 7.35124746,8.54901961 7.48902473,8.54901961 L7.48902473,8.54901961 L10.6775843,8.54901961 L10.7772268,8.55800654 C10.8731788,8.57598039 10.9580594,8.62091503 11.0318687,8.69281046 C11.130281,8.78867102 11.1794872,8.89760349 11.1794872,9.01960784 L11.1794872,9.01960784 L11.1794872,9.32026144 L11.170261,9.40890523 C11.1518087,9.49468954 11.1056779,9.57189542 11.0318687,9.64052288 C10.9334564,9.73202614 10.8153616,9.77777778 10.6775843,9.77777778 L10.6775843,9.77777778 L7.48902473,9.77777778 L7.38938224,9.78431373 C7.29343022,9.79738562 7.20854958,9.83006536 7.13474033,9.88235294 C7.036328,9.95206972 6.98712183,10.043573 6.98712183,10.1568627 C6.98712183,10.2701525 7.036328,10.3616558 7.13474033,10.4313725 C7.23315266,10.5010893 7.35124746,10.5359477 7.48902473,10.5359477 L7.48902473,10.5359477 L9.99853921,10.5359477 L10.0981817,10.5445261 C10.1941337,10.561683 10.2790144,10.6045752 10.3528236,10.6732026 C10.4512359,10.7647059 10.5004421,10.8714597 10.5004421,10.9934641 L10.5004421,10.9934641 L10.5004421,18.3267974 L10.5064391,18.4207516 C10.5184331,18.5106209 10.5484181,18.5882353 10.5963941,18.6535948 C10.6603621,18.7407407 10.7464729,18.7843137 10.8547265,18.7843137 C10.9334564,18.7843137 11.0072656,18.8278867 11.0761542,18.9150327 C11.1450429,19.0021786 11.1794872,19.1111111 11.1794872,19.2418301 L11.1794872,19.2418301 L11.1794872,19.5424837 L11.170261,19.6311275 C11.1518087,19.7169118 11.1056779,19.7941176 11.0318687,19.8627451 C10.9334564,19.9542484 10.8153616,20 10.6775843,20 L10.6775843,20 L1.83523623,20 L1.73559374,19.9914216 C1.63964172,19.9742647 1.55476108,19.9313725 1.48095183,19.8627451 C1.3825395,19.7712418 1.33333333,19.664488 1.33333333,19.5424837 L1.33333333,19.5424837 L1.33333333,19.2418301 L1.33794641,19.1478758 C1.34717257,19.0580065 1.37023796,18.9803922 1.40714258,18.9150327 C1.45634875,18.8278867 1.52031677,18.7843137 1.59904663,18.7843137 C1.6777765,18.7843137 1.74420482,18.7407407 1.7983316,18.6535948 C1.85245839,18.5664488 1.87952178,18.4575163 1.87952178,18.3267974 L1.87952178,18.3267974 L1.87952178,10.9934641 L1.88874793,10.9048203 C1.90720025,10.8190359 1.95333103,10.7418301 2.02714028,10.6732026 C2.12555261,10.5816993 2.24856803,10.5359477 2.39618652,10.5359477 L2.39618652,10.5359477 L5.09760505,10.5359477 L5.19724754,10.5294118 C5.29319956,10.5163399 5.3780802,10.4836601 5.45188945,10.4313725 C5.55030178,10.3616558 5.59950795,10.2701525 5.59950795,10.1568627 C5.59950795,10.043573 5.55030178,9.95206972 5.45188945,9.88235294 C5.35347711,9.81263617 5.23538232,9.77777778 5.09760505,9.77777778 L5.09760505,9.77777778 L1.83523623,9.77777778 L1.73559374,9.76919935 C1.63964172,9.75204248 1.55476108,9.70915033 1.48095183,9.64052288 C1.3825395,9.54901961 1.33333333,9.4422658 1.33333333,9.32026144 L1.33333333,9.32026144 L1.33333333,9.01960784 L1.34255949,8.93055556 C1.3610118,8.84395425 1.40714258,8.76470588 1.48095183,8.69281046 C1.57936416,8.59694989 1.69745896,8.54901961 1.83523623,8.54901961 L1.83523623,8.54901961 L5.09760505,8.54901961 L5.19724754,8.54411765 C5.29319956,8.53431373 5.3780802,8.50980392 5.45188945,8.47058824 C5.55030178,8.41830065 5.59950795,8.35729847 5.59950795,8.2875817 C5.59950795,8.20915033 5.65363473,8.1416122 5.76188829,8.08496732 C5.87014186,8.02832244 5.99315728,8 6.13093454,8 L6.13093454,8 L6.47045709,8 Z M14.4590781,8 L14.5591819,8.00816993 C14.6560566,8.0245098 14.7432437,8.06535948 14.8207435,8.13071895 C14.9240764,8.21786492 14.9757429,8.32244009 14.9757429,8.44444444 L14.9757429,8.44444444 L14.9757429,8.77124183 L14.9812786,8.85947712 C14.99235,8.94444444 15.0200284,9.01960784 15.064314,9.08496732 C15.1233614,9.17211329 15.19225,9.21568627 15.2709799,9.21568627 C15.3497097,9.21568627 15.4185984,9.25925926 15.4776458,9.34640523 C15.5366932,9.4335512 15.5662169,9.54248366 15.5662169,9.67320261 L15.5662169,9.67320261 L15.5662169,9.97385621 L15.5606812,10.0620915 C15.5496098,10.1470588 15.5219313,10.2222222 15.4776458,10.2875817 C15.4185984,10.3747277 15.3497097,10.4183007 15.2709799,10.4183007 C15.19225,10.4183007 15.1233614,10.4618736 15.064314,10.5490196 C15.0052666,10.6361656 14.9757429,10.745098 14.9757429,10.875817 L14.9757429,10.875817 L14.9757429,16.0653595 L14.9812786,16.1540033 C14.99235,16.2397876 15.0200284,16.3169935 15.064314,16.3856209 C15.1233614,16.4771242 15.19225,16.5228758 15.2709799,16.5228758 C15.3497097,16.5228758 15.4185984,16.5664488 15.4776458,16.6535948 C15.5366932,16.7407407 15.5662169,16.8453159 15.5662169,16.9673203 L15.5662169,16.9673203 L15.5662169,17.2679739 L15.5606812,17.3562092 C15.5496098,17.4411765 15.5219313,17.5163399 15.4776458,17.5816993 C15.4185984,17.6688453 15.3497097,17.7124183 15.2709799,17.7124183 C15.19225,17.7124183 15.1233614,17.7581699 15.064314,17.8496732 C15.0052666,17.9411765 14.9757429,18.0479303 14.9757429,18.1699346 L14.9757429,18.1699346 L14.9757429,19.5424837 L14.9695429,19.6138562 C14.9530096,19.7065795 14.9034098,19.7895425 14.8207435,19.8627451 C14.7174105,19.9542484 14.5968554,20 14.4590781,20 L14.4590781,20 L13.3962249,20 L13.2970438,19.9914216 C13.2020144,19.9742647 13.1194403,19.9313725 13.0493215,19.8627451 C12.9558298,19.7712418 12.9090839,19.664488 12.9090839,19.5424837 L12.9090839,19.5424837 L12.9090839,19.254902 L12.9155422,19.1609477 C12.9284588,19.0710784 12.9607504,18.9934641 13.0124169,18.9281046 C13.0813055,18.8409586 13.1600354,18.7973856 13.2486065,18.7973856 C13.35686,18.7973856 13.4454311,18.7538126 13.5143197,18.6666667 C13.5832084,18.5795207 13.6176527,18.4705882 13.6176527,18.3398693 L13.6176527,18.3398693 L13.6176527,18.1568627 L13.6111944,18.0686275 C13.5982778,17.9836601 13.5659862,17.9084967 13.5143197,17.8431373 C13.4454311,17.7559913 13.35686,17.7124183 13.2486065,17.7124183 C13.1600354,17.7124183 13.0813055,17.6666667 13.0124169,17.5751634 C12.9435282,17.4836601 12.9090839,17.3769063 12.9090839,17.254902 L12.9090839,17.254902 L12.9090839,16.9673203 L12.9155422,16.879085 C12.9284588,16.7941176 12.9607504,16.7189542 13.0124169,16.6535948 C13.0813055,16.5664488 13.1600354,16.5228758 13.2486065,16.5228758 C13.35686,16.5228758 13.4454311,16.4771242 13.5143197,16.3856209 C13.5832084,16.2941176 13.6176527,16.1873638 13.6176527,16.0653595 L13.6176527,16.0653595 L13.6176527,10.875817 L13.6111944,10.7818627 C13.5982778,10.6919935 13.5659862,10.6143791 13.5143197,10.5490196 C13.4454311,10.4618736 13.35686,10.4183007 13.2486065,10.4183007 C13.1600354,10.4183007 13.0813055,10.3747277 13.0124169,10.2875817 C12.9435282,10.2004357 12.9090839,10.0958606 12.9090839,9.97385621 L12.9090839,9.97385621 L12.9090839,9.67320261 L12.9155422,9.57924837 C12.9284588,9.48937908 12.9607504,9.41176471 13.0124169,9.34640523 C13.0813055,9.25925926 13.1600354,9.21568627 13.2486065,9.21568627 C13.35686,9.21568627 13.4454311,9.17211329 13.5143197,9.08496732 C13.5832084,8.99782135 13.6176527,8.89324619 13.6176527,8.77124183 L13.6176527,8.77124183 L13.6176527,8.44444444 L13.6268789,8.35620915 C13.6453312,8.27124183 13.6914619,8.19607843 13.7652712,8.13071895 C13.8636835,8.04357298 13.9866989,8 14.1343174,8 L14.1343174,8 L14.4590781,8 Z M22.1500019,14.8104575 L22.2501057,14.8190359 C22.3469804,14.8361928 22.4341675,14.879085 22.5116672,14.9477124 C22.6150002,15.0392157 22.6666667,15.1459695 22.6666667,15.2679739 L22.6666667,15.2679739 L22.6666667,19.5424837 L22.6604667,19.6138562 C22.6439334,19.7065795 22.5943336,19.7895425 22.5116672,19.8627451 C22.4083343,19.9542484 22.2877792,20 22.1500019,20 L22.1500019,20 L16.3928805,20 L16.2867797,19.9914216 C16.185292,19.9742647 16.0976435,19.9313725 16.0238342,19.8627451 C15.9254219,19.7712418 15.8762157,19.664488 15.8762157,19.5424837 L15.8762157,19.5424837 L15.8762157,15.2679739 L15.8854419,15.1793301 C15.9038942,15.0935458 15.950025,15.0163399 16.0238342,14.9477124 C16.1222466,14.8562092 16.245262,14.8104575 16.3928805,14.8104575 L16.3928805,14.8104575 L22.1500019,14.8104575 Z M20.7919117,17.9346405 L20.3933418,17.9346405 L20.287241,17.9428105 C20.1857533,17.9591503 20.0981048,18 20.0242955,18.0653595 C19.9258832,18.1525054 19.876677,18.2570806 19.876677,18.379085 C19.876677,18.4923747 19.9258832,18.5904139 20.0242955,18.6732026 C20.1227079,18.7559913 20.2457233,18.7973856 20.3933418,18.7973856 L20.3933418,18.7973856 L20.7919117,18.7973856 C20.9395302,18.7973856 21.0625456,18.7559913 21.160958,18.6732026 C21.2593703,18.5904139 21.3085765,18.4923747 21.3085765,18.379085 C21.3085765,18.2570806 21.2593703,18.1525054 21.160958,18.0653595 C21.0625456,17.9782135 20.9395302,17.9346405 20.7919117,17.9346405 L20.7919117,17.9346405 Z M18.1347788,17.9346405 L17.7509707,17.9346405 L17.6448699,17.9428105 C17.5433821,17.9591503 17.4557337,18 17.3819244,18.0653595 C17.2835121,18.1525054 17.2343059,18.2570806 17.2343059,18.379085 C17.2343059,18.4923747 17.2835121,18.5904139 17.3819244,18.6732026 C17.4803367,18.7559913 17.6033522,18.7973856 17.7509707,18.7973856 L17.7509707,18.7973856 L18.1347788,18.7973856 C18.272556,18.7973856 18.3955714,18.7559913 18.503825,18.6732026 C18.6120786,18.5904139 18.6662054,18.4923747 18.6662054,18.379085 C18.6662054,18.2570806 18.6120786,18.1525054 18.503825,18.0653595 C18.3955714,17.9782135 18.272556,17.9346405 18.1347788,17.9346405 L18.1347788,17.9346405 Z M8.61092532,17.9346405 L3.75427671,17.9346405 L3.65417292,17.9428105 C3.55729828,17.9591503 3.4701111,18 3.39261139,18.0653595 C3.28927844,18.1525054 3.23761197,18.2570806 3.23761197,18.379085 C3.23761197,18.4923747 3.28927844,18.5882353 3.39261139,18.6666667 C3.49594434,18.745098 3.61649945,18.7843137 3.75427671,18.7843137 L3.75427671,18.7843137 L8.61092532,18.7843137 C8.75854382,18.7843137 8.88155923,18.745098 8.97997157,18.6666667 C9.0783839,18.5882353 9.12759006,18.4923747 9.12759006,18.379085 C9.12759006,18.2570806 9.0783839,18.1525054 8.97997157,18.0653595 C8.88155923,17.9782135 8.75854382,17.9346405 8.61092532,17.9346405 L8.61092532,17.9346405 Z M20.7919117,16 L20.3933418,16 L20.287241,16.0081699 C20.1857533,16.0245098 20.0981048,16.0653595 20.0242955,16.130719 C19.9258832,16.2178649 19.876677,16.3224401 19.876677,16.4444444 C19.876677,16.5577342 19.9258832,16.6557734 20.0242955,16.7385621 C20.1227079,16.8213508 20.2457233,16.8627451 20.3933418,16.8627451 L20.3933418,16.8627451 L20.7919117,16.8627451 C20.9395302,16.8627451 21.0625456,16.8213508 21.160958,16.7385621 C21.2593703,16.6557734 21.3085765,16.5577342 21.3085765,16.4444444 C21.3085765,16.3224401 21.2593703,16.2178649 21.160958,16.130719 C21.0625456,16.043573 20.9395302,16 20.7919117,16 L20.7919117,16 Z M18.1347788,16 L17.7509707,16 L17.6448699,16.0081699 C17.5433821,16.0245098 17.4557337,16.0653595 17.3819244,16.130719 C17.2835121,16.2178649 17.2343059,16.3224401 17.2343059,16.4444444 C17.2343059,16.5577342 17.2835121,16.6557734 17.3819244,16.7385621 C17.4803367,16.8213508 17.6033522,16.8627451 17.7509707,16.8627451 L17.7509707,16.8627451 L18.1347788,16.8627451 C18.272556,16.8627451 18.3955714,16.8213508 18.503825,16.7385621 C18.6120786,16.6557734 18.6662054,16.5577342 18.6662054,16.4444444 C18.6662054,16.3224401 18.6120786,16.2178649 18.503825,16.130719 C18.3955714,16.043573 18.272556,16 18.1347788,16 L18.1347788,16 Z M8.61092532,15.869281 L3.75427671,15.869281 L3.65417292,15.877451 C3.55729828,15.8937908 3.4701111,15.9346405 3.39261139,16 C3.28927844,16.087146 3.23761197,16.1917211 3.23761197,16.3137255 C3.23761197,16.4270153 3.28927844,16.5250545 3.39261139,16.6078431 C3.49594434,16.6906318 3.61649945,16.7320261 3.75427671,16.7320261 L3.75427671,16.7320261 L8.61092532,16.7320261 C8.75854382,16.7320261 8.88155923,16.6906318 8.97997157,16.6078431 C9.0783839,16.5250545 9.12759006,16.4270153 9.12759006,16.3137255 C9.12759006,16.1917211 9.0783839,16.087146 8.97997157,16 C8.88155923,15.912854 8.75854382,15.869281 8.61092532,15.869281 L8.61092532,15.869281 Z M8.61092532,13.8169935 L3.75427671,13.8169935 L3.65417292,13.8247549 C3.55729828,13.8402778 3.4701111,13.879085 3.39261139,13.9411765 C3.28927844,14.0239651 3.23761197,14.1263617 3.23761197,14.248366 C3.23761197,14.3616558 3.28927844,14.459695 3.39261139,14.5424837 C3.49594434,14.6252723 3.61649945,14.6666667 3.75427671,14.6666667 L3.75427671,14.6666667 L8.61092532,14.6666667 C8.75854382,14.6666667 8.88155923,14.6252723 8.97997157,14.5424837 C9.0783839,14.459695 9.12759006,14.3616558 9.12759006,14.248366 C9.12759006,14.1263617 9.0783839,14.0239651 8.97997157,13.9411765 C8.88155923,13.8583878 8.75854382,13.8169935 8.61092532,13.8169935 L8.61092532,13.8169935 Z M22.1500019,8 L22.2501057,8.00816993 C22.3469804,8.0245098 22.4341675,8.06535948 22.5116672,8.13071895 C22.6150002,8.21786492 22.6666667,8.32244009 22.6666667,8.44444444 L22.6666667,8.44444444 L22.6666667,9.04575163 L22.6604667,9.12156863 C22.6439334,9.21917211 22.5943336,9.30283224 22.5116672,9.37254902 C22.4083343,9.45969499 22.2877792,9.50326797 22.1500019,9.50326797 L22.1500019,9.50326797 L20.3933418,9.50326797 L20.287241,9.51184641 C20.1857533,9.52900327 20.0981048,9.57189542 20.0242955,9.64052288 C19.9258832,9.73202614 19.876677,9.84313725 19.876677,9.97385621 L19.876677,9.97385621 L19.876677,11.0457516 L19.8859032,11.1339869 C19.9043555,11.2189542 19.9504863,11.2941176 20.0242955,11.3594771 C20.1227079,11.4466231 20.2457233,11.4901961 20.3933418,11.4901961 L20.3933418,11.4901961 L22.1500019,11.4901961 L22.2501057,11.498366 C22.3469804,11.5147059 22.4341675,11.5555556 22.5116672,11.620915 C22.6150002,11.708061 22.6666667,11.8126362 22.6666667,11.9346405 L22.6666667,11.9346405 L22.6666667,12.2352941 L22.6604667,12.3064052 C22.6439334,12.3984314 22.5943336,12.4793028 22.5116672,12.5490196 C22.4083343,12.6361656 22.2877792,12.6797386 22.1500019,12.6797386 L22.1500019,12.6797386 L22.1057164,12.6797386 L22.0060739,12.6870915 C21.9101219,12.7017974 21.8252412,12.7385621 21.751432,12.7973856 C21.6530196,12.875817 21.6038135,12.9716776 21.6038135,13.0849673 C21.6038135,13.1982571 21.6530196,13.2897603 21.751432,13.3594771 C21.8498443,13.4291939 21.9679391,13.4640523 22.1057164,13.4640523 L22.1057164,13.4640523 L22.1500019,13.4640523 L22.2501057,13.4730392 C22.3469804,13.4910131 22.4341675,13.5359477 22.5116672,13.6078431 C22.6150002,13.7037037 22.6666667,13.8126362 22.6666667,13.9346405 L22.6666667,13.9346405 L22.6666667,13.9869281 L22.6604667,14.0583007 C22.6439334,14.151024 22.5943336,14.2339869 22.5116672,14.3071895 C22.4083343,14.3986928 22.2877792,14.4444444 22.1500019,14.4444444 L22.1500019,14.4444444 L20.8509591,14.4444444 L20.7522393,14.435866 C20.6581325,14.4187092 20.5778649,14.375817 20.5114366,14.3071895 C20.4228655,14.2156863 20.3785799,14.1089325 20.3785799,13.9869281 L20.3785799,13.9869281 L20.3785799,13.1372549 L20.3703789,13.0203341 C20.3594442,12.9457758 20.3375748,12.8779956 20.3047707,12.8169935 C20.2555645,12.7254902 20.2014377,12.6797386 20.1423903,12.6797386 C20.0636605,12.6797386 19.9996925,12.7254902 19.9504863,12.8169935 C19.9012801,12.9084967 19.876677,13.0152505 19.876677,13.1372549 L19.876677,13.1372549 L19.876677,13.9738562 L19.8704771,14.0449673 C19.8539438,14.1369935 19.804344,14.2178649 19.7216776,14.2875817 C19.6183447,14.3747277 19.4928689,14.4183007 19.3452504,14.4183007 L19.3452504,14.4183007 L19.1681082,14.4183007 L19.0684658,14.4101307 C18.9725137,14.3937908 18.8876331,14.3529412 18.8138239,14.2875817 C18.7154115,14.2004357 18.6662054,14.0958606 18.6662054,13.9738562 L18.6662054,13.9738562 L18.6662054,13.1372549 L18.6606697,13.0486111 C18.6495983,12.9628268 18.6219198,12.8856209 18.5776343,12.8169935 C18.5185869,12.7254902 18.4546188,12.6797386 18.3857302,12.6797386 C18.3168416,12.6797386 18.2602545,12.7254902 18.2159689,12.8169935 C18.1716834,12.9084967 18.1495406,13.0152505 18.1495406,13.1372549 L18.1495406,13.1372549 L18.1495406,13.9869281 L18.1407758,14.0755719 C18.1232461,14.1613562 18.0794218,14.2385621 18.009303,14.3071895 C17.9158113,14.3986928 17.8050974,14.4444444 17.6771614,14.4444444 L17.6771614,14.4444444 L16.3928805,14.4444444 L16.2867797,14.435866 C16.185292,14.4187092 16.0976435,14.375817 16.0238342,14.3071895 C15.9254219,14.2156863 15.8762157,14.1089325 15.8762157,13.9869281 L15.8762157,13.9869281 L15.8762157,13.9346405 L15.8854419,13.8455882 C15.9038942,13.7589869 15.950025,13.6797386 16.0238342,13.6078431 C16.1222466,13.5119826 16.245262,13.4640523 16.3928805,13.4640523 L16.3928805,13.4640523 L16.4076423,13.4640523 L16.5137431,13.4575163 C16.6152308,13.4444444 16.7028793,13.4117647 16.7766886,13.3594771 C16.8751009,13.2897603 16.9243071,13.1982571 16.9243071,13.0849673 C16.9243071,12.9716776 16.8751009,12.875817 16.7766886,12.7973856 C16.6782762,12.7189542 16.5552608,12.6797386 16.4076423,12.6797386 L16.4076423,12.6797386 L16.3928805,12.6797386 L16.2867797,12.6715686 C16.185292,12.6552288 16.0976435,12.6143791 16.0238342,12.5490196 C15.9254219,12.4618736 15.8762157,12.3572985 15.8762157,12.2352941 L15.8762157,12.2352941 L15.8762157,11.9346405 L15.8854419,11.8464052 C15.9038942,11.7614379 15.950025,11.6862745 16.0238342,11.620915 C16.1222466,11.5337691 16.245262,11.4901961 16.3928805,11.4901961 L16.3928805,11.4901961 L18.1347788,11.4901961 L18.2353439,11.4820261 C18.3331411,11.4656863 18.4226348,11.4248366 18.503825,11.3594771 C18.6120786,11.2723312 18.6662054,11.167756 18.6662054,11.0457516 L18.6662054,11.0457516 L18.6662054,9.97385621 L18.6597101,9.89777778 C18.6423896,9.79947712 18.5904279,9.71372549 18.503825,9.64052288 C18.3955714,9.54901961 18.272556,9.50326797 18.1347788,9.50326797 L18.1347788,9.50326797 L16.3928805,9.50326797 L16.2867797,9.49509804 C16.185292,9.47875817 16.0976435,9.4379085 16.0238342,9.37254902 C15.9254219,9.28540305 15.8762157,9.17647059 15.8762157,9.04575163 L15.8762157,9.04575163 L15.8762157,8.87581699 L15.8821205,8.8 C15.8978664,8.70239651 15.9451044,8.61873638 16.0238342,8.54901961 C16.1222466,8.46187364 16.245262,8.41830065 16.3928805,8.41830065 L16.3928805,8.41830065 L20.7919117,8.41830065 L20.8980125,8.41462418 C20.9995002,8.40727124 21.0871487,8.38888889 21.160958,8.35947712 C21.2593703,8.32026144 21.3085765,8.27015251 21.3085765,8.20915033 C21.3085765,8.13943355 21.3577826,8.08714597 21.456195,8.05228758 C21.5546073,8.01742919 21.6776227,8 21.8252412,8 L21.8252412,8 L22.1500019,8 Z M8.61092532,11.751634 L3.75427671,11.751634 L3.65417292,11.7593954 C3.55729828,11.7749183 3.4701111,11.8137255 3.39261139,11.875817 C3.28927844,11.9586057 3.23761197,12.0610022 3.23761197,12.1830065 C3.23761197,12.3050109 3.28927844,12.4074074 3.39261139,12.4901961 C3.49594434,12.5729847 3.61649945,12.6143791 3.75427671,12.6143791 L3.75427671,12.6143791 L8.61092532,12.6143791 C8.75854382,12.6143791 8.88155923,12.5751634 8.97997157,12.496732 C9.0783839,12.4095861 9.12759006,12.3050109 9.12759006,12.1830065 C9.12759006,12.0610022 9.0783839,11.9586057 8.97997157,11.875817 C8.88155923,11.7930283 8.75854382,11.751634 8.61092532,11.751634 L8.61092532,11.751634 Z M22.0614308,9.90849673 L22.1619959,9.91666667 C22.2597932,9.93300654 22.3492869,9.97385621 22.4304771,10.0392157 C22.5387306,10.1263617 22.5928574,10.2309368 22.5928574,10.3529412 L22.5928574,10.3529412 L22.5928574,10.745098 L22.5836313,10.8333333 C22.5651789,10.9183007 22.5190482,10.9934641 22.4452389,11.0588235 C22.3468266,11.1459695 22.2336524,11.1895425 22.1057164,11.1895425 L22.1057164,11.1895425 L20.9690539,11.1895425 L20.8689501,11.182598 C20.7720755,11.1687092 20.6848883,11.1339869 20.6073886,11.0784314 C20.5040557,11.0043573 20.4523892,10.9063181 20.4523892,10.7843137 C20.4523892,10.6623094 20.499135,10.5599129 20.5926268,10.4771242 C20.6861185,10.3943355 20.7968323,10.3529412 20.9247684,10.3529412 C21.0428632,10.3529412 21.1461961,10.335512 21.2347672,10.3006536 C21.3233383,10.2570806 21.3676239,10.2004357 21.3676239,10.130719 C21.3676239,10.0610022 21.41683,10.0065359 21.5152424,9.96732026 C21.6136547,9.92810458 21.7366701,9.90849673 21.8842886,9.90849673 L21.8842886,9.90849673 L22.0614308,9.90849673 Z M16.6585938,9.90849673 L16.7898102,9.91503268 C16.872914,9.92374728 16.9472699,9.94117647 17.0128782,9.96732026 C17.1112905,10.0065359 17.1604967,10.0610022 17.1604967,10.130719 C17.1604967,10.2004357 17.2072425,10.254902 17.3007342,10.2941176 C17.394226,10.3333333 17.5000192,10.3529412 17.618114,10.3529412 C17.7362088,10.3529412 17.8420021,10.3943355 17.9354938,10.4771242 C18.0289855,10.5599129 18.0757314,10.6623094 18.0757314,10.7843137 C18.0757314,10.9063181 18.0240649,11.0043573 17.9207319,11.0784314 C17.817399,11.1525054 17.6968439,11.1895425 17.5590666,11.1895425 L17.5590666,11.1895425 L16.4224042,11.1895425 L16.3236843,11.1813725 C16.2295775,11.1650327 16.1493099,11.124183 16.0828816,11.0588235 C15.9943105,10.9716776 15.950025,10.8671024 15.950025,10.745098 L15.950025,10.745098 L15.950025,10.3529412 L15.956225,10.2818301 C15.9727582,10.1898039 16.022358,10.1089325 16.1050244,10.0392157 C16.2083573,9.95206972 16.3338331,9.90849673 16.4814516,9.90849673 L16.4814516,9.90849673 L16.6585938,9.90849673 Z M16.9586759,0.318674523 C17.3993871,0.580922905 17.5652054,1.12881191 17.3605229,1.58574477 L17.306668,1.68940479 L15.795,3.99988115 L21.6666667,4 C22.8908979,4 23.8949231,4.89996543 23.9922651,6.04461742 L24,6.22728981 L24,7.04544722 C24,7.57263217 23.5522847,8 23,8 C22.493739,8 22.0753454,7.64089231 22.0091288,7.17497438 L22,7.04544722 L22,6.22728981 C22,6.07666554 21.8903554,5.95048628 21.7430969,5.91750902 L21.6666667,5.90910555 L2.33333333,5.90910555 C2.17553769,5.90910555 2.0433509,6.01376706 2.00880357,6.15433308 L2,6.22728981 L2,7.04544722 C2,7.57263217 1.55228475,8 1,8 C0.493738979,8 0.0753453854,7.64089231 0.00912882133,7.17497438 L0,7.04544722 L0,6.22728981 C0,5.05869652 0.942813698,4.10030143 2.14196372,4.0073834 L2.33333333,4 L8.318,3.99988115 L6.80746004,1.68940479 C6.5250387,1.2147927 6.68084009,0.601095857 7.15545218,0.318674523 C7.59051326,0.0597882993 8.14244418,0.169130893 8.44894774,0.554724638 L8.52618245,0.666666667 L10.706,3.99988115 L13.407,3.99988115 L15.5879456,0.666666667 L15.6651803,0.554724638 C15.9716839,0.169130893 16.5236148,0.0597882993 16.9586759,0.318674523 Z" id="形状结合"></path>
        </g>
    </g>
</svg>