<?xml version="1.0" encoding="UTF-8"?>
<svg width="18px" height="18px" viewBox="0 0 18 18" version="1.1" xmlns="http://www.w3.org/2000/svg" xmlns:xlink="http://www.w3.org/1999/xlink">
    <title>icon_list_euro_end</title>
    <defs>
        <filter id="filter-1">
            <feColorMatrix in="SourceGraphic" type="matrix" values="0 0 0 0 1.000000 0 0 0 0 1.000000 0 0 0 0 1.000000 0 0 0 1.000000 0"></feColorMatrix>
        </filter>
        <filter x="-36.1%" y="-36.1%" width="172.2%" height="172.2%" filterUnits="objectBoundingBox" id="filter-2">
            <feOffset dx="0" dy="0" in="SourceAlpha" result="shadowOffsetOuter1"></feOffset>
            <feGaussianBlur stdDeviation="1.5" in="shadowOffsetOuter1" result="shadowBlurOuter1"></feGaussianBlur>
            <feColorMatrix values="0 0 0 0 0.789572011   0 0 0 0 0.789572011   0 0 0 0 0.789572011  0 0 0 0.1 0" type="matrix" in="shadowBlurOuter1" result="shadowMatrixOuter1"></feColorMatrix>
            <feMerge>
                <feMergeNode in="shadowMatrixOuter1"></feMergeNode>
                <feMergeNode in="SourceGraphic"></feMergeNode>
            </feMerge>
        </filter>
    </defs>
    <g id="icon_list_euro_end" stroke="none" stroke-width="1" fill="none" fill-rule="evenodd">
        <g id="编组" filter="url(#filter-1)">
            <g filter="url(#filter-2)">
                <path d="M11.5596061,17.4098361 C11.1216452,17.4098361 10.7234991,17.1256848 10.6062671,16.6951527 L9.81882241,13.8019765 C9.67947124,13.2896432 9.99356436,12.7622413 10.5200021,12.6266236 C11.0464399,12.491006 11.5883611,12.7966838 11.7277122,13.3090171 L12.5151569,16.2021933 C12.6545081,16.7145266 12.340415,17.2419285 11.8139772,17.3775462 C11.7277122,17.3990728 11.6436592,17.4098361 11.5596061,17.4098361 Z M6.70443438,17.3452562 C6.62038129,17.3452562 6.53632821,17.3344929 6.45227512,17.3129663 C5.92362545,17.1773487 5.61174426,16.6499468 5.75109543,16.1376135 L6.52084474,13.3090171 C6.66019591,12.7966838 7.1999052,12.4888533 7.72855488,12.6266236 C8.25720455,12.7622413 8.56908574,13.2896432 8.42973457,13.8019765 L7.65998525,16.6305728 C7.54054139,17.061105 7.14018327,17.3452562 6.70443438,17.3452562 Z M9.76935306,15.2713897 L13.6854592,16.0731975 C14.2159716,16.1821388 14.5593739,16.6963417 14.449309,17.2236175 C14.352452,17.6833498 13.9430109,17.9992795 13.4873425,17.9992795 C13.4213037,17.9992795 13.3552648,17.992743 13.2870246,17.9796701 L9.37091843,17.1778622 C9.2696588,17.1582528 9.16839917,17.1582528 9.07154213,17.1778622 L5.15543598,17.9796701 C4.62052097,18.0886114 4.10321634,17.7487145 3.99315152,17.2236175 C3.88308671,16.6963417 4.22648893,16.1821388 4.75700135,16.0731975 L8.6709062,15.2713897 C9.03412009,15.1973096 9.40393787,15.1973096 9.76935306,15.2713897 Z M15.0766785,0 C16.6880274,0 18,1.29858015 18,2.89348059 L18,11.478054 C17.9977987,13.0729545 16.6880274,14.3715346 15.0766785,14.3715346 L2.92112022,14.3715346 C1.30977131,14.3715346 0,13.0729545 0,11.478054 L0,2.89348059 C0,1.29858015 1.30977131,0 2.92112022,0 L15.0766785,0 Z M15.0766785,1.94787022 L2.92112022,1.94787022 C2.3950104,1.94787022 1.96575761,2.37274124 1.96575761,2.89565942 L1.96575761,11.4802329 C1.96575761,12.0031511 2.3950104,12.4280221 2.92112022,12.4280221 L15.0766785,12.4280221 C15.6049896,12.4280221 16.0342424,12.0031511 16.0342424,11.4802329 L16.0342424,2.89565942 C16.0342424,2.37274124 15.6049896,1.94787022 15.0766785,1.94787022 Z M13.811344,4.41206978 C14.1962187,4.78663277 14.1962187,5.3958358 13.811344,5.77039879 L10.6482937,8.84870382 C10.263419,9.22326681 9.6374447,9.22326681 9.25257004,8.84870382 L7.38791869,7.03401071 L5.28437961,9.08119119 C5.09194228,9.27277801 4.83978302,9.36534243 4.58762376,9.36534243 C4.3354645,9.36534243 4.08330525,9.27062535 3.88865599,9.08334385 C3.50378134,8.70878086 3.50378134,8.09957784 3.88865599,7.72501485 L6.69116284,4.99759354 C7.06055403,4.63809917 7.71749526,4.63809917 8.08688645,4.99759354 L9.95153781,6.81228664 L12.4156204,4.41206978 C12.800495,4.03750679 13.4264693,4.03750679 13.811344,4.41206978 Z" id="形状" fill="#000000" fill-rule="nonzero"></path>
            </g>
        </g>
    </g>
</svg>