<?xml version="1.0" encoding="UTF-8"?>
<svg width="18px" height="18px" viewBox="0 0 18 18" version="1.1" xmlns="http://www.w3.org/2000/svg" xmlns:xlink="http://www.w3.org/1999/xlink">
    <title>icon_playground_league_add</title>
    <defs>
        <linearGradient x1="100%" y1="0%" x2="0%" y2="100%" id="linearGradient-1">
            <stop stop-color="#25E1FE" offset="0%"></stop>
            <stop stop-color="#1B91FF" offset="100%"></stop>
        </linearGradient>
        <path d="M8.0918919,1.53333333 C8.29887429,1.53333333 8.46666667,1.70112571 8.46666667,1.9081081 C8.46666667,2.05644385 8.38048852,2.18465163 8.25546766,2.24539598 C8.24264385,2.255498 8.22498014,2.27012721 8.2033381,2.28875793 C8.13397225,2.34847205 8.03265972,2.44143676 7.90090216,2.56645847 C7.63221399,2.82141048 7.24085483,3.20586517 6.72766023,3.71905977 C6.38191293,4.06480707 5.98109587,4.46875536 5.52522568,4.93088833 C6.3270053,5.74494684 7.27202932,6.71193367 8.36049062,7.83052846 C8.50483754,7.97887155 8.50159801,8.21614369 8.35325491,8.36049062 C8.20491182,8.50483754 7.96763968,8.50159801 7.82329275,8.35325491 C6.73909464,7.23904133 5.7974998,6.27554906 4.99857757,5.46284615 C4.2025002,6.27554906 3.26090536,7.23904133 2.17670725,8.35325491 C2.03236032,8.50159801 1.79508818,8.50483754 1.64674509,8.36049062 C1.49840199,8.21614369 1.49516246,7.97887155 1.63950938,7.83052846 C2.72797068,6.71193367 3.6729947,5.74494684 4.47465138,4.92949937 C4.01890413,4.46875536 3.61808707,4.06480707 3.27233977,3.71905977 C2.75914517,3.20586517 2.36778601,2.82141048 2.09909784,2.56645847 C1.96734028,2.44143676 1.86602775,2.34847205 1.7966619,2.28875793 C1.77501986,2.27012721 1.75735615,2.255498 1.74453234,2.24539598 C1.61951148,2.18465163 1.53333333,2.05644385 1.53333333,1.9081081 C1.53333333,1.70112571 1.70112571,1.53333333 1.9081081,1.53333333 C2.02887433,1.53333333 2.07654115,1.55969538 2.17199246,1.62900655 C2.20399484,1.65224481 2.24110536,1.68233112 2.28567764,1.7207015 C2.3659635,1.7898162 2.47524661,1.89009474 2.61502863,2.02273067 C2.88941961,2.28309396 3.28491532,2.67161221 3.80235132,3.18904822 C4.14711398,3.53381087 4.54623608,3.93603319 4.99973398,4.39573121 C5.37834209,4.01248617 5.71862499,3.66918885 6.02112417,3.36582998 L6.19764868,3.18904822 C6.71508468,2.67161221 7.11058039,2.28309396 7.38497137,2.02273067 C7.52475339,1.89009474 7.6340365,1.7898162 7.71432236,1.7207015 C7.75889464,1.68233112 7.79600516,1.65224481 7.82800754,1.62900655 C7.92345885,1.55969538 7.97112567,1.53333333 8.0918919,1.53333333 Z" id="path-2"></path>
        <filter x="-64.9%" y="-64.9%" width="229.8%" height="229.8%" filterUnits="objectBoundingBox" id="filter-3">
            <feOffset dx="0" dy="0" in="SourceAlpha" result="shadowOffsetOuter1"></feOffset>
            <feGaussianBlur stdDeviation="1.5" in="shadowOffsetOuter1" result="shadowBlurOuter1"></feGaussianBlur>
            <feColorMatrix values="0 0 0 0 0.789572011   0 0 0 0 0.789572011   0 0 0 0 0.789572011  0 0 0 0.1 0" type="matrix" in="shadowBlurOuter1"></feColorMatrix>
        </filter>
    </defs>
    <g id="icon_playground_league_add" stroke="none" stroke-width="1" fill="none" fill-rule="evenodd">
        <g id="编组">
            <circle id="椭圆形" fill="url(#linearGradient-1)" cx="9" cy="9" r="9"></circle>
            <g id="icon/+" transform="translate(4.000000, 4.000000)">
                <g id="形状结合" transform="translate(5.000000, 5.000000) rotate(-45.000000) translate(-5.000000, -5.000000) ">
                    <use fill="black" fill-opacity="1" filter="url(#filter-3)" xlink:href="#path-2"></use>
                    <use fill="#FFFFFF" fill-rule="evenodd" xlink:href="#path-2"></use>
                </g>
            </g>
        </g>
    </g>
</svg>