<svg height="16" viewBox="0 0 30 16" width="30" xmlns="http://www.w3.org/2000/svg" xmlns:xlink="http://www.w3.org/1999/xlink"><linearGradient id="a" x1="15.090131%" x2="90.12685%" y1="60.175489%" y2="40.387227%"><stop offset="0" stop-color="#fe356a"/><stop offset="1" stop-color="#ff5683"/></linearGradient><g fill="none" fill-rule="evenodd"><path d="m4 0h26v12c0 2.209139-1.790861 4-4 4h-26v-12c0-2.209139 1.790861-4 4-4z" fill="url(#a)"/><path d="m8.83641677 11.3307675.47800301-1.77133802h-.22306808c-.22660883.53611052-.52049216.91645912-.88164999 1.14104592-.36115783.2245869-1.01973976.3368803-1.97574578.3368803-.49570683 0-.78781978-.0253566-.87633886-.0760698-.08851907-.0507131-.13277861-.1630065-.13277861-.3368802v-4.93366538c0-.3405026.07081526-.58501245.21244578-.73352954.14163052-.1485171.4213508-.22277564.83916084-.22277564v-.16300657h-2.81490662v.16300657c.66566345 0 .99849518.31876839.99849518.95630518v4.53158248c0 .6302921-.33283173.9454381-.99849518.9454381v.1630066zm3.95326193 0v-.1630066c-.4461362 0-.747101-.068825-.9028946-.206475-.1557936-.1376499-.2336904-.3731039-.2336904-.7063617v-4.64025361c0-.33325787.0743561-.57052298.2230681-.71179534.1487121-.14127235.4532177-.21190853.9135169-.21190853v-.11953815h-2.96361869v.11953815c.43197309 0 .72408609.05976907.87633889.17930722s.2283792.36767037.2283792.74439665v4.64025361c0 .3622368-.0761264.6049354-.2283792.7280959-.1522528.1231606-.4443658.1847408-.87633889.1847408v.1630066zm4.1232185.0978039 2.2200585-5.73783108c.2478534-.63753679.5806851-.95630518.9984951-.95630518v-.16300657h-2.0501018v.16300657c.5523591 0 .8285386.17387367.8285386.52162101 0 .0796921-.0637338.31514602-.1912012.70636178l-1.6039657 4.12949967-1.5720988-3.80348654c-.283261-.68100521-.4248915-1.03961965-.4248915-1.07584333 0-.3187684.2903425-.47815259.8710277-.47815259v-.16300657h-2.6555723v.16300657c.2478534 0 .4479065.06882499.6001593.20647498s.3239798.43468417.515181.89110256l2.3900151 5.59655872zm9.1688059-.0978039.4567584-1.72786961h-.223068c-.2266089.52886571-.5027884.90015851-.8285386 1.11387821s-.7966717.3205796-1.4127644.3205796c-.8427016 0-1.322475-.0271678-1.4393202-.0815033s-.1752678-.1684401-.1752678-.3423138v-2.69504188l1.6570771.0108671c.3611578.00724474.6231743.068825.7860494.18474078s.2797203.40208286.3505356.85850124h.1912012v-2.36902875h-.1912012c-.0708153.46366312-.1876605.75164138-.3505356.8639348-.1628751.11229341-.4248916.16844011-.7860494.16844011h-1.6570771v-2.42336427c0-.23183156.1097637-.34774734.329291-.34774734h1.4764982c.552359 0 .9347614.08150328 1.1472072.24450985.2124458.16300656.3576171.47271904.4355138.92913742h.180579l-.0318669-1.46705909h-5.3005223v.16300657c.4178101.03622368.6886784.1249717.8126051.26624405.1239267.14127236.1858901.37129274.1858901.69006113v4.53158248c0 .6302921-.3328317.9454381-.9984952.9454381v.1630066z" fill="#fff" fill-rule="nonzero"/></g></svg>