<?xml version="1.0" encoding="UTF-8"?>
<svg width="14px" height="14px" viewBox="0 0 14 14" version="1.1" xmlns="http://www.w3.org/2000/svg" xmlns:xlink="http://www.w3.org/1999/xlink">
    <title>icon_detail_event_goal</title>
    <g id="icon_detail_event_goal" stroke="none" stroke-width="1" fill="none" fill-rule="evenodd">
        <g id="编组">
            <circle id="椭圆形" fill="#FFFFFF" cx="7" cy="7" r="7"></circle>
            <g id="体育-足球" transform="translate(1.400000, 1.400000)" fill="#333333" fill-rule="nonzero">
                <path d="M5.6,0 C8.69326683,0 11.2,2.50673317 11.2,5.6 C11.2,8.69326683 8.69326683,11.2 5.6,11.2 C2.50673317,11.2 0,8.67930175 0,5.59301746 C0,2.50673317 2.50673317,0 5.6,0 Z M6.93366584,1.35461347 L5.75361596,2.20648379 C5.68379052,2.26234414 5.58603491,2.26234414 5.51620948,2.21346633 L4.15461347,1.35461347 C4.07780549,1.3127182 3.98004988,1.3127182 3.91720698,1.36159601 L2.42992519,2.46483791 C2.36009975,2.52069825 2.33216958,2.59750623 2.34613466,2.67431421 L2.61845387,4.05685786 C2.63241895,4.14064838 2.60448878,4.2244389 2.53466334,4.27331671 L1.29177057,5.15311721 C1.21496259,5.20897756 1.18703242,5.29276808 1.20798005,5.3765586 L1.81546135,7.82044888 C1.83640898,7.91820449 1.92718204,7.98104738 2.02493766,7.98104738 L3.60299252,7.98104738 C3.69376559,7.98104738 3.77755611,8.04389027 3.80548628,8.12069825 L4.35710723,9.74064838 C4.38503741,9.83142145 4.46882793,9.88029925 4.559601,9.88029925 L6.7032419,9.88029925 C6.80099751,9.88029925 6.88478803,9.81047382 6.90573566,9.71970075 L7.33167082,8.1276808 C7.35261845,8.03690773 7.43640898,7.96708229 7.53416459,7.96708229 L9.25187032,7.96708229 C9.34962594,7.96708229 9.440399,7.89725686 9.46134663,7.79950125 L10.0129676,5.35561097 C10.0269327,5.27182045 9.99900249,5.18802993 9.92917706,5.13915212 L8.70723192,4.26633416 C8.63740648,4.2244389 8.60947631,4.13366584 8.6234414,4.04987531 L8.90274314,2.67431421 C8.91670823,2.59052369 8.88877805,2.49975062 8.81197007,2.45785536 L7.17107232,1.35461347 C7.09426434,1.29875312 6.99650873,1.29875312 6.93366584,1.35461347 Z M5.56518121,3.36163092 L7.66932322,4.8941753 L6.86577293,7.36281435 L4.2645895,7.36281435 L3.4610392,4.8941753 L5.56518121,3.36163092 Z" id="形状结合"></path>
            </g>
        </g>
    </g>
</svg>