<?xml version="1.0" encoding="UTF-8"?>
<svg width="14px" height="14px" viewBox="0 0 14 14" version="1.1" xmlns="http://www.w3.org/2000/svg" xmlns:xlink="http://www.w3.org/1999/xlink">
    <title>icon_detail_event_jq</title>
    <g id="icon_detail_event_jq" stroke="none" stroke-width="1" fill="none" fill-rule="evenodd">
        <g id="ico/半场备份-2">
            <rect id="矩形" fill="#D8D8D8" opacity="0" x="0" y="0" width="14" height="14"></rect>
            <g id="角球" transform="translate(0.777778, 0.777778)">
                <path d="M6.80203498,11.5201987 L11.4078086,11.5174024 C11.6407872,11.5174024 11.7915257,11.7236103 11.7444923,11.9779808 C11.697459,12.2323511 11.4704645,12.4385592 11.2374858,12.4385592 L0.567412178,12.4385592 L2.0414316,4.14814815 L3.13366641,4.14814815 L1.92047685,9.71433102 L5.51006595,4.91145568 C5.67852081,4.69988032 6.05596577,4.69869711 6.22363847,4.83990681 C6.39131116,4.98111649 6.39067709,5.26710528 6.22222222,5.47868065 L4.50651767,8.01605813 C5.72027602,8.72916833 6.54863713,9.98365637 6.80203498,11.5201987 Z M5.51006595,11.5977499 C5.22874212,10.377364 4.76681043,9.57234662 3.76986908,9.01430238 L1.8032133,11.5977499 L5.51006595,11.5977499 Z" id="形状结合" fill="#000000" opacity="0.400000006"></path>
                <polygon id="路径" fill="#F05050" fill-rule="nonzero" points="2.71146333 0 1.22661111 8.29335366 11.7540467 4.3247818"></polygon>
            </g>
        </g>
    </g>
</svg>