<?xml version="1.0" encoding="UTF-8"?>
<svg width="14px" height="14px" viewBox="0 0 14 14" version="1.1" xmlns="http://www.w3.org/2000/svg" xmlns:xlink="http://www.w3.org/1999/xlink">
    <title>icon_detail_event_ytor</title>
    <g id="icon_detail_event_ytor" stroke="none" stroke-width="1" fill="none" fill-rule="evenodd">
        <g id="ico/半场备份-2">
            <path d="M3.18224915,1.33753421 L9.40447137,0.784017305 C10.263581,0.707592568 10.8814973,1.34208402 10.7846261,2.20119363 L9.73222109,11.534527 C9.63534988,12.3936366 8.86037431,13.028128 8.0012647,12.9517033 L1.77904248,12.3981864 C0.919932868,12.3217617 0.302016552,11.656293 0.398887757,10.9118205 L1.45129276,2.82390015 C1.54816397,2.07942764 2.32313954,1.41395894 3.18224915,1.33753421 Z" id="矩形" fill="#F0D250"></path>
            <path d="M12.0823895,0.285984024 C12.6805277,0.232774804 13.1880925,0.438299583 13.5334649,0.792936392 C13.8783434,1.14706594 14.0710527,1.65989242 14.0036997,2.25721745 L14.0036997,2.25721745 L12.9512947,11.5905508 C12.8877634,12.1539834 12.6025864,12.64429 12.1915492,12.9808163 C11.7800506,13.3177202 11.2431922,13.4999098 10.6791828,13.4497366 L10.6791828,13.4497366 L4.45696062,12.8962197 C3.89355841,12.8461005 3.41290369,12.5974871 3.0862926,12.2457413 C2.7346137,11.8669986 2.55732107,11.369656 2.62528982,10.847304 L2.62528982,10.847304 L3.67769482,2.75938374 C3.74101745,2.27273799 4.01545376,1.80461492 4.4274185,1.4508623 C4.81718921,1.11616761 5.32601675,0.887017931 5.86016729,0.839500927 L5.86016729,0.839500927 Z" id="矩形" stroke="#FFFFFF" fill="#F05050"></path>
        </g>
    </g>
</svg>