<?xml version="1.0" encoding="UTF-8"?>
<svg width="14px" height="14px" viewBox="0 0 14 14" version="1.1" xmlns="http://www.w3.org/2000/svg" xmlns:xlink="http://www.w3.org/1999/xlink">
    <title>icon_detail_event_hr</title>
    <g id="icon_detail_event_hr" stroke="none" stroke-width="1" fill="none" fill-rule="evenodd">
        <g id="ico/半场备份-2" fill="#333333">
            <path d="M2.06545971,3.27318739 C2.06545971,2.99704502 2.28931733,2.77318739 2.56545971,2.77318739 L4.40357543,2.77318739 C4.67971781,2.77318739 4.90357543,2.99704502 4.90357543,3.27318739 L4.90357543,8.3342031 L5.83297686,8.3342031 C6.27480466,8.3342031 6.63297686,8.6923753 6.63297686,9.1342031 C6.63297686,9.3507128 6.54522113,9.55797727 6.38975145,9.70866115 L4.19597703,11.8349049 C3.8081349,12.2108082 3.19188269,12.2108082 2.80404055,11.8349049 L0.610266133,9.70866115 C0.293001712,9.40116303 0.285084558,8.89469292 0.592582675,8.5774285 C0.743266554,8.42195882 0.950531021,8.3342031 1.16704073,8.3342031 L2.06545971,8.3342031 L2.06545971,3.27318739 Z" id="形状结合"></path>
            <path d="M9.06649189,2.39669942 C9.06649189,2.12055705 9.29034951,1.89669942 9.56649189,1.89669942 L11.4025663,1.89669942 C11.6787086,1.89669942 11.9025663,2.12055705 11.9025663,2.39669942 L11.9025663,7.45863766 L12.8311337,7.45863766 C13.2729615,7.45863766 13.6311337,7.81680986 13.6311337,8.25863766 C13.6311337,8.47502451 13.5434772,8.68218217 13.3881624,8.83284929 L11.1962951,10.9591265 C10.8083728,11.3354404 10.1916455,11.3354404 9.80372324,10.9591265 L7.61185591,8.83284929 C7.29472758,8.52521081 7.28703454,8.01873725 7.59467301,7.70160893 C7.74534012,7.54629412 7.95249779,7.45863766 8.16888464,7.45863766 L9.06649189,7.45863766 L9.06649189,2.39669942 Z" id="形状结合" transform="translate(10.500009, 6.612721) scale(1, -1) translate(-10.500009, -6.612721) "></path>
        </g>
    </g>
</svg>