<?xml version="1.0" encoding="UTF-8"?>
<svg width="14px" height="14px" viewBox="0 0 14 14" version="1.1" xmlns="http://www.w3.org/2000/svg" xmlns:xlink="http://www.w3.org/1999/xlink">
    <title>icon_detail_event_dq</title>
    <g id="icon_detail_event_dq" stroke="none" stroke-width="1" fill="none" fill-rule="evenodd">
        <g id="编组-16">
            <circle id="椭圆形" fill="#FFFFFF" cx="7" cy="7" r="7"></circle>
            <path d="M7,1.4 C10.0932668,1.4 12.6,3.90673317 12.6,7 C12.6,10.0932668 10.0932668,12.6 7,12.6 C3.90673317,12.6 1.4,10.0793017 1.4,6.99301746 C1.4,3.90673317 3.90673317,1.4 7,1.4 Z M8.33366584,2.75461347 L7.15361596,3.60648379 C7.08379052,3.66234414 6.98603491,3.66234414 6.91620948,3.61346633 L5.55461347,2.75461347 C5.47780549,2.7127182 5.38004988,2.7127182 5.31720698,2.76159601 L3.82992519,3.86483791 C3.76009975,3.92069825 3.73216958,3.99750623 3.74613466,4.07431421 L4.01845387,5.45685786 C4.03241895,5.54064838 4.00448878,5.6244389 3.93466334,5.67331671 L2.69177057,6.55311721 C2.61496259,6.60897756 2.58703242,6.69276808 2.60798005,6.7765586 L3.21546135,9.22044888 C3.23640898,9.31820449 3.32718204,9.38104738 3.42493766,9.38104738 L5.00299252,9.38104738 C5.09376559,9.38104738 5.17755611,9.44389027 5.20548628,9.52069825 L5.75710723,11.1406484 C5.78503741,11.2314214 5.86882793,11.2802993 5.959601,11.2802993 L8.1032419,11.2802993 C8.20099751,11.2802993 8.28478803,11.2104738 8.30573566,11.1197007 L8.73167082,9.5276808 C8.75261845,9.43690773 8.83640898,9.36708229 8.93416459,9.36708229 L10.6518703,9.36708229 C10.7496259,9.36708229 10.840399,9.29725686 10.8613466,9.19950125 L11.4129676,6.75561097 C11.4269327,6.67182045 11.3990025,6.58802993 11.3291771,6.53915212 L10.1072319,5.66633416 C10.0374065,5.6244389 10.0094763,5.53366584 10.0234414,5.44987531 L10.3027431,4.07431421 C10.3167082,3.99052369 10.2887781,3.89975062 10.2119701,3.85785536 L8.57107232,2.75461347 C8.49426434,2.69875312 8.39650873,2.69875312 8.33366584,2.75461347 Z M6.96518121,4.76163092 L9.06932322,6.2941753 L8.26577293,8.76281435 L5.6645895,8.76281435 L4.8610392,6.2941753 L6.96518121,4.76163092 Z" id="形状结合" fill="#F65455" fill-rule="nonzero"></path>
        </g>
    </g>
</svg>