<?xml version="1.0" encoding="UTF-8"?>
<svg width="14px" height="14px" viewBox="0 0 14 14" version="1.1" xmlns="http://www.w3.org/2000/svg" xmlns:xlink="http://www.w3.org/1999/xlink">
    <title>icon_detail_event_wlq</title>
    <g id="icon_detail_event_wlq" stroke="none" stroke-width="1" fill="none" fill-rule="evenodd">
        <g id="ico/半场备份-2">
            <g id="编组">
                <circle id="椭圆形" fill="#FFFFFF" cx="7" cy="7" r="7"></circle>
                <g id="体育-足球" transform="translate(1.400000, 1.400000)" fill="#333333" fill-rule="nonzero">
                    <path d="M5.6,0 C8.69326683,0 11.2,2.50673317 11.2,5.6 C11.2,8.69326683 8.69326683,11.2 5.6,11.2 C2.50673317,11.2 0,8.67930175 0,5.59301746 C0,2.50673317 2.50673317,0 5.6,0 Z M6.93366584,1.35461347 L5.75361596,2.20648379 C5.68379052,2.26234414 5.58603491,2.26234414 5.51620948,2.21346633 L4.15461347,1.35461347 C4.07780549,1.3127182 3.98004988,1.3127182 3.91720698,1.36159601 L2.42992519,2.46483791 C2.36009975,2.52069825 2.33216958,2.59750623 2.34613466,2.67431421 L2.61845387,4.05685786 C2.63241895,4.14064838 2.60448878,4.2244389 2.53466334,4.27331671 L1.29177057,5.15311721 C1.21496259,5.20897756 1.18703242,5.29276808 1.20798005,5.3765586 L1.81546135,7.82044888 C1.83640898,7.91820449 1.92718204,7.98104738 2.02493766,7.98104738 L3.60299252,7.98104738 C3.69376559,7.98104738 3.77755611,8.04389027 3.80548628,8.12069825 L4.35710723,9.74064838 C4.38503741,9.83142145 4.46882793,9.88029925 4.559601,9.88029925 L6.7032419,9.88029925 C6.80099751,9.88029925 6.88478803,9.81047382 6.90573566,9.71970075 L7.33167082,8.1276808 C7.35261845,8.03690773 7.43640898,7.96708229 7.53416459,7.96708229 L9.25187032,7.96708229 C9.34962594,7.96708229 9.440399,7.89725686 9.46134663,7.79950125 L10.0129676,5.35561097 C10.0269327,5.27182045 9.99900249,5.18802993 9.92917706,5.13915212 L8.70723192,4.26633416 C8.63740648,4.2244389 8.60947631,4.13366584 8.6234414,4.04987531 L8.90274314,2.67431421 C8.91670823,2.59052369 8.88877805,2.49975062 8.81197007,2.45785536 L7.17107232,1.35461347 C7.09426434,1.29875312 6.99650873,1.29875312 6.93366584,1.35461347 Z M5.56518121,3.36163092 L7.66932322,4.8941753 L6.86577293,7.36281435 L4.2645895,7.36281435 L3.4610392,4.8941753 L5.56518121,3.36163092 Z" id="形状结合"></path>
                </g>
                <path d="M9.66543385,5.34277314 L13.0960622,7.80441291 L13.3594441,9.92935717 C12.4807168,11.8338533 10.7716435,13.2764743 8.69640842,13.7930359 L6.60664267,13.7712393 L5.12945283,9.18836416 L8.4138183,9.07101191 L9.66543385,5.34277314 Z" id="形状结合" fill="#FFFFFF"></path>
            </g>
            <path d="M11.8408889,13.877481 C12.2702222,13.877481 12.544,13.7219255 12.656,13.4232588 C12.768,13.1121477 12.8302222,12.3530366 12.8426667,11.1583699 L9.072,11.1583699 L9.072,9.31659213 L11.5982222,9.31659213 C11.5982222,9.66503657 11.5795556,9.92014768 11.5484444,10.069481 C11.5111111,10.2125921 11.3991111,10.2872588 11.2186667,10.2872588 C11.0071111,10.2872588 10.8017778,10.2748143 10.5902222,10.2623699 L10.752,10.7850366 L11.1004444,10.7850366 C11.5608889,10.7850366 11.8595556,10.6668143 11.984,10.4365921 C12.1084444,10.2063699 12.1706667,9.6463699 12.1768889,8.76281435 L10.2977778,8.76281435 C10.4097778,8.56370324 10.5031111,8.3583699 10.5653333,8.1343699 L9.94311111,8.05348102 C9.89333333,8.29614768 9.81244444,8.53259213 9.71288889,8.76281435 L8.46222222,8.76281435 L8.46222222,11.6997032 L12.2577778,11.6997032 C12.2453333,12.5023699 12.2204444,12.981481 12.1706667,13.1308143 C12.1208889,13.2739255 12.0088889,13.3485921 11.8408889,13.3485921 C11.6044444,13.3485921 11.3493333,13.3361477 11.0755556,13.3237032 L11.2497778,13.877481 L11.8408889,13.877481 Z M11.7102222,12.8197032 L11.7102222,12.2659255 L7.62222222,12.2659255 L7.62222222,12.8197032 L11.7102222,12.8197032 Z" id="乌" fill="#333333" fill-rule="nonzero"></path>
        </g>
    </g>
</svg>