<?xml version="1.0" encoding="UTF-8"?>
<svg width="16px" height="16px" viewBox="0 0 16 16" version="1.1" xmlns="http://www.w3.org/2000/svg" xmlns:xlink="http://www.w3.org/1999/xlink">
    <title>icon_detail_event_time</title>
    <defs>
        <polygon id="path-1" points="0.360114639 0.314559389 13.3023904 0.314559389 13.3023904 8.84084084 0.360114639 8.84084084"></polygon>
    </defs>
    <g id="icon_detail_event_time" stroke="none" stroke-width="1" fill="none" fill-rule="evenodd">
        <g id="编组-29" transform="translate(0.888889, 0.888889)">
            <path d="M10.6164047,4.55948047 C11.6809919,4.56246646 12.6510957,4.58130316 13.2449249,4.62894895 C14.1866667,4.7015976 14.4557357,6.11651652 13.3487087,6.56624625 C12.6898739,6.83416216 12.0925405,7.15627628 11.5536336,7.5175976 C10.4935015,8.22755556 9.75317718,9.29806607 9.26385586,10.4765886 C8.95596396,11.2172973 8.44242643,11.8526847 7.79435435,12.3085646 C7.5175976,12.5088288 7.21393393,12.6741141 6.89105105,12.7971171 C6.41864264,12.9835435 5.90818018,13.0834835 5.3711952,13.0854264 C3.58548939,13.091076 1.98543915,11.9492628 1.38498235,10.318899 C1.27367147,10.362191 1.15155479,10.3855279 1.024,10.3855279 C0.458570571,10.3855279 5.13959246e-13,9.92695736 5.13959246e-13,9.36152793 C5.13959246e-13,8.7960985 0.458570571,8.33752793 1.024,8.33752793 C1.07007203,8.33752793 1.11543459,8.34057248 1.15989743,8.34647133 C1.40514999,6.30299607 3.11034719,4.70722973 5.19975976,4.63279279 C5.19975976,4.63064739 7.09409914,4.58060466 9.1096856,4.56420145 L9.6150821,4.56084866 C9.69939381,4.56042239 9.7836595,4.56006632 9.8677509,4.55978635 Z M1.024,8.95292733 C0.798750751,8.95292733 0.615399399,9.13589429 0.615399399,9.36152793 C0.615399399,9.58716156 0.798750751,9.77051291 1.024,9.77051291 C1.09348862,9.77051291 1.15896693,9.75312274 1.21631431,9.72246301 L1.18255856,9.53907508 C1.15247208,9.34667623 1.13538394,9.15621316 1.13054997,8.96842814 C1.09685357,8.95784607 1.06099512,8.95292733 1.024,8.95292733 Z" id="形状结合" fill="#72A5F8"></path>
            <path d="M4.85346276,2.30861261 L4.85346276,0.822582583 C4.85346276,0.36824024 5.22208738,-1.29732728e-14 5.67642973,-1.29732728e-14 C6.13077207,-1.29732728e-14 6.49939669,0.36824024 6.49939669,0.822582583 L6.49939669,2.30861261 C6.49939669,2.76295495 6.13077207,3.13157958 5.67642973,3.13157958 C5.22208738,3.13157958 4.85346276,2.76295495 4.85346276,2.30861261 Z" id="Fill-3" fill="#49D3FF"></path>
            <path d="M3.40556877,3.7592024 L3.40556877,3.7592024 C3.08422342,4.08054775 2.56338258,4.08054775 2.24203724,3.7592024 L1.19113033,2.70867988 C0.869784985,2.38733453 0.869784985,1.86610931 1.19113033,1.54476396 C1.51247568,1.22341862 2.0337009,1.22341862 2.35504625,1.54476396 L3.40556877,2.59567087 C3.72691411,2.91701622 3.72691411,3.43785706 3.40556877,3.7592024" id="Fill-5" fill="#49D3FF"></path>
            <path d="M7.94987628,3.7592024 L7.94987628,3.7592024 C8.27122162,4.08054775 8.79206246,4.08054775 9.11340781,3.7592024 L10.1643147,2.70867988 C10.4856601,2.38733453 10.4856601,1.86610931 10.1643147,1.54476396 C9.84296937,1.22341862 9.32174414,1.22341862 9.0003988,1.54476396 L7.94987628,2.59567087 C7.62853093,2.91701622 7.62853093,3.43785706 7.94987628,3.7592024" id="Fill-7" fill="#49D3FF"></path>
            <g id="编组" transform="translate(0.768999, 4.244488)">
                <mask id="mask-2" fill="white">
                    <use xlink:href="#path-1"></use>
                </mask>
                <g id="Clip-10"></g>
            </g>
            <path d="M6.88832192,8.85606246 C6.88832192,9.70093934 6.20334895,10.3855279 5.35885646,10.3855279 C4.51397958,10.3855279 3.82900661,9.70093934 3.82900661,8.85606246 C3.82900661,8.01118559 4.51397958,7.326597 5.35885646,7.326597 C6.20334895,7.326597 6.88832192,8.01118559 6.88832192,8.85606246" id="Fill-11" fill="#FFFFFF"></path>
        </g>
    </g>
</svg>