<?xml version="1.0" encoding="UTF-8"?>
<svg width="14px" height="14px" viewBox="0 0 14 14" version="1.1" xmlns="http://www.w3.org/2000/svg" xmlns:xlink="http://www.w3.org/1999/xlink">
    <title>icon_detail_event_addtime</title>
    <g id="icon_detail_event_addtime" stroke="none" stroke-width="1" fill="none" fill-rule="evenodd">
        <g id="ico/半场备份-2">
            <path d="M7,1.55555556 C10.0068836,1.55555556 12.4444444,3.99311636 12.4444444,7 C12.4444444,7.16689678 12.4369348,7.33203959 12.422235,7.49510897 C11.7801942,6.7175999 10.809059,6.22222222 9.72222222,6.22222222 C7.7892256,6.22222222 6.22222222,7.7892256 6.22222222,9.72222222 C6.22222222,10.809059 6.7175999,11.7801942 7.49488055,12.422153 C7.33203959,12.4369348 7.16689678,12.4444444 7,12.4444444 C3.99311636,12.4444444 1.55555556,10.0068836 1.55555556,7 C1.55555556,3.99311636 3.99311636,1.55555556 7,1.55555556 Z" id="形状结合" fill="#72A5F8" fill-rule="nonzero"></path>
            <path d="M7.28999321,4.66666667 C7.59068158,4.66666667 7.83443766,4.91042275 7.83443766,5.21111111 L7.83443766,5.21111111 L7.83331416,6.77518456 C7.4117775,7.04592949 7.05212456,7.40464437 6.78027931,7.82540526 L5.21111111,7.82617406 C4.91042274,7.82617406 4.66666666,7.58241798 4.66666666,7.28172962 C4.66666666,6.98104126 4.91042274,6.73728517 5.21111111,6.73728517 L5.21111111,6.73728517 L6.74643766,6.73666667 L6.74554877,5.21111111 C6.74554877,4.91042275 6.98930485,4.66666667 7.28999321,4.66666667 Z" id="形状结合" fill="#FFFFFF"></path>
            <path d="M7,9.72222222 C7,11.225664 8.2187804,12.4444444 9.72222222,12.4444444 C11.225664,12.4444444 12.4444444,11.225664 12.4444444,9.72222222 C12.4444444,8.2187804 11.225664,7 9.72222222,7 C8.2187804,7 7,8.2187804 7,9.72222222 Z" id="路径备份" fill="#49D3FF" fill-rule="nonzero"></path>
            <path d="M10.8224551,10.2039429 L10.1726463,10.2039429 L10.1726463,10.2039429 L10.1726463,10.8537517 C10.1726463,11.1038667 9.96988795,11.306625 9.71977289,11.306625 C9.46965784,11.306625 9.26689952,11.1038667 9.26689952,10.8537517 L9.26689952,10.2039429 L9.26689952,10.2039429 L8.61709071,10.2039429 C8.36697565,10.2039429 8.16421734,10.0011846 8.16421734,9.75106949 C8.16421734,9.50095444 8.36697565,9.29819612 8.61709071,9.29819612 L9.26689952,9.29819612 L9.26689952,9.29819612 L9.26689952,8.64838731 C9.26689952,8.39827225 9.46965784,8.19551394 9.71977289,8.19551394 C9.96988795,8.19551394 10.1726463,8.39827225 10.1726463,8.64838731 L10.1726463,9.29819612 L10.1726463,9.29819612 L10.8224551,9.29819612 C11.0725701,9.29819612 11.2753284,9.50095444 11.2753284,9.75106949 C11.2753284,10.0011846 11.0725701,10.2039429 10.8224551,10.2039429 Z" id="路径" fill="#FFFFFF" fill-rule="nonzero"></path>
        </g>
    </g>
</svg>