<?xml version="1.0" encoding="UTF-8"?>
<svg width="44px" height="32px" viewBox="0 0 44 32" version="1.1" xmlns="http://www.w3.org/2000/svg" xmlns:xlink="http://www.w3.org/1999/xlink">
    <!-- Generator: Sketch 55.2 (78181) - https://sketchapp.com -->
    <title>icon_sdk_close_normal</title>
    <desc>Created with Sketch.</desc>
    <g id="icon_sdk_close_normal" stroke="none" stroke-width="1" fill="none" fill-rule="evenodd">
        <path d="M0,0 L28,0 C36.836556,-1.623249e-15 44,7.163444 44,16 C44,24.836556 36.836556,32 28,32 L0,32 L0,0 Z" id="矩形" fill="#D8D8D8" opacity="0.100000001" transform="translate(22.000000, 16.000000) scale(-1, 1) translate(-22.000000, -16.000000) "></path>
        <g id="全局/顶部tab//search备份-3" transform="translate(4.000000, 4.000000)" fill="#FFFFFF" fill-rule="nonzero">
            <path d="M12,20.7272727 C7.18006037,20.7272727 3.27272727,16.8199396 3.27272727,12 C3.27272727,7.18006037 7.18006037,3.27272727 12,3.27272727 C16.8199396,3.27272727 20.7272727,7.18006037 20.7272727,12 C20.7272727,16.8199396 16.8199396,20.7272727 12,20.7272727 Z M12,19.0909091 C15.916201,19.0909091 19.0909091,15.916201 19.0909091,12 C19.0909091,8.08379905 15.916201,4.90909091 12,4.90909091 C8.08379905,4.90909091 4.90909091,8.08379905 4.90909091,12 C4.90909091,15.916201 8.08379905,19.0909091 12,19.0909091 Z" id="形状结合"></path>
            <path d="M12.0135503,10.9422293 L13.9524887,9.05233933 C14.2537581,8.75869094 14.7317368,8.75087575 15.0424452,9.034518 C15.3307476,9.29770606 15.3511069,9.74477744 15.0879188,10.0330799 C15.0786546,10.0432281 15.0690964,10.0531041 15.0592564,10.0626952 L13.0577707,12.0135503 L14.9476607,13.9524887 C15.2413091,14.2537581 15.2491242,14.7317368 14.965482,15.0424452 C14.7022939,15.3307476 14.2552226,15.3511069 13.9669201,15.0879188 C13.9567719,15.0786546 13.9468959,15.0690964 13.9373048,15.0592564 L11.9864497,13.0577707 L10.0475113,14.9476607 C9.74624186,15.2413091 9.26826324,15.2491242 8.9575548,14.965482 C8.66925236,14.7022939 8.64889313,14.2552226 8.9120812,13.9669201 C8.92134543,13.9567719 8.93090362,13.9468959 8.94074359,13.9373048 L10.9422293,11.9864497 L9.05233933,10.0475113 C8.75869094,9.74624186 8.75087575,9.26826324 9.034518,8.9575548 C9.29770606,8.66925236 9.74477744,8.64889313 10.0330799,8.9120812 C10.0432281,8.92134543 10.0531041,8.93090362 10.0626952,8.94074359 L12.0135503,10.9422293 Z" id="形状结合"></path>
        </g>
    </g>
</svg>