<?xml version="1.0" encoding="UTF-8"?>
<svg width="24px" height="24px" viewBox="0 0 24 24" version="1.1" xmlns="http://www.w3.org/2000/svg" xmlns:xlink="http://www.w3.org/1999/xlink">
    <!-- Generator: Sketch 55.2 (78181) - https://sketchapp.com -->
    <title>icon_sdk_search_normal</title>
    <desc>Created with Sketch.</desc>
    <g id="icon_sdk_search_normal" stroke="none" stroke-width="1" fill="none" fill-rule="evenodd">
        <g id="全局/顶部tab//search" fill="#FFFFFF">
            <path d="M12,19.6363636 C16.2174472,19.6363636 19.6363636,16.2174472 19.6363636,12 C19.6363636,7.78255282 16.2174472,4.36363636 12,4.36363636 C7.78255282,4.36363636 4.36363636,7.78255282 4.36363636,12 C4.36363636,16.2174472 7.78255282,19.6363636 12,19.6363636 Z M12,18 C8.6862915,18 6,15.3137085 6,12 C6,8.6862915 8.6862915,6 12,6 C15.3137085,6 18,8.6862915 18,12 C18,15.3137085 15.3137085,18 12,18 Z" id="形状结合" fill-rule="nonzero"></path>
            <path d="M18.2045455,16.3636364 L18.3409091,16.3636364 C18.7551227,16.3636364 19.0909091,16.6994228 19.0909091,17.1136364 L19.0909091,18.8863636 C19.0909091,19.3005772 18.7551227,19.6363636 18.3409091,19.6363636 L18.2045455,19.6363636 C17.7903319,19.6363636 17.4545455,19.3005772 17.4545455,18.8863636 L17.4545455,17.1136364 C17.4545455,16.6994228 17.7903319,16.3636364 18.2045455,16.3636364 Z" id="矩形" fill-rule="evenodd" transform="translate(18.272727, 18.000000) rotate(-45.000000) translate(-18.272727, -18.000000) "></path>
        </g>
    </g>
</svg>