<?xml version="1.0" encoding="UTF-8"?>
<svg width="36px" height="16px" viewBox="0 0 36 16" version="1.1" xmlns="http://www.w3.org/2000/svg" xmlns:xlink="http://www.w3.org/1999/xlink">
    <title>icon_push_news_normal</title>
    <g id="icon_push_news_normal" stroke="none" stroke-width="1" fill="none" fill-rule="evenodd">
        <g id="编组-2" transform="translate(0.000000, 2.000000)" fill-rule="nonzero">
            <polygon id="路径" fill="#000000" points="1.88288361 12 2.89899823 3.81666667 5.57891439 12 7.74074371 12 9.23076923 0 7.34788563 0 6.331771 8.18333333 3.65185485 0 1.49002552 0 0 12"></polygon>
            <polygon id="路径" fill="#FF4000" points="15.4836274 12 15.7737548 9.73333333 11.072367 9.73333333 11.4222265 7 15.2322197 7 15.5223471 4.73333333 11.7123539 4.73333333 12.0280808 2.26666667 16.7294686 2.26666667 17.019596 0 10.2478722 0 8.71190367 12"></polygon>
            <polygon id="路径" fill="#000000" points="20.3817434 12 23.1184026 4.1 23.7803393 12 25.9634685 12 29.5384615 0 27.5828472 0 25.1382124 8.76666667 24.5330223 0 22.5690064 0 19.5887553 8.76666667 19.4398645 0 17.5384615 0 17.731326 12"></polygon>
            <path d="M33.1402265,12 C33.6890405,12 34.1565849,11.8016529 34.5467373,11.3719008 C34.9368898,10.9421488 35.1726822,10.3801653 35.2541145,9.68595041 L35.5061668,7.53719008 C35.5798437,6.90909091 35.4570105,6.39669421 35.1507342,6 C34.844458,5.60330579 34.4200737,5.32231405 33.8887094,5.17355372 L31.535802,4.51239669 C31.3848146,4.46280992 31.2749671,4.39669421 31.2193264,4.31404959 C31.1636857,4.23140496 31.1399956,4.09917355 31.1613231,3.91735537 L31.2931659,2.79338843 C31.3377598,2.41322314 31.5028243,2.23140496 31.8033653,2.23140496 L33.6850133,2.23140496 C33.9855543,2.23140496 34.0948968,2.41322314 34.0633699,2.79338843 L33.9809275,3.71900826 L35.8103075,3.71900826 L35.9731721,2.33057851 C36.0546044,1.63636364 35.9506547,1.07438017 35.6613232,0.644628099 C35.3719917,0.214876033 34.9529189,0 34.4041049,0 L31.633901,0 C31.085087,0 30.6156037,0.214876033 30.2254513,0.644628099 C29.8352988,1.07438017 29.5995064,1.63636364 29.5180741,2.33057851 L29.2815327,4.34710744 C29.2078558,4.97520661 29.3176221,5.48760331 29.6238983,5.88429752 C29.9301746,6.28099174 30.3414919,6.56198347 30.8728561,6.7107438 L33.2257635,7.37190083 C33.3767509,7.4214876 33.4865984,7.48760331 33.5422391,7.57024793 C33.5978798,7.65289256 33.6215699,7.78512397 33.6002424,7.96694215 L33.4528887,9.2231405 C33.4082948,9.60330579 33.2432303,9.78512397 32.9426893,9.78512397 L30.9042373,9.78512397 C30.6036963,9.78512397 30.4812869,9.60330579 30.5258807,9.2231405 L30.649968,8.16528926 L28.8205881,8.16528926 L28.6422126,9.68595041 C28.5607803,10.3801653 28.6647299,10.9421488 28.9540614,11.3719008 C29.2433929,11.8016529 29.6644046,12 30.2132185,12 L33.1402265,12 Z" id="路径" fill="#000000"></path>
        </g>
    </g>
</svg>