<?xml version="1.0" encoding="UTF-8"?>
<svg width="136px" height="91px" viewBox="0 0 136 91" version="1.1" xmlns="http://www.w3.org/2000/svg" xmlns:xlink="http://www.w3.org/1999/xlink">
    <!-- Generator: Sketch 63.1 (92452) - https://sketch.com -->
    <title>tag_sports_live_white</title>
    <desc>Created with Sketch.</desc>
    <g id="tag_sports_live_white" stroke="none" stroke-width="1" fill="none" fill-rule="evenodd">
        <path d="M10.5717739,49.477257 L26.3796964,49.477257 L26.3796964,59.6138922 L0,59.6138922 L0,0 L10.5717739,0 L10.5717739,49.477257 Z M43.0928976,59.6138922 L32.6363452,59.6138922 L32.6363452,12.4649453 L43.0928976,12.4649453 L43.0928976,59.6138922 Z M69.2565951,47.6036304 L80.8516901,0 L92.2707541,0 L69.2565951,91 L48.5448237,0 L58.4844796,0 L69.2565951,47.6036304 Z M108.78041,8.44719601 L105.823615,23.7880807 L129.430561,23.7880807 L126.541716,32.2352767 L105.823615,32.2352767 L102.469839,50.4889877 L129.430561,50.4889877 L126.541716,58.9361837 L87.8121831,58.9361837 L99.9045768,0 L136,0 L133.744552,8.44719601 L108.78041,8.44719601 Z" id="LIVE" fill="#FFFFFF" fill-rule="nonzero"></path>
    </g>
</svg>