<?xml version="1.0" encoding="UTF-8"?>
<svg width="18px" height="14px" viewBox="0 0 18 14" version="1.1" xmlns="http://www.w3.org/2000/svg" xmlns:xlink="http://www.w3.org/1999/xlink">
    <!-- Generator: Sketch 55.2 (78181) - https://sketchapp.com -->
    <title>tag_item_live_red</title>
    <desc>Created with Sketch.</desc>
    <g id="tag_item_live_red" stroke="none" stroke-width="1" fill="none" fill-rule="evenodd">
        <g id="首页/体育项/live">
            <g id="编组">
                <rect id="矩形" fill="#FFFFFF" x="0" y="0" width="18" height="14" rx="2"></rect>
                <g id="icon/比赛状态/动画备份-2" transform="translate(1.000000, 1.000000)" fill="#FF4000">
                    <path d="M13.9273965,2.72474301e-06 C14.4820508,0.000868066524 15.0132946,0.226002306 15.4026357,0.625192643 C15.7919767,1.02438298 16.0070286,1.56442376 15.9998247,2.12486045 L15.9998247,9.87513281 C16.000721,10.4389566 15.7794691,10.9799482 15.3849313,11.3786323 C14.9903935,11.7773164 14.4550283,12.0008935 13.8970683,11.9999905 L2.10276177,11.9999905 C1.54480182,12.0008935 1.00943657,11.7773164 0.614898787,11.3786323 C0.220361008,10.9799482 -0.000890914641,10.4389566 2.69640407e-06,9.87513281 L2.69640407e-06,2.12486045 C-0.000890914641,1.56103669 0.220361008,1.0200451 0.614898787,0.62136098 C1.00943657,0.222676861 1.54480182,-0.000900277582 2.10276177,2.72474301e-06 L13.9273965,2.72474301e-06 Z M2.93280358,7.34964897 L2.93280358,3 L2,3 L2,8.24078173 L4.32762027,8.24078173 L4.32762027,7.34964897 L2.93280358,7.34964897 Z M5.8023145,8.24078173 L5.8023145,4.09581937 L4.87967751,4.09581937 L4.87967751,8.24078173 L5.8023145,8.24078173 Z M8.11087604,7.18493454 L7.16039526,3 L6.2833668,3 L8.11087604,11 L10.1415371,3 L9.13397265,3 L8.11087604,7.18493454 Z M11.5982715,3.74261064 L13.8009899,3.74261064 L14,3 L10.8151097,3 L9.7481338,8.18120296 L13.1654455,8.18120296 L13.4203437,7.43859232 L11.0414563,7.43859232 L11.3373778,5.83387048 L13.1654455,5.83387048 L13.4203437,5.09125984 L11.3373778,5.09125984 L11.5982715,3.74261064 Z" id="形状结合"></path>
                </g>
            </g>
        </g>
    </g>
</svg>