<svg height="24" viewBox="0 0 24 24" width="24" xmlns="http://www.w3.org/2000/svg"><path d="m12.7266058 6c-1.9127249 1.22968198-3.47165108 3.25441696-3.12890846 5.7561837-.42013611-.4134275-1.2051273-.8904593-1.43730779-1.6431095-1.293577 1.4204947-1.63631963 3.4770318-.35379884 5.5017668.12161836.180212.27640535.4028268.46436098.5936396.55281069.6360424 1.87955631 1.7915194 4.28981091 1.7915194 1.8353315 0 3.0072902-.6678445 3.7480565-1.229682.7407663-.5194346 1.2493521-1.4204947 1.4815326-2.1731449.7849912-2.8409893-.7407663-5.31095401-2.8082783-6.65724377 0 .67844523-.309574 1.50530035-.4643609 1.95053004-.8955534-1.00706714-1.7911067-2.02473498-1.7911067-3.89045937z" fill="#ccc" fill-rule="evenodd"/></svg>