<?xml version="1.0" encoding="UTF-8"?>
<svg width="14px" height="14px" viewBox="0 0 14 14" version="1.1" xmlns="http://www.w3.org/2000/svg" xmlns:xlink="http://www.w3.org/1999/xlink">
    <!-- Generator: Sketch 55.2 (78181) - https://sketchapp.com -->
    <title>上半场</title>
    <desc>Created with Sketch.</desc>
    <g id="Z-CUT" stroke="none" stroke-width="1" fill="none" fill-rule="evenodd">
        <g id="B01列表" transform="translate(-695.000000, -142.000000)" fill="#FFFFFF" fill-rule="nonzero">
            <g id="上半场" transform="translate(695.000000, 142.000000)">
                <path d="M4.487,0 L9.513,0 C11.073125,0 11.63925,0.186 12.20975,0.534 C12.78025,0.883 13.227375,1.394 13.53275,2.046 C13.83725,2.698 14,3.345 14,5.128 L14,8.872 C14,10.655 13.83725,11.302 13.53275,11.954 C13.2343669,12.598193 12.7734189,13.1249907 12.20975,13.466 C11.63925,13.814 11.073125,14 9.513,14 L4.487,14 C2.926875,14 2.36075,13.814 1.79025,13.466 C1.22658114,13.1249907 0.765633144,12.598193 0.46725,11.954 C0.16275,11.302 0,10.655 0,8.872 L0,5.128 C0,3.345 0.16275,2.698 0.46725,2.046 C0.765633144,1.40180701 1.22658114,0.875009308 1.79025,0.534 C2.36075,0.186 2.926875,0 4.487,0 Z" id="形状" opacity="0.300000012"></path>
                <path d="M6.1283,8.95305257 C6.1043,8.16105257 6.1043,7.11705257 6.1403,5.79705257 C6.1643,4.48905257 6.1403,3.70905257 6.0803,3.48105257 C5.9003,3.04905257 6.0803,2.90505257 6.6443,3.06105257 C7.1843,3.20505257 7.4003,3.38505257 7.2803,3.57705257 C7.1843,3.69705257 7.1123,4.51305257 7.0643,6.00105257 C7.3523,6.09705257 7.9403,6.01305257 8.8643,5.72505257 C9.0683,5.62905257 9.2003,5.71305257 9.2603,6.01305257 C9.3083,6.30105257 9.2363,6.46905257 9.0683,6.50505257 C7.8563,6.88905257 7.1723,7.14105257 7.0283,7.22505257 C6.9803,8.59305257 6.9923,9.48105257 7.0763,9.87705257 C7.1003,9.87705257 7.1483,9.87705257 7.2203,9.86505257 C8.0603,9.79305257 8.8763,9.75705257 9.6443,9.73305257 C10.4003,9.73305257 10.8563,9.69705257 11.0003,9.63705257 C11.0963,9.61305257 11.1683,9.68505257 11.2283,9.84105257 C11.2763,10.0090526 11.3723,10.1410526 11.4803,10.2010526 C11.5763,10.2730526 11.6123,10.4770526 11.6003,10.7890526 C11.5523,11.1250526 11.4443,11.2210526 11.2763,11.1010526 C10.0763,10.7650526 8.6603,10.6690526 7.0403,10.7530526 C5.1443,10.8850526 3.6683,11.1130526 2.6243,11.4130526 C2.4803,11.4850526 2.3123,11.3170526 2.1083,10.9090526 C1.8803,10.5130526 2.0123,10.3930526 2.5043,10.5370526 C3.5363,10.3450526 4.7363,10.1770526 6.0923,9.99705257 C6.1163,9.75705257 6.1283,9.42105257 6.1283,8.95305257 Z" id="上"></path>
            </g>
        </g>
    </g>
</svg>