<?xml version="1.0" encoding="UTF-8"?>
<svg width="14px" height="14px" viewBox="0 0 14 14" version="1.1" xmlns="http://www.w3.org/2000/svg" xmlns:xlink="http://www.w3.org/1999/xlink">
    <!-- Generator: Sketch 55.2 (78181) - https://sketchapp.com -->
    <title>下半场</title>
    <desc>Created with Sketch.</desc>
    <g id="Z-CUT" stroke="none" stroke-width="1" fill="none" fill-rule="evenodd">
        <g id="B01列表" transform="translate(-726.000000, -142.000000)" fill="#FFFFFF" fill-rule="nonzero">
            <g id="下半场" transform="translate(726.000000, 142.000000)">
                <path d="M4.487,0 L9.513,0 C11.073125,0 11.63925,0.186 12.20975,0.534 C12.78025,0.883 13.227375,1.394 13.53275,2.046 C13.83725,2.698 14,3.345 14,5.128 L14,8.872 C14,10.655 13.83725,11.302 13.53275,11.954 C13.2343669,12.598193 12.7734189,13.1249907 12.20975,13.466 C11.63925,13.814 11.073125,14 9.513,14 L4.487,14 C2.926875,14 2.36075,13.814 1.79025,13.466 C1.22658114,13.1249907 0.765633144,12.598193 0.46725,11.954 C0.16275,11.302 0,10.655 0,8.872 L0,5.128 C0,3.345 0.16275,2.698 0.46725,2.046 C0.765633144,1.40180701 1.22658114,0.875009308 1.79025,0.534 C2.36075,0.186 2.926875,0 4.487,0 Z" id="形状" opacity="0.300000012"></path>
                <path d="M8.596,4.94 C8.824,4.748 9.004,4.82 9.124,5.156 C9.196,5.432 9.496,5.744 10.048,6.104 C10.348,6.284 10.444,6.488 10.324,6.692 C10.216,6.884 10.096,6.968 9.988,6.944 C9.52,6.8 9.148,6.74 8.884,6.74 C8.704,6.74 8.548,6.488 8.428,5.984 C8.284,5.492 8.344,5.156 8.596,4.94 Z M6.64,10.544 C6.592,6.488 6.544,4.28 6.52,3.908 C6.496,3.812 6.484,3.74 6.46,3.668 C5.5,3.776 4.852,3.884 4.516,3.956 C4.048,4.076 3.604,4.244 3.196,4.436 C2.98,4.532 2.86,4.472 2.812,4.244 C2.752,4.052 2.68,3.8 2.608,3.512 C2.512,3.236 2.656,3.14 3.052,3.236 C4.18,3.176 4.972,3.092 5.464,2.984 C5.932,2.876 6.46,2.768 7.048,2.672 C7.684,2.588 8.38,2.516 9.148,2.456 C9.892,2.408 10.516,2.372 11.02,2.348 C11.272,2.3 11.44,2.564 11.512,3.104 C11.584,3.644 11.512,3.836 11.296,3.704 C10.744,3.356 9.472,3.308 7.48,3.548 C7.456,3.596 7.456,3.644 7.48,3.692 C7.48,4.904 7.48,5.852 7.468,6.524 C7.444,7.208 7.408,8.504 7.36,10.4 C7.36,10.772 7.408,11.012 7.504,11.132 C7.576,11.252 7.492,11.324 7.276,11.348 C7.024,11.396 6.784,11.408 6.556,11.36 C6.388,11.36 6.364,11.312 6.484,11.204 C6.604,11.084 6.652,10.868 6.64,10.544 Z" id="下"></path>
            </g>
        </g>
    </g>
</svg>