<?xml version="1.0" encoding="UTF-8"?>
<svg width="8px" height="8px" viewBox="0 0 8 8" version="1.1" xmlns="http://www.w3.org/2000/svg" xmlns:xlink="http://www.w3.org/1999/xlink">
    <title>icon_result_data_history_hurt</title>
    <g id="icon_result_data_history_hurt" stroke="none" stroke-width="1" fill="none" fill-rule="evenodd">
        <g id="wb_医院" fill-rule="nonzero">
            <path d="M0.00558035714,3.99553571 C0.00558035714,6.19861355 1.79152782,7.98456101 3.99460565,7.98456101 C6.19768349,7.98456101 7.98363095,6.19861355 7.98363095,3.99553571 C7.98363095,1.79245788 6.19768349,0.00651041667 3.99460565,0.00651041667 C1.79152782,0.00651041667 0.00558035714,1.79245788 0.00558035714,3.99553571 L0.00558035714,3.99553571 Z" id="路径" fill="#333333"></path>
            <path d="M0.573846726,3.99553571 C0.573846726,5.21765518 1.22583967,6.34694015 2.28422618,6.95799989 C3.34261268,7.56905963 4.64659863,7.56905963 5.70498513,6.95799989 C6.76337164,6.34694015 7.41536458,5.21765518 7.41536458,3.99553571 C7.41536458,2.10630273 5.88383864,0.574776786 3.99460565,0.574776786 C2.10537267,0.574776786 0.573846726,2.10630273 0.573846726,3.99553571 Z" id="路径" fill="#FFFFFF"></path>
            <path d="M0.97749256,3.99553571 C0.97749256,5.66184127 2.3283001,7.01264881 3.99460565,7.01264881 C5.66091121,7.01264881 7.01171875,5.66184127 7.01171875,3.99553571 C7.01171875,2.32923016 5.66091121,0.978422619 3.99460565,0.978422619 C2.3283001,0.978422619 0.97749256,2.32923016 0.97749256,3.99553571 Z" id="路径" fill="#FFFFFF"></path>
            <polygon id="路径" fill="#FE4028" points="5.84635417 4.53497024 4.53404018 4.53497024 4.53404018 5.84728423 3.45610119 5.84728423 3.45610119 4.53497024 2.1437872 4.53497024 2.1437872 3.45703125 3.45610119 3.45703125 3.45610119 2.14471726 4.53404018 2.14471726 4.53404018 3.45703125 5.84635417 3.45703125"></polygon>
        </g>
    </g>
</svg>