<?xml version="1.0" encoding="UTF-8"?>
<svg width="36px" height="24px" viewBox="0 0 36 24" version="1.1" xmlns="http://www.w3.org/2000/svg" xmlns:xlink="http://www.w3.org/1999/xlink">
    <title>icon_sdk_back_white</title>
    <g id="页面-1" stroke="none" stroke-width="1" fill="none" fill-rule="evenodd">
        <g id="icon_sdk_back_white" fill-rule="nonzero">
            <path d="M0,0 L24,0 C30.627417,0 36,5.372583 36,12 C36,18.627417 30.627417,24 24,24 L0,24 L0,24 L0,0 Z" id="矩形" fill="#FFFFFF" opacity="0.300000012"></path>
            <g id="ico/个人主页" transform="translate(10.000000, 2.000000)">
                <path d="M14,5 C14.5522847,5 15,5.44771525 15,6 L15,14 C15,14.5522847 14.5522847,15 14,15 C13.4477153,15 13,14.5522847 13,14 L13,7 L6,7 C5.44771525,7 5,6.55228475 5,6 C5,5.44771525 5.44771525,5 6,5 L14,5 L14,5 Z" id="形状结合" fill="#FFFFFF" transform="translate(10.000000, 10.000000) scale(-1, 1) rotate(45.000000) translate(-10.000000, -10.000000) "></path>
                <rect id="矩形" fill="#D8D8D8" opacity="0" x="0" y="0" width="20" height="20"></rect>
            </g>
        </g>
    </g>
</svg>