<?xml version="1.0" encoding="UTF-8"?>
<svg width="26px" height="14px" viewBox="0 0 26 14" version="1.1" xmlns="http://www.w3.org/2000/svg" xmlns:xlink="http://www.w3.org/1999/xlink">
    <title>icon_list_buy</title>
    <g id="icon_list_buy" stroke="none" stroke-width="1" fill="none" fill-rule="evenodd">
        <path d="M7,1.77635684e-15 L19,1.77635684e-15 C22.8659932,1.95436382e-15 26,3.13400675 26,7 C26,10.8659932 22.8659932,14 19,14 L7,14 C3.13400675,14 1.36162605e-15,10.8659932 0,7 C4.14730794e-16,3.13400675 3.13400675,3.3747067e-15 7,1.77635684e-15 Z" id="矩形" fill="#FF4000" opacity="0.100000001" transform="translate(13.000000, 7.000000) rotate(-180.000000) translate(-13.000000, -7.000000) "></path>
        <path d="M11.875,11.038477 L12.1914062,10.1595707 L5.93359375,10.1595707 L6.3203125,7.41738325 L11.8046875,7.41738325 L12.296875,3.9369145 C12.34375,3.7494145 12.3320313,3.6087895 12.2617188,3.5150395 C12.1679688,3.4212895 12.015625,3.3744145 11.8046875,3.3744145 L5.265625,3.3744145 L5.16015625,4.2181645 L10.9960937,4.2181645 C11.1132812,4.2181645 11.1601563,4.2650395 11.1367188,4.3587895 L10.8203125,6.57363325 L6.4609375,6.57363325 L6.63671875,5.30800825 L5.6171875,4.88613325 L4.703125,11.038477 L11.875,11.038477 Z M15.1509213,11.2494145 L15.6191385,8.0150395 L16.3754892,7.76894575 L16.519556,6.8900395 L15.7271886,7.1712895 L15.9432888,5.65957075 L16.7356563,5.65957075 L16.8797231,4.88613325 L16.0513389,4.88613325 L16.3034558,3.163477 L15.3670216,3.163477 L15.1149046,4.88613325 L14.1784704,4.88613325 L14.0344036,5.65957075 L15.0068545,5.65957075 L14.7187209,7.48769575 L13.5661864,7.76894575 L13.8903368,8.5775395 L14.6106708,8.33144575 L14.2865205,10.4408207 L13.3140695,10.4408207 L13.5661864,11.2494145 L15.1509213,11.2494145 Z M17.8602014,6.68735677 C18.3293505,5.97875434 18.6626933,5.09910994 18.8602297,4.04842358 L20.0084105,4.04842358 C20.0824866,4.04842358 20.1195247,4.08507543 20.1195247,4.15837913 L19.7491438,6.57740122 L21.489934,6.57740122 L21.7862387,5.84436422 L20.8602865,5.84436422 L21.1565912,3.82851249 C21.2059753,3.63303595 21.1812832,3.48642856 21.082515,3.38869029 C21.0084388,3.33982116 20.8602865,3.31538659 20.6380579,3.31538659 L17.9713156,3.31538659 C17.8972394,3.97511989 17.7614331,4.57376676 17.5638967,5.11132723 C17.3416681,5.67332226 17.0453634,6.19866544 16.6749825,6.68735677 L17.8602014,6.68735677 Z M17.4527695,11.2214466 C17.8562567,10.9413467 18.2885644,10.6145635 18.7496927,10.241097 L19.6575389,11.2214466 L21.2570775,11.2214466 C20.5942056,10.6845885 20.0033851,10.1477304 19.4846158,9.61087232 C20.0610261,9.05067259 20.5653851,8.50214368 20.9976928,7.9652856 C21.1706159,7.73186904 21.2570775,7.48678165 21.2570775,7.23002344 C21.2570775,7.13665682 21.2138467,7.05496102 21.1273851,6.98493605 C21.0121031,6.93825274 20.8824108,6.91491109 20.7383082,6.91491109 L16.8043079,6.91491109 L16.6746156,7.65017324 L19.8736928,7.65017324 C19.9025133,7.6735149 19.9025133,7.69685655 19.8736928,7.72019821 C19.6143081,8.14034801 19.2828722,8.54882699 18.879385,8.94563514 C18.5335388,8.54882699 18.2597439,8.19870215 18.0580003,7.89526063 L16.9340003,7.89526063 C17.3086669,8.50214368 17.7265644,9.07401424 18.1876926,9.61087232 C17.5248208,10.1243888 16.7322567,10.6612468 15.8100002,11.2214466 L17.4527695,11.2214466 Z" id="已投" fill="#FF4000" fill-rule="nonzero"></path>
    </g>
</svg>