<?xml version="1.0" encoding="UTF-8"?>
<svg width="12px" height="12px" viewBox="0 0 12 12" version="1.1" xmlns="http://www.w3.org/2000/svg" xmlns:xlink="http://www.w3.org/1999/xlink">
    <!-- Generator: Sketch 55.2 (78181) - https://sketchapp.com -->
    <title>icon_match_star_selected</title>
    <desc>Created with Sketch.</desc>
    <g id="icon_match_star_selected" stroke="none" stroke-width="1" fill="none" fill-rule="evenodd">
        <g id="ico/收藏">
            <rect id="矩形" fill="#D8D8D8" opacity="0" x="0" y="0" width="12" height="12"></rect>
            <path d="M11.9701692,4.31222571 C11.898168,4.09780564 11.7061646,3.93103448 11.4781606,3.90125392 L8.0701012,3.40689655 L6.54607462,0.339498433 C6.44407284,0.136990596 6.23406918,0 6.0000651,0 C5.77206112,0 5.55605735,0.131034483 5.45405557,0.33354232 L3.930029,3.41285266 L0.52196956,3.90125392 C0.287965479,3.9369906 0.101962235,4.09184953 0.0299609793,4.31222571 C-0.0420402763,4.53260188 0.0179607701,4.76489028 0.1859637,4.93166144 L2.65200671,7.3200627 L2.06999656,10.6912226 C2.02799582,10.9175549 2.1239975,11.1438871 2.31000074,11.2868339 C2.41800263,11.3642633 2.54400482,11.4 2.66400692,11.4 C2.76000859,11.4 2.85601027,11.3761755 2.94601183,11.3285266 L5.99406499,9.73824451 L9.03611805,11.3285266 C9.2341215,11.4357367 9.492126,11.4238245 9.68412935,11.2808777 C9.87013259,11.1438871 9.96013416,10.9175549 9.92413353,10.6912226 L9.34212338,7.3200627 L11.8081664,4.93166144 C11.9821694,4.77084639 12.0421705,4.53260188 11.9701692,4.31222571 Z" id="路径" fill="#5078FF"></path>
        </g>
    </g>
</svg>