<?xml version="1.0" encoding="UTF-8"?>
<svg width="10px" height="10px" viewBox="0 0 10 10" version="1.1" xmlns="http://www.w3.org/2000/svg" xmlns:xlink="http://www.w3.org/1999/xlink">
    <!-- Generator: Sketch 55.2 (78181) - https://sketchapp.com -->
    <title>icon_match_hot_ccc</title>
    <desc>Created with Sketch.</desc>
    <g id="icon_match_hot_ccc" stroke="none" stroke-width="1" fill="none" fill-rule="evenodd">
        <g id="ico/热度" fill="#818490">
            <path d="M3.27662718,9.97119382 C2.61651474,8.58149603 2.96395917,7.78241496 3.48508014,7.05280677 C4.04097753,6.21894927 4.17992332,5.41987961 4.17992332,5.41987961 C4.17992332,5.41987961 4.63159423,5.975777 4.45787201,6.87908455 C5.22223378,6.01050773 5.36116815,4.62080994 5.25694167,4.0996433 C6.99409531,5.31566455 7.75844565,7.99087933 6.75092304,9.93646308 C12.1013183,6.87907314 8.07112508,2.32777035 7.37627048,1.84136869 C7.61949986,2.36248967 7.6542306,3.23105506 7.16782894,3.64800665 C6.36874786,0.590628125 4.38837628,0 4.38837628,0 C4.63160565,1.56342 3.5545873,3.2658429 2.51228826,4.55130279 C2.47755753,3.92595535 2.44279253,3.50901518 2.09538235,2.88365632 C2.02588661,4.03018183 1.15730979,4.93348939 0.914080418,6.08000347 C0.601412404,7.64342347 1.15732121,8.75521825 3.27662718,9.97119382 Z" id="路径"></path>
        </g>
    </g>
</svg>