<?xml version="1.0" encoding="UTF-8"?>
<svg width="180px" height="72px" viewBox="0 0 180 72" version="1.1" xmlns="http://www.w3.org/2000/svg" xmlns:xlink="http://www.w3.org/1999/xlink">
    <!-- Generator: Sketch 56.2 (81672) - https://sketch.com -->
    <title>主播备份 3</title>
    <desc>Created with Sketch.</desc>
    <g id="主播备份-3" stroke="none" stroke-width="1" fill="none" fill-rule="evenodd">
        <rect id="矩形" x="0" y="0" width="180" height="72"></rect>
        <rect id="矩形" fill="#FFFFFF" opacity="0.400000006" transform="translate(147.278175, 36.000000) rotate(-315.000000) translate(-147.278175, -36.000000) " x="136.278175" y="25" width="22" height="22"></rect>
        <rect id="矩形备份-2" fill="#FFFFFF" opacity="0.200000003" transform="translate(171.778175, 36.000000) rotate(-315.000000) translate(-171.778175, -36.000000) " x="166.278175" y="30.5" width="11" height="11"></rect>
        <rect id="矩形备份-3" fill="#FFFFFF" opacity="0.200000003" transform="translate(7.778175, 36.000000) rotate(-315.000000) translate(-7.778175, -36.000000) " x="2.27817459" y="30.5" width="11" height="11"></rect>
        <rect id="矩形备份" fill="#FFFFFF" opacity="0.400000006" transform="translate(32.278175, 36.000000) rotate(-315.000000) translate(-32.278175, -36.000000) " x="21.2781746" y="25" width="22" height="22"></rect>
        <path d="M121.556247,15.144 L127.198098,20.4 L123.881169,23.208 L128.273169,23.208 L128.583796,15.576 L137.547505,15.216 L137.201169,23.208 L142.601169,23.208 L139.035131,20.688 L145.00589,14.208 L128.590472,14.928 L121.556247,15.144 Z M120.300656,38.4 L145.068656,38.4 L140.289058,30.984 L136.905058,30.984 L136.651332,37.752 L127.651332,37.752 L127.905058,30.984 L125.745058,30.984 L120.300656,38.4 Z M127.403159,60.288 L127.586632,55.68 L122.402632,55.68 L122.635166,49.416 L127.819166,49.416 L127.959672,45.096 L122.127672,45.096 L121.987166,49.416 L121.754632,55.68 L121.711665,55.968 L121.571159,60.288 L127.403159,60.288 Z M136.171166,49.416 L142.003166,49.416 L142.143672,45.096 L136.383672,45.096 L136.171166,49.416 Z M141.587159,60.288 L141.770632,55.68 L135.938632,55.68 L135.755159,60.288 L141.587159,60.288 Z M55.516501,9.592 L56.208205,14.432 L47.3656171,14.432 L46.7248604,9.592 L55.516501,9.592 Z M24.7067826,24.44 L24.9943586,17.2174126 L43.4906069,17.0902025 L43.4371962,17.224 L59.1229974,17.224 L59.1084809,17.08 L79.7882424,17.08 L79.5111182,24.44 L24.7067826,24.44 Z M47.2408499,27.232 L56.1830826,27.232 L55.8857167,34.304 L46.943484,34.304 L47.2408499,27.232 Z M55.5045072,44.168 L55.1035992,55.904 L46.1607658,55.904 L46.5616738,44.168 L26.4086905,44.168 L26.7011022,37.022673 L76.7492102,36.9534405 L76.4619538,44.168 L55.5045072,44.168 Z M21.7526278,58.624 L79.9431286,58.624 L79.6608929,65.912 L21.470392,65.912 L21.7526278,58.624 Z M106.86561,15.8 L99.435145,15.8 L99.7800276,7 L107.210492,7 L106.86561,15.8 Z M106.45074,25.952 L106.049816,35.7348722 L98.5624679,36.8694579 L99.0215289,25.952 L93.6226572,25.952 L93.9463093,18.448 L111.37811,18.448 L111.094768,24.208 L122.093209,24.208 L116.28884,18.7759989 L121.747034,14.0888311 L115.024435,14.3867413 L115.019653,8.47494538 L151.168023,7.11081432 L151.113739,12.9584943 L143.824278,13.2473858 L149.932095,17.8716865 L144.151165,24.208 L152.866364,24.208 L152.646413,29.984 L148.199787,29.984 L152.711274,37.1646799 L150.62315,38.2954983 L149.691656,61.4341639 C147.960345,63.1223059 146.383316,64.6389428 144.960664,65.984 L113.278081,65.984 L114.368494,38.1249067 L112.802426,37.2174664 L117.8759,29.984 L112.89199,29.984 L113.061529,25.952 L106.45074,25.952 Z M93.4646987,47.5314298 L92.5357614,40.5368826 L107.096456,38.3192449 L107.260606,38.3049529 L110.287029,37.7739261 L110.873692,44.7019456 L105.675683,45.6189572 L105.030334,61.2179074 L100.296428,65.84 L92.3853503,65.84 L92.6566466,59.2 L97.698381,59.2 L98.1863043,46.705595 L93.4646987,47.5314298 Z" id="形状结合" fill="#FFFFFF" fill-rule="nonzero"></path>
    </g>
</svg>