<?xml version="1.0" encoding="UTF-8"?>
<svg width="37px" height="15px" viewBox="0 0 37 15" version="1.1" xmlns="http://www.w3.org/2000/svg" xmlns:xlink="http://www.w3.org/1999/xlink">
    <title>icon_detail_tag_anchor_en</title>
    <defs>
        <linearGradient x1="0%" y1="58.2176771%" x2="100%" y2="41.7823229%" id="linearGradient-1">
            <stop stop-color="#FB3881" offset="0%"></stop>
            <stop stop-color="#FF7B84" offset="100%"></stop>
        </linearGradient>
    </defs>
    <g id="icon_detail_tag_anchor_en" stroke="none" stroke-width="1" fill="none" fill-rule="evenodd">
        <g id="icon_detail_tag_anchor" fill-rule="nonzero">
            <rect id="矩形" fill="url(#linearGradient-1)" x="0" y="0" width="37" height="15" rx="2"></rect>
            <path d="M15.8752022,11.3490566 L15.8752022,5.85040431 L15.9183288,5.85040431 L18.2795148,11.3490566 L19.2929919,11.3490566 L21.6541779,5.85040431 L21.6973046,5.85040431 L21.6973046,11.3490566 L22.8725067,11.3490566 L22.8725067,3.6509434 L21.4816712,3.6509434 L18.8078167,9.8180593 L18.7754717,9.8180593 L16.0908356,3.6509434 L14.7,3.6509434 L14.7,11.3490566 L15.8752022,11.3490566 Z M27.7350404,11.5 C28.5652291,11.5 29.2768194,11.2628032 29.8698113,10.7884097 C30.5059299,10.2816712 30.9048518,9.58086253 31.0773585,8.68598383 L29.9345013,8.68598383 C29.783558,9.28975741 29.5140162,9.7425876 29.125876,10.0444744 C28.7592992,10.3247978 28.2849057,10.4649596 27.7242588,10.4649596 C26.8617251,10.4649596 26.2256065,10.1954178 25.815903,9.65633423 C25.4277628,9.14959569 25.2336927,8.43800539 25.2336927,7.51078167 C25.2336927,6.61590296 25.4277628,5.90431267 25.8266846,5.38679245 C26.2471698,4.81536388 26.8725067,4.53504043 27.7026954,4.53504043 C28.2633423,4.53504043 28.7161725,4.65363881 29.0827493,4.90161725 C29.4493261,5.14959569 29.6973046,5.53773585 29.8266846,6.05525606 L30.9695418,6.05525606 C30.8509434,5.27897574 30.5059299,4.65363881 29.945283,4.20080863 C29.3630728,3.72641509 28.6191375,3.5 27.7242588,3.5 C26.4951482,3.5 25.5679245,3.89892183 24.9210243,4.71832884 C24.338814,5.44070081 24.0584906,6.36792453 24.0584906,7.51078167 C24.0584906,8.67520216 24.3280323,9.60242588 24.8886792,10.2924528 C25.5247978,11.0902965 26.4735849,11.5 27.7350404,11.5 Z" id="MC" fill="#FFFFFF"></path>
            <g id="主播_60" transform="translate(4.000000, 3.000000)" fill="#FFFFFF">
                <path d="M3.54573569,6.67887369 C4.84781903,6.67887369 5.941569,5.58512369 5.941569,4.28304037 L5.941569,2.40804037 C5.941569,1.10595703 4.847819,0.0122070313 3.54573569,0.0122070313 C2.24365237,0.0122070313 1.14990234,1.10595703 1.14990234,2.40804037 L1.14990234,4.28304037 C1.14990234,5.58512372 2.24365234,6.67887369 3.54573569,6.67887369 Z M2.035319,2.40804037 C2.035319,1.57470703 2.71240234,0.897623688 3.54573569,0.897623688 C4.37906903,0.897623688 5.05615234,1.57470703 5.05615234,2.40804037 L5.05615234,4.28304037 C5.05615234,5.11637372 4.379069,5.79345703 3.54573569,5.79345703 C2.71240237,5.79345703 2.035319,5.11637369 2.035319,4.28304037 L2.035319,2.40804037 Z" id="形状"></path>
                <path d="M6.879069,5.89762369 C6.67073566,5.74137369 6.410319,5.84554034 6.254069,6.00179037 C5.68115234,6.93929037 4.63948566,7.46012372 3.54573569,7.46012369 C2.45198572,7.46012366 1.46240234,6.88720703 0.837402344,6.00179037 C0.681152344,5.79345703 0.420735687,5.74137372 0.212402344,5.89762369 C0.00406900024,6.05387369 -0.0480143127,6.31429034 0.108235687,6.52262369 C0.785319031,7.56429034 1.87906903,8.24137369 3.129069,8.34554037 L3.129069,9.43929037 C3.129069,9.69970703 3.33740234,9.85595703 3.54573569,9.85595703 C3.80615234,9.85595703 3.96240234,9.64762369 3.96240234,9.43929037 L3.96240234,8.34554037 C5.21240234,8.18929037 6.30615234,7.51220703 6.98323569,6.47054037 C7.13948569,6.31429037 7.08740234,6.05387372 6.879069,5.89762369 L6.879069,5.89762369 Z" id="路径"></path>
            </g>
        </g>
    </g>
</svg>