<?xml version="1.0" encoding="UTF-8"?>
<svg width="32px" height="32px" viewBox="0 0 32 32" version="1.1" xmlns="http://www.w3.org/2000/svg" xmlns:xlink="http://www.w3.org/1999/xlink">
    <!-- Generator: Sketch 55.2 (78181) - https://sketchapp.com -->
    <title>icon_dynamic_follow_normal</title>
    <desc>Created with Sketch.</desc>
    <g id="icon_dynamic_follow_normal" stroke="none" stroke-width="1" fill="none" fill-rule="evenodd">
        <g id="ico/跟投">
            <circle id="椭圆形" fill="#FFFFFF" fill-rule="nonzero" cx="16" cy="16" r="16"></circle>
            <path d="M20.8156874,7.69340353 L19.4909091,9.01818182 L19.508961,11.8739276 L15.9160488,15.4668398 C15.7456382,15.6372504 15.7456382,15.9135406 15.9160488,16.0839512 C16.0864594,16.2543618 16.3627496,16.2543618 16.5331602,16.0839512 L20.1260724,12.491039 L22.9818182,12.5090909 L24.3065965,11.1843126 C25.1290364,12.5998842 25.6,14.2449424 25.6,16 C25.6,21.3019336 21.3019336,25.6 16,25.6 C10.6980664,25.6 6.4,21.3019336 6.4,16 C6.4,10.6980664 10.6980664,6.4 16,6.4 C17.7550576,6.4 19.4001158,6.87096355 20.8156874,7.69340353 Z M16,11.2 C13.3490332,11.2 11.2,13.3490332 11.2,16 C11.2,18.6509668 13.3490332,20.8 16,20.8 C18.6509668,20.8 20.8,18.6509668 20.8,16 C20.8,15.759003 20.6046333,15.5636364 20.3636364,15.5636364 C20.1226394,15.5636364 19.9272727,15.759003 19.9272727,16 C19.9272727,18.1689728 18.1689728,19.9272727 16,19.9272727 C13.8310272,19.9272727 12.0727273,18.1689728 12.0727273,16 C12.0727273,13.8310272 13.8310272,12.0727273 16,12.0727273 C16.240997,12.0727273 16.4363636,11.8773606 16.4363636,11.6363636 C16.4363636,11.3953667 16.240997,11.2 16,11.2 Z M24.1038329,10.0779853 L22.5454545,11.6363636 L20.3636364,11.6363636 L20.3636364,9.45454545 L21.9220147,7.8961671 C22.7564456,8.50697941 23.4930206,9.24355436 24.1038329,10.0779853 Z" id="形状结合" fill="#5078FF" fill-rule="evenodd"></path>
        </g>
    </g>
</svg>