<?xml version="1.0" encoding="UTF-8"?>
<svg width="16px" height="16px" viewBox="0 0 16 16" version="1.1" xmlns="http://www.w3.org/2000/svg" xmlns:xlink="http://www.w3.org/1999/xlink">
    <!-- Generator: Sketch 55.2 (78181) - https://sketchapp.com -->
    <title>icon_winlist_hot_second</title>
    <desc>Created with Sketch.</desc>
    <g id="icon_winlist_hot_second" stroke="none" stroke-width="1" fill="none" fill-rule="evenodd">
        <g id="编组-9备份-3" transform="translate(1.000000, 1.000000)">
            <circle id="椭圆形" fill="#FF3000" fill-rule="nonzero" cx="7" cy="7" r="7"></circle>
            <path d="M7.16022635,3.11111111 C5.80779454,3.90812721 4.70552354,5.22045544 4.94786681,6.84197094 C4.65080087,6.57400863 4.0957566,6.26482135 3.93158857,5.77699254 C3.01693817,6.69768355 2.7745949,8.03062426 3.68142778,9.34295249 C3.76742055,9.45975658 3.8768659,9.60404397 4.00976382,9.72771889 C4.40064007,10.1399686 5.33874305,10.8888889 7.04296347,10.8888889 C8.3406726,10.8888889 9.16933023,10.4560267 9.6931044,10.0918728 C10.2168786,9.7552022 10.5764847,9.17118178 10.7406527,8.68335297 C11.295697,6.84197095 10.2168786,5.24106793 8.75500141,4.36847271 C8.75500141,4.80820573 8.53611072,5.34413035 8.42666537,5.63270515 C7.79344585,4.97997644 7.16022634,4.32037692 7.16022635,3.11111111 Z" id="热度" fill="#FFFFFF"></path>
        </g>
    </g>
</svg>