<?xml version="1.0" encoding="UTF-8"?>
<svg width="32px" height="32px" viewBox="0 0 32 32" version="1.1" xmlns="http://www.w3.org/2000/svg" xmlns:xlink="http://www.w3.org/1999/xlink">
    <!-- Generator: Sketch 55.2 (78181) - https://sketchapp.com -->
    <title>icon_dynamic_match_normal</title>
    <desc>Created with Sketch.</desc>
    <g id="icon_dynamic_match_normal" stroke="none" stroke-width="1" fill="none" fill-rule="evenodd">
        <g id="ico/收藏">
            <circle id="椭圆形" fill="#FFFFFF" fill-rule="nonzero" cx="16" cy="16" r="16"></circle>
            <path d="M23.9602256,13.7496343 C23.8642239,13.4637409 23.6082195,13.2413793 23.3042142,13.2016719 L18.7601349,12.5425287 L16.7280995,8.45266458 C16.5920971,8.18265413 16.3120922,8 16.0000868,8 C15.6960815,8 15.4080765,8.17471264 15.2720741,8.44472309 L13.2400387,12.5504702 L8.69595941,13.2016719 C8.38395397,13.2493208 8.13594965,13.4557994 8.03994797,13.7496343 C7.9439463,14.0434692 8.02394769,14.353187 8.2479516,14.5755486 L11.5360089,17.7600836 L10.7599954,22.2549634 C10.7039944,22.5567398 10.8319967,22.8585162 11.080001,23.0491118 C11.2240035,23.1523511 11.3920064,23.2 11.5520092,23.2 C11.6800115,23.2 11.8080137,23.1682341 11.9280158,23.1047022 L15.9920867,20.984326 L20.0481574,23.1047022 C20.312162,23.2476489 20.656168,23.2317659 20.9121725,23.0411703 C21.1601768,22.8585162 21.2801789,22.5567398 21.232178,22.2549634 L20.4561645,17.7600836 L23.7442219,14.5755486 C23.9762259,14.3611285 24.0562273,14.0434692 23.9602256,13.7496343 Z" id="路径" fill="#5078FF" fill-rule="evenodd"></path>
        </g>
    </g>
</svg>