<?xml version="1.0" encoding="UTF-8"?>
<svg width="10px" height="10px" viewBox="0 0 10 10" version="1.1" xmlns="http://www.w3.org/2000/svg" xmlns:xlink="http://www.w3.org/1999/xlink">
    <!-- Generator: Sketch 55.2 (78181) - https://sketchapp.com -->
    <title>icon_winlist_exceed_normal</title>
    <desc>Created with Sketch.</desc>
    <g id="icon_winlist_exceed_normal" stroke="none" stroke-width="1" fill="none" fill-rule="evenodd" fill-opacity="0.5">
        <path d="M7.08062312,5.5555593 L10,5.5555593 L10,10 L3.33334081,10 L3.33334081,5.5555593 L6.37132004,5.5555593 C5.76054935,4.87397645 4.87394854,4.4444407 3.88888266,4.4444407 C2.05087157,4.4444407 0.555553063,5.93977211 0.555553063,7.77778526 L0.555541844,7.77778526 L0.554554613,8.86414451 L4.26325641e-13,8.86349384 L4.26325641e-13,7.76974156 C0.00356749407,6.0499158 1.12349139,4.59239091 2.67364609,4.08282205 C2.06732916,3.68601081 1.66669284,3.00095021 1.66669284,2.22222596 C1.66669284,0.994928095 2.66159738,-2.57571742e-14 3.88889387,-2.57571742e-14 C5.11619037,-2.57571742e-14 6.11111734,0.994916876 6.11111734,2.22222596 C6.11111734,3.00086046 5.71057078,3.68582009 5.10438847,4.08267621 C5.91248197,4.34834263 6.60361102,4.87172152 7.08062312,5.5555593 Z M3.88888266,3.88889824 C4.80788259,3.88889824 5.55555306,3.14123815 5.55555306,2.22222596 C5.55555306,1.30321378 4.80789381,0.555553686 3.88888266,0.555553686 C2.9698715,0.555553686 2.22222347,1.30321378 2.22222347,2.22222596 C2.22222347,3.14123815 2.9698715,3.88889824 3.88888266,3.88889824 Z M9.44443572,9.44444631 L9.44443572,6.11111298 L3.88888266,6.11111298 L3.88888266,9.44444631 L9.44443572,9.44444631 Z M6.7239859,7.21896697 L5.65466882,9.35763719 L4.2711991,7.97416593 L4.66400488,7.58137093 L5.50275864,8.42013684 L6.65563137,6.11437758 L7.76673749,7.78103864 L8.18503178,6.94444912 L8.91202649,6.94444912 L8.91202649,7.50001402 L8.52791508,7.50001402 L7.83510324,8.88563925 L6.7239859,7.21896697 Z" id="形状结合" fill="#000000" fill-rule="nonzero"></path>
    </g>
</svg>