<?xml version="1.0" encoding="UTF-8"?>
<svg width="32px" height="32px" viewBox="0 0 32 32" version="1.1" xmlns="http://www.w3.org/2000/svg" xmlns:xlink="http://www.w3.org/1999/xlink">
    <!-- Generator: Sketch 55.2 (78181) - https://sketchapp.com -->
    <title>icon_dynamic_horn_normal</title>
    <desc>Created with Sketch.</desc>
    <g id="icon_dynamic_horn_normal" stroke="none" stroke-width="1" fill="none" fill-rule="evenodd">
        <g id="ico/赛事通告" transform="translate(0.000000, -0.000000)">
            <g id="个人主页/系统管理员">
                <path d="M16,0 C24.836556,-1.623249e-15 32,7.163444 32,16 C32,24.836556 24.836556,32 16,32 C7.163444,32 1.082166e-15,24.836556 0,16 C-1.082166e-15,7.163444 7.163444,1.623249e-15 16,0 Z" id="矩形" fill="#FFFFFF" fill-rule="nonzero"></path>
                <g id="形状结合-2" transform="translate(8.487265, 7.725360)" fill="#5078FF">
                    <path d="M12.7891156,11.1020408 L13.5510204,11.1020408 C14.0619777,11.1020408 14.4761905,11.5162536 14.4761905,12.0272109 C14.4761905,12.5381682 14.0619777,12.952381 13.5510204,12.952381 L0.925170068,12.952381 C0.414212748,12.952381 6.25742246e-17,12.5381682 0,12.0272109 C-6.25742246e-17,11.5162536 0.414212748,11.1020408 0.925170068,11.1020408 L1.68707483,11.1020408 L1.68707483,6.47619048 C1.68707483,3.7256633 3.68755773,1.44237393 6.31292517,1.00192073 L6.31292517,0.925170068 C6.31292517,0.414212748 6.72713792,7.27605148e-12 7.23809524,7.27595761e-12 C7.74905256,7.27586375e-12 8.16326531,0.414212748 8.16326531,0.925170068 L8.16326531,1.00192073 C10.7886328,1.44237393 12.7891156,3.7256633 12.7891156,6.47619048 L12.7891156,11.1020408 Z M5.06395932,14.0648801 L8.87348313,14.0648801 C8.87348313,14.9064568 8.19125037,15.5886896 7.34967361,15.5886896 L6.58776885,15.5886896 C5.74619208,15.5886896 5.06395932,14.9064568 5.06395932,14.0648801 Z" id="形状结合"></path>
                </g>
            </g>
        </g>
    </g>
</svg>