<?xml version="1.0" encoding="UTF-8"?>
<svg width="54px" height="10px" viewBox="0 0 54 10" version="1.1" xmlns="http://www.w3.org/2000/svg" xmlns:xlink="http://www.w3.org/1999/xlink">
    <!-- Generator: Sketch 55.2 (78181) - https://sketchapp.com -->
    <title>icon_winlist_text_normal</title>
    <desc>Created with Sketch.</desc>
    <defs>
        <linearGradient x1="-1.11022302e-14%" y1="50%" x2="100%" y2="50%" id="linearGradient-1">
            <stop stop-color="#FF9E2E" offset="0%"></stop>
            <stop stop-color="#FFD500" offset="100%"></stop>
        </linearGradient>
        <linearGradient x1="-1.11022302e-14%" y1="50%" x2="100%" y2="50%" id="linearGradient-2">
            <stop stop-color="#FF9E2E" offset="0%"></stop>
            <stop stop-color="#FFD500" offset="100%"></stop>
        </linearGradient>
        <linearGradient x1="-1.11022302e-14%" y1="50%" x2="100%" y2="50%" id="linearGradient-3">
            <stop stop-color="#FF9E2E" offset="0%"></stop>
            <stop stop-color="#FFD500" offset="100%"></stop>
        </linearGradient>
        <linearGradient x1="-1.11022302e-14%" y1="50%" x2="100%" y2="50%" id="linearGradient-4">
            <stop stop-color="#FF9E2E" offset="0%"></stop>
            <stop stop-color="#FFD500" offset="100%"></stop>
        </linearGradient>
    </defs>
    <g id="icon_winlist_text_normal" stroke="none" stroke-width="1" fill="none" fill-rule="evenodd">
        <g id="编组-5备份-6" transform="translate(0.500000, -0.500000)" fill-rule="nonzero">
            <path d="M6.53360192,1.42108547e-14 L6.7477478,1.2 L8.73346209,1.2 L9.26688864,0.4 L8.97645906,1.42108547e-14 L12.2478876,1.42108547e-14 L11.4620335,1.2 L13.1620335,1.2 L12.0077194,6.11428571 L7.79343366,6.11428571 L7.62940984,6.78571429 L12.2579813,6.78571429 L11.9428571,8.14285714 L7.31428571,8.14285714 L6.80995438,10.2857143 L4.09566867,10.2857143 L4.6,8.14285714 L-5.10702591e-13,8.14285714 L0.315124129,6.78571429 L4.91512413,6.78571429 L5.07914795,6.11428571 L0.89343366,6.11428571 L2.0477478,1.2 L4.01917637,1.2 L3.89001123,0.457142857 L3.54788763,1.42108547e-14 L6.53360192,1.42108547e-14 Z M10.0120157,4.27142857 L8.22630146,4.27142857 L8.0820122,4.88571429 L9.86772648,4.88571429 L10.0120157,4.27142857 Z M5.51201575,4.27142857 L3.76915861,4.27142857 L3.62486934,4.88571429 L5.36772648,4.88571429 L5.51201575,4.27142857 Z M10.4448836,2.42857143 L8.65916926,2.42857143 L8.51351779,3.05714286 L10.2992321,3.05714286 L10.4448836,2.42857143 Z M5.94488355,2.42857143 L4.20202641,2.42857143 L4.05637493,3.05714286 L5.79923207,3.05714286 L5.94488355,2.42857143 Z" id="形状结合" fill="url(#linearGradient-1)"></path>
            <path d="M25.6325421,3.08571429 L25.3228668,4.38571429 L20.9806733,4.52857143 L20.8391085,5.11428571 L24.9248228,5.11428571 L24.6151475,6.41428571 L20.5294332,6.41428571 L20.4130517,6.88571429 L25.3559089,6.88571429 L25.0421469,8.22857143 L20.0992898,8.22857143 L19.9536383,8.85714286 L24.0107812,8.85714286 L24.6924787,8.3 L24.2357898,10.2428571 L16.7357898,10.2428571 L17.2135755,8.22857143 L13.1278612,8.22857143 L13.4416231,6.88571429 L17.5273374,6.88571429 L17.6294332,6.41428571 L14.3722903,6.41428571 L14.6819656,5.11428571 L17.9391085,5.11428571 L18.0582144,4.61428571 L14.4343932,4.71428571 L14.7454307,3.4 L25.6325421,3.08571429 Z M24.241065,3.27737837e-13 L23.8539186,0.614285714 L26.8110614,0.614285714 L26.5238451,1.82857143 L25.1524165,1.82857143 L25.4938066,2.74285714 L23.322378,2.74285714 L23.0143096,1.92857143 L22.5080923,2.74285714 L20.0652351,2.74285714 L21.5287701,0.428571429 L21.2553507,3.27737837e-13 L24.241065,3.27737837e-13 Z M18.541065,3.27737837e-13 L18.1539186,0.614285714 L20.8396328,0.614285714 L20.5524165,1.82857143 L19.4667022,1.82857143 L19.7938066,2.74285714 L17.622378,2.74285714 L17.3285953,1.92857143 L16.8080923,2.74285714 L14.3652351,2.74285714 L15.8287701,0.428571429 L15.5553507,3.27737837e-13 L18.541065,3.27737837e-13 Z" id="形状结合" fill="url(#linearGradient-2)"></path>
            <path d="M39.3038775,6.38571429 L38.6273491,9.28571429 L39.1987776,9.28571429 L38.9142857,10.4714286 L27,10.4714286 L27.2844919,9.28571429 L27.8416348,9.28571429 L28.5324489,6.38571429 L39.3038775,6.38571429 Z M36.725498,7.65714286 L36.0683551,7.65714286 L35.6844919,9.28571429 L36.3416348,9.28571429 L36.725498,7.65714286 Z M34.025498,7.65714286 L33.3683551,7.65714286 L32.9844919,9.28571429 L33.6416348,9.28571429 L34.025498,7.65714286 Z M31.325498,7.65714286 L30.6683551,7.65714286 L30.2844919,9.28571429 L30.9416348,9.28571429 L31.325498,7.65714286 Z M41.0290265,0.728571429 L40.69553,2.12857143 L39.0375837,3.18571429 L40.6375837,3.18571429 L40.108069,5.44285714 L40.079175,5.51997768 C39.9951514,5.69654018 39.794898,5.84940476 39.4784147,5.97857143 C39.177002,6.1015873 38.835834,6.17334656 38.4549108,6.19384921 L38.2215862,6.2 L36.578729,6.2 L37.4815234,5.57142857 L37.7939231,4.24285714 L36.1796374,4.24285714 L36.4375837,3.18571429 L38.8329732,1.88571429 L32.8901161,1.88571429 L32.6676222,2.27142857 L36.4533365,2.27142857 L36.0524631,3.92857143 L34.799302,4.78571429 L36.2243106,6.17142857 L34.1671677,6.17142857 L33.5774367,5.61428571 L32.752882,6.17142857 L30.7385963,6.17142857 L32.7122255,4.8 L31.7953202,3.92857143 L31.8416004,3.74285714 L30.4542442,6.15714286 L28.0542442,6.15714286 L30.4901161,1.88571429 L29.1044018,1.88571429 L29.3718836,0.728571429 L41.0290265,0.728571429 Z M34.6709054,3.28571429 L32.0994768,3.28571429 L31.9620335,3.52857143 L33.7334621,3.52857143 L33.7028299,3.7 L33.9368152,3.94285714 L34.3810695,3.62857143 L34.6709054,3.28571429 Z" id="形状结合" fill="url(#linearGradient-3)"></path>
            <path d="M49.0929687,0.585714286 L48.7778446,1.94285714 L46.8370133,2.07142857 L46.520527,3.44285714 L48.6919555,3.44285714 L48.3768314,4.8 L46.1911171,4.8 L44.7958668,10.7428571 L42.6244382,10.7428571 L44.0196885,4.8 L41.8625457,4.8 L42.1776698,3.44285714 L44.3490984,3.44285714 L44.6363147,2.22857143 L42.566912,2.35714286 L42.8820361,1 L49.0929687,0.585714286 Z M54.2222038,0.728571429 L52.0714869,9.8 L52.0325257,9.93392857 C51.9563478,10.1501984 51.823957,10.331746 51.6353534,10.4785714 C51.409029,10.6547619 51.1577716,10.7428571 50.8815811,10.7428571 L48.4672954,10.7428571 L49.8511236,9.41428571 L51.8112712,1.14285714 L51.5079181,0.728571429 L54.2222038,0.728571429 Z M43.667261,5.2 L42.2020492,10.2285714 L40.5734777,10.2285714 L42.0386896,5.2 L43.667261,5.2 Z M48.0101181,5.2 L47.0877635,10.2285714 L45.459192,10.2285714 L46.3815467,5.2 L48.0101181,5.2 Z M51.1043902,1.81428571 L49.3770056,9.14285714 L47.7627199,9.14285714 L49.4901045,1.81428571 L51.1043902,1.81428571 Z" id="形状结合" fill="url(#linearGradient-4)"></path>
        </g>
    </g>
</svg>