<?xml version="1.0" encoding="UTF-8"?>
<svg width="10px" height="10px" viewBox="0 0 10 10" version="1.1" xmlns="http://www.w3.org/2000/svg" xmlns:xlink="http://www.w3.org/1999/xlink">
    <!-- Generator: Sketch 55.2 (78181) - https://sketchapp.com -->
    <title>icon_winlist_up_normal</title>
    <desc>Created with Sketch.</desc>
    <g id="icon_winlist_up_normal" stroke="none" stroke-width="1" fill="none" fill-rule="evenodd" fill-opacity="0.5">
        <path d="M2.3975584,6.86656976 C2.53661309,6.86656976 2.66997245,6.92159114 2.76829896,7.01952984 C2.86662547,7.11746853 2.92186473,7.25030191 2.92186473,7.38880814 L2.92186473,9.47776162 C2.92186473,9.61626785 2.86662547,9.74910123 2.76829896,9.84703992 C2.66997245,9.94497861 2.53661309,10 2.3975584,10 L0.562486301,10 C0.272919916,10 0.0381799802,9.76618591 0.0381799802,9.47776162 L0.0381799802,7.38880814 C0.0381799802,7.10038384 0.272919916,6.86656976 0.562486301,6.86656976 L2.3975584,6.86656976 L2.3975584,6.86656976 Z M9.47569368,3.47202033 C9.76526006,3.47202033 10,3.70583441 10,3.9942587 L10,9.47776162 C10,9.76618591 9.76526006,10 9.47569368,10 L7.64062158,10 C7.35105519,10 7.11631525,9.76618591 7.11631525,9.47776162 L7.11631525,3.9942587 C7.11631525,3.70583441 7.35105519,3.47202033 7.64062158,3.47202033 L9.47569368,3.47202033 L9.47569368,3.47202033 Z M5.93662604,5.29985464 C6.22619243,5.29985464 6.46093236,5.53366872 6.46093236,5.82209302 L6.46093236,9.47776162 C6.46093236,9.76618591 6.22619243,10 5.93662604,10 L4.10155394,10 C3.81198755,10 3.57724762,9.76618591 3.57724762,9.47776162 L3.57724762,5.82209302 C3.57724762,5.53366872 3.81198755,5.29985464 4.10155394,5.29985464 L5.93662604,5.29985464 Z M2.22035387,7.54745345 L0.739690834,7.54745345 L0.739690834,9.31911631 L2.22035387,9.31911631 L2.22035387,7.54745345 Z M9.2867033,4.2019102 L7.82961195,4.2019102 L7.82961195,9.27011013 L9.2867033,9.27011013 L9.2867033,4.2019102 Z M5.74763567,5.98625221 L4.29054431,5.98625221 L4.29054431,9.31911631 L5.74763567,9.31911631 L5.74763567,5.98625221 Z M7.48935921,-6.21724894e-15 L7.52003113,0.00078335756 L9.67024763,0.0513098973 C9.76998907,0.0599307695 9.85609194,0.124383242 9.89214732,0.217413328 C9.92820269,0.310443413 9.90791413,0.415805055 9.83986073,0.488945658 L9.81574263,0.511401913 L5.53972986,4.0564337 C5.43794948,4.14170897 5.28818771,4.13755597 5.19132831,4.04677229 L5.17035605,4.02457715 L4.18805656,2.9068587 L0.635767994,5.92523509 C0.52490813,6.01780188 0.359723037,6.00342856 0.266656352,5.89311743 L0.0615116154,5.65270816 C0.0167166745,5.5996485 -0.00505606798,5.53102363 0.00099250979,5.46195975 C0.00704108756,5.39289587 0.0404144403,5.32906264 0.0937564539,5.2845301 L4.11020499,1.92784296 C4.16346003,1.88330636 4.23229778,1.86166923 4.30157099,1.86769264 C4.37084419,1.87371606 4.43487677,1.9069065 4.4795788,1.95996062 L5.49070352,3.16032551 L7.90041535,1.14605211 L7.29615233,0.428757701 C7.25912071,0.384806232 7.23765413,0.329929058 7.23507064,0.272608431 L7.23585709,0.238140698 C7.24750106,0.106213741 7.35645554,0.0038615493 7.48935921,-6.21724894e-15 Z" id="形状" fill="#000000" fill-rule="nonzero"></path>
    </g>
</svg>