<?xml version="1.0" encoding="UTF-8"?>
<svg width="16px" height="16px" viewBox="0 0 16 16" version="1.1" xmlns="http://www.w3.org/2000/svg" xmlns:xlink="http://www.w3.org/1999/xlink">
    <!-- Generator: Sketch 55.2 (78181) - https://sketchapp.com -->
    <title>icon_winlist_hot_large</title>
    <desc>Created with Sketch.</desc>
    <g id="icon_winlist_hot_large" stroke="none" stroke-width="1" fill="none" fill-rule="evenodd">
        <g id="编组-9备份-3">
            <circle id="椭圆形" fill="#FF3000" fill-rule="nonzero" cx="8" cy="8" r="8"></circle>
            <path d="M8.18311582,3.55555556 C6.63747948,4.46643109 5.37774119,5.96623478 5.65470493,7.81939536 C5.31520099,7.51315273 4.68086468,7.15979583 4.49324408,6.60227719 C3.44792933,7.65449549 3.17096559,9.1778563 4.20734603,10.67766 C4.30562349,10.8111504 4.43070389,10.9760503 4.58258723,11.117393 C5.02930293,11.5885355 6.10142063,12.4444444 8.04910111,12.4444444 C9.53219725,12.4444444 10.4792346,11.9497448 11.0778336,11.5335689 C11.6764326,11.1488025 12.0874111,10.4813506 12.2750317,9.92383196 C12.909368,7.81939537 11.6764326,5.98979192 10.0057159,4.99254024 C10.0057159,5.49509227 9.75555511,6.10757754 9.63047471,6.43737731 C8.90679526,5.69140165 8.18311581,4.93757362 8.18311582,3.55555556 Z" id="热度" fill="#FFFFFF"></path>
        </g>
        <g id="编组-9备份-6" transform="translate(3.000000, 3.000000)" fill="#FFFFFF">
            <path d="M5.11444739,2.22222222 C4.14842467,2.79151943 3.36108824,3.72889674 3.53419058,4.8871221 C3.32200062,4.69572045 2.92554043,4.4748724 2.80827755,4.12642324 C2.15495583,4.78405968 1.9818535,5.73616019 2.62959127,6.67353749 C2.69101468,6.75696898 2.76918993,6.86003141 2.86411702,6.94837063 C3.14331433,7.24283471 3.81338789,7.77777778 5.03068819,7.77777778 C5.95762328,7.77777778 6.5495216,7.4685905 6.923646,7.20848057 C7.29777041,6.96800157 7.55463193,6.55084413 7.67189481,6.20239498 C8.068355,4.88712211 7.29777041,3.74361995 6.25357244,3.12033765 C6.25357244,3.43443267 6.09722194,3.81723596 6.01904669,4.02336082 C5.56674704,3.55712603 5.11444738,3.08598351 5.11444739,2.22222222 Z" id="热度"></path>
        </g>
    </g>
</svg>