<?xml version="1.0" encoding="UTF-8"?>
<svg width="37px" height="15px" viewBox="0 0 37 15" version="1.1" xmlns="http://www.w3.org/2000/svg" xmlns:xlink="http://www.w3.org/1999/xlink">
    <title>编组 6</title>
    <defs>
        <linearGradient x1="0%" y1="58.2176771%" x2="100%" y2="41.7823229%" id="linearGradient-1">
            <stop stop-color="#FB3881" offset="0%"></stop>
            <stop stop-color="#FF7B84" offset="100%"></stop>
        </linearGradient>
    </defs>
    <g id="详情页" stroke="none" stroke-width="1" fill="none" fill-rule="evenodd">
        <g id="聊天室备份" transform="translate(-21.000000, -534.000000)">
            <g id="编组-6" transform="translate(21.000000, 534.000000)">
                <rect id="矩形" fill="url(#linearGradient-1)" x="0" y="0" width="37" height="15" rx="2"></rect>
                <g id="主播_60" transform="translate(4.000000, 3.000000)" fill="#FFFFFF" fill-rule="nonzero">
                    <path d="M26.6707357,3.34554037 L28.4936523,3.34554037 L28.4936523,2.56429037 L27.347819,2.56429037 C27.504069,2.30387372 27.7124023,1.99137372 27.8686523,1.67887369 L27.0874023,1.41845703 C26.9311523,1.83512369 26.7749023,2.19970703 26.566569,2.56429037 L25.941569,2.56429037 L25.941569,1.31429037 C26.879069,1.21012372 27.7124023,1.10595703 28.441569,0.949707031 L28.0249023,0.272623688 C26.566569,0.585123688 24.7436523,0.741373688 22.660319,0.741373688 L22.9207357,1.47054037 C23.7019857,1.47054037 24.4311523,1.47054037 25.1082357,1.41845703 L25.1082357,2.61637369 L24.4832357,2.61637369 C24.3269857,2.25179034 24.222819,1.93929034 24.066569,1.67887369 L23.285319,1.93929037 C23.441569,2.14762372 23.5457357,2.35595703 23.7019857,2.61637369 L22.660319,2.61637369 L22.660319,3.39762369 L24.379069,3.39762369 C23.910319,3.86637369 23.2332357,4.23095703 22.3999023,4.54345703 L22.3999023,4.07470703 C22.1394857,4.23095703 21.9311523,4.33512369 21.6707357,4.43929037 L21.6707357,2.87679037 L22.4519857,2.87679037 L22.4519857,2.04345703 L21.6707357,2.04345703 L21.6707357,0.324707031 L20.7332357,0.324707031 L20.7332357,2.04345703 L19.6394857,2.04345703 L19.6394857,2.87679037 L20.7332357,2.87679037 L20.7332357,4.85595703 C20.316569,5.01220703 19.8999023,5.11637369 19.4311523,5.22054037 L19.691569,6.10595703 C20.0561523,6.00179037 20.3686523,5.89762369 20.7332357,5.74137369 L20.7332357,7.77262369 C20.7332357,7.98095703 20.629069,8.08512369 20.3686523,8.08512369 C20.160319,8.08512369 19.8999023,8.08512369 19.6394857,8.03304037 L19.847819,8.86637369 L20.6811523,8.86637369 C21.3061523,8.86637369 21.6707357,8.55387369 21.6707357,7.98095703 L21.6707357,5.22054037 C21.9311523,5.11637372 22.191569,5.01220703 22.3999023,4.85595703 L22.3999023,4.64762369 L22.816569,5.22054037 C22.9207357,5.16845703 22.972819,5.11637372 23.0769857,5.11637369 L23.0769857,8.86637369 L23.8582357,8.86637369 L23.8582357,8.44970703 L27.191569,8.44970703 L27.191569,8.86637369 L28.0769857,8.86637369 L28.0769857,5.01220703 C28.1811523,5.06429037 28.3374023,5.11637369 28.441569,5.22054037 L28.8582357,4.49137369 C27.972819,4.12679034 27.191569,3.76220703 26.6707357,3.34554037 L26.6707357,3.34554037 Z M25.1082357,7.72054037 L23.8582357,7.72054037 L23.8582357,6.99137369 L25.160319,6.99137369 L25.1082357,7.72054037 L25.1082357,7.72054037 Z M25.1082357,6.31429037 L23.8582357,6.31429037 L23.8582357,5.53304037 L25.160319,5.53304037 L25.1082357,6.31429037 L25.1082357,6.31429037 Z M27.191569,7.72054037 L25.941569,7.72054037 L25.941569,6.99137369 L27.191569,6.99137369 L27.191569,7.72054037 Z M27.191569,6.31429037 L25.941569,6.31429037 L25.941569,5.53304037 L27.191569,5.53304037 L27.191569,6.31429037 Z M23.441569,4.85595703 C24.1186523,4.43929037 24.6394857,3.97054037 25.004069,3.34554037 L25.0561523,3.34554037 L25.0561523,4.54345703 L25.8894857,4.54345703 L25.8894857,3.34554037 L25.941569,3.34554037 C26.410319,3.91845703 26.9832357,4.38720703 27.7124023,4.85595703 L23.441569,4.85595703 Z M14.4832357,5.42887369 L17.660319,5.42887369 L17.660319,4.59554037 L14.4832357,4.59554037 L14.4832357,2.61637369 L18.129069,2.61637369 L18.129069,1.73095703 L14.379069,1.73095703 L14.4311523,1.73095703 C14.2749023,1.26220703 14.1186523,0.741373688 13.8582357,0.168457031 L12.9207357,0.428873688 C13.129069,0.845540344 13.3374023,1.31429034 13.4936523,1.73095703 L9.79573569,1.73095703 L9.79573569,2.61637369 L13.441569,2.61637369 L13.441569,4.54345703 L10.316569,4.54345703 L10.316569,5.37679037 L13.4936523,5.37679037 L13.4936523,7.66845703 L9.48323569,7.66845703 L9.48323569,8.55387369 L18.4936523,8.55387369 L18.4936523,7.66845703 L14.4832357,7.66845703 L14.4832357,5.42887369 L14.4832357,5.42887369 Z" id="形状"></path>
                    <path d="M3.54573569,6.67887369 C4.84781903,6.67887369 5.941569,5.58512369 5.941569,4.28304037 L5.941569,2.40804037 C5.941569,1.10595703 4.847819,0.0122070313 3.54573569,0.0122070313 C2.24365237,0.0122070313 1.14990234,1.10595703 1.14990234,2.40804037 L1.14990234,4.28304037 C1.14990234,5.58512372 2.24365234,6.67887369 3.54573569,6.67887369 Z M2.035319,2.40804037 C2.035319,1.57470703 2.71240234,0.897623688 3.54573569,0.897623688 C4.37906903,0.897623688 5.05615234,1.57470703 5.05615234,2.40804037 L5.05615234,4.28304037 C5.05615234,5.11637372 4.379069,5.79345703 3.54573569,5.79345703 C2.71240237,5.79345703 2.035319,5.11637369 2.035319,4.28304037 L2.035319,2.40804037 Z" id="形状"></path>
                    <path d="M6.879069,5.89762369 C6.67073566,5.74137369 6.410319,5.84554034 6.254069,6.00179037 C5.68115234,6.93929037 4.63948566,7.46012372 3.54573569,7.46012369 C2.45198572,7.46012366 1.46240234,6.88720703 0.837402344,6.00179037 C0.681152344,5.79345703 0.420735687,5.74137372 0.212402344,5.89762369 C0.00406900024,6.05387369 -0.0480143127,6.31429034 0.108235687,6.52262369 C0.785319031,7.56429034 1.87906903,8.24137369 3.129069,8.34554037 L3.129069,9.43929037 C3.129069,9.69970703 3.33740234,9.85595703 3.54573569,9.85595703 C3.80615234,9.85595703 3.96240234,9.64762369 3.96240234,9.43929037 L3.96240234,8.34554037 C5.21240234,8.18929037 6.30615234,7.51220703 6.98323569,6.47054037 C7.13948569,6.31429037 7.08740234,6.05387372 6.879069,5.89762369 L6.879069,5.89762369 Z" id="路径"></path>
                </g>
            </g>
        </g>
    </g>
</svg>