<?xml version="1.0" encoding="UTF-8"?>
<svg width="10px" height="10px" viewBox="0 0 10 10" version="1.1" xmlns="http://www.w3.org/2000/svg" xmlns:xlink="http://www.w3.org/1999/xlink">
    <!-- Generator: Sketch 55.2 (78181) - https://sketchapp.com -->
    <title>icon_winlist_earn_normal</title>
    <desc>Created with Sketch.</desc>
    <g id="icon_winlist_earn_normal" stroke="none" stroke-width="1" fill="none" fill-rule="evenodd" fill-opacity="0.5">
        <path d="M4.04167312,3.62447925 C5.28817531,3.62447925 6.58462927,3.36691042 7.36319824,2.87581234 L7.36319824,3.76990537 L8.08456677,3.76990537 L8.08456677,1.81226759 C8.08456677,0.635377463 6.0021612,0 4.04289363,0 C2.08356653,0 0,0.635377463 0,1.81226759 L0,7.15510768 C0,8.33199781 2.08234601,8.96737527 4.04167312,8.96737527 L4.04167312,8.29081308 C1.98367786,8.29081308 0.720088473,7.62906061 0.720088473,7.15510768 L0.720088473,5.54894549 C1.49871698,6.03889683 2.79395042,6.29766834 4.04167312,6.29766834 L4.04167312,5.61990347 C1.98367786,5.61990347 0.720088473,4.95820694 0.720088473,4.48426798 L0.720088473,2.87695907 C1.49871698,3.36691042 2.79517093,3.62447925 4.04167312,3.62447925 L4.04167312,3.62447925 Z M4.04167312,0.676562188 C6.09966839,0.676562188 7.36319824,1.33832864 7.36319824,1.81226759 C7.36319824,2.28622053 6.09965351,2.94791706 4.04167312,2.94791706 C1.98367786,2.94791706 0.720088473,2.28622054 0.720088473,1.81226759 C0.720088473,1.33832864 1.98489838,0.676562188 4.04167312,0.676562188 L4.04167312,0.676562188 Z M7.27302903,3.99540744 C5.48313012,3.99540744 4.5473381,4.64223832 4.5473381,5.281056 L4.5473381,8.71439339 C4.5473381,9.35315514 5.48435063,10 7.27302903,10 C9.04960647,10 9.98413332,9.36232906 9.99877949,8.72811231 L10,8.72811231 L10,5.281056 C9.99877949,4.64223832 9.06298746,3.99540744 7.27302903,3.99540744 L7.27302903,3.99540744 Z M7.27302903,4.67201159 C8.5963343,4.67201159 9.27863148,5.09903212 9.27863148,5.281056 C9.27863148,5.46307989 8.59633429,5.89010042 7.27302903,5.89010042 C5.9497833,5.89010042 5.26742657,5.46307989 5.26742657,5.281056 C5.26742657,5.09903212 5.9497684,4.67201159 7.27302903,4.67201159 L7.27302903,4.67201159 Z M7.27302903,9.32343781 C5.9497833,9.32343781 5.26742657,8.89641728 5.26742657,8.71439339 L5.26742657,7.89465661 C5.72436028,8.12824181 6.39579191,8.28393265 7.27302903,8.28393265 C8.15032568,8.28393265 8.8205368,8.12824182 9.27863148,7.89465661 L9.27863148,8.71439339 C9.27863148,8.8964033 8.59633429,9.32343781 7.27302903,9.32343781 L7.27302903,9.32343781 Z M7.27302903,7.60616778 C5.9497833,7.60616778 5.26742657,7.17914724 5.26742657,6.99712336 L5.26742657,6.17744251 C5.72436028,6.41097177 6.39579191,6.56666261 7.27302903,6.56666261 C8.15032568,6.56666261 8.8205368,6.41097178 9.27863148,6.17744251 L9.27863148,6.99712336 C9.27863148,7.17914724 8.59633429,7.60616778 7.27302903,7.60616778 L7.27302903,7.60616778 Z" id="形状" fill="#000000" fill-rule="nonzero"></path>
    </g>
</svg>