<?xml version="1.0" encoding="UTF-8"?>
<svg width="32px" height="32px" viewBox="0 0 32 32" version="1.1" xmlns="http://www.w3.org/2000/svg" xmlns:xlink="http://www.w3.org/1999/xlink">
    <!-- Generator: Sketch 55.2 (78181) - https://sketchapp.com -->
    <title>icon_dynamic_win_normal</title>
    <desc>Created with Sketch.</desc>
    <g id="icon_dynamic_win_normal" stroke="none" stroke-width="1" fill="none" fill-rule="evenodd">
        <g id="ico/收米">
            <circle id="椭圆形" fill="#FFFFFF" fill-rule="nonzero" cx="16" cy="16" r="16"></circle>
            <path d="M12.1978723,10.8995753 C10.8680851,10.8995753 9.85744681,8.02723489 9.85744681,7.9740434 C9.85744681,7.12297957 10.0702128,6.21872425 11.4,6.43149021 C12.7297872,6.64425617 13.2085106,7.49532 14.3255319,7.49532 C15.3893617,7.49532 15.8148936,6.37829872 17.2510638,6.43149021 C18.687234,6.43149021 18.793617,7.12297957 18.793617,7.9740434 C18.793617,7.9740434 17.7829787,10.8995753 16.4531915,10.8995753 L12.1978723,10.8995753 Z M17.9425532,22.282554 C18.1021277,22.388937 18.3148936,22.4421285 18.5808511,22.49532 L22.5702128,21.8570221 C22.5170213,23.1336179 21.506383,24.3570221 20.3361702,24.3570221 L8.63404255,24.3570221 C7.4106383,24.3570221 6.4,23.0804264 6.4,21.7506391 C6.4,21.7506391 7.57021277,11.8570221 12.3574468,11.8570221 L16.612766,11.8570221 C18.9,11.8570221 20.3893617,14.2506391 21.293617,16.6974477 C20.6553191,16.8570221 20.0702128,17.1229796 19.4851064,17.5485115 L18.8468085,16.9634051 C18.687234,16.8038306 18.4212766,16.7506391 18.1553191,16.8570221 C17.8893617,16.9634051 17.7297872,17.1761711 17.7297872,17.4421285 L17.7297872,21.7506391 C17.7297872,21.9634051 17.7829787,22.1229796 17.9425532,22.282554 Z M16.7191489,19.1974477 L14.8042553,19.1974477 L14.8042553,18.6123413 L16.6659574,18.6123413 C16.9851064,18.6123413 17.1446809,18.3995753 17.1446809,18.1336179 C17.1446809,17.8144689 16.8787234,17.6548945 16.6659574,17.6548945 L15.4957447,17.6548945 L16.7723404,15.3676604 C16.8787234,15.1548945 16.8255319,14.888937 16.612766,14.7293626 C16.4531915,14.6229796 16.187234,14.6761711 16.0276596,14.888937 L14.4851064,17.6548945 L14.3787234,17.6548945 L12.8361702,14.888937 C12.7829787,14.6761711 12.4638298,14.5697881 12.2510638,14.7293626 C12.0382979,14.8357455 11.9319149,15.1548945 12.0914894,15.3676604 L13.3148936,17.6548945 L12.0914894,17.6548945 C11.7723404,17.6548945 11.612766,17.9208519 11.612766,18.1336179 C11.612766,18.4527668 11.8787234,18.6123413 12.0914894,18.6123413 L13.9,18.6123413 L13.9,19.1974477 L12.0914894,19.1974477 C11.7723404,19.1974477 11.612766,19.4634051 11.612766,19.6761711 C11.612766,19.99532 11.8787234,20.1548945 12.0914894,20.1548945 L13.9,20.1548945 L13.9,21.3251072 C13.9,21.6442562 14.1659574,21.8038306 14.3787234,21.8038306 C14.6978723,21.8038306 14.8574468,21.5378732 14.8574468,21.3251072 L14.8574468,20.1548945 L16.7191489,20.1548945 C16.9851064,20.1548945 17.1978723,19.99532 17.1978723,19.6761711 C17.1978723,19.3570221 16.9319149,19.1974477 16.7191489,19.1974477 Z M19.0595745,18.0272349 C19.3255319,18.2400008 19.6446809,18.2400008 19.9106383,18.0804264 C22.3042553,16.3782987 25.1234043,17.1229796 26.6659574,17.7612774 C24.9638298,17.8144689 23.1021277,17.9208519 21.7723404,19.5697881 C21.5595745,19.8357455 21.5595745,20.2612774 21.8255319,20.5272349 L22.4106383,21.0591498 L18.4744681,21.6974477 L18.4744681,17.49532 L19.0595745,18.0272349 Z" id="形状结合" fill="#5078FF" fill-rule="evenodd"></path>
        </g>
    </g>
</svg>