<?xml version="1.0" encoding="UTF-8"?>
<svg width="32px" height="32px" viewBox="0 0 32 32" version="1.1" xmlns="http://www.w3.org/2000/svg" xmlns:xlink="http://www.w3.org/1999/xlink">
    <!-- Generator: Sketch 55.2 (78181) - https://sketchapp.com -->
    <title>icon_dynamic_shot_normal</title>
    <desc>Created with Sketch.</desc>
    <g id="icon_dynamic_shot_normal" stroke="none" stroke-width="1" fill="none" fill-rule="evenodd">
        <g id="ico/进球">
            <circle id="椭圆形" fill="#FFFFFF" fill-rule="nonzero" cx="16" cy="16" r="16"></circle>
            <path d="M24.3377778,10.5526205 C25.3333333,12.0553459 25.9555556,14.0589797 25.9555556,16.0626136 C25.9555556,17.0644305 25.8311111,17.9410203 25.4577778,18.6923829 C25.0844444,19.9446541 24.5866667,21.1969252 23.7155556,22.1987422 C21.9733333,24.3276031 19.36,25.8303285 16.3733333,25.9555556 C16.2488889,25.9555556 16.1244444,25.9555556 16,25.9555556 C15.7511111,25.9555556 15.3777778,25.9555556 15.1288889,25.9555556 C14.1333333,25.8303285 13.2622222,25.7051013 12.5155556,25.3294199 C11.1466667,24.8285115 9.90222222,24.0771488 8.90666667,23.0753319 C7.91111111,22.073515 7.16444444,20.8212438 6.66666667,19.4437456 C6.41777778,18.9428372 6.29333333,18.4419287 6.16888889,17.8157932 C6.04444444,17.3148847 6.04444444,16.6887491 6.04444444,16.0626136 C6.04444444,15.9373864 6.04444444,15.8121593 6.04444444,15.6869322 C6.16888889,12.6814815 7.66222222,9.92648498 9.77777778,8.17330538 C10.7733333,7.4219427 12.0177778,6.79580713 13.2622222,6.42012579 C14.1333333,6.16967156 15.0044444,6.04444444 16,6.04444444 C18.1155556,6.04444444 19.9822222,6.67058001 21.6,7.79762404 C21.8488889,8.04807826 22.0977778,8.17330538 22.3466667,8.42375961 C22.5955556,8.54898673 22.8444444,8.79944095 23.0933333,9.04989518 C23.5911111,9.55080363 23.9644444,9.92648498 24.3377778,10.5526205 Z M24.0888889,19.1932914 C24.2133333,19.0680643 24.2133333,19.0680643 24.0888889,19.1932914 L21.7244444,15.9373864 L21.2266667,15.3112509 L21.4755556,14.5598882 L22.9688889,10.6778477 C22.9688889,10.5526205 22.9688889,10.5526205 22.9688889,10.5526205 C22.8444444,10.3021663 22.5955556,10.0517121 22.3466667,9.80125786 C22.0977778,9.55080363 21.8488889,9.42557652 21.6,9.17512229 C21.4755556,9.17512229 21.4755556,9.17512229 21.4755556,9.17512229 L17.6177778,10.6778477 L16.9955556,10.9283019 L16.3733333,10.4273934 L13.1377778,7.79762404 C13.1377778,7.79762404 13.0133333,7.79762404 13.0133333,7.79762404 C12.64,7.92285115 12.3911111,8.04807826 12.1422222,8.17330538 C12.1422222,8.29853249 12.0177778,8.29853249 12.0177778,8.29853249 C11.7688889,8.42375961 11.3955556,8.54898673 11.2711111,8.79944095 C11.1466667,8.79944095 11.1466667,8.79944095 11.1466667,8.79944095 L11.3955556,12.9319357 L11.3955556,13.6832984 L10.7733333,14.0589797 L7.28888889,16.3130678 C7.28888889,16.6887491 7.41333333,17.1896576 7.53777778,17.5653389 C7.53777778,17.690566 7.53777778,17.690566 7.53777778,17.8157932 C7.53777778,18.0662474 7.66222222,18.3167016 7.66222222,18.5671559 L11.52,19.4437456 L12.2666667,19.6941999 L12.5155556,20.4455625 L13.5111111,24.4528302 C13.76,24.5780574 14.0088889,24.7032844 14.2577778,24.7032844 C14.3822222,24.7032844 14.3822222,24.7032844 14.5066667,24.7032844 C14.88,24.8285115 15.3777778,24.8285115 15.7511111,24.8285115 L17.9911111,21.4473795 L18.3644444,20.8212438 L19.1111111,20.8212438 L23.2177778,21.0716981 C23.2177778,21.0716981 23.2177778,20.946471 23.2177778,20.946471 C23.3422222,20.6960168 23.5911111,20.3203354 23.7155556,20.0698813 C23.84,19.819427 23.9644444,19.4437456 24.0888889,19.1932914 Z M19.6878433,15.8625797 L17.8325491,19.3814466 C17.7165932,19.6160377 17.4846815,19.7333333 17.3687256,19.7333333 C17.3687256,19.7333333 17.3687256,19.7333333 17.2527697,19.7333333 L13.4262255,19.1468555 C13.1943137,19.1468555 12.962402,18.9122643 12.962402,18.6776732 L12.2666667,14.8069196 C12.2666667,14.5723285 12.3826226,14.3377374 12.6145343,14.2204418 L16.0932109,12.3437128 C16.3251226,12.2264172 16.5570344,12.2264172 16.7889462,12.4610083 L19.4559315,15.1588063 C19.6878433,15.2761019 19.8037991,15.6279886 19.6878433,15.8625797 Z" id="形状结合" fill="#5078FF" fill-rule="evenodd"></path>
        </g>
    </g>
</svg>