<?xml version="1.0" encoding="UTF-8"?>
<svg width="16px" height="16px" viewBox="0 0 16 16" version="1.1" xmlns="http://www.w3.org/2000/svg" xmlns:xlink="http://www.w3.org/1999/xlink">
    <!-- Generator: Sketch 55.2 (78181) - https://sketchapp.com -->
    <title>icon_winlist_hot_small</title>
    <desc>Created with Sketch.</desc>
    <g id="icon_winlist_hot_small" stroke="none" stroke-width="1" fill="none" fill-rule="evenodd">
        <g id="编组-9备份-3" transform="translate(3.000000, 3.000000)">
            <circle id="椭圆形" fill="#FF3000" fill-rule="nonzero" cx="5" cy="5" r="5"></circle>
            <path d="M5.11444739,2.22222222 C4.14842467,2.79151943 3.36108824,3.72889674 3.53419058,4.8871221 C3.32200062,4.69572045 2.92554043,4.4748724 2.80827755,4.12642324 C2.15495583,4.78405968 1.9818535,5.73616019 2.62959127,6.67353749 C2.69101468,6.75696898 2.76918993,6.86003141 2.86411702,6.94837063 C3.14331433,7.24283471 3.81338789,7.77777778 5.03068819,7.77777778 C5.95762328,7.77777778 6.5495216,7.4685905 6.923646,7.20848057 C7.29777041,6.96800157 7.55463193,6.55084413 7.67189481,6.20239498 C8.068355,4.88712211 7.29777041,3.74361995 6.25357244,3.12033765 C6.25357244,3.43443267 6.09722194,3.81723596 6.01904669,4.02336082 C5.56674704,3.55712603 5.11444738,3.08598351 5.11444739,2.22222222 Z" id="热度" fill="#FFFFFF"></path>
        </g>
    </g>
</svg>