<?xml version="1.0" encoding="UTF-8"?>
<svg width="16px" height="16px" viewBox="0 0 16 16" version="1.1" xmlns="http://www.w3.org/2000/svg" xmlns:xlink="http://www.w3.org/1999/xlink">
    <!-- Generator: Sketch 55.2 (78181) - https://sketchapp.com -->
    <title>icon_winlist_hot_middle</title>
    <desc>Created with Sketch.</desc>
    <g id="icon_winlist_hot_middle" stroke="none" stroke-width="1" fill="none" fill-rule="evenodd">
        <g id="编组-9备份-3" transform="translate(2.000000, 2.000000)">
            <circle id="椭圆形" fill="#FF3000" fill-rule="nonzero" cx="6" cy="6" r="6"></circle>
            <path d="M6.13733687,2.66666667 C4.97810961,3.34982332 4.03330589,4.47467609 4.24102869,5.86454652 C3.98640074,5.63486454 3.51064851,5.36984687 3.36993306,4.95170789 C2.585947,5.74087161 2.3782242,6.88339223 3.15550952,8.00824499 C3.22921762,8.10836278 3.32302791,8.23203769 3.43694042,8.33804476 C3.7719772,8.69140165 4.57606547,9.33333333 6.03682583,9.33333333 C7.14914794,9.33333333 7.85942591,8.9623086 8.3083752,8.65017668 C8.75732449,8.36160189 9.06555832,7.86101296 9.20627377,7.44287397 C9.682026,5.86454653 8.75732449,4.49234394 7.50428693,3.74440518 C7.50428693,4.1213192 7.31666633,4.58068316 7.22285603,4.82803298 C6.68009645,4.26855124 6.13733686,3.70318021 6.13733687,2.66666667 Z" id="热度" fill="#FFFFFF"></path>
        </g>
    </g>
</svg>